%TF.GenerationSoftware,KiCad,Pcbnew,(6.0.7)*%
%TF.CreationDate,2023-09-05T12:05:13+01:00*%
%TF.ProjectId,CCC_rig_driver,4343435f-7269-4675-9f64-72697665722e,rev?*%
%TF.SameCoordinates,Original*%
%TF.FileFunction,Drillmap*%
%TF.FilePolarity,Positive*%
%FSLAX45Y45*%
G04 Gerber Fmt 4.5, Leading zero omitted, Abs format (unit mm)*
G04 Created by KiCad (PCBNEW (6.0.7)) date 2023-09-05 12:05:13*
%MOMM*%
%LPD*%
G01*
G04 APERTURE LIST*
%ADD10C,0.100000*%
%ADD11C,0.200000*%
%ADD12C,0.040000*%
%ADD13C,0.080000*%
%ADD14C,0.101600*%
%ADD15C,0.180000*%
%ADD16C,0.250000*%
%ADD17C,0.300000*%
G04 APERTURE END LIST*
D10*
X1199774Y-19399402D02*
X1199774Y-1999402D01*
X3006760Y-1999460D02*
X1199774Y-1999402D01*
X6593240Y-1999460D02*
X9199774Y-1999402D01*
X1199774Y-19399402D02*
X9199774Y-19399402D01*
X9199774Y-1999402D02*
X9199774Y-19399402D01*
D11*
D12*
X1730500Y-2931690D02*
X1770500Y-2971690D01*
X1770500Y-2931690D02*
X1730500Y-2971690D01*
X2304770Y-2304400D02*
X2344770Y-2344400D01*
X2344770Y-2304400D02*
X2304770Y-2344400D01*
X2304770Y-2404400D02*
X2344770Y-2444400D01*
X2344770Y-2404400D02*
X2304770Y-2444400D01*
X2306450Y-4846190D02*
X2346450Y-4886190D01*
X2346450Y-4846190D02*
X2306450Y-4886190D01*
X2309770Y-3579400D02*
X2349770Y-3619400D01*
X2349770Y-3579400D02*
X2309770Y-3619400D01*
X2309770Y-3679400D02*
X2349770Y-3719400D01*
X2349770Y-3679400D02*
X2309770Y-3719400D01*
X2404770Y-2304400D02*
X2444770Y-2344400D01*
X2444770Y-2304400D02*
X2404770Y-2344400D01*
X2404770Y-2404400D02*
X2444770Y-2444400D01*
X2444770Y-2404400D02*
X2404770Y-2444400D01*
X2409770Y-3579400D02*
X2449770Y-3619400D01*
X2449770Y-3579400D02*
X2409770Y-3619400D01*
X2409770Y-3679400D02*
X2449770Y-3719400D01*
X2449770Y-3679400D02*
X2409770Y-3719400D01*
X2499770Y-2899400D02*
X2539770Y-2939400D01*
X2539770Y-2899400D02*
X2499770Y-2939400D01*
X2499770Y-3129400D02*
X2539770Y-3169400D01*
X2539770Y-3129400D02*
X2499770Y-3169400D01*
X2504770Y-2304400D02*
X2544770Y-2344400D01*
X2544770Y-2304400D02*
X2504770Y-2344400D01*
X2504770Y-2404400D02*
X2544770Y-2444400D01*
X2544770Y-2404400D02*
X2504770Y-2444400D01*
X2509770Y-3579400D02*
X2549770Y-3619400D01*
X2549770Y-3579400D02*
X2509770Y-3619400D01*
X2509770Y-3679400D02*
X2549770Y-3719400D01*
X2549770Y-3679400D02*
X2509770Y-3719400D01*
X2604770Y-2304400D02*
X2644770Y-2344400D01*
X2644770Y-2304400D02*
X2604770Y-2344400D01*
X2604770Y-2404400D02*
X2644770Y-2444400D01*
X2644770Y-2404400D02*
X2604770Y-2444400D01*
X2609770Y-3579400D02*
X2649770Y-3619400D01*
X2649770Y-3579400D02*
X2609770Y-3619400D01*
X2609770Y-3679400D02*
X2649770Y-3719400D01*
X2649770Y-3679400D02*
X2609770Y-3719400D01*
X2619770Y-2899400D02*
X2659770Y-2939400D01*
X2659770Y-2899400D02*
X2619770Y-2939400D01*
X2619770Y-3129400D02*
X2659770Y-3169400D01*
X2659770Y-3129400D02*
X2619770Y-3169400D01*
X2704770Y-2304400D02*
X2744770Y-2344400D01*
X2744770Y-2304400D02*
X2704770Y-2344400D01*
X2704770Y-2404400D02*
X2744770Y-2444400D01*
X2744770Y-2404400D02*
X2704770Y-2444400D01*
X2709770Y-3579400D02*
X2749770Y-3619400D01*
X2749770Y-3579400D02*
X2709770Y-3619400D01*
X2709770Y-3679400D02*
X2749770Y-3719400D01*
X2749770Y-3679400D02*
X2709770Y-3719400D01*
X2749770Y-2899400D02*
X2789770Y-2939400D01*
X2789770Y-2899400D02*
X2749770Y-2939400D01*
X2749770Y-3129400D02*
X2789770Y-3169400D01*
X2789770Y-3129400D02*
X2749770Y-3169400D01*
X2804770Y-2304400D02*
X2844770Y-2344400D01*
X2844770Y-2304400D02*
X2804770Y-2344400D01*
X2804770Y-2404400D02*
X2844770Y-2444400D01*
X2844770Y-2404400D02*
X2804770Y-2444400D01*
X2809770Y-3579400D02*
X2849770Y-3619400D01*
X2849770Y-3579400D02*
X2809770Y-3619400D01*
X2809770Y-3679400D02*
X2849770Y-3719400D01*
X2849770Y-3679400D02*
X2809770Y-3719400D01*
X2904770Y-2304400D02*
X2944770Y-2344400D01*
X2944770Y-2304400D02*
X2904770Y-2344400D01*
X2904770Y-2404400D02*
X2944770Y-2444400D01*
X2944770Y-2404400D02*
X2904770Y-2444400D01*
X2909770Y-3579400D02*
X2949770Y-3619400D01*
X2949770Y-3579400D02*
X2909770Y-3619400D01*
X2909770Y-3679400D02*
X2949770Y-3719400D01*
X2949770Y-3679400D02*
X2909770Y-3719400D01*
X2969770Y-4249400D02*
X3009770Y-4289400D01*
X3009770Y-4249400D02*
X2969770Y-4289400D01*
X2969770Y-4349400D02*
X3009770Y-4389400D01*
X3009770Y-4349400D02*
X2969770Y-4389400D01*
X2969770Y-5519400D02*
X3009770Y-5559400D01*
X3009770Y-5519400D02*
X2969770Y-5559400D01*
X2969770Y-5619400D02*
X3009770Y-5659400D01*
X3009770Y-5619400D02*
X2969770Y-5659400D01*
X3004770Y-2304400D02*
X3044770Y-2344400D01*
X3044770Y-2304400D02*
X3004770Y-2344400D01*
X3004770Y-2404400D02*
X3044770Y-2444400D01*
X3044770Y-2404400D02*
X3004770Y-2444400D01*
X3005630Y-6805270D02*
X3045630Y-6845270D01*
X3045630Y-6805270D02*
X3005630Y-6845270D01*
X3009770Y-3579400D02*
X3049770Y-3619400D01*
X3049770Y-3579400D02*
X3009770Y-3619400D01*
X3009770Y-3679400D02*
X3049770Y-3719400D01*
X3049770Y-3679400D02*
X3009770Y-3719400D01*
X3049770Y-2899400D02*
X3089770Y-2939400D01*
X3089770Y-2899400D02*
X3049770Y-2939400D01*
X3069770Y-4249400D02*
X3109770Y-4289400D01*
X3109770Y-4249400D02*
X3069770Y-4289400D01*
X3069770Y-4349400D02*
X3109770Y-4389400D01*
X3109770Y-4349400D02*
X3069770Y-4389400D01*
X3069770Y-5519400D02*
X3109770Y-5559400D01*
X3109770Y-5519400D02*
X3069770Y-5559400D01*
X3069770Y-5619400D02*
X3109770Y-5659400D01*
X3109770Y-5619400D02*
X3069770Y-5659400D01*
X3159770Y-4839400D02*
X3199770Y-4879400D01*
X3199770Y-4839400D02*
X3159770Y-4879400D01*
X3159770Y-4949400D02*
X3199770Y-4989400D01*
X3199770Y-4949400D02*
X3159770Y-4989400D01*
X3159770Y-5069400D02*
X3199770Y-5109400D01*
X3199770Y-5069400D02*
X3159770Y-5109400D01*
X3169770Y-2899400D02*
X3209770Y-2939400D01*
X3209770Y-2899400D02*
X3169770Y-2939400D01*
X3169770Y-4249400D02*
X3209770Y-4289400D01*
X3209770Y-4249400D02*
X3169770Y-4289400D01*
X3169770Y-4349400D02*
X3209770Y-4389400D01*
X3209770Y-4349400D02*
X3169770Y-4389400D01*
X3169770Y-5519400D02*
X3209770Y-5559400D01*
X3209770Y-5519400D02*
X3169770Y-5559400D01*
X3169770Y-5619400D02*
X3209770Y-5659400D01*
X3209770Y-5619400D02*
X3169770Y-5659400D01*
X3269770Y-4249400D02*
X3309770Y-4289400D01*
X3309770Y-4249400D02*
X3269770Y-4289400D01*
X3269770Y-4349400D02*
X3309770Y-4389400D01*
X3309770Y-4349400D02*
X3269770Y-4389400D01*
X3269770Y-5519400D02*
X3309770Y-5559400D01*
X3309770Y-5519400D02*
X3269770Y-5559400D01*
X3269770Y-5619400D02*
X3309770Y-5659400D01*
X3309770Y-5619400D02*
X3269770Y-5659400D01*
X3279770Y-4839400D02*
X3319770Y-4879400D01*
X3319770Y-4839400D02*
X3279770Y-4879400D01*
X3279770Y-4949400D02*
X3319770Y-4989400D01*
X3319770Y-4949400D02*
X3279770Y-4989400D01*
X3279770Y-5069400D02*
X3319770Y-5109400D01*
X3319770Y-5069400D02*
X3279770Y-5109400D01*
X3299770Y-2899400D02*
X3339770Y-2939400D01*
X3339770Y-2899400D02*
X3299770Y-2939400D01*
X3369770Y-4249400D02*
X3409770Y-4289400D01*
X3409770Y-4249400D02*
X3369770Y-4289400D01*
X3369770Y-4349400D02*
X3409770Y-4389400D01*
X3409770Y-4349400D02*
X3369770Y-4389400D01*
X3369770Y-5519400D02*
X3409770Y-5559400D01*
X3409770Y-5519400D02*
X3369770Y-5559400D01*
X3369770Y-5619400D02*
X3409770Y-5659400D01*
X3409770Y-5619400D02*
X3369770Y-5659400D01*
X3409770Y-4839400D02*
X3449770Y-4879400D01*
X3449770Y-4839400D02*
X3409770Y-4879400D01*
X3409770Y-4949400D02*
X3449770Y-4989400D01*
X3449770Y-4949400D02*
X3409770Y-4989400D01*
X3409770Y-5069400D02*
X3449770Y-5109400D01*
X3449770Y-5069400D02*
X3409770Y-5109400D01*
X3419770Y-2899400D02*
X3459770Y-2939400D01*
X3459770Y-2899400D02*
X3419770Y-2939400D01*
X3421750Y-3310340D02*
X3461750Y-3350340D01*
X3461750Y-3310340D02*
X3421750Y-3350340D01*
X3469770Y-4249400D02*
X3509770Y-4289400D01*
X3509770Y-4249400D02*
X3469770Y-4289400D01*
X3469770Y-4349400D02*
X3509770Y-4389400D01*
X3509770Y-4349400D02*
X3469770Y-4389400D01*
X3469770Y-5519400D02*
X3509770Y-5559400D01*
X3509770Y-5519400D02*
X3469770Y-5559400D01*
X3469770Y-5619400D02*
X3509770Y-5659400D01*
X3509770Y-5619400D02*
X3469770Y-5659400D01*
X3569770Y-4249400D02*
X3609770Y-4289400D01*
X3609770Y-4249400D02*
X3569770Y-4289400D01*
X3569770Y-4349400D02*
X3609770Y-4389400D01*
X3609770Y-4349400D02*
X3569770Y-4389400D01*
X3569770Y-5519400D02*
X3609770Y-5559400D01*
X3609770Y-5519400D02*
X3569770Y-5559400D01*
X3569770Y-5619400D02*
X3609770Y-5659400D01*
X3609770Y-5619400D02*
X3569770Y-5659400D01*
X3629770Y-6179400D02*
X3669770Y-6219400D01*
X3669770Y-6179400D02*
X3629770Y-6219400D01*
X3629770Y-6279400D02*
X3669770Y-6319400D01*
X3669770Y-6279400D02*
X3629770Y-6319400D01*
X3629770Y-7449400D02*
X3669770Y-7489400D01*
X3669770Y-7449400D02*
X3629770Y-7489400D01*
X3629770Y-7549400D02*
X3669770Y-7589400D01*
X3669770Y-7549400D02*
X3629770Y-7589400D01*
X3669770Y-4249400D02*
X3709770Y-4289400D01*
X3709770Y-4249400D02*
X3669770Y-4289400D01*
X3669770Y-4349400D02*
X3709770Y-4389400D01*
X3709770Y-4349400D02*
X3669770Y-4389400D01*
X3669770Y-5519400D02*
X3709770Y-5559400D01*
X3709770Y-5519400D02*
X3669770Y-5559400D01*
X3669770Y-5619400D02*
X3709770Y-5659400D01*
X3709770Y-5619400D02*
X3669770Y-5659400D01*
X3709770Y-4839400D02*
X3749770Y-4879400D01*
X3749770Y-4839400D02*
X3709770Y-4879400D01*
X3709770Y-5009400D02*
X3749770Y-5049400D01*
X3749770Y-5009400D02*
X3709770Y-5049400D01*
X3716080Y-8741480D02*
X3756080Y-8781480D01*
X3756080Y-8741480D02*
X3716080Y-8781480D01*
X3729770Y-6179400D02*
X3769770Y-6219400D01*
X3769770Y-6179400D02*
X3729770Y-6219400D01*
X3729770Y-6279400D02*
X3769770Y-6319400D01*
X3769770Y-6279400D02*
X3729770Y-6319400D01*
X3729770Y-7449400D02*
X3769770Y-7489400D01*
X3769770Y-7449400D02*
X3729770Y-7489400D01*
X3729770Y-7549400D02*
X3769770Y-7589400D01*
X3769770Y-7549400D02*
X3729770Y-7589400D01*
X3819770Y-6769400D02*
X3859770Y-6809400D01*
X3859770Y-6769400D02*
X3819770Y-6809400D01*
X3819770Y-6879400D02*
X3859770Y-6919400D01*
X3859770Y-6879400D02*
X3819770Y-6919400D01*
X3819770Y-6999400D02*
X3859770Y-7039400D01*
X3859770Y-6999400D02*
X3819770Y-7039400D01*
X3829770Y-4839400D02*
X3869770Y-4879400D01*
X3869770Y-4839400D02*
X3829770Y-4879400D01*
X3829770Y-5009400D02*
X3869770Y-5049400D01*
X3869770Y-5009400D02*
X3829770Y-5049400D01*
X3829770Y-6179400D02*
X3869770Y-6219400D01*
X3869770Y-6179400D02*
X3829770Y-6219400D01*
X3829770Y-6279400D02*
X3869770Y-6319400D01*
X3869770Y-6279400D02*
X3829770Y-6319400D01*
X3829770Y-7449400D02*
X3869770Y-7489400D01*
X3869770Y-7449400D02*
X3829770Y-7489400D01*
X3829770Y-7549400D02*
X3869770Y-7589400D01*
X3869770Y-7549400D02*
X3829770Y-7589400D01*
X3929770Y-6179400D02*
X3969770Y-6219400D01*
X3969770Y-6179400D02*
X3929770Y-6219400D01*
X3929770Y-6279400D02*
X3969770Y-6319400D01*
X3969770Y-6279400D02*
X3929770Y-6319400D01*
X3929770Y-7449400D02*
X3969770Y-7489400D01*
X3969770Y-7449400D02*
X3929770Y-7489400D01*
X3929770Y-7549400D02*
X3969770Y-7589400D01*
X3969770Y-7549400D02*
X3929770Y-7589400D01*
X3939770Y-6769400D02*
X3979770Y-6809400D01*
X3979770Y-6769400D02*
X3939770Y-6809400D01*
X3939770Y-6879400D02*
X3979770Y-6919400D01*
X3979770Y-6879400D02*
X3939770Y-6919400D01*
X3939770Y-6999400D02*
X3979770Y-7039400D01*
X3979770Y-6999400D02*
X3939770Y-7039400D01*
X3959770Y-4839400D02*
X3999770Y-4879400D01*
X3999770Y-4839400D02*
X3959770Y-4879400D01*
X3959770Y-5009400D02*
X3999770Y-5049400D01*
X3999770Y-5009400D02*
X3959770Y-5049400D01*
X4029770Y-6179400D02*
X4069770Y-6219400D01*
X4069770Y-6179400D02*
X4029770Y-6219400D01*
X4029770Y-6279400D02*
X4069770Y-6319400D01*
X4069770Y-6279400D02*
X4029770Y-6319400D01*
X4029770Y-7449400D02*
X4069770Y-7489400D01*
X4069770Y-7449400D02*
X4029770Y-7489400D01*
X4029770Y-7549400D02*
X4069770Y-7589400D01*
X4069770Y-7549400D02*
X4029770Y-7589400D01*
X4037300Y-2770410D02*
X4077300Y-2810410D01*
X4077300Y-2770410D02*
X4037300Y-2810410D01*
X4069770Y-6769400D02*
X4109770Y-6809400D01*
X4109770Y-6769400D02*
X4069770Y-6809400D01*
X4069770Y-6879400D02*
X4109770Y-6919400D01*
X4109770Y-6879400D02*
X4069770Y-6919400D01*
X4069770Y-6999400D02*
X4109770Y-7039400D01*
X4109770Y-6999400D02*
X4069770Y-7039400D01*
X4079770Y-4839400D02*
X4119770Y-4879400D01*
X4119770Y-4839400D02*
X4079770Y-4879400D01*
X4079770Y-5009400D02*
X4119770Y-5049400D01*
X4119770Y-5009400D02*
X4079770Y-5049400D01*
X4129770Y-6179400D02*
X4169770Y-6219400D01*
X4169770Y-6179400D02*
X4129770Y-6219400D01*
X4129770Y-6279400D02*
X4169770Y-6319400D01*
X4169770Y-6279400D02*
X4129770Y-6319400D01*
X4129770Y-7449400D02*
X4169770Y-7489400D01*
X4169770Y-7449400D02*
X4129770Y-7489400D01*
X4129770Y-7549400D02*
X4169770Y-7589400D01*
X4169770Y-7549400D02*
X4129770Y-7589400D01*
X4229770Y-6179400D02*
X4269770Y-6219400D01*
X4269770Y-6179400D02*
X4229770Y-6219400D01*
X4229770Y-6279400D02*
X4269770Y-6319400D01*
X4269770Y-6279400D02*
X4229770Y-6319400D01*
X4229770Y-7449400D02*
X4269770Y-7489400D01*
X4269770Y-7449400D02*
X4229770Y-7489400D01*
X4229770Y-7549400D02*
X4269770Y-7589400D01*
X4269770Y-7549400D02*
X4229770Y-7589400D01*
X4289770Y-9379400D02*
X4329770Y-9419400D01*
X4329770Y-9379400D02*
X4289770Y-9419400D01*
X4289770Y-9479400D02*
X4329770Y-9519400D01*
X4329770Y-9479400D02*
X4289770Y-9519400D01*
X4299770Y-8119400D02*
X4339770Y-8159400D01*
X4339770Y-8119400D02*
X4299770Y-8159400D01*
X4299770Y-8219400D02*
X4339770Y-8259400D01*
X4339770Y-8219400D02*
X4299770Y-8259400D01*
X4317690Y-4638270D02*
X4357690Y-4678270D01*
X4357690Y-4638270D02*
X4317690Y-4678270D01*
X4329770Y-6179400D02*
X4369770Y-6219400D01*
X4369770Y-6179400D02*
X4329770Y-6219400D01*
X4329770Y-6279400D02*
X4369770Y-6319400D01*
X4369770Y-6279400D02*
X4329770Y-6319400D01*
X4329770Y-7449400D02*
X4369770Y-7489400D01*
X4369770Y-7449400D02*
X4329770Y-7489400D01*
X4329770Y-7549400D02*
X4369770Y-7589400D01*
X4369770Y-7549400D02*
X4329770Y-7589400D01*
X4369770Y-6769400D02*
X4409770Y-6809400D01*
X4409770Y-6769400D02*
X4369770Y-6809400D01*
X4369770Y-6939400D02*
X4409770Y-6979400D01*
X4409770Y-6939400D02*
X4369770Y-6979400D01*
X4389770Y-9379400D02*
X4429770Y-9419400D01*
X4429770Y-9379400D02*
X4389770Y-9419400D01*
X4389770Y-9479400D02*
X4429770Y-9519400D01*
X4429770Y-9479400D02*
X4389770Y-9519400D01*
X4399770Y-8119400D02*
X4439770Y-8159400D01*
X4439770Y-8119400D02*
X4399770Y-8159400D01*
X4399770Y-8219400D02*
X4439770Y-8259400D01*
X4439770Y-8219400D02*
X4399770Y-8259400D01*
X4479770Y-8709400D02*
X4519770Y-8749400D01*
X4519770Y-8709400D02*
X4479770Y-8749400D01*
X4479770Y-8819400D02*
X4519770Y-8859400D01*
X4519770Y-8819400D02*
X4479770Y-8859400D01*
X4479770Y-8939400D02*
X4519770Y-8979400D01*
X4519770Y-8939400D02*
X4479770Y-8979400D01*
X4480000Y-6020000D02*
X4520000Y-6060000D01*
X4520000Y-6020000D02*
X4480000Y-6060000D01*
X4480000Y-6120000D02*
X4520000Y-6160000D01*
X4520000Y-6120000D02*
X4480000Y-6160000D01*
X4480000Y-6220000D02*
X4520000Y-6260000D01*
X4520000Y-6220000D02*
X4480000Y-6260000D01*
X4489770Y-6769400D02*
X4529770Y-6809400D01*
X4529770Y-6769400D02*
X4489770Y-6809400D01*
X4489770Y-6939400D02*
X4529770Y-6979400D01*
X4529770Y-6939400D02*
X4489770Y-6979400D01*
X4489770Y-9379400D02*
X4529770Y-9419400D01*
X4529770Y-9379400D02*
X4489770Y-9419400D01*
X4489770Y-9479400D02*
X4529770Y-9519400D01*
X4529770Y-9479400D02*
X4489770Y-9519400D01*
X4499770Y-8119400D02*
X4539770Y-8159400D01*
X4539770Y-8119400D02*
X4499770Y-8159400D01*
X4499770Y-8219400D02*
X4539770Y-8259400D01*
X4539770Y-8219400D02*
X4499770Y-8259400D01*
X4580000Y-6020000D02*
X4620000Y-6060000D01*
X4620000Y-6020000D02*
X4580000Y-6060000D01*
X4580000Y-6120000D02*
X4620000Y-6160000D01*
X4620000Y-6120000D02*
X4580000Y-6160000D01*
X4580000Y-6220000D02*
X4620000Y-6260000D01*
X4620000Y-6220000D02*
X4580000Y-6260000D01*
X4589770Y-9379400D02*
X4629770Y-9419400D01*
X4629770Y-9379400D02*
X4589770Y-9419400D01*
X4589770Y-9479400D02*
X4629770Y-9519400D01*
X4629770Y-9479400D02*
X4589770Y-9519400D01*
X4599770Y-8119400D02*
X4639770Y-8159400D01*
X4639770Y-8119400D02*
X4599770Y-8159400D01*
X4599770Y-8219400D02*
X4639770Y-8259400D01*
X4639770Y-8219400D02*
X4599770Y-8259400D01*
X4599770Y-8709400D02*
X4639770Y-8749400D01*
X4639770Y-8709400D02*
X4599770Y-8749400D01*
X4599770Y-8819400D02*
X4639770Y-8859400D01*
X4639770Y-8819400D02*
X4599770Y-8859400D01*
X4599770Y-8939400D02*
X4639770Y-8979400D01*
X4639770Y-8939400D02*
X4599770Y-8979400D01*
X4619770Y-6769400D02*
X4659770Y-6809400D01*
X4659770Y-6769400D02*
X4619770Y-6809400D01*
X4619770Y-6939400D02*
X4659770Y-6979400D01*
X4659770Y-6939400D02*
X4619770Y-6979400D01*
X4680000Y-6020000D02*
X4720000Y-6060000D01*
X4720000Y-6020000D02*
X4680000Y-6060000D01*
X4680000Y-6120000D02*
X4720000Y-6160000D01*
X4720000Y-6120000D02*
X4680000Y-6160000D01*
X4680000Y-6220000D02*
X4720000Y-6260000D01*
X4720000Y-6220000D02*
X4680000Y-6260000D01*
X4689770Y-9379400D02*
X4729770Y-9419400D01*
X4729770Y-9379400D02*
X4689770Y-9419400D01*
X4689770Y-9479400D02*
X4729770Y-9519400D01*
X4729770Y-9479400D02*
X4689770Y-9519400D01*
X4699770Y-8119400D02*
X4739770Y-8159400D01*
X4739770Y-8119400D02*
X4699770Y-8159400D01*
X4699770Y-8219400D02*
X4739770Y-8259400D01*
X4739770Y-8219400D02*
X4699770Y-8259400D01*
X4702360Y-3743840D02*
X4742360Y-3783840D01*
X4742360Y-3743840D02*
X4702360Y-3783840D01*
X4729770Y-8709400D02*
X4769770Y-8749400D01*
X4769770Y-8709400D02*
X4729770Y-8749400D01*
X4729770Y-8819400D02*
X4769770Y-8859400D01*
X4769770Y-8819400D02*
X4729770Y-8859400D01*
X4729770Y-8939400D02*
X4769770Y-8979400D01*
X4769770Y-8939400D02*
X4729770Y-8979400D01*
X4739770Y-6769400D02*
X4779770Y-6809400D01*
X4779770Y-6769400D02*
X4739770Y-6809400D01*
X4739770Y-6939400D02*
X4779770Y-6979400D01*
X4779770Y-6939400D02*
X4739770Y-6979400D01*
X4772860Y-4522340D02*
X4812860Y-4562340D01*
X4812860Y-4522340D02*
X4772860Y-4562340D01*
X4780000Y-6020000D02*
X4820000Y-6060000D01*
X4820000Y-6020000D02*
X4780000Y-6060000D01*
X4780000Y-6120000D02*
X4820000Y-6160000D01*
X4820000Y-6120000D02*
X4780000Y-6160000D01*
X4780000Y-6220000D02*
X4820000Y-6260000D01*
X4820000Y-6220000D02*
X4780000Y-6260000D01*
X4789770Y-9379400D02*
X4829770Y-9419400D01*
X4829770Y-9379400D02*
X4789770Y-9419400D01*
X4789770Y-9479400D02*
X4829770Y-9519400D01*
X4829770Y-9479400D02*
X4789770Y-9519400D01*
X4799770Y-8119400D02*
X4839770Y-8159400D01*
X4839770Y-8119400D02*
X4799770Y-8159400D01*
X4799770Y-8219400D02*
X4839770Y-8259400D01*
X4839770Y-8219400D02*
X4799770Y-8259400D01*
X4850000Y-2910000D02*
X4890000Y-2950000D01*
X4890000Y-2910000D02*
X4850000Y-2950000D01*
X4850000Y-3010000D02*
X4890000Y-3050000D01*
X4890000Y-3010000D02*
X4850000Y-3050000D01*
X4850000Y-3110000D02*
X4890000Y-3150000D01*
X4890000Y-3110000D02*
X4850000Y-3150000D01*
X4850000Y-3210000D02*
X4890000Y-3250000D01*
X4890000Y-3210000D02*
X4850000Y-3250000D01*
X4850000Y-3310000D02*
X4890000Y-3350000D01*
X4890000Y-3310000D02*
X4850000Y-3350000D01*
X4864700Y-15198170D02*
X4904700Y-15238170D01*
X4904700Y-15198170D02*
X4864700Y-15238170D01*
X4880000Y-6020000D02*
X4920000Y-6060000D01*
X4920000Y-6020000D02*
X4880000Y-6060000D01*
X4880000Y-6120000D02*
X4920000Y-6160000D01*
X4920000Y-6120000D02*
X4880000Y-6160000D01*
X4880000Y-6220000D02*
X4920000Y-6260000D01*
X4920000Y-6220000D02*
X4880000Y-6260000D01*
X4882720Y-6991700D02*
X4922720Y-7031700D01*
X4922720Y-6991700D02*
X4882720Y-7031700D01*
X4889770Y-9379400D02*
X4929770Y-9419400D01*
X4929770Y-9379400D02*
X4889770Y-9419400D01*
X4889770Y-9479400D02*
X4929770Y-9519400D01*
X4929770Y-9479400D02*
X4889770Y-9519400D01*
X4899770Y-8119400D02*
X4939770Y-8159400D01*
X4939770Y-8119400D02*
X4899770Y-8159400D01*
X4899770Y-8219400D02*
X4939770Y-8259400D01*
X4939770Y-8219400D02*
X4899770Y-8259400D01*
X4950000Y-2910000D02*
X4990000Y-2950000D01*
X4990000Y-2910000D02*
X4950000Y-2950000D01*
X4950000Y-3010000D02*
X4990000Y-3050000D01*
X4990000Y-3010000D02*
X4950000Y-3050000D01*
X4950000Y-3110000D02*
X4990000Y-3150000D01*
X4990000Y-3110000D02*
X4950000Y-3150000D01*
X4950000Y-3210000D02*
X4990000Y-3250000D01*
X4990000Y-3210000D02*
X4950000Y-3250000D01*
X4950000Y-3310000D02*
X4990000Y-3350000D01*
X4990000Y-3310000D02*
X4950000Y-3350000D01*
X4987710Y-15582660D02*
X5027710Y-15622660D01*
X5027710Y-15582660D02*
X4987710Y-15622660D01*
X4989770Y-9379400D02*
X5029770Y-9419400D01*
X5029770Y-9379400D02*
X4989770Y-9419400D01*
X4989770Y-9479400D02*
X5029770Y-9519400D01*
X5029770Y-9479400D02*
X4989770Y-9519400D01*
X4999770Y-8119400D02*
X5039770Y-8159400D01*
X5039770Y-8119400D02*
X4999770Y-8159400D01*
X4999770Y-8219400D02*
X5039770Y-8259400D01*
X5039770Y-8219400D02*
X4999770Y-8259400D01*
X5004770Y-14674700D02*
X5044770Y-14714700D01*
X5044770Y-14674700D02*
X5004770Y-14714700D01*
X5009770Y-14908600D02*
X5049770Y-14948600D01*
X5049770Y-14908600D02*
X5009770Y-14948600D01*
X5009770Y-15078600D02*
X5049770Y-15118600D01*
X5049770Y-15078600D02*
X5009770Y-15118600D01*
X5029770Y-8709400D02*
X5069770Y-8749400D01*
X5069770Y-8709400D02*
X5029770Y-8749400D01*
X5029770Y-8879400D02*
X5069770Y-8919400D01*
X5069770Y-8879400D02*
X5029770Y-8919400D01*
X5050000Y-2910000D02*
X5090000Y-2950000D01*
X5090000Y-2910000D02*
X5050000Y-2950000D01*
X5050000Y-3010000D02*
X5090000Y-3050000D01*
X5090000Y-3010000D02*
X5050000Y-3050000D01*
X5050000Y-3110000D02*
X5090000Y-3150000D01*
X5090000Y-3110000D02*
X5050000Y-3150000D01*
X5050000Y-3210000D02*
X5090000Y-3250000D01*
X5090000Y-3210000D02*
X5050000Y-3250000D01*
X5129770Y-14908600D02*
X5169770Y-14948600D01*
X5169770Y-14908600D02*
X5129770Y-14948600D01*
X5129770Y-15078600D02*
X5169770Y-15118600D01*
X5169770Y-15078600D02*
X5129770Y-15118600D01*
X5149770Y-8709400D02*
X5189770Y-8749400D01*
X5189770Y-8709400D02*
X5149770Y-8749400D01*
X5149770Y-8879400D02*
X5189770Y-8919400D01*
X5189770Y-8879400D02*
X5149770Y-8919400D01*
X5150000Y-2910000D02*
X5190000Y-2950000D01*
X5190000Y-2910000D02*
X5150000Y-2950000D01*
X5150000Y-3010000D02*
X5190000Y-3050000D01*
X5190000Y-3010000D02*
X5150000Y-3050000D01*
X5150000Y-3110000D02*
X5190000Y-3150000D01*
X5190000Y-3110000D02*
X5150000Y-3150000D01*
X5250000Y-2910000D02*
X5290000Y-2950000D01*
X5290000Y-2910000D02*
X5250000Y-2950000D01*
X5250000Y-3010000D02*
X5290000Y-3050000D01*
X5290000Y-3010000D02*
X5250000Y-3050000D01*
X5259770Y-14908600D02*
X5299770Y-14948600D01*
X5299770Y-14908600D02*
X5259770Y-14948600D01*
X5259770Y-15078600D02*
X5299770Y-15118600D01*
X5299770Y-15078600D02*
X5259770Y-15118600D01*
X5315280Y-7055110D02*
X5355280Y-7095110D01*
X5355280Y-7055110D02*
X5315280Y-7095110D01*
X5379770Y-14908600D02*
X5419770Y-14948600D01*
X5419770Y-14908600D02*
X5379770Y-14948600D01*
X5379770Y-15078600D02*
X5419770Y-15118600D01*
X5419770Y-15078600D02*
X5379770Y-15118600D01*
X5398440Y-6641590D02*
X5438440Y-6681590D01*
X5438440Y-6641590D02*
X5398440Y-6681590D01*
X5419770Y-14308600D02*
X5459770Y-14348600D01*
X5459770Y-14308600D02*
X5419770Y-14348600D01*
X5419770Y-14408600D02*
X5459770Y-14448600D01*
X5459770Y-14408600D02*
X5419770Y-14448600D01*
X5420000Y-15580000D02*
X5460000Y-15620000D01*
X5460000Y-15580000D02*
X5420000Y-15620000D01*
X5420000Y-15680000D02*
X5460000Y-15720000D01*
X5460000Y-15680000D02*
X5420000Y-15720000D01*
X5490580Y-13263760D02*
X5530580Y-13303760D01*
X5530580Y-13263760D02*
X5490580Y-13303760D01*
X5519770Y-14308600D02*
X5559770Y-14348600D01*
X5559770Y-14308600D02*
X5519770Y-14348600D01*
X5519770Y-14408600D02*
X5559770Y-14448600D01*
X5559770Y-14408600D02*
X5519770Y-14448600D01*
X5520000Y-15580000D02*
X5560000Y-15620000D01*
X5560000Y-15580000D02*
X5520000Y-15620000D01*
X5520000Y-15680000D02*
X5560000Y-15720000D01*
X5560000Y-15680000D02*
X5520000Y-15720000D01*
X5619770Y-14308600D02*
X5659770Y-14348600D01*
X5659770Y-14308600D02*
X5619770Y-14348600D01*
X5619770Y-14408600D02*
X5659770Y-14448600D01*
X5659770Y-14408600D02*
X5619770Y-14448600D01*
X5620000Y-15580000D02*
X5660000Y-15620000D01*
X5660000Y-15580000D02*
X5620000Y-15620000D01*
X5620000Y-15680000D02*
X5660000Y-15720000D01*
X5660000Y-15680000D02*
X5620000Y-15720000D01*
X5649770Y-12978600D02*
X5689770Y-13018600D01*
X5689770Y-12978600D02*
X5649770Y-13018600D01*
X5649770Y-13148600D02*
X5689770Y-13188600D01*
X5689770Y-13148600D02*
X5649770Y-13188600D01*
X5669000Y-1911780D02*
X5709000Y-1951780D01*
X5709000Y-1911780D02*
X5669000Y-1951780D01*
X5675150Y-12740030D02*
X5715150Y-12780030D01*
X5715150Y-12740030D02*
X5675150Y-12780030D01*
X5679770Y-14848600D02*
X5719770Y-14888600D01*
X5719770Y-14848600D02*
X5679770Y-14888600D01*
X5679770Y-14968600D02*
X5719770Y-15008600D01*
X5719770Y-14968600D02*
X5679770Y-15008600D01*
X5679770Y-15078600D02*
X5719770Y-15118600D01*
X5719770Y-15078600D02*
X5679770Y-15118600D01*
X5719770Y-14308600D02*
X5759770Y-14348600D01*
X5759770Y-14308600D02*
X5719770Y-14348600D01*
X5719770Y-14408600D02*
X5759770Y-14448600D01*
X5759770Y-14408600D02*
X5719770Y-14448600D01*
X5720000Y-15580000D02*
X5760000Y-15620000D01*
X5760000Y-15580000D02*
X5720000Y-15620000D01*
X5720000Y-15680000D02*
X5760000Y-15720000D01*
X5760000Y-15680000D02*
X5720000Y-15720000D01*
X5769770Y-12978600D02*
X5809770Y-13018600D01*
X5809770Y-12978600D02*
X5769770Y-13018600D01*
X5769770Y-13148600D02*
X5809770Y-13188600D01*
X5809770Y-13148600D02*
X5769770Y-13188600D01*
X5809770Y-14848600D02*
X5849770Y-14888600D01*
X5849770Y-14848600D02*
X5809770Y-14888600D01*
X5809770Y-14968600D02*
X5849770Y-15008600D01*
X5849770Y-14968600D02*
X5809770Y-15008600D01*
X5809770Y-15078600D02*
X5849770Y-15118600D01*
X5849770Y-15078600D02*
X5809770Y-15118600D01*
X5819770Y-14308600D02*
X5859770Y-14348600D01*
X5859770Y-14308600D02*
X5819770Y-14348600D01*
X5819770Y-14408600D02*
X5859770Y-14448600D01*
X5859770Y-14408600D02*
X5819770Y-14448600D01*
X5820000Y-15580000D02*
X5860000Y-15620000D01*
X5860000Y-15580000D02*
X5820000Y-15620000D01*
X5820000Y-15680000D02*
X5860000Y-15720000D01*
X5860000Y-15680000D02*
X5820000Y-15720000D01*
X5899770Y-12978600D02*
X5939770Y-13018600D01*
X5939770Y-12978600D02*
X5899770Y-13018600D01*
X5899770Y-13148600D02*
X5939770Y-13188600D01*
X5939770Y-13148600D02*
X5899770Y-13188600D01*
X5919770Y-14308600D02*
X5959770Y-14348600D01*
X5959770Y-14308600D02*
X5919770Y-14348600D01*
X5919770Y-14408600D02*
X5959770Y-14448600D01*
X5959770Y-14408600D02*
X5919770Y-14448600D01*
X5920000Y-15580000D02*
X5960000Y-15620000D01*
X5960000Y-15580000D02*
X5920000Y-15620000D01*
X5920000Y-15680000D02*
X5960000Y-15720000D01*
X5960000Y-15680000D02*
X5920000Y-15720000D01*
X5923000Y-1913790D02*
X5963000Y-1953790D01*
X5963000Y-1913790D02*
X5923000Y-1953790D01*
X5929770Y-14848600D02*
X5969770Y-14888600D01*
X5969770Y-14848600D02*
X5929770Y-14888600D01*
X5929770Y-14968600D02*
X5969770Y-15008600D01*
X5969770Y-14968600D02*
X5929770Y-15008600D01*
X5929770Y-15078600D02*
X5969770Y-15118600D01*
X5969770Y-15078600D02*
X5929770Y-15118600D01*
X6019770Y-12978600D02*
X6059770Y-13018600D01*
X6059770Y-12978600D02*
X6019770Y-13018600D01*
X6019770Y-13148600D02*
X6059770Y-13188600D01*
X6059770Y-13148600D02*
X6019770Y-13188600D01*
X6019770Y-14308600D02*
X6059770Y-14348600D01*
X6059770Y-14308600D02*
X6019770Y-14348600D01*
X6019770Y-14408600D02*
X6059770Y-14448600D01*
X6059770Y-14408600D02*
X6019770Y-14448600D01*
X6020000Y-15580000D02*
X6060000Y-15620000D01*
X6060000Y-15580000D02*
X6020000Y-15620000D01*
X6020000Y-15680000D02*
X6060000Y-15720000D01*
X6060000Y-15680000D02*
X6020000Y-15720000D01*
X6026680Y-8628280D02*
X6066680Y-8668280D01*
X6066680Y-8628280D02*
X6026680Y-8668280D01*
X6059770Y-12368600D02*
X6099770Y-12408600D01*
X6099770Y-12368600D02*
X6059770Y-12408600D01*
X6059770Y-12468600D02*
X6099770Y-12508600D01*
X6099770Y-12468600D02*
X6059770Y-12508600D01*
X6059770Y-13648600D02*
X6099770Y-13688600D01*
X6099770Y-13648600D02*
X6059770Y-13688600D01*
X6059770Y-13748600D02*
X6099770Y-13788600D01*
X6099770Y-13748600D02*
X6059770Y-13788600D01*
X6119770Y-14308600D02*
X6159770Y-14348600D01*
X6159770Y-14308600D02*
X6119770Y-14348600D01*
X6119770Y-14408600D02*
X6159770Y-14448600D01*
X6159770Y-14408600D02*
X6119770Y-14448600D01*
X6120000Y-15580000D02*
X6160000Y-15620000D01*
X6160000Y-15580000D02*
X6120000Y-15620000D01*
X6120000Y-15680000D02*
X6160000Y-15720000D01*
X6160000Y-15680000D02*
X6120000Y-15720000D01*
X6159770Y-12368600D02*
X6199770Y-12408600D01*
X6199770Y-12368600D02*
X6159770Y-12408600D01*
X6159770Y-12468600D02*
X6199770Y-12508600D01*
X6199770Y-12468600D02*
X6159770Y-12508600D01*
X6159770Y-13648600D02*
X6199770Y-13688600D01*
X6199770Y-13648600D02*
X6159770Y-13688600D01*
X6159770Y-13748600D02*
X6199770Y-13788600D01*
X6199770Y-13748600D02*
X6159770Y-13788600D01*
X6162340Y-10940910D02*
X6202340Y-10980910D01*
X6202340Y-10940910D02*
X6162340Y-10980910D01*
X6259770Y-12368600D02*
X6299770Y-12408600D01*
X6299770Y-12368600D02*
X6259770Y-12408600D01*
X6259770Y-12468600D02*
X6299770Y-12508600D01*
X6299770Y-12468600D02*
X6259770Y-12508600D01*
X6259770Y-13648600D02*
X6299770Y-13688600D01*
X6299770Y-13648600D02*
X6259770Y-13688600D01*
X6259770Y-13748600D02*
X6299770Y-13788600D01*
X6299770Y-13748600D02*
X6259770Y-13788600D01*
X6271060Y-11417440D02*
X6311060Y-11457440D01*
X6311060Y-11417440D02*
X6271060Y-11457440D01*
X6299770Y-11038600D02*
X6339770Y-11078600D01*
X6339770Y-11038600D02*
X6299770Y-11078600D01*
X6319770Y-12918600D02*
X6359770Y-12958600D01*
X6359770Y-12918600D02*
X6319770Y-12958600D01*
X6319770Y-13038600D02*
X6359770Y-13078600D01*
X6359770Y-13038600D02*
X6319770Y-13078600D01*
X6319770Y-13148600D02*
X6359770Y-13188600D01*
X6359770Y-13148600D02*
X6319770Y-13188600D01*
X6321310Y-1865110D02*
X6361310Y-1905110D01*
X6361310Y-1865110D02*
X6321310Y-1905110D01*
X6359770Y-12368600D02*
X6399770Y-12408600D01*
X6399770Y-12368600D02*
X6359770Y-12408600D01*
X6359770Y-12468600D02*
X6399770Y-12508600D01*
X6399770Y-12468600D02*
X6359770Y-12508600D01*
X6359770Y-13648600D02*
X6399770Y-13688600D01*
X6399770Y-13648600D02*
X6359770Y-13688600D01*
X6359770Y-13748600D02*
X6399770Y-13788600D01*
X6399770Y-13748600D02*
X6359770Y-13788600D01*
X6449770Y-12918600D02*
X6489770Y-12958600D01*
X6489770Y-12918600D02*
X6449770Y-12958600D01*
X6449770Y-13038600D02*
X6489770Y-13078600D01*
X6489770Y-13038600D02*
X6449770Y-13078600D01*
X6449770Y-13148600D02*
X6489770Y-13188600D01*
X6489770Y-13148600D02*
X6449770Y-13188600D01*
X6459770Y-12368600D02*
X6499770Y-12408600D01*
X6499770Y-12368600D02*
X6459770Y-12408600D01*
X6459770Y-12468600D02*
X6499770Y-12508600D01*
X6499770Y-12468600D02*
X6459770Y-12508600D01*
X6459770Y-13648600D02*
X6499770Y-13688600D01*
X6499770Y-13648600D02*
X6459770Y-13688600D01*
X6459770Y-13748600D02*
X6499770Y-13788600D01*
X6499770Y-13748600D02*
X6459770Y-13788600D01*
X6549770Y-11038600D02*
X6589770Y-11078600D01*
X6589770Y-11038600D02*
X6549770Y-11078600D01*
X6549770Y-11208600D02*
X6589770Y-11248600D01*
X6589770Y-11208600D02*
X6549770Y-11248600D01*
X6559770Y-12368600D02*
X6599770Y-12408600D01*
X6599770Y-12368600D02*
X6559770Y-12408600D01*
X6559770Y-12468600D02*
X6599770Y-12508600D01*
X6599770Y-12468600D02*
X6559770Y-12508600D01*
X6559770Y-13648600D02*
X6599770Y-13688600D01*
X6599770Y-13648600D02*
X6559770Y-13688600D01*
X6559770Y-13748600D02*
X6599770Y-13788600D01*
X6599770Y-13748600D02*
X6559770Y-13788600D01*
X6569770Y-12918600D02*
X6609770Y-12958600D01*
X6609770Y-12918600D02*
X6569770Y-12958600D01*
X6569770Y-13038600D02*
X6609770Y-13078600D01*
X6609770Y-13038600D02*
X6569770Y-13078600D01*
X6569770Y-13148600D02*
X6609770Y-13188600D01*
X6609770Y-13148600D02*
X6569770Y-13188600D01*
X6659770Y-12368600D02*
X6699770Y-12408600D01*
X6699770Y-12368600D02*
X6659770Y-12408600D01*
X6659770Y-12468600D02*
X6699770Y-12508600D01*
X6699770Y-12468600D02*
X6659770Y-12508600D01*
X6659770Y-13648600D02*
X6699770Y-13688600D01*
X6699770Y-13648600D02*
X6659770Y-13688600D01*
X6659770Y-13748600D02*
X6699770Y-13788600D01*
X6699770Y-13748600D02*
X6659770Y-13788600D01*
X6669770Y-11038600D02*
X6709770Y-11078600D01*
X6709770Y-11038600D02*
X6669770Y-11078600D01*
X6669770Y-11208600D02*
X6709770Y-11248600D01*
X6709770Y-11208600D02*
X6669770Y-11248600D01*
X6689770Y-10428600D02*
X6729770Y-10468600D01*
X6729770Y-10428600D02*
X6689770Y-10468600D01*
X6689770Y-10528600D02*
X6729770Y-10568600D01*
X6729770Y-10528600D02*
X6689770Y-10568600D01*
X6696020Y-15047270D02*
X6736020Y-15087270D01*
X6736020Y-15047270D02*
X6696020Y-15087270D01*
X6699770Y-11708600D02*
X6739770Y-11748600D01*
X6739770Y-11708600D02*
X6699770Y-11748600D01*
X6699770Y-11808600D02*
X6739770Y-11848600D01*
X6739770Y-11808600D02*
X6699770Y-11848600D01*
X6759770Y-12368600D02*
X6799770Y-12408600D01*
X6799770Y-12368600D02*
X6759770Y-12408600D01*
X6759770Y-12468600D02*
X6799770Y-12508600D01*
X6799770Y-12468600D02*
X6759770Y-12508600D01*
X6759770Y-13648600D02*
X6799770Y-13688600D01*
X6799770Y-13648600D02*
X6759770Y-13688600D01*
X6759770Y-13748600D02*
X6799770Y-13788600D01*
X6799770Y-13748600D02*
X6759770Y-13788600D01*
X6789770Y-10428600D02*
X6829770Y-10468600D01*
X6829770Y-10428600D02*
X6789770Y-10468600D01*
X6789770Y-10528600D02*
X6829770Y-10568600D01*
X6829770Y-10528600D02*
X6789770Y-10568600D01*
X6799770Y-11708600D02*
X6839770Y-11748600D01*
X6839770Y-11708600D02*
X6799770Y-11748600D01*
X6799770Y-11808600D02*
X6839770Y-11848600D01*
X6839770Y-11808600D02*
X6799770Y-11848600D01*
X6864930Y-9393500D02*
X6904930Y-9433500D01*
X6904930Y-9393500D02*
X6864930Y-9433500D01*
X6889770Y-10428600D02*
X6929770Y-10468600D01*
X6929770Y-10428600D02*
X6889770Y-10468600D01*
X6889770Y-10528600D02*
X6929770Y-10568600D01*
X6929770Y-10528600D02*
X6889770Y-10568600D01*
X6899770Y-11708600D02*
X6939770Y-11748600D01*
X6939770Y-11708600D02*
X6899770Y-11748600D01*
X6899770Y-11808600D02*
X6939770Y-11848600D01*
X6939770Y-11808600D02*
X6899770Y-11848600D01*
X6929770Y-9098630D02*
X6969770Y-9138630D01*
X6969770Y-9098630D02*
X6929770Y-9138630D01*
X6929770Y-9268630D02*
X6969770Y-9308630D01*
X6969770Y-9268630D02*
X6929770Y-9308630D01*
X6969770Y-10978600D02*
X7009770Y-11018600D01*
X7009770Y-10978600D02*
X6969770Y-11018600D01*
X6969770Y-11098600D02*
X7009770Y-11138600D01*
X7009770Y-11098600D02*
X6969770Y-11138600D01*
X6969770Y-11208600D02*
X7009770Y-11248600D01*
X7009770Y-11208600D02*
X6969770Y-11248600D01*
X6989770Y-10428600D02*
X7029770Y-10468600D01*
X7029770Y-10428600D02*
X6989770Y-10468600D01*
X6989770Y-10528600D02*
X7029770Y-10568600D01*
X7029770Y-10528600D02*
X6989770Y-10568600D01*
X6999770Y-11708600D02*
X7039770Y-11748600D01*
X7039770Y-11708600D02*
X6999770Y-11748600D01*
X6999770Y-11808600D02*
X7039770Y-11848600D01*
X7039770Y-11808600D02*
X6999770Y-11848600D01*
X7049770Y-9098630D02*
X7089770Y-9138630D01*
X7089770Y-9098630D02*
X7049770Y-9138630D01*
X7049770Y-9268630D02*
X7089770Y-9308630D01*
X7089770Y-9268630D02*
X7049770Y-9308630D01*
X7089770Y-10428600D02*
X7129770Y-10468600D01*
X7129770Y-10428600D02*
X7089770Y-10468600D01*
X7089770Y-10528600D02*
X7129770Y-10568600D01*
X7129770Y-10528600D02*
X7089770Y-10568600D01*
X7099770Y-10978600D02*
X7139770Y-11018600D01*
X7139770Y-10978600D02*
X7099770Y-11018600D01*
X7099770Y-11098600D02*
X7139770Y-11138600D01*
X7139770Y-11098600D02*
X7099770Y-11138600D01*
X7099770Y-11208600D02*
X7139770Y-11248600D01*
X7139770Y-11208600D02*
X7099770Y-11248600D01*
X7099770Y-11708600D02*
X7139770Y-11748600D01*
X7139770Y-11708600D02*
X7099770Y-11748600D01*
X7099770Y-11808600D02*
X7139770Y-11848600D01*
X7139770Y-11808600D02*
X7099770Y-11848600D01*
X7189770Y-10428600D02*
X7229770Y-10468600D01*
X7229770Y-10428600D02*
X7189770Y-10468600D01*
X7189770Y-10528600D02*
X7229770Y-10568600D01*
X7229770Y-10528600D02*
X7189770Y-10568600D01*
X7199770Y-11708600D02*
X7239770Y-11748600D01*
X7239770Y-11708600D02*
X7199770Y-11748600D01*
X7199770Y-11808600D02*
X7239770Y-11848600D01*
X7239770Y-11808600D02*
X7199770Y-11848600D01*
X7219770Y-10978600D02*
X7259770Y-11018600D01*
X7259770Y-10978600D02*
X7219770Y-11018600D01*
X7219770Y-11098600D02*
X7259770Y-11138600D01*
X7259770Y-11098600D02*
X7219770Y-11138600D01*
X7219770Y-11208600D02*
X7259770Y-11248600D01*
X7259770Y-11208600D02*
X7219770Y-11248600D01*
X7289770Y-10428600D02*
X7329770Y-10468600D01*
X7329770Y-10428600D02*
X7289770Y-10468600D01*
X7289770Y-10528600D02*
X7329770Y-10568600D01*
X7329770Y-10528600D02*
X7289770Y-10568600D01*
X7299770Y-11708600D02*
X7339770Y-11748600D01*
X7339770Y-11708600D02*
X7299770Y-11748600D01*
X7299770Y-11808600D02*
X7339770Y-11848600D01*
X7339770Y-11808600D02*
X7299770Y-11848600D01*
X7339770Y-8598630D02*
X7379770Y-8638630D01*
X7379770Y-8598630D02*
X7339770Y-8638630D01*
X7339770Y-9768630D02*
X7379770Y-9808630D01*
X7379770Y-9768630D02*
X7339770Y-9808630D01*
X7339770Y-9868630D02*
X7379770Y-9908630D01*
X7379770Y-9868630D02*
X7339770Y-9908630D01*
X7341820Y-13073450D02*
X7381820Y-13113450D01*
X7381820Y-13073450D02*
X7341820Y-13113450D01*
X7389770Y-10428600D02*
X7429770Y-10468600D01*
X7429770Y-10428600D02*
X7389770Y-10468600D01*
X7389770Y-10528600D02*
X7429770Y-10568600D01*
X7429770Y-10528600D02*
X7389770Y-10568600D01*
X7399770Y-11708600D02*
X7439770Y-11748600D01*
X7439770Y-11708600D02*
X7399770Y-11748600D01*
X7399770Y-11808600D02*
X7439770Y-11848600D01*
X7439770Y-11808600D02*
X7399770Y-11848600D01*
X7439770Y-8598630D02*
X7479770Y-8638630D01*
X7479770Y-8598630D02*
X7439770Y-8638630D01*
X7439770Y-9768630D02*
X7479770Y-9808630D01*
X7479770Y-9768630D02*
X7439770Y-9808630D01*
X7439770Y-9868630D02*
X7479770Y-9908630D01*
X7479770Y-9868630D02*
X7439770Y-9908630D01*
X7510000Y-8170000D02*
X7550000Y-8210000D01*
X7550000Y-8170000D02*
X7510000Y-8210000D01*
X7510000Y-8270000D02*
X7550000Y-8310000D01*
X7550000Y-8270000D02*
X7510000Y-8310000D01*
X7510000Y-8370000D02*
X7550000Y-8410000D01*
X7550000Y-8370000D02*
X7510000Y-8410000D01*
X7530000Y-7570000D02*
X7570000Y-7610000D01*
X7570000Y-7570000D02*
X7530000Y-7610000D01*
X7530000Y-7670000D02*
X7570000Y-7710000D01*
X7570000Y-7670000D02*
X7530000Y-7710000D01*
X7530000Y-7770000D02*
X7570000Y-7810000D01*
X7570000Y-7770000D02*
X7530000Y-7810000D01*
X7539770Y-8598630D02*
X7579770Y-8638630D01*
X7579770Y-8598630D02*
X7539770Y-8638630D01*
X7539770Y-9768630D02*
X7579770Y-9808630D01*
X7579770Y-9768630D02*
X7539770Y-9808630D01*
X7539770Y-9868630D02*
X7579770Y-9908630D01*
X7579770Y-9868630D02*
X7539770Y-9908630D01*
X7599770Y-9038630D02*
X7639770Y-9078630D01*
X7639770Y-9038630D02*
X7599770Y-9078630D01*
X7599770Y-9158630D02*
X7639770Y-9198630D01*
X7639770Y-9158630D02*
X7599770Y-9198630D01*
X7599770Y-9268630D02*
X7639770Y-9308630D01*
X7639770Y-9268630D02*
X7599770Y-9308630D01*
X7610000Y-8170000D02*
X7650000Y-8210000D01*
X7650000Y-8170000D02*
X7610000Y-8210000D01*
X7610000Y-8270000D02*
X7650000Y-8310000D01*
X7650000Y-8270000D02*
X7610000Y-8310000D01*
X7610000Y-8370000D02*
X7650000Y-8410000D01*
X7650000Y-8370000D02*
X7610000Y-8410000D01*
X7630000Y-7570000D02*
X7670000Y-7610000D01*
X7670000Y-7570000D02*
X7630000Y-7610000D01*
X7630000Y-7670000D02*
X7670000Y-7710000D01*
X7670000Y-7670000D02*
X7630000Y-7710000D01*
X7630000Y-7770000D02*
X7670000Y-7810000D01*
X7670000Y-7770000D02*
X7630000Y-7810000D01*
X7639770Y-8598630D02*
X7679770Y-8638630D01*
X7679770Y-8598630D02*
X7639770Y-8638630D01*
X7639770Y-9768630D02*
X7679770Y-9808630D01*
X7679770Y-9768630D02*
X7639770Y-9808630D01*
X7639770Y-9868630D02*
X7679770Y-9908630D01*
X7679770Y-9868630D02*
X7639770Y-9908630D01*
X7710000Y-8170000D02*
X7750000Y-8210000D01*
X7750000Y-8170000D02*
X7710000Y-8210000D01*
X7710000Y-8270000D02*
X7750000Y-8310000D01*
X7750000Y-8270000D02*
X7710000Y-8310000D01*
X7710000Y-8370000D02*
X7750000Y-8410000D01*
X7750000Y-8370000D02*
X7710000Y-8410000D01*
X7729770Y-9038630D02*
X7769770Y-9078630D01*
X7769770Y-9038630D02*
X7729770Y-9078630D01*
X7729770Y-9158630D02*
X7769770Y-9198630D01*
X7769770Y-9158630D02*
X7729770Y-9198630D01*
X7729770Y-9268630D02*
X7769770Y-9308630D01*
X7769770Y-9268630D02*
X7729770Y-9308630D01*
X7739770Y-8598630D02*
X7779770Y-8638630D01*
X7779770Y-8598630D02*
X7739770Y-8638630D01*
X7739770Y-9768630D02*
X7779770Y-9808630D01*
X7779770Y-9768630D02*
X7739770Y-9808630D01*
X7739770Y-9868630D02*
X7779770Y-9908630D01*
X7779770Y-9868630D02*
X7739770Y-9908630D01*
X7810000Y-8170000D02*
X7850000Y-8210000D01*
X7850000Y-8170000D02*
X7810000Y-8210000D01*
X7810000Y-8270000D02*
X7850000Y-8310000D01*
X7850000Y-8270000D02*
X7810000Y-8310000D01*
X7810000Y-8370000D02*
X7850000Y-8410000D01*
X7850000Y-8370000D02*
X7810000Y-8410000D01*
X7839770Y-8598630D02*
X7879770Y-8638630D01*
X7879770Y-8598630D02*
X7839770Y-8638630D01*
X7839770Y-9768630D02*
X7879770Y-9808630D01*
X7879770Y-9768630D02*
X7839770Y-9808630D01*
X7839770Y-9868630D02*
X7879770Y-9908630D01*
X7879770Y-9868630D02*
X7839770Y-9908630D01*
X7849770Y-9038630D02*
X7889770Y-9078630D01*
X7889770Y-9038630D02*
X7849770Y-9078630D01*
X7849770Y-9158630D02*
X7889770Y-9198630D01*
X7889770Y-9158630D02*
X7849770Y-9198630D01*
X7849770Y-9268630D02*
X7889770Y-9308630D01*
X7889770Y-9268630D02*
X7849770Y-9308630D01*
X7910000Y-8170000D02*
X7950000Y-8210000D01*
X7950000Y-8170000D02*
X7910000Y-8210000D01*
X7910000Y-8270000D02*
X7950000Y-8310000D01*
X7950000Y-8270000D02*
X7910000Y-8310000D01*
X7910000Y-8370000D02*
X7950000Y-8410000D01*
X7950000Y-8370000D02*
X7910000Y-8410000D01*
X7939770Y-8598630D02*
X7979770Y-8638630D01*
X7979770Y-8598630D02*
X7939770Y-8638630D01*
X7939770Y-9768630D02*
X7979770Y-9808630D01*
X7979770Y-9768630D02*
X7939770Y-9808630D01*
X7939770Y-9868630D02*
X7979770Y-9908630D01*
X7979770Y-9868630D02*
X7939770Y-9908630D01*
X7983630Y-11124550D02*
X8023630Y-11164550D01*
X8023630Y-11124550D02*
X7983630Y-11164550D01*
X8039770Y-8598630D02*
X8079770Y-8638630D01*
X8079770Y-8598630D02*
X8039770Y-8638630D01*
X8039770Y-9768630D02*
X8079770Y-9808630D01*
X8079770Y-9768630D02*
X8039770Y-9808630D01*
X8039770Y-9868630D02*
X8079770Y-9908630D01*
X8079770Y-9868630D02*
X8039770Y-9908630D01*
X8626970Y-9224290D02*
X8666970Y-9264290D01*
X8666970Y-9224290D02*
X8626970Y-9264290D01*
D13*
X1560510Y-16420000D02*
G75*
G03*
X1560510Y-16420000I-40000J0D01*
G01*
X1810510Y-16420000D02*
G75*
G03*
X1810510Y-16420000I-40000J0D01*
G01*
X2350510Y-16420000D02*
G75*
G03*
X2350510Y-16420000I-40000J0D01*
G01*
X2600510Y-16420000D02*
G75*
G03*
X2600510Y-16420000I-40000J0D01*
G01*
X3140510Y-16420000D02*
G75*
G03*
X3140510Y-16420000I-40000J0D01*
G01*
X3390510Y-16420000D02*
G75*
G03*
X3390510Y-16420000I-40000J0D01*
G01*
X3920511Y-16420000D02*
G75*
G03*
X3920511Y-16420000I-40000J0D01*
G01*
X3966750Y-3462510D02*
G75*
G03*
X3966750Y-3462510I-40000J0D01*
G01*
X3966750Y-3812510D02*
G75*
G03*
X3966750Y-3812510I-40000J0D01*
G01*
X4170511Y-16420000D02*
G75*
G03*
X4170511Y-16420000I-40000J0D01*
G01*
X4628610Y-5399030D02*
G75*
G03*
X4628610Y-5399030I-40000J0D01*
G01*
X4628610Y-5749030D02*
G75*
G03*
X4628610Y-5749030I-40000J0D01*
G01*
X4820000Y-14035270D02*
G75*
G03*
X4820000Y-14035270I-40000J0D01*
G01*
X4820000Y-14385270D02*
G75*
G03*
X4820000Y-14385270I-40000J0D01*
G01*
X5221440Y-12275420D02*
G75*
G03*
X5221440Y-12275420I-40000J0D01*
G01*
X5221440Y-12625420D02*
G75*
G03*
X5221440Y-12625420I-40000J0D01*
G01*
X5290470Y-7335550D02*
G75*
G03*
X5290470Y-7335550I-40000J0D01*
G01*
X5290470Y-7685550D02*
G75*
G03*
X5290470Y-7685550I-40000J0D01*
G01*
X5600000Y-9464730D02*
G75*
G03*
X5600000Y-9464730I-40000J0D01*
G01*
X5600000Y-9814730D02*
G75*
G03*
X5600000Y-9814730I-40000J0D01*
G01*
X5863100Y-10338900D02*
G75*
G03*
X5863100Y-10338900I-40000J0D01*
G01*
X5863100Y-10688900D02*
G75*
G03*
X5863100Y-10688900I-40000J0D01*
G01*
X6299489Y-16360000D02*
G75*
G03*
X6299489Y-16360000I-40000J0D01*
G01*
X6430000Y-8815270D02*
G75*
G03*
X6430000Y-8815270I-40000J0D01*
G01*
X6430000Y-9165270D02*
G75*
G03*
X6430000Y-9165270I-40000J0D01*
G01*
X6549489Y-16360000D02*
G75*
G03*
X6549489Y-16360000I-40000J0D01*
G01*
X7409489Y-16420000D02*
G75*
G03*
X7409489Y-16420000I-40000J0D01*
G01*
X7659489Y-16420000D02*
G75*
G03*
X7659489Y-16420000I-40000J0D01*
G01*
X8059489Y-16420000D02*
G75*
G03*
X8059489Y-16420000I-40000J0D01*
G01*
X8309489Y-16420000D02*
G75*
G03*
X8309489Y-16420000I-40000J0D01*
G01*
X8679490Y-16420000D02*
G75*
G03*
X8679490Y-16420000I-40000J0D01*
G01*
X8929490Y-16420000D02*
G75*
G03*
X8929490Y-16420000I-40000J0D01*
G01*
D10*
X6807170Y-2649100D02*
X6807170Y-2749100D01*
X6757170Y-2699100D02*
X6857170Y-2699100D01*
X6807170Y-2903100D02*
X6807170Y-3003100D01*
X6757170Y-2953100D02*
X6857170Y-2953100D01*
X6807170Y-3157100D02*
X6807170Y-3257100D01*
X6757170Y-3207100D02*
X6857170Y-3207100D01*
X6807170Y-3411100D02*
X6807170Y-3511100D01*
X6757170Y-3461100D02*
X6857170Y-3461100D01*
X6807170Y-3919100D02*
X6807170Y-4019100D01*
X6757170Y-3969100D02*
X6857170Y-3969100D01*
X6807170Y-4173100D02*
X6807170Y-4273100D01*
X6757170Y-4223100D02*
X6857170Y-4223100D01*
X6807170Y-4427100D02*
X6807170Y-4527100D01*
X6757170Y-4477100D02*
X6857170Y-4477100D01*
X6807170Y-4681100D02*
X6807170Y-4781100D01*
X6757170Y-4731100D02*
X6857170Y-4731100D01*
X6807170Y-5417700D02*
X6807170Y-5517700D01*
X6757170Y-5467700D02*
X6857170Y-5467700D01*
X6807170Y-5671700D02*
X6807170Y-5771700D01*
X6757170Y-5721700D02*
X6857170Y-5721700D01*
X6807170Y-5925700D02*
X6807170Y-6025700D01*
X6757170Y-5975700D02*
X6857170Y-5975700D01*
X6807170Y-6179700D02*
X6807170Y-6279700D01*
X6757170Y-6229700D02*
X6857170Y-6229700D01*
X6807170Y-6687700D02*
X6807170Y-6787700D01*
X6757170Y-6737700D02*
X6857170Y-6737700D01*
X6807170Y-6941700D02*
X6807170Y-7041700D01*
X6757170Y-6991700D02*
X6857170Y-6991700D01*
X6807170Y-7195700D02*
X6807170Y-7295700D01*
X6757170Y-7245700D02*
X6857170Y-7245700D01*
X6807170Y-7449700D02*
X6807170Y-7549700D01*
X6757170Y-7499700D02*
X6857170Y-7499700D01*
X7061170Y-2649100D02*
X7061170Y-2749100D01*
X7011170Y-2699100D02*
X7111170Y-2699100D01*
X7061170Y-2903100D02*
X7061170Y-3003100D01*
X7011170Y-2953100D02*
X7111170Y-2953100D01*
X7061170Y-3157100D02*
X7061170Y-3257100D01*
X7011170Y-3207100D02*
X7111170Y-3207100D01*
X7061170Y-3411100D02*
X7061170Y-3511100D01*
X7011170Y-3461100D02*
X7111170Y-3461100D01*
X7061170Y-3919100D02*
X7061170Y-4019100D01*
X7011170Y-3969100D02*
X7111170Y-3969100D01*
X7061170Y-4173100D02*
X7061170Y-4273100D01*
X7011170Y-4223100D02*
X7111170Y-4223100D01*
X7061170Y-4427100D02*
X7061170Y-4527100D01*
X7011170Y-4477100D02*
X7111170Y-4477100D01*
X7061170Y-4681100D02*
X7061170Y-4781100D01*
X7011170Y-4731100D02*
X7111170Y-4731100D01*
X7061170Y-5417700D02*
X7061170Y-5517700D01*
X7011170Y-5467700D02*
X7111170Y-5467700D01*
X7061170Y-5671700D02*
X7061170Y-5771700D01*
X7011170Y-5721700D02*
X7111170Y-5721700D01*
X7061170Y-5925700D02*
X7061170Y-6025700D01*
X7011170Y-5975700D02*
X7111170Y-5975700D01*
X7061170Y-6179700D02*
X7061170Y-6279700D01*
X7011170Y-6229700D02*
X7111170Y-6229700D01*
X7061170Y-6687700D02*
X7061170Y-6787700D01*
X7011170Y-6737700D02*
X7111170Y-6737700D01*
X7061170Y-6941700D02*
X7061170Y-7041700D01*
X7011170Y-6991700D02*
X7111170Y-6991700D01*
X7061170Y-7195700D02*
X7061170Y-7295700D01*
X7011170Y-7245700D02*
X7111170Y-7245700D01*
X7061170Y-7449700D02*
X7061170Y-7549700D01*
X7011170Y-7499700D02*
X7111170Y-7499700D01*
X7315170Y-2649100D02*
X7315170Y-2749100D01*
X7265170Y-2699100D02*
X7365170Y-2699100D01*
X7315170Y-2903100D02*
X7315170Y-3003100D01*
X7265170Y-2953100D02*
X7365170Y-2953100D01*
X7315170Y-3157100D02*
X7315170Y-3257100D01*
X7265170Y-3207100D02*
X7365170Y-3207100D01*
X7315170Y-3411100D02*
X7315170Y-3511100D01*
X7265170Y-3461100D02*
X7365170Y-3461100D01*
X7315170Y-3919100D02*
X7315170Y-4019100D01*
X7265170Y-3969100D02*
X7365170Y-3969100D01*
X7315170Y-4173100D02*
X7315170Y-4273100D01*
X7265170Y-4223100D02*
X7365170Y-4223100D01*
X7315170Y-4427100D02*
X7315170Y-4527100D01*
X7265170Y-4477100D02*
X7365170Y-4477100D01*
X7315170Y-4681100D02*
X7315170Y-4781100D01*
X7265170Y-4731100D02*
X7365170Y-4731100D01*
X7315170Y-5417700D02*
X7315170Y-5517700D01*
X7265170Y-5467700D02*
X7365170Y-5467700D01*
X7315170Y-5671700D02*
X7315170Y-5771700D01*
X7265170Y-5721700D02*
X7365170Y-5721700D01*
X7315170Y-5925700D02*
X7315170Y-6025700D01*
X7265170Y-5975700D02*
X7365170Y-5975700D01*
X7315170Y-6179700D02*
X7315170Y-6279700D01*
X7265170Y-6229700D02*
X7365170Y-6229700D01*
X7315170Y-6687700D02*
X7315170Y-6787700D01*
X7265170Y-6737700D02*
X7365170Y-6737700D01*
X7315170Y-6941700D02*
X7315170Y-7041700D01*
X7265170Y-6991700D02*
X7365170Y-6991700D01*
X7315170Y-7195700D02*
X7315170Y-7295700D01*
X7265170Y-7245700D02*
X7365170Y-7245700D01*
X7315170Y-7449700D02*
X7315170Y-7549700D01*
X7265170Y-7499700D02*
X7365170Y-7499700D01*
D14*
X7325691Y-2227021D02*
X7325691Y-2155179D01*
X7253849Y-2155179D01*
X7253849Y-2227021D01*
X7325691Y-2227021D01*
X7325691Y-8043621D02*
X7325691Y-7971779D01*
X7253849Y-7971779D01*
X7253849Y-8043621D01*
X7325691Y-8043621D01*
X7579691Y-2227021D02*
X7579691Y-2155179D01*
X7507849Y-2155179D01*
X7507849Y-2227021D01*
X7579691Y-2227021D01*
X7579691Y-8043621D02*
X7579691Y-7971779D01*
X7507849Y-7971779D01*
X7507849Y-8043621D01*
X7579691Y-8043621D01*
X7833691Y-2227021D02*
X7833691Y-2155179D01*
X7761849Y-2155179D01*
X7761849Y-2227021D01*
X7833691Y-2227021D01*
X7833691Y-8043621D02*
X7833691Y-7971779D01*
X7761849Y-7971779D01*
X7761849Y-8043621D01*
X7833691Y-8043621D01*
X8087691Y-2227021D02*
X8087691Y-2155179D01*
X8015849Y-2155179D01*
X8015849Y-2227021D01*
X8087691Y-2227021D01*
X8087691Y-8043621D02*
X8087691Y-7971779D01*
X8015849Y-7971779D01*
X8015849Y-8043621D01*
X8087691Y-8043621D01*
X8341691Y-2227021D02*
X8341691Y-2155179D01*
X8269849Y-2155179D01*
X8269849Y-2227021D01*
X8341691Y-2227021D01*
X8341691Y-8043621D02*
X8341691Y-7971779D01*
X8269849Y-7971779D01*
X8269849Y-8043621D01*
X8341691Y-8043621D01*
X8595691Y-2227021D02*
X8595691Y-2155179D01*
X8523849Y-2155179D01*
X8523849Y-2227021D01*
X8595691Y-2227021D01*
X8595691Y-8043621D02*
X8595691Y-7971779D01*
X8523849Y-7971779D01*
X8523849Y-8043621D01*
X8595691Y-8043621D01*
D15*
X1819570Y-17171400D02*
X1909570Y-17081400D01*
X1819570Y-16991400D01*
X1729570Y-17081400D01*
X1819570Y-17171400D01*
X1819570Y-17581400D02*
X1909570Y-17491400D01*
X1819570Y-17401400D01*
X1729570Y-17491400D01*
X1819570Y-17581400D01*
X2609570Y-17171400D02*
X2699570Y-17081400D01*
X2609570Y-16991400D01*
X2519570Y-17081400D01*
X2609570Y-17171400D01*
X2609570Y-17581400D02*
X2699570Y-17491400D01*
X2609570Y-17401400D01*
X2519570Y-17491400D01*
X2609570Y-17581400D01*
X3399570Y-17171400D02*
X3489570Y-17081400D01*
X3399570Y-16991400D01*
X3309570Y-17081400D01*
X3399570Y-17171400D01*
X3399570Y-17581400D02*
X3489570Y-17491400D01*
X3399570Y-17401400D01*
X3309570Y-17491400D01*
X3399570Y-17581400D01*
X4189570Y-17171400D02*
X4279570Y-17081400D01*
X4189570Y-16991400D01*
X4099570Y-17081400D01*
X4189570Y-17171400D01*
X4189570Y-17581400D02*
X4279570Y-17491400D01*
X4189570Y-17401400D01*
X4099570Y-17491400D01*
X4189570Y-17581400D01*
X6209970Y-17171400D02*
X6299970Y-17081400D01*
X6209970Y-16991400D01*
X6119970Y-17081400D01*
X6209970Y-17171400D01*
X6209970Y-17581400D02*
X6299970Y-17491400D01*
X6209970Y-17401400D01*
X6119970Y-17491400D01*
X6209970Y-17581400D01*
X6999970Y-17171400D02*
X7089970Y-17081400D01*
X6999970Y-16991400D01*
X6909970Y-17081400D01*
X6999970Y-17171400D01*
X6999970Y-17581400D02*
X7089970Y-17491400D01*
X6999970Y-17401400D01*
X6909970Y-17491400D01*
X6999970Y-17581400D01*
X7789970Y-17171400D02*
X7879970Y-17081400D01*
X7789970Y-16991400D01*
X7699970Y-17081400D01*
X7789970Y-17171400D01*
X7789970Y-17581400D02*
X7879970Y-17491400D01*
X7789970Y-17401400D01*
X7699970Y-17491400D01*
X7789970Y-17581400D01*
X8579970Y-17171400D02*
X8669970Y-17081400D01*
X8579970Y-16991400D01*
X8489970Y-17081400D01*
X8579970Y-17171400D01*
X8579970Y-17581400D02*
X8669970Y-17491400D01*
X8579970Y-17401400D01*
X8489970Y-17491400D01*
X8579970Y-17581400D01*
D16*
X1441750Y-3468760D02*
X1691750Y-3718760D01*
X1691750Y-3468760D02*
X1441750Y-3718760D01*
X1691750Y-3593760D02*
G75*
G03*
X1691750Y-3593760I-125000J0D01*
G01*
X1466750Y-2293760D02*
X1716750Y-2543760D01*
X1716750Y-2293760D02*
X1466750Y-2543760D01*
X1716750Y-2418760D02*
G75*
G03*
X1716750Y-2418760I-125000J0D01*
G01*
X2103610Y-5405280D02*
X2353610Y-5655280D01*
X2353610Y-5405280D02*
X2103610Y-5655280D01*
X2353610Y-5530280D02*
G75*
G03*
X2353610Y-5530280I-125000J0D01*
G01*
X2128610Y-4230280D02*
X2378610Y-4480280D01*
X2378610Y-4230280D02*
X2128610Y-4480280D01*
X2378610Y-4355280D02*
G75*
G03*
X2378610Y-4355280I-125000J0D01*
G01*
X2765470Y-7341800D02*
X3015470Y-7591800D01*
X3015470Y-7341800D02*
X2765470Y-7591800D01*
X3015470Y-7466800D02*
G75*
G03*
X3015470Y-7466800I-125000J0D01*
G01*
X2790470Y-6166800D02*
X3040470Y-6416800D01*
X3040470Y-6166800D02*
X2790470Y-6416800D01*
X3040470Y-6291800D02*
G75*
G03*
X3040470Y-6291800I-125000J0D01*
G01*
X3427330Y-9278320D02*
X3677330Y-9528320D01*
X3677330Y-9278320D02*
X3427330Y-9528320D01*
X3677330Y-9403320D02*
G75*
G03*
X3677330Y-9403320I-125000J0D01*
G01*
X3452330Y-8103320D02*
X3702330Y-8353320D01*
X3702330Y-8103320D02*
X3452330Y-8353320D01*
X3702330Y-8228320D02*
G75*
G03*
X3702330Y-8228320I-125000J0D01*
G01*
X6749770Y-15480690D02*
X6999770Y-15730690D01*
X6999770Y-15480690D02*
X6749770Y-15730690D01*
X6999770Y-15605690D02*
G75*
G03*
X6999770Y-15605690I-125000J0D01*
G01*
X6774770Y-14305690D02*
X7024770Y-14555690D01*
X7024770Y-14305690D02*
X6774770Y-14555690D01*
X7024770Y-14430690D02*
G75*
G03*
X7024770Y-14430690I-125000J0D01*
G01*
X6859970Y-2193100D02*
X7109970Y-2443100D01*
X7109970Y-2193100D02*
X6859970Y-2443100D01*
X7109970Y-2318100D02*
G75*
G03*
X7109970Y-2318100I-125000J0D01*
G01*
X6859970Y-7755700D02*
X7109970Y-8005700D01*
X7109970Y-7755700D02*
X6859970Y-8005700D01*
X7109970Y-7880700D02*
G75*
G03*
X7109970Y-7880700I-125000J0D01*
G01*
X7391440Y-13544170D02*
X7641440Y-13794170D01*
X7641440Y-13544170D02*
X7391440Y-13794170D01*
X7641440Y-13669170D02*
G75*
G03*
X7641440Y-13669170I-125000J0D01*
G01*
X7416440Y-12369170D02*
X7666440Y-12619170D01*
X7666440Y-12369170D02*
X7416440Y-12619170D01*
X7666440Y-12494170D02*
G75*
G03*
X7666440Y-12494170I-125000J0D01*
G01*
X8033100Y-11607650D02*
X8283100Y-11857650D01*
X8283100Y-11607650D02*
X8033100Y-11857650D01*
X8283100Y-11732650D02*
G75*
G03*
X8283100Y-11732650I-125000J0D01*
G01*
X8058100Y-10432650D02*
X8308100Y-10682650D01*
X8308100Y-10432650D02*
X8058100Y-10682650D01*
X8308100Y-10557650D02*
G75*
G03*
X8308100Y-10557650I-125000J0D01*
G01*
X8674770Y-9671130D02*
X8924770Y-9921130D01*
X8924770Y-9671130D02*
X8674770Y-9921130D01*
X8924770Y-9796130D02*
G75*
G03*
X8924770Y-9796130I-125000J0D01*
G01*
X8699770Y-8496130D02*
X8949770Y-8746130D01*
X8949770Y-8496130D02*
X8699770Y-8746130D01*
X8949770Y-8621130D02*
G75*
G03*
X8949770Y-8621130I-125000J0D01*
G01*
X8739570Y-2193100D02*
X8989570Y-2443100D01*
X8989570Y-2193100D02*
X8739570Y-2443100D01*
X8989570Y-2318100D02*
G75*
G03*
X8989570Y-2318100I-125000J0D01*
G01*
X8739570Y-7755700D02*
X8989570Y-8005700D01*
X8989570Y-7755700D02*
X8739570Y-8005700D01*
X8989570Y-7880700D02*
G75*
G03*
X8989570Y-7880700I-125000J0D01*
G01*
D17*
X2064570Y-19011400D02*
X2364570Y-19311400D01*
X2364570Y-19011400D02*
X2064570Y-19311400D01*
X2214570Y-19011400D02*
X2214570Y-19311400D01*
X2064570Y-19161400D02*
X2364570Y-19161400D01*
X2854570Y-19011400D02*
X3154570Y-19311400D01*
X3154570Y-19011400D02*
X2854570Y-19311400D01*
X3004570Y-19011400D02*
X3004570Y-19311400D01*
X2854570Y-19161400D02*
X3154570Y-19161400D01*
X3644570Y-19011400D02*
X3944570Y-19311400D01*
X3944570Y-19011400D02*
X3644570Y-19311400D01*
X3794570Y-19011400D02*
X3794570Y-19311400D01*
X3644570Y-19161400D02*
X3944570Y-19161400D01*
X6454970Y-19011400D02*
X6754970Y-19311400D01*
X6754970Y-19011400D02*
X6454970Y-19311400D01*
X6604970Y-19011400D02*
X6604970Y-19311400D01*
X6454970Y-19161400D02*
X6754970Y-19161400D01*
X7244970Y-19011400D02*
X7544970Y-19311400D01*
X7544970Y-19011400D02*
X7244970Y-19311400D01*
X7394970Y-19011400D02*
X7394970Y-19311400D01*
X7244970Y-19161400D02*
X7544970Y-19161400D01*
X8034970Y-19011400D02*
X8334970Y-19311400D01*
X8334970Y-19011400D02*
X8034970Y-19311400D01*
X8184970Y-19011400D02*
X8184970Y-19311400D01*
X8034970Y-19161400D02*
X8334970Y-19161400D01*
D11*
X1452393Y-19714878D02*
X1452393Y-19514878D01*
X1500012Y-19514878D01*
X1528584Y-19524402D01*
X1547631Y-19543449D01*
X1557155Y-19562497D01*
X1566679Y-19600592D01*
X1566679Y-19629164D01*
X1557155Y-19667259D01*
X1547631Y-19686306D01*
X1528584Y-19705354D01*
X1500012Y-19714878D01*
X1452393Y-19714878D01*
X1652393Y-19714878D02*
X1652393Y-19581544D01*
X1652393Y-19619640D02*
X1661917Y-19600592D01*
X1671441Y-19591068D01*
X1690488Y-19581544D01*
X1709536Y-19581544D01*
X1776203Y-19714878D02*
X1776203Y-19581544D01*
X1776203Y-19514878D02*
X1766679Y-19524402D01*
X1776203Y-19533925D01*
X1785727Y-19524402D01*
X1776203Y-19514878D01*
X1776203Y-19533925D01*
X1900012Y-19714878D02*
X1880965Y-19705354D01*
X1871441Y-19686306D01*
X1871441Y-19514878D01*
X2004774Y-19714878D02*
X1985727Y-19705354D01*
X1976203Y-19686306D01*
X1976203Y-19514878D01*
X2233346Y-19714878D02*
X2233346Y-19514878D01*
X2300012Y-19657735D01*
X2366679Y-19514878D01*
X2366679Y-19714878D01*
X2547631Y-19714878D02*
X2547631Y-19610116D01*
X2538108Y-19591068D01*
X2519060Y-19581544D01*
X2480965Y-19581544D01*
X2461917Y-19591068D01*
X2547631Y-19705354D02*
X2528584Y-19714878D01*
X2480965Y-19714878D01*
X2461917Y-19705354D01*
X2452393Y-19686306D01*
X2452393Y-19667259D01*
X2461917Y-19648211D01*
X2480965Y-19638687D01*
X2528584Y-19638687D01*
X2547631Y-19629164D01*
X2642870Y-19581544D02*
X2642870Y-19781544D01*
X2642870Y-19591068D02*
X2661917Y-19581544D01*
X2700012Y-19581544D01*
X2719060Y-19591068D01*
X2728584Y-19600592D01*
X2738108Y-19619640D01*
X2738108Y-19676783D01*
X2728584Y-19695830D01*
X2719060Y-19705354D01*
X2700012Y-19714878D01*
X2661917Y-19714878D01*
X2642870Y-19705354D01*
X2823822Y-19695830D02*
X2833346Y-19705354D01*
X2823822Y-19714878D01*
X2814298Y-19705354D01*
X2823822Y-19695830D01*
X2823822Y-19714878D01*
X2823822Y-19591068D02*
X2833346Y-19600592D01*
X2823822Y-19610116D01*
X2814298Y-19600592D01*
X2823822Y-19591068D01*
X2823822Y-19610116D01*
D12*
X1154774Y-20024402D02*
X1194774Y-20064402D01*
X1194774Y-20024402D02*
X1154774Y-20064402D01*
D11*
X1490488Y-19934878D02*
X1509536Y-19934878D01*
X1528584Y-19944402D01*
X1538108Y-19953925D01*
X1547631Y-19972973D01*
X1557155Y-20011068D01*
X1557155Y-20058687D01*
X1547631Y-20096783D01*
X1538108Y-20115830D01*
X1528584Y-20125354D01*
X1509536Y-20134878D01*
X1490488Y-20134878D01*
X1471441Y-20125354D01*
X1461917Y-20115830D01*
X1452393Y-20096783D01*
X1442869Y-20058687D01*
X1442869Y-20011068D01*
X1452393Y-19972973D01*
X1461917Y-19953925D01*
X1471441Y-19944402D01*
X1490488Y-19934878D01*
X1642869Y-20115830D02*
X1652393Y-20125354D01*
X1642869Y-20134878D01*
X1633346Y-20125354D01*
X1642869Y-20115830D01*
X1642869Y-20134878D01*
X1823822Y-20001544D02*
X1823822Y-20134878D01*
X1776203Y-19925354D02*
X1728584Y-20068211D01*
X1852393Y-20068211D01*
X1966679Y-19934878D02*
X1985727Y-19934878D01*
X2004774Y-19944402D01*
X2014298Y-19953925D01*
X2023822Y-19972973D01*
X2033346Y-20011068D01*
X2033346Y-20058687D01*
X2023822Y-20096783D01*
X2014298Y-20115830D01*
X2004774Y-20125354D01*
X1985727Y-20134878D01*
X1966679Y-20134878D01*
X1947631Y-20125354D01*
X1938108Y-20115830D01*
X1928584Y-20096783D01*
X1919060Y-20058687D01*
X1919060Y-20011068D01*
X1928584Y-19972973D01*
X1938108Y-19953925D01*
X1947631Y-19944402D01*
X1966679Y-19934878D01*
X2157155Y-19934878D02*
X2176203Y-19934878D01*
X2195250Y-19944402D01*
X2204774Y-19953925D01*
X2214298Y-19972973D01*
X2223822Y-20011068D01*
X2223822Y-20058687D01*
X2214298Y-20096783D01*
X2204774Y-20115830D01*
X2195250Y-20125354D01*
X2176203Y-20134878D01*
X2157155Y-20134878D01*
X2138108Y-20125354D01*
X2128584Y-20115830D01*
X2119060Y-20096783D01*
X2109536Y-20058687D01*
X2109536Y-20011068D01*
X2119060Y-19972973D01*
X2128584Y-19953925D01*
X2138108Y-19944402D01*
X2157155Y-19934878D01*
X2309536Y-20134878D02*
X2309536Y-20001544D01*
X2309536Y-20020592D02*
X2319060Y-20011068D01*
X2338108Y-20001544D01*
X2366679Y-20001544D01*
X2385727Y-20011068D01*
X2395250Y-20030116D01*
X2395250Y-20134878D01*
X2395250Y-20030116D02*
X2404774Y-20011068D01*
X2423822Y-20001544D01*
X2452393Y-20001544D01*
X2471441Y-20011068D01*
X2480965Y-20030116D01*
X2480965Y-20134878D01*
X2576203Y-20134878D02*
X2576203Y-20001544D01*
X2576203Y-20020592D02*
X2585727Y-20011068D01*
X2604774Y-20001544D01*
X2633346Y-20001544D01*
X2652393Y-20011068D01*
X2661917Y-20030116D01*
X2661917Y-20134878D01*
X2661917Y-20030116D02*
X2671441Y-20011068D01*
X2690489Y-20001544D01*
X2719060Y-20001544D01*
X2738108Y-20011068D01*
X2747631Y-20030116D01*
X2747631Y-20134878D01*
X3138108Y-19925354D02*
X2966679Y-20182497D01*
X3395250Y-19934878D02*
X3414298Y-19934878D01*
X3433346Y-19944402D01*
X3442869Y-19953925D01*
X3452393Y-19972973D01*
X3461917Y-20011068D01*
X3461917Y-20058687D01*
X3452393Y-20096783D01*
X3442869Y-20115830D01*
X3433346Y-20125354D01*
X3414298Y-20134878D01*
X3395250Y-20134878D01*
X3376203Y-20125354D01*
X3366679Y-20115830D01*
X3357155Y-20096783D01*
X3347631Y-20058687D01*
X3347631Y-20011068D01*
X3357155Y-19972973D01*
X3366679Y-19953925D01*
X3376203Y-19944402D01*
X3395250Y-19934878D01*
X3547631Y-20115830D02*
X3557155Y-20125354D01*
X3547631Y-20134878D01*
X3538108Y-20125354D01*
X3547631Y-20115830D01*
X3547631Y-20134878D01*
X3680965Y-19934878D02*
X3700012Y-19934878D01*
X3719060Y-19944402D01*
X3728584Y-19953925D01*
X3738108Y-19972973D01*
X3747631Y-20011068D01*
X3747631Y-20058687D01*
X3738108Y-20096783D01*
X3728584Y-20115830D01*
X3719060Y-20125354D01*
X3700012Y-20134878D01*
X3680965Y-20134878D01*
X3661917Y-20125354D01*
X3652393Y-20115830D01*
X3642869Y-20096783D01*
X3633346Y-20058687D01*
X3633346Y-20011068D01*
X3642869Y-19972973D01*
X3652393Y-19953925D01*
X3661917Y-19944402D01*
X3680965Y-19934878D01*
X3938108Y-20134878D02*
X3823822Y-20134878D01*
X3880965Y-20134878D02*
X3880965Y-19934878D01*
X3861917Y-19963449D01*
X3842869Y-19982497D01*
X3823822Y-19992021D01*
X4119060Y-19934878D02*
X4023822Y-19934878D01*
X4014298Y-20030116D01*
X4023822Y-20020592D01*
X4042869Y-20011068D01*
X4090488Y-20011068D01*
X4109536Y-20020592D01*
X4119060Y-20030116D01*
X4128584Y-20049164D01*
X4128584Y-20096783D01*
X4119060Y-20115830D01*
X4109536Y-20125354D01*
X4090488Y-20134878D01*
X4042869Y-20134878D01*
X4023822Y-20125354D01*
X4014298Y-20115830D01*
X4195250Y-19934878D02*
X4328584Y-19934878D01*
X4242870Y-20134878D01*
X4395250Y-19934878D02*
X4395250Y-19972973D01*
X4471441Y-19934878D02*
X4471441Y-19972973D01*
X4766679Y-20211068D02*
X4757155Y-20201544D01*
X4738108Y-20172973D01*
X4728584Y-20153925D01*
X4719060Y-20125354D01*
X4709536Y-20077735D01*
X4709536Y-20039640D01*
X4719060Y-19992021D01*
X4728584Y-19963449D01*
X4738108Y-19944402D01*
X4757155Y-19915830D01*
X4766679Y-19906306D01*
X4928584Y-20001544D02*
X4928584Y-20134878D01*
X4880965Y-19925354D02*
X4833346Y-20068211D01*
X4957155Y-20068211D01*
X5119060Y-20001544D02*
X5119060Y-20134878D01*
X5071441Y-19925354D02*
X5023822Y-20068211D01*
X5147631Y-20068211D01*
X5233346Y-20134878D02*
X5271441Y-20134878D01*
X5290489Y-20125354D01*
X5300012Y-20115830D01*
X5319060Y-20087259D01*
X5328584Y-20049164D01*
X5328584Y-19972973D01*
X5319060Y-19953925D01*
X5309536Y-19944402D01*
X5290489Y-19934878D01*
X5252393Y-19934878D01*
X5233346Y-19944402D01*
X5223822Y-19953925D01*
X5214298Y-19972973D01*
X5214298Y-20020592D01*
X5223822Y-20039640D01*
X5233346Y-20049164D01*
X5252393Y-20058687D01*
X5290489Y-20058687D01*
X5309536Y-20049164D01*
X5319060Y-20039640D01*
X5328584Y-20020592D01*
X5566679Y-20134878D02*
X5566679Y-19934878D01*
X5652393Y-20134878D02*
X5652393Y-20030116D01*
X5642869Y-20011068D01*
X5623822Y-20001544D01*
X5595250Y-20001544D01*
X5576203Y-20011068D01*
X5566679Y-20020592D01*
X5776203Y-20134878D02*
X5757155Y-20125354D01*
X5747631Y-20115830D01*
X5738108Y-20096783D01*
X5738108Y-20039640D01*
X5747631Y-20020592D01*
X5757155Y-20011068D01*
X5776203Y-20001544D01*
X5804774Y-20001544D01*
X5823822Y-20011068D01*
X5833346Y-20020592D01*
X5842869Y-20039640D01*
X5842869Y-20096783D01*
X5833346Y-20115830D01*
X5823822Y-20125354D01*
X5804774Y-20134878D01*
X5776203Y-20134878D01*
X5957155Y-20134878D02*
X5938108Y-20125354D01*
X5928584Y-20106306D01*
X5928584Y-19934878D01*
X6109536Y-20125354D02*
X6090488Y-20134878D01*
X6052393Y-20134878D01*
X6033346Y-20125354D01*
X6023822Y-20106306D01*
X6023822Y-20030116D01*
X6033346Y-20011068D01*
X6052393Y-20001544D01*
X6090488Y-20001544D01*
X6109536Y-20011068D01*
X6119060Y-20030116D01*
X6119060Y-20049164D01*
X6023822Y-20068211D01*
X6195250Y-20125354D02*
X6214298Y-20134878D01*
X6252393Y-20134878D01*
X6271441Y-20125354D01*
X6280965Y-20106306D01*
X6280965Y-20096783D01*
X6271441Y-20077735D01*
X6252393Y-20068211D01*
X6223822Y-20068211D01*
X6204774Y-20058687D01*
X6195250Y-20039640D01*
X6195250Y-20030116D01*
X6204774Y-20011068D01*
X6223822Y-20001544D01*
X6252393Y-20001544D01*
X6271441Y-20011068D01*
X6347631Y-20211068D02*
X6357155Y-20201544D01*
X6376203Y-20172973D01*
X6385727Y-20153925D01*
X6395250Y-20125354D01*
X6404774Y-20077735D01*
X6404774Y-20039640D01*
X6395250Y-19992021D01*
X6385727Y-19963449D01*
X6376203Y-19944402D01*
X6357155Y-19915830D01*
X6347631Y-19906306D01*
D13*
X1194774Y-20308402D02*
G75*
G03*
X1194774Y-20308402I-40000J0D01*
G01*
D11*
X1490488Y-20198878D02*
X1509536Y-20198878D01*
X1528584Y-20208402D01*
X1538108Y-20217925D01*
X1547631Y-20236973D01*
X1557155Y-20275068D01*
X1557155Y-20322687D01*
X1547631Y-20360783D01*
X1538108Y-20379830D01*
X1528584Y-20389354D01*
X1509536Y-20398878D01*
X1490488Y-20398878D01*
X1471441Y-20389354D01*
X1461917Y-20379830D01*
X1452393Y-20360783D01*
X1442869Y-20322687D01*
X1442869Y-20275068D01*
X1452393Y-20236973D01*
X1461917Y-20217925D01*
X1471441Y-20208402D01*
X1490488Y-20198878D01*
X1642869Y-20379830D02*
X1652393Y-20389354D01*
X1642869Y-20398878D01*
X1633346Y-20389354D01*
X1642869Y-20379830D01*
X1642869Y-20398878D01*
X1766679Y-20284592D02*
X1747631Y-20275068D01*
X1738108Y-20265544D01*
X1728584Y-20246497D01*
X1728584Y-20236973D01*
X1738108Y-20217925D01*
X1747631Y-20208402D01*
X1766679Y-20198878D01*
X1804774Y-20198878D01*
X1823822Y-20208402D01*
X1833346Y-20217925D01*
X1842869Y-20236973D01*
X1842869Y-20246497D01*
X1833346Y-20265544D01*
X1823822Y-20275068D01*
X1804774Y-20284592D01*
X1766679Y-20284592D01*
X1747631Y-20294116D01*
X1738108Y-20303640D01*
X1728584Y-20322687D01*
X1728584Y-20360783D01*
X1738108Y-20379830D01*
X1747631Y-20389354D01*
X1766679Y-20398878D01*
X1804774Y-20398878D01*
X1823822Y-20389354D01*
X1833346Y-20379830D01*
X1842869Y-20360783D01*
X1842869Y-20322687D01*
X1833346Y-20303640D01*
X1823822Y-20294116D01*
X1804774Y-20284592D01*
X1966679Y-20198878D02*
X1985727Y-20198878D01*
X2004774Y-20208402D01*
X2014298Y-20217925D01*
X2023822Y-20236973D01*
X2033346Y-20275068D01*
X2033346Y-20322687D01*
X2023822Y-20360783D01*
X2014298Y-20379830D01*
X2004774Y-20389354D01*
X1985727Y-20398878D01*
X1966679Y-20398878D01*
X1947631Y-20389354D01*
X1938108Y-20379830D01*
X1928584Y-20360783D01*
X1919060Y-20322687D01*
X1919060Y-20275068D01*
X1928584Y-20236973D01*
X1938108Y-20217925D01*
X1947631Y-20208402D01*
X1966679Y-20198878D01*
X2157155Y-20198878D02*
X2176203Y-20198878D01*
X2195250Y-20208402D01*
X2204774Y-20217925D01*
X2214298Y-20236973D01*
X2223822Y-20275068D01*
X2223822Y-20322687D01*
X2214298Y-20360783D01*
X2204774Y-20379830D01*
X2195250Y-20389354D01*
X2176203Y-20398878D01*
X2157155Y-20398878D01*
X2138108Y-20389354D01*
X2128584Y-20379830D01*
X2119060Y-20360783D01*
X2109536Y-20322687D01*
X2109536Y-20275068D01*
X2119060Y-20236973D01*
X2128584Y-20217925D01*
X2138108Y-20208402D01*
X2157155Y-20198878D01*
X2309536Y-20398878D02*
X2309536Y-20265544D01*
X2309536Y-20284592D02*
X2319060Y-20275068D01*
X2338108Y-20265544D01*
X2366679Y-20265544D01*
X2385727Y-20275068D01*
X2395250Y-20294116D01*
X2395250Y-20398878D01*
X2395250Y-20294116D02*
X2404774Y-20275068D01*
X2423822Y-20265544D01*
X2452393Y-20265544D01*
X2471441Y-20275068D01*
X2480965Y-20294116D01*
X2480965Y-20398878D01*
X2576203Y-20398878D02*
X2576203Y-20265544D01*
X2576203Y-20284592D02*
X2585727Y-20275068D01*
X2604774Y-20265544D01*
X2633346Y-20265544D01*
X2652393Y-20275068D01*
X2661917Y-20294116D01*
X2661917Y-20398878D01*
X2661917Y-20294116D02*
X2671441Y-20275068D01*
X2690489Y-20265544D01*
X2719060Y-20265544D01*
X2738108Y-20275068D01*
X2747631Y-20294116D01*
X2747631Y-20398878D01*
X3138108Y-20189354D02*
X2966679Y-20446497D01*
X3395250Y-20198878D02*
X3414298Y-20198878D01*
X3433346Y-20208402D01*
X3442869Y-20217925D01*
X3452393Y-20236973D01*
X3461917Y-20275068D01*
X3461917Y-20322687D01*
X3452393Y-20360783D01*
X3442869Y-20379830D01*
X3433346Y-20389354D01*
X3414298Y-20398878D01*
X3395250Y-20398878D01*
X3376203Y-20389354D01*
X3366679Y-20379830D01*
X3357155Y-20360783D01*
X3347631Y-20322687D01*
X3347631Y-20275068D01*
X3357155Y-20236973D01*
X3366679Y-20217925D01*
X3376203Y-20208402D01*
X3395250Y-20198878D01*
X3547631Y-20379830D02*
X3557155Y-20389354D01*
X3547631Y-20398878D01*
X3538108Y-20389354D01*
X3547631Y-20379830D01*
X3547631Y-20398878D01*
X3680965Y-20198878D02*
X3700012Y-20198878D01*
X3719060Y-20208402D01*
X3728584Y-20217925D01*
X3738108Y-20236973D01*
X3747631Y-20275068D01*
X3747631Y-20322687D01*
X3738108Y-20360783D01*
X3728584Y-20379830D01*
X3719060Y-20389354D01*
X3700012Y-20398878D01*
X3680965Y-20398878D01*
X3661917Y-20389354D01*
X3652393Y-20379830D01*
X3642869Y-20360783D01*
X3633346Y-20322687D01*
X3633346Y-20275068D01*
X3642869Y-20236973D01*
X3652393Y-20217925D01*
X3661917Y-20208402D01*
X3680965Y-20198878D01*
X3814298Y-20198878D02*
X3938108Y-20198878D01*
X3871441Y-20275068D01*
X3900012Y-20275068D01*
X3919060Y-20284592D01*
X3928584Y-20294116D01*
X3938108Y-20313164D01*
X3938108Y-20360783D01*
X3928584Y-20379830D01*
X3919060Y-20389354D01*
X3900012Y-20398878D01*
X3842869Y-20398878D01*
X3823822Y-20389354D01*
X3814298Y-20379830D01*
X4128584Y-20398878D02*
X4014298Y-20398878D01*
X4071441Y-20398878D02*
X4071441Y-20198878D01*
X4052393Y-20227449D01*
X4033346Y-20246497D01*
X4014298Y-20256021D01*
X4309536Y-20198878D02*
X4214298Y-20198878D01*
X4204774Y-20294116D01*
X4214298Y-20284592D01*
X4233346Y-20275068D01*
X4280965Y-20275068D01*
X4300012Y-20284592D01*
X4309536Y-20294116D01*
X4319060Y-20313164D01*
X4319060Y-20360783D01*
X4309536Y-20379830D01*
X4300012Y-20389354D01*
X4280965Y-20398878D01*
X4233346Y-20398878D01*
X4214298Y-20389354D01*
X4204774Y-20379830D01*
X4395250Y-20198878D02*
X4395250Y-20236973D01*
X4471441Y-20198878D02*
X4471441Y-20236973D01*
X4766679Y-20475068D02*
X4757155Y-20465544D01*
X4738108Y-20436973D01*
X4728584Y-20417925D01*
X4719060Y-20389354D01*
X4709536Y-20341735D01*
X4709536Y-20303640D01*
X4719060Y-20256021D01*
X4728584Y-20227449D01*
X4738108Y-20208402D01*
X4757155Y-20179830D01*
X4766679Y-20170306D01*
X4823822Y-20198878D02*
X4947631Y-20198878D01*
X4880965Y-20275068D01*
X4909536Y-20275068D01*
X4928584Y-20284592D01*
X4938108Y-20294116D01*
X4947631Y-20313164D01*
X4947631Y-20360783D01*
X4938108Y-20379830D01*
X4928584Y-20389354D01*
X4909536Y-20398878D01*
X4852393Y-20398878D01*
X4833346Y-20389354D01*
X4823822Y-20379830D01*
X5023822Y-20217925D02*
X5033346Y-20208402D01*
X5052393Y-20198878D01*
X5100012Y-20198878D01*
X5119060Y-20208402D01*
X5128584Y-20217925D01*
X5138108Y-20236973D01*
X5138108Y-20256021D01*
X5128584Y-20284592D01*
X5014298Y-20398878D01*
X5138108Y-20398878D01*
X5376203Y-20398878D02*
X5376203Y-20198878D01*
X5461917Y-20398878D02*
X5461917Y-20294116D01*
X5452393Y-20275068D01*
X5433346Y-20265544D01*
X5404774Y-20265544D01*
X5385727Y-20275068D01*
X5376203Y-20284592D01*
X5585727Y-20398878D02*
X5566679Y-20389354D01*
X5557155Y-20379830D01*
X5547631Y-20360783D01*
X5547631Y-20303640D01*
X5557155Y-20284592D01*
X5566679Y-20275068D01*
X5585727Y-20265544D01*
X5614298Y-20265544D01*
X5633346Y-20275068D01*
X5642869Y-20284592D01*
X5652393Y-20303640D01*
X5652393Y-20360783D01*
X5642869Y-20379830D01*
X5633346Y-20389354D01*
X5614298Y-20398878D01*
X5585727Y-20398878D01*
X5766679Y-20398878D02*
X5747631Y-20389354D01*
X5738108Y-20370306D01*
X5738108Y-20198878D01*
X5919060Y-20389354D02*
X5900012Y-20398878D01*
X5861917Y-20398878D01*
X5842869Y-20389354D01*
X5833346Y-20370306D01*
X5833346Y-20294116D01*
X5842869Y-20275068D01*
X5861917Y-20265544D01*
X5900012Y-20265544D01*
X5919060Y-20275068D01*
X5928584Y-20294116D01*
X5928584Y-20313164D01*
X5833346Y-20332211D01*
X6004774Y-20389354D02*
X6023822Y-20398878D01*
X6061917Y-20398878D01*
X6080965Y-20389354D01*
X6090488Y-20370306D01*
X6090488Y-20360783D01*
X6080965Y-20341735D01*
X6061917Y-20332211D01*
X6033346Y-20332211D01*
X6014298Y-20322687D01*
X6004774Y-20303640D01*
X6004774Y-20294116D01*
X6014298Y-20275068D01*
X6033346Y-20265544D01*
X6061917Y-20265544D01*
X6080965Y-20275068D01*
X6157155Y-20475068D02*
X6166679Y-20465544D01*
X6185727Y-20436973D01*
X6195250Y-20417925D01*
X6204774Y-20389354D01*
X6214298Y-20341735D01*
X6214298Y-20303640D01*
X6204774Y-20256021D01*
X6195250Y-20227449D01*
X6185727Y-20208402D01*
X6166679Y-20179830D01*
X6157155Y-20170306D01*
D10*
X1144774Y-20522402D02*
X1144774Y-20622402D01*
X1094774Y-20572402D02*
X1194774Y-20572402D01*
D11*
X1557155Y-20662878D02*
X1442869Y-20662878D01*
X1500012Y-20662878D02*
X1500012Y-20462878D01*
X1480965Y-20491449D01*
X1461917Y-20510497D01*
X1442869Y-20520021D01*
X1642869Y-20643830D02*
X1652393Y-20653354D01*
X1642869Y-20662878D01*
X1633346Y-20653354D01*
X1642869Y-20643830D01*
X1642869Y-20662878D01*
X1776203Y-20462878D02*
X1795250Y-20462878D01*
X1814298Y-20472402D01*
X1823822Y-20481925D01*
X1833346Y-20500973D01*
X1842869Y-20539068D01*
X1842869Y-20586687D01*
X1833346Y-20624783D01*
X1823822Y-20643830D01*
X1814298Y-20653354D01*
X1795250Y-20662878D01*
X1776203Y-20662878D01*
X1757155Y-20653354D01*
X1747631Y-20643830D01*
X1738108Y-20624783D01*
X1728584Y-20586687D01*
X1728584Y-20539068D01*
X1738108Y-20500973D01*
X1747631Y-20481925D01*
X1757155Y-20472402D01*
X1776203Y-20462878D01*
X1966679Y-20462878D02*
X1985727Y-20462878D01*
X2004774Y-20472402D01*
X2014298Y-20481925D01*
X2023822Y-20500973D01*
X2033346Y-20539068D01*
X2033346Y-20586687D01*
X2023822Y-20624783D01*
X2014298Y-20643830D01*
X2004774Y-20653354D01*
X1985727Y-20662878D01*
X1966679Y-20662878D01*
X1947631Y-20653354D01*
X1938108Y-20643830D01*
X1928584Y-20624783D01*
X1919060Y-20586687D01*
X1919060Y-20539068D01*
X1928584Y-20500973D01*
X1938108Y-20481925D01*
X1947631Y-20472402D01*
X1966679Y-20462878D01*
X2157155Y-20462878D02*
X2176203Y-20462878D01*
X2195250Y-20472402D01*
X2204774Y-20481925D01*
X2214298Y-20500973D01*
X2223822Y-20539068D01*
X2223822Y-20586687D01*
X2214298Y-20624783D01*
X2204774Y-20643830D01*
X2195250Y-20653354D01*
X2176203Y-20662878D01*
X2157155Y-20662878D01*
X2138108Y-20653354D01*
X2128584Y-20643830D01*
X2119060Y-20624783D01*
X2109536Y-20586687D01*
X2109536Y-20539068D01*
X2119060Y-20500973D01*
X2128584Y-20481925D01*
X2138108Y-20472402D01*
X2157155Y-20462878D01*
X2309536Y-20662878D02*
X2309536Y-20529544D01*
X2309536Y-20548592D02*
X2319060Y-20539068D01*
X2338108Y-20529544D01*
X2366679Y-20529544D01*
X2385727Y-20539068D01*
X2395250Y-20558116D01*
X2395250Y-20662878D01*
X2395250Y-20558116D02*
X2404774Y-20539068D01*
X2423822Y-20529544D01*
X2452393Y-20529544D01*
X2471441Y-20539068D01*
X2480965Y-20558116D01*
X2480965Y-20662878D01*
X2576203Y-20662878D02*
X2576203Y-20529544D01*
X2576203Y-20548592D02*
X2585727Y-20539068D01*
X2604774Y-20529544D01*
X2633346Y-20529544D01*
X2652393Y-20539068D01*
X2661917Y-20558116D01*
X2661917Y-20662878D01*
X2661917Y-20558116D02*
X2671441Y-20539068D01*
X2690489Y-20529544D01*
X2719060Y-20529544D01*
X2738108Y-20539068D01*
X2747631Y-20558116D01*
X2747631Y-20662878D01*
X3138108Y-20453354D02*
X2966679Y-20710497D01*
X3395250Y-20462878D02*
X3414298Y-20462878D01*
X3433346Y-20472402D01*
X3442869Y-20481925D01*
X3452393Y-20500973D01*
X3461917Y-20539068D01*
X3461917Y-20586687D01*
X3452393Y-20624783D01*
X3442869Y-20643830D01*
X3433346Y-20653354D01*
X3414298Y-20662878D01*
X3395250Y-20662878D01*
X3376203Y-20653354D01*
X3366679Y-20643830D01*
X3357155Y-20624783D01*
X3347631Y-20586687D01*
X3347631Y-20539068D01*
X3357155Y-20500973D01*
X3366679Y-20481925D01*
X3376203Y-20472402D01*
X3395250Y-20462878D01*
X3547631Y-20643830D02*
X3557155Y-20653354D01*
X3547631Y-20662878D01*
X3538108Y-20653354D01*
X3547631Y-20643830D01*
X3547631Y-20662878D01*
X3680965Y-20462878D02*
X3700012Y-20462878D01*
X3719060Y-20472402D01*
X3728584Y-20481925D01*
X3738108Y-20500973D01*
X3747631Y-20539068D01*
X3747631Y-20586687D01*
X3738108Y-20624783D01*
X3728584Y-20643830D01*
X3719060Y-20653354D01*
X3700012Y-20662878D01*
X3680965Y-20662878D01*
X3661917Y-20653354D01*
X3652393Y-20643830D01*
X3642869Y-20624783D01*
X3633346Y-20586687D01*
X3633346Y-20539068D01*
X3642869Y-20500973D01*
X3652393Y-20481925D01*
X3661917Y-20472402D01*
X3680965Y-20462878D01*
X3814298Y-20462878D02*
X3938108Y-20462878D01*
X3871441Y-20539068D01*
X3900012Y-20539068D01*
X3919060Y-20548592D01*
X3928584Y-20558116D01*
X3938108Y-20577164D01*
X3938108Y-20624783D01*
X3928584Y-20643830D01*
X3919060Y-20653354D01*
X3900012Y-20662878D01*
X3842869Y-20662878D01*
X3823822Y-20653354D01*
X3814298Y-20643830D01*
X4033346Y-20662878D02*
X4071441Y-20662878D01*
X4090488Y-20653354D01*
X4100012Y-20643830D01*
X4119060Y-20615259D01*
X4128584Y-20577164D01*
X4128584Y-20500973D01*
X4119060Y-20481925D01*
X4109536Y-20472402D01*
X4090488Y-20462878D01*
X4052393Y-20462878D01*
X4033346Y-20472402D01*
X4023822Y-20481925D01*
X4014298Y-20500973D01*
X4014298Y-20548592D01*
X4023822Y-20567640D01*
X4033346Y-20577164D01*
X4052393Y-20586687D01*
X4090488Y-20586687D01*
X4109536Y-20577164D01*
X4119060Y-20567640D01*
X4128584Y-20548592D01*
X4300012Y-20529544D02*
X4300012Y-20662878D01*
X4252393Y-20453354D02*
X4204774Y-20596211D01*
X4328584Y-20596211D01*
X4395250Y-20462878D02*
X4395250Y-20500973D01*
X4471441Y-20462878D02*
X4471441Y-20500973D01*
X4766679Y-20739068D02*
X4757155Y-20729544D01*
X4738108Y-20700973D01*
X4728584Y-20681925D01*
X4719060Y-20653354D01*
X4709536Y-20605735D01*
X4709536Y-20567640D01*
X4719060Y-20520021D01*
X4728584Y-20491449D01*
X4738108Y-20472402D01*
X4757155Y-20443830D01*
X4766679Y-20434306D01*
X4928584Y-20529544D02*
X4928584Y-20662878D01*
X4880965Y-20453354D02*
X4833346Y-20596211D01*
X4957155Y-20596211D01*
X5061917Y-20548592D02*
X5042870Y-20539068D01*
X5033346Y-20529544D01*
X5023822Y-20510497D01*
X5023822Y-20500973D01*
X5033346Y-20481925D01*
X5042870Y-20472402D01*
X5061917Y-20462878D01*
X5100012Y-20462878D01*
X5119060Y-20472402D01*
X5128584Y-20481925D01*
X5138108Y-20500973D01*
X5138108Y-20510497D01*
X5128584Y-20529544D01*
X5119060Y-20539068D01*
X5100012Y-20548592D01*
X5061917Y-20548592D01*
X5042870Y-20558116D01*
X5033346Y-20567640D01*
X5023822Y-20586687D01*
X5023822Y-20624783D01*
X5033346Y-20643830D01*
X5042870Y-20653354D01*
X5061917Y-20662878D01*
X5100012Y-20662878D01*
X5119060Y-20653354D01*
X5128584Y-20643830D01*
X5138108Y-20624783D01*
X5138108Y-20586687D01*
X5128584Y-20567640D01*
X5119060Y-20558116D01*
X5100012Y-20548592D01*
X5376203Y-20662878D02*
X5376203Y-20462878D01*
X5461917Y-20662878D02*
X5461917Y-20558116D01*
X5452393Y-20539068D01*
X5433346Y-20529544D01*
X5404774Y-20529544D01*
X5385727Y-20539068D01*
X5376203Y-20548592D01*
X5585727Y-20662878D02*
X5566679Y-20653354D01*
X5557155Y-20643830D01*
X5547631Y-20624783D01*
X5547631Y-20567640D01*
X5557155Y-20548592D01*
X5566679Y-20539068D01*
X5585727Y-20529544D01*
X5614298Y-20529544D01*
X5633346Y-20539068D01*
X5642869Y-20548592D01*
X5652393Y-20567640D01*
X5652393Y-20624783D01*
X5642869Y-20643830D01*
X5633346Y-20653354D01*
X5614298Y-20662878D01*
X5585727Y-20662878D01*
X5766679Y-20662878D02*
X5747631Y-20653354D01*
X5738108Y-20634306D01*
X5738108Y-20462878D01*
X5919060Y-20653354D02*
X5900012Y-20662878D01*
X5861917Y-20662878D01*
X5842869Y-20653354D01*
X5833346Y-20634306D01*
X5833346Y-20558116D01*
X5842869Y-20539068D01*
X5861917Y-20529544D01*
X5900012Y-20529544D01*
X5919060Y-20539068D01*
X5928584Y-20558116D01*
X5928584Y-20577164D01*
X5833346Y-20596211D01*
X6004774Y-20653354D02*
X6023822Y-20662878D01*
X6061917Y-20662878D01*
X6080965Y-20653354D01*
X6090488Y-20634306D01*
X6090488Y-20624783D01*
X6080965Y-20605735D01*
X6061917Y-20596211D01*
X6033346Y-20596211D01*
X6014298Y-20586687D01*
X6004774Y-20567640D01*
X6004774Y-20558116D01*
X6014298Y-20539068D01*
X6033346Y-20529544D01*
X6061917Y-20529544D01*
X6080965Y-20539068D01*
X6157155Y-20739068D02*
X6166679Y-20729544D01*
X6185727Y-20700973D01*
X6195250Y-20681925D01*
X6204774Y-20653354D01*
X6214298Y-20605735D01*
X6214298Y-20567640D01*
X6204774Y-20520021D01*
X6195250Y-20491449D01*
X6185727Y-20472402D01*
X6166679Y-20443830D01*
X6157155Y-20434306D01*
D14*
X1179896Y-20872323D02*
X1179896Y-20800480D01*
X1108053Y-20800480D01*
X1108053Y-20872323D01*
X1179896Y-20872323D01*
D11*
X1557155Y-20926878D02*
X1442869Y-20926878D01*
X1500012Y-20926878D02*
X1500012Y-20726878D01*
X1480965Y-20755449D01*
X1461917Y-20774497D01*
X1442869Y-20784021D01*
X1642869Y-20907830D02*
X1652393Y-20917354D01*
X1642869Y-20926878D01*
X1633346Y-20917354D01*
X1642869Y-20907830D01*
X1642869Y-20926878D01*
X1776203Y-20726878D02*
X1795250Y-20726878D01*
X1814298Y-20736402D01*
X1823822Y-20745925D01*
X1833346Y-20764973D01*
X1842869Y-20803068D01*
X1842869Y-20850687D01*
X1833346Y-20888783D01*
X1823822Y-20907830D01*
X1814298Y-20917354D01*
X1795250Y-20926878D01*
X1776203Y-20926878D01*
X1757155Y-20917354D01*
X1747631Y-20907830D01*
X1738108Y-20888783D01*
X1728584Y-20850687D01*
X1728584Y-20803068D01*
X1738108Y-20764973D01*
X1747631Y-20745925D01*
X1757155Y-20736402D01*
X1776203Y-20726878D01*
X2033346Y-20926878D02*
X1919060Y-20926878D01*
X1976203Y-20926878D02*
X1976203Y-20726878D01*
X1957155Y-20755449D01*
X1938108Y-20774497D01*
X1919060Y-20784021D01*
X2204774Y-20726878D02*
X2166679Y-20726878D01*
X2147631Y-20736402D01*
X2138108Y-20745925D01*
X2119060Y-20774497D01*
X2109536Y-20812592D01*
X2109536Y-20888783D01*
X2119060Y-20907830D01*
X2128584Y-20917354D01*
X2147631Y-20926878D01*
X2185727Y-20926878D01*
X2204774Y-20917354D01*
X2214298Y-20907830D01*
X2223822Y-20888783D01*
X2223822Y-20841164D01*
X2214298Y-20822116D01*
X2204774Y-20812592D01*
X2185727Y-20803068D01*
X2147631Y-20803068D01*
X2128584Y-20812592D01*
X2119060Y-20822116D01*
X2109536Y-20841164D01*
X2309536Y-20926878D02*
X2309536Y-20793544D01*
X2309536Y-20812592D02*
X2319060Y-20803068D01*
X2338108Y-20793544D01*
X2366679Y-20793544D01*
X2385727Y-20803068D01*
X2395250Y-20822116D01*
X2395250Y-20926878D01*
X2395250Y-20822116D02*
X2404774Y-20803068D01*
X2423822Y-20793544D01*
X2452393Y-20793544D01*
X2471441Y-20803068D01*
X2480965Y-20822116D01*
X2480965Y-20926878D01*
X2576203Y-20926878D02*
X2576203Y-20793544D01*
X2576203Y-20812592D02*
X2585727Y-20803068D01*
X2604774Y-20793544D01*
X2633346Y-20793544D01*
X2652393Y-20803068D01*
X2661917Y-20822116D01*
X2661917Y-20926878D01*
X2661917Y-20822116D02*
X2671441Y-20803068D01*
X2690489Y-20793544D01*
X2719060Y-20793544D01*
X2738108Y-20803068D01*
X2747631Y-20822116D01*
X2747631Y-20926878D01*
X3138108Y-20717354D02*
X2966679Y-20974497D01*
X3395250Y-20726878D02*
X3414298Y-20726878D01*
X3433346Y-20736402D01*
X3442869Y-20745925D01*
X3452393Y-20764973D01*
X3461917Y-20803068D01*
X3461917Y-20850687D01*
X3452393Y-20888783D01*
X3442869Y-20907830D01*
X3433346Y-20917354D01*
X3414298Y-20926878D01*
X3395250Y-20926878D01*
X3376203Y-20917354D01*
X3366679Y-20907830D01*
X3357155Y-20888783D01*
X3347631Y-20850687D01*
X3347631Y-20803068D01*
X3357155Y-20764973D01*
X3366679Y-20745925D01*
X3376203Y-20736402D01*
X3395250Y-20726878D01*
X3547631Y-20907830D02*
X3557155Y-20917354D01*
X3547631Y-20926878D01*
X3538108Y-20917354D01*
X3547631Y-20907830D01*
X3547631Y-20926878D01*
X3680965Y-20726878D02*
X3700012Y-20726878D01*
X3719060Y-20736402D01*
X3728584Y-20745925D01*
X3738108Y-20764973D01*
X3747631Y-20803068D01*
X3747631Y-20850687D01*
X3738108Y-20888783D01*
X3728584Y-20907830D01*
X3719060Y-20917354D01*
X3700012Y-20926878D01*
X3680965Y-20926878D01*
X3661917Y-20917354D01*
X3652393Y-20907830D01*
X3642869Y-20888783D01*
X3633346Y-20850687D01*
X3633346Y-20803068D01*
X3642869Y-20764973D01*
X3652393Y-20745925D01*
X3661917Y-20736402D01*
X3680965Y-20726878D01*
X3919060Y-20793544D02*
X3919060Y-20926878D01*
X3871441Y-20717354D02*
X3823822Y-20860211D01*
X3947631Y-20860211D01*
X4061917Y-20726878D02*
X4080965Y-20726878D01*
X4100012Y-20736402D01*
X4109536Y-20745925D01*
X4119060Y-20764973D01*
X4128584Y-20803068D01*
X4128584Y-20850687D01*
X4119060Y-20888783D01*
X4109536Y-20907830D01*
X4100012Y-20917354D01*
X4080965Y-20926878D01*
X4061917Y-20926878D01*
X4042869Y-20917354D01*
X4033346Y-20907830D01*
X4023822Y-20888783D01*
X4014298Y-20850687D01*
X4014298Y-20803068D01*
X4023822Y-20764973D01*
X4033346Y-20745925D01*
X4042869Y-20736402D01*
X4061917Y-20726878D01*
X4252393Y-20726878D02*
X4271441Y-20726878D01*
X4290489Y-20736402D01*
X4300012Y-20745925D01*
X4309536Y-20764973D01*
X4319060Y-20803068D01*
X4319060Y-20850687D01*
X4309536Y-20888783D01*
X4300012Y-20907830D01*
X4290489Y-20917354D01*
X4271441Y-20926878D01*
X4252393Y-20926878D01*
X4233346Y-20917354D01*
X4223822Y-20907830D01*
X4214298Y-20888783D01*
X4204774Y-20850687D01*
X4204774Y-20803068D01*
X4214298Y-20764973D01*
X4223822Y-20745925D01*
X4233346Y-20736402D01*
X4252393Y-20726878D01*
X4395250Y-20726878D02*
X4395250Y-20764973D01*
X4471441Y-20726878D02*
X4471441Y-20764973D01*
X4766679Y-21003068D02*
X4757155Y-20993544D01*
X4738108Y-20964973D01*
X4728584Y-20945925D01*
X4719060Y-20917354D01*
X4709536Y-20869735D01*
X4709536Y-20831640D01*
X4719060Y-20784021D01*
X4728584Y-20755449D01*
X4738108Y-20736402D01*
X4757155Y-20707830D01*
X4766679Y-20698306D01*
X4947631Y-20926878D02*
X4833346Y-20926878D01*
X4890489Y-20926878D02*
X4890489Y-20726878D01*
X4871441Y-20755449D01*
X4852393Y-20774497D01*
X4833346Y-20784021D01*
X5023822Y-20745925D02*
X5033346Y-20736402D01*
X5052393Y-20726878D01*
X5100012Y-20726878D01*
X5119060Y-20736402D01*
X5128584Y-20745925D01*
X5138108Y-20764973D01*
X5138108Y-20784021D01*
X5128584Y-20812592D01*
X5014298Y-20926878D01*
X5138108Y-20926878D01*
X5376203Y-20926878D02*
X5376203Y-20726878D01*
X5461917Y-20926878D02*
X5461917Y-20822116D01*
X5452393Y-20803068D01*
X5433346Y-20793544D01*
X5404774Y-20793544D01*
X5385727Y-20803068D01*
X5376203Y-20812592D01*
X5585727Y-20926878D02*
X5566679Y-20917354D01*
X5557155Y-20907830D01*
X5547631Y-20888783D01*
X5547631Y-20831640D01*
X5557155Y-20812592D01*
X5566679Y-20803068D01*
X5585727Y-20793544D01*
X5614298Y-20793544D01*
X5633346Y-20803068D01*
X5642869Y-20812592D01*
X5652393Y-20831640D01*
X5652393Y-20888783D01*
X5642869Y-20907830D01*
X5633346Y-20917354D01*
X5614298Y-20926878D01*
X5585727Y-20926878D01*
X5766679Y-20926878D02*
X5747631Y-20917354D01*
X5738108Y-20898306D01*
X5738108Y-20726878D01*
X5919060Y-20917354D02*
X5900012Y-20926878D01*
X5861917Y-20926878D01*
X5842869Y-20917354D01*
X5833346Y-20898306D01*
X5833346Y-20822116D01*
X5842869Y-20803068D01*
X5861917Y-20793544D01*
X5900012Y-20793544D01*
X5919060Y-20803068D01*
X5928584Y-20822116D01*
X5928584Y-20841164D01*
X5833346Y-20860211D01*
X6004774Y-20917354D02*
X6023822Y-20926878D01*
X6061917Y-20926878D01*
X6080965Y-20917354D01*
X6090488Y-20898306D01*
X6090488Y-20888783D01*
X6080965Y-20869735D01*
X6061917Y-20860211D01*
X6033346Y-20860211D01*
X6014298Y-20850687D01*
X6004774Y-20831640D01*
X6004774Y-20822116D01*
X6014298Y-20803068D01*
X6033346Y-20793544D01*
X6061917Y-20793544D01*
X6080965Y-20803068D01*
X6157155Y-21003068D02*
X6166679Y-20993544D01*
X6185727Y-20964973D01*
X6195250Y-20945925D01*
X6204774Y-20917354D01*
X6214298Y-20869735D01*
X6214298Y-20831640D01*
X6204774Y-20784021D01*
X6195250Y-20755449D01*
X6185727Y-20736402D01*
X6166679Y-20707830D01*
X6157155Y-20698306D01*
D15*
X1104774Y-21190402D02*
X1194774Y-21100402D01*
X1104774Y-21010402D01*
X1014774Y-21100402D01*
X1104774Y-21190402D01*
D11*
X1557155Y-21190878D02*
X1442869Y-21190878D01*
X1500012Y-21190878D02*
X1500012Y-20990878D01*
X1480965Y-21019449D01*
X1461917Y-21038497D01*
X1442869Y-21048021D01*
X1642869Y-21171830D02*
X1652393Y-21181354D01*
X1642869Y-21190878D01*
X1633346Y-21181354D01*
X1642869Y-21171830D01*
X1642869Y-21190878D01*
X1766679Y-21076592D02*
X1747631Y-21067068D01*
X1738108Y-21057544D01*
X1728584Y-21038497D01*
X1728584Y-21028973D01*
X1738108Y-21009925D01*
X1747631Y-21000402D01*
X1766679Y-20990878D01*
X1804774Y-20990878D01*
X1823822Y-21000402D01*
X1833346Y-21009925D01*
X1842869Y-21028973D01*
X1842869Y-21038497D01*
X1833346Y-21057544D01*
X1823822Y-21067068D01*
X1804774Y-21076592D01*
X1766679Y-21076592D01*
X1747631Y-21086116D01*
X1738108Y-21095640D01*
X1728584Y-21114687D01*
X1728584Y-21152783D01*
X1738108Y-21171830D01*
X1747631Y-21181354D01*
X1766679Y-21190878D01*
X1804774Y-21190878D01*
X1823822Y-21181354D01*
X1833346Y-21171830D01*
X1842869Y-21152783D01*
X1842869Y-21114687D01*
X1833346Y-21095640D01*
X1823822Y-21086116D01*
X1804774Y-21076592D01*
X1966679Y-20990878D02*
X1985727Y-20990878D01*
X2004774Y-21000402D01*
X2014298Y-21009925D01*
X2023822Y-21028973D01*
X2033346Y-21067068D01*
X2033346Y-21114687D01*
X2023822Y-21152783D01*
X2014298Y-21171830D01*
X2004774Y-21181354D01*
X1985727Y-21190878D01*
X1966679Y-21190878D01*
X1947631Y-21181354D01*
X1938108Y-21171830D01*
X1928584Y-21152783D01*
X1919060Y-21114687D01*
X1919060Y-21067068D01*
X1928584Y-21028973D01*
X1938108Y-21009925D01*
X1947631Y-21000402D01*
X1966679Y-20990878D01*
X2157155Y-20990878D02*
X2176203Y-20990878D01*
X2195250Y-21000402D01*
X2204774Y-21009925D01*
X2214298Y-21028973D01*
X2223822Y-21067068D01*
X2223822Y-21114687D01*
X2214298Y-21152783D01*
X2204774Y-21171830D01*
X2195250Y-21181354D01*
X2176203Y-21190878D01*
X2157155Y-21190878D01*
X2138108Y-21181354D01*
X2128584Y-21171830D01*
X2119060Y-21152783D01*
X2109536Y-21114687D01*
X2109536Y-21067068D01*
X2119060Y-21028973D01*
X2128584Y-21009925D01*
X2138108Y-21000402D01*
X2157155Y-20990878D01*
X2309536Y-21190878D02*
X2309536Y-21057544D01*
X2309536Y-21076592D02*
X2319060Y-21067068D01*
X2338108Y-21057544D01*
X2366679Y-21057544D01*
X2385727Y-21067068D01*
X2395250Y-21086116D01*
X2395250Y-21190878D01*
X2395250Y-21086116D02*
X2404774Y-21067068D01*
X2423822Y-21057544D01*
X2452393Y-21057544D01*
X2471441Y-21067068D01*
X2480965Y-21086116D01*
X2480965Y-21190878D01*
X2576203Y-21190878D02*
X2576203Y-21057544D01*
X2576203Y-21076592D02*
X2585727Y-21067068D01*
X2604774Y-21057544D01*
X2633346Y-21057544D01*
X2652393Y-21067068D01*
X2661917Y-21086116D01*
X2661917Y-21190878D01*
X2661917Y-21086116D02*
X2671441Y-21067068D01*
X2690489Y-21057544D01*
X2719060Y-21057544D01*
X2738108Y-21067068D01*
X2747631Y-21086116D01*
X2747631Y-21190878D01*
X3138108Y-20981354D02*
X2966679Y-21238497D01*
X3395250Y-20990878D02*
X3414298Y-20990878D01*
X3433346Y-21000402D01*
X3442869Y-21009925D01*
X3452393Y-21028973D01*
X3461917Y-21067068D01*
X3461917Y-21114687D01*
X3452393Y-21152783D01*
X3442869Y-21171830D01*
X3433346Y-21181354D01*
X3414298Y-21190878D01*
X3395250Y-21190878D01*
X3376203Y-21181354D01*
X3366679Y-21171830D01*
X3357155Y-21152783D01*
X3347631Y-21114687D01*
X3347631Y-21067068D01*
X3357155Y-21028973D01*
X3366679Y-21009925D01*
X3376203Y-21000402D01*
X3395250Y-20990878D01*
X3547631Y-21171830D02*
X3557155Y-21181354D01*
X3547631Y-21190878D01*
X3538108Y-21181354D01*
X3547631Y-21171830D01*
X3547631Y-21190878D01*
X3680965Y-20990878D02*
X3700012Y-20990878D01*
X3719060Y-21000402D01*
X3728584Y-21009925D01*
X3738108Y-21028973D01*
X3747631Y-21067068D01*
X3747631Y-21114687D01*
X3738108Y-21152783D01*
X3728584Y-21171830D01*
X3719060Y-21181354D01*
X3700012Y-21190878D01*
X3680965Y-21190878D01*
X3661917Y-21181354D01*
X3652393Y-21171830D01*
X3642869Y-21152783D01*
X3633346Y-21114687D01*
X3633346Y-21067068D01*
X3642869Y-21028973D01*
X3652393Y-21009925D01*
X3661917Y-21000402D01*
X3680965Y-20990878D01*
X3814298Y-20990878D02*
X3947631Y-20990878D01*
X3861917Y-21190878D01*
X4061917Y-20990878D02*
X4080965Y-20990878D01*
X4100012Y-21000402D01*
X4109536Y-21009925D01*
X4119060Y-21028973D01*
X4128584Y-21067068D01*
X4128584Y-21114687D01*
X4119060Y-21152783D01*
X4109536Y-21171830D01*
X4100012Y-21181354D01*
X4080965Y-21190878D01*
X4061917Y-21190878D01*
X4042869Y-21181354D01*
X4033346Y-21171830D01*
X4023822Y-21152783D01*
X4014298Y-21114687D01*
X4014298Y-21067068D01*
X4023822Y-21028973D01*
X4033346Y-21009925D01*
X4042869Y-21000402D01*
X4061917Y-20990878D01*
X4223822Y-21190878D02*
X4261917Y-21190878D01*
X4280965Y-21181354D01*
X4290489Y-21171830D01*
X4309536Y-21143259D01*
X4319060Y-21105164D01*
X4319060Y-21028973D01*
X4309536Y-21009925D01*
X4300012Y-21000402D01*
X4280965Y-20990878D01*
X4242870Y-20990878D01*
X4223822Y-21000402D01*
X4214298Y-21009925D01*
X4204774Y-21028973D01*
X4204774Y-21076592D01*
X4214298Y-21095640D01*
X4223822Y-21105164D01*
X4242870Y-21114687D01*
X4280965Y-21114687D01*
X4300012Y-21105164D01*
X4309536Y-21095640D01*
X4319060Y-21076592D01*
X4395250Y-20990878D02*
X4395250Y-21028973D01*
X4471441Y-20990878D02*
X4471441Y-21028973D01*
X4766679Y-21267068D02*
X4757155Y-21257544D01*
X4738108Y-21228973D01*
X4728584Y-21209925D01*
X4719060Y-21181354D01*
X4709536Y-21133735D01*
X4709536Y-21095640D01*
X4719060Y-21048021D01*
X4728584Y-21019449D01*
X4738108Y-21000402D01*
X4757155Y-20971830D01*
X4766679Y-20962306D01*
X4947631Y-21190878D02*
X4833346Y-21190878D01*
X4890489Y-21190878D02*
X4890489Y-20990878D01*
X4871441Y-21019449D01*
X4852393Y-21038497D01*
X4833346Y-21048021D01*
X5119060Y-20990878D02*
X5080965Y-20990878D01*
X5061917Y-21000402D01*
X5052393Y-21009925D01*
X5033346Y-21038497D01*
X5023822Y-21076592D01*
X5023822Y-21152783D01*
X5033346Y-21171830D01*
X5042870Y-21181354D01*
X5061917Y-21190878D01*
X5100012Y-21190878D01*
X5119060Y-21181354D01*
X5128584Y-21171830D01*
X5138108Y-21152783D01*
X5138108Y-21105164D01*
X5128584Y-21086116D01*
X5119060Y-21076592D01*
X5100012Y-21067068D01*
X5061917Y-21067068D01*
X5042870Y-21076592D01*
X5033346Y-21086116D01*
X5023822Y-21105164D01*
X5376203Y-21190878D02*
X5376203Y-20990878D01*
X5461917Y-21190878D02*
X5461917Y-21086116D01*
X5452393Y-21067068D01*
X5433346Y-21057544D01*
X5404774Y-21057544D01*
X5385727Y-21067068D01*
X5376203Y-21076592D01*
X5585727Y-21190878D02*
X5566679Y-21181354D01*
X5557155Y-21171830D01*
X5547631Y-21152783D01*
X5547631Y-21095640D01*
X5557155Y-21076592D01*
X5566679Y-21067068D01*
X5585727Y-21057544D01*
X5614298Y-21057544D01*
X5633346Y-21067068D01*
X5642869Y-21076592D01*
X5652393Y-21095640D01*
X5652393Y-21152783D01*
X5642869Y-21171830D01*
X5633346Y-21181354D01*
X5614298Y-21190878D01*
X5585727Y-21190878D01*
X5766679Y-21190878D02*
X5747631Y-21181354D01*
X5738108Y-21162306D01*
X5738108Y-20990878D01*
X5919060Y-21181354D02*
X5900012Y-21190878D01*
X5861917Y-21190878D01*
X5842869Y-21181354D01*
X5833346Y-21162306D01*
X5833346Y-21086116D01*
X5842869Y-21067068D01*
X5861917Y-21057544D01*
X5900012Y-21057544D01*
X5919060Y-21067068D01*
X5928584Y-21086116D01*
X5928584Y-21105164D01*
X5833346Y-21124211D01*
X6004774Y-21181354D02*
X6023822Y-21190878D01*
X6061917Y-21190878D01*
X6080965Y-21181354D01*
X6090488Y-21162306D01*
X6090488Y-21152783D01*
X6080965Y-21133735D01*
X6061917Y-21124211D01*
X6033346Y-21124211D01*
X6014298Y-21114687D01*
X6004774Y-21095640D01*
X6004774Y-21086116D01*
X6014298Y-21067068D01*
X6033346Y-21057544D01*
X6061917Y-21057544D01*
X6080965Y-21067068D01*
X6157155Y-21267068D02*
X6166679Y-21257544D01*
X6185727Y-21228973D01*
X6195250Y-21209925D01*
X6204774Y-21181354D01*
X6214298Y-21133735D01*
X6214298Y-21095640D01*
X6204774Y-21048021D01*
X6195250Y-21019449D01*
X6185727Y-21000402D01*
X6166679Y-20971830D01*
X6157155Y-20962306D01*
X994774Y-21300402D02*
X1194774Y-21500402D01*
X1194774Y-21300402D02*
X994774Y-21500402D01*
X1194774Y-21400402D02*
G75*
G03*
X1194774Y-21400402I-100000J0D01*
G01*
X1442869Y-21309925D02*
X1452393Y-21300402D01*
X1471441Y-21290878D01*
X1519060Y-21290878D01*
X1538108Y-21300402D01*
X1547631Y-21309925D01*
X1557155Y-21328973D01*
X1557155Y-21348021D01*
X1547631Y-21376592D01*
X1433346Y-21490878D01*
X1557155Y-21490878D01*
X1642869Y-21471830D02*
X1652393Y-21481354D01*
X1642869Y-21490878D01*
X1633346Y-21481354D01*
X1642869Y-21471830D01*
X1642869Y-21490878D01*
X1833346Y-21290878D02*
X1738108Y-21290878D01*
X1728584Y-21386116D01*
X1738108Y-21376592D01*
X1757155Y-21367068D01*
X1804774Y-21367068D01*
X1823822Y-21376592D01*
X1833346Y-21386116D01*
X1842869Y-21405164D01*
X1842869Y-21452783D01*
X1833346Y-21471830D01*
X1823822Y-21481354D01*
X1804774Y-21490878D01*
X1757155Y-21490878D01*
X1738108Y-21481354D01*
X1728584Y-21471830D01*
X1966679Y-21290878D02*
X1985727Y-21290878D01*
X2004774Y-21300402D01*
X2014298Y-21309925D01*
X2023822Y-21328973D01*
X2033346Y-21367068D01*
X2033346Y-21414687D01*
X2023822Y-21452783D01*
X2014298Y-21471830D01*
X2004774Y-21481354D01*
X1985727Y-21490878D01*
X1966679Y-21490878D01*
X1947631Y-21481354D01*
X1938108Y-21471830D01*
X1928584Y-21452783D01*
X1919060Y-21414687D01*
X1919060Y-21367068D01*
X1928584Y-21328973D01*
X1938108Y-21309925D01*
X1947631Y-21300402D01*
X1966679Y-21290878D01*
X2157155Y-21290878D02*
X2176203Y-21290878D01*
X2195250Y-21300402D01*
X2204774Y-21309925D01*
X2214298Y-21328973D01*
X2223822Y-21367068D01*
X2223822Y-21414687D01*
X2214298Y-21452783D01*
X2204774Y-21471830D01*
X2195250Y-21481354D01*
X2176203Y-21490878D01*
X2157155Y-21490878D01*
X2138108Y-21481354D01*
X2128584Y-21471830D01*
X2119060Y-21452783D01*
X2109536Y-21414687D01*
X2109536Y-21367068D01*
X2119060Y-21328973D01*
X2128584Y-21309925D01*
X2138108Y-21300402D01*
X2157155Y-21290878D01*
X2309536Y-21490878D02*
X2309536Y-21357544D01*
X2309536Y-21376592D02*
X2319060Y-21367068D01*
X2338108Y-21357544D01*
X2366679Y-21357544D01*
X2385727Y-21367068D01*
X2395250Y-21386116D01*
X2395250Y-21490878D01*
X2395250Y-21386116D02*
X2404774Y-21367068D01*
X2423822Y-21357544D01*
X2452393Y-21357544D01*
X2471441Y-21367068D01*
X2480965Y-21386116D01*
X2480965Y-21490878D01*
X2576203Y-21490878D02*
X2576203Y-21357544D01*
X2576203Y-21376592D02*
X2585727Y-21367068D01*
X2604774Y-21357544D01*
X2633346Y-21357544D01*
X2652393Y-21367068D01*
X2661917Y-21386116D01*
X2661917Y-21490878D01*
X2661917Y-21386116D02*
X2671441Y-21367068D01*
X2690489Y-21357544D01*
X2719060Y-21357544D01*
X2738108Y-21367068D01*
X2747631Y-21386116D01*
X2747631Y-21490878D01*
X3138108Y-21281354D02*
X2966679Y-21538497D01*
X3395250Y-21290878D02*
X3414298Y-21290878D01*
X3433346Y-21300402D01*
X3442869Y-21309925D01*
X3452393Y-21328973D01*
X3461917Y-21367068D01*
X3461917Y-21414687D01*
X3452393Y-21452783D01*
X3442869Y-21471830D01*
X3433346Y-21481354D01*
X3414298Y-21490878D01*
X3395250Y-21490878D01*
X3376203Y-21481354D01*
X3366679Y-21471830D01*
X3357155Y-21452783D01*
X3347631Y-21414687D01*
X3347631Y-21367068D01*
X3357155Y-21328973D01*
X3366679Y-21309925D01*
X3376203Y-21300402D01*
X3395250Y-21290878D01*
X3547631Y-21471830D02*
X3557155Y-21481354D01*
X3547631Y-21490878D01*
X3538108Y-21481354D01*
X3547631Y-21471830D01*
X3547631Y-21490878D01*
X3680965Y-21290878D02*
X3700012Y-21290878D01*
X3719060Y-21300402D01*
X3728584Y-21309925D01*
X3738108Y-21328973D01*
X3747631Y-21367068D01*
X3747631Y-21414687D01*
X3738108Y-21452783D01*
X3728584Y-21471830D01*
X3719060Y-21481354D01*
X3700012Y-21490878D01*
X3680965Y-21490878D01*
X3661917Y-21481354D01*
X3652393Y-21471830D01*
X3642869Y-21452783D01*
X3633346Y-21414687D01*
X3633346Y-21367068D01*
X3642869Y-21328973D01*
X3652393Y-21309925D01*
X3661917Y-21300402D01*
X3680965Y-21290878D01*
X3842869Y-21490878D02*
X3880965Y-21490878D01*
X3900012Y-21481354D01*
X3909536Y-21471830D01*
X3928584Y-21443259D01*
X3938108Y-21405164D01*
X3938108Y-21328973D01*
X3928584Y-21309925D01*
X3919060Y-21300402D01*
X3900012Y-21290878D01*
X3861917Y-21290878D01*
X3842869Y-21300402D01*
X3833346Y-21309925D01*
X3823822Y-21328973D01*
X3823822Y-21376592D01*
X3833346Y-21395640D01*
X3842869Y-21405164D01*
X3861917Y-21414687D01*
X3900012Y-21414687D01*
X3919060Y-21405164D01*
X3928584Y-21395640D01*
X3938108Y-21376592D01*
X4052393Y-21376592D02*
X4033346Y-21367068D01*
X4023822Y-21357544D01*
X4014298Y-21338497D01*
X4014298Y-21328973D01*
X4023822Y-21309925D01*
X4033346Y-21300402D01*
X4052393Y-21290878D01*
X4090488Y-21290878D01*
X4109536Y-21300402D01*
X4119060Y-21309925D01*
X4128584Y-21328973D01*
X4128584Y-21338497D01*
X4119060Y-21357544D01*
X4109536Y-21367068D01*
X4090488Y-21376592D01*
X4052393Y-21376592D01*
X4033346Y-21386116D01*
X4023822Y-21395640D01*
X4014298Y-21414687D01*
X4014298Y-21452783D01*
X4023822Y-21471830D01*
X4033346Y-21481354D01*
X4052393Y-21490878D01*
X4090488Y-21490878D01*
X4109536Y-21481354D01*
X4119060Y-21471830D01*
X4128584Y-21452783D01*
X4128584Y-21414687D01*
X4119060Y-21395640D01*
X4109536Y-21386116D01*
X4090488Y-21376592D01*
X4300012Y-21357544D02*
X4300012Y-21490878D01*
X4252393Y-21281354D02*
X4204774Y-21424211D01*
X4328584Y-21424211D01*
X4395250Y-21290878D02*
X4395250Y-21328973D01*
X4471441Y-21290878D02*
X4471441Y-21328973D01*
X4766679Y-21567068D02*
X4757155Y-21557544D01*
X4738108Y-21528973D01*
X4728584Y-21509925D01*
X4719060Y-21481354D01*
X4709536Y-21433735D01*
X4709536Y-21395640D01*
X4719060Y-21348021D01*
X4728584Y-21319449D01*
X4738108Y-21300402D01*
X4757155Y-21271830D01*
X4766679Y-21262306D01*
X4833346Y-21309925D02*
X4842870Y-21300402D01*
X4861917Y-21290878D01*
X4909536Y-21290878D01*
X4928584Y-21300402D01*
X4938108Y-21309925D01*
X4947631Y-21328973D01*
X4947631Y-21348021D01*
X4938108Y-21376592D01*
X4823822Y-21490878D01*
X4947631Y-21490878D01*
X5071441Y-21290878D02*
X5090489Y-21290878D01*
X5109536Y-21300402D01*
X5119060Y-21309925D01*
X5128584Y-21328973D01*
X5138108Y-21367068D01*
X5138108Y-21414687D01*
X5128584Y-21452783D01*
X5119060Y-21471830D01*
X5109536Y-21481354D01*
X5090489Y-21490878D01*
X5071441Y-21490878D01*
X5052393Y-21481354D01*
X5042870Y-21471830D01*
X5033346Y-21452783D01*
X5023822Y-21414687D01*
X5023822Y-21367068D01*
X5033346Y-21328973D01*
X5042870Y-21309925D01*
X5052393Y-21300402D01*
X5071441Y-21290878D01*
X5376203Y-21490878D02*
X5376203Y-21290878D01*
X5461917Y-21490878D02*
X5461917Y-21386116D01*
X5452393Y-21367068D01*
X5433346Y-21357544D01*
X5404774Y-21357544D01*
X5385727Y-21367068D01*
X5376203Y-21376592D01*
X5585727Y-21490878D02*
X5566679Y-21481354D01*
X5557155Y-21471830D01*
X5547631Y-21452783D01*
X5547631Y-21395640D01*
X5557155Y-21376592D01*
X5566679Y-21367068D01*
X5585727Y-21357544D01*
X5614298Y-21357544D01*
X5633346Y-21367068D01*
X5642869Y-21376592D01*
X5652393Y-21395640D01*
X5652393Y-21452783D01*
X5642869Y-21471830D01*
X5633346Y-21481354D01*
X5614298Y-21490878D01*
X5585727Y-21490878D01*
X5766679Y-21490878D02*
X5747631Y-21481354D01*
X5738108Y-21462306D01*
X5738108Y-21290878D01*
X5919060Y-21481354D02*
X5900012Y-21490878D01*
X5861917Y-21490878D01*
X5842869Y-21481354D01*
X5833346Y-21462306D01*
X5833346Y-21386116D01*
X5842869Y-21367068D01*
X5861917Y-21357544D01*
X5900012Y-21357544D01*
X5919060Y-21367068D01*
X5928584Y-21386116D01*
X5928584Y-21405164D01*
X5833346Y-21424211D01*
X6004774Y-21481354D02*
X6023822Y-21490878D01*
X6061917Y-21490878D01*
X6080965Y-21481354D01*
X6090488Y-21462306D01*
X6090488Y-21452783D01*
X6080965Y-21433735D01*
X6061917Y-21424211D01*
X6033346Y-21424211D01*
X6014298Y-21414687D01*
X6004774Y-21395640D01*
X6004774Y-21386116D01*
X6014298Y-21367068D01*
X6033346Y-21357544D01*
X6061917Y-21357544D01*
X6080965Y-21367068D01*
X6157155Y-21567068D02*
X6166679Y-21557544D01*
X6185727Y-21528973D01*
X6195250Y-21509925D01*
X6204774Y-21481354D01*
X6214298Y-21433735D01*
X6214298Y-21395640D01*
X6204774Y-21348021D01*
X6195250Y-21319449D01*
X6185727Y-21300402D01*
X6166679Y-21271830D01*
X6157155Y-21262306D01*
X994774Y-21620402D02*
X1194774Y-21820402D01*
X1194774Y-21620402D02*
X994774Y-21820402D01*
X1094774Y-21620402D02*
X1094774Y-21820402D01*
X994774Y-21720402D02*
X1194774Y-21720402D01*
X1433346Y-21610878D02*
X1557155Y-21610878D01*
X1490488Y-21687068D01*
X1519060Y-21687068D01*
X1538108Y-21696592D01*
X1547631Y-21706116D01*
X1557155Y-21725164D01*
X1557155Y-21772783D01*
X1547631Y-21791830D01*
X1538108Y-21801354D01*
X1519060Y-21810878D01*
X1461917Y-21810878D01*
X1442869Y-21801354D01*
X1433346Y-21791830D01*
X1642869Y-21791830D02*
X1652393Y-21801354D01*
X1642869Y-21810878D01*
X1633346Y-21801354D01*
X1642869Y-21791830D01*
X1642869Y-21810878D01*
X1776203Y-21610878D02*
X1795250Y-21610878D01*
X1814298Y-21620402D01*
X1823822Y-21629925D01*
X1833346Y-21648973D01*
X1842869Y-21687068D01*
X1842869Y-21734687D01*
X1833346Y-21772783D01*
X1823822Y-21791830D01*
X1814298Y-21801354D01*
X1795250Y-21810878D01*
X1776203Y-21810878D01*
X1757155Y-21801354D01*
X1747631Y-21791830D01*
X1738108Y-21772783D01*
X1728584Y-21734687D01*
X1728584Y-21687068D01*
X1738108Y-21648973D01*
X1747631Y-21629925D01*
X1757155Y-21620402D01*
X1776203Y-21610878D01*
X1966679Y-21610878D02*
X1985727Y-21610878D01*
X2004774Y-21620402D01*
X2014298Y-21629925D01*
X2023822Y-21648973D01*
X2033346Y-21687068D01*
X2033346Y-21734687D01*
X2023822Y-21772783D01*
X2014298Y-21791830D01*
X2004774Y-21801354D01*
X1985727Y-21810878D01*
X1966679Y-21810878D01*
X1947631Y-21801354D01*
X1938108Y-21791830D01*
X1928584Y-21772783D01*
X1919060Y-21734687D01*
X1919060Y-21687068D01*
X1928584Y-21648973D01*
X1938108Y-21629925D01*
X1947631Y-21620402D01*
X1966679Y-21610878D01*
X2157155Y-21610878D02*
X2176203Y-21610878D01*
X2195250Y-21620402D01*
X2204774Y-21629925D01*
X2214298Y-21648973D01*
X2223822Y-21687068D01*
X2223822Y-21734687D01*
X2214298Y-21772783D01*
X2204774Y-21791830D01*
X2195250Y-21801354D01*
X2176203Y-21810878D01*
X2157155Y-21810878D01*
X2138108Y-21801354D01*
X2128584Y-21791830D01*
X2119060Y-21772783D01*
X2109536Y-21734687D01*
X2109536Y-21687068D01*
X2119060Y-21648973D01*
X2128584Y-21629925D01*
X2138108Y-21620402D01*
X2157155Y-21610878D01*
X2309536Y-21810878D02*
X2309536Y-21677544D01*
X2309536Y-21696592D02*
X2319060Y-21687068D01*
X2338108Y-21677544D01*
X2366679Y-21677544D01*
X2385727Y-21687068D01*
X2395250Y-21706116D01*
X2395250Y-21810878D01*
X2395250Y-21706116D02*
X2404774Y-21687068D01*
X2423822Y-21677544D01*
X2452393Y-21677544D01*
X2471441Y-21687068D01*
X2480965Y-21706116D01*
X2480965Y-21810878D01*
X2576203Y-21810878D02*
X2576203Y-21677544D01*
X2576203Y-21696592D02*
X2585727Y-21687068D01*
X2604774Y-21677544D01*
X2633346Y-21677544D01*
X2652393Y-21687068D01*
X2661917Y-21706116D01*
X2661917Y-21810878D01*
X2661917Y-21706116D02*
X2671441Y-21687068D01*
X2690489Y-21677544D01*
X2719060Y-21677544D01*
X2738108Y-21687068D01*
X2747631Y-21706116D01*
X2747631Y-21810878D01*
X3138108Y-21601354D02*
X2966679Y-21858497D01*
X3395250Y-21610878D02*
X3414298Y-21610878D01*
X3433346Y-21620402D01*
X3442869Y-21629925D01*
X3452393Y-21648973D01*
X3461917Y-21687068D01*
X3461917Y-21734687D01*
X3452393Y-21772783D01*
X3442869Y-21791830D01*
X3433346Y-21801354D01*
X3414298Y-21810878D01*
X3395250Y-21810878D01*
X3376203Y-21801354D01*
X3366679Y-21791830D01*
X3357155Y-21772783D01*
X3347631Y-21734687D01*
X3347631Y-21687068D01*
X3357155Y-21648973D01*
X3366679Y-21629925D01*
X3376203Y-21620402D01*
X3395250Y-21610878D01*
X3547631Y-21791830D02*
X3557155Y-21801354D01*
X3547631Y-21810878D01*
X3538108Y-21801354D01*
X3547631Y-21791830D01*
X3547631Y-21810878D01*
X3747631Y-21810878D02*
X3633346Y-21810878D01*
X3690488Y-21810878D02*
X3690488Y-21610878D01*
X3671441Y-21639449D01*
X3652393Y-21658497D01*
X3633346Y-21668021D01*
X3938108Y-21810878D02*
X3823822Y-21810878D01*
X3880965Y-21810878D02*
X3880965Y-21610878D01*
X3861917Y-21639449D01*
X3842869Y-21658497D01*
X3823822Y-21668021D01*
X4052393Y-21696592D02*
X4033346Y-21687068D01*
X4023822Y-21677544D01*
X4014298Y-21658497D01*
X4014298Y-21648973D01*
X4023822Y-21629925D01*
X4033346Y-21620402D01*
X4052393Y-21610878D01*
X4090488Y-21610878D01*
X4109536Y-21620402D01*
X4119060Y-21629925D01*
X4128584Y-21648973D01*
X4128584Y-21658497D01*
X4119060Y-21677544D01*
X4109536Y-21687068D01*
X4090488Y-21696592D01*
X4052393Y-21696592D01*
X4033346Y-21706116D01*
X4023822Y-21715640D01*
X4014298Y-21734687D01*
X4014298Y-21772783D01*
X4023822Y-21791830D01*
X4033346Y-21801354D01*
X4052393Y-21810878D01*
X4090488Y-21810878D01*
X4109536Y-21801354D01*
X4119060Y-21791830D01*
X4128584Y-21772783D01*
X4128584Y-21734687D01*
X4119060Y-21715640D01*
X4109536Y-21706116D01*
X4090488Y-21696592D01*
X4319060Y-21810878D02*
X4204774Y-21810878D01*
X4261917Y-21810878D02*
X4261917Y-21610878D01*
X4242870Y-21639449D01*
X4223822Y-21658497D01*
X4204774Y-21668021D01*
X4395250Y-21610878D02*
X4395250Y-21648973D01*
X4471441Y-21610878D02*
X4471441Y-21648973D01*
X4766679Y-21887068D02*
X4757155Y-21877544D01*
X4738108Y-21848973D01*
X4728584Y-21829925D01*
X4719060Y-21801354D01*
X4709536Y-21753735D01*
X4709536Y-21715640D01*
X4719060Y-21668021D01*
X4728584Y-21639449D01*
X4738108Y-21620402D01*
X4757155Y-21591830D01*
X4766679Y-21582306D01*
X4928584Y-21610878D02*
X4890489Y-21610878D01*
X4871441Y-21620402D01*
X4861917Y-21629925D01*
X4842870Y-21658497D01*
X4833346Y-21696592D01*
X4833346Y-21772783D01*
X4842870Y-21791830D01*
X4852393Y-21801354D01*
X4871441Y-21810878D01*
X4909536Y-21810878D01*
X4928584Y-21801354D01*
X4938108Y-21791830D01*
X4947631Y-21772783D01*
X4947631Y-21725164D01*
X4938108Y-21706116D01*
X4928584Y-21696592D01*
X4909536Y-21687068D01*
X4871441Y-21687068D01*
X4852393Y-21696592D01*
X4842870Y-21706116D01*
X4833346Y-21725164D01*
X5185727Y-21810878D02*
X5185727Y-21610878D01*
X5271441Y-21810878D02*
X5271441Y-21706116D01*
X5261917Y-21687068D01*
X5242870Y-21677544D01*
X5214298Y-21677544D01*
X5195250Y-21687068D01*
X5185727Y-21696592D01*
X5395250Y-21810878D02*
X5376203Y-21801354D01*
X5366679Y-21791830D01*
X5357155Y-21772783D01*
X5357155Y-21715640D01*
X5366679Y-21696592D01*
X5376203Y-21687068D01*
X5395250Y-21677544D01*
X5423822Y-21677544D01*
X5442870Y-21687068D01*
X5452393Y-21696592D01*
X5461917Y-21715640D01*
X5461917Y-21772783D01*
X5452393Y-21791830D01*
X5442870Y-21801354D01*
X5423822Y-21810878D01*
X5395250Y-21810878D01*
X5576203Y-21810878D02*
X5557155Y-21801354D01*
X5547631Y-21782306D01*
X5547631Y-21610878D01*
X5728584Y-21801354D02*
X5709536Y-21810878D01*
X5671441Y-21810878D01*
X5652393Y-21801354D01*
X5642869Y-21782306D01*
X5642869Y-21706116D01*
X5652393Y-21687068D01*
X5671441Y-21677544D01*
X5709536Y-21677544D01*
X5728584Y-21687068D01*
X5738108Y-21706116D01*
X5738108Y-21725164D01*
X5642869Y-21744211D01*
X5814298Y-21801354D02*
X5833346Y-21810878D01*
X5871441Y-21810878D01*
X5890488Y-21801354D01*
X5900012Y-21782306D01*
X5900012Y-21772783D01*
X5890488Y-21753735D01*
X5871441Y-21744211D01*
X5842869Y-21744211D01*
X5823822Y-21734687D01*
X5814298Y-21715640D01*
X5814298Y-21706116D01*
X5823822Y-21687068D01*
X5842869Y-21677544D01*
X5871441Y-21677544D01*
X5890488Y-21687068D01*
X5966679Y-21887068D02*
X5976203Y-21877544D01*
X5995250Y-21848973D01*
X6004774Y-21829925D01*
X6014298Y-21801354D01*
X6023822Y-21753735D01*
X6023822Y-21715640D01*
X6014298Y-21668021D01*
X6004774Y-21639449D01*
X5995250Y-21620402D01*
X5976203Y-21591830D01*
X5966679Y-21582306D01*
M02*
