%TF.GenerationSoftware,KiCad,Pcbnew,7.0.8*%
%TF.CreationDate,2023-10-09T09:06:24+01:00*%
%TF.ProjectId,CCC_rig_driver,4343435f-7269-4675-9f64-72697665722e,rev?*%
%TF.SameCoordinates,Original*%
%TF.FileFunction,Paste,Top*%
%TF.FilePolarity,Positive*%
%FSLAX46Y46*%
G04 Gerber Fmt 4.6, Leading zero omitted, Abs format (unit mm)*
G04 Created by KiCad (PCBNEW 7.0.8) date 2023-10-09 09:06:24*
%MOMM*%
%LPD*%
G01*
G04 APERTURE LIST*
G04 Aperture macros list*
%AMRoundRect*
0 Rectangle with rounded corners*
0 $1 Rounding radius*
0 $2 $3 $4 $5 $6 $7 $8 $9 X,Y pos of 4 corners*
0 Add a 4 corners polygon primitive as box body*
4,1,4,$2,$3,$4,$5,$6,$7,$8,$9,$2,$3,0*
0 Add four circle primitives for the rounded corners*
1,1,$1+$1,$2,$3*
1,1,$1+$1,$4,$5*
1,1,$1+$1,$6,$7*
1,1,$1+$1,$8,$9*
0 Add four rect primitives between the rounded corners*
20,1,$1+$1,$2,$3,$4,$5,0*
20,1,$1+$1,$4,$5,$6,$7,0*
20,1,$1+$1,$6,$7,$8,$9,0*
20,1,$1+$1,$8,$9,$2,$3,0*%
G04 Aperture macros list end*
%ADD10R,1.525000X0.650000*%
%ADD11RoundRect,0.150000X0.587500X0.150000X-0.587500X0.150000X-0.587500X-0.150000X0.587500X-0.150000X0*%
%ADD12RoundRect,0.237500X-0.250000X-0.237500X0.250000X-0.237500X0.250000X0.237500X-0.250000X0.237500X0*%
%ADD13RoundRect,0.237500X0.250000X0.237500X-0.250000X0.237500X-0.250000X-0.237500X0.250000X-0.237500X0*%
%ADD14RoundRect,0.237500X-0.237500X0.250000X-0.237500X-0.250000X0.237500X-0.250000X0.237500X0.250000X0*%
%ADD15RoundRect,0.237500X0.237500X-0.250000X0.237500X0.250000X-0.237500X0.250000X-0.237500X-0.250000X0*%
%ADD16RoundRect,0.150000X-0.587500X-0.150000X0.587500X-0.150000X0.587500X0.150000X-0.587500X0.150000X0*%
G04 APERTURE END LIST*
D10*
%TO.C,IC10*%
X68369000Y-106881500D03*
X68369000Y-108151500D03*
X68369000Y-109421500D03*
X68369000Y-110691500D03*
X68369000Y-111961500D03*
X68369000Y-113231500D03*
X68369000Y-114501500D03*
X68369000Y-115771500D03*
X73793000Y-115771500D03*
X73793000Y-114501500D03*
X73793000Y-113231500D03*
X73793000Y-111961500D03*
X73793000Y-110691500D03*
X73793000Y-109421500D03*
X73793000Y-108151500D03*
X73793000Y-106881500D03*
%TD*%
D11*
%TO.C,Q4*%
X47223600Y-46340300D03*
X47223600Y-44440300D03*
X45348600Y-45390300D03*
%TD*%
D12*
%TO.C,R49*%
X71751900Y-132441700D03*
X73576900Y-132441700D03*
%TD*%
D13*
%TO.C,R37*%
X25948600Y-47802800D03*
X24123600Y-47802800D03*
%TD*%
D14*
%TO.C,R20*%
X35667500Y-25112600D03*
X35667500Y-26937600D03*
%TD*%
%TO.C,R22*%
X48904700Y-63843000D03*
X48904700Y-65668000D03*
%TD*%
D10*
%TO.C,IC6*%
X42366700Y-73363000D03*
X42366700Y-72093000D03*
X42366700Y-70823000D03*
X42366700Y-69553000D03*
X42366700Y-68283000D03*
X42366700Y-67013000D03*
X42366700Y-65743000D03*
X42366700Y-64473000D03*
X36942700Y-64473000D03*
X36942700Y-65743000D03*
X36942700Y-67013000D03*
X36942700Y-68283000D03*
X36942700Y-69553000D03*
X36942700Y-70823000D03*
X36942700Y-72093000D03*
X36942700Y-73363000D03*
%TD*%
D15*
%TO.C,R24*%
X48997700Y-155131900D03*
X48997700Y-153306900D03*
%TD*%
D10*
%TO.C,IC9*%
X61952400Y-126246700D03*
X61952400Y-127516700D03*
X61952400Y-128786700D03*
X61952400Y-130056700D03*
X61952400Y-131326700D03*
X61952400Y-132596700D03*
X61952400Y-133866700D03*
X61952400Y-135136700D03*
X67376400Y-135136700D03*
X67376400Y-133866700D03*
X67376400Y-132596700D03*
X67376400Y-131326700D03*
X67376400Y-130056700D03*
X67376400Y-128786700D03*
X67376400Y-127516700D03*
X67376400Y-126246700D03*
%TD*%
D16*
%TO.C,Q8*%
X50476900Y-133904200D03*
X50476900Y-135804200D03*
X52351900Y-134854200D03*
%TD*%
D10*
%TO.C,IC5*%
X35748100Y-53997800D03*
X35748100Y-52727800D03*
X35748100Y-51457800D03*
X35748100Y-50187800D03*
X35748100Y-48917800D03*
X35748100Y-47647800D03*
X35748100Y-46377800D03*
X35748100Y-45107800D03*
X30324100Y-45107800D03*
X30324100Y-46377800D03*
X30324100Y-47647800D03*
X30324100Y-48917800D03*
X30324100Y-50187800D03*
X30324100Y-51457800D03*
X30324100Y-52727800D03*
X30324100Y-53997800D03*
%TD*%
D13*
%TO.C,R38*%
X32567200Y-67168000D03*
X30742200Y-67168000D03*
%TD*%
D15*
%TO.C,R47*%
X71247700Y-97036300D03*
X71247700Y-95211300D03*
%TD*%
D14*
%TO.C,R34*%
X45904700Y-63843000D03*
X45904700Y-65668000D03*
%TD*%
D15*
%TO.C,R45*%
X58414400Y-135766700D03*
X58414400Y-133941700D03*
%TD*%
D13*
%TO.C,R31*%
X54273300Y-90283200D03*
X52448300Y-90283200D03*
%TD*%
D12*
%TO.C,R41*%
X56664400Y-128691700D03*
X58489400Y-128691700D03*
%TD*%
D10*
%TO.C,IC11*%
X74785700Y-87516300D03*
X74785700Y-88786300D03*
X74785700Y-90056300D03*
X74785700Y-91326300D03*
X74785700Y-92596300D03*
X74785700Y-93866300D03*
X74785700Y-95136300D03*
X74785700Y-96406300D03*
X80209700Y-96406300D03*
X80209700Y-95136300D03*
X80209700Y-93866300D03*
X80209700Y-92596300D03*
X80209700Y-91326300D03*
X80209700Y-90056300D03*
X80209700Y-88786300D03*
X80209700Y-87516300D03*
%TD*%
D14*
%TO.C,R23*%
X55523300Y-83208200D03*
X55523300Y-85033200D03*
%TD*%
D10*
%TO.C,IC7*%
X48985300Y-92728200D03*
X48985300Y-91458200D03*
X48985300Y-90188200D03*
X48985300Y-88918200D03*
X48985300Y-87648200D03*
X48985300Y-86378200D03*
X48985300Y-85108200D03*
X48985300Y-83838200D03*
X43561300Y-83838200D03*
X43561300Y-85108200D03*
X43561300Y-86378200D03*
X43561300Y-87648200D03*
X43561300Y-88918200D03*
X43561300Y-90188200D03*
X43561300Y-91458200D03*
X43561300Y-92728200D03*
%TD*%
D11*
%TO.C,Q6*%
X60460800Y-85070700D03*
X60460800Y-83170700D03*
X58585800Y-84120700D03*
%TD*%
D14*
%TO.C,R32*%
X32667500Y-25112600D03*
X32667500Y-26937600D03*
%TD*%
D10*
%TO.C,IC4*%
X29129500Y-34632600D03*
X29129500Y-33362600D03*
X29129500Y-32092600D03*
X29129500Y-30822600D03*
X29129500Y-29552600D03*
X29129500Y-28282600D03*
X29129500Y-27012600D03*
X29129500Y-25742600D03*
X23705500Y-25742600D03*
X23705500Y-27012600D03*
X23705500Y-28282600D03*
X23705500Y-29552600D03*
X23705500Y-30822600D03*
X23705500Y-32092600D03*
X23705500Y-33362600D03*
X23705500Y-34632600D03*
%TD*%
D15*
%TO.C,R46*%
X64831000Y-116401500D03*
X64831000Y-114576500D03*
%TD*%
D14*
%TO.C,R33*%
X39286100Y-44477800D03*
X39286100Y-46302800D03*
%TD*%
D12*
%TO.C,R43*%
X69497700Y-89961300D03*
X71322700Y-89961300D03*
%TD*%
D15*
%TO.C,R27*%
X68247700Y-97036300D03*
X68247700Y-95211300D03*
%TD*%
%TO.C,R44*%
X51997700Y-155131900D03*
X51997700Y-153306900D03*
%TD*%
D11*
%TO.C,Q5*%
X53842200Y-65705500D03*
X53842200Y-63805500D03*
X51967200Y-64755500D03*
%TD*%
D15*
%TO.C,R26*%
X61831000Y-116401500D03*
X61831000Y-114576500D03*
%TD*%
D13*
%TO.C,R28*%
X34417500Y-32187600D03*
X32592500Y-32187600D03*
%TD*%
D12*
%TO.C,R40*%
X50247700Y-148056900D03*
X52072700Y-148056900D03*
%TD*%
D13*
%TO.C,R39*%
X39185800Y-86533200D03*
X37360800Y-86533200D03*
%TD*%
D16*
%TO.C,Q10*%
X63310200Y-95173800D03*
X63310200Y-97073800D03*
X65185200Y-96123800D03*
%TD*%
D14*
%TO.C,R21*%
X42286100Y-44477800D03*
X42286100Y-46302800D03*
%TD*%
D13*
%TO.C,R36*%
X19330000Y-28437600D03*
X17505000Y-28437600D03*
%TD*%
D16*
%TO.C,Q7*%
X49562500Y-156950000D03*
X49562500Y-158850000D03*
X51437500Y-157900000D03*
%TD*%
D10*
%TO.C,IC8*%
X55535700Y-145611900D03*
X55535700Y-146881900D03*
X55535700Y-148151900D03*
X55535700Y-149421900D03*
X55535700Y-150691900D03*
X55535700Y-151961900D03*
X55535700Y-153231900D03*
X55535700Y-154501900D03*
X60959700Y-154501900D03*
X60959700Y-153231900D03*
X60959700Y-151961900D03*
X60959700Y-150691900D03*
X60959700Y-149421900D03*
X60959700Y-148151900D03*
X60959700Y-146881900D03*
X60959700Y-145611900D03*
%TD*%
D16*
%TO.C,Q9*%
X56893500Y-114539000D03*
X56893500Y-116439000D03*
X58768500Y-115489000D03*
%TD*%
D11*
%TO.C,Q3*%
X40605000Y-26975100D03*
X40605000Y-25075100D03*
X38730000Y-26025100D03*
%TD*%
D12*
%TO.C,R50*%
X78168900Y-113076700D03*
X79993900Y-113076700D03*
%TD*%
D15*
%TO.C,R25*%
X55414400Y-135766700D03*
X55414400Y-133941700D03*
%TD*%
D13*
%TO.C,R30*%
X47654700Y-70918000D03*
X45829700Y-70918000D03*
%TD*%
D14*
%TO.C,R35*%
X52523300Y-83208200D03*
X52523300Y-85033200D03*
%TD*%
D12*
%TO.C,R48*%
X65335200Y-151806900D03*
X67160200Y-151806900D03*
%TD*%
D13*
%TO.C,R29*%
X41036100Y-51552800D03*
X39211100Y-51552800D03*
%TD*%
D12*
%TO.C,R51*%
X84585200Y-93711300D03*
X86410200Y-93711300D03*
%TD*%
%TO.C,R42*%
X63081000Y-109326500D03*
X64906000Y-109326500D03*
%TD*%
M02*
