%TF.GenerationSoftware,KiCad,Pcbnew,(6.0.7)*%
%TF.CreationDate,2023-09-05T12:05:13+01:00*%
%TF.ProjectId,CCC_rig_driver,4343435f-7269-4675-9f64-72697665722e,rev?*%
%TF.SameCoordinates,Original*%
%TF.FileFunction,Drillmap*%
%TF.FilePolarity,Positive*%
%FSLAX45Y45*%
G04 Gerber Fmt 4.5, Leading zero omitted, Abs format (unit mm)*
G04 Created by KiCad (PCBNEW (6.0.7)) date 2023-09-05 12:05:13*
%MOMM*%
%LPD*%
G01*
G04 APERTURE LIST*
%ADD10C,0.100000*%
%ADD11C,0.200000*%
G04 APERTURE END LIST*
D10*
X1199774Y-19399402D02*
X1199774Y-1999402D01*
X3006760Y-1999460D02*
X1199774Y-1999402D01*
X6593240Y-1999460D02*
X9199774Y-1999402D01*
X1199774Y-19399402D02*
X9199774Y-19399402D01*
X9199774Y-1999402D02*
X9199774Y-19399402D01*
D11*
X1452393Y-19714878D02*
X1452393Y-19514878D01*
X1500012Y-19514878D01*
X1528584Y-19524402D01*
X1547631Y-19543449D01*
X1557155Y-19562497D01*
X1566679Y-19600592D01*
X1566679Y-19629164D01*
X1557155Y-19667259D01*
X1547631Y-19686306D01*
X1528584Y-19705354D01*
X1500012Y-19714878D01*
X1452393Y-19714878D01*
X1652393Y-19714878D02*
X1652393Y-19581544D01*
X1652393Y-19619640D02*
X1661917Y-19600592D01*
X1671441Y-19591068D01*
X1690488Y-19581544D01*
X1709536Y-19581544D01*
X1776203Y-19714878D02*
X1776203Y-19581544D01*
X1776203Y-19514878D02*
X1766679Y-19524402D01*
X1776203Y-19533925D01*
X1785727Y-19524402D01*
X1776203Y-19514878D01*
X1776203Y-19533925D01*
X1900012Y-19714878D02*
X1880965Y-19705354D01*
X1871441Y-19686306D01*
X1871441Y-19514878D01*
X2004774Y-19714878D02*
X1985727Y-19705354D01*
X1976203Y-19686306D01*
X1976203Y-19514878D01*
X2233346Y-19714878D02*
X2233346Y-19514878D01*
X2300012Y-19657735D01*
X2366679Y-19514878D01*
X2366679Y-19714878D01*
X2547631Y-19714878D02*
X2547631Y-19610116D01*
X2538108Y-19591068D01*
X2519060Y-19581544D01*
X2480965Y-19581544D01*
X2461917Y-19591068D01*
X2547631Y-19705354D02*
X2528584Y-19714878D01*
X2480965Y-19714878D01*
X2461917Y-19705354D01*
X2452393Y-19686306D01*
X2452393Y-19667259D01*
X2461917Y-19648211D01*
X2480965Y-19638687D01*
X2528584Y-19638687D01*
X2547631Y-19629164D01*
X2642870Y-19581544D02*
X2642870Y-19781544D01*
X2642870Y-19591068D02*
X2661917Y-19581544D01*
X2700012Y-19581544D01*
X2719060Y-19591068D01*
X2728584Y-19600592D01*
X2738108Y-19619640D01*
X2738108Y-19676783D01*
X2728584Y-19695830D01*
X2719060Y-19705354D01*
X2700012Y-19714878D01*
X2661917Y-19714878D01*
X2642870Y-19705354D01*
X2823822Y-19695830D02*
X2833346Y-19705354D01*
X2823822Y-19714878D01*
X2814298Y-19705354D01*
X2823822Y-19695830D01*
X2823822Y-19714878D01*
X2823822Y-19591068D02*
X2833346Y-19600592D01*
X2823822Y-19610116D01*
X2814298Y-19600592D01*
X2823822Y-19591068D01*
X2823822Y-19610116D01*
M02*
