%TF.GenerationSoftware,KiCad,Pcbnew,7.0.8*%
%TF.CreationDate,2023-10-09T09:06:24+01:00*%
%TF.ProjectId,CCC_rig_driver,4343435f-7269-4675-9f64-72697665722e,rev?*%
%TF.SameCoordinates,Original*%
%TF.FileFunction,Soldermask,Bot*%
%TF.FilePolarity,Negative*%
%FSLAX46Y46*%
G04 Gerber Fmt 4.6, Leading zero omitted, Abs format (unit mm)*
G04 Created by KiCad (PCBNEW 7.0.8) date 2023-10-09 09:06:24*
%MOMM*%
%LPD*%
G01*
G04 APERTURE LIST*
G04 Aperture macros list*
%AMRoundRect*
0 Rectangle with rounded corners*
0 $1 Rounding radius*
0 $2 $3 $4 $5 $6 $7 $8 $9 X,Y pos of 4 corners*
0 Add a 4 corners polygon primitive as box body*
4,1,4,$2,$3,$4,$5,$6,$7,$8,$9,$2,$3,0*
0 Add four circle primitives for the rounded corners*
1,1,$1+$1,$2,$3*
1,1,$1+$1,$4,$5*
1,1,$1+$1,$6,$7*
1,1,$1+$1,$8,$9*
0 Add four rect primitives between the rounded corners*
20,1,$1+$1,$2,$3,$4,$5,0*
20,1,$1+$1,$4,$5,$6,$7,0*
20,1,$1+$1,$6,$7,$8,$9,0*
20,1,$1+$1,$8,$9,$2,$3,0*%
G04 Aperture macros list end*
%ADD10C,4.000000*%
%ADD11C,3.000000*%
%ADD12R,1.651000X5.080000*%
%ADD13RoundRect,0.639769X-1.310231X-1.310231X1.310231X-1.310231X1.310231X1.310231X-1.310231X1.310231X0*%
%ADD14R,1.600000X1.600000*%
%ADD15C,1.600000*%
%ADD16RoundRect,0.639769X1.310231X1.310231X-1.310231X1.310231X-1.310231X-1.310231X1.310231X-1.310231X0*%
%ADD17C,1.778000*%
%ADD18C,3.200000*%
G04 APERTURE END LIST*
D10*
%TO.C,J12*%
X66049700Y-190614000D03*
X73949700Y-190614000D03*
X81849700Y-190614000D03*
D11*
X62099700Y-170814000D03*
X62099700Y-174914000D03*
X69999700Y-170814000D03*
X69999700Y-174914000D03*
X77899700Y-170814000D03*
X77899700Y-174914000D03*
X85799700Y-170814000D03*
X85799700Y-174914000D03*
%TD*%
D10*
%TO.C,J7*%
X22145700Y-190614000D03*
X30045700Y-190614000D03*
X37945700Y-190614000D03*
D11*
X18195700Y-170814000D03*
X18195700Y-174914000D03*
X26095700Y-170814000D03*
X26095700Y-174914000D03*
X33995700Y-170814000D03*
X33995700Y-174914000D03*
X41895700Y-170814000D03*
X41895700Y-174914000D03*
%TD*%
D12*
%TO.C,J6*%
X61970000Y-16160200D03*
X59430000Y-16160200D03*
X56890000Y-16160200D03*
X54350000Y-16160200D03*
X51810000Y-16160200D03*
X49270000Y-16160200D03*
X46730000Y-16160200D03*
X44190000Y-16160200D03*
X41650000Y-16160200D03*
X39110000Y-16160200D03*
X36570000Y-16160200D03*
X34030000Y-16160200D03*
%TD*%
D13*
%TO.C,IC10*%
X81831000Y-105576500D03*
X81581000Y-117326500D03*
%TD*%
D14*
%TO.C,C24*%
X52504700Y-73355500D03*
D15*
X52504700Y-76855500D03*
%TD*%
D14*
%TO.C,C9*%
X62594888Y-163600000D03*
D15*
X65094888Y-163600000D03*
%TD*%
D14*
%TO.C,C10*%
X73694888Y-164200000D03*
D15*
X76194888Y-164200000D03*
%TD*%
D16*
%TO.C,IC6*%
X28904700Y-74668000D03*
X29154700Y-62918000D03*
%TD*%
D14*
%TO.C,C29*%
X63900000Y-91652700D03*
D15*
X63900000Y-88152700D03*
%TD*%
D14*
%TO.C,C25*%
X55600000Y-94647300D03*
D15*
X55600000Y-98147300D03*
%TD*%
D13*
%TO.C,IC9*%
X75414400Y-124941700D03*
X75164400Y-136691700D03*
%TD*%
D16*
%TO.C,IC5*%
X22286100Y-55302800D03*
X22536100Y-43552800D03*
%TD*%
D13*
%TO.C,IC11*%
X88247700Y-86211300D03*
X87997700Y-97961300D03*
%TD*%
D14*
%TO.C,C1*%
X17705100Y-164200000D03*
D15*
X15205100Y-164200000D03*
%TD*%
D14*
%TO.C,C4*%
X41305113Y-164200000D03*
D15*
X38805113Y-164200000D03*
%TD*%
D16*
%TO.C,IC7*%
X35523300Y-94033200D03*
X35773300Y-82283200D03*
%TD*%
%TO.C,IC4*%
X15667500Y-35937600D03*
X15917500Y-24187600D03*
%TD*%
D14*
%TO.C,C26*%
X47800000Y-143852700D03*
D15*
X47800000Y-140352700D03*
%TD*%
D14*
%TO.C,C2*%
X25605100Y-164200000D03*
D15*
X23105100Y-164200000D03*
%TD*%
D14*
%TO.C,C27*%
X51814400Y-126254200D03*
D15*
X51814400Y-122754200D03*
%TD*%
D14*
%TO.C,C22*%
X39267500Y-34625100D03*
D15*
X39267500Y-38125100D03*
%TD*%
D14*
%TO.C,C11*%
X80194888Y-164200000D03*
D15*
X82694888Y-164200000D03*
%TD*%
D14*
%TO.C,C3*%
X33505100Y-164200000D03*
D15*
X31005100Y-164200000D03*
%TD*%
D14*
%TO.C,C12*%
X86394900Y-164200000D03*
D15*
X88894900Y-164200000D03*
%TD*%
D13*
%TO.C,IC8*%
X68997700Y-144306900D03*
X68747700Y-156056900D03*
%TD*%
D17*
%TO.C,U2*%
X73151700Y-26991000D03*
X73151700Y-29531000D03*
X73151700Y-32071000D03*
X73151700Y-34611000D03*
X73151700Y-39691000D03*
X73151700Y-42231000D03*
X73151700Y-44771000D03*
X73151700Y-47311000D03*
X73151700Y-54677000D03*
X73151700Y-57217000D03*
X73151700Y-59757000D03*
X73151700Y-62297000D03*
X73151700Y-67377000D03*
X73151700Y-69917000D03*
X73151700Y-72457000D03*
X73151700Y-74997000D03*
X85597700Y-21911000D03*
X85597700Y-80077000D03*
X68071700Y-26991000D03*
X68071700Y-29531000D03*
X68071700Y-32071000D03*
X68071700Y-34611000D03*
X68071700Y-39691000D03*
X68071700Y-42231000D03*
X68071700Y-44771000D03*
X68071700Y-47311000D03*
X68071700Y-54677000D03*
X68071700Y-57217000D03*
X68071700Y-59757000D03*
X68071700Y-62297000D03*
X68071700Y-67377000D03*
X68071700Y-69917000D03*
X68071700Y-72457000D03*
X68071700Y-74997000D03*
X83057700Y-21911000D03*
X83057700Y-80077000D03*
D18*
X88645700Y-23181000D03*
X88645700Y-78807000D03*
X69849700Y-23181000D03*
X69849700Y-78807000D03*
D17*
X80517700Y-21911000D03*
X80517700Y-80077000D03*
X77977700Y-21911000D03*
X77977700Y-80077000D03*
X72897700Y-21911000D03*
X72897700Y-80077000D03*
X70611700Y-26991000D03*
X70611700Y-29531000D03*
X70611700Y-32071000D03*
X70611700Y-34611000D03*
X70611700Y-39691000D03*
X70611700Y-42231000D03*
X70611700Y-44771000D03*
X70611700Y-47311000D03*
X70611700Y-54677000D03*
X70611700Y-57217000D03*
X70611700Y-59757000D03*
X70611700Y-62297000D03*
X70611700Y-67377000D03*
X70611700Y-69917000D03*
X70611700Y-72457000D03*
X70611700Y-74997000D03*
X75437700Y-21911000D03*
X75437700Y-80077000D03*
%TD*%
D14*
%TO.C,C23*%
X45886100Y-53990300D03*
D15*
X45886100Y-57490300D03*
%TD*%
D14*
%TO.C,C28*%
X58231000Y-106889000D03*
D15*
X58231000Y-103389000D03*
%TD*%
M02*
