%TF.GenerationSoftware,KiCad,Pcbnew,7.0.8*%
%TF.CreationDate,2023-10-09T09:06:27+01:00*%
%TF.ProjectId,CCC_rig_driver,4343435f-7269-4675-9f64-72697665722e,rev?*%
%TF.SameCoordinates,Original*%
%TF.FileFunction,Plated,1,4,PTH,Drill*%
%TF.FilePolarity,Positive*%
%FSLAX46Y46*%
G04 Gerber Fmt 4.6, Leading zero omitted, Abs format (unit mm)*
G04 Created by KiCad (PCBNEW 7.0.8) date 2023-10-09 09:06:27*
%MOMM*%
%LPD*%
G01*
G04 APERTURE LIST*
%TA.AperFunction,ViaDrill*%
%ADD10C,0.400000*%
%TD*%
%TA.AperFunction,ComponentDrill*%
%ADD11C,0.800000*%
%TD*%
%TA.AperFunction,ComponentDrill*%
%ADD12C,1.000000*%
%TD*%
%TA.AperFunction,ComponentDrill*%
%ADD13C,1.016000*%
%TD*%
%TA.AperFunction,ComponentDrill*%
%ADD14C,1.800000*%
%TD*%
%TA.AperFunction,ComponentDrill*%
%ADD15C,2.500000*%
%TD*%
%TA.AperFunction,ComponentDrill*%
%ADD16C,3.000000*%
%TD*%
G04 APERTURE END LIST*
D10*
X17505000Y-29516900D03*
X23247700Y-23244000D03*
X23247700Y-24244000D03*
X23264500Y-48661900D03*
X23297700Y-35994000D03*
X23297700Y-36994000D03*
X24247700Y-23244000D03*
X24247700Y-24244000D03*
X24297700Y-35994000D03*
X24297700Y-36994000D03*
X25197700Y-29194000D03*
X25197700Y-31494000D03*
X25247700Y-23244000D03*
X25247700Y-24244000D03*
X25297700Y-35994000D03*
X25297700Y-36994000D03*
X26247700Y-23244000D03*
X26247700Y-24244000D03*
X26297700Y-35994000D03*
X26297700Y-36994000D03*
X26397700Y-29194000D03*
X26397700Y-31494000D03*
X27247700Y-23244000D03*
X27247700Y-24244000D03*
X27297700Y-35994000D03*
X27297700Y-36994000D03*
X27697700Y-29194000D03*
X27697700Y-31494000D03*
X28247700Y-23244000D03*
X28247700Y-24244000D03*
X28297700Y-35994000D03*
X28297700Y-36994000D03*
X29247700Y-23244000D03*
X29247700Y-24244000D03*
X29297700Y-35994000D03*
X29297700Y-36994000D03*
X29897700Y-42694000D03*
X29897700Y-43694000D03*
X29897700Y-55394000D03*
X29897700Y-56394000D03*
X30247700Y-23244000D03*
X30247700Y-24244000D03*
X30256300Y-68252700D03*
X30297700Y-35994000D03*
X30297700Y-36994000D03*
X30697700Y-29194000D03*
X30897700Y-42694000D03*
X30897700Y-43694000D03*
X30897700Y-55394000D03*
X30897700Y-56394000D03*
X31797700Y-48594000D03*
X31797700Y-49694000D03*
X31797700Y-50894000D03*
X31897700Y-29194000D03*
X31897700Y-42694000D03*
X31897700Y-43694000D03*
X31897700Y-55394000D03*
X31897700Y-56394000D03*
X32897700Y-42694000D03*
X32897700Y-43694000D03*
X32897700Y-55394000D03*
X32897700Y-56394000D03*
X32997700Y-48594000D03*
X32997700Y-49694000D03*
X32997700Y-50894000D03*
X33197700Y-29194000D03*
X33897700Y-42694000D03*
X33897700Y-43694000D03*
X33897700Y-55394000D03*
X33897700Y-56394000D03*
X34297700Y-48594000D03*
X34297700Y-49694000D03*
X34297700Y-50894000D03*
X34397700Y-29194000D03*
X34417500Y-33303400D03*
X34897700Y-42694000D03*
X34897700Y-43694000D03*
X34897700Y-55394000D03*
X34897700Y-56394000D03*
X35897700Y-42694000D03*
X35897700Y-43694000D03*
X35897700Y-55394000D03*
X35897700Y-56394000D03*
X36497700Y-61994000D03*
X36497700Y-62994000D03*
X36497700Y-74694000D03*
X36497700Y-75694000D03*
X36897700Y-42694000D03*
X36897700Y-43694000D03*
X36897700Y-55394000D03*
X36897700Y-56394000D03*
X37297700Y-48594000D03*
X37297700Y-50294000D03*
X37360800Y-87614800D03*
X37497700Y-61994000D03*
X37497700Y-62994000D03*
X37497700Y-74694000D03*
X37497700Y-75694000D03*
X38397700Y-67894000D03*
X38397700Y-68994000D03*
X38397700Y-70194000D03*
X38497700Y-48594000D03*
X38497700Y-50294000D03*
X38497700Y-61994000D03*
X38497700Y-62994000D03*
X38497700Y-74694000D03*
X38497700Y-75694000D03*
X39497700Y-61994000D03*
X39497700Y-62994000D03*
X39497700Y-74694000D03*
X39497700Y-75694000D03*
X39597700Y-67894000D03*
X39597700Y-68994000D03*
X39597700Y-70194000D03*
X39797700Y-48594000D03*
X39797700Y-50294000D03*
X40497700Y-61994000D03*
X40497700Y-62994000D03*
X40497700Y-74694000D03*
X40497700Y-75694000D03*
X40573000Y-27904100D03*
X40897700Y-67894000D03*
X40897700Y-68994000D03*
X40897700Y-70194000D03*
X40997700Y-48594000D03*
X40997700Y-50294000D03*
X41497700Y-61994000D03*
X41497700Y-62994000D03*
X41497700Y-74694000D03*
X41497700Y-75694000D03*
X42497700Y-61994000D03*
X42497700Y-62994000D03*
X42497700Y-74694000D03*
X42497700Y-75694000D03*
X43097700Y-93994000D03*
X43097700Y-94994000D03*
X43197700Y-81394000D03*
X43197700Y-82394000D03*
X43376900Y-46582700D03*
X43497700Y-61994000D03*
X43497700Y-62994000D03*
X43497700Y-74694000D03*
X43497700Y-75694000D03*
X43897700Y-67894000D03*
X43897700Y-69594000D03*
X44097700Y-93994000D03*
X44097700Y-94994000D03*
X44197700Y-81394000D03*
X44197700Y-82394000D03*
X44997700Y-87294000D03*
X44997700Y-88394000D03*
X44997700Y-89594000D03*
X45000000Y-60400000D03*
X45000000Y-61400000D03*
X45000000Y-62400000D03*
X45097700Y-67894000D03*
X45097700Y-69594000D03*
X45097700Y-93994000D03*
X45097700Y-94994000D03*
X45197700Y-81394000D03*
X45197700Y-82394000D03*
X46000000Y-60400000D03*
X46000000Y-61400000D03*
X46000000Y-62400000D03*
X46097700Y-93994000D03*
X46097700Y-94994000D03*
X46197700Y-81394000D03*
X46197700Y-82394000D03*
X46197700Y-87294000D03*
X46197700Y-88394000D03*
X46197700Y-89594000D03*
X46397700Y-67894000D03*
X46397700Y-69594000D03*
X47000000Y-60400000D03*
X47000000Y-61400000D03*
X47000000Y-62400000D03*
X47097700Y-93994000D03*
X47097700Y-94994000D03*
X47197700Y-81394000D03*
X47197700Y-82394000D03*
X47223600Y-37638400D03*
X47497700Y-87294000D03*
X47497700Y-88394000D03*
X47497700Y-89594000D03*
X47597700Y-67894000D03*
X47597700Y-69594000D03*
X47928600Y-45423400D03*
X48000000Y-60400000D03*
X48000000Y-61400000D03*
X48000000Y-62400000D03*
X48097700Y-93994000D03*
X48097700Y-94994000D03*
X48197700Y-81394000D03*
X48197700Y-82394000D03*
X48700000Y-29300000D03*
X48700000Y-30300000D03*
X48700000Y-31300000D03*
X48700000Y-32300000D03*
X48700000Y-33300000D03*
X48847000Y-152181700D03*
X49000000Y-60400000D03*
X49000000Y-61400000D03*
X49000000Y-62400000D03*
X49027200Y-70117000D03*
X49097700Y-93994000D03*
X49097700Y-94994000D03*
X49197700Y-81394000D03*
X49197700Y-82394000D03*
X49700000Y-29300000D03*
X49700000Y-30300000D03*
X49700000Y-31300000D03*
X49700000Y-32300000D03*
X49700000Y-33300000D03*
X50077100Y-156026600D03*
X50097700Y-93994000D03*
X50097700Y-94994000D03*
X50197700Y-81394000D03*
X50197700Y-82394000D03*
X50247700Y-146947000D03*
X50297700Y-149286000D03*
X50297700Y-150986000D03*
X50497700Y-87294000D03*
X50497700Y-88994000D03*
X50700000Y-29300000D03*
X50700000Y-30300000D03*
X50700000Y-31300000D03*
X50700000Y-32300000D03*
X51497700Y-149286000D03*
X51497700Y-150986000D03*
X51697700Y-87294000D03*
X51697700Y-88994000D03*
X51700000Y-29300000D03*
X51700000Y-30300000D03*
X51700000Y-31300000D03*
X52700000Y-29300000D03*
X52700000Y-30300000D03*
X52797700Y-149286000D03*
X52797700Y-150986000D03*
X53352800Y-70751100D03*
X53997700Y-149286000D03*
X53997700Y-150986000D03*
X54184400Y-66615900D03*
X54397700Y-143286000D03*
X54397700Y-144286000D03*
X54400000Y-156000000D03*
X54400000Y-157000000D03*
X55105800Y-132837600D03*
X55397700Y-143286000D03*
X55397700Y-144286000D03*
X55400000Y-156000000D03*
X55400000Y-157000000D03*
X56397700Y-143286000D03*
X56397700Y-144286000D03*
X56400000Y-156000000D03*
X56400000Y-157000000D03*
X56697700Y-129986000D03*
X56697700Y-131686000D03*
X56890000Y-19317800D03*
X56951500Y-127600300D03*
X56997700Y-148686000D03*
X56997700Y-149886000D03*
X56997700Y-150986000D03*
X57397700Y-143286000D03*
X57397700Y-144286000D03*
X57400000Y-156000000D03*
X57400000Y-157000000D03*
X57897700Y-129986000D03*
X57897700Y-131686000D03*
X58297700Y-148686000D03*
X58297700Y-149886000D03*
X58297700Y-150986000D03*
X58397700Y-143286000D03*
X58397700Y-144286000D03*
X58400000Y-156000000D03*
X58400000Y-157000000D03*
X59197700Y-129986000D03*
X59197700Y-131686000D03*
X59397700Y-143286000D03*
X59397700Y-144286000D03*
X59400000Y-156000000D03*
X59400000Y-157000000D03*
X59430000Y-19337900D03*
X59497700Y-148686000D03*
X59497700Y-149886000D03*
X59497700Y-150986000D03*
X60397700Y-129986000D03*
X60397700Y-131686000D03*
X60397700Y-143286000D03*
X60397700Y-144286000D03*
X60400000Y-156000000D03*
X60400000Y-157000000D03*
X60466800Y-86482800D03*
X60797700Y-123886000D03*
X60797700Y-124886000D03*
X60797700Y-136686000D03*
X60797700Y-137686000D03*
X61397700Y-143286000D03*
X61397700Y-144286000D03*
X61400000Y-156000000D03*
X61400000Y-157000000D03*
X61797700Y-123886000D03*
X61797700Y-124886000D03*
X61797700Y-136686000D03*
X61797700Y-137686000D03*
X61823400Y-109609100D03*
X62797700Y-123886000D03*
X62797700Y-124886000D03*
X62797700Y-136686000D03*
X62797700Y-137686000D03*
X62910600Y-114374400D03*
X63197700Y-110586000D03*
X63397700Y-129386000D03*
X63397700Y-130586000D03*
X63397700Y-131686000D03*
X63413100Y-18851100D03*
X63797700Y-123886000D03*
X63797700Y-124886000D03*
X63797700Y-136686000D03*
X63797700Y-137686000D03*
X64697700Y-129386000D03*
X64697700Y-130586000D03*
X64697700Y-131686000D03*
X64797700Y-123886000D03*
X64797700Y-124886000D03*
X64797700Y-136686000D03*
X64797700Y-137686000D03*
X65697700Y-110586000D03*
X65697700Y-112286000D03*
X65797700Y-123886000D03*
X65797700Y-124886000D03*
X65797700Y-136686000D03*
X65797700Y-137686000D03*
X65897700Y-129386000D03*
X65897700Y-130586000D03*
X65897700Y-131686000D03*
X66797700Y-123886000D03*
X66797700Y-124886000D03*
X66797700Y-136686000D03*
X66797700Y-137686000D03*
X66897700Y-110586000D03*
X66897700Y-112286000D03*
X67097700Y-104486000D03*
X67097700Y-105486000D03*
X67160200Y-150672700D03*
X67197700Y-117286000D03*
X67197700Y-118286000D03*
X67797700Y-123886000D03*
X67797700Y-124886000D03*
X67797700Y-136686000D03*
X67797700Y-137686000D03*
X68097700Y-104486000D03*
X68097700Y-105486000D03*
X68197700Y-117286000D03*
X68197700Y-118286000D03*
X68849300Y-94135000D03*
X69097700Y-104486000D03*
X69097700Y-105486000D03*
X69197700Y-117286000D03*
X69197700Y-118286000D03*
X69497700Y-91186300D03*
X69497700Y-92886300D03*
X69897700Y-109986000D03*
X69897700Y-111186000D03*
X69897700Y-112286000D03*
X70097700Y-104486000D03*
X70097700Y-105486000D03*
X70197700Y-117286000D03*
X70197700Y-118286000D03*
X70697700Y-91186300D03*
X70697700Y-92886300D03*
X71097700Y-104486000D03*
X71097700Y-105486000D03*
X71197700Y-109986000D03*
X71197700Y-111186000D03*
X71197700Y-112286000D03*
X71197700Y-117286000D03*
X71197700Y-118286000D03*
X72097700Y-104486000D03*
X72097700Y-105486000D03*
X72197700Y-117286000D03*
X72197700Y-118286000D03*
X72397700Y-109986000D03*
X72397700Y-111186000D03*
X72397700Y-112286000D03*
X73097700Y-104486000D03*
X73097700Y-105486000D03*
X73197700Y-117286000D03*
X73197700Y-118286000D03*
X73597700Y-86186300D03*
X73597700Y-97886300D03*
X73597700Y-98886300D03*
X73618200Y-130934500D03*
X74097700Y-104486000D03*
X74097700Y-105486000D03*
X74197700Y-117286000D03*
X74197700Y-118286000D03*
X74597700Y-86186300D03*
X74597700Y-97886300D03*
X74597700Y-98886300D03*
X75300000Y-81900000D03*
X75300000Y-82900000D03*
X75300000Y-83900000D03*
X75500000Y-75900000D03*
X75500000Y-76900000D03*
X75500000Y-77900000D03*
X75597700Y-86186300D03*
X75597700Y-97886300D03*
X75597700Y-98886300D03*
X76197700Y-90586300D03*
X76197700Y-91786300D03*
X76197700Y-92886300D03*
X76300000Y-81900000D03*
X76300000Y-82900000D03*
X76300000Y-83900000D03*
X76500000Y-75900000D03*
X76500000Y-76900000D03*
X76500000Y-77900000D03*
X76597700Y-86186300D03*
X76597700Y-97886300D03*
X76597700Y-98886300D03*
X77300000Y-81900000D03*
X77300000Y-82900000D03*
X77300000Y-83900000D03*
X77497700Y-90586300D03*
X77497700Y-91786300D03*
X77497700Y-92886300D03*
X77597700Y-86186300D03*
X77597700Y-97886300D03*
X77597700Y-98886300D03*
X78300000Y-81900000D03*
X78300000Y-82900000D03*
X78300000Y-83900000D03*
X78597700Y-86186300D03*
X78597700Y-97886300D03*
X78597700Y-98886300D03*
X78697700Y-90586300D03*
X78697700Y-91786300D03*
X78697700Y-92886300D03*
X79300000Y-81900000D03*
X79300000Y-82900000D03*
X79300000Y-83900000D03*
X79597700Y-86186300D03*
X79597700Y-97886300D03*
X79597700Y-98886300D03*
X80036300Y-111445500D03*
X80597700Y-86186300D03*
X80597700Y-97886300D03*
X80597700Y-98886300D03*
X86469700Y-92442900D03*
D11*
%TO.C,C1*%
X15205100Y-164200000D03*
X17705100Y-164200000D03*
%TO.C,C2*%
X23105100Y-164200000D03*
X25605100Y-164200000D03*
%TO.C,C3*%
X31005100Y-164200000D03*
X33505100Y-164200000D03*
%TO.C,C4*%
X38805113Y-164200000D03*
%TO.C,C22*%
X39267500Y-34625100D03*
X39267500Y-38125100D03*
%TO.C,C4*%
X41305113Y-164200000D03*
%TO.C,C23*%
X45886100Y-53990300D03*
X45886100Y-57490300D03*
%TO.C,C26*%
X47800000Y-140352700D03*
X47800000Y-143852700D03*
%TO.C,C27*%
X51814400Y-122754200D03*
X51814400Y-126254200D03*
%TO.C,C24*%
X52504700Y-73355500D03*
X52504700Y-76855500D03*
%TO.C,C25*%
X55600000Y-94647300D03*
X55600000Y-98147300D03*
%TO.C,C28*%
X58231000Y-103389000D03*
X58231000Y-106889000D03*
%TO.C,C9*%
X62594888Y-163600000D03*
%TO.C,C29*%
X63900000Y-88152700D03*
X63900000Y-91652700D03*
%TO.C,C9*%
X65094888Y-163600000D03*
%TO.C,C10*%
X73694888Y-164200000D03*
X76194888Y-164200000D03*
%TO.C,C11*%
X80194888Y-164200000D03*
X82694888Y-164200000D03*
%TO.C,C12*%
X86394900Y-164200000D03*
X88894900Y-164200000D03*
D12*
%TO.C,U2*%
X68071700Y-26991000D03*
X68071700Y-29531000D03*
X68071700Y-32071000D03*
X68071700Y-34611000D03*
X68071700Y-39691000D03*
X68071700Y-42231000D03*
X68071700Y-44771000D03*
X68071700Y-47311000D03*
X68071700Y-54677000D03*
X68071700Y-57217000D03*
X68071700Y-59757000D03*
X68071700Y-62297000D03*
X68071700Y-67377000D03*
X68071700Y-69917000D03*
X68071700Y-72457000D03*
X68071700Y-74997000D03*
X70611700Y-26991000D03*
X70611700Y-29531000D03*
X70611700Y-32071000D03*
X70611700Y-34611000D03*
X70611700Y-39691000D03*
X70611700Y-42231000D03*
X70611700Y-44771000D03*
X70611700Y-47311000D03*
X70611700Y-54677000D03*
X70611700Y-57217000D03*
X70611700Y-59757000D03*
X70611700Y-62297000D03*
X70611700Y-67377000D03*
X70611700Y-69917000D03*
X70611700Y-72457000D03*
X70611700Y-74997000D03*
X73151700Y-26991000D03*
X73151700Y-29531000D03*
X73151700Y-32071000D03*
X73151700Y-34611000D03*
X73151700Y-39691000D03*
X73151700Y-42231000D03*
X73151700Y-44771000D03*
X73151700Y-47311000D03*
X73151700Y-54677000D03*
X73151700Y-57217000D03*
X73151700Y-59757000D03*
X73151700Y-62297000D03*
X73151700Y-67377000D03*
X73151700Y-69917000D03*
X73151700Y-72457000D03*
X73151700Y-74997000D03*
D13*
X72897700Y-21911000D03*
X72897700Y-80077000D03*
X75437700Y-21911000D03*
X75437700Y-80077000D03*
X77977700Y-21911000D03*
X77977700Y-80077000D03*
X80517700Y-21911000D03*
X80517700Y-80077000D03*
X83057700Y-21911000D03*
X83057700Y-80077000D03*
X85597700Y-21911000D03*
X85597700Y-80077000D03*
D14*
%TO.C,J7*%
X18195700Y-170814000D03*
X18195700Y-174914000D03*
X26095700Y-170814000D03*
X26095700Y-174914000D03*
X33995700Y-170814000D03*
X33995700Y-174914000D03*
X41895700Y-170814000D03*
X41895700Y-174914000D03*
%TO.C,J12*%
X62099700Y-170814000D03*
X62099700Y-174914000D03*
X69999700Y-170814000D03*
X69999700Y-174914000D03*
X77899700Y-170814000D03*
X77899700Y-174914000D03*
X85799700Y-170814000D03*
X85799700Y-174914000D03*
D15*
%TO.C,IC4*%
X15667500Y-35937600D03*
X15917500Y-24187600D03*
%TO.C,IC5*%
X22286100Y-55302800D03*
X22536100Y-43552800D03*
%TO.C,IC6*%
X28904700Y-74668000D03*
X29154700Y-62918000D03*
%TO.C,IC7*%
X35523300Y-94033200D03*
X35773300Y-82283200D03*
%TO.C,IC8*%
X68747700Y-156056900D03*
X68997700Y-144306900D03*
%TO.C,U2*%
X69849700Y-23181000D03*
X69849700Y-78807000D03*
%TO.C,IC9*%
X75164400Y-136691700D03*
X75414400Y-124941700D03*
%TO.C,IC10*%
X81581000Y-117326500D03*
X81831000Y-105576500D03*
%TO.C,IC11*%
X87997700Y-97961300D03*
X88247700Y-86211300D03*
%TO.C,U2*%
X88645700Y-23181000D03*
X88645700Y-78807000D03*
D16*
%TO.C,J7*%
X22145700Y-190614000D03*
X30045700Y-190614000D03*
X37945700Y-190614000D03*
%TO.C,J12*%
X66049700Y-190614000D03*
X73949700Y-190614000D03*
X81849700Y-190614000D03*
M02*
