%TF.GenerationSoftware,KiCad,Pcbnew,(6.0.7)*%
%TF.CreationDate,2023-09-04T09:41:33+01:00*%
%TF.ProjectId,CCC_rig_backplane,4343435f-7269-4675-9f62-61636b706c61,rev?*%
%TF.SameCoordinates,Original*%
%TF.FileFunction,Plated,1,2,PTH,Drill*%
%TF.FilePolarity,Positive*%
%FSLAX46Y46*%
G04 Gerber Fmt 4.6, Leading zero omitted, Abs format (unit mm)*
G04 Created by KiCad (PCBNEW (6.0.7)) date 2023-09-04 09:41:33*
%MOMM*%
%LPD*%
G01*
G04 APERTURE LIST*
%TA.AperFunction,ViaDrill*%
%ADD10C,0.400000*%
%TD*%
%TA.AperFunction,ComponentDrill*%
%ADD11C,0.800000*%
%TD*%
%TA.AperFunction,ComponentDrill*%
%ADD12C,1.092200*%
%TD*%
%TA.AperFunction,ComponentDrill*%
%ADD13C,1.100000*%
%TD*%
%TA.AperFunction,ComponentDrill*%
%ADD14C,1.400000*%
%TD*%
G04 APERTURE END LIST*
D10*
X126538300Y-57686100D03*
X302455400Y-63919500D03*
X427112100Y-53867000D03*
X428482200Y-65745900D03*
X428814100Y-60825100D03*
D11*
%TO.C,C1*%
X72097300Y-19750000D03*
%TO.C,R4*%
X74000000Y-27690000D03*
X74000000Y-35310000D03*
%TO.C,R5*%
X74000000Y-39690000D03*
X74000000Y-47310000D03*
%TO.C,C1*%
X75597300Y-19750000D03*
%TO.C,R3*%
X411190000Y-35250000D03*
%TO.C,R1*%
X411190000Y-55250000D03*
%TO.C,R2*%
X411190000Y-75250000D03*
%TO.C,R3*%
X418810000Y-35250000D03*
%TO.C,R1*%
X418810000Y-55250000D03*
%TO.C,R2*%
X418810000Y-75250000D03*
D12*
%TO.C,J5*%
X37024500Y-32517600D03*
X37024500Y-35057600D03*
X37024500Y-37597600D03*
X37024500Y-40137600D03*
X37024500Y-42677600D03*
X37024500Y-45217600D03*
X41875500Y-32517600D03*
X41875500Y-35057600D03*
X41875500Y-37597600D03*
X41875500Y-40137600D03*
X41875500Y-42677600D03*
X41875500Y-45217600D03*
%TO.C,J1*%
X117998000Y-35897600D03*
X117998000Y-38437600D03*
X117998000Y-40977600D03*
X117998000Y-43517600D03*
X117998000Y-46057600D03*
X117998000Y-48597600D03*
X117998000Y-51137600D03*
X117998000Y-53677600D03*
X117998000Y-56217600D03*
X117998000Y-58757600D03*
X117998000Y-61297600D03*
X117998000Y-63837600D03*
X122850000Y-35897600D03*
X122850000Y-38437600D03*
X122850000Y-40977600D03*
X122850000Y-43517600D03*
X122850000Y-46057600D03*
X122850000Y-48597600D03*
X122850000Y-51137600D03*
X122850000Y-53677600D03*
X122850000Y-56217600D03*
X122850000Y-58757600D03*
X122850000Y-61297600D03*
X122850000Y-63837600D03*
%TO.C,J2*%
X142998000Y-35897600D03*
X142998000Y-38437600D03*
X142998000Y-40977600D03*
X142998000Y-43517600D03*
X142998000Y-46057600D03*
X142998000Y-48597600D03*
X142998000Y-51137600D03*
X142998000Y-53677600D03*
X142998000Y-56217600D03*
X142998000Y-58757600D03*
X142998000Y-61297600D03*
X142998000Y-63837600D03*
X147850000Y-35897600D03*
X147850000Y-38437600D03*
X147850000Y-40977600D03*
X147850000Y-43517600D03*
X147850000Y-46057600D03*
X147850000Y-48597600D03*
X147850000Y-51137600D03*
X147850000Y-53677600D03*
X147850000Y-56217600D03*
X147850000Y-58757600D03*
X147850000Y-61297600D03*
X147850000Y-63837600D03*
%TO.C,J3*%
X167998000Y-35897600D03*
X167998000Y-38437600D03*
X167998000Y-40977600D03*
X167998000Y-43517600D03*
X167998000Y-46057600D03*
X167998000Y-48597600D03*
X167998000Y-51137600D03*
X167998000Y-53677600D03*
X167998000Y-56217600D03*
X167998000Y-58757600D03*
X167998000Y-61297600D03*
X167998000Y-63837600D03*
X172850000Y-35897600D03*
X172850000Y-38437600D03*
X172850000Y-40977600D03*
X172850000Y-43517600D03*
X172850000Y-46057600D03*
X172850000Y-48597600D03*
X172850000Y-51137600D03*
X172850000Y-53677600D03*
X172850000Y-56217600D03*
X172850000Y-58757600D03*
X172850000Y-61297600D03*
X172850000Y-63837600D03*
%TO.C,J4*%
X192998000Y-35897600D03*
X192998000Y-38437600D03*
X192998000Y-40977600D03*
X192998000Y-43517600D03*
X192998000Y-46057600D03*
X192998000Y-48597600D03*
X192998000Y-51137600D03*
X192998000Y-53677600D03*
X192998000Y-56217600D03*
X192998000Y-58757600D03*
X192998000Y-61297600D03*
X192998000Y-63837600D03*
X197850000Y-35897600D03*
X197850000Y-38437600D03*
X197850000Y-40977600D03*
X197850000Y-43517600D03*
X197850000Y-46057600D03*
X197850000Y-48597600D03*
X197850000Y-51137600D03*
X197850000Y-53677600D03*
X197850000Y-56217600D03*
X197850000Y-58757600D03*
X197850000Y-61297600D03*
X197850000Y-63837600D03*
%TO.C,J6*%
X217998000Y-35897600D03*
X217998000Y-38437600D03*
X217998000Y-40977600D03*
X217998000Y-43517600D03*
X217998000Y-46057600D03*
X217998000Y-48597600D03*
X217998000Y-51137600D03*
X217998000Y-53677600D03*
X217998000Y-56217600D03*
X217998000Y-58757600D03*
X217998000Y-61297600D03*
X217998000Y-63837600D03*
X222850000Y-35897600D03*
X222850000Y-38437600D03*
X222850000Y-40977600D03*
X222850000Y-43517600D03*
X222850000Y-46057600D03*
X222850000Y-48597600D03*
X222850000Y-51137600D03*
X222850000Y-53677600D03*
X222850000Y-56217600D03*
X222850000Y-58757600D03*
X222850000Y-61297600D03*
X222850000Y-63837600D03*
%TO.C,J7*%
X242998000Y-35897600D03*
X242998000Y-38437600D03*
X242998000Y-40977600D03*
X242998000Y-43517600D03*
X242998000Y-46057600D03*
X242998000Y-48597600D03*
X242998000Y-51137600D03*
X242998000Y-53677600D03*
X242998000Y-56217600D03*
X242998000Y-58757600D03*
X242998000Y-61297600D03*
X242998000Y-63837600D03*
X247850000Y-35897600D03*
X247850000Y-38437600D03*
X247850000Y-40977600D03*
X247850000Y-43517600D03*
X247850000Y-46057600D03*
X247850000Y-48597600D03*
X247850000Y-51137600D03*
X247850000Y-53677600D03*
X247850000Y-56217600D03*
X247850000Y-58757600D03*
X247850000Y-61297600D03*
X247850000Y-63837600D03*
%TO.C,J8*%
X267998000Y-35897600D03*
X267998000Y-38437600D03*
X267998000Y-40977600D03*
X267998000Y-43517600D03*
X267998000Y-46057600D03*
X267998000Y-48597600D03*
X267998000Y-51137600D03*
X267998000Y-53677600D03*
X267998000Y-56217600D03*
X267998000Y-58757600D03*
X267998000Y-61297600D03*
X267998000Y-63837600D03*
X272850000Y-35897600D03*
X272850000Y-38437600D03*
X272850000Y-40977600D03*
X272850000Y-43517600D03*
X272850000Y-46057600D03*
X272850000Y-48597600D03*
X272850000Y-51137600D03*
X272850000Y-53677600D03*
X272850000Y-56217600D03*
X272850000Y-58757600D03*
X272850000Y-61297600D03*
X272850000Y-63837600D03*
%TO.C,J9*%
X292998000Y-35897600D03*
X292998000Y-38437600D03*
X292998000Y-40977600D03*
X292998000Y-43517600D03*
X292998000Y-46057600D03*
X292998000Y-48597600D03*
X292998000Y-51137600D03*
X292998000Y-53677600D03*
X292998000Y-56217600D03*
X292998000Y-58757600D03*
X292998000Y-61297600D03*
X292998000Y-63837600D03*
X297850000Y-35897600D03*
X297850000Y-38437600D03*
X297850000Y-40977600D03*
X297850000Y-43517600D03*
X297850000Y-46057600D03*
X297850000Y-48597600D03*
X297850000Y-51137600D03*
X297850000Y-53677600D03*
X297850000Y-56217600D03*
X297850000Y-58757600D03*
X297850000Y-61297600D03*
X297850000Y-63837600D03*
D13*
%TO.C,J15*%
X347788800Y-42179500D03*
X347788800Y-47259500D03*
%TO.C,J10*%
X347788800Y-62179500D03*
X347788800Y-67259500D03*
%TO.C,J11*%
X347788800Y-82179500D03*
X347788800Y-87259500D03*
%TO.C,J15*%
X350328800Y-42179500D03*
X350328800Y-47259500D03*
%TO.C,J10*%
X350328800Y-62179500D03*
X350328800Y-67259500D03*
%TO.C,J11*%
X350328800Y-82179500D03*
X350328800Y-87259500D03*
%TO.C,J15*%
X352868800Y-42179500D03*
X352868800Y-47259500D03*
%TO.C,J10*%
X352868800Y-62179500D03*
X352868800Y-67259500D03*
%TO.C,J11*%
X352868800Y-82179500D03*
X352868800Y-87259500D03*
%TO.C,J15*%
X355408800Y-42179500D03*
X355408800Y-47259500D03*
%TO.C,J10*%
X355408800Y-62179500D03*
X355408800Y-67259500D03*
%TO.C,J11*%
X355408800Y-82179500D03*
X355408800Y-87259500D03*
%TO.C,J15*%
X357948800Y-42179500D03*
X357948800Y-47259500D03*
%TO.C,J10*%
X357948800Y-62179500D03*
X357948800Y-67259500D03*
%TO.C,J11*%
X357948800Y-82179500D03*
X357948800Y-87259500D03*
%TO.C,J15*%
X360488800Y-42179500D03*
X360488800Y-47259500D03*
%TO.C,J10*%
X360488800Y-62179500D03*
X360488800Y-67259500D03*
%TO.C,J11*%
X360488800Y-82179500D03*
X360488800Y-87259500D03*
%TO.C,J15*%
X363028800Y-42179500D03*
X363028800Y-47259500D03*
%TO.C,J10*%
X363028800Y-62179500D03*
X363028800Y-67259500D03*
%TO.C,J11*%
X363028800Y-82179500D03*
X363028800Y-87259500D03*
%TO.C,J15*%
X365568800Y-42179500D03*
X365568800Y-47259500D03*
%TO.C,J10*%
X365568800Y-62179500D03*
X365568800Y-67259500D03*
%TO.C,J11*%
X365568800Y-82179500D03*
X365568800Y-87259500D03*
%TO.C,J15*%
X368108800Y-42179500D03*
X368108800Y-47259500D03*
%TO.C,J10*%
X368108800Y-62179500D03*
X368108800Y-67259500D03*
%TO.C,J11*%
X368108800Y-82179500D03*
X368108800Y-87259500D03*
%TO.C,J15*%
X370648800Y-42179500D03*
X370648800Y-47259500D03*
%TO.C,J10*%
X370648800Y-62179500D03*
X370648800Y-67259500D03*
%TO.C,J11*%
X370648800Y-82179500D03*
X370648800Y-87259500D03*
%TO.C,J15*%
X373188800Y-42179500D03*
X373188800Y-47259500D03*
%TO.C,J10*%
X373188800Y-62179500D03*
X373188800Y-67259500D03*
%TO.C,J11*%
X373188800Y-82179500D03*
X373188800Y-87259500D03*
%TO.C,J15*%
X375728800Y-42179500D03*
X375728800Y-47259500D03*
%TO.C,J10*%
X375728800Y-62179500D03*
X375728800Y-67259500D03*
%TO.C,J11*%
X375728800Y-82179500D03*
X375728800Y-87259500D03*
%TO.C,J15*%
X378268800Y-42179500D03*
X378268800Y-47259500D03*
%TO.C,J10*%
X378268800Y-62179500D03*
X378268800Y-67259500D03*
%TO.C,J11*%
X378268800Y-82179500D03*
X378268800Y-87259500D03*
%TO.C,J15*%
X380808800Y-42179500D03*
X380808800Y-47259500D03*
%TO.C,J10*%
X380808800Y-62179500D03*
X380808800Y-67259500D03*
%TO.C,J11*%
X380808800Y-82179500D03*
X380808800Y-87259500D03*
%TO.C,J15*%
X383348800Y-42179500D03*
X383348800Y-47259500D03*
%TO.C,J10*%
X383348800Y-62179500D03*
X383348800Y-67259500D03*
%TO.C,J11*%
X383348800Y-82179500D03*
X383348800Y-87259500D03*
%TO.C,J15*%
X385888800Y-42179500D03*
X385888800Y-47259500D03*
%TO.C,J10*%
X385888800Y-62179500D03*
X385888800Y-67259500D03*
%TO.C,J11*%
X385888800Y-82179500D03*
X385888800Y-87259500D03*
%TO.C,J15*%
X388428800Y-42179500D03*
X388428800Y-47259500D03*
%TO.C,J10*%
X388428800Y-62179500D03*
X388428800Y-67259500D03*
%TO.C,J11*%
X388428800Y-82179500D03*
X388428800Y-87259500D03*
%TO.C,J15*%
X390968800Y-42179500D03*
X390968800Y-47259500D03*
%TO.C,J10*%
X390968800Y-62179500D03*
X390968800Y-67259500D03*
%TO.C,J11*%
X390968800Y-82179500D03*
X390968800Y-87259500D03*
%TO.C,J15*%
X393508800Y-42179500D03*
X393508800Y-47259500D03*
%TO.C,J10*%
X393508800Y-62179500D03*
X393508800Y-67259500D03*
%TO.C,J11*%
X393508800Y-82179500D03*
X393508800Y-87259500D03*
%TO.C,J15*%
X396048800Y-42179500D03*
X396048800Y-47259500D03*
%TO.C,J10*%
X396048800Y-62179500D03*
X396048800Y-67259500D03*
%TO.C,J11*%
X396048800Y-82179500D03*
X396048800Y-87259500D03*
%TO.C,J15*%
X398588800Y-42179500D03*
X398588800Y-47259500D03*
%TO.C,J10*%
X398588800Y-62179500D03*
X398588800Y-67259500D03*
%TO.C,J11*%
X398588800Y-82179500D03*
X398588800Y-87259500D03*
%TO.C,J15*%
X401128800Y-42179500D03*
X401128800Y-47259500D03*
%TO.C,J10*%
X401128800Y-62179500D03*
X401128800Y-67259500D03*
%TO.C,J11*%
X401128800Y-82179500D03*
X401128800Y-87259500D03*
%TO.C,J15*%
X403668800Y-42179500D03*
X403668800Y-47259500D03*
%TO.C,J10*%
X403668800Y-62179500D03*
X403668800Y-67259500D03*
%TO.C,J11*%
X403668800Y-82179500D03*
X403668800Y-87259500D03*
%TO.C,J15*%
X406208800Y-42179500D03*
X406208800Y-47259500D03*
%TO.C,J10*%
X406208800Y-62179500D03*
X406208800Y-67259500D03*
%TO.C,J11*%
X406208800Y-82179500D03*
X406208800Y-87259500D03*
%TO.C,J15*%
X408748800Y-42179500D03*
X408748800Y-47259500D03*
%TO.C,J10*%
X408748800Y-62179500D03*
X408748800Y-67259500D03*
%TO.C,J11*%
X408748800Y-82179500D03*
X408748800Y-87259500D03*
%TO.C,J15*%
X411288800Y-42179500D03*
X411288800Y-47259500D03*
%TO.C,J10*%
X411288800Y-62179500D03*
X411288800Y-67259500D03*
%TO.C,J11*%
X411288800Y-82179500D03*
X411288800Y-87259500D03*
%TO.C,J15*%
X413828800Y-42179500D03*
X413828800Y-47259500D03*
%TO.C,J10*%
X413828800Y-62179500D03*
X413828800Y-67259500D03*
%TO.C,J11*%
X413828800Y-82179500D03*
X413828800Y-87259500D03*
%TO.C,J15*%
X416368800Y-42179500D03*
X416368800Y-47259500D03*
%TO.C,J10*%
X416368800Y-62179500D03*
X416368800Y-67259500D03*
%TO.C,J11*%
X416368800Y-82179500D03*
X416368800Y-87259500D03*
%TO.C,J15*%
X418908800Y-42179500D03*
X418908800Y-47259500D03*
%TO.C,J10*%
X418908800Y-62179500D03*
X418908800Y-67259500D03*
%TO.C,J11*%
X418908800Y-82179500D03*
X418908800Y-87259500D03*
%TO.C,J15*%
X421448800Y-42179500D03*
X421448800Y-47259500D03*
%TO.C,J10*%
X421448800Y-62179500D03*
X421448800Y-67259500D03*
%TO.C,J11*%
X421448800Y-82179500D03*
X421448800Y-87259500D03*
%TO.C,J15*%
X423988800Y-42179500D03*
X423988800Y-47259500D03*
%TO.C,J10*%
X423988800Y-62179500D03*
X423988800Y-67259500D03*
%TO.C,J11*%
X423988800Y-82179500D03*
X423988800Y-87259500D03*
%TO.C,J15*%
X426528800Y-42179500D03*
X426528800Y-47259500D03*
%TO.C,J10*%
X426528800Y-62179500D03*
X426528800Y-67259500D03*
%TO.C,J11*%
X426528800Y-82179500D03*
X426528800Y-87259500D03*
D14*
%TO.C,J12*%
X83000000Y-19750000D03*
%TO.C,J13*%
X83000000Y-31750000D03*
%TO.C,J14*%
X83000000Y-43750000D03*
%TO.C,J12*%
X85500000Y-19750000D03*
%TO.C,J13*%
X85500000Y-31750000D03*
%TO.C,J14*%
X85500000Y-43750000D03*
M02*
