%TF.GenerationSoftware,KiCad,Pcbnew,(6.0.7)*%
%TF.CreationDate,2023-09-04T09:41:36+01:00*%
%TF.ProjectId,CCC_rig_backplane,4343435f-7269-4675-9f62-61636b706c61,rev?*%
%TF.SameCoordinates,Original*%
%TF.FileFunction,Legend,Top*%
%TF.FilePolarity,Positive*%
%FSLAX46Y46*%
G04 Gerber Fmt 4.6, Leading zero omitted, Abs format (unit mm)*
G04 Created by KiCad (PCBNEW (6.0.7)) date 2023-09-04 09:41:36*
%MOMM*%
%LPD*%
G01*
G04 APERTURE LIST*
%ADD10C,0.300000*%
%ADD11C,0.150641*%
%ADD12C,0.254000*%
%ADD13C,0.150000*%
%ADD14C,0.100000*%
%ADD15C,0.200000*%
%ADD16C,0.120000*%
G04 APERTURE END LIST*
D10*
X14167458Y-87916493D02*
X14167458Y-86416493D01*
X14524601Y-86416493D01*
X14738887Y-86487922D01*
X14881744Y-86630779D01*
X14953172Y-86773636D01*
X15024601Y-87059350D01*
X15024601Y-87273636D01*
X14953172Y-87559350D01*
X14881744Y-87702207D01*
X14738887Y-87845064D01*
X14524601Y-87916493D01*
X14167458Y-87916493D01*
X16238887Y-87845064D02*
X16096030Y-87916493D01*
X15810315Y-87916493D01*
X15667458Y-87845064D01*
X15596030Y-87702207D01*
X15596030Y-87130779D01*
X15667458Y-86987922D01*
X15810315Y-86916493D01*
X16096030Y-86916493D01*
X16238887Y-86987922D01*
X16310315Y-87130779D01*
X16310315Y-87273636D01*
X15596030Y-87416493D01*
X16881744Y-87845064D02*
X17024601Y-87916493D01*
X17310315Y-87916493D01*
X17453172Y-87845064D01*
X17524601Y-87702207D01*
X17524601Y-87630779D01*
X17453172Y-87487922D01*
X17310315Y-87416493D01*
X17096030Y-87416493D01*
X16953172Y-87345064D01*
X16881744Y-87202207D01*
X16881744Y-87130779D01*
X16953172Y-86987922D01*
X17096030Y-86916493D01*
X17310315Y-86916493D01*
X17453172Y-86987922D01*
X18167458Y-87916493D02*
X18167458Y-86916493D01*
X18167458Y-86416493D02*
X18096030Y-86487922D01*
X18167458Y-86559350D01*
X18238887Y-86487922D01*
X18167458Y-86416493D01*
X18167458Y-86559350D01*
X19524601Y-86916493D02*
X19524601Y-88130779D01*
X19453173Y-88273636D01*
X19381744Y-88345064D01*
X19238887Y-88416493D01*
X19024601Y-88416493D01*
X18881744Y-88345064D01*
X19524601Y-87845064D02*
X19381744Y-87916493D01*
X19096030Y-87916493D01*
X18953172Y-87845064D01*
X18881744Y-87773636D01*
X18810315Y-87630779D01*
X18810315Y-87202207D01*
X18881744Y-87059350D01*
X18953172Y-86987922D01*
X19096030Y-86916493D01*
X19381744Y-86916493D01*
X19524601Y-86987922D01*
X20238887Y-86916493D02*
X20238887Y-87916493D01*
X20238887Y-87059350D02*
X20310315Y-86987922D01*
X20453173Y-86916493D01*
X20667458Y-86916493D01*
X20810315Y-86987922D01*
X20881744Y-87130779D01*
X20881744Y-87916493D01*
X22167458Y-87845064D02*
X22024601Y-87916493D01*
X21738887Y-87916493D01*
X21596030Y-87845064D01*
X21524601Y-87702207D01*
X21524601Y-87130779D01*
X21596030Y-86987922D01*
X21738887Y-86916493D01*
X22024601Y-86916493D01*
X22167458Y-86987922D01*
X22238887Y-87130779D01*
X22238887Y-87273636D01*
X21524601Y-87416493D01*
X23524601Y-87916493D02*
X23524601Y-86416493D01*
X23524601Y-87845064D02*
X23381744Y-87916493D01*
X23096030Y-87916493D01*
X22953173Y-87845064D01*
X22881744Y-87773636D01*
X22810315Y-87630779D01*
X22810315Y-87202207D01*
X22881744Y-87059350D01*
X22953173Y-86987922D01*
X23096030Y-86916493D01*
X23381744Y-86916493D01*
X23524601Y-86987922D01*
X25381744Y-87916493D02*
X25381744Y-86416493D01*
X25381744Y-86987922D02*
X25524601Y-86916493D01*
X25810315Y-86916493D01*
X25953172Y-86987922D01*
X26024601Y-87059350D01*
X26096030Y-87202207D01*
X26096030Y-87630779D01*
X26024601Y-87773636D01*
X25953172Y-87845064D01*
X25810315Y-87916493D01*
X25524601Y-87916493D01*
X25381744Y-87845064D01*
X26596030Y-86916493D02*
X26953172Y-87916493D01*
X27310315Y-86916493D02*
X26953172Y-87916493D01*
X26810315Y-88273636D01*
X26738887Y-88345064D01*
X26596030Y-88416493D01*
X29310315Y-86416493D02*
X29596030Y-86416493D01*
X29738887Y-86487922D01*
X29881744Y-86630779D01*
X29953172Y-86916493D01*
X29953172Y-87416493D01*
X29881744Y-87702207D01*
X29738887Y-87845064D01*
X29596030Y-87916493D01*
X29310315Y-87916493D01*
X29167458Y-87845064D01*
X29024601Y-87702207D01*
X28953172Y-87416493D01*
X28953172Y-86916493D01*
X29024601Y-86630779D01*
X29167458Y-86487922D01*
X29310315Y-86416493D01*
X30596030Y-87916493D02*
X30596030Y-86916493D01*
X30596030Y-86416493D02*
X30524601Y-86487922D01*
X30596030Y-86559350D01*
X30667458Y-86487922D01*
X30596030Y-86416493D01*
X30596030Y-86559350D01*
X31238887Y-87845064D02*
X31381744Y-87916493D01*
X31667458Y-87916493D01*
X31810315Y-87845064D01*
X31881744Y-87702207D01*
X31881744Y-87630779D01*
X31810315Y-87487922D01*
X31667458Y-87416493D01*
X31453172Y-87416493D01*
X31310315Y-87345064D01*
X31238887Y-87202207D01*
X31238887Y-87130779D01*
X31310315Y-86987922D01*
X31453172Y-86916493D01*
X31667458Y-86916493D01*
X31810315Y-86987922D01*
X32524601Y-87916493D02*
X32524601Y-86916493D01*
X32524601Y-86416493D02*
X32453172Y-86487922D01*
X32524601Y-86559350D01*
X32596030Y-86487922D01*
X32524601Y-86416493D01*
X32524601Y-86559350D01*
X33238887Y-86916493D02*
X33238887Y-87916493D01*
X33238887Y-87059350D02*
X33310315Y-86987922D01*
X33453172Y-86916493D01*
X33667458Y-86916493D01*
X33810315Y-86987922D01*
X33881744Y-87130779D01*
X33881744Y-87916493D01*
X35667458Y-87845064D02*
X35881744Y-87916493D01*
X36238887Y-87916493D01*
X36381744Y-87845064D01*
X36453172Y-87773636D01*
X36524601Y-87630779D01*
X36524601Y-87487922D01*
X36453172Y-87345064D01*
X36381744Y-87273636D01*
X36238887Y-87202207D01*
X35953172Y-87130779D01*
X35810315Y-87059350D01*
X35738887Y-86987922D01*
X35667458Y-86845064D01*
X35667458Y-86702207D01*
X35738887Y-86559350D01*
X35810315Y-86487922D01*
X35953172Y-86416493D01*
X36310315Y-86416493D01*
X36524601Y-86487922D01*
X37167458Y-87916493D02*
X37167458Y-86416493D01*
X37810315Y-87916493D02*
X37810315Y-87130779D01*
X37738887Y-86987922D01*
X37596030Y-86916493D01*
X37381744Y-86916493D01*
X37238887Y-86987922D01*
X37167458Y-87059350D01*
X39167458Y-87916493D02*
X39167458Y-87130779D01*
X39096030Y-86987922D01*
X38953172Y-86916493D01*
X38667458Y-86916493D01*
X38524601Y-86987922D01*
X39167458Y-87845064D02*
X39024601Y-87916493D01*
X38667458Y-87916493D01*
X38524601Y-87845064D01*
X38453172Y-87702207D01*
X38453172Y-87559350D01*
X38524601Y-87416493D01*
X38667458Y-87345064D01*
X39024601Y-87345064D01*
X39167458Y-87273636D01*
X39738887Y-86916493D02*
X40024601Y-87916493D01*
X40310315Y-87202207D01*
X40596030Y-87916493D01*
X40881744Y-86916493D01*
X17846030Y-89545779D02*
X17346030Y-89545779D01*
X17346030Y-90331493D02*
X17346030Y-88831493D01*
X18060315Y-88831493D01*
X18846030Y-90331493D02*
X18703172Y-90260064D01*
X18631744Y-90188636D01*
X18560315Y-90045779D01*
X18560315Y-89617207D01*
X18631744Y-89474350D01*
X18703172Y-89402922D01*
X18846030Y-89331493D01*
X19060315Y-89331493D01*
X19203173Y-89402922D01*
X19274601Y-89474350D01*
X19346030Y-89617207D01*
X19346030Y-90045779D01*
X19274601Y-90188636D01*
X19203173Y-90260064D01*
X19060315Y-90331493D01*
X18846030Y-90331493D01*
X19988887Y-90331493D02*
X19988887Y-89331493D01*
X19988887Y-89617207D02*
X20060315Y-89474350D01*
X20131744Y-89402922D01*
X20274601Y-89331493D01*
X20417458Y-89331493D01*
X22060315Y-89545779D02*
X22560315Y-89545779D01*
X22774601Y-90331493D02*
X22060315Y-90331493D01*
X22060315Y-88831493D01*
X22774601Y-88831493D01*
X23346030Y-90260064D02*
X23560315Y-90331493D01*
X23917458Y-90331493D01*
X24060315Y-90260064D01*
X24131744Y-90188636D01*
X24203173Y-90045779D01*
X24203173Y-89902922D01*
X24131744Y-89760064D01*
X24060315Y-89688636D01*
X23917458Y-89617207D01*
X23631744Y-89545779D01*
X23488887Y-89474350D01*
X23417458Y-89402922D01*
X23346030Y-89260064D01*
X23346030Y-89117207D01*
X23417458Y-88974350D01*
X23488887Y-88902922D01*
X23631744Y-88831493D01*
X23988887Y-88831493D01*
X24203173Y-88902922D01*
X24846030Y-89545779D02*
X25346030Y-89545779D01*
X25560315Y-90331493D02*
X24846030Y-90331493D01*
X24846030Y-88831493D01*
X25560315Y-88831493D01*
X27988887Y-89331493D02*
X27988887Y-90545779D01*
X27917458Y-90688636D01*
X27846030Y-90760064D01*
X27703173Y-90831493D01*
X27488887Y-90831493D01*
X27346030Y-90760064D01*
X27988887Y-90260064D02*
X27846030Y-90331493D01*
X27560315Y-90331493D01*
X27417458Y-90260064D01*
X27346030Y-90188636D01*
X27274601Y-90045779D01*
X27274601Y-89617207D01*
X27346030Y-89474350D01*
X27417458Y-89402922D01*
X27560315Y-89331493D01*
X27846030Y-89331493D01*
X27988887Y-89402922D01*
X28703172Y-90331493D02*
X28703172Y-89331493D01*
X28703172Y-89617207D02*
X28774601Y-89474350D01*
X28846030Y-89402922D01*
X28988887Y-89331493D01*
X29131744Y-89331493D01*
X29846030Y-90331493D02*
X29703173Y-90260064D01*
X29631744Y-90188636D01*
X29560315Y-90045779D01*
X29560315Y-89617207D01*
X29631744Y-89474350D01*
X29703173Y-89402922D01*
X29846030Y-89331493D01*
X30060315Y-89331493D01*
X30203173Y-89402922D01*
X30274601Y-89474350D01*
X30346030Y-89617207D01*
X30346030Y-90045779D01*
X30274601Y-90188636D01*
X30203173Y-90260064D01*
X30060315Y-90331493D01*
X29846030Y-90331493D01*
X31631744Y-89331493D02*
X31631744Y-90331493D01*
X30988887Y-89331493D02*
X30988887Y-90117207D01*
X31060315Y-90260064D01*
X31203172Y-90331493D01*
X31417458Y-90331493D01*
X31560315Y-90260064D01*
X31631744Y-90188636D01*
X32346030Y-89331493D02*
X32346030Y-90831493D01*
X32346030Y-89402922D02*
X32488887Y-89331493D01*
X32774601Y-89331493D01*
X32917458Y-89402922D01*
X32988887Y-89474350D01*
X33060315Y-89617207D01*
X33060315Y-90045779D01*
X32988887Y-90188636D01*
X32917458Y-90260064D01*
X32774601Y-90331493D01*
X32488887Y-90331493D01*
X32346030Y-90260064D01*
X34846030Y-90331493D02*
X34846030Y-88831493D01*
X36417458Y-90188636D02*
X36346030Y-90260064D01*
X36131744Y-90331493D01*
X35988887Y-90331493D01*
X35774601Y-90260064D01*
X35631744Y-90117207D01*
X35560315Y-89974350D01*
X35488887Y-89688636D01*
X35488887Y-89474350D01*
X35560315Y-89188636D01*
X35631744Y-89045779D01*
X35774601Y-88902922D01*
X35988887Y-88831493D01*
X36131744Y-88831493D01*
X36346030Y-88902922D01*
X36417458Y-88974350D01*
X37774601Y-90331493D02*
X37060315Y-90331493D01*
X37060315Y-88831493D01*
X22310315Y-92317922D02*
X23024601Y-92317922D01*
X22167458Y-92746493D02*
X22667458Y-91246493D01*
X23167458Y-92746493D01*
X24310315Y-91746493D02*
X24310315Y-92746493D01*
X23667458Y-91746493D02*
X23667458Y-92532207D01*
X23738887Y-92675064D01*
X23881744Y-92746493D01*
X24096030Y-92746493D01*
X24238887Y-92675064D01*
X24310315Y-92603636D01*
X25667458Y-91746493D02*
X25667458Y-92960779D01*
X25596030Y-93103636D01*
X25524601Y-93175064D01*
X25381744Y-93246493D01*
X25167458Y-93246493D01*
X25024601Y-93175064D01*
X25667458Y-92675064D02*
X25524601Y-92746493D01*
X25238887Y-92746493D01*
X25096030Y-92675064D01*
X25024601Y-92603636D01*
X24953173Y-92460779D01*
X24953173Y-92032207D01*
X25024601Y-91889350D01*
X25096030Y-91817922D01*
X25238887Y-91746493D01*
X25524601Y-91746493D01*
X25667458Y-91817922D01*
X27453173Y-91389350D02*
X27524601Y-91317922D01*
X27667458Y-91246493D01*
X28024601Y-91246493D01*
X28167458Y-91317922D01*
X28238887Y-91389350D01*
X28310315Y-91532207D01*
X28310315Y-91675064D01*
X28238887Y-91889350D01*
X27381744Y-92746493D01*
X28310315Y-92746493D01*
X29238887Y-91246493D02*
X29381744Y-91246493D01*
X29524601Y-91317922D01*
X29596030Y-91389350D01*
X29667458Y-91532207D01*
X29738887Y-91817922D01*
X29738887Y-92175064D01*
X29667458Y-92460779D01*
X29596030Y-92603636D01*
X29524601Y-92675064D01*
X29381744Y-92746493D01*
X29238887Y-92746493D01*
X29096030Y-92675064D01*
X29024601Y-92603636D01*
X28953173Y-92460779D01*
X28881744Y-92175064D01*
X28881744Y-91817922D01*
X28953173Y-91532207D01*
X29024601Y-91389350D01*
X29096030Y-91317922D01*
X29238887Y-91246493D01*
X30310315Y-91389350D02*
X30381744Y-91317922D01*
X30524601Y-91246493D01*
X30881744Y-91246493D01*
X31024601Y-91317922D01*
X31096030Y-91389350D01*
X31167458Y-91532207D01*
X31167458Y-91675064D01*
X31096030Y-91889350D01*
X30238887Y-92746493D01*
X31167458Y-92746493D01*
X31667458Y-91246493D02*
X32596030Y-91246493D01*
X32096030Y-91817922D01*
X32310315Y-91817922D01*
X32453173Y-91889350D01*
X32524601Y-91960779D01*
X32596030Y-92103636D01*
X32596030Y-92460779D01*
X32524601Y-92603636D01*
X32453173Y-92675064D01*
X32310315Y-92746493D01*
X31881744Y-92746493D01*
X31738887Y-92675064D01*
X31667458Y-92603636D01*
D11*
X33283351Y-70043685D02*
X33513083Y-70391797D01*
X21070197Y-71014220D02*
X21203235Y-70761473D01*
X22291211Y-69193535D02*
X22469023Y-68998300D01*
X34916999Y-76692891D02*
X34874456Y-77140874D01*
X32498023Y-82470470D02*
X32215726Y-82767351D01*
X25241983Y-84406950D02*
X24896419Y-84274457D01*
X28153085Y-66818723D02*
X28536652Y-66869455D01*
X33036601Y-69704947D02*
X33283351Y-70043685D01*
X20051744Y-74343642D02*
X20094174Y-74050493D01*
X33368009Y-74297094D02*
X33327697Y-74062410D01*
X22422212Y-79898555D02*
X22593329Y-80187883D01*
X32132355Y-71120588D02*
X32006466Y-70942368D01*
X29770625Y-82564426D02*
X29952975Y-82470016D01*
X20499868Y-79281956D02*
X20372239Y-78883113D01*
X25669973Y-67007772D02*
X25905000Y-66946849D01*
X20942755Y-71274156D02*
X21070197Y-71014220D01*
X34534114Y-78843624D02*
X34406486Y-79247016D01*
X27429060Y-83108228D02*
X27635006Y-83104451D01*
X30133358Y-82368052D02*
X30311775Y-82258535D01*
X34942524Y-75300216D02*
X34951033Y-75770173D01*
X21635045Y-73886151D02*
X21588533Y-74121334D01*
X34942524Y-76235991D02*
X34916999Y-76692891D01*
X29988479Y-67275305D02*
X30330827Y-67427499D01*
X27635006Y-83104451D02*
X27838985Y-83093122D01*
X21180557Y-80791791D02*
X20984859Y-80427163D01*
X32955578Y-78855354D02*
X33033103Y-78635504D01*
X29369773Y-68842139D02*
X29181827Y-68768658D01*
X28829385Y-82923185D02*
X29021566Y-82866539D01*
X33169547Y-73376924D02*
X33104426Y-73154616D01*
X31155598Y-81613677D02*
X31310151Y-81467853D01*
X22666053Y-71317101D02*
X22549879Y-71507968D01*
X22133513Y-82164765D02*
X22133513Y-82164765D01*
X30691931Y-83944635D02*
X30364710Y-84118668D01*
X34951033Y-75770173D02*
X34942524Y-76235991D01*
X29586310Y-82651284D02*
X29770625Y-82564426D01*
X30330827Y-67427499D02*
X30664930Y-67599985D01*
X34951033Y-75770173D02*
X34951033Y-75770173D01*
X30990790Y-67792764D02*
X31308406Y-68005836D01*
X30030001Y-84272227D02*
X29687804Y-84405311D01*
X30664930Y-67599985D02*
X30990790Y-67792764D01*
X22230398Y-72112784D02*
X22230398Y-72112784D01*
X32685789Y-79497434D02*
X32685789Y-79497434D01*
X28635238Y-82972278D02*
X28829385Y-82923185D01*
X33451735Y-76525813D02*
X33467239Y-76276843D01*
X25892216Y-68702921D02*
X25705896Y-68768666D01*
X27085525Y-84763661D02*
X26701387Y-84733086D01*
X19990028Y-74938402D02*
X20017029Y-74639612D01*
X24867628Y-82444855D02*
X25129845Y-82584081D01*
X22332052Y-71905810D02*
X22230398Y-72112784D01*
X32368931Y-71492588D02*
X32253176Y-71303994D01*
X34814896Y-77579938D02*
X34738319Y-78010084D01*
X21635930Y-70046366D02*
X21791355Y-69822375D01*
X33402120Y-77015017D02*
X33430028Y-76771871D01*
X33725799Y-80771409D02*
X33513083Y-81130212D01*
X19989348Y-76760588D02*
X19963822Y-76310421D01*
X22134274Y-72323946D02*
X22044352Y-72538109D01*
X30831743Y-81888673D02*
X30996128Y-81753951D01*
X34874456Y-74388419D02*
X34916999Y-74839631D01*
X32772833Y-69375581D02*
X32772833Y-69375581D01*
X30364710Y-84118668D02*
X30030001Y-84272227D01*
X22787067Y-71131602D02*
X22666053Y-71317101D01*
X33283351Y-81480098D02*
X33036601Y-81821065D01*
X30488226Y-82141465D02*
X30662442Y-82017845D01*
X21588533Y-74121334D02*
X21548222Y-74359521D01*
X26079822Y-68644910D02*
X25892216Y-68702921D01*
X21623001Y-81495386D02*
X21393271Y-81147865D01*
X23874728Y-81724153D02*
X24114558Y-81928898D01*
X33451735Y-75019708D02*
X33430028Y-74775743D01*
X32134241Y-80476341D02*
X32254383Y-80291662D01*
X27429060Y-68455401D02*
X27429060Y-68455401D01*
X21203235Y-70761473D02*
X21341870Y-70515915D01*
X22593329Y-80187883D02*
X22778135Y-80469840D01*
X31598395Y-70438831D02*
X31452236Y-70281359D01*
X25520862Y-68842147D02*
X25337114Y-68923362D01*
X29279053Y-67031795D02*
X29637888Y-67143404D01*
X21464498Y-75092098D02*
X21448994Y-75342296D01*
X32781921Y-79286319D02*
X32871851Y-79072293D01*
X20091452Y-77635260D02*
X20031891Y-77202201D01*
X26524879Y-83034520D02*
X26820676Y-83075469D01*
X26324964Y-84682127D02*
X25956256Y-84610785D01*
X22409642Y-82480710D02*
X22133513Y-82164765D01*
X22976632Y-80744426D02*
X23188818Y-81011642D01*
X29338119Y-84517921D02*
X28980947Y-84610056D01*
X33228466Y-73602325D02*
X33169547Y-73376924D01*
X27761274Y-66788284D02*
X28153085Y-66818723D01*
X21439691Y-75595497D02*
X21436590Y-75851701D01*
X31918908Y-68492856D02*
X32211793Y-68766805D01*
X29211780Y-82802340D02*
X29400028Y-82730589D01*
X30468863Y-69445453D02*
X30289084Y-69325563D01*
X24896419Y-84274457D02*
X24558570Y-84121581D01*
X33476542Y-76024961D02*
X33479643Y-75770167D01*
X20017029Y-74639612D02*
X20051744Y-74343642D01*
X27828093Y-68470871D02*
X27629257Y-68459269D01*
X31739486Y-70601490D02*
X31598395Y-70438831D01*
X29021566Y-82866539D02*
X29211780Y-82802340D01*
X23464740Y-70284640D02*
X23319525Y-70443295D01*
X32685789Y-72089490D02*
X32585237Y-71885336D01*
D10*
G36*
X21481659Y-81280821D02*
G01*
X21481657Y-81280824D01*
X21481657Y-81280818D01*
X21481659Y-81280821D01*
G37*
X21481659Y-81280821D02*
X21481657Y-81280824D01*
X21481657Y-81280818D01*
X21481659Y-81280821D01*
D11*
X34261840Y-71877972D02*
X34406486Y-72272948D01*
X24978050Y-67246778D02*
X25206498Y-67157736D01*
X23236238Y-68289246D02*
X23442033Y-68129954D01*
X33479643Y-75770167D02*
X33476542Y-75516921D01*
X20094174Y-74050493D02*
X20144318Y-73760165D01*
X24558570Y-84121581D02*
X24228436Y-83948322D01*
X31308406Y-68005836D02*
X31617779Y-68239200D01*
X23442033Y-68129954D02*
X23653425Y-67977851D01*
X26142221Y-66895298D02*
X26381634Y-66853121D01*
X24305867Y-67570138D02*
X24527735Y-67452978D01*
X26820676Y-83075469D02*
X27122070Y-83100038D01*
X20202176Y-73472658D02*
X20267749Y-73187972D01*
X23640495Y-81503029D02*
X23874728Y-81724153D01*
X26458890Y-68552092D02*
X26268713Y-68594634D01*
X25206498Y-67157736D02*
X25437139Y-67078068D01*
X30645427Y-69571803D02*
X30468863Y-69445453D01*
X32585312Y-79704317D02*
X32685789Y-79497434D01*
X24611008Y-82289249D02*
X24867628Y-82444855D01*
X22841437Y-68629395D02*
X23036039Y-68455726D01*
X21514112Y-74600710D02*
X21486204Y-74844902D01*
X20267749Y-73187972D02*
X20341036Y-72906107D01*
X25705896Y-68768666D02*
X25520862Y-68842147D01*
X27864502Y-84763615D02*
X27477377Y-84773852D01*
X34814896Y-73946579D02*
X34874456Y-74388419D01*
X26268713Y-68594634D02*
X26079822Y-68644910D01*
X28616286Y-84681717D02*
X28244138Y-84732903D01*
X24614983Y-69325570D02*
X24437666Y-69445458D01*
X27113034Y-66782825D02*
X27361219Y-66778138D01*
X33479643Y-75770167D02*
X33479643Y-75770167D01*
X21960630Y-72755276D02*
X21883110Y-72975445D01*
X32685789Y-72089490D02*
X32685789Y-72089490D01*
X33033103Y-78635504D02*
X33104426Y-78412741D01*
X25129845Y-82584081D02*
X25397658Y-82706928D01*
X20372239Y-78883113D02*
X20261626Y-78475715D01*
X27361219Y-66778138D02*
X27361219Y-66778138D01*
X28992520Y-68702913D02*
X28801852Y-68644902D01*
X23188818Y-81011642D02*
X23188818Y-81011642D01*
X25595262Y-84519059D02*
X25241983Y-84406950D01*
X34100177Y-71492369D02*
X34261840Y-71877972D01*
X31301009Y-70129074D02*
X31144715Y-69981976D01*
X23043616Y-70776711D02*
X22912922Y-70951472D01*
X29952975Y-82470016D02*
X30133358Y-82368052D01*
X28241044Y-83047806D02*
X28439124Y-83013819D01*
X21486204Y-74844902D02*
X21464498Y-75092098D01*
X30816924Y-69703341D02*
X30645427Y-69571803D01*
X27629257Y-68459269D02*
X27429060Y-68455401D01*
X24114558Y-81928898D02*
X24359985Y-82117263D01*
X22778135Y-80469840D02*
X22976632Y-80744426D01*
X33476542Y-75516921D02*
X33467239Y-75266768D01*
X23906016Y-83754679D02*
X23591311Y-83540652D01*
X20984859Y-80427163D02*
X20806179Y-80053981D01*
X21952377Y-69605573D02*
X22118996Y-69395960D01*
X22118996Y-69395960D02*
X22291211Y-69193535D01*
X24751796Y-67345192D02*
X24978050Y-67246778D01*
X26867041Y-66796884D02*
X27113034Y-66782825D01*
X22438545Y-71704205D02*
X22332052Y-71905810D01*
X21498191Y-76962920D02*
X21546102Y-77318585D01*
X33725799Y-70749281D02*
X33921496Y-71116139D01*
X29637888Y-67143404D02*
X29988479Y-67275305D01*
X33036601Y-81821065D02*
X32772833Y-82153115D01*
X32215726Y-82767351D02*
X31925942Y-83043756D01*
X20341036Y-72906107D02*
X20422037Y-72627063D01*
X29181827Y-68768658D02*
X28992520Y-68702913D01*
X32871851Y-72506258D02*
X32781921Y-72296327D01*
X21486102Y-70277546D02*
X21635930Y-70046366D01*
X26623241Y-66820316D02*
X26867041Y-66796884D01*
X27361219Y-66778138D02*
X27761274Y-66788284D01*
X34100177Y-80027048D02*
X33921496Y-80403687D01*
X28801852Y-68644902D02*
X28609823Y-68594626D01*
X33228466Y-77958481D02*
X33281182Y-77726983D01*
X19955313Y-75851701D02*
X19955313Y-75851701D01*
X25337114Y-68923362D02*
X25154652Y-69012312D01*
X29687804Y-84405311D02*
X29338119Y-84517921D01*
X21771973Y-78341355D02*
X21874642Y-78667536D01*
X22652432Y-68810253D02*
X22841437Y-68629395D01*
X30107943Y-69213408D02*
X29925442Y-69108989D01*
X19963822Y-76310421D02*
X19955313Y-75851701D01*
X28025568Y-68490208D02*
X27828093Y-68470871D01*
X20510752Y-72350840D02*
X20607182Y-72077437D01*
X20823183Y-71539095D02*
X20942755Y-71274156D01*
X27232455Y-68459275D02*
X27037136Y-68470877D01*
X21791355Y-69822375D02*
X21952377Y-69605573D01*
X21448994Y-75342296D02*
X21439691Y-75595497D01*
X20644515Y-79672245D02*
X20499868Y-79281956D01*
X21687759Y-73653970D02*
X21635045Y-73886151D01*
X34261840Y-79641491D02*
X34100177Y-80027048D01*
X31310151Y-81467853D02*
X31459789Y-81316478D01*
X33104426Y-73154616D02*
X33033103Y-72935403D01*
X34534114Y-72677297D02*
X34644725Y-73091018D01*
X33402120Y-74534872D02*
X33368009Y-74297094D01*
X21869749Y-81834352D02*
X21623001Y-81495386D01*
X24437666Y-69445458D02*
X24437666Y-69445458D01*
X22693487Y-82776271D02*
X22409642Y-82480710D01*
X21443435Y-76229478D02*
X21463968Y-76599885D01*
X33513083Y-81130212D02*
X33283351Y-81480098D01*
X33430028Y-76771871D02*
X33451735Y-76525813D01*
X28221681Y-68517279D02*
X28025568Y-68490208D01*
X23591311Y-83540652D02*
X23284322Y-83306242D01*
X28609823Y-68594626D02*
X28416433Y-68552085D01*
X32772833Y-82153115D02*
X32772833Y-82153115D01*
X33281182Y-77726983D02*
X33327697Y-77492573D01*
X31879209Y-80829049D02*
X32009183Y-80655471D01*
X24086193Y-67696669D02*
X24305867Y-67570138D01*
X33327697Y-77492573D02*
X33368009Y-77255251D01*
X30983354Y-69840065D02*
X30816924Y-69703341D01*
X25905000Y-66946849D02*
X26142221Y-66895298D01*
X20261626Y-78475715D02*
X20168031Y-78059764D01*
X27429060Y-68455407D02*
X27232455Y-68459275D01*
X24793586Y-69213416D02*
X24614983Y-69325570D01*
X27361219Y-66778138D02*
X27361219Y-66778138D01*
X24359985Y-82117263D02*
X24611008Y-82289249D01*
X32009183Y-80655471D02*
X32134241Y-80476341D01*
X21436590Y-75851701D02*
X21436590Y-75851701D01*
X25950075Y-82903483D02*
X26234679Y-82977191D01*
X29400028Y-82730589D02*
X29586310Y-82651284D01*
X19955313Y-75851701D02*
X19959170Y-75544447D01*
X22121048Y-79297787D02*
X22264785Y-79601856D01*
X28244138Y-84732903D02*
X27864502Y-84763615D01*
X21463968Y-76599885D02*
X21498191Y-76962920D01*
X21682993Y-78007802D02*
X21771973Y-78341355D01*
X23653425Y-67977851D02*
X23653425Y-67977851D01*
D10*
G36*
X27710127Y-66784844D02*
G01*
X28039096Y-66807635D01*
X28203564Y-66824282D01*
X28367831Y-66844543D01*
X28531755Y-66868503D01*
X28695193Y-66896246D01*
X28858003Y-66927858D01*
X29020043Y-66963424D01*
X29181171Y-67003027D01*
X29341243Y-67046753D01*
X29500117Y-67094687D01*
X29657652Y-67146914D01*
X29813704Y-67203517D01*
X29968132Y-67264583D01*
X30120793Y-67330195D01*
X30271544Y-67400439D01*
X30425281Y-67475652D01*
X30581379Y-67556690D01*
X30739583Y-67643907D01*
X30899643Y-67737660D01*
X31061304Y-67838305D01*
X31224316Y-67946198D01*
X31388425Y-68061694D01*
X31553379Y-68185150D01*
X31718926Y-68316921D01*
X31884814Y-68457364D01*
X32050789Y-68606834D01*
X32216600Y-68765687D01*
X32381994Y-68934279D01*
X32546719Y-69112967D01*
X32710523Y-69302105D01*
X32873152Y-69502050D01*
X31771933Y-70643821D01*
X31634655Y-70482678D01*
X31493576Y-70327745D01*
X31349306Y-70179151D01*
X31202454Y-70037027D01*
X31053629Y-69901503D01*
X30903440Y-69772708D01*
X30752495Y-69650774D01*
X30601405Y-69535830D01*
X30450778Y-69428007D01*
X30301224Y-69327434D01*
X30153350Y-69234243D01*
X30007768Y-69148562D01*
X29865085Y-69070523D01*
X29725910Y-69000255D01*
X29590853Y-68937888D01*
X29460524Y-68883554D01*
X29363066Y-68837972D01*
X29263555Y-68795809D01*
X29162133Y-68756933D01*
X29058942Y-68721214D01*
X28954125Y-68688524D01*
X28847823Y-68658731D01*
X28740179Y-68631707D01*
X28631336Y-68607320D01*
X28521436Y-68585441D01*
X28410620Y-68565940D01*
X28186813Y-68533552D01*
X27961054Y-68509116D01*
X27734480Y-68491593D01*
X27588352Y-68486527D01*
X27444162Y-68489765D01*
X27302104Y-68500907D01*
X27162372Y-68519551D01*
X27025160Y-68545296D01*
X26890662Y-68577740D01*
X26759071Y-68616484D01*
X26630583Y-68661124D01*
X26505390Y-68711261D01*
X26383688Y-68766493D01*
X26265669Y-68826418D01*
X26151528Y-68890636D01*
X26041459Y-68958746D01*
X25935656Y-69030345D01*
X25834313Y-69105034D01*
X25737623Y-69182410D01*
X25647891Y-69262113D01*
X25563982Y-69344050D01*
X25485891Y-69428227D01*
X25413614Y-69514649D01*
X25347146Y-69603322D01*
X25286483Y-69694252D01*
X25231619Y-69787445D01*
X25182551Y-69882906D01*
X25139272Y-69980641D01*
X25101780Y-70080656D01*
X25070068Y-70182956D01*
X25044133Y-70287547D01*
X25023969Y-70394435D01*
X25009572Y-70503625D01*
X25000937Y-70615124D01*
X24998060Y-70728936D01*
X24999094Y-70798655D01*
X25002196Y-70868101D01*
X25007366Y-70937275D01*
X25014604Y-71006175D01*
X25023910Y-71074802D01*
X25035284Y-71143157D01*
X25048726Y-71211239D01*
X25064236Y-71279047D01*
X25081814Y-71346583D01*
X25101459Y-71413846D01*
X25123173Y-71480837D01*
X25146955Y-71547554D01*
X25172805Y-71613999D01*
X25200723Y-71680171D01*
X25230708Y-71746070D01*
X25262762Y-71811696D01*
X25297556Y-71877549D01*
X25335762Y-71944129D01*
X25377381Y-72011438D01*
X25422411Y-72079474D01*
X25470854Y-72148238D01*
X25522709Y-72217729D01*
X25577976Y-72287948D01*
X25636655Y-72358895D01*
X25698746Y-72430570D01*
X25764249Y-72502972D01*
X25833164Y-72576102D01*
X25905491Y-72649960D01*
X25981230Y-72724545D01*
X26060381Y-72799858D01*
X26142944Y-72875898D01*
X26228918Y-72952666D01*
X26352173Y-73050719D01*
X26530022Y-73181880D01*
X26762463Y-73346150D01*
X27049500Y-73543529D01*
X27391130Y-73774016D01*
X27787357Y-74037612D01*
X28238179Y-74334317D01*
X28743597Y-74664130D01*
X29350760Y-75068891D01*
X29908290Y-75462373D01*
X30416188Y-75844576D01*
X30874453Y-76215501D01*
X31084973Y-76396734D01*
X31283086Y-76575148D01*
X31468791Y-76750741D01*
X31642089Y-76923515D01*
X31802979Y-77093470D01*
X31951461Y-77260604D01*
X32087535Y-77424919D01*
X32211203Y-77586413D01*
X32324991Y-77746544D01*
X32431439Y-77906765D01*
X32530545Y-78067078D01*
X32622310Y-78227482D01*
X32706734Y-78387976D01*
X32783817Y-78548562D01*
X32853558Y-78709239D01*
X32915958Y-78870006D01*
X32971018Y-79030865D01*
X33018735Y-79191815D01*
X33059112Y-79352855D01*
X33092147Y-79513987D01*
X33117842Y-79675210D01*
X33136195Y-79836523D01*
X33147206Y-79997928D01*
X33150877Y-80159423D01*
X33144570Y-80390365D01*
X33125648Y-80617487D01*
X33094112Y-80840788D01*
X33049961Y-81060269D01*
X32993196Y-81275930D01*
X32923816Y-81487770D01*
X32841822Y-81695790D01*
X32747212Y-81899990D01*
X32639989Y-82100370D01*
X32520150Y-82296929D01*
X32387697Y-82489668D01*
X32242629Y-82678588D01*
X32084946Y-82863687D01*
X31914648Y-83044966D01*
X31731735Y-83222425D01*
X31536207Y-83396064D01*
X31320308Y-83548012D01*
X31103961Y-83692271D01*
X30886460Y-83828601D01*
X30667095Y-83956762D01*
X30445160Y-84076512D01*
X30219947Y-84187611D01*
X29990749Y-84289819D01*
X29756857Y-84382895D01*
X29517564Y-84466598D01*
X29272163Y-84540689D01*
X29019946Y-84604925D01*
X28760205Y-84659067D01*
X28492232Y-84702875D01*
X28215320Y-84736106D01*
X27928762Y-84758522D01*
X27631849Y-84769881D01*
X27401424Y-84771054D01*
X27175243Y-84765758D01*
X26953155Y-84754046D01*
X26735010Y-84735972D01*
X26520657Y-84711588D01*
X26309947Y-84680947D01*
X26102728Y-84644103D01*
X25898851Y-84601109D01*
X25698164Y-84552017D01*
X25500518Y-84496880D01*
X25305763Y-84435752D01*
X25113748Y-84368685D01*
X24924322Y-84295733D01*
X24737335Y-84216949D01*
X24552637Y-84132385D01*
X24370077Y-84042094D01*
X24188067Y-83933315D01*
X24003136Y-83816480D01*
X23815951Y-83691492D01*
X23627181Y-83558254D01*
X23437494Y-83416671D01*
X23247560Y-83266645D01*
X23058047Y-83108080D01*
X22869622Y-82940880D01*
X22682956Y-82764948D01*
X22498715Y-82580187D01*
X22317569Y-82386502D01*
X22140186Y-82183794D01*
X21967235Y-81971969D01*
X21799384Y-81750929D01*
X21637302Y-81520577D01*
X21481659Y-81280821D01*
X22571295Y-80154365D01*
X22696709Y-80353023D01*
X22825736Y-80544075D01*
X22958188Y-80727593D01*
X23093879Y-80903653D01*
X23232620Y-81072327D01*
X23374225Y-81233691D01*
X23518505Y-81387817D01*
X23665273Y-81534779D01*
X23814341Y-81674652D01*
X23965523Y-81807510D01*
X24273475Y-82052473D01*
X24587629Y-82270261D01*
X24906485Y-82461465D01*
X25228542Y-82626675D01*
X25552300Y-82766483D01*
X25876260Y-82881481D01*
X26198920Y-82972258D01*
X26518782Y-83039407D01*
X26834344Y-83083519D01*
X27144107Y-83105184D01*
X27446570Y-83104995D01*
X27689465Y-83091951D01*
X27928687Y-83070176D01*
X28046916Y-83055752D01*
X28164223Y-83038830D01*
X28280606Y-83019306D01*
X28396063Y-82997074D01*
X28510593Y-82972030D01*
X28624195Y-82944068D01*
X28736867Y-82913083D01*
X28848607Y-82878972D01*
X28959416Y-82841627D01*
X29069290Y-82800945D01*
X29178228Y-82756821D01*
X29286230Y-82709149D01*
X29392165Y-82657167D01*
X29494893Y-82603093D01*
X29594416Y-82546927D01*
X29690733Y-82488669D01*
X29783845Y-82428318D01*
X29873751Y-82365876D01*
X29960451Y-82301342D01*
X30043946Y-82234715D01*
X30124236Y-82165997D01*
X30201320Y-82095186D01*
X30275198Y-82022284D01*
X30345871Y-81947289D01*
X30413339Y-81870202D01*
X30477601Y-81791024D01*
X30538658Y-81709753D01*
X30596510Y-81626390D01*
X30651001Y-81541662D01*
X30701978Y-81456298D01*
X30749438Y-81370297D01*
X30793384Y-81283660D01*
X30833814Y-81196386D01*
X30870728Y-81108475D01*
X30904127Y-81019928D01*
X30934011Y-80930744D01*
X30960378Y-80840923D01*
X30983231Y-80750466D01*
X31002567Y-80659372D01*
X31018388Y-80567641D01*
X31030693Y-80475273D01*
X31039483Y-80382269D01*
X31044757Y-80288628D01*
X31046515Y-80194350D01*
X31043929Y-80086793D01*
X31036174Y-79979508D01*
X31023249Y-79872497D01*
X31005153Y-79765758D01*
X30981887Y-79659292D01*
X30953452Y-79553099D01*
X30919846Y-79447179D01*
X30881070Y-79341532D01*
X30837125Y-79236157D01*
X30788009Y-79131056D01*
X30733723Y-79026227D01*
X30674268Y-78921671D01*
X30609643Y-78817388D01*
X30539848Y-78713377D01*
X30464883Y-78609640D01*
X30384749Y-78506175D01*
X30264704Y-78361735D01*
X30132871Y-78213657D01*
X29989250Y-78061941D01*
X29833841Y-77906586D01*
X29666644Y-77747592D01*
X29487659Y-77584960D01*
X29296887Y-77418690D01*
X29094327Y-77248781D01*
X28879980Y-77075234D01*
X28653845Y-76898049D01*
X28415922Y-76717225D01*
X28166213Y-76532762D01*
X27904716Y-76344662D01*
X27631433Y-76152922D01*
X27346363Y-75957545D01*
X27049505Y-75758529D01*
X26469436Y-75367956D01*
X25946856Y-75005399D01*
X25481766Y-74670857D01*
X25074166Y-74364329D01*
X24724057Y-74085817D01*
X24431439Y-73835321D01*
X24196311Y-73612839D01*
X24100307Y-73512104D01*
X24018675Y-73418372D01*
X23893665Y-73266245D01*
X23776721Y-73112572D01*
X23667843Y-72957352D01*
X23567029Y-72800587D01*
X23474281Y-72642275D01*
X23389598Y-72482416D01*
X23312980Y-72321012D01*
X23244428Y-72158061D01*
X23183940Y-71993564D01*
X23131518Y-71827521D01*
X23087161Y-71659931D01*
X23050868Y-71490795D01*
X23022641Y-71320114D01*
X23002479Y-71147886D01*
X22990382Y-70974111D01*
X22986349Y-70798791D01*
X22988727Y-70659853D01*
X22995861Y-70522462D01*
X23007752Y-70386617D01*
X23024398Y-70252318D01*
X23045801Y-70119565D01*
X23071960Y-69988359D01*
X23102875Y-69858699D01*
X23138547Y-69730585D01*
X23178975Y-69604018D01*
X23224159Y-69478997D01*
X23274100Y-69355522D01*
X23328798Y-69233593D01*
X23388251Y-69113211D01*
X23452462Y-68994375D01*
X23521429Y-68877085D01*
X23595152Y-68761342D01*
X23673167Y-68647917D01*
X23755007Y-68537585D01*
X23840674Y-68430345D01*
X23930166Y-68326199D01*
X24023484Y-68225144D01*
X24120628Y-68127183D01*
X24221597Y-68032314D01*
X24326392Y-67940538D01*
X24435013Y-67851854D01*
X24547459Y-67766263D01*
X24663731Y-67683764D01*
X24783829Y-67604358D01*
X24907752Y-67528044D01*
X25035500Y-67454823D01*
X25167074Y-67384695D01*
X25302473Y-67317658D01*
X25442160Y-67252376D01*
X25583285Y-67190535D01*
X25725847Y-67132312D01*
X25869847Y-67077883D01*
X26015286Y-67027424D01*
X26162163Y-66981112D01*
X26310479Y-66939123D01*
X26460235Y-66901634D01*
X26611430Y-66868820D01*
X26764064Y-66840857D01*
X26918139Y-66817923D01*
X27073655Y-66800194D01*
X27230611Y-66787845D01*
X27389008Y-66781053D01*
X27548847Y-66779994D01*
X27710127Y-66784844D01*
G37*
X27710127Y-66784844D02*
X28039096Y-66807635D01*
X28203564Y-66824282D01*
X28367831Y-66844543D01*
X28531755Y-66868503D01*
X28695193Y-66896246D01*
X28858003Y-66927858D01*
X29020043Y-66963424D01*
X29181171Y-67003027D01*
X29341243Y-67046753D01*
X29500117Y-67094687D01*
X29657652Y-67146914D01*
X29813704Y-67203517D01*
X29968132Y-67264583D01*
X30120793Y-67330195D01*
X30271544Y-67400439D01*
X30425281Y-67475652D01*
X30581379Y-67556690D01*
X30739583Y-67643907D01*
X30899643Y-67737660D01*
X31061304Y-67838305D01*
X31224316Y-67946198D01*
X31388425Y-68061694D01*
X31553379Y-68185150D01*
X31718926Y-68316921D01*
X31884814Y-68457364D01*
X32050789Y-68606834D01*
X32216600Y-68765687D01*
X32381994Y-68934279D01*
X32546719Y-69112967D01*
X32710523Y-69302105D01*
X32873152Y-69502050D01*
X31771933Y-70643821D01*
X31634655Y-70482678D01*
X31493576Y-70327745D01*
X31349306Y-70179151D01*
X31202454Y-70037027D01*
X31053629Y-69901503D01*
X30903440Y-69772708D01*
X30752495Y-69650774D01*
X30601405Y-69535830D01*
X30450778Y-69428007D01*
X30301224Y-69327434D01*
X30153350Y-69234243D01*
X30007768Y-69148562D01*
X29865085Y-69070523D01*
X29725910Y-69000255D01*
X29590853Y-68937888D01*
X29460524Y-68883554D01*
X29363066Y-68837972D01*
X29263555Y-68795809D01*
X29162133Y-68756933D01*
X29058942Y-68721214D01*
X28954125Y-68688524D01*
X28847823Y-68658731D01*
X28740179Y-68631707D01*
X28631336Y-68607320D01*
X28521436Y-68585441D01*
X28410620Y-68565940D01*
X28186813Y-68533552D01*
X27961054Y-68509116D01*
X27734480Y-68491593D01*
X27588352Y-68486527D01*
X27444162Y-68489765D01*
X27302104Y-68500907D01*
X27162372Y-68519551D01*
X27025160Y-68545296D01*
X26890662Y-68577740D01*
X26759071Y-68616484D01*
X26630583Y-68661124D01*
X26505390Y-68711261D01*
X26383688Y-68766493D01*
X26265669Y-68826418D01*
X26151528Y-68890636D01*
X26041459Y-68958746D01*
X25935656Y-69030345D01*
X25834313Y-69105034D01*
X25737623Y-69182410D01*
X25647891Y-69262113D01*
X25563982Y-69344050D01*
X25485891Y-69428227D01*
X25413614Y-69514649D01*
X25347146Y-69603322D01*
X25286483Y-69694252D01*
X25231619Y-69787445D01*
X25182551Y-69882906D01*
X25139272Y-69980641D01*
X25101780Y-70080656D01*
X25070068Y-70182956D01*
X25044133Y-70287547D01*
X25023969Y-70394435D01*
X25009572Y-70503625D01*
X25000937Y-70615124D01*
X24998060Y-70728936D01*
X24999094Y-70798655D01*
X25002196Y-70868101D01*
X25007366Y-70937275D01*
X25014604Y-71006175D01*
X25023910Y-71074802D01*
X25035284Y-71143157D01*
X25048726Y-71211239D01*
X25064236Y-71279047D01*
X25081814Y-71346583D01*
X25101459Y-71413846D01*
X25123173Y-71480837D01*
X25146955Y-71547554D01*
X25172805Y-71613999D01*
X25200723Y-71680171D01*
X25230708Y-71746070D01*
X25262762Y-71811696D01*
X25297556Y-71877549D01*
X25335762Y-71944129D01*
X25377381Y-72011438D01*
X25422411Y-72079474D01*
X25470854Y-72148238D01*
X25522709Y-72217729D01*
X25577976Y-72287948D01*
X25636655Y-72358895D01*
X25698746Y-72430570D01*
X25764249Y-72502972D01*
X25833164Y-72576102D01*
X25905491Y-72649960D01*
X25981230Y-72724545D01*
X26060381Y-72799858D01*
X26142944Y-72875898D01*
X26228918Y-72952666D01*
X26352173Y-73050719D01*
X26530022Y-73181880D01*
X26762463Y-73346150D01*
X27049500Y-73543529D01*
X27391130Y-73774016D01*
X27787357Y-74037612D01*
X28238179Y-74334317D01*
X28743597Y-74664130D01*
X29350760Y-75068891D01*
X29908290Y-75462373D01*
X30416188Y-75844576D01*
X30874453Y-76215501D01*
X31084973Y-76396734D01*
X31283086Y-76575148D01*
X31468791Y-76750741D01*
X31642089Y-76923515D01*
X31802979Y-77093470D01*
X31951461Y-77260604D01*
X32087535Y-77424919D01*
X32211203Y-77586413D01*
X32324991Y-77746544D01*
X32431439Y-77906765D01*
X32530545Y-78067078D01*
X32622310Y-78227482D01*
X32706734Y-78387976D01*
X32783817Y-78548562D01*
X32853558Y-78709239D01*
X32915958Y-78870006D01*
X32971018Y-79030865D01*
X33018735Y-79191815D01*
X33059112Y-79352855D01*
X33092147Y-79513987D01*
X33117842Y-79675210D01*
X33136195Y-79836523D01*
X33147206Y-79997928D01*
X33150877Y-80159423D01*
X33144570Y-80390365D01*
X33125648Y-80617487D01*
X33094112Y-80840788D01*
X33049961Y-81060269D01*
X32993196Y-81275930D01*
X32923816Y-81487770D01*
X32841822Y-81695790D01*
X32747212Y-81899990D01*
X32639989Y-82100370D01*
X32520150Y-82296929D01*
X32387697Y-82489668D01*
X32242629Y-82678588D01*
X32084946Y-82863687D01*
X31914648Y-83044966D01*
X31731735Y-83222425D01*
X31536207Y-83396064D01*
X31320308Y-83548012D01*
X31103961Y-83692271D01*
X30886460Y-83828601D01*
X30667095Y-83956762D01*
X30445160Y-84076512D01*
X30219947Y-84187611D01*
X29990749Y-84289819D01*
X29756857Y-84382895D01*
X29517564Y-84466598D01*
X29272163Y-84540689D01*
X29019946Y-84604925D01*
X28760205Y-84659067D01*
X28492232Y-84702875D01*
X28215320Y-84736106D01*
X27928762Y-84758522D01*
X27631849Y-84769881D01*
X27401424Y-84771054D01*
X27175243Y-84765758D01*
X26953155Y-84754046D01*
X26735010Y-84735972D01*
X26520657Y-84711588D01*
X26309947Y-84680947D01*
X26102728Y-84644103D01*
X25898851Y-84601109D01*
X25698164Y-84552017D01*
X25500518Y-84496880D01*
X25305763Y-84435752D01*
X25113748Y-84368685D01*
X24924322Y-84295733D01*
X24737335Y-84216949D01*
X24552637Y-84132385D01*
X24370077Y-84042094D01*
X24188067Y-83933315D01*
X24003136Y-83816480D01*
X23815951Y-83691492D01*
X23627181Y-83558254D01*
X23437494Y-83416671D01*
X23247560Y-83266645D01*
X23058047Y-83108080D01*
X22869622Y-82940880D01*
X22682956Y-82764948D01*
X22498715Y-82580187D01*
X22317569Y-82386502D01*
X22140186Y-82183794D01*
X21967235Y-81971969D01*
X21799384Y-81750929D01*
X21637302Y-81520577D01*
X21481659Y-81280821D01*
X22571295Y-80154365D01*
X22696709Y-80353023D01*
X22825736Y-80544075D01*
X22958188Y-80727593D01*
X23093879Y-80903653D01*
X23232620Y-81072327D01*
X23374225Y-81233691D01*
X23518505Y-81387817D01*
X23665273Y-81534779D01*
X23814341Y-81674652D01*
X23965523Y-81807510D01*
X24273475Y-82052473D01*
X24587629Y-82270261D01*
X24906485Y-82461465D01*
X25228542Y-82626675D01*
X25552300Y-82766483D01*
X25876260Y-82881481D01*
X26198920Y-82972258D01*
X26518782Y-83039407D01*
X26834344Y-83083519D01*
X27144107Y-83105184D01*
X27446570Y-83104995D01*
X27689465Y-83091951D01*
X27928687Y-83070176D01*
X28046916Y-83055752D01*
X28164223Y-83038830D01*
X28280606Y-83019306D01*
X28396063Y-82997074D01*
X28510593Y-82972030D01*
X28624195Y-82944068D01*
X28736867Y-82913083D01*
X28848607Y-82878972D01*
X28959416Y-82841627D01*
X29069290Y-82800945D01*
X29178228Y-82756821D01*
X29286230Y-82709149D01*
X29392165Y-82657167D01*
X29494893Y-82603093D01*
X29594416Y-82546927D01*
X29690733Y-82488669D01*
X29783845Y-82428318D01*
X29873751Y-82365876D01*
X29960451Y-82301342D01*
X30043946Y-82234715D01*
X30124236Y-82165997D01*
X30201320Y-82095186D01*
X30275198Y-82022284D01*
X30345871Y-81947289D01*
X30413339Y-81870202D01*
X30477601Y-81791024D01*
X30538658Y-81709753D01*
X30596510Y-81626390D01*
X30651001Y-81541662D01*
X30701978Y-81456298D01*
X30749438Y-81370297D01*
X30793384Y-81283660D01*
X30833814Y-81196386D01*
X30870728Y-81108475D01*
X30904127Y-81019928D01*
X30934011Y-80930744D01*
X30960378Y-80840923D01*
X30983231Y-80750466D01*
X31002567Y-80659372D01*
X31018388Y-80567641D01*
X31030693Y-80475273D01*
X31039483Y-80382269D01*
X31044757Y-80288628D01*
X31046515Y-80194350D01*
X31043929Y-80086793D01*
X31036174Y-79979508D01*
X31023249Y-79872497D01*
X31005153Y-79765758D01*
X30981887Y-79659292D01*
X30953452Y-79553099D01*
X30919846Y-79447179D01*
X30881070Y-79341532D01*
X30837125Y-79236157D01*
X30788009Y-79131056D01*
X30733723Y-79026227D01*
X30674268Y-78921671D01*
X30609643Y-78817388D01*
X30539848Y-78713377D01*
X30464883Y-78609640D01*
X30384749Y-78506175D01*
X30264704Y-78361735D01*
X30132871Y-78213657D01*
X29989250Y-78061941D01*
X29833841Y-77906586D01*
X29666644Y-77747592D01*
X29487659Y-77584960D01*
X29296887Y-77418690D01*
X29094327Y-77248781D01*
X28879980Y-77075234D01*
X28653845Y-76898049D01*
X28415922Y-76717225D01*
X28166213Y-76532762D01*
X27904716Y-76344662D01*
X27631433Y-76152922D01*
X27346363Y-75957545D01*
X27049505Y-75758529D01*
X26469436Y-75367956D01*
X25946856Y-75005399D01*
X25481766Y-74670857D01*
X25074166Y-74364329D01*
X24724057Y-74085817D01*
X24431439Y-73835321D01*
X24196311Y-73612839D01*
X24100307Y-73512104D01*
X24018675Y-73418372D01*
X23893665Y-73266245D01*
X23776721Y-73112572D01*
X23667843Y-72957352D01*
X23567029Y-72800587D01*
X23474281Y-72642275D01*
X23389598Y-72482416D01*
X23312980Y-72321012D01*
X23244428Y-72158061D01*
X23183940Y-71993564D01*
X23131518Y-71827521D01*
X23087161Y-71659931D01*
X23050868Y-71490795D01*
X23022641Y-71320114D01*
X23002479Y-71147886D01*
X22990382Y-70974111D01*
X22986349Y-70798791D01*
X22988727Y-70659853D01*
X22995861Y-70522462D01*
X23007752Y-70386617D01*
X23024398Y-70252318D01*
X23045801Y-70119565D01*
X23071960Y-69988359D01*
X23102875Y-69858699D01*
X23138547Y-69730585D01*
X23178975Y-69604018D01*
X23224159Y-69478997D01*
X23274100Y-69355522D01*
X23328798Y-69233593D01*
X23388251Y-69113211D01*
X23452462Y-68994375D01*
X23521429Y-68877085D01*
X23595152Y-68761342D01*
X23673167Y-68647917D01*
X23755007Y-68537585D01*
X23840674Y-68430345D01*
X23930166Y-68326199D01*
X24023484Y-68225144D01*
X24120628Y-68127183D01*
X24221597Y-68032314D01*
X24326392Y-67940538D01*
X24435013Y-67851854D01*
X24547459Y-67766263D01*
X24663731Y-67683764D01*
X24783829Y-67604358D01*
X24907752Y-67528044D01*
X25035500Y-67454823D01*
X25167074Y-67384695D01*
X25302473Y-67317658D01*
X25442160Y-67252376D01*
X25583285Y-67190535D01*
X25725847Y-67132312D01*
X25869847Y-67077883D01*
X26015286Y-67027424D01*
X26162163Y-66981112D01*
X26310479Y-66939123D01*
X26460235Y-66901634D01*
X26611430Y-66868820D01*
X26764064Y-66840857D01*
X26918139Y-66817923D01*
X27073655Y-66800194D01*
X27230611Y-66787845D01*
X27389008Y-66781053D01*
X27548847Y-66779994D01*
X27710127Y-66784844D01*
D11*
X29741580Y-69012304D02*
X29556357Y-68923354D01*
X24973476Y-69108996D02*
X24793586Y-69213416D01*
X31459789Y-81316478D02*
X31604512Y-81159553D01*
X29556357Y-68923354D02*
X29369773Y-68842139D01*
X33921496Y-71116139D02*
X34100177Y-71492369D01*
X31925942Y-83043756D02*
X31628671Y-83299688D01*
X33921496Y-80403687D02*
X33725799Y-80771409D01*
X31604512Y-81159553D02*
X31744318Y-80997076D01*
X30289084Y-69325563D02*
X30107943Y-69213408D01*
X27429060Y-68455401D02*
X27429060Y-68455407D01*
X20806179Y-80053981D02*
X20644515Y-79672245D01*
X23411858Y-81265525D02*
X23640495Y-81503029D01*
X28439124Y-83013819D02*
X28635238Y-82972278D01*
X34738319Y-73514112D02*
X34814896Y-73946579D01*
X32685789Y-79497434D02*
X32781921Y-79286319D01*
X22549879Y-71507968D02*
X22438545Y-71704205D01*
X34738319Y-78010084D02*
X34644725Y-78431313D01*
X31875510Y-70769336D02*
X31739486Y-70601490D01*
X34874456Y-77140874D02*
X34814896Y-77579938D01*
X34916999Y-74839631D02*
X34942524Y-75300216D01*
X33104426Y-78412741D02*
X33169547Y-78187067D01*
X28980947Y-84610056D02*
X28616286Y-84681717D01*
X33033103Y-72935403D02*
X32955578Y-72719283D01*
X29925442Y-69108989D02*
X29741580Y-69012304D01*
X21883110Y-72975445D02*
X21811792Y-73198617D01*
X23179151Y-70607318D02*
X23043616Y-70776711D01*
X28040998Y-83074241D02*
X28241044Y-83047806D01*
X22912922Y-70951472D02*
X22787067Y-71131602D01*
X20607182Y-72077437D02*
X20711325Y-71806856D01*
X21341870Y-70515915D02*
X21486102Y-70277546D01*
X26701387Y-84733086D02*
X26324964Y-84682127D01*
X32006466Y-70942368D02*
X31875510Y-70769336D01*
X25956256Y-84610785D02*
X25595262Y-84519059D01*
X31011665Y-83750127D02*
X30691931Y-83944635D01*
X20422037Y-72627063D02*
X20510752Y-72350840D01*
X23653425Y-67977851D02*
X23868713Y-67832574D01*
X31617779Y-68239200D02*
X31918908Y-68492856D01*
X21874642Y-78667536D02*
X21991000Y-78986347D01*
X19970742Y-75240014D02*
X19990028Y-74938402D01*
X26650353Y-68517286D02*
X26458890Y-68552092D01*
X32772833Y-82153115D02*
X32498023Y-82470470D01*
X25154652Y-69012312D02*
X24973476Y-69108996D01*
X34406486Y-79247016D02*
X34261840Y-79641491D01*
X32479617Y-71686368D02*
X32368931Y-71492588D01*
X33281182Y-73830821D02*
X33228466Y-73602325D01*
X25437139Y-67078068D02*
X25669973Y-67007772D01*
X34644725Y-73091018D02*
X34738319Y-73514112D01*
X23614794Y-70131355D02*
X23464740Y-70284640D01*
X31628671Y-83299688D02*
X31323912Y-83535145D01*
X25397658Y-82706928D02*
X25671068Y-82813395D01*
X24228436Y-83948322D02*
X23906016Y-83754679D01*
X27429060Y-83108228D02*
X27429060Y-83108228D01*
X24093998Y-69703710D02*
X23929424Y-69840890D01*
X31452236Y-70281359D02*
X31301009Y-70129074D01*
X33467239Y-76276843D02*
X33476542Y-76024961D01*
X27122070Y-83100038D02*
X27429060Y-83108228D01*
X34644725Y-78431313D02*
X34534114Y-78843624D01*
X32781921Y-72296327D02*
X32685789Y-72089490D01*
X21746675Y-73424792D02*
X21687759Y-73653970D01*
X22230398Y-72112784D02*
X22134274Y-72323946D01*
X23188818Y-81011642D02*
X23411858Y-81265525D01*
X30662442Y-82017845D02*
X30831743Y-81888673D01*
X26843102Y-68490214D02*
X26650353Y-68517286D01*
X27838985Y-83093122D02*
X28040998Y-83074241D01*
X23868713Y-67832574D02*
X24086193Y-67696669D01*
X30488226Y-82141465D02*
X30488226Y-82141465D01*
X21607703Y-77666879D02*
X21682993Y-78007802D01*
X32871851Y-79072293D02*
X32955578Y-78855354D01*
X33513083Y-70391797D02*
X33725799Y-70749281D01*
X32585237Y-71885336D02*
X32479617Y-71686368D01*
X31144715Y-69981976D02*
X30983354Y-69840065D01*
X32369609Y-80101431D02*
X32479919Y-79905649D01*
X23769689Y-69983438D02*
X23614794Y-70131355D01*
X33368009Y-77255251D02*
X33402120Y-77015017D01*
X23929424Y-69840890D02*
X23769689Y-69983438D01*
X20031891Y-77202201D02*
X19989348Y-76760588D01*
X32772833Y-69375581D02*
X33036601Y-69704947D01*
X20168031Y-78059764D02*
X20091452Y-77635260D01*
X33169547Y-78187067D02*
X33228466Y-77958481D01*
X20144318Y-73760165D02*
X20202176Y-73472658D01*
X22469023Y-68998300D02*
X22652432Y-68810253D01*
X30996128Y-81753951D02*
X31155598Y-81613677D01*
X32253176Y-71303994D02*
X32132355Y-71120588D01*
X21546102Y-77318585D02*
X21607703Y-77666879D01*
X20942755Y-71274156D02*
X20942755Y-71274156D01*
X34406486Y-72272948D02*
X34534114Y-72677297D01*
X23036039Y-68455726D02*
X23236238Y-68289246D01*
X28911974Y-66940478D02*
X29279053Y-67031795D01*
X21548222Y-74359521D02*
X21514112Y-74600710D01*
X26381634Y-66853121D02*
X26623241Y-66820316D01*
X31744318Y-80997076D02*
X31879209Y-80829049D01*
X21393271Y-81147865D02*
X21180557Y-80791791D01*
X24263412Y-69571900D02*
X24093998Y-69703710D01*
X22264785Y-79601856D02*
X22422212Y-79898555D01*
X22985047Y-83051448D02*
X22693487Y-82776271D01*
X32254383Y-80291662D02*
X32369609Y-80101431D01*
X27037136Y-68470877D02*
X26843102Y-68490214D01*
X22044352Y-72538109D02*
X21960630Y-72755276D01*
X33467239Y-75266768D02*
X33451735Y-75019708D01*
X21991000Y-78986347D02*
X22121048Y-79297787D01*
X24527735Y-67452978D02*
X24751796Y-67345192D01*
X21811792Y-73198617D02*
X21746675Y-73424792D01*
X32955578Y-72719283D02*
X32871851Y-72506258D01*
X30311775Y-82258535D02*
X30488226Y-82141465D01*
X25671068Y-82813395D02*
X25950075Y-82903483D01*
X21436590Y-75851701D02*
X21443435Y-76229478D01*
X32479919Y-79905649D02*
X32585312Y-79704317D01*
X19959170Y-75544447D02*
X19970742Y-75240014D01*
X20711325Y-71806856D02*
X20823183Y-71539095D01*
X28416433Y-68552085D02*
X28221681Y-68517279D01*
X33327697Y-74062410D02*
X33281182Y-73830821D01*
X33430028Y-74775743D02*
X33402120Y-74534872D01*
X22133513Y-82164765D02*
X21869749Y-81834352D01*
X23319525Y-70443295D02*
X23179151Y-70607318D01*
X27477377Y-84773852D02*
X27085525Y-84763661D01*
X26234679Y-82977191D02*
X26524879Y-83034520D01*
X27477377Y-84773852D02*
X27477377Y-84773852D01*
X24437666Y-69445458D02*
X24263412Y-69571900D01*
X23284322Y-83306242D02*
X22985047Y-83051448D01*
X30468863Y-69445453D02*
X30468863Y-69445453D01*
X32496435Y-69061047D02*
X32772833Y-69375581D01*
X28536652Y-66869455D02*
X28911974Y-66940478D01*
X31323912Y-83535145D02*
X31011665Y-83750127D01*
X32211793Y-68766805D02*
X32496435Y-69061047D01*
D12*
%TO.C,J8*%
X270104523Y-50290933D02*
X271011666Y-50290933D01*
X271193095Y-50351409D01*
X271314047Y-50472361D01*
X271374523Y-50653790D01*
X271374523Y-50774742D01*
X270648809Y-49504742D02*
X270588333Y-49625695D01*
X270527857Y-49686171D01*
X270406904Y-49746647D01*
X270346428Y-49746647D01*
X270225476Y-49686171D01*
X270165000Y-49625695D01*
X270104523Y-49504742D01*
X270104523Y-49262838D01*
X270165000Y-49141885D01*
X270225476Y-49081409D01*
X270346428Y-49020933D01*
X270406904Y-49020933D01*
X270527857Y-49081409D01*
X270588333Y-49141885D01*
X270648809Y-49262838D01*
X270648809Y-49504742D01*
X270709285Y-49625695D01*
X270769761Y-49686171D01*
X270890714Y-49746647D01*
X271132619Y-49746647D01*
X271253571Y-49686171D01*
X271314047Y-49625695D01*
X271374523Y-49504742D01*
X271374523Y-49262838D01*
X271314047Y-49141885D01*
X271253571Y-49081409D01*
X271132619Y-49020933D01*
X270890714Y-49020933D01*
X270769761Y-49081409D01*
X270709285Y-49141885D01*
X270648809Y-49262838D01*
D13*
%TO.C,R4*%
X72082380Y-31666666D02*
X71606190Y-32000000D01*
X72082380Y-32238095D02*
X71082380Y-32238095D01*
X71082380Y-31857142D01*
X71130000Y-31761904D01*
X71177619Y-31714285D01*
X71272857Y-31666666D01*
X71415714Y-31666666D01*
X71510952Y-31714285D01*
X71558571Y-31761904D01*
X71606190Y-31857142D01*
X71606190Y-32238095D01*
X71415714Y-30809523D02*
X72082380Y-30809523D01*
X71034761Y-31047619D02*
X71749047Y-31285714D01*
X71749047Y-30666666D01*
D12*
%TO.C,J4*%
X195104523Y-50290933D02*
X196011666Y-50290933D01*
X196193095Y-50351409D01*
X196314047Y-50472361D01*
X196374523Y-50653790D01*
X196374523Y-50774742D01*
X195527857Y-49141885D02*
X196374523Y-49141885D01*
X195044047Y-49444266D02*
X195951190Y-49746647D01*
X195951190Y-48960457D01*
%TO.C,J3*%
X170104523Y-50290933D02*
X171011666Y-50290933D01*
X171193095Y-50351409D01*
X171314047Y-50472361D01*
X171374523Y-50653790D01*
X171374523Y-50774742D01*
X170104523Y-49807123D02*
X170104523Y-49020933D01*
X170588333Y-49444266D01*
X170588333Y-49262838D01*
X170648809Y-49141885D01*
X170709285Y-49081409D01*
X170830238Y-49020933D01*
X171132619Y-49020933D01*
X171253571Y-49081409D01*
X171314047Y-49141885D01*
X171374523Y-49262838D01*
X171374523Y-49625695D01*
X171314047Y-49746647D01*
X171253571Y-49807123D01*
%TO.C,J2*%
X145104523Y-50290933D02*
X146011666Y-50290933D01*
X146193095Y-50351409D01*
X146314047Y-50472361D01*
X146374523Y-50653790D01*
X146374523Y-50774742D01*
X145225476Y-49746647D02*
X145165000Y-49686171D01*
X145104523Y-49565219D01*
X145104523Y-49262838D01*
X145165000Y-49141885D01*
X145225476Y-49081409D01*
X145346428Y-49020933D01*
X145467380Y-49020933D01*
X145648809Y-49081409D01*
X146374523Y-49807123D01*
X146374523Y-49020933D01*
D13*
%TO.C,JP1*%
X308516666Y-82502380D02*
X308516666Y-83216666D01*
X308469047Y-83359523D01*
X308373809Y-83454761D01*
X308230952Y-83502380D01*
X308135714Y-83502380D01*
X308992857Y-83502380D02*
X308992857Y-82502380D01*
X309373809Y-82502380D01*
X309469047Y-82550000D01*
X309516666Y-82597619D01*
X309564285Y-82692857D01*
X309564285Y-82835714D01*
X309516666Y-82930952D01*
X309469047Y-82978571D01*
X309373809Y-83026190D01*
X308992857Y-83026190D01*
X310516666Y-83502380D02*
X309945238Y-83502380D01*
X310230952Y-83502380D02*
X310230952Y-82502380D01*
X310135714Y-82645238D01*
X310040476Y-82740476D01*
X309945238Y-82788095D01*
D12*
%TO.C,J14*%
X81971904Y-43054523D02*
X81971904Y-43961666D01*
X81911428Y-44143095D01*
X81790476Y-44264047D01*
X81609047Y-44324523D01*
X81488095Y-44324523D01*
X83241904Y-44324523D02*
X82516190Y-44324523D01*
X82879047Y-44324523D02*
X82879047Y-43054523D01*
X82758095Y-43235952D01*
X82637142Y-43356904D01*
X82516190Y-43417380D01*
X84330476Y-43477857D02*
X84330476Y-44324523D01*
X84028095Y-42994047D02*
X83725714Y-43901190D01*
X84511904Y-43901190D01*
%TO.C,J15*%
X346760704Y-46564023D02*
X346760704Y-47471166D01*
X346700228Y-47652595D01*
X346579276Y-47773547D01*
X346397847Y-47834023D01*
X346276895Y-47834023D01*
X348030704Y-47834023D02*
X347304990Y-47834023D01*
X347667847Y-47834023D02*
X347667847Y-46564023D01*
X347546895Y-46745452D01*
X347425942Y-46866404D01*
X347304990Y-46926880D01*
X349179752Y-46564023D02*
X348574990Y-46564023D01*
X348514514Y-47168785D01*
X348574990Y-47108309D01*
X348695942Y-47047833D01*
X348998323Y-47047833D01*
X349119276Y-47108309D01*
X349179752Y-47168785D01*
X349240228Y-47289738D01*
X349240228Y-47592119D01*
X349179752Y-47713071D01*
X349119276Y-47773547D01*
X348998323Y-47834023D01*
X348695942Y-47834023D01*
X348574990Y-47773547D01*
X348514514Y-47713071D01*
%TO.C,J13*%
X81971904Y-31054523D02*
X81971904Y-31961666D01*
X81911428Y-32143095D01*
X81790476Y-32264047D01*
X81609047Y-32324523D01*
X81488095Y-32324523D01*
X83241904Y-32324523D02*
X82516190Y-32324523D01*
X82879047Y-32324523D02*
X82879047Y-31054523D01*
X82758095Y-31235952D01*
X82637142Y-31356904D01*
X82516190Y-31417380D01*
X83665238Y-31054523D02*
X84451428Y-31054523D01*
X84028095Y-31538333D01*
X84209523Y-31538333D01*
X84330476Y-31598809D01*
X84390952Y-31659285D01*
X84451428Y-31780238D01*
X84451428Y-32082619D01*
X84390952Y-32203571D01*
X84330476Y-32264047D01*
X84209523Y-32324523D01*
X83846666Y-32324523D01*
X83725714Y-32264047D01*
X83665238Y-32203571D01*
%TO.C,J1*%
X120104523Y-50290933D02*
X121011666Y-50290933D01*
X121193095Y-50351409D01*
X121314047Y-50472361D01*
X121374523Y-50653790D01*
X121374523Y-50774742D01*
X121374523Y-49020933D02*
X121374523Y-49746647D01*
X121374523Y-49383790D02*
X120104523Y-49383790D01*
X120285952Y-49504742D01*
X120406904Y-49625695D01*
X120467380Y-49746647D01*
D13*
%TO.C,R3*%
X414833333Y-33332380D02*
X414500000Y-32856190D01*
X414261904Y-33332380D02*
X414261904Y-32332380D01*
X414642857Y-32332380D01*
X414738095Y-32380000D01*
X414785714Y-32427619D01*
X414833333Y-32522857D01*
X414833333Y-32665714D01*
X414785714Y-32760952D01*
X414738095Y-32808571D01*
X414642857Y-32856190D01*
X414261904Y-32856190D01*
X415166666Y-32332380D02*
X415785714Y-32332380D01*
X415452380Y-32713333D01*
X415595238Y-32713333D01*
X415690476Y-32760952D01*
X415738095Y-32808571D01*
X415785714Y-32903809D01*
X415785714Y-33141904D01*
X415738095Y-33237142D01*
X415690476Y-33284761D01*
X415595238Y-33332380D01*
X415309523Y-33332380D01*
X415214285Y-33284761D01*
X415166666Y-33237142D01*
D12*
%TO.C,J11*%
X346760704Y-86564023D02*
X346760704Y-87471166D01*
X346700228Y-87652595D01*
X346579276Y-87773547D01*
X346397847Y-87834023D01*
X346276895Y-87834023D01*
X348030704Y-87834023D02*
X347304990Y-87834023D01*
X347667847Y-87834023D02*
X347667847Y-86564023D01*
X347546895Y-86745452D01*
X347425942Y-86866404D01*
X347304990Y-86926880D01*
X349240228Y-87834023D02*
X348514514Y-87834023D01*
X348877371Y-87834023D02*
X348877371Y-86564023D01*
X348756419Y-86745452D01*
X348635466Y-86866404D01*
X348514514Y-86926880D01*
%TO.C,J10*%
X346760704Y-66564023D02*
X346760704Y-67471166D01*
X346700228Y-67652595D01*
X346579276Y-67773547D01*
X346397847Y-67834023D01*
X346276895Y-67834023D01*
X348030704Y-67834023D02*
X347304990Y-67834023D01*
X347667847Y-67834023D02*
X347667847Y-66564023D01*
X347546895Y-66745452D01*
X347425942Y-66866404D01*
X347304990Y-66926880D01*
X348816895Y-66564023D02*
X348937847Y-66564023D01*
X349058800Y-66624500D01*
X349119276Y-66684976D01*
X349179752Y-66805928D01*
X349240228Y-67047833D01*
X349240228Y-67350214D01*
X349179752Y-67592119D01*
X349119276Y-67713071D01*
X349058800Y-67773547D01*
X348937847Y-67834023D01*
X348816895Y-67834023D01*
X348695942Y-67773547D01*
X348635466Y-67713071D01*
X348574990Y-67592119D01*
X348514514Y-67350214D01*
X348514514Y-67047833D01*
X348574990Y-66805928D01*
X348635466Y-66684976D01*
X348695942Y-66624500D01*
X348816895Y-66564023D01*
%TO.C,J6*%
X220104523Y-50290933D02*
X221011666Y-50290933D01*
X221193095Y-50351409D01*
X221314047Y-50472361D01*
X221374523Y-50653790D01*
X221374523Y-50774742D01*
X220104523Y-49141885D02*
X220104523Y-49383790D01*
X220165000Y-49504742D01*
X220225476Y-49565219D01*
X220406904Y-49686171D01*
X220648809Y-49746647D01*
X221132619Y-49746647D01*
X221253571Y-49686171D01*
X221314047Y-49625695D01*
X221374523Y-49504742D01*
X221374523Y-49262838D01*
X221314047Y-49141885D01*
X221253571Y-49081409D01*
X221132619Y-49020933D01*
X220830238Y-49020933D01*
X220709285Y-49081409D01*
X220648809Y-49141885D01*
X220588333Y-49262838D01*
X220588333Y-49504742D01*
X220648809Y-49625695D01*
X220709285Y-49686171D01*
X220830238Y-49746647D01*
%TO.C,J5*%
X38754023Y-39290933D02*
X39661166Y-39290933D01*
X39842595Y-39351409D01*
X39963547Y-39472361D01*
X40024023Y-39653790D01*
X40024023Y-39774742D01*
X38754023Y-38081409D02*
X38754023Y-38686171D01*
X39358785Y-38746647D01*
X39298309Y-38686171D01*
X39237833Y-38565219D01*
X39237833Y-38262838D01*
X39298309Y-38141885D01*
X39358785Y-38081409D01*
X39479738Y-38020933D01*
X39782119Y-38020933D01*
X39903071Y-38081409D01*
X39963547Y-38141885D01*
X40024023Y-38262838D01*
X40024023Y-38565219D01*
X39963547Y-38686171D01*
X39903071Y-38746647D01*
D13*
%TO.C,R1*%
X414833333Y-53332380D02*
X414500000Y-52856190D01*
X414261904Y-53332380D02*
X414261904Y-52332380D01*
X414642857Y-52332380D01*
X414738095Y-52380000D01*
X414785714Y-52427619D01*
X414833333Y-52522857D01*
X414833333Y-52665714D01*
X414785714Y-52760952D01*
X414738095Y-52808571D01*
X414642857Y-52856190D01*
X414261904Y-52856190D01*
X415785714Y-53332380D02*
X415214285Y-53332380D01*
X415500000Y-53332380D02*
X415500000Y-52332380D01*
X415404761Y-52475238D01*
X415309523Y-52570476D01*
X415214285Y-52618095D01*
D12*
%TO.C,J9*%
X295104523Y-50290933D02*
X296011666Y-50290933D01*
X296193095Y-50351409D01*
X296314047Y-50472361D01*
X296374523Y-50653790D01*
X296374523Y-50774742D01*
X296374523Y-49625695D02*
X296374523Y-49383790D01*
X296314047Y-49262838D01*
X296253571Y-49202361D01*
X296072142Y-49081409D01*
X295830238Y-49020933D01*
X295346428Y-49020933D01*
X295225476Y-49081409D01*
X295165000Y-49141885D01*
X295104523Y-49262838D01*
X295104523Y-49504742D01*
X295165000Y-49625695D01*
X295225476Y-49686171D01*
X295346428Y-49746647D01*
X295648809Y-49746647D01*
X295769761Y-49686171D01*
X295830238Y-49625695D01*
X295890714Y-49504742D01*
X295890714Y-49262838D01*
X295830238Y-49141885D01*
X295769761Y-49081409D01*
X295648809Y-49020933D01*
D13*
%TO.C,R2*%
X414833333Y-73332380D02*
X414500000Y-72856190D01*
X414261904Y-73332380D02*
X414261904Y-72332380D01*
X414642857Y-72332380D01*
X414738095Y-72380000D01*
X414785714Y-72427619D01*
X414833333Y-72522857D01*
X414833333Y-72665714D01*
X414785714Y-72760952D01*
X414738095Y-72808571D01*
X414642857Y-72856190D01*
X414261904Y-72856190D01*
X415214285Y-72427619D02*
X415261904Y-72380000D01*
X415357142Y-72332380D01*
X415595238Y-72332380D01*
X415690476Y-72380000D01*
X415738095Y-72427619D01*
X415785714Y-72522857D01*
X415785714Y-72618095D01*
X415738095Y-72760952D01*
X415166666Y-73332380D01*
X415785714Y-73332380D01*
%TO.C,C1*%
X73680633Y-14857142D02*
X73633014Y-14904761D01*
X73490157Y-14952380D01*
X73394919Y-14952380D01*
X73252061Y-14904761D01*
X73156823Y-14809523D01*
X73109204Y-14714285D01*
X73061585Y-14523809D01*
X73061585Y-14380952D01*
X73109204Y-14190476D01*
X73156823Y-14095238D01*
X73252061Y-14000000D01*
X73394919Y-13952380D01*
X73490157Y-13952380D01*
X73633014Y-14000000D01*
X73680633Y-14047619D01*
X74633014Y-14952380D02*
X74061585Y-14952380D01*
X74347300Y-14952380D02*
X74347300Y-13952380D01*
X74252061Y-14095238D01*
X74156823Y-14190476D01*
X74061585Y-14238095D01*
%TO.C,JP2*%
X308416666Y-78252380D02*
X308416666Y-78966666D01*
X308369047Y-79109523D01*
X308273809Y-79204761D01*
X308130952Y-79252380D01*
X308035714Y-79252380D01*
X308892857Y-79252380D02*
X308892857Y-78252380D01*
X309273809Y-78252380D01*
X309369047Y-78300000D01*
X309416666Y-78347619D01*
X309464285Y-78442857D01*
X309464285Y-78585714D01*
X309416666Y-78680952D01*
X309369047Y-78728571D01*
X309273809Y-78776190D01*
X308892857Y-78776190D01*
X309845238Y-78347619D02*
X309892857Y-78300000D01*
X309988095Y-78252380D01*
X310226190Y-78252380D01*
X310321428Y-78300000D01*
X310369047Y-78347619D01*
X310416666Y-78442857D01*
X310416666Y-78538095D01*
X310369047Y-78680952D01*
X309797619Y-79252380D01*
X310416666Y-79252380D01*
%TO.C,R5*%
X72082380Y-43666666D02*
X71606190Y-44000000D01*
X72082380Y-44238095D02*
X71082380Y-44238095D01*
X71082380Y-43857142D01*
X71130000Y-43761904D01*
X71177619Y-43714285D01*
X71272857Y-43666666D01*
X71415714Y-43666666D01*
X71510952Y-43714285D01*
X71558571Y-43761904D01*
X71606190Y-43857142D01*
X71606190Y-44238095D01*
X71082380Y-42761904D02*
X71082380Y-43238095D01*
X71558571Y-43285714D01*
X71510952Y-43238095D01*
X71463333Y-43142857D01*
X71463333Y-42904761D01*
X71510952Y-42809523D01*
X71558571Y-42761904D01*
X71653809Y-42714285D01*
X71891904Y-42714285D01*
X71987142Y-42761904D01*
X72034761Y-42809523D01*
X72082380Y-42904761D01*
X72082380Y-43142857D01*
X72034761Y-43238095D01*
X71987142Y-43285714D01*
D12*
%TO.C,J12*%
X81971904Y-19054523D02*
X81971904Y-19961666D01*
X81911428Y-20143095D01*
X81790476Y-20264047D01*
X81609047Y-20324523D01*
X81488095Y-20324523D01*
X83241904Y-20324523D02*
X82516190Y-20324523D01*
X82879047Y-20324523D02*
X82879047Y-19054523D01*
X82758095Y-19235952D01*
X82637142Y-19356904D01*
X82516190Y-19417380D01*
X83725714Y-19175476D02*
X83786190Y-19115000D01*
X83907142Y-19054523D01*
X84209523Y-19054523D01*
X84330476Y-19115000D01*
X84390952Y-19175476D01*
X84451428Y-19296428D01*
X84451428Y-19417380D01*
X84390952Y-19598809D01*
X83665238Y-20324523D01*
X84451428Y-20324523D01*
%TO.C,J7*%
X245104523Y-50290933D02*
X246011666Y-50290933D01*
X246193095Y-50351409D01*
X246314047Y-50472361D01*
X246374523Y-50653790D01*
X246374523Y-50774742D01*
X245104523Y-49807123D02*
X245104523Y-48960457D01*
X246374523Y-49504742D01*
D14*
%TO.C,J8*%
X275098000Y-68409600D02*
X265750000Y-68409600D01*
D15*
X275750000Y-63837600D02*
X275750000Y-63837600D01*
X275850000Y-63837600D02*
X275850000Y-63837600D01*
D14*
X265750000Y-31325600D02*
X275098000Y-31325600D01*
D15*
X275850000Y-63837600D02*
X275850000Y-63837600D01*
D14*
X275098000Y-31325600D02*
X275098000Y-68409600D01*
X265750000Y-68409600D02*
X265750000Y-31325600D01*
D15*
X275850000Y-63837600D02*
G75*
G03*
X275750000Y-63837600I-50000J0D01*
G01*
X275750000Y-63837600D02*
G75*
G03*
X275850000Y-63837600I50000J0D01*
G01*
X275850000Y-63837600D02*
G75*
G03*
X275750000Y-63837600I-50000J0D01*
G01*
D16*
%TO.C,R4*%
X72960000Y-34770000D02*
X72630000Y-34770000D01*
X75040000Y-34770000D02*
X75370000Y-34770000D01*
X75370000Y-28230000D02*
X75040000Y-28230000D01*
X75370000Y-34770000D02*
X75370000Y-28230000D01*
X72630000Y-28230000D02*
X72960000Y-28230000D01*
X72630000Y-34770000D02*
X72630000Y-28230000D01*
D15*
%TO.C,J4*%
X200850000Y-63837600D02*
X200850000Y-63837600D01*
D14*
X190750000Y-31325600D02*
X200098000Y-31325600D01*
X200098000Y-68409600D02*
X190750000Y-68409600D01*
X190750000Y-68409600D02*
X190750000Y-31325600D01*
X200098000Y-31325600D02*
X200098000Y-68409600D01*
D15*
X200850000Y-63837600D02*
X200850000Y-63837600D01*
X200750000Y-63837600D02*
X200750000Y-63837600D01*
X200850000Y-63837600D02*
G75*
G03*
X200750000Y-63837600I-50000J0D01*
G01*
X200850000Y-63837600D02*
G75*
G03*
X200750000Y-63837600I-50000J0D01*
G01*
X200750000Y-63837600D02*
G75*
G03*
X200850000Y-63837600I50000J0D01*
G01*
D14*
%TO.C,J3*%
X175098000Y-68409600D02*
X165750000Y-68409600D01*
D15*
X175850000Y-63837600D02*
X175850000Y-63837600D01*
D14*
X175098000Y-31325600D02*
X175098000Y-68409600D01*
D15*
X175750000Y-63837600D02*
X175750000Y-63837600D01*
X175850000Y-63837600D02*
X175850000Y-63837600D01*
D14*
X165750000Y-68409600D02*
X165750000Y-31325600D01*
X165750000Y-31325600D02*
X175098000Y-31325600D01*
D15*
X175750000Y-63837600D02*
G75*
G03*
X175850000Y-63837600I50000J0D01*
G01*
X175850000Y-63837600D02*
G75*
G03*
X175750000Y-63837600I-50000J0D01*
G01*
X175850000Y-63837600D02*
G75*
G03*
X175750000Y-63837600I-50000J0D01*
G01*
D14*
%TO.C,J2*%
X140750000Y-31325600D02*
X150098000Y-31325600D01*
D15*
X150850000Y-63837600D02*
X150850000Y-63837600D01*
D14*
X140750000Y-68409600D02*
X140750000Y-31325600D01*
X150098000Y-31325600D02*
X150098000Y-68409600D01*
X150098000Y-68409600D02*
X140750000Y-68409600D01*
D15*
X150750000Y-63837600D02*
X150750000Y-63837600D01*
X150850000Y-63837600D02*
X150850000Y-63837600D01*
X150850000Y-63837600D02*
G75*
G03*
X150750000Y-63837600I-50000J0D01*
G01*
X150750000Y-63837600D02*
G75*
G03*
X150850000Y-63837600I50000J0D01*
G01*
X150850000Y-63837600D02*
G75*
G03*
X150750000Y-63837600I-50000J0D01*
G01*
D16*
%TO.C,JP1*%
X310750000Y-80950000D02*
X310750000Y-81550000D01*
X308650000Y-80250000D02*
X310050000Y-80250000D01*
X310050000Y-82250000D02*
X308650000Y-82250000D01*
X307950000Y-81550000D02*
X307950000Y-80950000D01*
X310050000Y-82250000D02*
G75*
G03*
X310750000Y-81550000I1J699999D01*
G01*
X308650000Y-80250000D02*
G75*
G03*
X307950000Y-80950000I0J-700000D01*
G01*
X307950000Y-81550000D02*
G75*
G03*
X308650000Y-82250000I700000J0D01*
G01*
X310750000Y-80950000D02*
G75*
G03*
X310050000Y-80250000I-699999J1D01*
G01*
D14*
%TO.C,J14*%
X87700000Y-39625000D02*
X87700000Y-47725000D01*
X80800000Y-47725000D02*
X80800000Y-39625000D01*
X87700000Y-47725000D02*
X80800000Y-47725000D01*
X80800000Y-39625000D02*
X87700000Y-39625000D01*
D15*
X80200000Y-43750000D02*
G75*
G03*
X80200000Y-43750000I-50000J0D01*
G01*
%TO.C,J15*%
X343228800Y-39914500D02*
X343228800Y-47259500D01*
X347788800Y-49394500D02*
X431338800Y-49394500D01*
X431338800Y-49394500D02*
X431338800Y-39914500D01*
X431338800Y-39914500D02*
X343228800Y-39914500D01*
D14*
%TO.C,J13*%
X87700000Y-35725000D02*
X80800000Y-35725000D01*
X87700000Y-27625000D02*
X87700000Y-35725000D01*
X80800000Y-27625000D02*
X87700000Y-27625000D01*
X80800000Y-35725000D02*
X80800000Y-27625000D01*
D15*
X80200000Y-31750000D02*
G75*
G03*
X80200000Y-31750000I-50000J0D01*
G01*
D14*
%TO.C,J1*%
X115750000Y-68409600D02*
X115750000Y-31325600D01*
D15*
X125750000Y-63837600D02*
X125750000Y-63837600D01*
X125850000Y-63837600D02*
X125850000Y-63837600D01*
D14*
X125098000Y-68409600D02*
X115750000Y-68409600D01*
X115750000Y-31325600D02*
X125098000Y-31325600D01*
D15*
X125850000Y-63837600D02*
X125850000Y-63837600D01*
D14*
X125098000Y-31325600D02*
X125098000Y-68409600D01*
D15*
X125850000Y-63837600D02*
G75*
G03*
X125750000Y-63837600I-50000J0D01*
G01*
X125850000Y-63837600D02*
G75*
G03*
X125750000Y-63837600I-50000J0D01*
G01*
X125750000Y-63837600D02*
G75*
G03*
X125850000Y-63837600I50000J0D01*
G01*
D16*
%TO.C,R3*%
X411730000Y-33880000D02*
X418270000Y-33880000D01*
X411730000Y-34210000D02*
X411730000Y-33880000D01*
X418270000Y-36620000D02*
X418270000Y-36290000D01*
X411730000Y-36290000D02*
X411730000Y-36620000D01*
X418270000Y-33880000D02*
X418270000Y-34210000D01*
X411730000Y-36620000D02*
X418270000Y-36620000D01*
D15*
%TO.C,J11*%
X343228800Y-79914500D02*
X343228800Y-87259500D01*
X347788800Y-89394500D02*
X431338800Y-89394500D01*
X431338800Y-79914500D02*
X343228800Y-79914500D01*
X431338800Y-89394500D02*
X431338800Y-79914500D01*
%TO.C,J10*%
X347788800Y-69394500D02*
X431338800Y-69394500D01*
X431338800Y-69394500D02*
X431338800Y-59914500D01*
X343228800Y-59914500D02*
X343228800Y-67259500D01*
X431338800Y-59914500D02*
X343228800Y-59914500D01*
%TO.C,J6*%
X225750000Y-63837600D02*
X225750000Y-63837600D01*
X225850000Y-63837600D02*
X225850000Y-63837600D01*
D14*
X215750000Y-31325600D02*
X225098000Y-31325600D01*
X225098000Y-31325600D02*
X225098000Y-68409600D01*
X215750000Y-68409600D02*
X215750000Y-31325600D01*
X225098000Y-68409600D02*
X215750000Y-68409600D01*
D15*
X225850000Y-63837600D02*
X225850000Y-63837600D01*
X225850000Y-63837600D02*
G75*
G03*
X225750000Y-63837600I-50000J0D01*
G01*
X225850000Y-63837600D02*
G75*
G03*
X225750000Y-63837600I-50000J0D01*
G01*
X225750000Y-63837600D02*
G75*
G03*
X225850000Y-63837600I50000J0D01*
G01*
D14*
%TO.C,J5*%
X34776500Y-27945600D02*
X44123500Y-27945600D01*
X44123500Y-27945600D02*
X44123500Y-49789600D01*
X34776500Y-49789600D02*
X34776500Y-27945600D01*
X44123500Y-49789600D02*
X34776500Y-49789600D01*
D16*
%TO.C,R1*%
X418270000Y-56620000D02*
X418270000Y-56290000D01*
X411730000Y-56620000D02*
X418270000Y-56620000D01*
X411730000Y-54210000D02*
X411730000Y-53880000D01*
X411730000Y-56290000D02*
X411730000Y-56620000D01*
X418270000Y-53880000D02*
X418270000Y-54210000D01*
X411730000Y-53880000D02*
X418270000Y-53880000D01*
D15*
%TO.C,J9*%
X300850000Y-63837600D02*
X300850000Y-63837600D01*
X300850000Y-63837600D02*
X300850000Y-63837600D01*
D14*
X290750000Y-68409600D02*
X290750000Y-31325600D01*
D15*
X300750000Y-63837600D02*
X300750000Y-63837600D01*
D14*
X290750000Y-31325600D02*
X300098000Y-31325600D01*
X300098000Y-31325600D02*
X300098000Y-68409600D01*
X300098000Y-68409600D02*
X290750000Y-68409600D01*
D15*
X300750000Y-63837600D02*
G75*
G03*
X300850000Y-63837600I50000J0D01*
G01*
X300850000Y-63837600D02*
G75*
G03*
X300750000Y-63837600I-50000J0D01*
G01*
X300850000Y-63837600D02*
G75*
G03*
X300750000Y-63837600I-50000J0D01*
G01*
D16*
%TO.C,R2*%
X411730000Y-73880000D02*
X418270000Y-73880000D01*
X411730000Y-76290000D02*
X411730000Y-76620000D01*
X411730000Y-76620000D02*
X418270000Y-76620000D01*
X418270000Y-73880000D02*
X418270000Y-74210000D01*
X411730000Y-74210000D02*
X411730000Y-73880000D01*
X418270000Y-76620000D02*
X418270000Y-76290000D01*
%TO.C,C1*%
X74007300Y-15673000D02*
X74007300Y-23827000D01*
X73847300Y-15670000D02*
X73847300Y-23830000D01*
X69837602Y-17035000D02*
X69837602Y-17835000D01*
X77848300Y-18802000D02*
X77848300Y-20698000D01*
X77648300Y-18198000D02*
X77648300Y-21302000D01*
X75488300Y-16010000D02*
X75488300Y-18710000D01*
X75008300Y-20790000D02*
X75008300Y-23664000D01*
X76608300Y-16731000D02*
X76608300Y-18710000D01*
X74568300Y-20790000D02*
X74568300Y-23767000D01*
X75368300Y-15960000D02*
X75368300Y-18710000D01*
X74287300Y-15693000D02*
X74287300Y-23807000D01*
X76728300Y-16843000D02*
X76728300Y-22657000D01*
X75408300Y-20790000D02*
X75408300Y-23524000D01*
X75808300Y-16166000D02*
X75808300Y-18710000D01*
X76368300Y-20790000D02*
X76368300Y-22970000D01*
X74808300Y-15783000D02*
X74808300Y-18710000D01*
X76528300Y-16660000D02*
X76528300Y-18710000D01*
X75648300Y-20790000D02*
X75648300Y-23416000D01*
X74648300Y-20790000D02*
X74648300Y-23752000D01*
X76248300Y-20790000D02*
X76248300Y-23059000D01*
X76568300Y-16695000D02*
X76568300Y-18710000D01*
X77088300Y-17245000D02*
X77088300Y-22255000D01*
X75848300Y-20790000D02*
X75848300Y-23312000D01*
X75208300Y-15900000D02*
X75208300Y-18710000D01*
X76088300Y-20790000D02*
X76088300Y-23168000D01*
X77528300Y-17937000D02*
X77528300Y-21563000D01*
X75928300Y-20790000D02*
X75928300Y-23267000D01*
X74127300Y-15679000D02*
X74127300Y-23821000D01*
X74047300Y-15674000D02*
X74047300Y-23826000D01*
X75088300Y-15861000D02*
X75088300Y-18710000D01*
X76048300Y-16306000D02*
X76048300Y-18710000D01*
X73887300Y-15670000D02*
X73887300Y-23830000D01*
X75288300Y-20790000D02*
X75288300Y-23571000D01*
X76048300Y-20790000D02*
X76048300Y-23194000D01*
X74888300Y-15803000D02*
X74888300Y-18710000D01*
X75928300Y-16233000D02*
X75928300Y-18710000D01*
X76168300Y-20790000D02*
X76168300Y-23115000D01*
X75208300Y-20790000D02*
X75208300Y-23600000D01*
X76008300Y-16281000D02*
X76008300Y-18710000D01*
X74648300Y-15748000D02*
X74648300Y-18710000D01*
X74688300Y-20790000D02*
X74688300Y-23744000D01*
X74327300Y-15698000D02*
X74327300Y-23802000D01*
X73967300Y-15671000D02*
X73967300Y-23829000D01*
X76408300Y-16561000D02*
X76408300Y-18710000D01*
X77128300Y-17296000D02*
X77128300Y-22204000D01*
X77768300Y-18521000D02*
X77768300Y-20979000D01*
X76568300Y-20790000D02*
X76568300Y-22805000D01*
X74568300Y-15733000D02*
X74568300Y-18710000D01*
X74888300Y-20790000D02*
X74888300Y-23697000D01*
X77048300Y-17194000D02*
X77048300Y-22306000D01*
X77168300Y-17350000D02*
X77168300Y-22150000D01*
X76528300Y-20790000D02*
X76528300Y-22840000D01*
X76288300Y-16470000D02*
X76288300Y-18710000D01*
X74487300Y-15720000D02*
X74487300Y-23780000D01*
X75888300Y-16210000D02*
X75888300Y-18710000D01*
X75328300Y-15945000D02*
X75328300Y-18710000D01*
X74688300Y-15756000D02*
X74688300Y-18710000D01*
X74928300Y-15814000D02*
X74928300Y-18710000D01*
X75968300Y-20790000D02*
X75968300Y-23243000D01*
X76328300Y-20790000D02*
X76328300Y-23000000D01*
X77728300Y-18404000D02*
X77728300Y-21096000D01*
X76208300Y-16412000D02*
X76208300Y-18710000D01*
X75248300Y-20790000D02*
X75248300Y-23585000D01*
X75448300Y-20790000D02*
X75448300Y-23507000D01*
X75608300Y-16064000D02*
X75608300Y-18710000D01*
X76488300Y-20790000D02*
X76488300Y-22874000D01*
X74608300Y-15740000D02*
X74608300Y-18710000D01*
X74928300Y-20790000D02*
X74928300Y-23686000D01*
X75728300Y-16123000D02*
X75728300Y-18710000D01*
X76008300Y-20790000D02*
X76008300Y-23219000D01*
X76928300Y-17053000D02*
X76928300Y-22447000D01*
X69437602Y-17435000D02*
X70237602Y-17435000D01*
X75088300Y-20790000D02*
X75088300Y-23639000D01*
X75168300Y-15887000D02*
X75168300Y-18710000D01*
X77688300Y-18297000D02*
X77688300Y-21203000D01*
X73927300Y-15670000D02*
X73927300Y-23830000D01*
X75248300Y-15915000D02*
X75248300Y-18710000D01*
X75728300Y-20790000D02*
X75728300Y-23377000D01*
X75368300Y-20790000D02*
X75368300Y-23540000D01*
X74367300Y-15702000D02*
X74367300Y-23798000D01*
X76208300Y-20790000D02*
X76208300Y-23088000D01*
X75888300Y-20790000D02*
X75888300Y-23290000D01*
X76128300Y-16358000D02*
X76128300Y-18710000D01*
X75048300Y-20790000D02*
X75048300Y-23652000D01*
X74407300Y-15708000D02*
X74407300Y-23792000D01*
X76688300Y-16805000D02*
X76688300Y-22695000D01*
X75648300Y-16084000D02*
X75648300Y-18710000D01*
X77368300Y-17648000D02*
X77368300Y-21852000D01*
X77808300Y-18652000D02*
X77808300Y-20848000D01*
X76088300Y-16332000D02*
X76088300Y-18710000D01*
X77608300Y-18105000D02*
X77608300Y-21395000D01*
X75008300Y-15836000D02*
X75008300Y-18710000D01*
X74527300Y-15726000D02*
X74527300Y-23774000D01*
X76648300Y-16767000D02*
X76648300Y-22733000D01*
X75288300Y-15929000D02*
X75288300Y-18710000D01*
X75768300Y-20790000D02*
X75768300Y-23356000D01*
X76328300Y-16500000D02*
X76328300Y-18710000D01*
X74728300Y-20790000D02*
X74728300Y-23735000D01*
X74848300Y-20790000D02*
X74848300Y-23707000D01*
X77208300Y-17405000D02*
X77208300Y-22095000D01*
X75528300Y-20790000D02*
X75528300Y-23472000D01*
X75968300Y-16257000D02*
X75968300Y-18710000D01*
X76608300Y-20790000D02*
X76608300Y-22769000D01*
X75768300Y-16144000D02*
X75768300Y-18710000D01*
X74608300Y-20790000D02*
X74608300Y-23760000D01*
X74447300Y-15713000D02*
X74447300Y-23787000D01*
X77448300Y-17786000D02*
X77448300Y-21714000D01*
X77008300Y-17146000D02*
X77008300Y-22354000D01*
X76368300Y-16530000D02*
X76368300Y-18710000D01*
X75608300Y-20790000D02*
X75608300Y-23436000D01*
X77408300Y-17716000D02*
X77408300Y-21784000D01*
X74968300Y-20790000D02*
X74968300Y-23675000D01*
X76848300Y-16966000D02*
X76848300Y-22534000D01*
X75408300Y-15976000D02*
X75408300Y-18710000D01*
X74167300Y-15682000D02*
X74167300Y-23818000D01*
X77248300Y-17463000D02*
X77248300Y-22037000D01*
X74728300Y-15765000D02*
X74728300Y-18710000D01*
X75808300Y-20790000D02*
X75808300Y-23334000D01*
X75688300Y-16103000D02*
X75688300Y-18710000D01*
X76448300Y-20790000D02*
X76448300Y-22906000D01*
X76888300Y-17009000D02*
X76888300Y-22491000D01*
X76768300Y-16883000D02*
X76768300Y-22617000D01*
X74247300Y-15689000D02*
X74247300Y-23811000D01*
X74768300Y-15774000D02*
X74768300Y-18710000D01*
X75688300Y-20790000D02*
X75688300Y-23397000D01*
X75848300Y-16188000D02*
X75848300Y-18710000D01*
X74087300Y-15676000D02*
X74087300Y-23824000D01*
X77288300Y-17522000D02*
X77288300Y-21978000D01*
X77488300Y-17860000D02*
X77488300Y-21640000D01*
X75488300Y-20790000D02*
X75488300Y-23490000D01*
X74968300Y-15825000D02*
X74968300Y-18710000D01*
X77328300Y-17584000D02*
X77328300Y-21916000D01*
X77928300Y-19217000D02*
X77928300Y-20283000D01*
X76448300Y-16594000D02*
X76448300Y-18710000D01*
X77888300Y-18982000D02*
X77888300Y-20518000D01*
X76488300Y-16626000D02*
X76488300Y-18710000D01*
X75568300Y-20790000D02*
X75568300Y-23454000D01*
X75128300Y-15873000D02*
X75128300Y-18710000D01*
X75568300Y-16046000D02*
X75568300Y-18710000D01*
X76128300Y-20790000D02*
X76128300Y-23142000D01*
X75328300Y-20790000D02*
X75328300Y-23555000D01*
X75168300Y-20790000D02*
X75168300Y-23613000D01*
X74848300Y-15793000D02*
X74848300Y-18710000D01*
X76248300Y-16441000D02*
X76248300Y-18710000D01*
X77568300Y-18019000D02*
X77568300Y-21481000D01*
X74768300Y-20790000D02*
X74768300Y-23726000D01*
X74808300Y-20790000D02*
X74808300Y-23717000D01*
X76288300Y-20790000D02*
X76288300Y-23030000D01*
X75528300Y-16028000D02*
X75528300Y-18710000D01*
X74207300Y-15685000D02*
X74207300Y-23815000D01*
X76808300Y-16924000D02*
X76808300Y-22576000D01*
X75048300Y-15848000D02*
X75048300Y-18710000D01*
X75128300Y-20790000D02*
X75128300Y-23627000D01*
X76968300Y-17099000D02*
X76968300Y-22401000D01*
X76168300Y-16385000D02*
X76168300Y-18710000D01*
X75448300Y-15993000D02*
X75448300Y-18710000D01*
X76408300Y-20790000D02*
X76408300Y-22939000D01*
X77967300Y-19750000D02*
G75*
G03*
X77967300Y-19750000I-4120000J0D01*
G01*
%TO.C,JP2*%
X310650000Y-76700000D02*
X310650000Y-77300000D01*
X307850000Y-77300000D02*
X307850000Y-76700000D01*
X308550000Y-76000000D02*
X309950000Y-76000000D01*
X309950000Y-78000000D02*
X308550000Y-78000000D01*
X308550000Y-76000000D02*
G75*
G03*
X307850000Y-76700000I0J-700000D01*
G01*
X307850000Y-77300000D02*
G75*
G03*
X308550000Y-78000000I700000J0D01*
G01*
X309950000Y-78000000D02*
G75*
G03*
X310650000Y-77300000I1J699999D01*
G01*
X310650000Y-76700000D02*
G75*
G03*
X309950000Y-76000000I-699999J1D01*
G01*
%TO.C,R5*%
X72960000Y-46770000D02*
X72630000Y-46770000D01*
X75370000Y-46770000D02*
X75370000Y-40230000D01*
X72630000Y-46770000D02*
X72630000Y-40230000D01*
X75040000Y-46770000D02*
X75370000Y-46770000D01*
X72630000Y-40230000D02*
X72960000Y-40230000D01*
X75370000Y-40230000D02*
X75040000Y-40230000D01*
D14*
%TO.C,J12*%
X80800000Y-23725000D02*
X80800000Y-15625000D01*
X80800000Y-15625000D02*
X87700000Y-15625000D01*
X87700000Y-15625000D02*
X87700000Y-23725000D01*
X87700000Y-23725000D02*
X80800000Y-23725000D01*
D15*
X80200000Y-19750000D02*
G75*
G03*
X80200000Y-19750000I-50000J0D01*
G01*
%TO.C,J7*%
X250850000Y-63837600D02*
X250850000Y-63837600D01*
X250750000Y-63837600D02*
X250750000Y-63837600D01*
X250850000Y-63837600D02*
X250850000Y-63837600D01*
D14*
X240750000Y-68409600D02*
X240750000Y-31325600D01*
X250098000Y-68409600D02*
X240750000Y-68409600D01*
X250098000Y-31325600D02*
X250098000Y-68409600D01*
X240750000Y-31325600D02*
X250098000Y-31325600D01*
D15*
X250850000Y-63837600D02*
G75*
G03*
X250750000Y-63837600I-50000J0D01*
G01*
X250850000Y-63837600D02*
G75*
G03*
X250750000Y-63837600I-50000J0D01*
G01*
X250750000Y-63837600D02*
G75*
G03*
X250850000Y-63837600I50000J0D01*
G01*
%TD*%
M02*
