%TF.GenerationSoftware,KiCad,Pcbnew,(6.0.7)*%
%TF.CreationDate,2023-09-04T09:41:36+01:00*%
%TF.ProjectId,CCC_rig_backplane,4343435f-7269-4675-9f62-61636b706c61,rev?*%
%TF.SameCoordinates,Original*%
%TF.FileFunction,Soldermask,Top*%
%TF.FilePolarity,Negative*%
%FSLAX46Y46*%
G04 Gerber Fmt 4.6, Leading zero omitted, Abs format (unit mm)*
G04 Created by KiCad (PCBNEW (6.0.7)) date 2023-09-04 09:41:36*
%MOMM*%
%LPD*%
G01*
G04 APERTURE LIST*
G04 Aperture macros list*
%AMFreePoly0*
4,1,22,0.500000,-0.750000,0.000000,-0.750000,0.000000,-0.745033,-0.079941,-0.743568,-0.215256,-0.701293,-0.333266,-0.622738,-0.424486,-0.514219,-0.481581,-0.384460,-0.499164,-0.250000,-0.500000,-0.250000,-0.500000,0.250000,-0.499164,0.250000,-0.499963,0.256109,-0.478152,0.396186,-0.417904,0.524511,-0.324060,0.630769,-0.204165,0.706417,-0.067858,0.745374,0.000000,0.744959,0.000000,0.750000,
0.500000,0.750000,0.500000,-0.750000,0.500000,-0.750000,$1*%
%AMFreePoly1*
4,1,20,0.000000,0.744959,0.073905,0.744508,0.209726,0.703889,0.328688,0.626782,0.421226,0.519385,0.479903,0.390333,0.500000,0.250000,0.500000,-0.250000,0.499851,-0.262216,0.476331,-0.402017,0.414519,-0.529596,0.319384,-0.634700,0.198574,-0.708877,0.061801,-0.746166,0.000000,-0.745033,0.000000,-0.750000,-0.500000,-0.750000,-0.500000,0.750000,0.000000,0.750000,0.000000,0.744959,
0.000000,0.744959,$1*%
G04 Aperture macros list end*
%ADD10C,1.638000*%
%ADD11C,1.600000*%
%ADD12O,1.600000X1.600000*%
%ADD13FreePoly0,180.000000*%
%ADD14FreePoly1,180.000000*%
%ADD15R,2.100000X2.100000*%
%ADD16C,2.100000*%
%ADD17R,1.650000X1.650000*%
%ADD18C,1.650000*%
%ADD19R,1.638000X1.638000*%
%ADD20R,1.600000X1.600000*%
G04 APERTURE END LIST*
D10*
%TO.C,J8*%
X272850000Y-63837600D03*
X267998000Y-63837600D03*
X272850000Y-61297600D03*
X267998000Y-61297600D03*
X272850000Y-58757600D03*
X267998000Y-58757600D03*
X272850000Y-56217600D03*
X267998000Y-56217600D03*
X272850000Y-53677600D03*
X267998000Y-53677600D03*
X272850000Y-51137600D03*
X267998000Y-51137600D03*
X272850000Y-48597600D03*
X267998000Y-48597600D03*
X272850000Y-46057600D03*
X267998000Y-46057600D03*
X272850000Y-43517600D03*
X267998000Y-43517600D03*
X272850000Y-40977600D03*
X267998000Y-40977600D03*
X272850000Y-38437600D03*
X267998000Y-38437600D03*
X272850000Y-35897600D03*
X267998000Y-35897600D03*
%TD*%
D11*
%TO.C,R4*%
X74000000Y-35310000D03*
D12*
X74000000Y-27690000D03*
%TD*%
D10*
%TO.C,J4*%
X197850000Y-63837600D03*
X192998000Y-63837600D03*
X197850000Y-61297600D03*
X192998000Y-61297600D03*
X197850000Y-58757600D03*
X192998000Y-58757600D03*
X197850000Y-56217600D03*
X192998000Y-56217600D03*
X197850000Y-53677600D03*
X192998000Y-53677600D03*
X197850000Y-51137600D03*
X192998000Y-51137600D03*
X197850000Y-48597600D03*
X192998000Y-48597600D03*
X197850000Y-46057600D03*
X192998000Y-46057600D03*
X197850000Y-43517600D03*
X192998000Y-43517600D03*
X197850000Y-40977600D03*
X192998000Y-40977600D03*
X197850000Y-38437600D03*
X192998000Y-38437600D03*
X197850000Y-35897600D03*
X192998000Y-35897600D03*
%TD*%
%TO.C,J3*%
X172850000Y-63837600D03*
X167998000Y-63837600D03*
X172850000Y-61297600D03*
X167998000Y-61297600D03*
X172850000Y-58757600D03*
X167998000Y-58757600D03*
X172850000Y-56217600D03*
X167998000Y-56217600D03*
X172850000Y-53677600D03*
X167998000Y-53677600D03*
X172850000Y-51137600D03*
X167998000Y-51137600D03*
X172850000Y-48597600D03*
X167998000Y-48597600D03*
X172850000Y-46057600D03*
X167998000Y-46057600D03*
X172850000Y-43517600D03*
X167998000Y-43517600D03*
X172850000Y-40977600D03*
X167998000Y-40977600D03*
X172850000Y-38437600D03*
X167998000Y-38437600D03*
X172850000Y-35897600D03*
X167998000Y-35897600D03*
%TD*%
%TO.C,J2*%
X147850000Y-63837600D03*
X142998000Y-63837600D03*
X147850000Y-61297600D03*
X142998000Y-61297600D03*
X147850000Y-58757600D03*
X142998000Y-58757600D03*
X147850000Y-56217600D03*
X142998000Y-56217600D03*
X147850000Y-53677600D03*
X142998000Y-53677600D03*
X147850000Y-51137600D03*
X142998000Y-51137600D03*
X147850000Y-48597600D03*
X142998000Y-48597600D03*
X147850000Y-46057600D03*
X142998000Y-46057600D03*
X147850000Y-43517600D03*
X142998000Y-43517600D03*
X147850000Y-40977600D03*
X142998000Y-40977600D03*
X147850000Y-38437600D03*
X142998000Y-38437600D03*
X147850000Y-35897600D03*
X142998000Y-35897600D03*
%TD*%
D13*
%TO.C,JP1*%
X310000000Y-81250000D03*
D14*
X308700000Y-81250000D03*
%TD*%
D15*
%TO.C,J14*%
X83000000Y-43750000D03*
D16*
X85500000Y-43750000D03*
%TD*%
D17*
%TO.C,J15*%
X347788800Y-47259500D03*
D18*
X350328800Y-47259500D03*
X352868800Y-47259500D03*
X355408800Y-47259500D03*
X357948800Y-47259500D03*
X360488800Y-47259500D03*
X363028800Y-47259500D03*
X365568800Y-47259500D03*
X368108800Y-47259500D03*
X370648800Y-47259500D03*
X373188800Y-47259500D03*
X375728800Y-47259500D03*
X378268800Y-47259500D03*
X380808800Y-47259500D03*
X383348800Y-47259500D03*
X385888800Y-47259500D03*
X388428800Y-47259500D03*
X390968800Y-47259500D03*
X393508800Y-47259500D03*
X396048800Y-47259500D03*
X398588800Y-47259500D03*
X401128800Y-47259500D03*
X403668800Y-47259500D03*
X406208800Y-47259500D03*
X408748800Y-47259500D03*
X411288800Y-47259500D03*
X413828800Y-47259500D03*
X416368800Y-47259500D03*
X418908800Y-47259500D03*
X421448800Y-47259500D03*
X423988800Y-47259500D03*
X426528800Y-47259500D03*
X426528800Y-42179500D03*
X423988800Y-42179500D03*
X421448800Y-42179500D03*
X418908800Y-42179500D03*
X416368800Y-42179500D03*
X413828800Y-42179500D03*
X411288800Y-42179500D03*
X408748800Y-42179500D03*
X406208800Y-42179500D03*
X403668800Y-42179500D03*
X401128800Y-42179500D03*
X398588800Y-42179500D03*
X396048800Y-42179500D03*
X393508800Y-42179500D03*
X390968800Y-42179500D03*
X388428800Y-42179500D03*
X385888800Y-42179500D03*
X383348800Y-42179500D03*
X380808800Y-42179500D03*
X378268800Y-42179500D03*
X375728800Y-42179500D03*
X373188800Y-42179500D03*
X370648800Y-42179500D03*
X368108800Y-42179500D03*
X365568800Y-42179500D03*
X363028800Y-42179500D03*
X360488800Y-42179500D03*
X357948800Y-42179500D03*
X355408800Y-42179500D03*
X352868800Y-42179500D03*
X350328800Y-42179500D03*
X347788800Y-42179500D03*
%TD*%
D15*
%TO.C,J13*%
X83000000Y-31750000D03*
D16*
X85500000Y-31750000D03*
%TD*%
D10*
%TO.C,J1*%
X122850000Y-63837600D03*
X117998000Y-63837600D03*
X122850000Y-61297600D03*
X117998000Y-61297600D03*
X122850000Y-58757600D03*
X117998000Y-58757600D03*
X122850000Y-56217600D03*
X117998000Y-56217600D03*
X122850000Y-53677600D03*
X117998000Y-53677600D03*
X122850000Y-51137600D03*
X117998000Y-51137600D03*
X122850000Y-48597600D03*
X117998000Y-48597600D03*
X122850000Y-46057600D03*
X117998000Y-46057600D03*
X122850000Y-43517600D03*
X117998000Y-43517600D03*
X122850000Y-40977600D03*
X117998000Y-40977600D03*
X122850000Y-38437600D03*
X117998000Y-38437600D03*
X122850000Y-35897600D03*
X117998000Y-35897600D03*
%TD*%
D11*
%TO.C,R3*%
X411190000Y-35250000D03*
D12*
X418810000Y-35250000D03*
%TD*%
D17*
%TO.C,J11*%
X347788800Y-87259500D03*
D18*
X350328800Y-87259500D03*
X352868800Y-87259500D03*
X355408800Y-87259500D03*
X357948800Y-87259500D03*
X360488800Y-87259500D03*
X363028800Y-87259500D03*
X365568800Y-87259500D03*
X368108800Y-87259500D03*
X370648800Y-87259500D03*
X373188800Y-87259500D03*
X375728800Y-87259500D03*
X378268800Y-87259500D03*
X380808800Y-87259500D03*
X383348800Y-87259500D03*
X385888800Y-87259500D03*
X388428800Y-87259500D03*
X390968800Y-87259500D03*
X393508800Y-87259500D03*
X396048800Y-87259500D03*
X398588800Y-87259500D03*
X401128800Y-87259500D03*
X403668800Y-87259500D03*
X406208800Y-87259500D03*
X408748800Y-87259500D03*
X411288800Y-87259500D03*
X413828800Y-87259500D03*
X416368800Y-87259500D03*
X418908800Y-87259500D03*
X421448800Y-87259500D03*
X423988800Y-87259500D03*
X426528800Y-87259500D03*
X426528800Y-82179500D03*
X423988800Y-82179500D03*
X421448800Y-82179500D03*
X418908800Y-82179500D03*
X416368800Y-82179500D03*
X413828800Y-82179500D03*
X411288800Y-82179500D03*
X408748800Y-82179500D03*
X406208800Y-82179500D03*
X403668800Y-82179500D03*
X401128800Y-82179500D03*
X398588800Y-82179500D03*
X396048800Y-82179500D03*
X393508800Y-82179500D03*
X390968800Y-82179500D03*
X388428800Y-82179500D03*
X385888800Y-82179500D03*
X383348800Y-82179500D03*
X380808800Y-82179500D03*
X378268800Y-82179500D03*
X375728800Y-82179500D03*
X373188800Y-82179500D03*
X370648800Y-82179500D03*
X368108800Y-82179500D03*
X365568800Y-82179500D03*
X363028800Y-82179500D03*
X360488800Y-82179500D03*
X357948800Y-82179500D03*
X355408800Y-82179500D03*
X352868800Y-82179500D03*
X350328800Y-82179500D03*
X347788800Y-82179500D03*
%TD*%
D17*
%TO.C,J10*%
X347788800Y-67259500D03*
D18*
X350328800Y-67259500D03*
X352868800Y-67259500D03*
X355408800Y-67259500D03*
X357948800Y-67259500D03*
X360488800Y-67259500D03*
X363028800Y-67259500D03*
X365568800Y-67259500D03*
X368108800Y-67259500D03*
X370648800Y-67259500D03*
X373188800Y-67259500D03*
X375728800Y-67259500D03*
X378268800Y-67259500D03*
X380808800Y-67259500D03*
X383348800Y-67259500D03*
X385888800Y-67259500D03*
X388428800Y-67259500D03*
X390968800Y-67259500D03*
X393508800Y-67259500D03*
X396048800Y-67259500D03*
X398588800Y-67259500D03*
X401128800Y-67259500D03*
X403668800Y-67259500D03*
X406208800Y-67259500D03*
X408748800Y-67259500D03*
X411288800Y-67259500D03*
X413828800Y-67259500D03*
X416368800Y-67259500D03*
X418908800Y-67259500D03*
X421448800Y-67259500D03*
X423988800Y-67259500D03*
X426528800Y-67259500D03*
X426528800Y-62179500D03*
X423988800Y-62179500D03*
X421448800Y-62179500D03*
X418908800Y-62179500D03*
X416368800Y-62179500D03*
X413828800Y-62179500D03*
X411288800Y-62179500D03*
X408748800Y-62179500D03*
X406208800Y-62179500D03*
X403668800Y-62179500D03*
X401128800Y-62179500D03*
X398588800Y-62179500D03*
X396048800Y-62179500D03*
X393508800Y-62179500D03*
X390968800Y-62179500D03*
X388428800Y-62179500D03*
X385888800Y-62179500D03*
X383348800Y-62179500D03*
X380808800Y-62179500D03*
X378268800Y-62179500D03*
X375728800Y-62179500D03*
X373188800Y-62179500D03*
X370648800Y-62179500D03*
X368108800Y-62179500D03*
X365568800Y-62179500D03*
X363028800Y-62179500D03*
X360488800Y-62179500D03*
X357948800Y-62179500D03*
X355408800Y-62179500D03*
X352868800Y-62179500D03*
X350328800Y-62179500D03*
X347788800Y-62179500D03*
%TD*%
D10*
%TO.C,J6*%
X222850000Y-63837600D03*
X217998000Y-63837600D03*
X222850000Y-61297600D03*
X217998000Y-61297600D03*
X222850000Y-58757600D03*
X217998000Y-58757600D03*
X222850000Y-56217600D03*
X217998000Y-56217600D03*
X222850000Y-53677600D03*
X217998000Y-53677600D03*
X222850000Y-51137600D03*
X217998000Y-51137600D03*
X222850000Y-48597600D03*
X217998000Y-48597600D03*
X222850000Y-46057600D03*
X217998000Y-46057600D03*
X222850000Y-43517600D03*
X217998000Y-43517600D03*
X222850000Y-40977600D03*
X217998000Y-40977600D03*
X222850000Y-38437600D03*
X217998000Y-38437600D03*
X222850000Y-35897600D03*
X217998000Y-35897600D03*
%TD*%
D19*
%TO.C,J5*%
X41875500Y-45217600D03*
D10*
X37024500Y-45217600D03*
X41875500Y-42677600D03*
X37024500Y-42677600D03*
X41875500Y-40137600D03*
X37024500Y-40137600D03*
X41875500Y-37597600D03*
X37024500Y-37597600D03*
X41875500Y-35057600D03*
X37024500Y-35057600D03*
X41875500Y-32517600D03*
X37024500Y-32517600D03*
%TD*%
D11*
%TO.C,R1*%
X411190000Y-55250000D03*
D12*
X418810000Y-55250000D03*
%TD*%
D10*
%TO.C,J9*%
X297850000Y-63837600D03*
X292998000Y-63837600D03*
X297850000Y-61297600D03*
X292998000Y-61297600D03*
X297850000Y-58757600D03*
X292998000Y-58757600D03*
X297850000Y-56217600D03*
X292998000Y-56217600D03*
X297850000Y-53677600D03*
X292998000Y-53677600D03*
X297850000Y-51137600D03*
X292998000Y-51137600D03*
X297850000Y-48597600D03*
X292998000Y-48597600D03*
X297850000Y-46057600D03*
X292998000Y-46057600D03*
X297850000Y-43517600D03*
X292998000Y-43517600D03*
X297850000Y-40977600D03*
X292998000Y-40977600D03*
X297850000Y-38437600D03*
X292998000Y-38437600D03*
X297850000Y-35897600D03*
X292998000Y-35897600D03*
%TD*%
D11*
%TO.C,R2*%
X411190000Y-75250000D03*
D12*
X418810000Y-75250000D03*
%TD*%
D20*
%TO.C,C1*%
X72097300Y-19750000D03*
D11*
X75597300Y-19750000D03*
%TD*%
D13*
%TO.C,JP2*%
X309900000Y-77000000D03*
D14*
X308600000Y-77000000D03*
%TD*%
D11*
%TO.C,R5*%
X74000000Y-47310000D03*
D12*
X74000000Y-39690000D03*
%TD*%
D15*
%TO.C,J12*%
X83000000Y-19750000D03*
D16*
X85500000Y-19750000D03*
%TD*%
D10*
%TO.C,J7*%
X247850000Y-63837600D03*
X242998000Y-63837600D03*
X247850000Y-61297600D03*
X242998000Y-61297600D03*
X247850000Y-58757600D03*
X242998000Y-58757600D03*
X247850000Y-56217600D03*
X242998000Y-56217600D03*
X247850000Y-53677600D03*
X242998000Y-53677600D03*
X247850000Y-51137600D03*
X242998000Y-51137600D03*
X247850000Y-48597600D03*
X242998000Y-48597600D03*
X247850000Y-46057600D03*
X242998000Y-46057600D03*
X247850000Y-43517600D03*
X242998000Y-43517600D03*
X247850000Y-40977600D03*
X242998000Y-40977600D03*
X247850000Y-38437600D03*
X242998000Y-38437600D03*
X247850000Y-35897600D03*
X242998000Y-35897600D03*
%TD*%
M02*
