%TF.GenerationSoftware,KiCad,Pcbnew,(6.0.7)*%
%TF.CreationDate,2023-09-04T09:41:34+01:00*%
%TF.ProjectId,CCC_rig_backplane,4343435f-7269-4675-9f62-61636b706c61,rev?*%
%TF.SameCoordinates,Original*%
%TF.FileFunction,Drillmap*%
%TF.FilePolarity,Positive*%
%FSLAX45Y45*%
G04 Gerber Fmt 4.5, Leading zero omitted, Abs format (unit mm)*
G04 Created by KiCad (PCBNEW (6.0.7)) date 2023-09-04 09:41:34*
%MOMM*%
%LPD*%
G01*
G04 APERTURE LIST*
%ADD10C,0.200000*%
%ADD11C,0.040000*%
%ADD12C,0.080000*%
%ADD13C,0.109220*%
%ADD14C,0.110000*%
%ADD15C,0.140000*%
G04 APERTURE END LIST*
D10*
X1365000Y-1386760D02*
X43765000Y-1386760D01*
X43765000Y-1386760D02*
X43765000Y-9386760D01*
X43765000Y-9386760D02*
X1365000Y-9386760D01*
X1365000Y-9386760D02*
X1365000Y-1386760D01*
D11*
X12633830Y-5748610D02*
X12673830Y-5788610D01*
X12673830Y-5748610D02*
X12633830Y-5788610D01*
X30225540Y-6371950D02*
X30265540Y-6411950D01*
X30265540Y-6371950D02*
X30225540Y-6411950D01*
X42691210Y-5366700D02*
X42731210Y-5406700D01*
X42731210Y-5366700D02*
X42691210Y-5406700D01*
X42828220Y-6554590D02*
X42868220Y-6594590D01*
X42868220Y-6554590D02*
X42828220Y-6594590D01*
X42861410Y-6062510D02*
X42901410Y-6102510D01*
X42901410Y-6062510D02*
X42861410Y-6102510D01*
D12*
X7249730Y-1975000D02*
G75*
G03*
X7249730Y-1975000I-40000J0D01*
G01*
X7440000Y-2769000D02*
G75*
G03*
X7440000Y-2769000I-40000J0D01*
G01*
X7440000Y-3531000D02*
G75*
G03*
X7440000Y-3531000I-40000J0D01*
G01*
X7440000Y-3969000D02*
G75*
G03*
X7440000Y-3969000I-40000J0D01*
G01*
X7440000Y-4731000D02*
G75*
G03*
X7440000Y-4731000I-40000J0D01*
G01*
X7599730Y-1975000D02*
G75*
G03*
X7599730Y-1975000I-40000J0D01*
G01*
X41159000Y-3525000D02*
G75*
G03*
X41159000Y-3525000I-40000J0D01*
G01*
X41159000Y-5525000D02*
G75*
G03*
X41159000Y-5525000I-40000J0D01*
G01*
X41159000Y-7525000D02*
G75*
G03*
X41159000Y-7525000I-40000J0D01*
G01*
X41921000Y-3525000D02*
G75*
G03*
X41921000Y-3525000I-40000J0D01*
G01*
X41921000Y-5525000D02*
G75*
G03*
X41921000Y-5525000I-40000J0D01*
G01*
X41921000Y-7525000D02*
G75*
G03*
X41921000Y-7525000I-40000J0D01*
G01*
D13*
X3702450Y-3197150D02*
X3702450Y-3306370D01*
X3647840Y-3251760D02*
X3757060Y-3251760D01*
X3702450Y-3451150D02*
X3702450Y-3560370D01*
X3647840Y-3505760D02*
X3757060Y-3505760D01*
X3702450Y-3705150D02*
X3702450Y-3814370D01*
X3647840Y-3759760D02*
X3757060Y-3759760D01*
X3702450Y-3959150D02*
X3702450Y-4068370D01*
X3647840Y-4013760D02*
X3757060Y-4013760D01*
X3702450Y-4213150D02*
X3702450Y-4322370D01*
X3647840Y-4267760D02*
X3757060Y-4267760D01*
X3702450Y-4467150D02*
X3702450Y-4576370D01*
X3647840Y-4521760D02*
X3757060Y-4521760D01*
X4187550Y-3197150D02*
X4187550Y-3306370D01*
X4132940Y-3251760D02*
X4242160Y-3251760D01*
X4187550Y-3451150D02*
X4187550Y-3560370D01*
X4132940Y-3505760D02*
X4242160Y-3505760D01*
X4187550Y-3705150D02*
X4187550Y-3814370D01*
X4132940Y-3759760D02*
X4242160Y-3759760D01*
X4187550Y-3959150D02*
X4187550Y-4068370D01*
X4132940Y-4013760D02*
X4242160Y-4013760D01*
X4187550Y-4213150D02*
X4187550Y-4322370D01*
X4132940Y-4267760D02*
X4242160Y-4267760D01*
X4187550Y-4467150D02*
X4187550Y-4576370D01*
X4132940Y-4521760D02*
X4242160Y-4521760D01*
X11799800Y-3535150D02*
X11799800Y-3644370D01*
X11745190Y-3589760D02*
X11854410Y-3589760D01*
X11799800Y-3789150D02*
X11799800Y-3898370D01*
X11745190Y-3843760D02*
X11854410Y-3843760D01*
X11799800Y-4043150D02*
X11799800Y-4152370D01*
X11745190Y-4097760D02*
X11854410Y-4097760D01*
X11799800Y-4297150D02*
X11799800Y-4406370D01*
X11745190Y-4351760D02*
X11854410Y-4351760D01*
X11799800Y-4551150D02*
X11799800Y-4660370D01*
X11745190Y-4605760D02*
X11854410Y-4605760D01*
X11799800Y-4805150D02*
X11799800Y-4914370D01*
X11745190Y-4859760D02*
X11854410Y-4859760D01*
X11799800Y-5059150D02*
X11799800Y-5168370D01*
X11745190Y-5113760D02*
X11854410Y-5113760D01*
X11799800Y-5313150D02*
X11799800Y-5422370D01*
X11745190Y-5367760D02*
X11854410Y-5367760D01*
X11799800Y-5567150D02*
X11799800Y-5676370D01*
X11745190Y-5621760D02*
X11854410Y-5621760D01*
X11799800Y-5821150D02*
X11799800Y-5930370D01*
X11745190Y-5875760D02*
X11854410Y-5875760D01*
X11799800Y-6075150D02*
X11799800Y-6184370D01*
X11745190Y-6129760D02*
X11854410Y-6129760D01*
X11799800Y-6329150D02*
X11799800Y-6438370D01*
X11745190Y-6383760D02*
X11854410Y-6383760D01*
X12285000Y-3535150D02*
X12285000Y-3644370D01*
X12230390Y-3589760D02*
X12339610Y-3589760D01*
X12285000Y-3789150D02*
X12285000Y-3898370D01*
X12230390Y-3843760D02*
X12339610Y-3843760D01*
X12285000Y-4043150D02*
X12285000Y-4152370D01*
X12230390Y-4097760D02*
X12339610Y-4097760D01*
X12285000Y-4297150D02*
X12285000Y-4406370D01*
X12230390Y-4351760D02*
X12339610Y-4351760D01*
X12285000Y-4551150D02*
X12285000Y-4660370D01*
X12230390Y-4605760D02*
X12339610Y-4605760D01*
X12285000Y-4805150D02*
X12285000Y-4914370D01*
X12230390Y-4859760D02*
X12339610Y-4859760D01*
X12285000Y-5059150D02*
X12285000Y-5168370D01*
X12230390Y-5113760D02*
X12339610Y-5113760D01*
X12285000Y-5313150D02*
X12285000Y-5422370D01*
X12230390Y-5367760D02*
X12339610Y-5367760D01*
X12285000Y-5567150D02*
X12285000Y-5676370D01*
X12230390Y-5621760D02*
X12339610Y-5621760D01*
X12285000Y-5821150D02*
X12285000Y-5930370D01*
X12230390Y-5875760D02*
X12339610Y-5875760D01*
X12285000Y-6075150D02*
X12285000Y-6184370D01*
X12230390Y-6129760D02*
X12339610Y-6129760D01*
X12285000Y-6329150D02*
X12285000Y-6438370D01*
X12230390Y-6383760D02*
X12339610Y-6383760D01*
X14299800Y-3535150D02*
X14299800Y-3644370D01*
X14245190Y-3589760D02*
X14354410Y-3589760D01*
X14299800Y-3789150D02*
X14299800Y-3898370D01*
X14245190Y-3843760D02*
X14354410Y-3843760D01*
X14299800Y-4043150D02*
X14299800Y-4152370D01*
X14245190Y-4097760D02*
X14354410Y-4097760D01*
X14299800Y-4297150D02*
X14299800Y-4406370D01*
X14245190Y-4351760D02*
X14354410Y-4351760D01*
X14299800Y-4551150D02*
X14299800Y-4660370D01*
X14245190Y-4605760D02*
X14354410Y-4605760D01*
X14299800Y-4805150D02*
X14299800Y-4914370D01*
X14245190Y-4859760D02*
X14354410Y-4859760D01*
X14299800Y-5059150D02*
X14299800Y-5168370D01*
X14245190Y-5113760D02*
X14354410Y-5113760D01*
X14299800Y-5313150D02*
X14299800Y-5422370D01*
X14245190Y-5367760D02*
X14354410Y-5367760D01*
X14299800Y-5567150D02*
X14299800Y-5676370D01*
X14245190Y-5621760D02*
X14354410Y-5621760D01*
X14299800Y-5821150D02*
X14299800Y-5930370D01*
X14245190Y-5875760D02*
X14354410Y-5875760D01*
X14299800Y-6075150D02*
X14299800Y-6184370D01*
X14245190Y-6129760D02*
X14354410Y-6129760D01*
X14299800Y-6329150D02*
X14299800Y-6438370D01*
X14245190Y-6383760D02*
X14354410Y-6383760D01*
X14785000Y-3535150D02*
X14785000Y-3644370D01*
X14730390Y-3589760D02*
X14839610Y-3589760D01*
X14785000Y-3789150D02*
X14785000Y-3898370D01*
X14730390Y-3843760D02*
X14839610Y-3843760D01*
X14785000Y-4043150D02*
X14785000Y-4152370D01*
X14730390Y-4097760D02*
X14839610Y-4097760D01*
X14785000Y-4297150D02*
X14785000Y-4406370D01*
X14730390Y-4351760D02*
X14839610Y-4351760D01*
X14785000Y-4551150D02*
X14785000Y-4660370D01*
X14730390Y-4605760D02*
X14839610Y-4605760D01*
X14785000Y-4805150D02*
X14785000Y-4914370D01*
X14730390Y-4859760D02*
X14839610Y-4859760D01*
X14785000Y-5059150D02*
X14785000Y-5168370D01*
X14730390Y-5113760D02*
X14839610Y-5113760D01*
X14785000Y-5313150D02*
X14785000Y-5422370D01*
X14730390Y-5367760D02*
X14839610Y-5367760D01*
X14785000Y-5567150D02*
X14785000Y-5676370D01*
X14730390Y-5621760D02*
X14839610Y-5621760D01*
X14785000Y-5821150D02*
X14785000Y-5930370D01*
X14730390Y-5875760D02*
X14839610Y-5875760D01*
X14785000Y-6075150D02*
X14785000Y-6184370D01*
X14730390Y-6129760D02*
X14839610Y-6129760D01*
X14785000Y-6329150D02*
X14785000Y-6438370D01*
X14730390Y-6383760D02*
X14839610Y-6383760D01*
X16799800Y-3535150D02*
X16799800Y-3644370D01*
X16745190Y-3589760D02*
X16854410Y-3589760D01*
X16799800Y-3789150D02*
X16799800Y-3898370D01*
X16745190Y-3843760D02*
X16854410Y-3843760D01*
X16799800Y-4043150D02*
X16799800Y-4152370D01*
X16745190Y-4097760D02*
X16854410Y-4097760D01*
X16799800Y-4297150D02*
X16799800Y-4406370D01*
X16745190Y-4351760D02*
X16854410Y-4351760D01*
X16799800Y-4551150D02*
X16799800Y-4660370D01*
X16745190Y-4605760D02*
X16854410Y-4605760D01*
X16799800Y-4805150D02*
X16799800Y-4914370D01*
X16745190Y-4859760D02*
X16854410Y-4859760D01*
X16799800Y-5059150D02*
X16799800Y-5168370D01*
X16745190Y-5113760D02*
X16854410Y-5113760D01*
X16799800Y-5313150D02*
X16799800Y-5422370D01*
X16745190Y-5367760D02*
X16854410Y-5367760D01*
X16799800Y-5567150D02*
X16799800Y-5676370D01*
X16745190Y-5621760D02*
X16854410Y-5621760D01*
X16799800Y-5821150D02*
X16799800Y-5930370D01*
X16745190Y-5875760D02*
X16854410Y-5875760D01*
X16799800Y-6075150D02*
X16799800Y-6184370D01*
X16745190Y-6129760D02*
X16854410Y-6129760D01*
X16799800Y-6329150D02*
X16799800Y-6438370D01*
X16745190Y-6383760D02*
X16854410Y-6383760D01*
X17285000Y-3535150D02*
X17285000Y-3644370D01*
X17230390Y-3589760D02*
X17339610Y-3589760D01*
X17285000Y-3789150D02*
X17285000Y-3898370D01*
X17230390Y-3843760D02*
X17339610Y-3843760D01*
X17285000Y-4043150D02*
X17285000Y-4152370D01*
X17230390Y-4097760D02*
X17339610Y-4097760D01*
X17285000Y-4297150D02*
X17285000Y-4406370D01*
X17230390Y-4351760D02*
X17339610Y-4351760D01*
X17285000Y-4551150D02*
X17285000Y-4660370D01*
X17230390Y-4605760D02*
X17339610Y-4605760D01*
X17285000Y-4805150D02*
X17285000Y-4914370D01*
X17230390Y-4859760D02*
X17339610Y-4859760D01*
X17285000Y-5059150D02*
X17285000Y-5168370D01*
X17230390Y-5113760D02*
X17339610Y-5113760D01*
X17285000Y-5313150D02*
X17285000Y-5422370D01*
X17230390Y-5367760D02*
X17339610Y-5367760D01*
X17285000Y-5567150D02*
X17285000Y-5676370D01*
X17230390Y-5621760D02*
X17339610Y-5621760D01*
X17285000Y-5821150D02*
X17285000Y-5930370D01*
X17230390Y-5875760D02*
X17339610Y-5875760D01*
X17285000Y-6075150D02*
X17285000Y-6184370D01*
X17230390Y-6129760D02*
X17339610Y-6129760D01*
X17285000Y-6329150D02*
X17285000Y-6438370D01*
X17230390Y-6383760D02*
X17339610Y-6383760D01*
X19299800Y-3535150D02*
X19299800Y-3644370D01*
X19245190Y-3589760D02*
X19354410Y-3589760D01*
X19299800Y-3789150D02*
X19299800Y-3898370D01*
X19245190Y-3843760D02*
X19354410Y-3843760D01*
X19299800Y-4043150D02*
X19299800Y-4152370D01*
X19245190Y-4097760D02*
X19354410Y-4097760D01*
X19299800Y-4297150D02*
X19299800Y-4406370D01*
X19245190Y-4351760D02*
X19354410Y-4351760D01*
X19299800Y-4551150D02*
X19299800Y-4660370D01*
X19245190Y-4605760D02*
X19354410Y-4605760D01*
X19299800Y-4805150D02*
X19299800Y-4914370D01*
X19245190Y-4859760D02*
X19354410Y-4859760D01*
X19299800Y-5059150D02*
X19299800Y-5168370D01*
X19245190Y-5113760D02*
X19354410Y-5113760D01*
X19299800Y-5313150D02*
X19299800Y-5422370D01*
X19245190Y-5367760D02*
X19354410Y-5367760D01*
X19299800Y-5567150D02*
X19299800Y-5676370D01*
X19245190Y-5621760D02*
X19354410Y-5621760D01*
X19299800Y-5821150D02*
X19299800Y-5930370D01*
X19245190Y-5875760D02*
X19354410Y-5875760D01*
X19299800Y-6075150D02*
X19299800Y-6184370D01*
X19245190Y-6129760D02*
X19354410Y-6129760D01*
X19299800Y-6329150D02*
X19299800Y-6438370D01*
X19245190Y-6383760D02*
X19354410Y-6383760D01*
X19785000Y-3535150D02*
X19785000Y-3644370D01*
X19730390Y-3589760D02*
X19839610Y-3589760D01*
X19785000Y-3789150D02*
X19785000Y-3898370D01*
X19730390Y-3843760D02*
X19839610Y-3843760D01*
X19785000Y-4043150D02*
X19785000Y-4152370D01*
X19730390Y-4097760D02*
X19839610Y-4097760D01*
X19785000Y-4297150D02*
X19785000Y-4406370D01*
X19730390Y-4351760D02*
X19839610Y-4351760D01*
X19785000Y-4551150D02*
X19785000Y-4660370D01*
X19730390Y-4605760D02*
X19839610Y-4605760D01*
X19785000Y-4805150D02*
X19785000Y-4914370D01*
X19730390Y-4859760D02*
X19839610Y-4859760D01*
X19785000Y-5059150D02*
X19785000Y-5168370D01*
X19730390Y-5113760D02*
X19839610Y-5113760D01*
X19785000Y-5313150D02*
X19785000Y-5422370D01*
X19730390Y-5367760D02*
X19839610Y-5367760D01*
X19785000Y-5567150D02*
X19785000Y-5676370D01*
X19730390Y-5621760D02*
X19839610Y-5621760D01*
X19785000Y-5821150D02*
X19785000Y-5930370D01*
X19730390Y-5875760D02*
X19839610Y-5875760D01*
X19785000Y-6075150D02*
X19785000Y-6184370D01*
X19730390Y-6129760D02*
X19839610Y-6129760D01*
X19785000Y-6329150D02*
X19785000Y-6438370D01*
X19730390Y-6383760D02*
X19839610Y-6383760D01*
X21799800Y-3535150D02*
X21799800Y-3644370D01*
X21745190Y-3589760D02*
X21854410Y-3589760D01*
X21799800Y-3789150D02*
X21799800Y-3898370D01*
X21745190Y-3843760D02*
X21854410Y-3843760D01*
X21799800Y-4043150D02*
X21799800Y-4152370D01*
X21745190Y-4097760D02*
X21854410Y-4097760D01*
X21799800Y-4297150D02*
X21799800Y-4406370D01*
X21745190Y-4351760D02*
X21854410Y-4351760D01*
X21799800Y-4551150D02*
X21799800Y-4660370D01*
X21745190Y-4605760D02*
X21854410Y-4605760D01*
X21799800Y-4805150D02*
X21799800Y-4914370D01*
X21745190Y-4859760D02*
X21854410Y-4859760D01*
X21799800Y-5059150D02*
X21799800Y-5168370D01*
X21745190Y-5113760D02*
X21854410Y-5113760D01*
X21799800Y-5313150D02*
X21799800Y-5422370D01*
X21745190Y-5367760D02*
X21854410Y-5367760D01*
X21799800Y-5567150D02*
X21799800Y-5676370D01*
X21745190Y-5621760D02*
X21854410Y-5621760D01*
X21799800Y-5821150D02*
X21799800Y-5930370D01*
X21745190Y-5875760D02*
X21854410Y-5875760D01*
X21799800Y-6075150D02*
X21799800Y-6184370D01*
X21745190Y-6129760D02*
X21854410Y-6129760D01*
X21799800Y-6329150D02*
X21799800Y-6438370D01*
X21745190Y-6383760D02*
X21854410Y-6383760D01*
X22285000Y-3535150D02*
X22285000Y-3644370D01*
X22230390Y-3589760D02*
X22339610Y-3589760D01*
X22285000Y-3789150D02*
X22285000Y-3898370D01*
X22230390Y-3843760D02*
X22339610Y-3843760D01*
X22285000Y-4043150D02*
X22285000Y-4152370D01*
X22230390Y-4097760D02*
X22339610Y-4097760D01*
X22285000Y-4297150D02*
X22285000Y-4406370D01*
X22230390Y-4351760D02*
X22339610Y-4351760D01*
X22285000Y-4551150D02*
X22285000Y-4660370D01*
X22230390Y-4605760D02*
X22339610Y-4605760D01*
X22285000Y-4805150D02*
X22285000Y-4914370D01*
X22230390Y-4859760D02*
X22339610Y-4859760D01*
X22285000Y-5059150D02*
X22285000Y-5168370D01*
X22230390Y-5113760D02*
X22339610Y-5113760D01*
X22285000Y-5313150D02*
X22285000Y-5422370D01*
X22230390Y-5367760D02*
X22339610Y-5367760D01*
X22285000Y-5567150D02*
X22285000Y-5676370D01*
X22230390Y-5621760D02*
X22339610Y-5621760D01*
X22285000Y-5821150D02*
X22285000Y-5930370D01*
X22230390Y-5875760D02*
X22339610Y-5875760D01*
X22285000Y-6075150D02*
X22285000Y-6184370D01*
X22230390Y-6129760D02*
X22339610Y-6129760D01*
X22285000Y-6329150D02*
X22285000Y-6438370D01*
X22230390Y-6383760D02*
X22339610Y-6383760D01*
X24299800Y-3535150D02*
X24299800Y-3644370D01*
X24245190Y-3589760D02*
X24354410Y-3589760D01*
X24299800Y-3789150D02*
X24299800Y-3898370D01*
X24245190Y-3843760D02*
X24354410Y-3843760D01*
X24299800Y-4043150D02*
X24299800Y-4152370D01*
X24245190Y-4097760D02*
X24354410Y-4097760D01*
X24299800Y-4297150D02*
X24299800Y-4406370D01*
X24245190Y-4351760D02*
X24354410Y-4351760D01*
X24299800Y-4551150D02*
X24299800Y-4660370D01*
X24245190Y-4605760D02*
X24354410Y-4605760D01*
X24299800Y-4805150D02*
X24299800Y-4914370D01*
X24245190Y-4859760D02*
X24354410Y-4859760D01*
X24299800Y-5059150D02*
X24299800Y-5168370D01*
X24245190Y-5113760D02*
X24354410Y-5113760D01*
X24299800Y-5313150D02*
X24299800Y-5422370D01*
X24245190Y-5367760D02*
X24354410Y-5367760D01*
X24299800Y-5567150D02*
X24299800Y-5676370D01*
X24245190Y-5621760D02*
X24354410Y-5621760D01*
X24299800Y-5821150D02*
X24299800Y-5930370D01*
X24245190Y-5875760D02*
X24354410Y-5875760D01*
X24299800Y-6075150D02*
X24299800Y-6184370D01*
X24245190Y-6129760D02*
X24354410Y-6129760D01*
X24299800Y-6329150D02*
X24299800Y-6438370D01*
X24245190Y-6383760D02*
X24354410Y-6383760D01*
X24785000Y-3535150D02*
X24785000Y-3644370D01*
X24730390Y-3589760D02*
X24839610Y-3589760D01*
X24785000Y-3789150D02*
X24785000Y-3898370D01*
X24730390Y-3843760D02*
X24839610Y-3843760D01*
X24785000Y-4043150D02*
X24785000Y-4152370D01*
X24730390Y-4097760D02*
X24839610Y-4097760D01*
X24785000Y-4297150D02*
X24785000Y-4406370D01*
X24730390Y-4351760D02*
X24839610Y-4351760D01*
X24785000Y-4551150D02*
X24785000Y-4660370D01*
X24730390Y-4605760D02*
X24839610Y-4605760D01*
X24785000Y-4805150D02*
X24785000Y-4914370D01*
X24730390Y-4859760D02*
X24839610Y-4859760D01*
X24785000Y-5059150D02*
X24785000Y-5168370D01*
X24730390Y-5113760D02*
X24839610Y-5113760D01*
X24785000Y-5313150D02*
X24785000Y-5422370D01*
X24730390Y-5367760D02*
X24839610Y-5367760D01*
X24785000Y-5567150D02*
X24785000Y-5676370D01*
X24730390Y-5621760D02*
X24839610Y-5621760D01*
X24785000Y-5821150D02*
X24785000Y-5930370D01*
X24730390Y-5875760D02*
X24839610Y-5875760D01*
X24785000Y-6075150D02*
X24785000Y-6184370D01*
X24730390Y-6129760D02*
X24839610Y-6129760D01*
X24785000Y-6329150D02*
X24785000Y-6438370D01*
X24730390Y-6383760D02*
X24839610Y-6383760D01*
X26799800Y-3535150D02*
X26799800Y-3644370D01*
X26745190Y-3589760D02*
X26854410Y-3589760D01*
X26799800Y-3789150D02*
X26799800Y-3898370D01*
X26745190Y-3843760D02*
X26854410Y-3843760D01*
X26799800Y-4043150D02*
X26799800Y-4152370D01*
X26745190Y-4097760D02*
X26854410Y-4097760D01*
X26799800Y-4297150D02*
X26799800Y-4406370D01*
X26745190Y-4351760D02*
X26854410Y-4351760D01*
X26799800Y-4551150D02*
X26799800Y-4660370D01*
X26745190Y-4605760D02*
X26854410Y-4605760D01*
X26799800Y-4805150D02*
X26799800Y-4914370D01*
X26745190Y-4859760D02*
X26854410Y-4859760D01*
X26799800Y-5059150D02*
X26799800Y-5168370D01*
X26745190Y-5113760D02*
X26854410Y-5113760D01*
X26799800Y-5313150D02*
X26799800Y-5422370D01*
X26745190Y-5367760D02*
X26854410Y-5367760D01*
X26799800Y-5567150D02*
X26799800Y-5676370D01*
X26745190Y-5621760D02*
X26854410Y-5621760D01*
X26799800Y-5821150D02*
X26799800Y-5930370D01*
X26745190Y-5875760D02*
X26854410Y-5875760D01*
X26799800Y-6075150D02*
X26799800Y-6184370D01*
X26745190Y-6129760D02*
X26854410Y-6129760D01*
X26799800Y-6329150D02*
X26799800Y-6438370D01*
X26745190Y-6383760D02*
X26854410Y-6383760D01*
X27285000Y-3535150D02*
X27285000Y-3644370D01*
X27230390Y-3589760D02*
X27339610Y-3589760D01*
X27285000Y-3789150D02*
X27285000Y-3898370D01*
X27230390Y-3843760D02*
X27339610Y-3843760D01*
X27285000Y-4043150D02*
X27285000Y-4152370D01*
X27230390Y-4097760D02*
X27339610Y-4097760D01*
X27285000Y-4297150D02*
X27285000Y-4406370D01*
X27230390Y-4351760D02*
X27339610Y-4351760D01*
X27285000Y-4551150D02*
X27285000Y-4660370D01*
X27230390Y-4605760D02*
X27339610Y-4605760D01*
X27285000Y-4805150D02*
X27285000Y-4914370D01*
X27230390Y-4859760D02*
X27339610Y-4859760D01*
X27285000Y-5059150D02*
X27285000Y-5168370D01*
X27230390Y-5113760D02*
X27339610Y-5113760D01*
X27285000Y-5313150D02*
X27285000Y-5422370D01*
X27230390Y-5367760D02*
X27339610Y-5367760D01*
X27285000Y-5567150D02*
X27285000Y-5676370D01*
X27230390Y-5621760D02*
X27339610Y-5621760D01*
X27285000Y-5821150D02*
X27285000Y-5930370D01*
X27230390Y-5875760D02*
X27339610Y-5875760D01*
X27285000Y-6075150D02*
X27285000Y-6184370D01*
X27230390Y-6129760D02*
X27339610Y-6129760D01*
X27285000Y-6329150D02*
X27285000Y-6438370D01*
X27230390Y-6383760D02*
X27339610Y-6383760D01*
X29299800Y-3535150D02*
X29299800Y-3644370D01*
X29245190Y-3589760D02*
X29354410Y-3589760D01*
X29299800Y-3789150D02*
X29299800Y-3898370D01*
X29245190Y-3843760D02*
X29354410Y-3843760D01*
X29299800Y-4043150D02*
X29299800Y-4152370D01*
X29245190Y-4097760D02*
X29354410Y-4097760D01*
X29299800Y-4297150D02*
X29299800Y-4406370D01*
X29245190Y-4351760D02*
X29354410Y-4351760D01*
X29299800Y-4551150D02*
X29299800Y-4660370D01*
X29245190Y-4605760D02*
X29354410Y-4605760D01*
X29299800Y-4805150D02*
X29299800Y-4914370D01*
X29245190Y-4859760D02*
X29354410Y-4859760D01*
X29299800Y-5059150D02*
X29299800Y-5168370D01*
X29245190Y-5113760D02*
X29354410Y-5113760D01*
X29299800Y-5313150D02*
X29299800Y-5422370D01*
X29245190Y-5367760D02*
X29354410Y-5367760D01*
X29299800Y-5567150D02*
X29299800Y-5676370D01*
X29245190Y-5621760D02*
X29354410Y-5621760D01*
X29299800Y-5821150D02*
X29299800Y-5930370D01*
X29245190Y-5875760D02*
X29354410Y-5875760D01*
X29299800Y-6075150D02*
X29299800Y-6184370D01*
X29245190Y-6129760D02*
X29354410Y-6129760D01*
X29299800Y-6329150D02*
X29299800Y-6438370D01*
X29245190Y-6383760D02*
X29354410Y-6383760D01*
X29785000Y-3535150D02*
X29785000Y-3644370D01*
X29730390Y-3589760D02*
X29839610Y-3589760D01*
X29785000Y-3789150D02*
X29785000Y-3898370D01*
X29730390Y-3843760D02*
X29839610Y-3843760D01*
X29785000Y-4043150D02*
X29785000Y-4152370D01*
X29730390Y-4097760D02*
X29839610Y-4097760D01*
X29785000Y-4297150D02*
X29785000Y-4406370D01*
X29730390Y-4351760D02*
X29839610Y-4351760D01*
X29785000Y-4551150D02*
X29785000Y-4660370D01*
X29730390Y-4605760D02*
X29839610Y-4605760D01*
X29785000Y-4805150D02*
X29785000Y-4914370D01*
X29730390Y-4859760D02*
X29839610Y-4859760D01*
X29785000Y-5059150D02*
X29785000Y-5168370D01*
X29730390Y-5113760D02*
X29839610Y-5113760D01*
X29785000Y-5313150D02*
X29785000Y-5422370D01*
X29730390Y-5367760D02*
X29839610Y-5367760D01*
X29785000Y-5567150D02*
X29785000Y-5676370D01*
X29730390Y-5621760D02*
X29839610Y-5621760D01*
X29785000Y-5821150D02*
X29785000Y-5930370D01*
X29730390Y-5875760D02*
X29839610Y-5875760D01*
X29785000Y-6075150D02*
X29785000Y-6184370D01*
X29730390Y-6129760D02*
X29839610Y-6129760D01*
X29785000Y-6329150D02*
X29785000Y-6438370D01*
X29730390Y-6383760D02*
X29839610Y-6383760D01*
D14*
X34817771Y-4256841D02*
X34817771Y-4179059D01*
X34739989Y-4179059D01*
X34739989Y-4256841D01*
X34817771Y-4256841D01*
X34817771Y-4764841D02*
X34817771Y-4687059D01*
X34739989Y-4687059D01*
X34739989Y-4764841D01*
X34817771Y-4764841D01*
X34817771Y-6256841D02*
X34817771Y-6179059D01*
X34739989Y-6179059D01*
X34739989Y-6256841D01*
X34817771Y-6256841D01*
X34817771Y-6764841D02*
X34817771Y-6687059D01*
X34739989Y-6687059D01*
X34739989Y-6764841D01*
X34817771Y-6764841D01*
X34817771Y-8256841D02*
X34817771Y-8179059D01*
X34739989Y-8179059D01*
X34739989Y-8256841D01*
X34817771Y-8256841D01*
X34817771Y-8764841D02*
X34817771Y-8687059D01*
X34739989Y-8687059D01*
X34739989Y-8764841D01*
X34817771Y-8764841D01*
X35071771Y-4256841D02*
X35071771Y-4179059D01*
X34993989Y-4179059D01*
X34993989Y-4256841D01*
X35071771Y-4256841D01*
X35071771Y-4764841D02*
X35071771Y-4687059D01*
X34993989Y-4687059D01*
X34993989Y-4764841D01*
X35071771Y-4764841D01*
X35071771Y-6256841D02*
X35071771Y-6179059D01*
X34993989Y-6179059D01*
X34993989Y-6256841D01*
X35071771Y-6256841D01*
X35071771Y-6764841D02*
X35071771Y-6687059D01*
X34993989Y-6687059D01*
X34993989Y-6764841D01*
X35071771Y-6764841D01*
X35071771Y-8256841D02*
X35071771Y-8179059D01*
X34993989Y-8179059D01*
X34993989Y-8256841D01*
X35071771Y-8256841D01*
X35071771Y-8764841D02*
X35071771Y-8687059D01*
X34993989Y-8687059D01*
X34993989Y-8764841D01*
X35071771Y-8764841D01*
X35325771Y-4256841D02*
X35325771Y-4179059D01*
X35247989Y-4179059D01*
X35247989Y-4256841D01*
X35325771Y-4256841D01*
X35325771Y-4764841D02*
X35325771Y-4687059D01*
X35247989Y-4687059D01*
X35247989Y-4764841D01*
X35325771Y-4764841D01*
X35325771Y-6256841D02*
X35325771Y-6179059D01*
X35247989Y-6179059D01*
X35247989Y-6256841D01*
X35325771Y-6256841D01*
X35325771Y-6764841D02*
X35325771Y-6687059D01*
X35247989Y-6687059D01*
X35247989Y-6764841D01*
X35325771Y-6764841D01*
X35325771Y-8256841D02*
X35325771Y-8179059D01*
X35247989Y-8179059D01*
X35247989Y-8256841D01*
X35325771Y-8256841D01*
X35325771Y-8764841D02*
X35325771Y-8687059D01*
X35247989Y-8687059D01*
X35247989Y-8764841D01*
X35325771Y-8764841D01*
X35579771Y-4256841D02*
X35579771Y-4179059D01*
X35501989Y-4179059D01*
X35501989Y-4256841D01*
X35579771Y-4256841D01*
X35579771Y-4764841D02*
X35579771Y-4687059D01*
X35501989Y-4687059D01*
X35501989Y-4764841D01*
X35579771Y-4764841D01*
X35579771Y-6256841D02*
X35579771Y-6179059D01*
X35501989Y-6179059D01*
X35501989Y-6256841D01*
X35579771Y-6256841D01*
X35579771Y-6764841D02*
X35579771Y-6687059D01*
X35501989Y-6687059D01*
X35501989Y-6764841D01*
X35579771Y-6764841D01*
X35579771Y-8256841D02*
X35579771Y-8179059D01*
X35501989Y-8179059D01*
X35501989Y-8256841D01*
X35579771Y-8256841D01*
X35579771Y-8764841D02*
X35579771Y-8687059D01*
X35501989Y-8687059D01*
X35501989Y-8764841D01*
X35579771Y-8764841D01*
X35833771Y-4256841D02*
X35833771Y-4179059D01*
X35755989Y-4179059D01*
X35755989Y-4256841D01*
X35833771Y-4256841D01*
X35833771Y-4764841D02*
X35833771Y-4687059D01*
X35755989Y-4687059D01*
X35755989Y-4764841D01*
X35833771Y-4764841D01*
X35833771Y-6256841D02*
X35833771Y-6179059D01*
X35755989Y-6179059D01*
X35755989Y-6256841D01*
X35833771Y-6256841D01*
X35833771Y-6764841D02*
X35833771Y-6687059D01*
X35755989Y-6687059D01*
X35755989Y-6764841D01*
X35833771Y-6764841D01*
X35833771Y-8256841D02*
X35833771Y-8179059D01*
X35755989Y-8179059D01*
X35755989Y-8256841D01*
X35833771Y-8256841D01*
X35833771Y-8764841D02*
X35833771Y-8687059D01*
X35755989Y-8687059D01*
X35755989Y-8764841D01*
X35833771Y-8764841D01*
X36087771Y-4256841D02*
X36087771Y-4179059D01*
X36009989Y-4179059D01*
X36009989Y-4256841D01*
X36087771Y-4256841D01*
X36087771Y-4764841D02*
X36087771Y-4687059D01*
X36009989Y-4687059D01*
X36009989Y-4764841D01*
X36087771Y-4764841D01*
X36087771Y-6256841D02*
X36087771Y-6179059D01*
X36009989Y-6179059D01*
X36009989Y-6256841D01*
X36087771Y-6256841D01*
X36087771Y-6764841D02*
X36087771Y-6687059D01*
X36009989Y-6687059D01*
X36009989Y-6764841D01*
X36087771Y-6764841D01*
X36087771Y-8256841D02*
X36087771Y-8179059D01*
X36009989Y-8179059D01*
X36009989Y-8256841D01*
X36087771Y-8256841D01*
X36087771Y-8764841D02*
X36087771Y-8687059D01*
X36009989Y-8687059D01*
X36009989Y-8764841D01*
X36087771Y-8764841D01*
X36341771Y-4256841D02*
X36341771Y-4179059D01*
X36263989Y-4179059D01*
X36263989Y-4256841D01*
X36341771Y-4256841D01*
X36341771Y-4764841D02*
X36341771Y-4687059D01*
X36263989Y-4687059D01*
X36263989Y-4764841D01*
X36341771Y-4764841D01*
X36341771Y-6256841D02*
X36341771Y-6179059D01*
X36263989Y-6179059D01*
X36263989Y-6256841D01*
X36341771Y-6256841D01*
X36341771Y-6764841D02*
X36341771Y-6687059D01*
X36263989Y-6687059D01*
X36263989Y-6764841D01*
X36341771Y-6764841D01*
X36341771Y-8256841D02*
X36341771Y-8179059D01*
X36263989Y-8179059D01*
X36263989Y-8256841D01*
X36341771Y-8256841D01*
X36341771Y-8764841D02*
X36341771Y-8687059D01*
X36263989Y-8687059D01*
X36263989Y-8764841D01*
X36341771Y-8764841D01*
X36595771Y-4256841D02*
X36595771Y-4179059D01*
X36517989Y-4179059D01*
X36517989Y-4256841D01*
X36595771Y-4256841D01*
X36595771Y-4764841D02*
X36595771Y-4687059D01*
X36517989Y-4687059D01*
X36517989Y-4764841D01*
X36595771Y-4764841D01*
X36595771Y-6256841D02*
X36595771Y-6179059D01*
X36517989Y-6179059D01*
X36517989Y-6256841D01*
X36595771Y-6256841D01*
X36595771Y-6764841D02*
X36595771Y-6687059D01*
X36517989Y-6687059D01*
X36517989Y-6764841D01*
X36595771Y-6764841D01*
X36595771Y-8256841D02*
X36595771Y-8179059D01*
X36517989Y-8179059D01*
X36517989Y-8256841D01*
X36595771Y-8256841D01*
X36595771Y-8764841D02*
X36595771Y-8687059D01*
X36517989Y-8687059D01*
X36517989Y-8764841D01*
X36595771Y-8764841D01*
X36849771Y-4256841D02*
X36849771Y-4179059D01*
X36771989Y-4179059D01*
X36771989Y-4256841D01*
X36849771Y-4256841D01*
X36849771Y-4764841D02*
X36849771Y-4687059D01*
X36771989Y-4687059D01*
X36771989Y-4764841D01*
X36849771Y-4764841D01*
X36849771Y-6256841D02*
X36849771Y-6179059D01*
X36771989Y-6179059D01*
X36771989Y-6256841D01*
X36849771Y-6256841D01*
X36849771Y-6764841D02*
X36849771Y-6687059D01*
X36771989Y-6687059D01*
X36771989Y-6764841D01*
X36849771Y-6764841D01*
X36849771Y-8256841D02*
X36849771Y-8179059D01*
X36771989Y-8179059D01*
X36771989Y-8256841D01*
X36849771Y-8256841D01*
X36849771Y-8764841D02*
X36849771Y-8687059D01*
X36771989Y-8687059D01*
X36771989Y-8764841D01*
X36849771Y-8764841D01*
X37103771Y-4256841D02*
X37103771Y-4179059D01*
X37025989Y-4179059D01*
X37025989Y-4256841D01*
X37103771Y-4256841D01*
X37103771Y-4764841D02*
X37103771Y-4687059D01*
X37025989Y-4687059D01*
X37025989Y-4764841D01*
X37103771Y-4764841D01*
X37103771Y-6256841D02*
X37103771Y-6179059D01*
X37025989Y-6179059D01*
X37025989Y-6256841D01*
X37103771Y-6256841D01*
X37103771Y-6764841D02*
X37103771Y-6687059D01*
X37025989Y-6687059D01*
X37025989Y-6764841D01*
X37103771Y-6764841D01*
X37103771Y-8256841D02*
X37103771Y-8179059D01*
X37025989Y-8179059D01*
X37025989Y-8256841D01*
X37103771Y-8256841D01*
X37103771Y-8764841D02*
X37103771Y-8687059D01*
X37025989Y-8687059D01*
X37025989Y-8764841D01*
X37103771Y-8764841D01*
X37357771Y-4256841D02*
X37357771Y-4179059D01*
X37279989Y-4179059D01*
X37279989Y-4256841D01*
X37357771Y-4256841D01*
X37357771Y-4764841D02*
X37357771Y-4687059D01*
X37279989Y-4687059D01*
X37279989Y-4764841D01*
X37357771Y-4764841D01*
X37357771Y-6256841D02*
X37357771Y-6179059D01*
X37279989Y-6179059D01*
X37279989Y-6256841D01*
X37357771Y-6256841D01*
X37357771Y-6764841D02*
X37357771Y-6687059D01*
X37279989Y-6687059D01*
X37279989Y-6764841D01*
X37357771Y-6764841D01*
X37357771Y-8256841D02*
X37357771Y-8179059D01*
X37279989Y-8179059D01*
X37279989Y-8256841D01*
X37357771Y-8256841D01*
X37357771Y-8764841D02*
X37357771Y-8687059D01*
X37279989Y-8687059D01*
X37279989Y-8764841D01*
X37357771Y-8764841D01*
X37611771Y-4256841D02*
X37611771Y-4179059D01*
X37533989Y-4179059D01*
X37533989Y-4256841D01*
X37611771Y-4256841D01*
X37611771Y-4764841D02*
X37611771Y-4687059D01*
X37533989Y-4687059D01*
X37533989Y-4764841D01*
X37611771Y-4764841D01*
X37611771Y-6256841D02*
X37611771Y-6179059D01*
X37533989Y-6179059D01*
X37533989Y-6256841D01*
X37611771Y-6256841D01*
X37611771Y-6764841D02*
X37611771Y-6687059D01*
X37533989Y-6687059D01*
X37533989Y-6764841D01*
X37611771Y-6764841D01*
X37611771Y-8256841D02*
X37611771Y-8179059D01*
X37533989Y-8179059D01*
X37533989Y-8256841D01*
X37611771Y-8256841D01*
X37611771Y-8764841D02*
X37611771Y-8687059D01*
X37533989Y-8687059D01*
X37533989Y-8764841D01*
X37611771Y-8764841D01*
X37865771Y-4256841D02*
X37865771Y-4179059D01*
X37787989Y-4179059D01*
X37787989Y-4256841D01*
X37865771Y-4256841D01*
X37865771Y-4764841D02*
X37865771Y-4687059D01*
X37787989Y-4687059D01*
X37787989Y-4764841D01*
X37865771Y-4764841D01*
X37865771Y-6256841D02*
X37865771Y-6179059D01*
X37787989Y-6179059D01*
X37787989Y-6256841D01*
X37865771Y-6256841D01*
X37865771Y-6764841D02*
X37865771Y-6687059D01*
X37787989Y-6687059D01*
X37787989Y-6764841D01*
X37865771Y-6764841D01*
X37865771Y-8256841D02*
X37865771Y-8179059D01*
X37787989Y-8179059D01*
X37787989Y-8256841D01*
X37865771Y-8256841D01*
X37865771Y-8764841D02*
X37865771Y-8687059D01*
X37787989Y-8687059D01*
X37787989Y-8764841D01*
X37865771Y-8764841D01*
X38119771Y-4256841D02*
X38119771Y-4179059D01*
X38041989Y-4179059D01*
X38041989Y-4256841D01*
X38119771Y-4256841D01*
X38119771Y-4764841D02*
X38119771Y-4687059D01*
X38041989Y-4687059D01*
X38041989Y-4764841D01*
X38119771Y-4764841D01*
X38119771Y-6256841D02*
X38119771Y-6179059D01*
X38041989Y-6179059D01*
X38041989Y-6256841D01*
X38119771Y-6256841D01*
X38119771Y-6764841D02*
X38119771Y-6687059D01*
X38041989Y-6687059D01*
X38041989Y-6764841D01*
X38119771Y-6764841D01*
X38119771Y-8256841D02*
X38119771Y-8179059D01*
X38041989Y-8179059D01*
X38041989Y-8256841D01*
X38119771Y-8256841D01*
X38119771Y-8764841D02*
X38119771Y-8687059D01*
X38041989Y-8687059D01*
X38041989Y-8764841D01*
X38119771Y-8764841D01*
X38373771Y-4256841D02*
X38373771Y-4179059D01*
X38295989Y-4179059D01*
X38295989Y-4256841D01*
X38373771Y-4256841D01*
X38373771Y-4764841D02*
X38373771Y-4687059D01*
X38295989Y-4687059D01*
X38295989Y-4764841D01*
X38373771Y-4764841D01*
X38373771Y-6256841D02*
X38373771Y-6179059D01*
X38295989Y-6179059D01*
X38295989Y-6256841D01*
X38373771Y-6256841D01*
X38373771Y-6764841D02*
X38373771Y-6687059D01*
X38295989Y-6687059D01*
X38295989Y-6764841D01*
X38373771Y-6764841D01*
X38373771Y-8256841D02*
X38373771Y-8179059D01*
X38295989Y-8179059D01*
X38295989Y-8256841D01*
X38373771Y-8256841D01*
X38373771Y-8764841D02*
X38373771Y-8687059D01*
X38295989Y-8687059D01*
X38295989Y-8764841D01*
X38373771Y-8764841D01*
X38627771Y-4256841D02*
X38627771Y-4179059D01*
X38549989Y-4179059D01*
X38549989Y-4256841D01*
X38627771Y-4256841D01*
X38627771Y-4764841D02*
X38627771Y-4687059D01*
X38549989Y-4687059D01*
X38549989Y-4764841D01*
X38627771Y-4764841D01*
X38627771Y-6256841D02*
X38627771Y-6179059D01*
X38549989Y-6179059D01*
X38549989Y-6256841D01*
X38627771Y-6256841D01*
X38627771Y-6764841D02*
X38627771Y-6687059D01*
X38549989Y-6687059D01*
X38549989Y-6764841D01*
X38627771Y-6764841D01*
X38627771Y-8256841D02*
X38627771Y-8179059D01*
X38549989Y-8179059D01*
X38549989Y-8256841D01*
X38627771Y-8256841D01*
X38627771Y-8764841D02*
X38627771Y-8687059D01*
X38549989Y-8687059D01*
X38549989Y-8764841D01*
X38627771Y-8764841D01*
X38881771Y-4256841D02*
X38881771Y-4179059D01*
X38803989Y-4179059D01*
X38803989Y-4256841D01*
X38881771Y-4256841D01*
X38881771Y-4764841D02*
X38881771Y-4687059D01*
X38803989Y-4687059D01*
X38803989Y-4764841D01*
X38881771Y-4764841D01*
X38881771Y-6256841D02*
X38881771Y-6179059D01*
X38803989Y-6179059D01*
X38803989Y-6256841D01*
X38881771Y-6256841D01*
X38881771Y-6764841D02*
X38881771Y-6687059D01*
X38803989Y-6687059D01*
X38803989Y-6764841D01*
X38881771Y-6764841D01*
X38881771Y-8256841D02*
X38881771Y-8179059D01*
X38803989Y-8179059D01*
X38803989Y-8256841D01*
X38881771Y-8256841D01*
X38881771Y-8764841D02*
X38881771Y-8687059D01*
X38803989Y-8687059D01*
X38803989Y-8764841D01*
X38881771Y-8764841D01*
X39135771Y-4256841D02*
X39135771Y-4179059D01*
X39057989Y-4179059D01*
X39057989Y-4256841D01*
X39135771Y-4256841D01*
X39135771Y-4764841D02*
X39135771Y-4687059D01*
X39057989Y-4687059D01*
X39057989Y-4764841D01*
X39135771Y-4764841D01*
X39135771Y-6256841D02*
X39135771Y-6179059D01*
X39057989Y-6179059D01*
X39057989Y-6256841D01*
X39135771Y-6256841D01*
X39135771Y-6764841D02*
X39135771Y-6687059D01*
X39057989Y-6687059D01*
X39057989Y-6764841D01*
X39135771Y-6764841D01*
X39135771Y-8256841D02*
X39135771Y-8179059D01*
X39057989Y-8179059D01*
X39057989Y-8256841D01*
X39135771Y-8256841D01*
X39135771Y-8764841D02*
X39135771Y-8687059D01*
X39057989Y-8687059D01*
X39057989Y-8764841D01*
X39135771Y-8764841D01*
X39389771Y-4256841D02*
X39389771Y-4179059D01*
X39311989Y-4179059D01*
X39311989Y-4256841D01*
X39389771Y-4256841D01*
X39389771Y-4764841D02*
X39389771Y-4687059D01*
X39311989Y-4687059D01*
X39311989Y-4764841D01*
X39389771Y-4764841D01*
X39389771Y-6256841D02*
X39389771Y-6179059D01*
X39311989Y-6179059D01*
X39311989Y-6256841D01*
X39389771Y-6256841D01*
X39389771Y-6764841D02*
X39389771Y-6687059D01*
X39311989Y-6687059D01*
X39311989Y-6764841D01*
X39389771Y-6764841D01*
X39389771Y-8256841D02*
X39389771Y-8179059D01*
X39311989Y-8179059D01*
X39311989Y-8256841D01*
X39389771Y-8256841D01*
X39389771Y-8764841D02*
X39389771Y-8687059D01*
X39311989Y-8687059D01*
X39311989Y-8764841D01*
X39389771Y-8764841D01*
X39643771Y-4256841D02*
X39643771Y-4179059D01*
X39565989Y-4179059D01*
X39565989Y-4256841D01*
X39643771Y-4256841D01*
X39643771Y-4764841D02*
X39643771Y-4687059D01*
X39565989Y-4687059D01*
X39565989Y-4764841D01*
X39643771Y-4764841D01*
X39643771Y-6256841D02*
X39643771Y-6179059D01*
X39565989Y-6179059D01*
X39565989Y-6256841D01*
X39643771Y-6256841D01*
X39643771Y-6764841D02*
X39643771Y-6687059D01*
X39565989Y-6687059D01*
X39565989Y-6764841D01*
X39643771Y-6764841D01*
X39643771Y-8256841D02*
X39643771Y-8179059D01*
X39565989Y-8179059D01*
X39565989Y-8256841D01*
X39643771Y-8256841D01*
X39643771Y-8764841D02*
X39643771Y-8687059D01*
X39565989Y-8687059D01*
X39565989Y-8764841D01*
X39643771Y-8764841D01*
X39897771Y-4256841D02*
X39897771Y-4179059D01*
X39819989Y-4179059D01*
X39819989Y-4256841D01*
X39897771Y-4256841D01*
X39897771Y-4764841D02*
X39897771Y-4687059D01*
X39819989Y-4687059D01*
X39819989Y-4764841D01*
X39897771Y-4764841D01*
X39897771Y-6256841D02*
X39897771Y-6179059D01*
X39819989Y-6179059D01*
X39819989Y-6256841D01*
X39897771Y-6256841D01*
X39897771Y-6764841D02*
X39897771Y-6687059D01*
X39819989Y-6687059D01*
X39819989Y-6764841D01*
X39897771Y-6764841D01*
X39897771Y-8256841D02*
X39897771Y-8179059D01*
X39819989Y-8179059D01*
X39819989Y-8256841D01*
X39897771Y-8256841D01*
X39897771Y-8764841D02*
X39897771Y-8687059D01*
X39819989Y-8687059D01*
X39819989Y-8764841D01*
X39897771Y-8764841D01*
X40151771Y-4256841D02*
X40151771Y-4179059D01*
X40073989Y-4179059D01*
X40073989Y-4256841D01*
X40151771Y-4256841D01*
X40151771Y-4764841D02*
X40151771Y-4687059D01*
X40073989Y-4687059D01*
X40073989Y-4764841D01*
X40151771Y-4764841D01*
X40151771Y-6256841D02*
X40151771Y-6179059D01*
X40073989Y-6179059D01*
X40073989Y-6256841D01*
X40151771Y-6256841D01*
X40151771Y-6764841D02*
X40151771Y-6687059D01*
X40073989Y-6687059D01*
X40073989Y-6764841D01*
X40151771Y-6764841D01*
X40151771Y-8256841D02*
X40151771Y-8179059D01*
X40073989Y-8179059D01*
X40073989Y-8256841D01*
X40151771Y-8256841D01*
X40151771Y-8764841D02*
X40151771Y-8687059D01*
X40073989Y-8687059D01*
X40073989Y-8764841D01*
X40151771Y-8764841D01*
X40405771Y-4256841D02*
X40405771Y-4179059D01*
X40327989Y-4179059D01*
X40327989Y-4256841D01*
X40405771Y-4256841D01*
X40405771Y-4764841D02*
X40405771Y-4687059D01*
X40327989Y-4687059D01*
X40327989Y-4764841D01*
X40405771Y-4764841D01*
X40405771Y-6256841D02*
X40405771Y-6179059D01*
X40327989Y-6179059D01*
X40327989Y-6256841D01*
X40405771Y-6256841D01*
X40405771Y-6764841D02*
X40405771Y-6687059D01*
X40327989Y-6687059D01*
X40327989Y-6764841D01*
X40405771Y-6764841D01*
X40405771Y-8256841D02*
X40405771Y-8179059D01*
X40327989Y-8179059D01*
X40327989Y-8256841D01*
X40405771Y-8256841D01*
X40405771Y-8764841D02*
X40405771Y-8687059D01*
X40327989Y-8687059D01*
X40327989Y-8764841D01*
X40405771Y-8764841D01*
X40659771Y-4256841D02*
X40659771Y-4179059D01*
X40581989Y-4179059D01*
X40581989Y-4256841D01*
X40659771Y-4256841D01*
X40659771Y-4764841D02*
X40659771Y-4687059D01*
X40581989Y-4687059D01*
X40581989Y-4764841D01*
X40659771Y-4764841D01*
X40659771Y-6256841D02*
X40659771Y-6179059D01*
X40581989Y-6179059D01*
X40581989Y-6256841D01*
X40659771Y-6256841D01*
X40659771Y-6764841D02*
X40659771Y-6687059D01*
X40581989Y-6687059D01*
X40581989Y-6764841D01*
X40659771Y-6764841D01*
X40659771Y-8256841D02*
X40659771Y-8179059D01*
X40581989Y-8179059D01*
X40581989Y-8256841D01*
X40659771Y-8256841D01*
X40659771Y-8764841D02*
X40659771Y-8687059D01*
X40581989Y-8687059D01*
X40581989Y-8764841D01*
X40659771Y-8764841D01*
X40913771Y-4256841D02*
X40913771Y-4179059D01*
X40835989Y-4179059D01*
X40835989Y-4256841D01*
X40913771Y-4256841D01*
X40913771Y-4764841D02*
X40913771Y-4687059D01*
X40835989Y-4687059D01*
X40835989Y-4764841D01*
X40913771Y-4764841D01*
X40913771Y-6256841D02*
X40913771Y-6179059D01*
X40835989Y-6179059D01*
X40835989Y-6256841D01*
X40913771Y-6256841D01*
X40913771Y-6764841D02*
X40913771Y-6687059D01*
X40835989Y-6687059D01*
X40835989Y-6764841D01*
X40913771Y-6764841D01*
X40913771Y-8256841D02*
X40913771Y-8179059D01*
X40835989Y-8179059D01*
X40835989Y-8256841D01*
X40913771Y-8256841D01*
X40913771Y-8764841D02*
X40913771Y-8687059D01*
X40835989Y-8687059D01*
X40835989Y-8764841D01*
X40913771Y-8764841D01*
X41167771Y-4256841D02*
X41167771Y-4179059D01*
X41089989Y-4179059D01*
X41089989Y-4256841D01*
X41167771Y-4256841D01*
X41167771Y-4764841D02*
X41167771Y-4687059D01*
X41089989Y-4687059D01*
X41089989Y-4764841D01*
X41167771Y-4764841D01*
X41167771Y-6256841D02*
X41167771Y-6179059D01*
X41089989Y-6179059D01*
X41089989Y-6256841D01*
X41167771Y-6256841D01*
X41167771Y-6764841D02*
X41167771Y-6687059D01*
X41089989Y-6687059D01*
X41089989Y-6764841D01*
X41167771Y-6764841D01*
X41167771Y-8256841D02*
X41167771Y-8179059D01*
X41089989Y-8179059D01*
X41089989Y-8256841D01*
X41167771Y-8256841D01*
X41167771Y-8764841D02*
X41167771Y-8687059D01*
X41089989Y-8687059D01*
X41089989Y-8764841D01*
X41167771Y-8764841D01*
X41421771Y-4256841D02*
X41421771Y-4179059D01*
X41343989Y-4179059D01*
X41343989Y-4256841D01*
X41421771Y-4256841D01*
X41421771Y-4764841D02*
X41421771Y-4687059D01*
X41343989Y-4687059D01*
X41343989Y-4764841D01*
X41421771Y-4764841D01*
X41421771Y-6256841D02*
X41421771Y-6179059D01*
X41343989Y-6179059D01*
X41343989Y-6256841D01*
X41421771Y-6256841D01*
X41421771Y-6764841D02*
X41421771Y-6687059D01*
X41343989Y-6687059D01*
X41343989Y-6764841D01*
X41421771Y-6764841D01*
X41421771Y-8256841D02*
X41421771Y-8179059D01*
X41343989Y-8179059D01*
X41343989Y-8256841D01*
X41421771Y-8256841D01*
X41421771Y-8764841D02*
X41421771Y-8687059D01*
X41343989Y-8687059D01*
X41343989Y-8764841D01*
X41421771Y-8764841D01*
X41675771Y-4256841D02*
X41675771Y-4179059D01*
X41597989Y-4179059D01*
X41597989Y-4256841D01*
X41675771Y-4256841D01*
X41675771Y-4764841D02*
X41675771Y-4687059D01*
X41597989Y-4687059D01*
X41597989Y-4764841D01*
X41675771Y-4764841D01*
X41675771Y-6256841D02*
X41675771Y-6179059D01*
X41597989Y-6179059D01*
X41597989Y-6256841D01*
X41675771Y-6256841D01*
X41675771Y-6764841D02*
X41675771Y-6687059D01*
X41597989Y-6687059D01*
X41597989Y-6764841D01*
X41675771Y-6764841D01*
X41675771Y-8256841D02*
X41675771Y-8179059D01*
X41597989Y-8179059D01*
X41597989Y-8256841D01*
X41675771Y-8256841D01*
X41675771Y-8764841D02*
X41675771Y-8687059D01*
X41597989Y-8687059D01*
X41597989Y-8764841D01*
X41675771Y-8764841D01*
X41929771Y-4256841D02*
X41929771Y-4179059D01*
X41851989Y-4179059D01*
X41851989Y-4256841D01*
X41929771Y-4256841D01*
X41929771Y-4764841D02*
X41929771Y-4687059D01*
X41851989Y-4687059D01*
X41851989Y-4764841D01*
X41929771Y-4764841D01*
X41929771Y-6256841D02*
X41929771Y-6179059D01*
X41851989Y-6179059D01*
X41851989Y-6256841D01*
X41929771Y-6256841D01*
X41929771Y-6764841D02*
X41929771Y-6687059D01*
X41851989Y-6687059D01*
X41851989Y-6764841D01*
X41929771Y-6764841D01*
X41929771Y-8256841D02*
X41929771Y-8179059D01*
X41851989Y-8179059D01*
X41851989Y-8256841D01*
X41929771Y-8256841D01*
X41929771Y-8764841D02*
X41929771Y-8687059D01*
X41851989Y-8687059D01*
X41851989Y-8764841D01*
X41929771Y-8764841D01*
X42183771Y-4256841D02*
X42183771Y-4179059D01*
X42105989Y-4179059D01*
X42105989Y-4256841D01*
X42183771Y-4256841D01*
X42183771Y-4764841D02*
X42183771Y-4687059D01*
X42105989Y-4687059D01*
X42105989Y-4764841D01*
X42183771Y-4764841D01*
X42183771Y-6256841D02*
X42183771Y-6179059D01*
X42105989Y-6179059D01*
X42105989Y-6256841D01*
X42183771Y-6256841D01*
X42183771Y-6764841D02*
X42183771Y-6687059D01*
X42105989Y-6687059D01*
X42105989Y-6764841D01*
X42183771Y-6764841D01*
X42183771Y-8256841D02*
X42183771Y-8179059D01*
X42105989Y-8179059D01*
X42105989Y-8256841D01*
X42183771Y-8256841D01*
X42183771Y-8764841D02*
X42183771Y-8687059D01*
X42105989Y-8687059D01*
X42105989Y-8764841D01*
X42183771Y-8764841D01*
X42437771Y-4256841D02*
X42437771Y-4179059D01*
X42359989Y-4179059D01*
X42359989Y-4256841D01*
X42437771Y-4256841D01*
X42437771Y-4764841D02*
X42437771Y-4687059D01*
X42359989Y-4687059D01*
X42359989Y-4764841D01*
X42437771Y-4764841D01*
X42437771Y-6256841D02*
X42437771Y-6179059D01*
X42359989Y-6179059D01*
X42359989Y-6256841D01*
X42437771Y-6256841D01*
X42437771Y-6764841D02*
X42437771Y-6687059D01*
X42359989Y-6687059D01*
X42359989Y-6764841D01*
X42437771Y-6764841D01*
X42437771Y-8256841D02*
X42437771Y-8179059D01*
X42359989Y-8179059D01*
X42359989Y-8256841D01*
X42437771Y-8256841D01*
X42437771Y-8764841D02*
X42437771Y-8687059D01*
X42359989Y-8687059D01*
X42359989Y-8764841D01*
X42437771Y-8764841D01*
X42691771Y-4256841D02*
X42691771Y-4179059D01*
X42613989Y-4179059D01*
X42613989Y-4256841D01*
X42691771Y-4256841D01*
X42691771Y-4764841D02*
X42691771Y-4687059D01*
X42613989Y-4687059D01*
X42613989Y-4764841D01*
X42691771Y-4764841D01*
X42691771Y-6256841D02*
X42691771Y-6179059D01*
X42613989Y-6179059D01*
X42613989Y-6256841D01*
X42691771Y-6256841D01*
X42691771Y-6764841D02*
X42691771Y-6687059D01*
X42613989Y-6687059D01*
X42613989Y-6764841D01*
X42691771Y-6764841D01*
X42691771Y-8256841D02*
X42691771Y-8179059D01*
X42613989Y-8179059D01*
X42613989Y-8256841D01*
X42691771Y-8256841D01*
X42691771Y-8764841D02*
X42691771Y-8687059D01*
X42613989Y-8687059D01*
X42613989Y-8764841D01*
X42691771Y-8764841D01*
D15*
X8300000Y-2045000D02*
X8370000Y-1975000D01*
X8300000Y-1905000D01*
X8230000Y-1975000D01*
X8300000Y-2045000D01*
X8300000Y-3245000D02*
X8370000Y-3175000D01*
X8300000Y-3105000D01*
X8230000Y-3175000D01*
X8300000Y-3245000D01*
X8300000Y-4445000D02*
X8370000Y-4375000D01*
X8300000Y-4305000D01*
X8230000Y-4375000D01*
X8300000Y-4445000D01*
X8550000Y-2045000D02*
X8620000Y-1975000D01*
X8550000Y-1905000D01*
X8480000Y-1975000D01*
X8550000Y-2045000D01*
X8550000Y-3245000D02*
X8620000Y-3175000D01*
X8550000Y-3105000D01*
X8480000Y-3175000D01*
X8550000Y-3245000D01*
X8550000Y-4445000D02*
X8620000Y-4375000D01*
X8550000Y-4305000D01*
X8480000Y-4375000D01*
X8550000Y-4445000D01*
D10*
X1612619Y-9707236D02*
X1612619Y-9507236D01*
X1660238Y-9507236D01*
X1688809Y-9516760D01*
X1707857Y-9535808D01*
X1717381Y-9554855D01*
X1726905Y-9592950D01*
X1726905Y-9621522D01*
X1717381Y-9659617D01*
X1707857Y-9678665D01*
X1688809Y-9697712D01*
X1660238Y-9707236D01*
X1612619Y-9707236D01*
X1812619Y-9707236D02*
X1812619Y-9573903D01*
X1812619Y-9611998D02*
X1822143Y-9592950D01*
X1831667Y-9583427D01*
X1850714Y-9573903D01*
X1869762Y-9573903D01*
X1936428Y-9707236D02*
X1936428Y-9573903D01*
X1936428Y-9507236D02*
X1926905Y-9516760D01*
X1936428Y-9526284D01*
X1945952Y-9516760D01*
X1936428Y-9507236D01*
X1936428Y-9526284D01*
X2060238Y-9707236D02*
X2041190Y-9697712D01*
X2031667Y-9678665D01*
X2031667Y-9507236D01*
X2165000Y-9707236D02*
X2145952Y-9697712D01*
X2136429Y-9678665D01*
X2136429Y-9507236D01*
X2393571Y-9707236D02*
X2393571Y-9507236D01*
X2460238Y-9650093D01*
X2526905Y-9507236D01*
X2526905Y-9707236D01*
X2707857Y-9707236D02*
X2707857Y-9602474D01*
X2698333Y-9583427D01*
X2679286Y-9573903D01*
X2641190Y-9573903D01*
X2622143Y-9583427D01*
X2707857Y-9697712D02*
X2688810Y-9707236D01*
X2641190Y-9707236D01*
X2622143Y-9697712D01*
X2612619Y-9678665D01*
X2612619Y-9659617D01*
X2622143Y-9640570D01*
X2641190Y-9631046D01*
X2688810Y-9631046D01*
X2707857Y-9621522D01*
X2803095Y-9573903D02*
X2803095Y-9773903D01*
X2803095Y-9583427D02*
X2822143Y-9573903D01*
X2860238Y-9573903D01*
X2879286Y-9583427D01*
X2888809Y-9592950D01*
X2898333Y-9611998D01*
X2898333Y-9669141D01*
X2888809Y-9688189D01*
X2879286Y-9697712D01*
X2860238Y-9707236D01*
X2822143Y-9707236D01*
X2803095Y-9697712D01*
X2984048Y-9688189D02*
X2993571Y-9697712D01*
X2984048Y-9707236D01*
X2974524Y-9697712D01*
X2984048Y-9688189D01*
X2984048Y-9707236D01*
X2984048Y-9583427D02*
X2993571Y-9592950D01*
X2984048Y-9602474D01*
X2974524Y-9592950D01*
X2984048Y-9583427D01*
X2984048Y-9602474D01*
D11*
X1315000Y-10016760D02*
X1355000Y-10056760D01*
X1355000Y-10016760D02*
X1315000Y-10056760D01*
D10*
X1650714Y-9927236D02*
X1669762Y-9927236D01*
X1688809Y-9936760D01*
X1698333Y-9946284D01*
X1707857Y-9965331D01*
X1717381Y-10003427D01*
X1717381Y-10051046D01*
X1707857Y-10089141D01*
X1698333Y-10108189D01*
X1688809Y-10117712D01*
X1669762Y-10127236D01*
X1650714Y-10127236D01*
X1631667Y-10117712D01*
X1622143Y-10108189D01*
X1612619Y-10089141D01*
X1603095Y-10051046D01*
X1603095Y-10003427D01*
X1612619Y-9965331D01*
X1622143Y-9946284D01*
X1631667Y-9936760D01*
X1650714Y-9927236D01*
X1803095Y-10108189D02*
X1812619Y-10117712D01*
X1803095Y-10127236D01*
X1793571Y-10117712D01*
X1803095Y-10108189D01*
X1803095Y-10127236D01*
X1984048Y-9993903D02*
X1984048Y-10127236D01*
X1936428Y-9917712D02*
X1888809Y-10060570D01*
X2012619Y-10060570D01*
X2126905Y-9927236D02*
X2145952Y-9927236D01*
X2165000Y-9936760D01*
X2174524Y-9946284D01*
X2184048Y-9965331D01*
X2193571Y-10003427D01*
X2193571Y-10051046D01*
X2184048Y-10089141D01*
X2174524Y-10108189D01*
X2165000Y-10117712D01*
X2145952Y-10127236D01*
X2126905Y-10127236D01*
X2107857Y-10117712D01*
X2098333Y-10108189D01*
X2088809Y-10089141D01*
X2079286Y-10051046D01*
X2079286Y-10003427D01*
X2088809Y-9965331D01*
X2098333Y-9946284D01*
X2107857Y-9936760D01*
X2126905Y-9927236D01*
X2317381Y-9927236D02*
X2336429Y-9927236D01*
X2355476Y-9936760D01*
X2365000Y-9946284D01*
X2374524Y-9965331D01*
X2384048Y-10003427D01*
X2384048Y-10051046D01*
X2374524Y-10089141D01*
X2365000Y-10108189D01*
X2355476Y-10117712D01*
X2336429Y-10127236D01*
X2317381Y-10127236D01*
X2298333Y-10117712D01*
X2288810Y-10108189D01*
X2279286Y-10089141D01*
X2269762Y-10051046D01*
X2269762Y-10003427D01*
X2279286Y-9965331D01*
X2288810Y-9946284D01*
X2298333Y-9936760D01*
X2317381Y-9927236D01*
X2469762Y-10127236D02*
X2469762Y-9993903D01*
X2469762Y-10012950D02*
X2479286Y-10003427D01*
X2498333Y-9993903D01*
X2526905Y-9993903D01*
X2545952Y-10003427D01*
X2555476Y-10022474D01*
X2555476Y-10127236D01*
X2555476Y-10022474D02*
X2565000Y-10003427D01*
X2584048Y-9993903D01*
X2612619Y-9993903D01*
X2631667Y-10003427D01*
X2641190Y-10022474D01*
X2641190Y-10127236D01*
X2736429Y-10127236D02*
X2736429Y-9993903D01*
X2736429Y-10012950D02*
X2745952Y-10003427D01*
X2765000Y-9993903D01*
X2793571Y-9993903D01*
X2812619Y-10003427D01*
X2822143Y-10022474D01*
X2822143Y-10127236D01*
X2822143Y-10022474D02*
X2831667Y-10003427D01*
X2850714Y-9993903D01*
X2879286Y-9993903D01*
X2898333Y-10003427D01*
X2907857Y-10022474D01*
X2907857Y-10127236D01*
X3298333Y-9917712D02*
X3126905Y-10174855D01*
X3555476Y-9927236D02*
X3574524Y-9927236D01*
X3593571Y-9936760D01*
X3603095Y-9946284D01*
X3612619Y-9965331D01*
X3622143Y-10003427D01*
X3622143Y-10051046D01*
X3612619Y-10089141D01*
X3603095Y-10108189D01*
X3593571Y-10117712D01*
X3574524Y-10127236D01*
X3555476Y-10127236D01*
X3536428Y-10117712D01*
X3526905Y-10108189D01*
X3517381Y-10089141D01*
X3507857Y-10051046D01*
X3507857Y-10003427D01*
X3517381Y-9965331D01*
X3526905Y-9946284D01*
X3536428Y-9936760D01*
X3555476Y-9927236D01*
X3707857Y-10108189D02*
X3717381Y-10117712D01*
X3707857Y-10127236D01*
X3698333Y-10117712D01*
X3707857Y-10108189D01*
X3707857Y-10127236D01*
X3841190Y-9927236D02*
X3860238Y-9927236D01*
X3879286Y-9936760D01*
X3888809Y-9946284D01*
X3898333Y-9965331D01*
X3907857Y-10003427D01*
X3907857Y-10051046D01*
X3898333Y-10089141D01*
X3888809Y-10108189D01*
X3879286Y-10117712D01*
X3860238Y-10127236D01*
X3841190Y-10127236D01*
X3822143Y-10117712D01*
X3812619Y-10108189D01*
X3803095Y-10089141D01*
X3793571Y-10051046D01*
X3793571Y-10003427D01*
X3803095Y-9965331D01*
X3812619Y-9946284D01*
X3822143Y-9936760D01*
X3841190Y-9927236D01*
X4098333Y-10127236D02*
X3984048Y-10127236D01*
X4041190Y-10127236D02*
X4041190Y-9927236D01*
X4022143Y-9955808D01*
X4003095Y-9974855D01*
X3984048Y-9984379D01*
X4279286Y-9927236D02*
X4184048Y-9927236D01*
X4174524Y-10022474D01*
X4184048Y-10012950D01*
X4203095Y-10003427D01*
X4250714Y-10003427D01*
X4269762Y-10012950D01*
X4279286Y-10022474D01*
X4288810Y-10041522D01*
X4288810Y-10089141D01*
X4279286Y-10108189D01*
X4269762Y-10117712D01*
X4250714Y-10127236D01*
X4203095Y-10127236D01*
X4184048Y-10117712D01*
X4174524Y-10108189D01*
X4355476Y-9927236D02*
X4488810Y-9927236D01*
X4403095Y-10127236D01*
X4555476Y-9927236D02*
X4555476Y-9965331D01*
X4631667Y-9927236D02*
X4631667Y-9965331D01*
X4926905Y-10203427D02*
X4917381Y-10193903D01*
X4898333Y-10165331D01*
X4888810Y-10146284D01*
X4879286Y-10117712D01*
X4869762Y-10070093D01*
X4869762Y-10031998D01*
X4879286Y-9984379D01*
X4888810Y-9955808D01*
X4898333Y-9936760D01*
X4917381Y-9908189D01*
X4926905Y-9898665D01*
X5098333Y-9927236D02*
X5003095Y-9927236D01*
X4993571Y-10022474D01*
X5003095Y-10012950D01*
X5022143Y-10003427D01*
X5069762Y-10003427D01*
X5088810Y-10012950D01*
X5098333Y-10022474D01*
X5107857Y-10041522D01*
X5107857Y-10089141D01*
X5098333Y-10108189D01*
X5088810Y-10117712D01*
X5069762Y-10127236D01*
X5022143Y-10127236D01*
X5003095Y-10117712D01*
X4993571Y-10108189D01*
X5345952Y-10127236D02*
X5345952Y-9927236D01*
X5431667Y-10127236D02*
X5431667Y-10022474D01*
X5422143Y-10003427D01*
X5403095Y-9993903D01*
X5374524Y-9993903D01*
X5355476Y-10003427D01*
X5345952Y-10012950D01*
X5555476Y-10127236D02*
X5536429Y-10117712D01*
X5526905Y-10108189D01*
X5517381Y-10089141D01*
X5517381Y-10031998D01*
X5526905Y-10012950D01*
X5536429Y-10003427D01*
X5555476Y-9993903D01*
X5584048Y-9993903D01*
X5603095Y-10003427D01*
X5612619Y-10012950D01*
X5622143Y-10031998D01*
X5622143Y-10089141D01*
X5612619Y-10108189D01*
X5603095Y-10117712D01*
X5584048Y-10127236D01*
X5555476Y-10127236D01*
X5736428Y-10127236D02*
X5717381Y-10117712D01*
X5707857Y-10098665D01*
X5707857Y-9927236D01*
X5888809Y-10117712D02*
X5869762Y-10127236D01*
X5831667Y-10127236D01*
X5812619Y-10117712D01*
X5803095Y-10098665D01*
X5803095Y-10022474D01*
X5812619Y-10003427D01*
X5831667Y-9993903D01*
X5869762Y-9993903D01*
X5888809Y-10003427D01*
X5898333Y-10022474D01*
X5898333Y-10041522D01*
X5803095Y-10060570D01*
X5974524Y-10117712D02*
X5993571Y-10127236D01*
X6031667Y-10127236D01*
X6050714Y-10117712D01*
X6060238Y-10098665D01*
X6060238Y-10089141D01*
X6050714Y-10070093D01*
X6031667Y-10060570D01*
X6003095Y-10060570D01*
X5984048Y-10051046D01*
X5974524Y-10031998D01*
X5974524Y-10022474D01*
X5984048Y-10003427D01*
X6003095Y-9993903D01*
X6031667Y-9993903D01*
X6050714Y-10003427D01*
X6126905Y-10203427D02*
X6136428Y-10193903D01*
X6155476Y-10165331D01*
X6165000Y-10146284D01*
X6174524Y-10117712D01*
X6184048Y-10070093D01*
X6184048Y-10031998D01*
X6174524Y-9984379D01*
X6165000Y-9955808D01*
X6155476Y-9936760D01*
X6136428Y-9908189D01*
X6126905Y-9898665D01*
D12*
X1355000Y-10300760D02*
G75*
G03*
X1355000Y-10300760I-40000J0D01*
G01*
D10*
X1650714Y-10191236D02*
X1669762Y-10191236D01*
X1688809Y-10200760D01*
X1698333Y-10210284D01*
X1707857Y-10229331D01*
X1717381Y-10267427D01*
X1717381Y-10315046D01*
X1707857Y-10353141D01*
X1698333Y-10372189D01*
X1688809Y-10381712D01*
X1669762Y-10391236D01*
X1650714Y-10391236D01*
X1631667Y-10381712D01*
X1622143Y-10372189D01*
X1612619Y-10353141D01*
X1603095Y-10315046D01*
X1603095Y-10267427D01*
X1612619Y-10229331D01*
X1622143Y-10210284D01*
X1631667Y-10200760D01*
X1650714Y-10191236D01*
X1803095Y-10372189D02*
X1812619Y-10381712D01*
X1803095Y-10391236D01*
X1793571Y-10381712D01*
X1803095Y-10372189D01*
X1803095Y-10391236D01*
X1926905Y-10276950D02*
X1907857Y-10267427D01*
X1898333Y-10257903D01*
X1888809Y-10238855D01*
X1888809Y-10229331D01*
X1898333Y-10210284D01*
X1907857Y-10200760D01*
X1926905Y-10191236D01*
X1965000Y-10191236D01*
X1984048Y-10200760D01*
X1993571Y-10210284D01*
X2003095Y-10229331D01*
X2003095Y-10238855D01*
X1993571Y-10257903D01*
X1984048Y-10267427D01*
X1965000Y-10276950D01*
X1926905Y-10276950D01*
X1907857Y-10286474D01*
X1898333Y-10295998D01*
X1888809Y-10315046D01*
X1888809Y-10353141D01*
X1898333Y-10372189D01*
X1907857Y-10381712D01*
X1926905Y-10391236D01*
X1965000Y-10391236D01*
X1984048Y-10381712D01*
X1993571Y-10372189D01*
X2003095Y-10353141D01*
X2003095Y-10315046D01*
X1993571Y-10295998D01*
X1984048Y-10286474D01*
X1965000Y-10276950D01*
X2126905Y-10191236D02*
X2145952Y-10191236D01*
X2165000Y-10200760D01*
X2174524Y-10210284D01*
X2184048Y-10229331D01*
X2193571Y-10267427D01*
X2193571Y-10315046D01*
X2184048Y-10353141D01*
X2174524Y-10372189D01*
X2165000Y-10381712D01*
X2145952Y-10391236D01*
X2126905Y-10391236D01*
X2107857Y-10381712D01*
X2098333Y-10372189D01*
X2088809Y-10353141D01*
X2079286Y-10315046D01*
X2079286Y-10267427D01*
X2088809Y-10229331D01*
X2098333Y-10210284D01*
X2107857Y-10200760D01*
X2126905Y-10191236D01*
X2317381Y-10191236D02*
X2336429Y-10191236D01*
X2355476Y-10200760D01*
X2365000Y-10210284D01*
X2374524Y-10229331D01*
X2384048Y-10267427D01*
X2384048Y-10315046D01*
X2374524Y-10353141D01*
X2365000Y-10372189D01*
X2355476Y-10381712D01*
X2336429Y-10391236D01*
X2317381Y-10391236D01*
X2298333Y-10381712D01*
X2288810Y-10372189D01*
X2279286Y-10353141D01*
X2269762Y-10315046D01*
X2269762Y-10267427D01*
X2279286Y-10229331D01*
X2288810Y-10210284D01*
X2298333Y-10200760D01*
X2317381Y-10191236D01*
X2469762Y-10391236D02*
X2469762Y-10257903D01*
X2469762Y-10276950D02*
X2479286Y-10267427D01*
X2498333Y-10257903D01*
X2526905Y-10257903D01*
X2545952Y-10267427D01*
X2555476Y-10286474D01*
X2555476Y-10391236D01*
X2555476Y-10286474D02*
X2565000Y-10267427D01*
X2584048Y-10257903D01*
X2612619Y-10257903D01*
X2631667Y-10267427D01*
X2641190Y-10286474D01*
X2641190Y-10391236D01*
X2736429Y-10391236D02*
X2736429Y-10257903D01*
X2736429Y-10276950D02*
X2745952Y-10267427D01*
X2765000Y-10257903D01*
X2793571Y-10257903D01*
X2812619Y-10267427D01*
X2822143Y-10286474D01*
X2822143Y-10391236D01*
X2822143Y-10286474D02*
X2831667Y-10267427D01*
X2850714Y-10257903D01*
X2879286Y-10257903D01*
X2898333Y-10267427D01*
X2907857Y-10286474D01*
X2907857Y-10391236D01*
X3298333Y-10181712D02*
X3126905Y-10438855D01*
X3555476Y-10191236D02*
X3574524Y-10191236D01*
X3593571Y-10200760D01*
X3603095Y-10210284D01*
X3612619Y-10229331D01*
X3622143Y-10267427D01*
X3622143Y-10315046D01*
X3612619Y-10353141D01*
X3603095Y-10372189D01*
X3593571Y-10381712D01*
X3574524Y-10391236D01*
X3555476Y-10391236D01*
X3536428Y-10381712D01*
X3526905Y-10372189D01*
X3517381Y-10353141D01*
X3507857Y-10315046D01*
X3507857Y-10267427D01*
X3517381Y-10229331D01*
X3526905Y-10210284D01*
X3536428Y-10200760D01*
X3555476Y-10191236D01*
X3707857Y-10372189D02*
X3717381Y-10381712D01*
X3707857Y-10391236D01*
X3698333Y-10381712D01*
X3707857Y-10372189D01*
X3707857Y-10391236D01*
X3841190Y-10191236D02*
X3860238Y-10191236D01*
X3879286Y-10200760D01*
X3888809Y-10210284D01*
X3898333Y-10229331D01*
X3907857Y-10267427D01*
X3907857Y-10315046D01*
X3898333Y-10353141D01*
X3888809Y-10372189D01*
X3879286Y-10381712D01*
X3860238Y-10391236D01*
X3841190Y-10391236D01*
X3822143Y-10381712D01*
X3812619Y-10372189D01*
X3803095Y-10353141D01*
X3793571Y-10315046D01*
X3793571Y-10267427D01*
X3803095Y-10229331D01*
X3812619Y-10210284D01*
X3822143Y-10200760D01*
X3841190Y-10191236D01*
X3974524Y-10191236D02*
X4098333Y-10191236D01*
X4031667Y-10267427D01*
X4060238Y-10267427D01*
X4079286Y-10276950D01*
X4088809Y-10286474D01*
X4098333Y-10305522D01*
X4098333Y-10353141D01*
X4088809Y-10372189D01*
X4079286Y-10381712D01*
X4060238Y-10391236D01*
X4003095Y-10391236D01*
X3984048Y-10381712D01*
X3974524Y-10372189D01*
X4288810Y-10391236D02*
X4174524Y-10391236D01*
X4231667Y-10391236D02*
X4231667Y-10191236D01*
X4212619Y-10219808D01*
X4193571Y-10238855D01*
X4174524Y-10248379D01*
X4469762Y-10191236D02*
X4374524Y-10191236D01*
X4365000Y-10286474D01*
X4374524Y-10276950D01*
X4393571Y-10267427D01*
X4441190Y-10267427D01*
X4460238Y-10276950D01*
X4469762Y-10286474D01*
X4479286Y-10305522D01*
X4479286Y-10353141D01*
X4469762Y-10372189D01*
X4460238Y-10381712D01*
X4441190Y-10391236D01*
X4393571Y-10391236D01*
X4374524Y-10381712D01*
X4365000Y-10372189D01*
X4555476Y-10191236D02*
X4555476Y-10229331D01*
X4631667Y-10191236D02*
X4631667Y-10229331D01*
X4926905Y-10467427D02*
X4917381Y-10457903D01*
X4898333Y-10429331D01*
X4888810Y-10410284D01*
X4879286Y-10381712D01*
X4869762Y-10334093D01*
X4869762Y-10295998D01*
X4879286Y-10248379D01*
X4888810Y-10219808D01*
X4898333Y-10200760D01*
X4917381Y-10172189D01*
X4926905Y-10162665D01*
X5107857Y-10391236D02*
X4993571Y-10391236D01*
X5050714Y-10391236D02*
X5050714Y-10191236D01*
X5031667Y-10219808D01*
X5012619Y-10238855D01*
X4993571Y-10248379D01*
X5184048Y-10210284D02*
X5193571Y-10200760D01*
X5212619Y-10191236D01*
X5260238Y-10191236D01*
X5279286Y-10200760D01*
X5288810Y-10210284D01*
X5298333Y-10229331D01*
X5298333Y-10248379D01*
X5288810Y-10276950D01*
X5174524Y-10391236D01*
X5298333Y-10391236D01*
X5536429Y-10391236D02*
X5536429Y-10191236D01*
X5622143Y-10391236D02*
X5622143Y-10286474D01*
X5612619Y-10267427D01*
X5593571Y-10257903D01*
X5565000Y-10257903D01*
X5545952Y-10267427D01*
X5536429Y-10276950D01*
X5745952Y-10391236D02*
X5726905Y-10381712D01*
X5717381Y-10372189D01*
X5707857Y-10353141D01*
X5707857Y-10295998D01*
X5717381Y-10276950D01*
X5726905Y-10267427D01*
X5745952Y-10257903D01*
X5774524Y-10257903D01*
X5793571Y-10267427D01*
X5803095Y-10276950D01*
X5812619Y-10295998D01*
X5812619Y-10353141D01*
X5803095Y-10372189D01*
X5793571Y-10381712D01*
X5774524Y-10391236D01*
X5745952Y-10391236D01*
X5926905Y-10391236D02*
X5907857Y-10381712D01*
X5898333Y-10362665D01*
X5898333Y-10191236D01*
X6079286Y-10381712D02*
X6060238Y-10391236D01*
X6022143Y-10391236D01*
X6003095Y-10381712D01*
X5993571Y-10362665D01*
X5993571Y-10286474D01*
X6003095Y-10267427D01*
X6022143Y-10257903D01*
X6060238Y-10257903D01*
X6079286Y-10267427D01*
X6088809Y-10286474D01*
X6088809Y-10305522D01*
X5993571Y-10324570D01*
X6165000Y-10381712D02*
X6184048Y-10391236D01*
X6222143Y-10391236D01*
X6241190Y-10381712D01*
X6250714Y-10362665D01*
X6250714Y-10353141D01*
X6241190Y-10334093D01*
X6222143Y-10324570D01*
X6193571Y-10324570D01*
X6174524Y-10315046D01*
X6165000Y-10295998D01*
X6165000Y-10286474D01*
X6174524Y-10267427D01*
X6193571Y-10257903D01*
X6222143Y-10257903D01*
X6241190Y-10267427D01*
X6317381Y-10467427D02*
X6326905Y-10457903D01*
X6345952Y-10429331D01*
X6355476Y-10410284D01*
X6365000Y-10381712D01*
X6374524Y-10334093D01*
X6374524Y-10295998D01*
X6365000Y-10248379D01*
X6355476Y-10219808D01*
X6345952Y-10200760D01*
X6326905Y-10172189D01*
X6317381Y-10162665D01*
D13*
X1300390Y-10510150D02*
X1300390Y-10619370D01*
X1245780Y-10564760D02*
X1355000Y-10564760D01*
D10*
X1717381Y-10655236D02*
X1603095Y-10655236D01*
X1660238Y-10655236D02*
X1660238Y-10455236D01*
X1641190Y-10483808D01*
X1622143Y-10502855D01*
X1603095Y-10512379D01*
X1803095Y-10636189D02*
X1812619Y-10645712D01*
X1803095Y-10655236D01*
X1793571Y-10645712D01*
X1803095Y-10636189D01*
X1803095Y-10655236D01*
X1936428Y-10455236D02*
X1955476Y-10455236D01*
X1974524Y-10464760D01*
X1984048Y-10474284D01*
X1993571Y-10493331D01*
X2003095Y-10531427D01*
X2003095Y-10579046D01*
X1993571Y-10617141D01*
X1984048Y-10636189D01*
X1974524Y-10645712D01*
X1955476Y-10655236D01*
X1936428Y-10655236D01*
X1917381Y-10645712D01*
X1907857Y-10636189D01*
X1898333Y-10617141D01*
X1888809Y-10579046D01*
X1888809Y-10531427D01*
X1898333Y-10493331D01*
X1907857Y-10474284D01*
X1917381Y-10464760D01*
X1936428Y-10455236D01*
X2098333Y-10655236D02*
X2136429Y-10655236D01*
X2155476Y-10645712D01*
X2165000Y-10636189D01*
X2184048Y-10607617D01*
X2193571Y-10569522D01*
X2193571Y-10493331D01*
X2184048Y-10474284D01*
X2174524Y-10464760D01*
X2155476Y-10455236D01*
X2117381Y-10455236D01*
X2098333Y-10464760D01*
X2088809Y-10474284D01*
X2079286Y-10493331D01*
X2079286Y-10540950D01*
X2088809Y-10559998D01*
X2098333Y-10569522D01*
X2117381Y-10579046D01*
X2155476Y-10579046D01*
X2174524Y-10569522D01*
X2184048Y-10559998D01*
X2193571Y-10540950D01*
X2269762Y-10474284D02*
X2279286Y-10464760D01*
X2298333Y-10455236D01*
X2345952Y-10455236D01*
X2365000Y-10464760D01*
X2374524Y-10474284D01*
X2384048Y-10493331D01*
X2384048Y-10512379D01*
X2374524Y-10540950D01*
X2260238Y-10655236D01*
X2384048Y-10655236D01*
X2469762Y-10655236D02*
X2469762Y-10521903D01*
X2469762Y-10540950D02*
X2479286Y-10531427D01*
X2498333Y-10521903D01*
X2526905Y-10521903D01*
X2545952Y-10531427D01*
X2555476Y-10550474D01*
X2555476Y-10655236D01*
X2555476Y-10550474D02*
X2565000Y-10531427D01*
X2584048Y-10521903D01*
X2612619Y-10521903D01*
X2631667Y-10531427D01*
X2641190Y-10550474D01*
X2641190Y-10655236D01*
X2736429Y-10655236D02*
X2736429Y-10521903D01*
X2736429Y-10540950D02*
X2745952Y-10531427D01*
X2765000Y-10521903D01*
X2793571Y-10521903D01*
X2812619Y-10531427D01*
X2822143Y-10550474D01*
X2822143Y-10655236D01*
X2822143Y-10550474D02*
X2831667Y-10531427D01*
X2850714Y-10521903D01*
X2879286Y-10521903D01*
X2898333Y-10531427D01*
X2907857Y-10550474D01*
X2907857Y-10655236D01*
X3298333Y-10445712D02*
X3126905Y-10702855D01*
X3555476Y-10455236D02*
X3574524Y-10455236D01*
X3593571Y-10464760D01*
X3603095Y-10474284D01*
X3612619Y-10493331D01*
X3622143Y-10531427D01*
X3622143Y-10579046D01*
X3612619Y-10617141D01*
X3603095Y-10636189D01*
X3593571Y-10645712D01*
X3574524Y-10655236D01*
X3555476Y-10655236D01*
X3536428Y-10645712D01*
X3526905Y-10636189D01*
X3517381Y-10617141D01*
X3507857Y-10579046D01*
X3507857Y-10531427D01*
X3517381Y-10493331D01*
X3526905Y-10474284D01*
X3536428Y-10464760D01*
X3555476Y-10455236D01*
X3707857Y-10636189D02*
X3717381Y-10645712D01*
X3707857Y-10655236D01*
X3698333Y-10645712D01*
X3707857Y-10636189D01*
X3707857Y-10655236D01*
X3841190Y-10455236D02*
X3860238Y-10455236D01*
X3879286Y-10464760D01*
X3888809Y-10474284D01*
X3898333Y-10493331D01*
X3907857Y-10531427D01*
X3907857Y-10579046D01*
X3898333Y-10617141D01*
X3888809Y-10636189D01*
X3879286Y-10645712D01*
X3860238Y-10655236D01*
X3841190Y-10655236D01*
X3822143Y-10645712D01*
X3812619Y-10636189D01*
X3803095Y-10617141D01*
X3793571Y-10579046D01*
X3793571Y-10531427D01*
X3803095Y-10493331D01*
X3812619Y-10474284D01*
X3822143Y-10464760D01*
X3841190Y-10455236D01*
X4079286Y-10521903D02*
X4079286Y-10655236D01*
X4031667Y-10445712D02*
X3984048Y-10588570D01*
X4107857Y-10588570D01*
X4165000Y-10455236D02*
X4288810Y-10455236D01*
X4222143Y-10531427D01*
X4250714Y-10531427D01*
X4269762Y-10540950D01*
X4279286Y-10550474D01*
X4288810Y-10569522D01*
X4288810Y-10617141D01*
X4279286Y-10636189D01*
X4269762Y-10645712D01*
X4250714Y-10655236D01*
X4193571Y-10655236D01*
X4174524Y-10645712D01*
X4165000Y-10636189D01*
X4412619Y-10455236D02*
X4431667Y-10455236D01*
X4450714Y-10464760D01*
X4460238Y-10474284D01*
X4469762Y-10493331D01*
X4479286Y-10531427D01*
X4479286Y-10579046D01*
X4469762Y-10617141D01*
X4460238Y-10636189D01*
X4450714Y-10645712D01*
X4431667Y-10655236D01*
X4412619Y-10655236D01*
X4393571Y-10645712D01*
X4384048Y-10636189D01*
X4374524Y-10617141D01*
X4365000Y-10579046D01*
X4365000Y-10531427D01*
X4374524Y-10493331D01*
X4384048Y-10474284D01*
X4393571Y-10464760D01*
X4412619Y-10455236D01*
X4555476Y-10455236D02*
X4555476Y-10493331D01*
X4631667Y-10455236D02*
X4631667Y-10493331D01*
X4926905Y-10731427D02*
X4917381Y-10721903D01*
X4898333Y-10693331D01*
X4888810Y-10674284D01*
X4879286Y-10645712D01*
X4869762Y-10598093D01*
X4869762Y-10559998D01*
X4879286Y-10512379D01*
X4888810Y-10483808D01*
X4898333Y-10464760D01*
X4917381Y-10436189D01*
X4926905Y-10426665D01*
X4993571Y-10474284D02*
X5003095Y-10464760D01*
X5022143Y-10455236D01*
X5069762Y-10455236D01*
X5088810Y-10464760D01*
X5098333Y-10474284D01*
X5107857Y-10493331D01*
X5107857Y-10512379D01*
X5098333Y-10540950D01*
X4984048Y-10655236D01*
X5107857Y-10655236D01*
X5231667Y-10455236D02*
X5250714Y-10455236D01*
X5269762Y-10464760D01*
X5279286Y-10474284D01*
X5288810Y-10493331D01*
X5298333Y-10531427D01*
X5298333Y-10579046D01*
X5288810Y-10617141D01*
X5279286Y-10636189D01*
X5269762Y-10645712D01*
X5250714Y-10655236D01*
X5231667Y-10655236D01*
X5212619Y-10645712D01*
X5203095Y-10636189D01*
X5193571Y-10617141D01*
X5184048Y-10579046D01*
X5184048Y-10531427D01*
X5193571Y-10493331D01*
X5203095Y-10474284D01*
X5212619Y-10464760D01*
X5231667Y-10455236D01*
X5469762Y-10521903D02*
X5469762Y-10655236D01*
X5422143Y-10445712D02*
X5374524Y-10588570D01*
X5498333Y-10588570D01*
X5726905Y-10655236D02*
X5726905Y-10455236D01*
X5812619Y-10655236D02*
X5812619Y-10550474D01*
X5803095Y-10531427D01*
X5784048Y-10521903D01*
X5755476Y-10521903D01*
X5736428Y-10531427D01*
X5726905Y-10540950D01*
X5936428Y-10655236D02*
X5917381Y-10645712D01*
X5907857Y-10636189D01*
X5898333Y-10617141D01*
X5898333Y-10559998D01*
X5907857Y-10540950D01*
X5917381Y-10531427D01*
X5936428Y-10521903D01*
X5965000Y-10521903D01*
X5984048Y-10531427D01*
X5993571Y-10540950D01*
X6003095Y-10559998D01*
X6003095Y-10617141D01*
X5993571Y-10636189D01*
X5984048Y-10645712D01*
X5965000Y-10655236D01*
X5936428Y-10655236D01*
X6117381Y-10655236D02*
X6098333Y-10645712D01*
X6088809Y-10626665D01*
X6088809Y-10455236D01*
X6269762Y-10645712D02*
X6250714Y-10655236D01*
X6212619Y-10655236D01*
X6193571Y-10645712D01*
X6184048Y-10626665D01*
X6184048Y-10550474D01*
X6193571Y-10531427D01*
X6212619Y-10521903D01*
X6250714Y-10521903D01*
X6269762Y-10531427D01*
X6279286Y-10550474D01*
X6279286Y-10569522D01*
X6184048Y-10588570D01*
X6355476Y-10645712D02*
X6374524Y-10655236D01*
X6412619Y-10655236D01*
X6431667Y-10645712D01*
X6441190Y-10626665D01*
X6441190Y-10617141D01*
X6431667Y-10598093D01*
X6412619Y-10588570D01*
X6384048Y-10588570D01*
X6365000Y-10579046D01*
X6355476Y-10559998D01*
X6355476Y-10550474D01*
X6365000Y-10531427D01*
X6384048Y-10521903D01*
X6412619Y-10521903D01*
X6431667Y-10531427D01*
X6507857Y-10731427D02*
X6517381Y-10721903D01*
X6536428Y-10693331D01*
X6545952Y-10674284D01*
X6555476Y-10645712D01*
X6565000Y-10598093D01*
X6565000Y-10559998D01*
X6555476Y-10512379D01*
X6545952Y-10483808D01*
X6536428Y-10464760D01*
X6517381Y-10436189D01*
X6507857Y-10426665D01*
D14*
X1338891Y-10867651D02*
X1338891Y-10789869D01*
X1261109Y-10789869D01*
X1261109Y-10867651D01*
X1338891Y-10867651D01*
D10*
X1717381Y-10919236D02*
X1603095Y-10919236D01*
X1660238Y-10919236D02*
X1660238Y-10719236D01*
X1641190Y-10747808D01*
X1622143Y-10766855D01*
X1603095Y-10776379D01*
X1803095Y-10900189D02*
X1812619Y-10909712D01*
X1803095Y-10919236D01*
X1793571Y-10909712D01*
X1803095Y-10900189D01*
X1803095Y-10919236D01*
X2003095Y-10919236D02*
X1888809Y-10919236D01*
X1945952Y-10919236D02*
X1945952Y-10719236D01*
X1926905Y-10747808D01*
X1907857Y-10766855D01*
X1888809Y-10776379D01*
X2126905Y-10719236D02*
X2145952Y-10719236D01*
X2165000Y-10728760D01*
X2174524Y-10738284D01*
X2184048Y-10757331D01*
X2193571Y-10795427D01*
X2193571Y-10843046D01*
X2184048Y-10881141D01*
X2174524Y-10900189D01*
X2165000Y-10909712D01*
X2145952Y-10919236D01*
X2126905Y-10919236D01*
X2107857Y-10909712D01*
X2098333Y-10900189D01*
X2088809Y-10881141D01*
X2079286Y-10843046D01*
X2079286Y-10795427D01*
X2088809Y-10757331D01*
X2098333Y-10738284D01*
X2107857Y-10728760D01*
X2126905Y-10719236D01*
X2317381Y-10719236D02*
X2336429Y-10719236D01*
X2355476Y-10728760D01*
X2365000Y-10738284D01*
X2374524Y-10757331D01*
X2384048Y-10795427D01*
X2384048Y-10843046D01*
X2374524Y-10881141D01*
X2365000Y-10900189D01*
X2355476Y-10909712D01*
X2336429Y-10919236D01*
X2317381Y-10919236D01*
X2298333Y-10909712D01*
X2288810Y-10900189D01*
X2279286Y-10881141D01*
X2269762Y-10843046D01*
X2269762Y-10795427D01*
X2279286Y-10757331D01*
X2288810Y-10738284D01*
X2298333Y-10728760D01*
X2317381Y-10719236D01*
X2469762Y-10919236D02*
X2469762Y-10785903D01*
X2469762Y-10804950D02*
X2479286Y-10795427D01*
X2498333Y-10785903D01*
X2526905Y-10785903D01*
X2545952Y-10795427D01*
X2555476Y-10814474D01*
X2555476Y-10919236D01*
X2555476Y-10814474D02*
X2565000Y-10795427D01*
X2584048Y-10785903D01*
X2612619Y-10785903D01*
X2631667Y-10795427D01*
X2641190Y-10814474D01*
X2641190Y-10919236D01*
X2736429Y-10919236D02*
X2736429Y-10785903D01*
X2736429Y-10804950D02*
X2745952Y-10795427D01*
X2765000Y-10785903D01*
X2793571Y-10785903D01*
X2812619Y-10795427D01*
X2822143Y-10814474D01*
X2822143Y-10919236D01*
X2822143Y-10814474D02*
X2831667Y-10795427D01*
X2850714Y-10785903D01*
X2879286Y-10785903D01*
X2898333Y-10795427D01*
X2907857Y-10814474D01*
X2907857Y-10919236D01*
X3298333Y-10709712D02*
X3126905Y-10966855D01*
X3555476Y-10719236D02*
X3574524Y-10719236D01*
X3593571Y-10728760D01*
X3603095Y-10738284D01*
X3612619Y-10757331D01*
X3622143Y-10795427D01*
X3622143Y-10843046D01*
X3612619Y-10881141D01*
X3603095Y-10900189D01*
X3593571Y-10909712D01*
X3574524Y-10919236D01*
X3555476Y-10919236D01*
X3536428Y-10909712D01*
X3526905Y-10900189D01*
X3517381Y-10881141D01*
X3507857Y-10843046D01*
X3507857Y-10795427D01*
X3517381Y-10757331D01*
X3526905Y-10738284D01*
X3536428Y-10728760D01*
X3555476Y-10719236D01*
X3707857Y-10900189D02*
X3717381Y-10909712D01*
X3707857Y-10919236D01*
X3698333Y-10909712D01*
X3707857Y-10900189D01*
X3707857Y-10919236D01*
X3841190Y-10719236D02*
X3860238Y-10719236D01*
X3879286Y-10728760D01*
X3888809Y-10738284D01*
X3898333Y-10757331D01*
X3907857Y-10795427D01*
X3907857Y-10843046D01*
X3898333Y-10881141D01*
X3888809Y-10900189D01*
X3879286Y-10909712D01*
X3860238Y-10919236D01*
X3841190Y-10919236D01*
X3822143Y-10909712D01*
X3812619Y-10900189D01*
X3803095Y-10881141D01*
X3793571Y-10843046D01*
X3793571Y-10795427D01*
X3803095Y-10757331D01*
X3812619Y-10738284D01*
X3822143Y-10728760D01*
X3841190Y-10719236D01*
X4079286Y-10785903D02*
X4079286Y-10919236D01*
X4031667Y-10709712D02*
X3984048Y-10852570D01*
X4107857Y-10852570D01*
X4165000Y-10719236D02*
X4288810Y-10719236D01*
X4222143Y-10795427D01*
X4250714Y-10795427D01*
X4269762Y-10804950D01*
X4279286Y-10814474D01*
X4288810Y-10833522D01*
X4288810Y-10881141D01*
X4279286Y-10900189D01*
X4269762Y-10909712D01*
X4250714Y-10919236D01*
X4193571Y-10919236D01*
X4174524Y-10909712D01*
X4165000Y-10900189D01*
X4355476Y-10719236D02*
X4479286Y-10719236D01*
X4412619Y-10795427D01*
X4441190Y-10795427D01*
X4460238Y-10804950D01*
X4469762Y-10814474D01*
X4479286Y-10833522D01*
X4479286Y-10881141D01*
X4469762Y-10900189D01*
X4460238Y-10909712D01*
X4441190Y-10919236D01*
X4384048Y-10919236D01*
X4365000Y-10909712D01*
X4355476Y-10900189D01*
X4555476Y-10719236D02*
X4555476Y-10757331D01*
X4631667Y-10719236D02*
X4631667Y-10757331D01*
X4926905Y-10995427D02*
X4917381Y-10985903D01*
X4898333Y-10957331D01*
X4888810Y-10938284D01*
X4879286Y-10909712D01*
X4869762Y-10862093D01*
X4869762Y-10823998D01*
X4879286Y-10776379D01*
X4888810Y-10747808D01*
X4898333Y-10728760D01*
X4917381Y-10700189D01*
X4926905Y-10690665D01*
X5107857Y-10919236D02*
X4993571Y-10919236D01*
X5050714Y-10919236D02*
X5050714Y-10719236D01*
X5031667Y-10747808D01*
X5012619Y-10766855D01*
X4993571Y-10776379D01*
X5203095Y-10919236D02*
X5241190Y-10919236D01*
X5260238Y-10909712D01*
X5269762Y-10900189D01*
X5288810Y-10871617D01*
X5298333Y-10833522D01*
X5298333Y-10757331D01*
X5288810Y-10738284D01*
X5279286Y-10728760D01*
X5260238Y-10719236D01*
X5222143Y-10719236D01*
X5203095Y-10728760D01*
X5193571Y-10738284D01*
X5184048Y-10757331D01*
X5184048Y-10804950D01*
X5193571Y-10823998D01*
X5203095Y-10833522D01*
X5222143Y-10843046D01*
X5260238Y-10843046D01*
X5279286Y-10833522D01*
X5288810Y-10823998D01*
X5298333Y-10804950D01*
X5374524Y-10738284D02*
X5384048Y-10728760D01*
X5403095Y-10719236D01*
X5450714Y-10719236D01*
X5469762Y-10728760D01*
X5479286Y-10738284D01*
X5488810Y-10757331D01*
X5488810Y-10776379D01*
X5479286Y-10804950D01*
X5365000Y-10919236D01*
X5488810Y-10919236D01*
X5726905Y-10919236D02*
X5726905Y-10719236D01*
X5812619Y-10919236D02*
X5812619Y-10814474D01*
X5803095Y-10795427D01*
X5784048Y-10785903D01*
X5755476Y-10785903D01*
X5736428Y-10795427D01*
X5726905Y-10804950D01*
X5936428Y-10919236D02*
X5917381Y-10909712D01*
X5907857Y-10900189D01*
X5898333Y-10881141D01*
X5898333Y-10823998D01*
X5907857Y-10804950D01*
X5917381Y-10795427D01*
X5936428Y-10785903D01*
X5965000Y-10785903D01*
X5984048Y-10795427D01*
X5993571Y-10804950D01*
X6003095Y-10823998D01*
X6003095Y-10881141D01*
X5993571Y-10900189D01*
X5984048Y-10909712D01*
X5965000Y-10919236D01*
X5936428Y-10919236D01*
X6117381Y-10919236D02*
X6098333Y-10909712D01*
X6088809Y-10890665D01*
X6088809Y-10719236D01*
X6269762Y-10909712D02*
X6250714Y-10919236D01*
X6212619Y-10919236D01*
X6193571Y-10909712D01*
X6184048Y-10890665D01*
X6184048Y-10814474D01*
X6193571Y-10795427D01*
X6212619Y-10785903D01*
X6250714Y-10785903D01*
X6269762Y-10795427D01*
X6279286Y-10814474D01*
X6279286Y-10833522D01*
X6184048Y-10852570D01*
X6355476Y-10909712D02*
X6374524Y-10919236D01*
X6412619Y-10919236D01*
X6431667Y-10909712D01*
X6441190Y-10890665D01*
X6441190Y-10881141D01*
X6431667Y-10862093D01*
X6412619Y-10852570D01*
X6384048Y-10852570D01*
X6365000Y-10843046D01*
X6355476Y-10823998D01*
X6355476Y-10814474D01*
X6365000Y-10795427D01*
X6384048Y-10785903D01*
X6412619Y-10785903D01*
X6431667Y-10795427D01*
X6507857Y-10995427D02*
X6517381Y-10985903D01*
X6536428Y-10957331D01*
X6545952Y-10938284D01*
X6555476Y-10909712D01*
X6565000Y-10862093D01*
X6565000Y-10823998D01*
X6555476Y-10776379D01*
X6545952Y-10747808D01*
X6536428Y-10728760D01*
X6517381Y-10700189D01*
X6507857Y-10690665D01*
D15*
X1285000Y-11162760D02*
X1355000Y-11092760D01*
X1285000Y-11022760D01*
X1215000Y-11092760D01*
X1285000Y-11162760D01*
D10*
X1717381Y-11183236D02*
X1603095Y-11183236D01*
X1660238Y-11183236D02*
X1660238Y-10983236D01*
X1641190Y-11011808D01*
X1622143Y-11030855D01*
X1603095Y-11040379D01*
X1803095Y-11164189D02*
X1812619Y-11173712D01*
X1803095Y-11183236D01*
X1793571Y-11173712D01*
X1803095Y-11164189D01*
X1803095Y-11183236D01*
X1984048Y-11049903D02*
X1984048Y-11183236D01*
X1936428Y-10973712D02*
X1888809Y-11116570D01*
X2012619Y-11116570D01*
X2126905Y-10983236D02*
X2145952Y-10983236D01*
X2165000Y-10992760D01*
X2174524Y-11002284D01*
X2184048Y-11021331D01*
X2193571Y-11059427D01*
X2193571Y-11107046D01*
X2184048Y-11145141D01*
X2174524Y-11164189D01*
X2165000Y-11173712D01*
X2145952Y-11183236D01*
X2126905Y-11183236D01*
X2107857Y-11173712D01*
X2098333Y-11164189D01*
X2088809Y-11145141D01*
X2079286Y-11107046D01*
X2079286Y-11059427D01*
X2088809Y-11021331D01*
X2098333Y-11002284D01*
X2107857Y-10992760D01*
X2126905Y-10983236D01*
X2317381Y-10983236D02*
X2336429Y-10983236D01*
X2355476Y-10992760D01*
X2365000Y-11002284D01*
X2374524Y-11021331D01*
X2384048Y-11059427D01*
X2384048Y-11107046D01*
X2374524Y-11145141D01*
X2365000Y-11164189D01*
X2355476Y-11173712D01*
X2336429Y-11183236D01*
X2317381Y-11183236D01*
X2298333Y-11173712D01*
X2288810Y-11164189D01*
X2279286Y-11145141D01*
X2269762Y-11107046D01*
X2269762Y-11059427D01*
X2279286Y-11021331D01*
X2288810Y-11002284D01*
X2298333Y-10992760D01*
X2317381Y-10983236D01*
X2469762Y-11183236D02*
X2469762Y-11049903D01*
X2469762Y-11068950D02*
X2479286Y-11059427D01*
X2498333Y-11049903D01*
X2526905Y-11049903D01*
X2545952Y-11059427D01*
X2555476Y-11078474D01*
X2555476Y-11183236D01*
X2555476Y-11078474D02*
X2565000Y-11059427D01*
X2584048Y-11049903D01*
X2612619Y-11049903D01*
X2631667Y-11059427D01*
X2641190Y-11078474D01*
X2641190Y-11183236D01*
X2736429Y-11183236D02*
X2736429Y-11049903D01*
X2736429Y-11068950D02*
X2745952Y-11059427D01*
X2765000Y-11049903D01*
X2793571Y-11049903D01*
X2812619Y-11059427D01*
X2822143Y-11078474D01*
X2822143Y-11183236D01*
X2822143Y-11078474D02*
X2831667Y-11059427D01*
X2850714Y-11049903D01*
X2879286Y-11049903D01*
X2898333Y-11059427D01*
X2907857Y-11078474D01*
X2907857Y-11183236D01*
X3298333Y-10973712D02*
X3126905Y-11230855D01*
X3555476Y-10983236D02*
X3574524Y-10983236D01*
X3593571Y-10992760D01*
X3603095Y-11002284D01*
X3612619Y-11021331D01*
X3622143Y-11059427D01*
X3622143Y-11107046D01*
X3612619Y-11145141D01*
X3603095Y-11164189D01*
X3593571Y-11173712D01*
X3574524Y-11183236D01*
X3555476Y-11183236D01*
X3536428Y-11173712D01*
X3526905Y-11164189D01*
X3517381Y-11145141D01*
X3507857Y-11107046D01*
X3507857Y-11059427D01*
X3517381Y-11021331D01*
X3526905Y-11002284D01*
X3536428Y-10992760D01*
X3555476Y-10983236D01*
X3707857Y-11164189D02*
X3717381Y-11173712D01*
X3707857Y-11183236D01*
X3698333Y-11173712D01*
X3707857Y-11164189D01*
X3707857Y-11183236D01*
X3841190Y-10983236D02*
X3860238Y-10983236D01*
X3879286Y-10992760D01*
X3888809Y-11002284D01*
X3898333Y-11021331D01*
X3907857Y-11059427D01*
X3907857Y-11107046D01*
X3898333Y-11145141D01*
X3888809Y-11164189D01*
X3879286Y-11173712D01*
X3860238Y-11183236D01*
X3841190Y-11183236D01*
X3822143Y-11173712D01*
X3812619Y-11164189D01*
X3803095Y-11145141D01*
X3793571Y-11107046D01*
X3793571Y-11059427D01*
X3803095Y-11021331D01*
X3812619Y-11002284D01*
X3822143Y-10992760D01*
X3841190Y-10983236D01*
X4088809Y-10983236D02*
X3993571Y-10983236D01*
X3984048Y-11078474D01*
X3993571Y-11068950D01*
X4012619Y-11059427D01*
X4060238Y-11059427D01*
X4079286Y-11068950D01*
X4088809Y-11078474D01*
X4098333Y-11097522D01*
X4098333Y-11145141D01*
X4088809Y-11164189D01*
X4079286Y-11173712D01*
X4060238Y-11183236D01*
X4012619Y-11183236D01*
X3993571Y-11173712D01*
X3984048Y-11164189D01*
X4279286Y-10983236D02*
X4184048Y-10983236D01*
X4174524Y-11078474D01*
X4184048Y-11068950D01*
X4203095Y-11059427D01*
X4250714Y-11059427D01*
X4269762Y-11068950D01*
X4279286Y-11078474D01*
X4288810Y-11097522D01*
X4288810Y-11145141D01*
X4279286Y-11164189D01*
X4269762Y-11173712D01*
X4250714Y-11183236D01*
X4203095Y-11183236D01*
X4184048Y-11173712D01*
X4174524Y-11164189D01*
X4479286Y-11183236D02*
X4365000Y-11183236D01*
X4422143Y-11183236D02*
X4422143Y-10983236D01*
X4403095Y-11011808D01*
X4384048Y-11030855D01*
X4365000Y-11040379D01*
X4555476Y-10983236D02*
X4555476Y-11021331D01*
X4631667Y-10983236D02*
X4631667Y-11021331D01*
X4926905Y-11259427D02*
X4917381Y-11249903D01*
X4898333Y-11221331D01*
X4888810Y-11202284D01*
X4879286Y-11173712D01*
X4869762Y-11126093D01*
X4869762Y-11087998D01*
X4879286Y-11040379D01*
X4888810Y-11011808D01*
X4898333Y-10992760D01*
X4917381Y-10964189D01*
X4926905Y-10954665D01*
X5088810Y-10983236D02*
X5050714Y-10983236D01*
X5031667Y-10992760D01*
X5022143Y-11002284D01*
X5003095Y-11030855D01*
X4993571Y-11068950D01*
X4993571Y-11145141D01*
X5003095Y-11164189D01*
X5012619Y-11173712D01*
X5031667Y-11183236D01*
X5069762Y-11183236D01*
X5088810Y-11173712D01*
X5098333Y-11164189D01*
X5107857Y-11145141D01*
X5107857Y-11097522D01*
X5098333Y-11078474D01*
X5088810Y-11068950D01*
X5069762Y-11059427D01*
X5031667Y-11059427D01*
X5012619Y-11068950D01*
X5003095Y-11078474D01*
X4993571Y-11097522D01*
X5345952Y-11183236D02*
X5345952Y-10983236D01*
X5431667Y-11183236D02*
X5431667Y-11078474D01*
X5422143Y-11059427D01*
X5403095Y-11049903D01*
X5374524Y-11049903D01*
X5355476Y-11059427D01*
X5345952Y-11068950D01*
X5555476Y-11183236D02*
X5536429Y-11173712D01*
X5526905Y-11164189D01*
X5517381Y-11145141D01*
X5517381Y-11087998D01*
X5526905Y-11068950D01*
X5536429Y-11059427D01*
X5555476Y-11049903D01*
X5584048Y-11049903D01*
X5603095Y-11059427D01*
X5612619Y-11068950D01*
X5622143Y-11087998D01*
X5622143Y-11145141D01*
X5612619Y-11164189D01*
X5603095Y-11173712D01*
X5584048Y-11183236D01*
X5555476Y-11183236D01*
X5736428Y-11183236D02*
X5717381Y-11173712D01*
X5707857Y-11154665D01*
X5707857Y-10983236D01*
X5888809Y-11173712D02*
X5869762Y-11183236D01*
X5831667Y-11183236D01*
X5812619Y-11173712D01*
X5803095Y-11154665D01*
X5803095Y-11078474D01*
X5812619Y-11059427D01*
X5831667Y-11049903D01*
X5869762Y-11049903D01*
X5888809Y-11059427D01*
X5898333Y-11078474D01*
X5898333Y-11097522D01*
X5803095Y-11116570D01*
X5974524Y-11173712D02*
X5993571Y-11183236D01*
X6031667Y-11183236D01*
X6050714Y-11173712D01*
X6060238Y-11154665D01*
X6060238Y-11145141D01*
X6050714Y-11126093D01*
X6031667Y-11116570D01*
X6003095Y-11116570D01*
X5984048Y-11107046D01*
X5974524Y-11087998D01*
X5974524Y-11078474D01*
X5984048Y-11059427D01*
X6003095Y-11049903D01*
X6031667Y-11049903D01*
X6050714Y-11059427D01*
X6126905Y-11259427D02*
X6136428Y-11249903D01*
X6155476Y-11221331D01*
X6165000Y-11202284D01*
X6174524Y-11173712D01*
X6184048Y-11126093D01*
X6184048Y-11087998D01*
X6174524Y-11040379D01*
X6165000Y-11011808D01*
X6155476Y-10992760D01*
X6136428Y-10964189D01*
X6126905Y-10954665D01*
M02*
