  0
SECTION
  2
HEADER
  9
$ANGBASE
  50
0.0
  9
$ANGDIR
  70
1
  9
$MEASUREMENT
  70
1
  0
ENDSEC
  0
SECTION
  2
TABLES
  0
TABLE
  2
LTYPE
  70
4
  0
LTYPE
  5
40F
  2
CONTINUOUS
  70
0
  3
Solid line
  72
65
  73
0
  40
0.0
  0
LTYPE
  5
410
  2
DASHDOT
 70
0
  3
Dash Dot ____ _ ____ _
 72
65
 73
4
 40
2.0
 49
1.25
 49
-0.25
 49
0.25
 49
-0.25
  0
LTYPE
  5
411
  2
DASHED
 70
0
  3
Dashed __ __ __ __ __
 72
65
 73
2
 40
0.75
 49
0.5
 49
-0.25
  0
LTYPE
  5
43B
  2
DOTTED
 70
0
  3
Dotted .  .  .  .
 72
65
 73
2
 40
0.2
 49
0.0
 49
-0.2
  0
ENDTAB
  0
TABLE
  2
STYLE
  70
4
  0
STYLE
  2
KICAD
  70
0
  40
0
  41
1
  42
1
  50
0
  71
0
  3
isocp.shx
  0
STYLE
  2
KICADB
  70
0
  40
0
  41
1
  42
1
  50
0
  71
0
  3
isocp.shx
  0
STYLE
  2
KICADI
  70
0
  40
0
  41
1
  42
1
  50
15
  71
0
  3
isocp.shx
  0
STYLE
  2
KICADBI
  70
0
  40
0
  41
1
  42
1
  50
15
  71
0
  3
isocp.shx
  0
ENDTAB
  0
TABLE
  2
LAYER
  70
1
  0
LAYER
  2
BLACK
  70
0
  62
7
  6
CONTINUOUS
  0
ENDTAB
  0
ENDSEC
  0
SECTION
  2
ENTITIES
0
LINE
8
BLACK
6
CONTINUOUS
10
20.3
20
-27.1
11
66.2
21
-27.1
0
ARC
8
BLACK
10
20.3
20
-100.1
40
2
50
-180
51
-90
0
ARC
8
BLACK
10
20.3
20
-29.1
40
2
50
90
51
180
0
ARC
8
BLACK
10
66.2
20
-100.1
40
2
50
-90
51
-0
0
LINE
8
BLACK
6
CONTINUOUS
10
66.2
20
-102.1
11
20.3
21
-102.1
0
LINE
8
BLACK
6
CONTINUOUS
10
68.2
20
-29.1
11
68.2
21
-100.1
0
LINE
8
BLACK
6
CONTINUOUS
10
18.3
20
-100.1
11
18.3
21
-29.1
0
ARC
8
BLACK
10
66.2
20
-29.1
40
2
50
-0
51
90
0
LINE
8
BLACK
6
CONTINUOUS
10
19.9
20
-28.7
11
23.1
21
-31.9
0
LINE
8
BLACK
6
CONTINUOUS
10
23.1
20
-28.7
11
19.9
21
-31.9
0
LINE
8
BLACK
6
CONTINUOUS
10
19.9
20
-97.3
11
23.1
21
-100.5
0
LINE
8
BLACK
6
CONTINUOUS
10
23.1
20
-97.3
11
19.9
21
-100.5
0
LINE
8
BLACK
6
CONTINUOUS
10
63.4
20
-28.7
11
66.6
21
-31.9
0
LINE
8
BLACK
6
CONTINUOUS
10
66.6
20
-28.7
11
63.4
21
-31.9
0
LINE
8
BLACK
6
CONTINUOUS
10
63.4
20
-97.3
11
66.6
21
-100.5
0
LINE
8
BLACK
6
CONTINUOUS
10
66.6
20
-97.3
11
63.4
21
-100.5
0
LINE
8
BLACK
6
CONTINUOUS
10
20.8262
20
-105.255
11
20.8262
21
-103.255
0
LINE
8
BLACK
6
CONTINUOUS
10
20.8262
20
-103.255
11
21.3024
21
-103.255
0
LINE
8
BLACK
6
CONTINUOUS
10
21.3024
20
-103.255
11
21.5881
21
-103.35
0
LINE
8
BLACK
6
CONTINUOUS
10
21.5881
20
-103.35
11
21.7786
21
-103.54
0
LINE
8
BLACK
6
CONTINUOUS
10
21.7786
20
-103.54
11
21.8738
21
-103.731
0
LINE
8
BLACK
6
CONTINUOUS
10
21.8738
20
-103.731
11
21.969
21
-104.112
0
LINE
8
BLACK
6
CONTINUOUS
10
21.969
20
-104.112
11
21.969
21
-104.398
0
LINE
8
BLACK
6
CONTINUOUS
10
21.969
20
-104.398
11
21.8738
21
-104.779
0
LINE
8
BLACK
6
CONTINUOUS
10
21.8738
20
-104.779
11
21.7786
21
-104.969
0
LINE
8
BLACK
6
CONTINUOUS
10
21.7786
20
-104.969
11
21.5881
21
-105.16
0
LINE
8
BLACK
6
CONTINUOUS
10
21.5881
20
-105.16
11
21.3024
21
-105.255
0
LINE
8
BLACK
6
CONTINUOUS
10
21.3024
20
-105.255
11
20.8262
21
-105.255
0
LINE
8
BLACK
6
CONTINUOUS
10
22.8262
20
-105.255
11
22.8262
21
-103.921
0
LINE
8
BLACK
6
CONTINUOUS
10
22.8262
20
-104.302
11
22.9214
21
-104.112
0
LINE
8
BLACK
6
CONTINUOUS
10
22.9214
20
-104.112
11
23.0167
21
-104.017
0
LINE
8
BLACK
6
CONTINUOUS
10
23.0167
20
-104.017
11
23.2071
21
-103.921
0
LINE
8
BLACK
6
CONTINUOUS
10
23.2071
20
-103.921
11
23.3976
21
-103.921
0
LINE
8
BLACK
6
CONTINUOUS
10
24.0643
20
-105.255
11
24.0643
21
-103.921
0
LINE
8
BLACK
6
CONTINUOUS
10
24.0643
20
-103.255
11
23.969
21
-103.35
0
LINE
8
BLACK
6
CONTINUOUS
10
23.969
20
-103.35
11
24.0643
21
-103.445
0
LINE
8
BLACK
6
CONTINUOUS
10
24.0643
20
-103.445
11
24.1595
21
-103.35
0
LINE
8
BLACK
6
CONTINUOUS
10
24.1595
20
-103.35
11
24.0643
21
-103.255
0
LINE
8
BLACK
6
CONTINUOUS
10
24.0643
20
-103.255
11
24.0643
21
-103.445
0
LINE
8
BLACK
6
CONTINUOUS
10
25.3024
20
-105.255
11
25.1119
21
-105.16
0
LINE
8
BLACK
6
CONTINUOUS
10
25.1119
20
-105.16
11
25.0167
21
-104.969
0
LINE
8
BLACK
6
CONTINUOUS
10
25.0167
20
-104.969
11
25.0167
21
-103.255
0
LINE
8
BLACK
6
CONTINUOUS
10
26.35
20
-105.255
11
26.1595
21
-105.16
0
LINE
8
BLACK
6
CONTINUOUS
10
26.1595
20
-105.16
11
26.0643
21
-104.969
0
LINE
8
BLACK
6
CONTINUOUS
10
26.0643
20
-104.969
11
26.0643
21
-103.255
0
LINE
8
BLACK
6
CONTINUOUS
10
28.6357
20
-105.255
11
28.6357
21
-103.255
0
LINE
8
BLACK
6
CONTINUOUS
10
28.6357
20
-103.255
11
29.3024
21
-104.683
0
LINE
8
BLACK
6
CONTINUOUS
10
29.3024
20
-104.683
11
29.969
21
-103.255
0
LINE
8
BLACK
6
CONTINUOUS
10
29.969
20
-103.255
11
29.969
21
-105.255
0
LINE
8
BLACK
6
CONTINUOUS
10
31.7786
20
-105.255
11
31.7786
21
-104.207
0
LINE
8
BLACK
6
CONTINUOUS
10
31.7786
20
-104.207
11
31.6833
21
-104.017
0
LINE
8
BLACK
6
CONTINUOUS
10
31.6833
20
-104.017
11
31.4929
21
-103.921
0
LINE
8
BLACK
6
CONTINUOUS
10
31.4929
20
-103.921
11
31.1119
21
-103.921
0
LINE
8
BLACK
6
CONTINUOUS
10
31.1119
20
-103.921
11
30.9214
21
-104.017
0
LINE
8
BLACK
6
CONTINUOUS
10
31.7786
20
-105.16
11
31.5881
21
-105.255
0
LINE
8
BLACK
6
CONTINUOUS
10
31.5881
20
-105.255
11
31.1119
21
-105.255
0
LINE
8
BLACK
6
CONTINUOUS
10
31.1119
20
-105.255
11
30.9214
21
-105.16
0
LINE
8
BLACK
6
CONTINUOUS
10
30.9214
20
-105.16
11
30.8262
21
-104.969
0
LINE
8
BLACK
6
CONTINUOUS
10
30.8262
20
-104.969
11
30.8262
21
-104.779
0
LINE
8
BLACK
6
CONTINUOUS
10
30.8262
20
-104.779
11
30.9214
21
-104.588
0
LINE
8
BLACK
6
CONTINUOUS
10
30.9214
20
-104.588
11
31.1119
21
-104.493
0
LINE
8
BLACK
6
CONTINUOUS
10
31.1119
20
-104.493
11
31.5881
21
-104.493
0
LINE
8
BLACK
6
CONTINUOUS
10
31.5881
20
-104.493
11
31.7786
21
-104.398
0
LINE
8
BLACK
6
CONTINUOUS
10
32.731
20
-103.921
11
32.731
21
-105.921
0
LINE
8
BLACK
6
CONTINUOUS
10
32.731
20
-104.017
11
32.9214
21
-103.921
0
LINE
8
BLACK
6
CONTINUOUS
10
32.9214
20
-103.921
11
33.3024
21
-103.921
0
LINE
8
BLACK
6
CONTINUOUS
10
33.3024
20
-103.921
11
33.4929
21
-104.017
0
LINE
8
BLACK
6
CONTINUOUS
10
33.4929
20
-104.017
11
33.5881
21
-104.112
0
LINE
8
BLACK
6
CONTINUOUS
10
33.5881
20
-104.112
11
33.6833
21
-104.302
0
LINE
8
BLACK
6
CONTINUOUS
10
33.6833
20
-104.302
11
33.6833
21
-104.874
0
LINE
8
BLACK
6
CONTINUOUS
10
33.6833
20
-104.874
11
33.5881
21
-105.064
0
LINE
8
BLACK
6
CONTINUOUS
10
33.5881
20
-105.064
11
33.4929
21
-105.16
0
LINE
8
BLACK
6
CONTINUOUS
10
33.4929
20
-105.16
11
33.3024
21
-105.255
0
LINE
8
BLACK
6
CONTINUOUS
10
33.3024
20
-105.255
11
32.9214
21
-105.255
0
LINE
8
BLACK
6
CONTINUOUS
10
32.9214
20
-105.255
11
32.731
21
-105.16
0
LINE
8
BLACK
6
CONTINUOUS
10
34.5405
20
-105.064
11
34.6357
21
-105.16
0
LINE
8
BLACK
6
CONTINUOUS
10
34.6357
20
-105.16
11
34.5405
21
-105.255
0
LINE
8
BLACK
6
CONTINUOUS
10
34.5405
20
-105.255
11
34.4452
21
-105.16
0
LINE
8
BLACK
6
CONTINUOUS
10
34.4452
20
-105.16
11
34.5405
21
-105.064
0
LINE
8
BLACK
6
CONTINUOUS
10
34.5405
20
-105.064
11
34.5405
21
-105.255
0
LINE
8
BLACK
6
CONTINUOUS
10
34.5405
20
-104.017
11
34.6357
21
-104.112
0
LINE
8
BLACK
6
CONTINUOUS
10
34.6357
20
-104.112
11
34.5405
21
-104.207
0
LINE
8
BLACK
6
CONTINUOUS
10
34.5405
20
-104.207
11
34.4452
21
-104.112
0
LINE
8
BLACK
6
CONTINUOUS
10
34.4452
20
-104.112
11
34.5405
21
-104.017
0
LINE
8
BLACK
6
CONTINUOUS
10
34.5405
20
-104.017
11
34.5405
21
-104.207
0
LINE
8
BLACK
6
CONTINUOUS
10
16.25
20
-107.55
11
18.25
21
-109.55
0
LINE
8
BLACK
6
CONTINUOUS
10
18.25
20
-107.55
11
16.25
21
-109.55
0
LINE
8
BLACK
6
CONTINUOUS
10
20.6357
20
-107.455
11
21.8738
21
-107.455
0
LINE
8
BLACK
6
CONTINUOUS
10
21.8738
20
-107.455
11
21.2071
21
-108.217
0
LINE
8
BLACK
6
CONTINUOUS
10
21.2071
20
-108.217
11
21.4929
21
-108.217
0
LINE
8
BLACK
6
CONTINUOUS
10
21.4929
20
-108.217
11
21.6833
21
-108.312
0
LINE
8
BLACK
6
CONTINUOUS
10
21.6833
20
-108.312
11
21.7786
21
-108.407
0
LINE
8
BLACK
6
CONTINUOUS
10
21.7786
20
-108.407
11
21.8738
21
-108.598
0
LINE
8
BLACK
6
CONTINUOUS
10
21.8738
20
-108.598
11
21.8738
21
-109.074
0
LINE
8
BLACK
6
CONTINUOUS
10
21.8738
20
-109.074
11
21.7786
21
-109.264
0
LINE
8
BLACK
6
CONTINUOUS
10
21.7786
20
-109.264
11
21.6833
21
-109.36
0
LINE
8
BLACK
6
CONTINUOUS
10
21.6833
20
-109.36
11
21.4929
21
-109.455
0
LINE
8
BLACK
6
CONTINUOUS
10
21.4929
20
-109.455
11
20.9214
21
-109.455
0
LINE
8
BLACK
6
CONTINUOUS
10
20.9214
20
-109.455
11
20.731
21
-109.36
0
LINE
8
BLACK
6
CONTINUOUS
10
20.731
20
-109.36
11
20.6357
21
-109.264
0
LINE
8
BLACK
6
CONTINUOUS
10
22.731
20
-109.264
11
22.8262
21
-109.36
0
LINE
8
BLACK
6
CONTINUOUS
10
22.8262
20
-109.36
11
22.731
21
-109.455
0
LINE
8
BLACK
6
CONTINUOUS
10
22.731
20
-109.455
11
22.6357
21
-109.36
0
LINE
8
BLACK
6
CONTINUOUS
10
22.6357
20
-109.36
11
22.731
21
-109.264
0
LINE
8
BLACK
6
CONTINUOUS
10
22.731
20
-109.264
11
22.731
21
-109.455
0
LINE
8
BLACK
6
CONTINUOUS
10
23.5881
20
-107.645
11
23.6833
21
-107.55
0
LINE
8
BLACK
6
CONTINUOUS
10
23.6833
20
-107.55
11
23.8738
21
-107.455
0
LINE
8
BLACK
6
CONTINUOUS
10
23.8738
20
-107.455
11
24.35
21
-107.455
0
LINE
8
BLACK
6
CONTINUOUS
10
24.35
20
-107.455
11
24.5405
21
-107.55
0
LINE
8
BLACK
6
CONTINUOUS
10
24.5405
20
-107.55
11
24.6357
21
-107.645
0
LINE
8
BLACK
6
CONTINUOUS
10
24.6357
20
-107.645
11
24.731
21
-107.836
0
LINE
8
BLACK
6
CONTINUOUS
10
24.731
20
-107.836
11
24.731
21
-108.026
0
LINE
8
BLACK
6
CONTINUOUS
10
24.731
20
-108.026
11
24.6357
21
-108.312
0
LINE
8
BLACK
6
CONTINUOUS
10
24.6357
20
-108.312
11
23.4929
21
-109.455
0
LINE
8
BLACK
6
CONTINUOUS
10
23.4929
20
-109.455
11
24.731
21
-109.455
0
LINE
8
BLACK
6
CONTINUOUS
10
25.969
20
-107.455
11
26.1595
21
-107.455
0
LINE
8
BLACK
6
CONTINUOUS
10
26.1595
20
-107.455
11
26.35
21
-107.55
0
LINE
8
BLACK
6
CONTINUOUS
10
26.35
20
-107.55
11
26.4452
21
-107.645
0
LINE
8
BLACK
6
CONTINUOUS
10
26.4452
20
-107.645
11
26.5405
21
-107.836
0
LINE
8
BLACK
6
CONTINUOUS
10
26.5405
20
-107.836
11
26.6357
21
-108.217
0
LINE
8
BLACK
6
CONTINUOUS
10
26.6357
20
-108.217
11
26.6357
21
-108.693
0
LINE
8
BLACK
6
CONTINUOUS
10
26.6357
20
-108.693
11
26.5405
21
-109.074
0
LINE
8
BLACK
6
CONTINUOUS
10
26.5405
20
-109.074
11
26.4452
21
-109.264
0
LINE
8
BLACK
6
CONTINUOUS
10
26.4452
20
-109.264
11
26.35
21
-109.36
0
LINE
8
BLACK
6
CONTINUOUS
10
26.35
20
-109.36
11
26.1595
21
-109.455
0
LINE
8
BLACK
6
CONTINUOUS
10
26.1595
20
-109.455
11
25.969
21
-109.455
0
LINE
8
BLACK
6
CONTINUOUS
10
25.969
20
-109.455
11
25.7786
21
-109.36
0
LINE
8
BLACK
6
CONTINUOUS
10
25.7786
20
-109.36
11
25.6833
21
-109.264
0
LINE
8
BLACK
6
CONTINUOUS
10
25.6833
20
-109.264
11
25.5881
21
-109.074
0
LINE
8
BLACK
6
CONTINUOUS
10
25.5881
20
-109.074
11
25.4929
21
-108.693
0
LINE
8
BLACK
6
CONTINUOUS
10
25.4929
20
-108.693
11
25.4929
21
-108.217
0
LINE
8
BLACK
6
CONTINUOUS
10
25.4929
20
-108.217
11
25.5881
21
-107.836
0
LINE
8
BLACK
6
CONTINUOUS
10
25.5881
20
-107.836
11
25.6833
21
-107.645
0
LINE
8
BLACK
6
CONTINUOUS
10
25.6833
20
-107.645
11
25.7786
21
-107.55
0
LINE
8
BLACK
6
CONTINUOUS
10
25.7786
20
-107.55
11
25.969
21
-107.455
0
LINE
8
BLACK
6
CONTINUOUS
10
27.8738
20
-107.455
11
28.0643
21
-107.455
0
LINE
8
BLACK
6
CONTINUOUS
10
28.0643
20
-107.455
11
28.2548
21
-107.55
0
LINE
8
BLACK
6
CONTINUOUS
10
28.2548
20
-107.55
11
28.35
21
-107.645
0
LINE
8
BLACK
6
CONTINUOUS
10
28.35
20
-107.645
11
28.4452
21
-107.836
0
LINE
8
BLACK
6
CONTINUOUS
10
28.4452
20
-107.836
11
28.5405
21
-108.217
0
LINE
8
BLACK
6
CONTINUOUS
10
28.5405
20
-108.217
11
28.5405
21
-108.693
0
LINE
8
BLACK
6
CONTINUOUS
10
28.5405
20
-108.693
11
28.4452
21
-109.074
0
LINE
8
BLACK
6
CONTINUOUS
10
28.4452
20
-109.074
11
28.35
21
-109.264
0
LINE
8
BLACK
6
CONTINUOUS
10
28.35
20
-109.264
11
28.2548
21
-109.36
0
LINE
8
BLACK
6
CONTINUOUS
10
28.2548
20
-109.36
11
28.0643
21
-109.455
0
LINE
8
BLACK
6
CONTINUOUS
10
28.0643
20
-109.455
11
27.8738
21
-109.455
0
LINE
8
BLACK
6
CONTINUOUS
10
27.8738
20
-109.455
11
27.6833
21
-109.36
0
LINE
8
BLACK
6
CONTINUOUS
10
27.6833
20
-109.36
11
27.5881
21
-109.264
0
LINE
8
BLACK
6
CONTINUOUS
10
27.5881
20
-109.264
11
27.4929
21
-109.074
0
LINE
8
BLACK
6
CONTINUOUS
10
27.4929
20
-109.074
11
27.3976
21
-108.693
0
LINE
8
BLACK
6
CONTINUOUS
10
27.3976
20
-108.693
11
27.3976
21
-108.217
0
LINE
8
BLACK
6
CONTINUOUS
10
27.3976
20
-108.217
11
27.4929
21
-107.836
0
LINE
8
BLACK
6
CONTINUOUS
10
27.4929
20
-107.836
11
27.5881
21
-107.645
0
LINE
8
BLACK
6
CONTINUOUS
10
27.5881
20
-107.645
11
27.6833
21
-107.55
0
LINE
8
BLACK
6
CONTINUOUS
10
27.6833
20
-107.55
11
27.8738
21
-107.455
0
LINE
8
BLACK
6
CONTINUOUS
10
29.3976
20
-109.455
11
29.3976
21
-108.121
0
LINE
8
BLACK
6
CONTINUOUS
10
29.3976
20
-108.312
11
29.4929
21
-108.217
0
LINE
8
BLACK
6
CONTINUOUS
10
29.4929
20
-108.217
11
29.6833
21
-108.121
0
LINE
8
BLACK
6
CONTINUOUS
10
29.6833
20
-108.121
11
29.969
21
-108.121
0
LINE
8
BLACK
6
CONTINUOUS
10
29.969
20
-108.121
11
30.1595
21
-108.217
0
LINE
8
BLACK
6
CONTINUOUS
10
30.1595
20
-108.217
11
30.2548
21
-108.407
0
LINE
8
BLACK
6
CONTINUOUS
10
30.2548
20
-108.407
11
30.2548
21
-109.455
0
LINE
8
BLACK
6
CONTINUOUS
10
30.2548
20
-108.407
11
30.35
21
-108.217
0
LINE
8
BLACK
6
CONTINUOUS
10
30.35
20
-108.217
11
30.5405
21
-108.121
0
LINE
8
BLACK
6
CONTINUOUS
10
30.5405
20
-108.121
11
30.8262
21
-108.121
0
LINE
8
BLACK
6
CONTINUOUS
10
30.8262
20
-108.121
11
31.0167
21
-108.217
0
LINE
8
BLACK
6
CONTINUOUS
10
31.0167
20
-108.217
11
31.1119
21
-108.407
0
LINE
8
BLACK
6
CONTINUOUS
10
31.1119
20
-108.407
11
31.1119
21
-109.455
0
LINE
8
BLACK
6
CONTINUOUS
10
32.0643
20
-109.455
11
32.0643
21
-108.121
0
LINE
8
BLACK
6
CONTINUOUS
10
32.0643
20
-108.312
11
32.1595
21
-108.217
0
LINE
8
BLACK
6
CONTINUOUS
10
32.1595
20
-108.217
11
32.35
21
-108.121
0
LINE
8
BLACK
6
CONTINUOUS
10
32.35
20
-108.121
11
32.6357
21
-108.121
0
LINE
8
BLACK
6
CONTINUOUS
10
32.6357
20
-108.121
11
32.8262
21
-108.217
0
LINE
8
BLACK
6
CONTINUOUS
10
32.8262
20
-108.217
11
32.9214
21
-108.407
0
LINE
8
BLACK
6
CONTINUOUS
10
32.9214
20
-108.407
11
32.9214
21
-109.455
0
LINE
8
BLACK
6
CONTINUOUS
10
32.9214
20
-108.407
11
33.0167
21
-108.217
0
LINE
8
BLACK
6
CONTINUOUS
10
33.0167
20
-108.217
11
33.2071
21
-108.121
0
LINE
8
BLACK
6
CONTINUOUS
10
33.2071
20
-108.121
11
33.4929
21
-108.121
0
LINE
8
BLACK
6
CONTINUOUS
10
33.4929
20
-108.121
11
33.6833
21
-108.217
0
LINE
8
BLACK
6
CONTINUOUS
10
33.6833
20
-108.217
11
33.7786
21
-108.407
0
LINE
8
BLACK
6
CONTINUOUS
10
33.7786
20
-108.407
11
33.7786
21
-109.455
0
LINE
8
BLACK
6
CONTINUOUS
10
37.6833
20
-107.36
11
35.969
21
-109.931
0
LINE
8
BLACK
6
CONTINUOUS
10
40.2548
20
-107.455
11
40.4452
21
-107.455
0
LINE
8
BLACK
6
CONTINUOUS
10
40.4452
20
-107.455
11
40.6357
21
-107.55
0
LINE
8
BLACK
6
CONTINUOUS
10
40.6357
20
-107.55
11
40.731
21
-107.645
0
LINE
8
BLACK
6
CONTINUOUS
10
40.731
20
-107.645
11
40.8262
21
-107.836
0
LINE
8
BLACK
6
CONTINUOUS
10
40.8262
20
-107.836
11
40.9214
21
-108.217
0
LINE
8
BLACK
6
CONTINUOUS
10
40.9214
20
-108.217
11
40.9214
21
-108.693
0
LINE
8
BLACK
6
CONTINUOUS
10
40.9214
20
-108.693
11
40.8262
21
-109.074
0
LINE
8
BLACK
6
CONTINUOUS
10
40.8262
20
-109.074
11
40.731
21
-109.264
0
LINE
8
BLACK
6
CONTINUOUS
10
40.731
20
-109.264
11
40.6357
21
-109.36
0
LINE
8
BLACK
6
CONTINUOUS
10
40.6357
20
-109.36
11
40.4452
21
-109.455
0
LINE
8
BLACK
6
CONTINUOUS
10
40.4452
20
-109.455
11
40.2548
21
-109.455
0
LINE
8
BLACK
6
CONTINUOUS
10
40.2548
20
-109.455
11
40.0643
21
-109.36
0
LINE
8
BLACK
6
CONTINUOUS
10
40.0643
20
-109.36
11
39.969
21
-109.264
0
LINE
8
BLACK
6
CONTINUOUS
10
39.969
20
-109.264
11
39.8738
21
-109.074
0
LINE
8
BLACK
6
CONTINUOUS
10
39.8738
20
-109.074
11
39.7786
21
-108.693
0
LINE
8
BLACK
6
CONTINUOUS
10
39.7786
20
-108.693
11
39.7786
21
-108.217
0
LINE
8
BLACK
6
CONTINUOUS
10
39.7786
20
-108.217
11
39.8738
21
-107.836
0
LINE
8
BLACK
6
CONTINUOUS
10
39.8738
20
-107.836
11
39.969
21
-107.645
0
LINE
8
BLACK
6
CONTINUOUS
10
39.969
20
-107.645
11
40.0643
21
-107.55
0
LINE
8
BLACK
6
CONTINUOUS
10
40.0643
20
-107.55
11
40.2548
21
-107.455
0
LINE
8
BLACK
6
CONTINUOUS
10
41.7786
20
-109.264
11
41.8738
21
-109.36
0
LINE
8
BLACK
6
CONTINUOUS
10
41.8738
20
-109.36
11
41.7786
21
-109.455
0
LINE
8
BLACK
6
CONTINUOUS
10
41.7786
20
-109.455
11
41.6833
21
-109.36
0
LINE
8
BLACK
6
CONTINUOUS
10
41.6833
20
-109.36
11
41.7786
21
-109.264
0
LINE
8
BLACK
6
CONTINUOUS
10
41.7786
20
-109.264
11
41.7786
21
-109.455
0
LINE
8
BLACK
6
CONTINUOUS
10
43.7786
20
-109.455
11
42.6357
21
-109.455
0
LINE
8
BLACK
6
CONTINUOUS
10
43.2071
20
-109.455
11
43.2071
21
-107.455
0
LINE
8
BLACK
6
CONTINUOUS
10
43.2071
20
-107.455
11
43.0167
21
-107.74
0
LINE
8
BLACK
6
CONTINUOUS
10
43.0167
20
-107.74
11
42.8262
21
-107.931
0
LINE
8
BLACK
6
CONTINUOUS
10
42.8262
20
-107.931
11
42.6357
21
-108.026
0
LINE
8
BLACK
6
CONTINUOUS
10
44.5405
20
-107.645
11
44.6357
21
-107.55
0
LINE
8
BLACK
6
CONTINUOUS
10
44.6357
20
-107.55
11
44.8262
21
-107.455
0
LINE
8
BLACK
6
CONTINUOUS
10
44.8262
20
-107.455
11
45.3024
21
-107.455
0
LINE
8
BLACK
6
CONTINUOUS
10
45.3024
20
-107.455
11
45.4929
21
-107.55
0
LINE
8
BLACK
6
CONTINUOUS
10
45.4929
20
-107.55
11
45.5881
21
-107.645
0
LINE
8
BLACK
6
CONTINUOUS
10
45.5881
20
-107.645
11
45.6833
21
-107.836
0
LINE
8
BLACK
6
CONTINUOUS
10
45.6833
20
-107.836
11
45.6833
21
-108.026
0
LINE
8
BLACK
6
CONTINUOUS
10
45.6833
20
-108.026
11
45.5881
21
-108.312
0
LINE
8
BLACK
6
CONTINUOUS
10
45.5881
20
-108.312
11
44.4452
21
-109.455
0
LINE
8
BLACK
6
CONTINUOUS
10
44.4452
20
-109.455
11
45.6833
21
-109.455
0
LINE
8
BLACK
6
CONTINUOUS
10
47.3976
20
-107.455
11
47.0167
21
-107.455
0
LINE
8
BLACK
6
CONTINUOUS
10
47.0167
20
-107.455
11
46.8262
21
-107.55
0
LINE
8
BLACK
6
CONTINUOUS
10
46.8262
20
-107.55
11
46.731
21
-107.645
0
LINE
8
BLACK
6
CONTINUOUS
10
46.731
20
-107.645
11
46.5405
21
-107.931
0
LINE
8
BLACK
6
CONTINUOUS
10
46.5405
20
-107.931
11
46.4452
21
-108.312
0
LINE
8
BLACK
6
CONTINUOUS
10
46.4452
20
-108.312
11
46.4452
21
-109.074
0
LINE
8
BLACK
6
CONTINUOUS
10
46.4452
20
-109.074
11
46.5405
21
-109.264
0
LINE
8
BLACK
6
CONTINUOUS
10
46.5405
20
-109.264
11
46.6357
21
-109.36
0
LINE
8
BLACK
6
CONTINUOUS
10
46.6357
20
-109.36
11
46.8262
21
-109.455
0
LINE
8
BLACK
6
CONTINUOUS
10
46.8262
20
-109.455
11
47.2071
21
-109.455
0
LINE
8
BLACK
6
CONTINUOUS
10
47.2071
20
-109.455
11
47.3976
21
-109.36
0
LINE
8
BLACK
6
CONTINUOUS
10
47.3976
20
-109.36
11
47.4929
21
-109.264
0
LINE
8
BLACK
6
CONTINUOUS
10
47.4929
20
-109.264
11
47.5881
21
-109.074
0
LINE
8
BLACK
6
CONTINUOUS
10
47.5881
20
-109.074
11
47.5881
21
-108.598
0
LINE
8
BLACK
6
CONTINUOUS
10
47.5881
20
-108.598
11
47.4929
21
-108.407
0
LINE
8
BLACK
6
CONTINUOUS
10
47.4929
20
-108.407
11
47.3976
21
-108.312
0
LINE
8
BLACK
6
CONTINUOUS
10
47.3976
20
-108.312
11
47.2071
21
-108.217
0
LINE
8
BLACK
6
CONTINUOUS
10
47.2071
20
-108.217
11
46.8262
21
-108.217
0
LINE
8
BLACK
6
CONTINUOUS
10
46.8262
20
-108.217
11
46.6357
21
-108.312
0
LINE
8
BLACK
6
CONTINUOUS
10
46.6357
20
-108.312
11
46.5405
21
-108.407
0
LINE
8
BLACK
6
CONTINUOUS
10
46.5405
20
-108.407
11
46.4452
21
-108.598
0
LINE
8
BLACK
6
CONTINUOUS
10
48.8262
20
-107.455
11
49.0167
21
-107.455
0
LINE
8
BLACK
6
CONTINUOUS
10
49.0167
20
-107.455
11
49.2071
21
-107.55
0
LINE
8
BLACK
6
CONTINUOUS
10
49.2071
20
-107.55
11
49.3024
21
-107.645
0
LINE
8
BLACK
6
CONTINUOUS
10
49.3024
20
-107.645
11
49.3976
21
-107.836
0
LINE
8
BLACK
6
CONTINUOUS
10
49.3976
20
-107.836
11
49.4929
21
-108.217
0
LINE
8
BLACK
6
CONTINUOUS
10
49.4929
20
-108.217
11
49.4929
21
-108.693
0
LINE
8
BLACK
6
CONTINUOUS
10
49.4929
20
-108.693
11
49.3976
21
-109.074
0
LINE
8
BLACK
6
CONTINUOUS
10
49.3976
20
-109.074
11
49.3024
21
-109.264
0
LINE
8
BLACK
6
CONTINUOUS
10
49.3024
20
-109.264
11
49.2071
21
-109.36
0
LINE
8
BLACK
6
CONTINUOUS
10
49.2071
20
-109.36
11
49.0167
21
-109.455
0
LINE
8
BLACK
6
CONTINUOUS
10
49.0167
20
-109.455
11
48.8262
21
-109.455
0
LINE
8
BLACK
6
CONTINUOUS
10
48.8262
20
-109.455
11
48.6357
21
-109.36
0
LINE
8
BLACK
6
CONTINUOUS
10
48.6357
20
-109.36
11
48.5405
21
-109.264
0
LINE
8
BLACK
6
CONTINUOUS
10
48.5405
20
-109.264
11
48.4452
21
-109.074
0
LINE
8
BLACK
6
CONTINUOUS
10
48.4452
20
-109.074
11
48.35
21
-108.693
0
LINE
8
BLACK
6
CONTINUOUS
10
48.35
20
-108.693
11
48.35
21
-108.217
0
LINE
8
BLACK
6
CONTINUOUS
10
48.35
20
-108.217
11
48.4452
21
-107.836
0
LINE
8
BLACK
6
CONTINUOUS
10
48.4452
20
-107.836
11
48.5405
21
-107.645
0
LINE
8
BLACK
6
CONTINUOUS
10
48.5405
20
-107.645
11
48.6357
21
-107.55
0
LINE
8
BLACK
6
CONTINUOUS
10
48.6357
20
-107.55
11
48.8262
21
-107.455
0
LINE
8
BLACK
6
CONTINUOUS
10
50.2548
20
-107.455
11
50.2548
21
-107.836
0
LINE
8
BLACK
6
CONTINUOUS
10
51.0167
20
-107.455
11
51.0167
21
-107.836
0
LINE
8
BLACK
6
CONTINUOUS
10
53.969
20
-110.217
11
53.8738
21
-110.121
0
LINE
8
BLACK
6
CONTINUOUS
10
53.8738
20
-110.121
11
53.6833
21
-109.836
0
LINE
8
BLACK
6
CONTINUOUS
10
53.6833
20
-109.836
11
53.5881
21
-109.645
0
LINE
8
BLACK
6
CONTINUOUS
10
53.5881
20
-109.645
11
53.4929
21
-109.36
0
LINE
8
BLACK
6
CONTINUOUS
10
53.4929
20
-109.36
11
53.3976
21
-108.883
0
LINE
8
BLACK
6
CONTINUOUS
10
53.3976
20
-108.883
11
53.3976
21
-108.502
0
LINE
8
BLACK
6
CONTINUOUS
10
53.3976
20
-108.502
11
53.4929
21
-108.026
0
LINE
8
BLACK
6
CONTINUOUS
10
53.4929
20
-108.026
11
53.5881
21
-107.74
0
LINE
8
BLACK
6
CONTINUOUS
10
53.5881
20
-107.74
11
53.6833
21
-107.55
0
LINE
8
BLACK
6
CONTINUOUS
10
53.6833
20
-107.55
11
53.8738
21
-107.264
0
LINE
8
BLACK
6
CONTINUOUS
10
53.8738
20
-107.264
11
53.969
21
-107.169
0
LINE
8
BLACK
6
CONTINUOUS
10
55.5881
20
-108.121
11
55.5881
21
-109.455
0
LINE
8
BLACK
6
CONTINUOUS
10
55.1119
20
-107.36
11
54.6357
21
-108.788
0
LINE
8
BLACK
6
CONTINUOUS
10
54.6357
20
-108.788
11
55.8738
21
-108.788
0
LINE
8
BLACK
6
CONTINUOUS
10
58.1595
20
-109.455
11
58.1595
21
-107.455
0
LINE
8
BLACK
6
CONTINUOUS
10
59.0167
20
-109.455
11
59.0167
21
-108.407
0
LINE
8
BLACK
6
CONTINUOUS
10
59.0167
20
-108.407
11
58.9214
21
-108.217
0
LINE
8
BLACK
6
CONTINUOUS
10
58.9214
20
-108.217
11
58.731
21
-108.121
0
LINE
8
BLACK
6
CONTINUOUS
10
58.731
20
-108.121
11
58.4452
21
-108.121
0
LINE
8
BLACK
6
CONTINUOUS
10
58.4452
20
-108.121
11
58.2548
21
-108.217
0
LINE
8
BLACK
6
CONTINUOUS
10
58.2548
20
-108.217
11
58.1595
21
-108.312
0
LINE
8
BLACK
6
CONTINUOUS
10
60.2548
20
-109.455
11
60.0643
21
-109.36
0
LINE
8
BLACK
6
CONTINUOUS
10
60.0643
20
-109.36
11
59.969
21
-109.264
0
LINE
8
BLACK
6
CONTINUOUS
10
59.969
20
-109.264
11
59.8738
21
-109.074
0
LINE
8
BLACK
6
CONTINUOUS
10
59.8738
20
-109.074
11
59.8738
21
-108.502
0
LINE
8
BLACK
6
CONTINUOUS
10
59.8738
20
-108.502
11
59.969
21
-108.312
0
LINE
8
BLACK
6
CONTINUOUS
10
59.969
20
-108.312
11
60.0643
21
-108.217
0
LINE
8
BLACK
6
CONTINUOUS
10
60.0643
20
-108.217
11
60.2548
21
-108.121
0
LINE
8
BLACK
6
CONTINUOUS
10
60.2548
20
-108.121
11
60.5405
21
-108.121
0
LINE
8
BLACK
6
CONTINUOUS
10
60.5405
20
-108.121
11
60.731
21
-108.217
0
LINE
8
BLACK
6
CONTINUOUS
10
60.731
20
-108.217
11
60.8262
21
-108.312
0
LINE
8
BLACK
6
CONTINUOUS
10
60.8262
20
-108.312
11
60.9214
21
-108.502
0
LINE
8
BLACK
6
CONTINUOUS
10
60.9214
20
-108.502
11
60.9214
21
-109.074
0
LINE
8
BLACK
6
CONTINUOUS
10
60.9214
20
-109.074
11
60.8262
21
-109.264
0
LINE
8
BLACK
6
CONTINUOUS
10
60.8262
20
-109.264
11
60.731
21
-109.36
0
LINE
8
BLACK
6
CONTINUOUS
10
60.731
20
-109.36
11
60.5405
21
-109.455
0
LINE
8
BLACK
6
CONTINUOUS
10
60.5405
20
-109.455
11
60.2548
21
-109.455
0
LINE
8
BLACK
6
CONTINUOUS
10
62.0643
20
-109.455
11
61.8738
21
-109.36
0
LINE
8
BLACK
6
CONTINUOUS
10
61.8738
20
-109.36
11
61.7786
21
-109.169
0
LINE
8
BLACK
6
CONTINUOUS
10
61.7786
20
-109.169
11
61.7786
21
-107.455
0
LINE
8
BLACK
6
CONTINUOUS
10
63.5881
20
-109.36
11
63.3976
21
-109.455
0
LINE
8
BLACK
6
CONTINUOUS
10
63.3976
20
-109.455
11
63.0167
21
-109.455
0
LINE
8
BLACK
6
CONTINUOUS
10
63.0167
20
-109.455
11
62.8262
21
-109.36
0
LINE
8
BLACK
6
CONTINUOUS
10
62.8262
20
-109.36
11
62.731
21
-109.169
0
LINE
8
BLACK
6
CONTINUOUS
10
62.731
20
-109.169
11
62.731
21
-108.407
0
LINE
8
BLACK
6
CONTINUOUS
10
62.731
20
-108.407
11
62.8262
21
-108.217
0
LINE
8
BLACK
6
CONTINUOUS
10
62.8262
20
-108.217
11
63.0167
21
-108.121
0
LINE
8
BLACK
6
CONTINUOUS
10
63.0167
20
-108.121
11
63.3976
21
-108.121
0
LINE
8
BLACK
6
CONTINUOUS
10
63.3976
20
-108.121
11
63.5881
21
-108.217
0
LINE
8
BLACK
6
CONTINUOUS
10
63.5881
20
-108.217
11
63.6833
21
-108.407
0
LINE
8
BLACK
6
CONTINUOUS
10
63.6833
20
-108.407
11
63.6833
21
-108.598
0
LINE
8
BLACK
6
CONTINUOUS
10
63.6833
20
-108.598
11
62.731
21
-108.788
0
LINE
8
BLACK
6
CONTINUOUS
10
64.4452
20
-109.36
11
64.6357
21
-109.455
0
LINE
8
BLACK
6
CONTINUOUS
10
64.6357
20
-109.455
11
65.0167
21
-109.455
0
LINE
8
BLACK
6
CONTINUOUS
10
65.0167
20
-109.455
11
65.2071
21
-109.36
0
LINE
8
BLACK
6
CONTINUOUS
10
65.2071
20
-109.36
11
65.3024
21
-109.169
0
LINE
8
BLACK
6
CONTINUOUS
10
65.3024
20
-109.169
11
65.3024
21
-109.074
0
LINE
8
BLACK
6
CONTINUOUS
10
65.3024
20
-109.074
11
65.2071
21
-108.883
0
LINE
8
BLACK
6
CONTINUOUS
10
65.2071
20
-108.883
11
65.0167
21
-108.788
0
LINE
8
BLACK
6
CONTINUOUS
10
65.0167
20
-108.788
11
64.731
21
-108.788
0
LINE
8
BLACK
6
CONTINUOUS
10
64.731
20
-108.788
11
64.5405
21
-108.693
0
LINE
8
BLACK
6
CONTINUOUS
10
64.5405
20
-108.693
11
64.4452
21
-108.502
0
LINE
8
BLACK
6
CONTINUOUS
10
64.4452
20
-108.502
11
64.4452
21
-108.407
0
LINE
8
BLACK
6
CONTINUOUS
10
64.4452
20
-108.407
11
64.5405
21
-108.217
0
LINE
8
BLACK
6
CONTINUOUS
10
64.5405
20
-108.217
11
64.731
21
-108.121
0
LINE
8
BLACK
6
CONTINUOUS
10
64.731
20
-108.121
11
65.0167
21
-108.121
0
LINE
8
BLACK
6
CONTINUOUS
10
65.0167
20
-108.121
11
65.2071
21
-108.217
0
LINE
8
BLACK
6
CONTINUOUS
10
65.969
20
-110.217
11
66.0643
21
-110.121
0
LINE
8
BLACK
6
CONTINUOUS
10
66.0643
20
-110.121
11
66.2548
21
-109.836
0
LINE
8
BLACK
6
CONTINUOUS
10
66.2548
20
-109.836
11
66.35
21
-109.645
0
LINE
8
BLACK
6
CONTINUOUS
10
66.35
20
-109.645
11
66.4452
21
-109.36
0
LINE
8
BLACK
6
CONTINUOUS
10
66.4452
20
-109.36
11
66.5405
21
-108.883
0
LINE
8
BLACK
6
CONTINUOUS
10
66.5405
20
-108.883
11
66.5405
21
-108.502
0
LINE
8
BLACK
6
CONTINUOUS
10
66.5405
20
-108.502
11
66.4452
21
-108.026
0
LINE
8
BLACK
6
CONTINUOUS
10
66.4452
20
-108.026
11
66.35
21
-107.74
0
LINE
8
BLACK
6
CONTINUOUS
10
66.35
20
-107.74
11
66.2548
21
-107.55
0
LINE
8
BLACK
6
CONTINUOUS
10
66.2548
20
-107.55
11
66.0643
21
-107.264
0
LINE
8
BLACK
6
CONTINUOUS
10
66.0643
20
-107.264
11
65.969
21
-107.169
0
LINE
8
BLACK
6
CONTINUOUS
10
69.5881
20
-110.217
11
69.4929
21
-110.121
0
LINE
8
BLACK
6
CONTINUOUS
10
69.4929
20
-110.121
11
69.3024
21
-109.836
0
LINE
8
BLACK
6
CONTINUOUS
10
69.3024
20
-109.836
11
69.2071
21
-109.645
0
LINE
8
BLACK
6
CONTINUOUS
10
69.2071
20
-109.645
11
69.1119
21
-109.36
0
LINE
8
BLACK
6
CONTINUOUS
10
69.1119
20
-109.36
11
69.0167
21
-108.883
0
LINE
8
BLACK
6
CONTINUOUS
10
69.0167
20
-108.883
11
69.0167
21
-108.502
0
LINE
8
BLACK
6
CONTINUOUS
10
69.0167
20
-108.502
11
69.1119
21
-108.026
0
LINE
8
BLACK
6
CONTINUOUS
10
69.1119
20
-108.026
11
69.2071
21
-107.74
0
LINE
8
BLACK
6
CONTINUOUS
10
69.2071
20
-107.74
11
69.3024
21
-107.55
0
LINE
8
BLACK
6
CONTINUOUS
10
69.3024
20
-107.55
11
69.4929
21
-107.264
0
LINE
8
BLACK
6
CONTINUOUS
10
69.4929
20
-107.264
11
69.5881
21
-107.169
0
LINE
8
BLACK
6
CONTINUOUS
10
70.35
20
-108.121
11
70.35
21
-109.455
0
LINE
8
BLACK
6
CONTINUOUS
10
70.35
20
-108.312
11
70.4452
21
-108.217
0
LINE
8
BLACK
6
CONTINUOUS
10
70.4452
20
-108.217
11
70.6357
21
-108.121
0
LINE
8
BLACK
6
CONTINUOUS
10
70.6357
20
-108.121
11
70.9214
21
-108.121
0
LINE
8
BLACK
6
CONTINUOUS
10
70.9214
20
-108.121
11
71.1119
21
-108.217
0
LINE
8
BLACK
6
CONTINUOUS
10
71.1119
20
-108.217
11
71.2071
21
-108.407
0
LINE
8
BLACK
6
CONTINUOUS
10
71.2071
20
-108.407
11
71.2071
21
-109.455
0
LINE
8
BLACK
6
CONTINUOUS
10
72.4452
20
-109.455
11
72.2548
21
-109.36
0
LINE
8
BLACK
6
CONTINUOUS
10
72.2548
20
-109.36
11
72.1595
21
-109.264
0
LINE
8
BLACK
6
CONTINUOUS
10
72.1595
20
-109.264
11
72.0643
21
-109.074
0
LINE
8
BLACK
6
CONTINUOUS
10
72.0643
20
-109.074
11
72.0643
21
-108.502
0
LINE
8
BLACK
6
CONTINUOUS
10
72.0643
20
-108.502
11
72.1595
21
-108.312
0
LINE
8
BLACK
6
CONTINUOUS
10
72.1595
20
-108.312
11
72.2548
21
-108.217
0
LINE
8
BLACK
6
CONTINUOUS
10
72.2548
20
-108.217
11
72.4452
21
-108.121
0
LINE
8
BLACK
6
CONTINUOUS
10
72.4452
20
-108.121
11
72.731
21
-108.121
0
LINE
8
BLACK
6
CONTINUOUS
10
72.731
20
-108.121
11
72.9214
21
-108.217
0
LINE
8
BLACK
6
CONTINUOUS
10
72.9214
20
-108.217
11
73.0167
21
-108.312
0
LINE
8
BLACK
6
CONTINUOUS
10
73.0167
20
-108.312
11
73.1119
21
-108.502
0
LINE
8
BLACK
6
CONTINUOUS
10
73.1119
20
-108.502
11
73.1119
21
-109.074
0
LINE
8
BLACK
6
CONTINUOUS
10
73.1119
20
-109.074
11
73.0167
21
-109.264
0
LINE
8
BLACK
6
CONTINUOUS
10
73.0167
20
-109.264
11
72.9214
21
-109.36
0
LINE
8
BLACK
6
CONTINUOUS
10
72.9214
20
-109.36
11
72.731
21
-109.455
0
LINE
8
BLACK
6
CONTINUOUS
10
72.731
20
-109.455
11
72.4452
21
-109.455
0
LINE
8
BLACK
6
CONTINUOUS
10
73.6833
20
-108.121
11
74.4452
21
-108.121
0
LINE
8
BLACK
6
CONTINUOUS
10
73.969
20
-107.455
11
73.969
21
-109.169
0
LINE
8
BLACK
6
CONTINUOUS
10
73.969
20
-109.169
11
74.0643
21
-109.36
0
LINE
8
BLACK
6
CONTINUOUS
10
74.0643
20
-109.36
11
74.2548
21
-109.455
0
LINE
8
BLACK
6
CONTINUOUS
10
74.2548
20
-109.455
11
74.4452
21
-109.455
0
LINE
8
BLACK
6
CONTINUOUS
10
76.6357
20
-108.121
11
76.6357
21
-110.121
0
LINE
8
BLACK
6
CONTINUOUS
10
76.6357
20
-108.217
11
76.8262
21
-108.121
0
LINE
8
BLACK
6
CONTINUOUS
10
76.8262
20
-108.121
11
77.2071
21
-108.121
0
LINE
8
BLACK
6
CONTINUOUS
10
77.2071
20
-108.121
11
77.3976
21
-108.217
0
LINE
8
BLACK
6
CONTINUOUS
10
77.3976
20
-108.217
11
77.4929
21
-108.312
0
LINE
8
BLACK
6
CONTINUOUS
10
77.4929
20
-108.312
11
77.5881
21
-108.502
0
LINE
8
BLACK
6
CONTINUOUS
10
77.5881
20
-108.502
11
77.5881
21
-109.074
0
LINE
8
BLACK
6
CONTINUOUS
10
77.5881
20
-109.074
11
77.4929
21
-109.264
0
LINE
8
BLACK
6
CONTINUOUS
10
77.4929
20
-109.264
11
77.3976
21
-109.36
0
LINE
8
BLACK
6
CONTINUOUS
10
77.3976
20
-109.36
11
77.2071
21
-109.455
0
LINE
8
BLACK
6
CONTINUOUS
10
77.2071
20
-109.455
11
76.8262
21
-109.455
0
LINE
8
BLACK
6
CONTINUOUS
10
76.8262
20
-109.455
11
76.6357
21
-109.36
0
LINE
8
BLACK
6
CONTINUOUS
10
78.731
20
-109.455
11
78.5405
21
-109.36
0
LINE
8
BLACK
6
CONTINUOUS
10
78.5405
20
-109.36
11
78.4452
21
-109.169
0
LINE
8
BLACK
6
CONTINUOUS
10
78.4452
20
-109.169
11
78.4452
21
-107.455
0
LINE
8
BLACK
6
CONTINUOUS
10
80.35
20
-109.455
11
80.35
21
-108.407
0
LINE
8
BLACK
6
CONTINUOUS
10
80.35
20
-108.407
11
80.2548
21
-108.217
0
LINE
8
BLACK
6
CONTINUOUS
10
80.2548
20
-108.217
11
80.0643
21
-108.121
0
LINE
8
BLACK
6
CONTINUOUS
10
80.0643
20
-108.121
11
79.6833
21
-108.121
0
LINE
8
BLACK
6
CONTINUOUS
10
79.6833
20
-108.121
11
79.4929
21
-108.217
0
LINE
8
BLACK
6
CONTINUOUS
10
80.35
20
-109.36
11
80.1595
21
-109.455
0
LINE
8
BLACK
6
CONTINUOUS
10
80.1595
20
-109.455
11
79.6833
21
-109.455
0
LINE
8
BLACK
6
CONTINUOUS
10
79.6833
20
-109.455
11
79.4929
21
-109.36
0
LINE
8
BLACK
6
CONTINUOUS
10
79.4929
20
-109.36
11
79.3976
21
-109.169
0
LINE
8
BLACK
6
CONTINUOUS
10
79.3976
20
-109.169
11
79.3976
21
-108.979
0
LINE
8
BLACK
6
CONTINUOUS
10
79.3976
20
-108.979
11
79.4929
21
-108.788
0
LINE
8
BLACK
6
CONTINUOUS
10
79.4929
20
-108.788
11
79.6833
21
-108.693
0
LINE
8
BLACK
6
CONTINUOUS
10
79.6833
20
-108.693
11
80.1595
21
-108.693
0
LINE
8
BLACK
6
CONTINUOUS
10
80.1595
20
-108.693
11
80.35
21
-108.598
0
LINE
8
BLACK
6
CONTINUOUS
10
81.0167
20
-108.121
11
81.7786
21
-108.121
0
LINE
8
BLACK
6
CONTINUOUS
10
81.3024
20
-107.455
11
81.3024
21
-109.169
0
LINE
8
BLACK
6
CONTINUOUS
10
81.3024
20
-109.169
11
81.3976
21
-109.36
0
LINE
8
BLACK
6
CONTINUOUS
10
81.3976
20
-109.36
11
81.5881
21
-109.455
0
LINE
8
BLACK
6
CONTINUOUS
10
81.5881
20
-109.455
11
81.7786
21
-109.455
0
LINE
8
BLACK
6
CONTINUOUS
10
83.2071
20
-109.36
11
83.0167
21
-109.455
0
LINE
8
BLACK
6
CONTINUOUS
10
83.0167
20
-109.455
11
82.6357
21
-109.455
0
LINE
8
BLACK
6
CONTINUOUS
10
82.6357
20
-109.455
11
82.4452
21
-109.36
0
LINE
8
BLACK
6
CONTINUOUS
10
82.4452
20
-109.36
11
82.35
21
-109.169
0
LINE
8
BLACK
6
CONTINUOUS
10
82.35
20
-109.169
11
82.35
21
-108.407
0
LINE
8
BLACK
6
CONTINUOUS
10
82.35
20
-108.407
11
82.4452
21
-108.217
0
LINE
8
BLACK
6
CONTINUOUS
10
82.4452
20
-108.217
11
82.6357
21
-108.121
0
LINE
8
BLACK
6
CONTINUOUS
10
82.6357
20
-108.121
11
83.0167
21
-108.121
0
LINE
8
BLACK
6
CONTINUOUS
10
83.0167
20
-108.121
11
83.2071
21
-108.217
0
LINE
8
BLACK
6
CONTINUOUS
10
83.2071
20
-108.217
11
83.3024
21
-108.407
0
LINE
8
BLACK
6
CONTINUOUS
10
83.3024
20
-108.407
11
83.3024
21
-108.598
0
LINE
8
BLACK
6
CONTINUOUS
10
83.3024
20
-108.598
11
82.35
21
-108.788
0
LINE
8
BLACK
6
CONTINUOUS
10
85.0167
20
-109.455
11
85.0167
21
-107.455
0
LINE
8
BLACK
6
CONTINUOUS
10
85.0167
20
-109.36
11
84.8262
21
-109.455
0
LINE
8
BLACK
6
CONTINUOUS
10
84.8262
20
-109.455
11
84.4452
21
-109.455
0
LINE
8
BLACK
6
CONTINUOUS
10
84.4452
20
-109.455
11
84.2548
21
-109.36
0
LINE
8
BLACK
6
CONTINUOUS
10
84.2548
20
-109.36
11
84.1595
21
-109.264
0
LINE
8
BLACK
6
CONTINUOUS
10
84.1595
20
-109.264
11
84.0643
21
-109.074
0
LINE
8
BLACK
6
CONTINUOUS
10
84.0643
20
-109.074
11
84.0643
21
-108.502
0
LINE
8
BLACK
6
CONTINUOUS
10
84.0643
20
-108.502
11
84.1595
21
-108.312
0
LINE
8
BLACK
6
CONTINUOUS
10
84.1595
20
-108.312
11
84.2548
21
-108.217
0
LINE
8
BLACK
6
CONTINUOUS
10
84.2548
20
-108.217
11
84.4452
21
-108.121
0
LINE
8
BLACK
6
CONTINUOUS
10
84.4452
20
-108.121
11
84.8262
21
-108.121
0
LINE
8
BLACK
6
CONTINUOUS
10
84.8262
20
-108.121
11
85.0167
21
-108.217
0
LINE
8
BLACK
6
CONTINUOUS
10
85.7786
20
-110.217
11
85.8738
21
-110.121
0
LINE
8
BLACK
6
CONTINUOUS
10
85.8738
20
-110.121
11
86.0643
21
-109.836
0
LINE
8
BLACK
6
CONTINUOUS
10
86.0643
20
-109.836
11
86.1595
21
-109.645
0
LINE
8
BLACK
6
CONTINUOUS
10
86.1595
20
-109.645
11
86.2548
21
-109.36
0
LINE
8
BLACK
6
CONTINUOUS
10
86.2548
20
-109.36
11
86.35
21
-108.883
0
LINE
8
BLACK
6
CONTINUOUS
10
86.35
20
-108.883
11
86.35
21
-108.502
0
LINE
8
BLACK
6
CONTINUOUS
10
86.35
20
-108.502
11
86.2548
21
-108.026
0
LINE
8
BLACK
6
CONTINUOUS
10
86.2548
20
-108.026
11
86.1595
21
-107.74
0
LINE
8
BLACK
6
CONTINUOUS
10
86.1595
20
-107.74
11
86.0643
21
-107.55
0
LINE
8
BLACK
6
CONTINUOUS
10
86.0643
20
-107.55
11
85.8738
21
-107.264
0
LINE
8
BLACK
6
CONTINUOUS
10
85.8738
20
-107.264
11
85.7786
21
-107.169
  0
ENDSEC
  0
EOF
