%TF.GenerationSoftware,KiCad,Pcbnew,(6.0.7)*%
%TF.CreationDate,2023-09-07T13:28:03+01:00*%
%TF.ProjectId,CCC_rig_NTC_in,4343435f-7269-4675-9f4e-54435f696e2e,rev?*%
%TF.SameCoordinates,Original*%
%TF.FileFunction,Soldermask,Bot*%
%TF.FilePolarity,Negative*%
%FSLAX46Y46*%
G04 Gerber Fmt 4.6, Leading zero omitted, Abs format (unit mm)*
G04 Created by KiCad (PCBNEW (6.0.7)) date 2023-09-07 13:28:03*
%MOMM*%
%LPD*%
G01*
G04 APERTURE LIST*
%ADD10R,1.700000X1.700000*%
%ADD11O,1.700000X1.700000*%
%ADD12C,3.200000*%
%ADD13C,1.500000*%
%ADD14R,1.159000X1.159000*%
%ADD15C,1.159000*%
%ADD16R,1.520000X1.520000*%
%ADD17C,1.520000*%
%ADD18C,2.910000*%
G04 APERTURE END LIST*
D10*
%TO.C,J11*%
X34325100Y-32146400D03*
D11*
X34325100Y-34686400D03*
X36865100Y-32146400D03*
X36865100Y-34686400D03*
X39405100Y-32146400D03*
X39405100Y-34686400D03*
X41945100Y-32146400D03*
X41945100Y-34686400D03*
X44485100Y-32146400D03*
X44485100Y-34686400D03*
X47025100Y-32146400D03*
X47025100Y-34686400D03*
X49565100Y-32146400D03*
X49565100Y-34686400D03*
X52105100Y-32146400D03*
X52105100Y-34686400D03*
%TD*%
D12*
%TO.C,NPTH_3*%
X65000000Y-98900000D03*
%TD*%
D13*
%TO.C,S2*%
X47200100Y-49921400D03*
X47200100Y-42301400D03*
X49740100Y-49921400D03*
X49740100Y-42301400D03*
X52280100Y-49921400D03*
X52280100Y-42301400D03*
X54820100Y-49921400D03*
X54820100Y-42301400D03*
X57360100Y-49921400D03*
X57360100Y-42301400D03*
X59900100Y-49921400D03*
X59900100Y-42301400D03*
X62440100Y-49921400D03*
X62440100Y-42301400D03*
X64980100Y-49921400D03*
X64980100Y-42301400D03*
%TD*%
D12*
%TO.C,NPTH_0*%
X21500000Y-30300000D03*
%TD*%
D13*
%TO.C,S1*%
X21420100Y-49921400D03*
X21420100Y-42301400D03*
X23960100Y-49921400D03*
X23960100Y-42301400D03*
X26500100Y-49921400D03*
X26500100Y-42301400D03*
X29040100Y-49921400D03*
X29040100Y-42301400D03*
X31580100Y-49921400D03*
X31580100Y-42301400D03*
X34120100Y-49921400D03*
X34120100Y-42301400D03*
X36660100Y-49921400D03*
X36660100Y-42301400D03*
X39200100Y-49921400D03*
X39200100Y-42301400D03*
%TD*%
D10*
%TO.C,J10*%
X49525100Y-60335400D03*
D11*
X46985100Y-60335400D03*
X44445100Y-60335400D03*
X41905100Y-60335400D03*
X39365100Y-60335400D03*
X36825100Y-60335400D03*
%TD*%
D14*
%TO.C,IC3*%
X40914000Y-77448400D03*
D15*
X43454000Y-77448400D03*
X45994000Y-77448400D03*
X48534000Y-77448400D03*
X51074000Y-77448400D03*
X53614000Y-77448400D03*
X56154000Y-77448400D03*
X58694000Y-77448400D03*
X58694000Y-69638400D03*
X56154000Y-69638400D03*
X53614000Y-69638400D03*
X51074000Y-69638400D03*
X48534000Y-69638400D03*
X45994000Y-69638400D03*
X43454000Y-69638400D03*
X40914000Y-69638400D03*
%TD*%
D12*
%TO.C,NPTH_2*%
X21500000Y-98900000D03*
%TD*%
%TO.C,NPTH_1*%
X65000000Y-30300000D03*
%TD*%
D16*
%TO.C,J9*%
X53603300Y-95272000D03*
D17*
X50603300Y-95272000D03*
X47603300Y-95272000D03*
X44603300Y-95272000D03*
X41603300Y-95272000D03*
X38603300Y-95272000D03*
X35603300Y-95272000D03*
X32603300Y-95272000D03*
X53603300Y-92272000D03*
X50603300Y-92272000D03*
X47603300Y-92272000D03*
X44603300Y-92272000D03*
X41603300Y-92272000D03*
X38603300Y-92272000D03*
X35603300Y-92272000D03*
X32603300Y-92272000D03*
D18*
X55753300Y-99592000D03*
X30453300Y-99592000D03*
%TD*%
M02*
