%TF.GenerationSoftware,KiCad,Pcbnew,(6.0.7)*%
%TF.CreationDate,2023-09-07T13:28:03+01:00*%
%TF.ProjectId,CCC_rig_NTC_in,4343435f-7269-4675-9f4e-54435f696e2e,rev?*%
%TF.SameCoordinates,Original*%
%TF.FileFunction,Soldermask,Top*%
%TF.FilePolarity,Negative*%
%FSLAX46Y46*%
G04 Gerber Fmt 4.6, Leading zero omitted, Abs format (unit mm)*
G04 Created by KiCad (PCBNEW (6.0.7)) date 2023-09-07 13:28:03*
%MOMM*%
%LPD*%
G01*
G04 APERTURE LIST*
G04 Aperture macros list*
%AMRoundRect*
0 Rectangle with rounded corners*
0 $1 Rounding radius*
0 $2 $3 $4 $5 $6 $7 $8 $9 X,Y pos of 4 corners*
0 Add a 4 corners polygon primitive as box body*
4,1,4,$2,$3,$4,$5,$6,$7,$8,$9,$2,$3,0*
0 Add four circle primitives for the rounded corners*
1,1,$1+$1,$2,$3*
1,1,$1+$1,$4,$5*
1,1,$1+$1,$6,$7*
1,1,$1+$1,$8,$9*
0 Add four rect primitives between the rounded corners*
20,1,$1+$1,$2,$3,$4,$5,0*
20,1,$1+$1,$4,$5,$6,$7,0*
20,1,$1+$1,$6,$7,$8,$9,0*
20,1,$1+$1,$8,$9,$2,$3,0*%
G04 Aperture macros list end*
%ADD10R,0.600000X1.200000*%
%ADD11R,1.700000X1.700000*%
%ADD12O,1.700000X1.700000*%
%ADD13RoundRect,0.237500X0.300000X0.237500X-0.300000X0.237500X-0.300000X-0.237500X0.300000X-0.237500X0*%
%ADD14C,3.200000*%
%ADD15RoundRect,0.237500X0.237500X-0.300000X0.237500X0.300000X-0.237500X0.300000X-0.237500X-0.300000X0*%
%ADD16RoundRect,0.237500X0.250000X0.237500X-0.250000X0.237500X-0.250000X-0.237500X0.250000X-0.237500X0*%
%ADD17C,1.500000*%
%ADD18RoundRect,0.237500X-0.300000X-0.237500X0.300000X-0.237500X0.300000X0.237500X-0.300000X0.237500X0*%
%ADD19R,1.159000X1.159000*%
%ADD20C,1.159000*%
%ADD21R,1.520000X1.520000*%
%ADD22C,1.520000*%
%ADD23C,2.910000*%
G04 APERTURE END LIST*
D10*
%TO.C,IC2*%
X31350000Y-75850000D03*
X32300000Y-75850000D03*
X33250000Y-75850000D03*
X33250000Y-73350000D03*
X32300000Y-73350000D03*
X31350000Y-73350000D03*
%TD*%
D11*
%TO.C,J11*%
X34325100Y-32146400D03*
D12*
X34325100Y-34686400D03*
X36865100Y-32146400D03*
X36865100Y-34686400D03*
X39405100Y-32146400D03*
X39405100Y-34686400D03*
X41945100Y-32146400D03*
X41945100Y-34686400D03*
X44485100Y-32146400D03*
X44485100Y-34686400D03*
X47025100Y-32146400D03*
X47025100Y-34686400D03*
X49565100Y-32146400D03*
X49565100Y-34686400D03*
X52105100Y-32146400D03*
X52105100Y-34686400D03*
%TD*%
D13*
%TO.C,C15*%
X47762500Y-88056000D03*
X46037500Y-88056000D03*
%TD*%
D14*
%TO.C,NPTH_3*%
X65000000Y-98900000D03*
%TD*%
D15*
%TO.C,C20*%
X27728000Y-74954500D03*
X27728000Y-73229500D03*
%TD*%
D16*
%TO.C,R13*%
X32812500Y-84500000D03*
X30987500Y-84500000D03*
%TD*%
%TO.C,R14*%
X37812500Y-84500000D03*
X35987500Y-84500000D03*
%TD*%
D13*
%TO.C,C13*%
X37762500Y-88056000D03*
X36037500Y-88056000D03*
%TD*%
D17*
%TO.C,S2*%
X47200100Y-49921400D03*
X47200100Y-42301400D03*
X49740100Y-49921400D03*
X49740100Y-42301400D03*
X52280100Y-49921400D03*
X52280100Y-42301400D03*
X54820100Y-49921400D03*
X54820100Y-42301400D03*
X57360100Y-49921400D03*
X57360100Y-42301400D03*
X59900100Y-49921400D03*
X59900100Y-42301400D03*
X62440100Y-49921400D03*
X62440100Y-42301400D03*
X64980100Y-49921400D03*
X64980100Y-42301400D03*
%TD*%
D14*
%TO.C,NPTH_0*%
X21500000Y-30300000D03*
%TD*%
D18*
%TO.C,C21*%
X31437500Y-69520000D03*
X33162500Y-69520000D03*
%TD*%
D13*
%TO.C,C12*%
X32762500Y-88056000D03*
X31037500Y-88056000D03*
%TD*%
D16*
%TO.C,R12*%
X27812500Y-84500000D03*
X25987500Y-84500000D03*
%TD*%
D17*
%TO.C,S1*%
X21420100Y-49921400D03*
X21420100Y-42301400D03*
X23960100Y-49921400D03*
X23960100Y-42301400D03*
X26500100Y-49921400D03*
X26500100Y-42301400D03*
X29040100Y-49921400D03*
X29040100Y-42301400D03*
X31580100Y-49921400D03*
X31580100Y-42301400D03*
X34120100Y-49921400D03*
X34120100Y-42301400D03*
X36660100Y-49921400D03*
X36660100Y-42301400D03*
X39200100Y-49921400D03*
X39200100Y-42301400D03*
%TD*%
D11*
%TO.C,J10*%
X49525100Y-60335400D03*
D12*
X46985100Y-60335400D03*
X44445100Y-60335400D03*
X41905100Y-60335400D03*
X39365100Y-60335400D03*
X36825100Y-60335400D03*
%TD*%
D15*
%TO.C,C19*%
X36364000Y-74954500D03*
X36364000Y-73229500D03*
%TD*%
D16*
%TO.C,R18*%
X57812500Y-84500000D03*
X55987500Y-84500000D03*
%TD*%
%TO.C,R15*%
X42812500Y-84500000D03*
X40987500Y-84500000D03*
%TD*%
D13*
%TO.C,C17*%
X57762500Y-88056000D03*
X56037500Y-88056000D03*
%TD*%
D19*
%TO.C,IC3*%
X40914000Y-77448400D03*
D20*
X43454000Y-77448400D03*
X45994000Y-77448400D03*
X48534000Y-77448400D03*
X51074000Y-77448400D03*
X53614000Y-77448400D03*
X56154000Y-77448400D03*
X58694000Y-77448400D03*
X58694000Y-69638400D03*
X56154000Y-69638400D03*
X53614000Y-69638400D03*
X51074000Y-69638400D03*
X48534000Y-69638400D03*
X45994000Y-69638400D03*
X43454000Y-69638400D03*
X40914000Y-69638400D03*
%TD*%
D13*
%TO.C,C18*%
X62762500Y-88056000D03*
X61037500Y-88056000D03*
%TD*%
%TO.C,C14*%
X42762500Y-88056000D03*
X41037500Y-88056000D03*
%TD*%
%TO.C,C16*%
X52762500Y-88056000D03*
X51037500Y-88056000D03*
%TD*%
D16*
%TO.C,R16*%
X47812500Y-84500000D03*
X45987500Y-84500000D03*
%TD*%
%TO.C,R19*%
X62812500Y-84500000D03*
X60987500Y-84500000D03*
%TD*%
%TO.C,R17*%
X52812500Y-84500000D03*
X50987500Y-84500000D03*
%TD*%
D13*
%TO.C,C11*%
X27762500Y-88056000D03*
X26037500Y-88056000D03*
%TD*%
D14*
%TO.C,NPTH_2*%
X21500000Y-98900000D03*
%TD*%
%TO.C,NPTH_1*%
X65000000Y-30300000D03*
%TD*%
D21*
%TO.C,J9*%
X53603300Y-95272000D03*
D22*
X50603300Y-95272000D03*
X47603300Y-95272000D03*
X44603300Y-95272000D03*
X41603300Y-95272000D03*
X38603300Y-95272000D03*
X35603300Y-95272000D03*
X32603300Y-95272000D03*
X53603300Y-92272000D03*
X50603300Y-92272000D03*
X47603300Y-92272000D03*
X44603300Y-92272000D03*
X41603300Y-92272000D03*
X38603300Y-92272000D03*
X35603300Y-92272000D03*
X32603300Y-92272000D03*
D23*
X55753300Y-99592000D03*
X30453300Y-99592000D03*
%TD*%
M02*
