  0
SECTION
  2
HEADER
  9
$ANGBASE
  50
0.0
  9
$ANGDIR
  70
1
  9
$MEASUREMENT
  70
1
  0
ENDSEC
  0
SECTION
  2
TABLES
  0
TABLE
  2
LTYPE
  70
4
  0
LTYPE
  5
40F
  2
CONTINUOUS
  70
0
  3
Solid line
  72
65
  73
0
  40
0.0
  0
LTYPE
  5
410
  2
DASHDOT
 70
0
  3
Dash Dot ____ _ ____ _
 72
65
 73
4
 40
2.0
 49
1.25
 49
-0.25
 49
0.25
 49
-0.25
  0
LTYPE
  5
411
  2
DASHED
 70
0
  3
Dashed __ __ __ __ __
 72
65
 73
2
 40
0.75
 49
0.5
 49
-0.25
  0
LTYPE
  5
43B
  2
DOTTED
 70
0
  3
Dotted .  .  .  .
 72
65
 73
2
 40
0.2
 49
0.0
 49
-0.2
  0
ENDTAB
  0
TABLE
  2
STYLE
  70
4
  0
STYLE
  2
KICAD
  70
0
  40
0
  41
1
  42
1
  50
0
  71
0
  3
isocp.shx
  0
STYLE
  2
KICADB
  70
0
  40
0
  41
1
  42
1
  50
0
  71
0
  3
isocp.shx
  0
STYLE
  2
KICADI
  70
0
  40
0
  41
1
  42
1
  50
15
  71
0
  3
isocp.shx
  0
STYLE
  2
KICADBI
  70
0
  40
0
  41
1
  42
1
  50
15
  71
0
  3
isocp.shx
  0
ENDTAB
  0
TABLE
  2
LAYER
  70
1
  0
LAYER
  2
BLACK
  70
0
  62
7
  6
CONTINUOUS
  0
ENDTAB
  0
ENDSEC
  0
SECTION
  2
ENTITIES
0
LINE
8
BLACK
6
CONTINUOUS
10
20.3
20
-27.1
11
66.2
21
-27.1
0
ARC
8
BLACK
10
20.3
20
-100.1
40
2
50
-180
51
-90
0
ARC
8
BLACK
10
20.3
20
-29.1
40
2
50
90
51
180
0
ARC
8
BLACK
10
66.2
20
-100.1
40
2
50
-90
51
-0
0
LINE
8
BLACK
6
CONTINUOUS
10
66.2
20
-102.1
11
20.3
21
-102.1
0
LINE
8
BLACK
6
CONTINUOUS
10
68.2
20
-29.1
11
68.2
21
-100.1
0
LINE
8
BLACK
6
CONTINUOUS
10
18.3
20
-100.1
11
18.3
21
-29.1
0
ARC
8
BLACK
10
66.2
20
-29.1
40
2
50
-0
51
90
0
LINE
8
BLACK
6
CONTINUOUS
10
54.4
20
-85.5
11
54.8
21
-85.9
0
LINE
8
BLACK
6
CONTINUOUS
10
54.8
20
-85.5
11
54.4
21
-85.9
0
CIRCLE
8
BLACK
10
40.914
20
-69.6384
40
0.3795
0
CIRCLE
8
BLACK
10
40.914
20
-77.4484
40
0.3795
0
CIRCLE
8
BLACK
10
43.454
20
-69.6384
40
0.3795
0
CIRCLE
8
BLACK
10
43.454
20
-77.4484
40
0.3795
0
CIRCLE
8
BLACK
10
45.994
20
-69.6384
40
0.3795
0
CIRCLE
8
BLACK
10
45.994
20
-77.4484
40
0.3795
0
CIRCLE
8
BLACK
10
48.534
20
-69.6384
40
0.3795
0
CIRCLE
8
BLACK
10
48.534
20
-77.4484
40
0.3795
0
CIRCLE
8
BLACK
10
51.074
20
-69.6384
40
0.3795
0
CIRCLE
8
BLACK
10
51.074
20
-77.4484
40
0.3795
0
CIRCLE
8
BLACK
10
53.614
20
-69.6384
40
0.3795
0
CIRCLE
8
BLACK
10
53.614
20
-77.4484
40
0.3795
0
CIRCLE
8
BLACK
10
56.154
20
-69.6384
40
0.3795
0
CIRCLE
8
BLACK
10
56.154
20
-77.4484
40
0.3795
0
CIRCLE
8
BLACK
10
58.694
20
-69.6384
40
0.3795
0
CIRCLE
8
BLACK
10
58.694
20
-77.4484
40
0.3795
0
LINE
8
BLACK
6
CONTINUOUS
10
21.4201
20
-41.8014
11
21.4201
21
-42.8014
0
LINE
8
BLACK
6
CONTINUOUS
10
20.9201
20
-42.3014
11
21.9201
21
-42.3014
0
LINE
8
BLACK
6
CONTINUOUS
10
21.4201
20
-49.4214
11
21.4201
21
-50.4214
0
LINE
8
BLACK
6
CONTINUOUS
10
20.9201
20
-49.9214
11
21.9201
21
-49.9214
0
LINE
8
BLACK
6
CONTINUOUS
10
23.9601
20
-41.8014
11
23.9601
21
-42.8014
0
LINE
8
BLACK
6
CONTINUOUS
10
23.4601
20
-42.3014
11
24.4601
21
-42.3014
0
LINE
8
BLACK
6
CONTINUOUS
10
23.9601
20
-49.4214
11
23.9601
21
-50.4214
0
LINE
8
BLACK
6
CONTINUOUS
10
23.4601
20
-49.9214
11
24.4601
21
-49.9214
0
LINE
8
BLACK
6
CONTINUOUS
10
26.5001
20
-41.8014
11
26.5001
21
-42.8014
0
LINE
8
BLACK
6
CONTINUOUS
10
26.0001
20
-42.3014
11
27.0001
21
-42.3014
0
LINE
8
BLACK
6
CONTINUOUS
10
26.5001
20
-49.4214
11
26.5001
21
-50.4214
0
LINE
8
BLACK
6
CONTINUOUS
10
26.0001
20
-49.9214
11
27.0001
21
-49.9214
0
LINE
8
BLACK
6
CONTINUOUS
10
29.0401
20
-41.8014
11
29.0401
21
-42.8014
0
LINE
8
BLACK
6
CONTINUOUS
10
28.5401
20
-42.3014
11
29.5401
21
-42.3014
0
LINE
8
BLACK
6
CONTINUOUS
10
29.0401
20
-49.4214
11
29.0401
21
-50.4214
0
LINE
8
BLACK
6
CONTINUOUS
10
28.5401
20
-49.9214
11
29.5401
21
-49.9214
0
LINE
8
BLACK
6
CONTINUOUS
10
31.5801
20
-41.8014
11
31.5801
21
-42.8014
0
LINE
8
BLACK
6
CONTINUOUS
10
31.0801
20
-42.3014
11
32.0801
21
-42.3014
0
LINE
8
BLACK
6
CONTINUOUS
10
31.5801
20
-49.4214
11
31.5801
21
-50.4214
0
LINE
8
BLACK
6
CONTINUOUS
10
31.0801
20
-49.9214
11
32.0801
21
-49.9214
0
LINE
8
BLACK
6
CONTINUOUS
10
34.1201
20
-41.8014
11
34.1201
21
-42.8014
0
LINE
8
BLACK
6
CONTINUOUS
10
33.6201
20
-42.3014
11
34.6201
21
-42.3014
0
LINE
8
BLACK
6
CONTINUOUS
10
34.1201
20
-49.4214
11
34.1201
21
-50.4214
0
LINE
8
BLACK
6
CONTINUOUS
10
33.6201
20
-49.9214
11
34.6201
21
-49.9214
0
LINE
8
BLACK
6
CONTINUOUS
10
34.3251
20
-31.6464
11
34.3251
21
-32.6464
0
LINE
8
BLACK
6
CONTINUOUS
10
33.8251
20
-32.1464
11
34.8251
21
-32.1464
0
LINE
8
BLACK
6
CONTINUOUS
10
34.3251
20
-34.1864
11
34.3251
21
-35.1864
0
LINE
8
BLACK
6
CONTINUOUS
10
33.8251
20
-34.6864
11
34.8251
21
-34.6864
0
LINE
8
BLACK
6
CONTINUOUS
10
36.6601
20
-41.8014
11
36.6601
21
-42.8014
0
LINE
8
BLACK
6
CONTINUOUS
10
36.1601
20
-42.3014
11
37.1601
21
-42.3014
0
LINE
8
BLACK
6
CONTINUOUS
10
36.6601
20
-49.4214
11
36.6601
21
-50.4214
0
LINE
8
BLACK
6
CONTINUOUS
10
36.1601
20
-49.9214
11
37.1601
21
-49.9214
0
LINE
8
BLACK
6
CONTINUOUS
10
36.8251
20
-59.8354
11
36.8251
21
-60.8354
0
LINE
8
BLACK
6
CONTINUOUS
10
36.3251
20
-60.3354
11
37.3251
21
-60.3354
0
LINE
8
BLACK
6
CONTINUOUS
10
36.8651
20
-31.6464
11
36.8651
21
-32.6464
0
LINE
8
BLACK
6
CONTINUOUS
10
36.3651
20
-32.1464
11
37.3651
21
-32.1464
0
LINE
8
BLACK
6
CONTINUOUS
10
36.8651
20
-34.1864
11
36.8651
21
-35.1864
0
LINE
8
BLACK
6
CONTINUOUS
10
36.3651
20
-34.6864
11
37.3651
21
-34.6864
0
LINE
8
BLACK
6
CONTINUOUS
10
39.2001
20
-41.8014
11
39.2001
21
-42.8014
0
LINE
8
BLACK
6
CONTINUOUS
10
38.7001
20
-42.3014
11
39.7001
21
-42.3014
0
LINE
8
BLACK
6
CONTINUOUS
10
39.2001
20
-49.4214
11
39.2001
21
-50.4214
0
LINE
8
BLACK
6
CONTINUOUS
10
38.7001
20
-49.9214
11
39.7001
21
-49.9214
0
LINE
8
BLACK
6
CONTINUOUS
10
39.3651
20
-59.8354
11
39.3651
21
-60.8354
0
LINE
8
BLACK
6
CONTINUOUS
10
38.8651
20
-60.3354
11
39.8651
21
-60.3354
0
LINE
8
BLACK
6
CONTINUOUS
10
39.4051
20
-31.6464
11
39.4051
21
-32.6464
0
LINE
8
BLACK
6
CONTINUOUS
10
38.9051
20
-32.1464
11
39.9051
21
-32.1464
0
LINE
8
BLACK
6
CONTINUOUS
10
39.4051
20
-34.1864
11
39.4051
21
-35.1864
0
LINE
8
BLACK
6
CONTINUOUS
10
38.9051
20
-34.6864
11
39.9051
21
-34.6864
0
LINE
8
BLACK
6
CONTINUOUS
10
41.9051
20
-59.8354
11
41.9051
21
-60.8354
0
LINE
8
BLACK
6
CONTINUOUS
10
41.4051
20
-60.3354
11
42.4051
21
-60.3354
0
LINE
8
BLACK
6
CONTINUOUS
10
41.9451
20
-31.6464
11
41.9451
21
-32.6464
0
LINE
8
BLACK
6
CONTINUOUS
10
41.4451
20
-32.1464
11
42.4451
21
-32.1464
0
LINE
8
BLACK
6
CONTINUOUS
10
41.9451
20
-34.1864
11
41.9451
21
-35.1864
0
LINE
8
BLACK
6
CONTINUOUS
10
41.4451
20
-34.6864
11
42.4451
21
-34.6864
0
LINE
8
BLACK
6
CONTINUOUS
10
44.4451
20
-59.8354
11
44.4451
21
-60.8354
0
LINE
8
BLACK
6
CONTINUOUS
10
43.9451
20
-60.3354
11
44.9451
21
-60.3354
0
LINE
8
BLACK
6
CONTINUOUS
10
44.4851
20
-31.6464
11
44.4851
21
-32.6464
0
LINE
8
BLACK
6
CONTINUOUS
10
43.9851
20
-32.1464
11
44.9851
21
-32.1464
0
LINE
8
BLACK
6
CONTINUOUS
10
44.4851
20
-34.1864
11
44.4851
21
-35.1864
0
LINE
8
BLACK
6
CONTINUOUS
10
43.9851
20
-34.6864
11
44.9851
21
-34.6864
0
LINE
8
BLACK
6
CONTINUOUS
10
46.9851
20
-59.8354
11
46.9851
21
-60.8354
0
LINE
8
BLACK
6
CONTINUOUS
10
46.4851
20
-60.3354
11
47.4851
21
-60.3354
0
LINE
8
BLACK
6
CONTINUOUS
10
47.0251
20
-31.6464
11
47.0251
21
-32.6464
0
LINE
8
BLACK
6
CONTINUOUS
10
46.5251
20
-32.1464
11
47.5251
21
-32.1464
0
LINE
8
BLACK
6
CONTINUOUS
10
47.0251
20
-34.1864
11
47.0251
21
-35.1864
0
LINE
8
BLACK
6
CONTINUOUS
10
46.5251
20
-34.6864
11
47.5251
21
-34.6864
0
LINE
8
BLACK
6
CONTINUOUS
10
47.2001
20
-41.8014
11
47.2001
21
-42.8014
0
LINE
8
BLACK
6
CONTINUOUS
10
46.7001
20
-42.3014
11
47.7001
21
-42.3014
0
LINE
8
BLACK
6
CONTINUOUS
10
47.2001
20
-49.4214
11
47.2001
21
-50.4214
0
LINE
8
BLACK
6
CONTINUOUS
10
46.7001
20
-49.9214
11
47.7001
21
-49.9214
0
LINE
8
BLACK
6
CONTINUOUS
10
49.5251
20
-59.8354
11
49.5251
21
-60.8354
0
LINE
8
BLACK
6
CONTINUOUS
10
49.0251
20
-60.3354
11
50.0251
21
-60.3354
0
LINE
8
BLACK
6
CONTINUOUS
10
49.5651
20
-31.6464
11
49.5651
21
-32.6464
0
LINE
8
BLACK
6
CONTINUOUS
10
49.0651
20
-32.1464
11
50.0651
21
-32.1464
0
LINE
8
BLACK
6
CONTINUOUS
10
49.5651
20
-34.1864
11
49.5651
21
-35.1864
0
LINE
8
BLACK
6
CONTINUOUS
10
49.0651
20
-34.6864
11
50.0651
21
-34.6864
0
LINE
8
BLACK
6
CONTINUOUS
10
49.7401
20
-41.8014
11
49.7401
21
-42.8014
0
LINE
8
BLACK
6
CONTINUOUS
10
49.2401
20
-42.3014
11
50.2401
21
-42.3014
0
LINE
8
BLACK
6
CONTINUOUS
10
49.7401
20
-49.4214
11
49.7401
21
-50.4214
0
LINE
8
BLACK
6
CONTINUOUS
10
49.2401
20
-49.9214
11
50.2401
21
-49.9214
0
LINE
8
BLACK
6
CONTINUOUS
10
52.1051
20
-31.6464
11
52.1051
21
-32.6464
0
LINE
8
BLACK
6
CONTINUOUS
10
51.6051
20
-32.1464
11
52.6051
21
-32.1464
0
LINE
8
BLACK
6
CONTINUOUS
10
52.1051
20
-34.1864
11
52.1051
21
-35.1864
0
LINE
8
BLACK
6
CONTINUOUS
10
51.6051
20
-34.6864
11
52.6051
21
-34.6864
0
LINE
8
BLACK
6
CONTINUOUS
10
52.2801
20
-41.8014
11
52.2801
21
-42.8014
0
LINE
8
BLACK
6
CONTINUOUS
10
51.7801
20
-42.3014
11
52.7801
21
-42.3014
0
LINE
8
BLACK
6
CONTINUOUS
10
52.2801
20
-49.4214
11
52.2801
21
-50.4214
0
LINE
8
BLACK
6
CONTINUOUS
10
51.7801
20
-49.9214
11
52.7801
21
-49.9214
0
LINE
8
BLACK
6
CONTINUOUS
10
54.8201
20
-41.8014
11
54.8201
21
-42.8014
0
LINE
8
BLACK
6
CONTINUOUS
10
54.3201
20
-42.3014
11
55.3201
21
-42.3014
0
LINE
8
BLACK
6
CONTINUOUS
10
54.8201
20
-49.4214
11
54.8201
21
-50.4214
0
LINE
8
BLACK
6
CONTINUOUS
10
54.3201
20
-49.9214
11
55.3201
21
-49.9214
0
LINE
8
BLACK
6
CONTINUOUS
10
57.3601
20
-41.8014
11
57.3601
21
-42.8014
0
LINE
8
BLACK
6
CONTINUOUS
10
56.8601
20
-42.3014
11
57.8601
21
-42.3014
0
LINE
8
BLACK
6
CONTINUOUS
10
57.3601
20
-49.4214
11
57.3601
21
-50.4214
0
LINE
8
BLACK
6
CONTINUOUS
10
56.8601
20
-49.9214
11
57.8601
21
-49.9214
0
LINE
8
BLACK
6
CONTINUOUS
10
59.9001
20
-41.8014
11
59.9001
21
-42.8014
0
LINE
8
BLACK
6
CONTINUOUS
10
59.4001
20
-42.3014
11
60.4001
21
-42.3014
0
LINE
8
BLACK
6
CONTINUOUS
10
59.9001
20
-49.4214
11
59.9001
21
-50.4214
0
LINE
8
BLACK
6
CONTINUOUS
10
59.4001
20
-49.9214
11
60.4001
21
-49.9214
0
LINE
8
BLACK
6
CONTINUOUS
10
62.4401
20
-41.8014
11
62.4401
21
-42.8014
0
LINE
8
BLACK
6
CONTINUOUS
10
61.9401
20
-42.3014
11
62.9401
21
-42.3014
0
LINE
8
BLACK
6
CONTINUOUS
10
62.4401
20
-49.4214
11
62.4401
21
-50.4214
0
LINE
8
BLACK
6
CONTINUOUS
10
61.9401
20
-49.9214
11
62.9401
21
-49.9214
0
LINE
8
BLACK
6
CONTINUOUS
10
64.9801
20
-41.8014
11
64.9801
21
-42.8014
0
LINE
8
BLACK
6
CONTINUOUS
10
64.4801
20
-42.3014
11
65.4801
21
-42.3014
0
LINE
8
BLACK
6
CONTINUOUS
10
64.9801
20
-49.4214
11
64.9801
21
-50.4214
0
LINE
8
BLACK
6
CONTINUOUS
10
64.4801
20
-49.9214
11
65.4801
21
-49.9214
0
LINE
8
BLACK
6
CONTINUOUS
10
32.9639
20
-92.6326
11
32.9639
21
-91.9114
0
LINE
8
BLACK
6
CONTINUOUS
10
32.9639
20
-91.9114
11
32.2427
21
-91.9114
0
LINE
8
BLACK
6
CONTINUOUS
10
32.2427
20
-91.9114
11
32.2427
21
-92.6326
0
LINE
8
BLACK
6
CONTINUOUS
10
32.2427
20
-92.6326
11
32.9639
21
-92.6326
0
LINE
8
BLACK
6
CONTINUOUS
10
32.9639
20
-95.6326
11
32.9639
21
-94.9114
0
LINE
8
BLACK
6
CONTINUOUS
10
32.9639
20
-94.9114
11
32.2427
21
-94.9114
0
LINE
8
BLACK
6
CONTINUOUS
10
32.2427
20
-94.9114
11
32.2427
21
-95.6326
0
LINE
8
BLACK
6
CONTINUOUS
10
32.2427
20
-95.6326
11
32.9639
21
-95.6326
0
LINE
8
BLACK
6
CONTINUOUS
10
35.9639
20
-92.6326
11
35.9639
21
-91.9114
0
LINE
8
BLACK
6
CONTINUOUS
10
35.9639
20
-91.9114
11
35.2427
21
-91.9114
0
LINE
8
BLACK
6
CONTINUOUS
10
35.2427
20
-91.9114
11
35.2427
21
-92.6326
0
LINE
8
BLACK
6
CONTINUOUS
10
35.2427
20
-92.6326
11
35.9639
21
-92.6326
0
LINE
8
BLACK
6
CONTINUOUS
10
35.9639
20
-95.6326
11
35.9639
21
-94.9114
0
LINE
8
BLACK
6
CONTINUOUS
10
35.9639
20
-94.9114
11
35.2427
21
-94.9114
0
LINE
8
BLACK
6
CONTINUOUS
10
35.2427
20
-94.9114
11
35.2427
21
-95.6326
0
LINE
8
BLACK
6
CONTINUOUS
10
35.2427
20
-95.6326
11
35.9639
21
-95.6326
0
LINE
8
BLACK
6
CONTINUOUS
10
38.9639
20
-92.6326
11
38.9639
21
-91.9114
0
LINE
8
BLACK
6
CONTINUOUS
10
38.9639
20
-91.9114
11
38.2427
21
-91.9114
0
LINE
8
BLACK
6
CONTINUOUS
10
38.2427
20
-91.9114
11
38.2427
21
-92.6326
0
LINE
8
BLACK
6
CONTINUOUS
10
38.2427
20
-92.6326
11
38.9639
21
-92.6326
0
LINE
8
BLACK
6
CONTINUOUS
10
38.9639
20
-95.6326
11
38.9639
21
-94.9114
0
LINE
8
BLACK
6
CONTINUOUS
10
38.9639
20
-94.9114
11
38.2427
21
-94.9114
0
LINE
8
BLACK
6
CONTINUOUS
10
38.2427
20
-94.9114
11
38.2427
21
-95.6326
0
LINE
8
BLACK
6
CONTINUOUS
10
38.2427
20
-95.6326
11
38.9639
21
-95.6326
0
LINE
8
BLACK
6
CONTINUOUS
10
41.9639
20
-92.6326
11
41.9639
21
-91.9114
0
LINE
8
BLACK
6
CONTINUOUS
10
41.9639
20
-91.9114
11
41.2427
21
-91.9114
0
LINE
8
BLACK
6
CONTINUOUS
10
41.2427
20
-91.9114
11
41.2427
21
-92.6326
0
LINE
8
BLACK
6
CONTINUOUS
10
41.2427
20
-92.6326
11
41.9639
21
-92.6326
0
LINE
8
BLACK
6
CONTINUOUS
10
41.9639
20
-95.6326
11
41.9639
21
-94.9114
0
LINE
8
BLACK
6
CONTINUOUS
10
41.9639
20
-94.9114
11
41.2427
21
-94.9114
0
LINE
8
BLACK
6
CONTINUOUS
10
41.2427
20
-94.9114
11
41.2427
21
-95.6326
0
LINE
8
BLACK
6
CONTINUOUS
10
41.2427
20
-95.6326
11
41.9639
21
-95.6326
0
LINE
8
BLACK
6
CONTINUOUS
10
44.9639
20
-92.6326
11
44.9639
21
-91.9114
0
LINE
8
BLACK
6
CONTINUOUS
10
44.9639
20
-91.9114
11
44.2427
21
-91.9114
0
LINE
8
BLACK
6
CONTINUOUS
10
44.2427
20
-91.9114
11
44.2427
21
-92.6326
0
LINE
8
BLACK
6
CONTINUOUS
10
44.2427
20
-92.6326
11
44.9639
21
-92.6326
0
LINE
8
BLACK
6
CONTINUOUS
10
44.9639
20
-95.6326
11
44.9639
21
-94.9114
0
LINE
8
BLACK
6
CONTINUOUS
10
44.9639
20
-94.9114
11
44.2427
21
-94.9114
0
LINE
8
BLACK
6
CONTINUOUS
10
44.2427
20
-94.9114
11
44.2427
21
-95.6326
0
LINE
8
BLACK
6
CONTINUOUS
10
44.2427
20
-95.6326
11
44.9639
21
-95.6326
0
LINE
8
BLACK
6
CONTINUOUS
10
47.9639
20
-92.6326
11
47.9639
21
-91.9114
0
LINE
8
BLACK
6
CONTINUOUS
10
47.9639
20
-91.9114
11
47.2427
21
-91.9114
0
LINE
8
BLACK
6
CONTINUOUS
10
47.2427
20
-91.9114
11
47.2427
21
-92.6326
0
LINE
8
BLACK
6
CONTINUOUS
10
47.2427
20
-92.6326
11
47.9639
21
-92.6326
0
LINE
8
BLACK
6
CONTINUOUS
10
47.9639
20
-95.6326
11
47.9639
21
-94.9114
0
LINE
8
BLACK
6
CONTINUOUS
10
47.9639
20
-94.9114
11
47.2427
21
-94.9114
0
LINE
8
BLACK
6
CONTINUOUS
10
47.2427
20
-94.9114
11
47.2427
21
-95.6326
0
LINE
8
BLACK
6
CONTINUOUS
10
47.2427
20
-95.6326
11
47.9639
21
-95.6326
0
LINE
8
BLACK
6
CONTINUOUS
10
50.9639
20
-92.6326
11
50.9639
21
-91.9114
0
LINE
8
BLACK
6
CONTINUOUS
10
50.9639
20
-91.9114
11
50.2427
21
-91.9114
0
LINE
8
BLACK
6
CONTINUOUS
10
50.2427
20
-91.9114
11
50.2427
21
-92.6326
0
LINE
8
BLACK
6
CONTINUOUS
10
50.2427
20
-92.6326
11
50.9639
21
-92.6326
0
LINE
8
BLACK
6
CONTINUOUS
10
50.9639
20
-95.6326
11
50.9639
21
-94.9114
0
LINE
8
BLACK
6
CONTINUOUS
10
50.9639
20
-94.9114
11
50.2427
21
-94.9114
0
LINE
8
BLACK
6
CONTINUOUS
10
50.2427
20
-94.9114
11
50.2427
21
-95.6326
0
LINE
8
BLACK
6
CONTINUOUS
10
50.2427
20
-95.6326
11
50.9639
21
-95.6326
0
LINE
8
BLACK
6
CONTINUOUS
10
53.9639
20
-92.6326
11
53.9639
21
-91.9114
0
LINE
8
BLACK
6
CONTINUOUS
10
53.9639
20
-91.9114
11
53.2427
21
-91.9114
0
LINE
8
BLACK
6
CONTINUOUS
10
53.2427
20
-91.9114
11
53.2427
21
-92.6326
0
LINE
8
BLACK
6
CONTINUOUS
10
53.2427
20
-92.6326
11
53.9639
21
-92.6326
0
LINE
8
BLACK
6
CONTINUOUS
10
53.9639
20
-95.6326
11
53.9639
21
-94.9114
0
LINE
8
BLACK
6
CONTINUOUS
10
53.9639
20
-94.9114
11
53.2427
21
-94.9114
0
LINE
8
BLACK
6
CONTINUOUS
10
53.2427
20
-94.9114
11
53.2427
21
-95.6326
0
LINE
8
BLACK
6
CONTINUOUS
10
53.2427
20
-95.6326
11
53.9639
21
-95.6326
0
LINE
8
BLACK
6
CONTINUOUS
10
30.4533
20
-100.797
11
31.6583
21
-99.592
0
LINE
8
BLACK
6
CONTINUOUS
10
31.6583
20
-99.592
11
30.4533
21
-98.387
0
LINE
8
BLACK
6
CONTINUOUS
10
30.4533
20
-98.387
11
29.2483
21
-99.592
0
LINE
8
BLACK
6
CONTINUOUS
10
29.2483
20
-99.592
11
30.4533
21
-100.797
0
LINE
8
BLACK
6
CONTINUOUS
10
55.7533
20
-100.797
11
56.9583
21
-99.592
0
LINE
8
BLACK
6
CONTINUOUS
10
56.9583
20
-99.592
11
55.7533
21
-98.387
0
LINE
8
BLACK
6
CONTINUOUS
10
55.7533
20
-98.387
11
54.5483
21
-99.592
0
LINE
8
BLACK
6
CONTINUOUS
10
54.5483
20
-99.592
11
55.7533
21
-100.797
0
LINE
8
BLACK
6
CONTINUOUS
10
20.8262
20
-105.255
11
20.8262
21
-103.255
0
LINE
8
BLACK
6
CONTINUOUS
10
20.8262
20
-103.255
11
21.3024
21
-103.255
0
LINE
8
BLACK
6
CONTINUOUS
10
21.3024
20
-103.255
11
21.5881
21
-103.35
0
LINE
8
BLACK
6
CONTINUOUS
10
21.5881
20
-103.35
11
21.7786
21
-103.54
0
LINE
8
BLACK
6
CONTINUOUS
10
21.7786
20
-103.54
11
21.8738
21
-103.731
0
LINE
8
BLACK
6
CONTINUOUS
10
21.8738
20
-103.731
11
21.969
21
-104.112
0
LINE
8
BLACK
6
CONTINUOUS
10
21.969
20
-104.112
11
21.969
21
-104.398
0
LINE
8
BLACK
6
CONTINUOUS
10
21.969
20
-104.398
11
21.8738
21
-104.779
0
LINE
8
BLACK
6
CONTINUOUS
10
21.8738
20
-104.779
11
21.7786
21
-104.969
0
LINE
8
BLACK
6
CONTINUOUS
10
21.7786
20
-104.969
11
21.5881
21
-105.16
0
LINE
8
BLACK
6
CONTINUOUS
10
21.5881
20
-105.16
11
21.3024
21
-105.255
0
LINE
8
BLACK
6
CONTINUOUS
10
21.3024
20
-105.255
11
20.8262
21
-105.255
0
LINE
8
BLACK
6
CONTINUOUS
10
22.8262
20
-105.255
11
22.8262
21
-103.921
0
LINE
8
BLACK
6
CONTINUOUS
10
22.8262
20
-104.302
11
22.9214
21
-104.112
0
LINE
8
BLACK
6
CONTINUOUS
10
22.9214
20
-104.112
11
23.0167
21
-104.017
0
LINE
8
BLACK
6
CONTINUOUS
10
23.0167
20
-104.017
11
23.2071
21
-103.921
0
LINE
8
BLACK
6
CONTINUOUS
10
23.2071
20
-103.921
11
23.3976
21
-103.921
0
LINE
8
BLACK
6
CONTINUOUS
10
24.0643
20
-105.255
11
24.0643
21
-103.921
0
LINE
8
BLACK
6
CONTINUOUS
10
24.0643
20
-103.255
11
23.969
21
-103.35
0
LINE
8
BLACK
6
CONTINUOUS
10
23.969
20
-103.35
11
24.0643
21
-103.445
0
LINE
8
BLACK
6
CONTINUOUS
10
24.0643
20
-103.445
11
24.1595
21
-103.35
0
LINE
8
BLACK
6
CONTINUOUS
10
24.1595
20
-103.35
11
24.0643
21
-103.255
0
LINE
8
BLACK
6
CONTINUOUS
10
24.0643
20
-103.255
11
24.0643
21
-103.445
0
LINE
8
BLACK
6
CONTINUOUS
10
25.3024
20
-105.255
11
25.1119
21
-105.16
0
LINE
8
BLACK
6
CONTINUOUS
10
25.1119
20
-105.16
11
25.0167
21
-104.969
0
LINE
8
BLACK
6
CONTINUOUS
10
25.0167
20
-104.969
11
25.0167
21
-103.255
0
LINE
8
BLACK
6
CONTINUOUS
10
26.35
20
-105.255
11
26.1595
21
-105.16
0
LINE
8
BLACK
6
CONTINUOUS
10
26.1595
20
-105.16
11
26.0643
21
-104.969
0
LINE
8
BLACK
6
CONTINUOUS
10
26.0643
20
-104.969
11
26.0643
21
-103.255
0
LINE
8
BLACK
6
CONTINUOUS
10
28.6357
20
-105.255
11
28.6357
21
-103.255
0
LINE
8
BLACK
6
CONTINUOUS
10
28.6357
20
-103.255
11
29.3024
21
-104.683
0
LINE
8
BLACK
6
CONTINUOUS
10
29.3024
20
-104.683
11
29.969
21
-103.255
0
LINE
8
BLACK
6
CONTINUOUS
10
29.969
20
-103.255
11
29.969
21
-105.255
0
LINE
8
BLACK
6
CONTINUOUS
10
31.7786
20
-105.255
11
31.7786
21
-104.207
0
LINE
8
BLACK
6
CONTINUOUS
10
31.7786
20
-104.207
11
31.6833
21
-104.017
0
LINE
8
BLACK
6
CONTINUOUS
10
31.6833
20
-104.017
11
31.4929
21
-103.921
0
LINE
8
BLACK
6
CONTINUOUS
10
31.4929
20
-103.921
11
31.1119
21
-103.921
0
LINE
8
BLACK
6
CONTINUOUS
10
31.1119
20
-103.921
11
30.9214
21
-104.017
0
LINE
8
BLACK
6
CONTINUOUS
10
31.7786
20
-105.16
11
31.5881
21
-105.255
0
LINE
8
BLACK
6
CONTINUOUS
10
31.5881
20
-105.255
11
31.1119
21
-105.255
0
LINE
8
BLACK
6
CONTINUOUS
10
31.1119
20
-105.255
11
30.9214
21
-105.16
0
LINE
8
BLACK
6
CONTINUOUS
10
30.9214
20
-105.16
11
30.8262
21
-104.969
0
LINE
8
BLACK
6
CONTINUOUS
10
30.8262
20
-104.969
11
30.8262
21
-104.779
0
LINE
8
BLACK
6
CONTINUOUS
10
30.8262
20
-104.779
11
30.9214
21
-104.588
0
LINE
8
BLACK
6
CONTINUOUS
10
30.9214
20
-104.588
11
31.1119
21
-104.493
0
LINE
8
BLACK
6
CONTINUOUS
10
31.1119
20
-104.493
11
31.5881
21
-104.493
0
LINE
8
BLACK
6
CONTINUOUS
10
31.5881
20
-104.493
11
31.7786
21
-104.398
0
LINE
8
BLACK
6
CONTINUOUS
10
32.731
20
-103.921
11
32.731
21
-105.921
0
LINE
8
BLACK
6
CONTINUOUS
10
32.731
20
-104.017
11
32.9214
21
-103.921
0
LINE
8
BLACK
6
CONTINUOUS
10
32.9214
20
-103.921
11
33.3024
21
-103.921
0
LINE
8
BLACK
6
CONTINUOUS
10
33.3024
20
-103.921
11
33.4929
21
-104.017
0
LINE
8
BLACK
6
CONTINUOUS
10
33.4929
20
-104.017
11
33.5881
21
-104.112
0
LINE
8
BLACK
6
CONTINUOUS
10
33.5881
20
-104.112
11
33.6833
21
-104.302
0
LINE
8
BLACK
6
CONTINUOUS
10
33.6833
20
-104.302
11
33.6833
21
-104.874
0
LINE
8
BLACK
6
CONTINUOUS
10
33.6833
20
-104.874
11
33.5881
21
-105.064
0
LINE
8
BLACK
6
CONTINUOUS
10
33.5881
20
-105.064
11
33.4929
21
-105.16
0
LINE
8
BLACK
6
CONTINUOUS
10
33.4929
20
-105.16
11
33.3024
21
-105.255
0
LINE
8
BLACK
6
CONTINUOUS
10
33.3024
20
-105.255
11
32.9214
21
-105.255
0
LINE
8
BLACK
6
CONTINUOUS
10
32.9214
20
-105.255
11
32.731
21
-105.16
0
LINE
8
BLACK
6
CONTINUOUS
10
34.5405
20
-105.064
11
34.6357
21
-105.16
0
LINE
8
BLACK
6
CONTINUOUS
10
34.6357
20
-105.16
11
34.5405
21
-105.255
0
LINE
8
BLACK
6
CONTINUOUS
10
34.5405
20
-105.255
11
34.4452
21
-105.16
0
LINE
8
BLACK
6
CONTINUOUS
10
34.4452
20
-105.16
11
34.5405
21
-105.064
0
LINE
8
BLACK
6
CONTINUOUS
10
34.5405
20
-105.064
11
34.5405
21
-105.255
0
LINE
8
BLACK
6
CONTINUOUS
10
34.5405
20
-104.017
11
34.6357
21
-104.112
0
LINE
8
BLACK
6
CONTINUOUS
10
34.6357
20
-104.112
11
34.5405
21
-104.207
0
LINE
8
BLACK
6
CONTINUOUS
10
34.5405
20
-104.207
11
34.4452
21
-104.112
0
LINE
8
BLACK
6
CONTINUOUS
10
34.4452
20
-104.112
11
34.5405
21
-104.017
0
LINE
8
BLACK
6
CONTINUOUS
10
34.5405
20
-104.017
11
34.5405
21
-104.207
0
LINE
8
BLACK
6
CONTINUOUS
10
17.85
20
-108.35
11
18.25
21
-108.75
0
LINE
8
BLACK
6
CONTINUOUS
10
18.25
20
-108.35
11
17.85
21
-108.75
0
LINE
8
BLACK
6
CONTINUOUS
10
21.2071
20
-107.455
11
21.3976
21
-107.455
0
LINE
8
BLACK
6
CONTINUOUS
10
21.3976
20
-107.455
11
21.5881
21
-107.55
0
LINE
8
BLACK
6
CONTINUOUS
10
21.5881
20
-107.55
11
21.6833
21
-107.645
0
LINE
8
BLACK
6
CONTINUOUS
10
21.6833
20
-107.645
11
21.7786
21
-107.836
0
LINE
8
BLACK
6
CONTINUOUS
10
21.7786
20
-107.836
11
21.8738
21
-108.217
0
LINE
8
BLACK
6
CONTINUOUS
10
21.8738
20
-108.217
11
21.8738
21
-108.693
0
LINE
8
BLACK
6
CONTINUOUS
10
21.8738
20
-108.693
11
21.7786
21
-109.074
0
LINE
8
BLACK
6
CONTINUOUS
10
21.7786
20
-109.074
11
21.6833
21
-109.264
0
LINE
8
BLACK
6
CONTINUOUS
10
21.6833
20
-109.264
11
21.5881
21
-109.36
0
LINE
8
BLACK
6
CONTINUOUS
10
21.5881
20
-109.36
11
21.3976
21
-109.455
0
LINE
8
BLACK
6
CONTINUOUS
10
21.3976
20
-109.455
11
21.2071
21
-109.455
0
LINE
8
BLACK
6
CONTINUOUS
10
21.2071
20
-109.455
11
21.0167
21
-109.36
0
LINE
8
BLACK
6
CONTINUOUS
10
21.0167
20
-109.36
11
20.9214
21
-109.264
0
LINE
8
BLACK
6
CONTINUOUS
10
20.9214
20
-109.264
11
20.8262
21
-109.074
0
LINE
8
BLACK
6
CONTINUOUS
10
20.8262
20
-109.074
11
20.731
21
-108.693
0
LINE
8
BLACK
6
CONTINUOUS
10
20.731
20
-108.693
11
20.731
21
-108.217
0
LINE
8
BLACK
6
CONTINUOUS
10
20.731
20
-108.217
11
20.8262
21
-107.836
0
LINE
8
BLACK
6
CONTINUOUS
10
20.8262
20
-107.836
11
20.9214
21
-107.645
0
LINE
8
BLACK
6
CONTINUOUS
10
20.9214
20
-107.645
11
21.0167
21
-107.55
0
LINE
8
BLACK
6
CONTINUOUS
10
21.0167
20
-107.55
11
21.2071
21
-107.455
0
LINE
8
BLACK
6
CONTINUOUS
10
22.731
20
-109.264
11
22.8262
21
-109.36
0
LINE
8
BLACK
6
CONTINUOUS
10
22.8262
20
-109.36
11
22.731
21
-109.455
0
LINE
8
BLACK
6
CONTINUOUS
10
22.731
20
-109.455
11
22.6357
21
-109.36
0
LINE
8
BLACK
6
CONTINUOUS
10
22.6357
20
-109.36
11
22.731
21
-109.264
0
LINE
8
BLACK
6
CONTINUOUS
10
22.731
20
-109.264
11
22.731
21
-109.455
0
LINE
8
BLACK
6
CONTINUOUS
10
24.5405
20
-108.121
11
24.5405
21
-109.455
0
LINE
8
BLACK
6
CONTINUOUS
10
24.0643
20
-107.36
11
23.5881
21
-108.788
0
LINE
8
BLACK
6
CONTINUOUS
10
23.5881
20
-108.788
11
24.8262
21
-108.788
0
LINE
8
BLACK
6
CONTINUOUS
10
25.969
20
-107.455
11
26.1595
21
-107.455
0
LINE
8
BLACK
6
CONTINUOUS
10
26.1595
20
-107.455
11
26.35
21
-107.55
0
LINE
8
BLACK
6
CONTINUOUS
10
26.35
20
-107.55
11
26.4452
21
-107.645
0
LINE
8
BLACK
6
CONTINUOUS
10
26.4452
20
-107.645
11
26.5405
21
-107.836
0
LINE
8
BLACK
6
CONTINUOUS
10
26.5405
20
-107.836
11
26.6357
21
-108.217
0
LINE
8
BLACK
6
CONTINUOUS
10
26.6357
20
-108.217
11
26.6357
21
-108.693
0
LINE
8
BLACK
6
CONTINUOUS
10
26.6357
20
-108.693
11
26.5405
21
-109.074
0
LINE
8
BLACK
6
CONTINUOUS
10
26.5405
20
-109.074
11
26.4452
21
-109.264
0
LINE
8
BLACK
6
CONTINUOUS
10
26.4452
20
-109.264
11
26.35
21
-109.36
0
LINE
8
BLACK
6
CONTINUOUS
10
26.35
20
-109.36
11
26.1595
21
-109.455
0
LINE
8
BLACK
6
CONTINUOUS
10
26.1595
20
-109.455
11
25.969
21
-109.455
0
LINE
8
BLACK
6
CONTINUOUS
10
25.969
20
-109.455
11
25.7786
21
-109.36
0
LINE
8
BLACK
6
CONTINUOUS
10
25.7786
20
-109.36
11
25.6833
21
-109.264
0
LINE
8
BLACK
6
CONTINUOUS
10
25.6833
20
-109.264
11
25.5881
21
-109.074
0
LINE
8
BLACK
6
CONTINUOUS
10
25.5881
20
-109.074
11
25.4929
21
-108.693
0
LINE
8
BLACK
6
CONTINUOUS
10
25.4929
20
-108.693
11
25.4929
21
-108.217
0
LINE
8
BLACK
6
CONTINUOUS
10
25.4929
20
-108.217
11
25.5881
21
-107.836
0
LINE
8
BLACK
6
CONTINUOUS
10
25.5881
20
-107.836
11
25.6833
21
-107.645
0
LINE
8
BLACK
6
CONTINUOUS
10
25.6833
20
-107.645
11
25.7786
21
-107.55
0
LINE
8
BLACK
6
CONTINUOUS
10
25.7786
20
-107.55
11
25.969
21
-107.455
0
LINE
8
BLACK
6
CONTINUOUS
10
27.8738
20
-107.455
11
28.0643
21
-107.455
0
LINE
8
BLACK
6
CONTINUOUS
10
28.0643
20
-107.455
11
28.2548
21
-107.55
0
LINE
8
BLACK
6
CONTINUOUS
10
28.2548
20
-107.55
11
28.35
21
-107.645
0
LINE
8
BLACK
6
CONTINUOUS
10
28.35
20
-107.645
11
28.4452
21
-107.836
0
LINE
8
BLACK
6
CONTINUOUS
10
28.4452
20
-107.836
11
28.5405
21
-108.217
0
LINE
8
BLACK
6
CONTINUOUS
10
28.5405
20
-108.217
11
28.5405
21
-108.693
0
LINE
8
BLACK
6
CONTINUOUS
10
28.5405
20
-108.693
11
28.4452
21
-109.074
0
LINE
8
BLACK
6
CONTINUOUS
10
28.4452
20
-109.074
11
28.35
21
-109.264
0
LINE
8
BLACK
6
CONTINUOUS
10
28.35
20
-109.264
11
28.2548
21
-109.36
0
LINE
8
BLACK
6
CONTINUOUS
10
28.2548
20
-109.36
11
28.0643
21
-109.455
0
LINE
8
BLACK
6
CONTINUOUS
10
28.0643
20
-109.455
11
27.8738
21
-109.455
0
LINE
8
BLACK
6
CONTINUOUS
10
27.8738
20
-109.455
11
27.6833
21
-109.36
0
LINE
8
BLACK
6
CONTINUOUS
10
27.6833
20
-109.36
11
27.5881
21
-109.264
0
LINE
8
BLACK
6
CONTINUOUS
10
27.5881
20
-109.264
11
27.4929
21
-109.074
0
LINE
8
BLACK
6
CONTINUOUS
10
27.4929
20
-109.074
11
27.3976
21
-108.693
0
LINE
8
BLACK
6
CONTINUOUS
10
27.3976
20
-108.693
11
27.3976
21
-108.217
0
LINE
8
BLACK
6
CONTINUOUS
10
27.3976
20
-108.217
11
27.4929
21
-107.836
0
LINE
8
BLACK
6
CONTINUOUS
10
27.4929
20
-107.836
11
27.5881
21
-107.645
0
LINE
8
BLACK
6
CONTINUOUS
10
27.5881
20
-107.645
11
27.6833
21
-107.55
0
LINE
8
BLACK
6
CONTINUOUS
10
27.6833
20
-107.55
11
27.8738
21
-107.455
0
LINE
8
BLACK
6
CONTINUOUS
10
29.3976
20
-109.455
11
29.3976
21
-108.121
0
LINE
8
BLACK
6
CONTINUOUS
10
29.3976
20
-108.312
11
29.4929
21
-108.217
0
LINE
8
BLACK
6
CONTINUOUS
10
29.4929
20
-108.217
11
29.6833
21
-108.121
0
LINE
8
BLACK
6
CONTINUOUS
10
29.6833
20
-108.121
11
29.969
21
-108.121
0
LINE
8
BLACK
6
CONTINUOUS
10
29.969
20
-108.121
11
30.1595
21
-108.217
0
LINE
8
BLACK
6
CONTINUOUS
10
30.1595
20
-108.217
11
30.2548
21
-108.407
0
LINE
8
BLACK
6
CONTINUOUS
10
30.2548
20
-108.407
11
30.2548
21
-109.455
0
LINE
8
BLACK
6
CONTINUOUS
10
30.2548
20
-108.407
11
30.35
21
-108.217
0
LINE
8
BLACK
6
CONTINUOUS
10
30.35
20
-108.217
11
30.5405
21
-108.121
0
LINE
8
BLACK
6
CONTINUOUS
10
30.5405
20
-108.121
11
30.8262
21
-108.121
0
LINE
8
BLACK
6
CONTINUOUS
10
30.8262
20
-108.121
11
31.0167
21
-108.217
0
LINE
8
BLACK
6
CONTINUOUS
10
31.0167
20
-108.217
11
31.1119
21
-108.407
0
LINE
8
BLACK
6
CONTINUOUS
10
31.1119
20
-108.407
11
31.1119
21
-109.455
0
LINE
8
BLACK
6
CONTINUOUS
10
32.0643
20
-109.455
11
32.0643
21
-108.121
0
LINE
8
BLACK
6
CONTINUOUS
10
32.0643
20
-108.312
11
32.1595
21
-108.217
0
LINE
8
BLACK
6
CONTINUOUS
10
32.1595
20
-108.217
11
32.35
21
-108.121
0
LINE
8
BLACK
6
CONTINUOUS
10
32.35
20
-108.121
11
32.6357
21
-108.121
0
LINE
8
BLACK
6
CONTINUOUS
10
32.6357
20
-108.121
11
32.8262
21
-108.217
0
LINE
8
BLACK
6
CONTINUOUS
10
32.8262
20
-108.217
11
32.9214
21
-108.407
0
LINE
8
BLACK
6
CONTINUOUS
10
32.9214
20
-108.407
11
32.9214
21
-109.455
0
LINE
8
BLACK
6
CONTINUOUS
10
32.9214
20
-108.407
11
33.0167
21
-108.217
0
LINE
8
BLACK
6
CONTINUOUS
10
33.0167
20
-108.217
11
33.2071
21
-108.121
0
LINE
8
BLACK
6
CONTINUOUS
10
33.2071
20
-108.121
11
33.4929
21
-108.121
0
LINE
8
BLACK
6
CONTINUOUS
10
33.4929
20
-108.121
11
33.6833
21
-108.217
0
LINE
8
BLACK
6
CONTINUOUS
10
33.6833
20
-108.217
11
33.7786
21
-108.407
0
LINE
8
BLACK
6
CONTINUOUS
10
33.7786
20
-108.407
11
33.7786
21
-109.455
0
LINE
8
BLACK
6
CONTINUOUS
10
37.6833
20
-107.36
11
35.969
21
-109.931
0
LINE
8
BLACK
6
CONTINUOUS
10
40.2548
20
-107.455
11
40.4452
21
-107.455
0
LINE
8
BLACK
6
CONTINUOUS
10
40.4452
20
-107.455
11
40.6357
21
-107.55
0
LINE
8
BLACK
6
CONTINUOUS
10
40.6357
20
-107.55
11
40.731
21
-107.645
0
LINE
8
BLACK
6
CONTINUOUS
10
40.731
20
-107.645
11
40.8262
21
-107.836
0
LINE
8
BLACK
6
CONTINUOUS
10
40.8262
20
-107.836
11
40.9214
21
-108.217
0
LINE
8
BLACK
6
CONTINUOUS
10
40.9214
20
-108.217
11
40.9214
21
-108.693
0
LINE
8
BLACK
6
CONTINUOUS
10
40.9214
20
-108.693
11
40.8262
21
-109.074
0
LINE
8
BLACK
6
CONTINUOUS
10
40.8262
20
-109.074
11
40.731
21
-109.264
0
LINE
8
BLACK
6
CONTINUOUS
10
40.731
20
-109.264
11
40.6357
21
-109.36
0
LINE
8
BLACK
6
CONTINUOUS
10
40.6357
20
-109.36
11
40.4452
21
-109.455
0
LINE
8
BLACK
6
CONTINUOUS
10
40.4452
20
-109.455
11
40.2548
21
-109.455
0
LINE
8
BLACK
6
CONTINUOUS
10
40.2548
20
-109.455
11
40.0643
21
-109.36
0
LINE
8
BLACK
6
CONTINUOUS
10
40.0643
20
-109.36
11
39.969
21
-109.264
0
LINE
8
BLACK
6
CONTINUOUS
10
39.969
20
-109.264
11
39.8738
21
-109.074
0
LINE
8
BLACK
6
CONTINUOUS
10
39.8738
20
-109.074
11
39.7786
21
-108.693
0
LINE
8
BLACK
6
CONTINUOUS
10
39.7786
20
-108.693
11
39.7786
21
-108.217
0
LINE
8
BLACK
6
CONTINUOUS
10
39.7786
20
-108.217
11
39.8738
21
-107.836
0
LINE
8
BLACK
6
CONTINUOUS
10
39.8738
20
-107.836
11
39.969
21
-107.645
0
LINE
8
BLACK
6
CONTINUOUS
10
39.969
20
-107.645
11
40.0643
21
-107.55
0
LINE
8
BLACK
6
CONTINUOUS
10
40.0643
20
-107.55
11
40.2548
21
-107.455
0
LINE
8
BLACK
6
CONTINUOUS
10
41.7786
20
-109.264
11
41.8738
21
-109.36
0
LINE
8
BLACK
6
CONTINUOUS
10
41.8738
20
-109.36
11
41.7786
21
-109.455
0
LINE
8
BLACK
6
CONTINUOUS
10
41.7786
20
-109.455
11
41.6833
21
-109.36
0
LINE
8
BLACK
6
CONTINUOUS
10
41.6833
20
-109.36
11
41.7786
21
-109.264
0
LINE
8
BLACK
6
CONTINUOUS
10
41.7786
20
-109.264
11
41.7786
21
-109.455
0
LINE
8
BLACK
6
CONTINUOUS
10
43.1119
20
-107.455
11
43.3024
21
-107.455
0
LINE
8
BLACK
6
CONTINUOUS
10
43.3024
20
-107.455
11
43.4929
21
-107.55
0
LINE
8
BLACK
6
CONTINUOUS
10
43.4929
20
-107.55
11
43.5881
21
-107.645
0
LINE
8
BLACK
6
CONTINUOUS
10
43.5881
20
-107.645
11
43.6833
21
-107.836
0
LINE
8
BLACK
6
CONTINUOUS
10
43.6833
20
-107.836
11
43.7786
21
-108.217
0
LINE
8
BLACK
6
CONTINUOUS
10
43.7786
20
-108.217
11
43.7786
21
-108.693
0
LINE
8
BLACK
6
CONTINUOUS
10
43.7786
20
-108.693
11
43.6833
21
-109.074
0
LINE
8
BLACK
6
CONTINUOUS
10
43.6833
20
-109.074
11
43.5881
21
-109.264
0
LINE
8
BLACK
6
CONTINUOUS
10
43.5881
20
-109.264
11
43.4929
21
-109.36
0
LINE
8
BLACK
6
CONTINUOUS
10
43.4929
20
-109.36
11
43.3024
21
-109.455
0
LINE
8
BLACK
6
CONTINUOUS
10
43.3024
20
-109.455
11
43.1119
21
-109.455
0
LINE
8
BLACK
6
CONTINUOUS
10
43.1119
20
-109.455
11
42.9214
21
-109.36
0
LINE
8
BLACK
6
CONTINUOUS
10
42.9214
20
-109.36
11
42.8262
21
-109.264
0
LINE
8
BLACK
6
CONTINUOUS
10
42.8262
20
-109.264
11
42.731
21
-109.074
0
LINE
8
BLACK
6
CONTINUOUS
10
42.731
20
-109.074
11
42.6357
21
-108.693
0
LINE
8
BLACK
6
CONTINUOUS
10
42.6357
20
-108.693
11
42.6357
21
-108.217
0
LINE
8
BLACK
6
CONTINUOUS
10
42.6357
20
-108.217
11
42.731
21
-107.836
0
LINE
8
BLACK
6
CONTINUOUS
10
42.731
20
-107.836
11
42.8262
21
-107.645
0
LINE
8
BLACK
6
CONTINUOUS
10
42.8262
20
-107.645
11
42.9214
21
-107.55
0
LINE
8
BLACK
6
CONTINUOUS
10
42.9214
20
-107.55
11
43.1119
21
-107.455
0
LINE
8
BLACK
6
CONTINUOUS
10
45.6833
20
-109.455
11
44.5405
21
-109.455
0
LINE
8
BLACK
6
CONTINUOUS
10
45.1119
20
-109.455
11
45.1119
21
-107.455
0
LINE
8
BLACK
6
CONTINUOUS
10
45.1119
20
-107.455
11
44.9214
21
-107.74
0
LINE
8
BLACK
6
CONTINUOUS
10
44.9214
20
-107.74
11
44.731
21
-107.931
0
LINE
8
BLACK
6
CONTINUOUS
10
44.731
20
-107.931
11
44.5405
21
-108.026
0
LINE
8
BLACK
6
CONTINUOUS
10
47.4929
20
-107.455
11
46.5405
21
-107.455
0
LINE
8
BLACK
6
CONTINUOUS
10
46.5405
20
-107.455
11
46.4452
21
-108.407
0
LINE
8
BLACK
6
CONTINUOUS
10
46.4452
20
-108.407
11
46.5405
21
-108.312
0
LINE
8
BLACK
6
CONTINUOUS
10
46.5405
20
-108.312
11
46.731
21
-108.217
0
LINE
8
BLACK
6
CONTINUOUS
10
46.731
20
-108.217
11
47.2071
21
-108.217
0
LINE
8
BLACK
6
CONTINUOUS
10
47.2071
20
-108.217
11
47.3976
21
-108.312
0
LINE
8
BLACK
6
CONTINUOUS
10
47.3976
20
-108.312
11
47.4929
21
-108.407
0
LINE
8
BLACK
6
CONTINUOUS
10
47.4929
20
-108.407
11
47.5881
21
-108.598
0
LINE
8
BLACK
6
CONTINUOUS
10
47.5881
20
-108.598
11
47.5881
21
-109.074
0
LINE
8
BLACK
6
CONTINUOUS
10
47.5881
20
-109.074
11
47.4929
21
-109.264
0
LINE
8
BLACK
6
CONTINUOUS
10
47.4929
20
-109.264
11
47.3976
21
-109.36
0
LINE
8
BLACK
6
CONTINUOUS
10
47.3976
20
-109.36
11
47.2071
21
-109.455
0
LINE
8
BLACK
6
CONTINUOUS
10
47.2071
20
-109.455
11
46.731
21
-109.455
0
LINE
8
BLACK
6
CONTINUOUS
10
46.731
20
-109.455
11
46.5405
21
-109.36
0
LINE
8
BLACK
6
CONTINUOUS
10
46.5405
20
-109.36
11
46.4452
21
-109.264
0
LINE
8
BLACK
6
CONTINUOUS
10
48.2548
20
-107.455
11
49.5881
21
-107.455
0
LINE
8
BLACK
6
CONTINUOUS
10
49.5881
20
-107.455
11
48.731
21
-109.455
0
LINE
8
BLACK
6
CONTINUOUS
10
50.2548
20
-107.455
11
50.2548
21
-107.836
0
LINE
8
BLACK
6
CONTINUOUS
10
51.0167
20
-107.455
11
51.0167
21
-107.836
0
LINE
8
BLACK
6
CONTINUOUS
10
53.969
20
-110.217
11
53.8738
21
-110.121
0
LINE
8
BLACK
6
CONTINUOUS
10
53.8738
20
-110.121
11
53.6833
21
-109.836
0
LINE
8
BLACK
6
CONTINUOUS
10
53.6833
20
-109.836
11
53.5881
21
-109.645
0
LINE
8
BLACK
6
CONTINUOUS
10
53.5881
20
-109.645
11
53.4929
21
-109.36
0
LINE
8
BLACK
6
CONTINUOUS
10
53.4929
20
-109.36
11
53.3976
21
-108.883
0
LINE
8
BLACK
6
CONTINUOUS
10
53.3976
20
-108.883
11
53.3976
21
-108.502
0
LINE
8
BLACK
6
CONTINUOUS
10
53.3976
20
-108.502
11
53.4929
21
-108.026
0
LINE
8
BLACK
6
CONTINUOUS
10
53.4929
20
-108.026
11
53.5881
21
-107.74
0
LINE
8
BLACK
6
CONTINUOUS
10
53.5881
20
-107.74
11
53.6833
21
-107.55
0
LINE
8
BLACK
6
CONTINUOUS
10
53.6833
20
-107.55
11
53.8738
21
-107.264
0
LINE
8
BLACK
6
CONTINUOUS
10
53.8738
20
-107.264
11
53.969
21
-107.169
0
LINE
8
BLACK
6
CONTINUOUS
10
55.7786
20
-109.455
11
54.6357
21
-109.455
0
LINE
8
BLACK
6
CONTINUOUS
10
55.2071
20
-109.455
11
55.2071
21
-107.455
0
LINE
8
BLACK
6
CONTINUOUS
10
55.2071
20
-107.455
11
55.0167
21
-107.74
0
LINE
8
BLACK
6
CONTINUOUS
10
55.0167
20
-107.74
11
54.8262
21
-107.931
0
LINE
8
BLACK
6
CONTINUOUS
10
54.8262
20
-107.931
11
54.6357
21
-108.026
0
LINE
8
BLACK
6
CONTINUOUS
10
58.1595
20
-109.455
11
58.1595
21
-107.455
0
LINE
8
BLACK
6
CONTINUOUS
10
59.0167
20
-109.455
11
59.0167
21
-108.407
0
LINE
8
BLACK
6
CONTINUOUS
10
59.0167
20
-108.407
11
58.9214
21
-108.217
0
LINE
8
BLACK
6
CONTINUOUS
10
58.9214
20
-108.217
11
58.731
21
-108.121
0
LINE
8
BLACK
6
CONTINUOUS
10
58.731
20
-108.121
11
58.4452
21
-108.121
0
LINE
8
BLACK
6
CONTINUOUS
10
58.4452
20
-108.121
11
58.2548
21
-108.217
0
LINE
8
BLACK
6
CONTINUOUS
10
58.2548
20
-108.217
11
58.1595
21
-108.312
0
LINE
8
BLACK
6
CONTINUOUS
10
60.2548
20
-109.455
11
60.0643
21
-109.36
0
LINE
8
BLACK
6
CONTINUOUS
10
60.0643
20
-109.36
11
59.969
21
-109.264
0
LINE
8
BLACK
6
CONTINUOUS
10
59.969
20
-109.264
11
59.8738
21
-109.074
0
LINE
8
BLACK
6
CONTINUOUS
10
59.8738
20
-109.074
11
59.8738
21
-108.502
0
LINE
8
BLACK
6
CONTINUOUS
10
59.8738
20
-108.502
11
59.969
21
-108.312
0
LINE
8
BLACK
6
CONTINUOUS
10
59.969
20
-108.312
11
60.0643
21
-108.217
0
LINE
8
BLACK
6
CONTINUOUS
10
60.0643
20
-108.217
11
60.2548
21
-108.121
0
LINE
8
BLACK
6
CONTINUOUS
10
60.2548
20
-108.121
11
60.5405
21
-108.121
0
LINE
8
BLACK
6
CONTINUOUS
10
60.5405
20
-108.121
11
60.731
21
-108.217
0
LINE
8
BLACK
6
CONTINUOUS
10
60.731
20
-108.217
11
60.8262
21
-108.312
0
LINE
8
BLACK
6
CONTINUOUS
10
60.8262
20
-108.312
11
60.9214
21
-108.502
0
LINE
8
BLACK
6
CONTINUOUS
10
60.9214
20
-108.502
11
60.9214
21
-109.074
0
LINE
8
BLACK
6
CONTINUOUS
10
60.9214
20
-109.074
11
60.8262
21
-109.264
0
LINE
8
BLACK
6
CONTINUOUS
10
60.8262
20
-109.264
11
60.731
21
-109.36
0
LINE
8
BLACK
6
CONTINUOUS
10
60.731
20
-109.36
11
60.5405
21
-109.455
0
LINE
8
BLACK
6
CONTINUOUS
10
60.5405
20
-109.455
11
60.2548
21
-109.455
0
LINE
8
BLACK
6
CONTINUOUS
10
62.0643
20
-109.455
11
61.8738
21
-109.36
0
LINE
8
BLACK
6
CONTINUOUS
10
61.8738
20
-109.36
11
61.7786
21
-109.169
0
LINE
8
BLACK
6
CONTINUOUS
10
61.7786
20
-109.169
11
61.7786
21
-107.455
0
LINE
8
BLACK
6
CONTINUOUS
10
63.5881
20
-109.36
11
63.3976
21
-109.455
0
LINE
8
BLACK
6
CONTINUOUS
10
63.3976
20
-109.455
11
63.0167
21
-109.455
0
LINE
8
BLACK
6
CONTINUOUS
10
63.0167
20
-109.455
11
62.8262
21
-109.36
0
LINE
8
BLACK
6
CONTINUOUS
10
62.8262
20
-109.36
11
62.731
21
-109.169
0
LINE
8
BLACK
6
CONTINUOUS
10
62.731
20
-109.169
11
62.731
21
-108.407
0
LINE
8
BLACK
6
CONTINUOUS
10
62.731
20
-108.407
11
62.8262
21
-108.217
0
LINE
8
BLACK
6
CONTINUOUS
10
62.8262
20
-108.217
11
63.0167
21
-108.121
0
LINE
8
BLACK
6
CONTINUOUS
10
63.0167
20
-108.121
11
63.3976
21
-108.121
0
LINE
8
BLACK
6
CONTINUOUS
10
63.3976
20
-108.121
11
63.5881
21
-108.217
0
LINE
8
BLACK
6
CONTINUOUS
10
63.5881
20
-108.217
11
63.6833
21
-108.407
0
LINE
8
BLACK
6
CONTINUOUS
10
63.6833
20
-108.407
11
63.6833
21
-108.598
0
LINE
8
BLACK
6
CONTINUOUS
10
63.6833
20
-108.598
11
62.731
21
-108.788
0
LINE
8
BLACK
6
CONTINUOUS
10
64.35
20
-110.217
11
64.4452
21
-110.121
0
LINE
8
BLACK
6
CONTINUOUS
10
64.4452
20
-110.121
11
64.6357
21
-109.836
0
LINE
8
BLACK
6
CONTINUOUS
10
64.6357
20
-109.836
11
64.731
21
-109.645
0
LINE
8
BLACK
6
CONTINUOUS
10
64.731
20
-109.645
11
64.8262
21
-109.36
0
LINE
8
BLACK
6
CONTINUOUS
10
64.8262
20
-109.36
11
64.9214
21
-108.883
0
LINE
8
BLACK
6
CONTINUOUS
10
64.9214
20
-108.883
11
64.9214
21
-108.502
0
LINE
8
BLACK
6
CONTINUOUS
10
64.9214
20
-108.502
11
64.8262
21
-108.026
0
LINE
8
BLACK
6
CONTINUOUS
10
64.8262
20
-108.026
11
64.731
21
-107.74
0
LINE
8
BLACK
6
CONTINUOUS
10
64.731
20
-107.74
11
64.6357
21
-107.55
0
LINE
8
BLACK
6
CONTINUOUS
10
64.6357
20
-107.55
11
64.4452
21
-107.264
0
LINE
8
BLACK
6
CONTINUOUS
10
64.4452
20
-107.264
11
64.35
21
-107.169
0
CIRCLE
8
BLACK
10
17.8705
20
-111.19
40
0.3795
0
LINE
8
BLACK
6
CONTINUOUS
10
21.2071
20
-110.095
11
21.3976
21
-110.095
0
LINE
8
BLACK
6
CONTINUOUS
10
21.3976
20
-110.095
11
21.5881
21
-110.19
0
LINE
8
BLACK
6
CONTINUOUS
10
21.5881
20
-110.19
11
21.6833
21
-110.285
0
LINE
8
BLACK
6
CONTINUOUS
10
21.6833
20
-110.285
11
21.7786
21
-110.476
0
LINE
8
BLACK
6
CONTINUOUS
10
21.7786
20
-110.476
11
21.8738
21
-110.857
0
LINE
8
BLACK
6
CONTINUOUS
10
21.8738
20
-110.857
11
21.8738
21
-111.333
0
LINE
8
BLACK
6
CONTINUOUS
10
21.8738
20
-111.333
11
21.7786
21
-111.714
0
LINE
8
BLACK
6
CONTINUOUS
10
21.7786
20
-111.714
11
21.6833
21
-111.904
0
LINE
8
BLACK
6
CONTINUOUS
10
21.6833
20
-111.904
11
21.5881
21
-112
0
LINE
8
BLACK
6
CONTINUOUS
10
21.5881
20
-112
11
21.3976
21
-112.095
0
LINE
8
BLACK
6
CONTINUOUS
10
21.3976
20
-112.095
11
21.2071
21
-112.095
0
LINE
8
BLACK
6
CONTINUOUS
10
21.2071
20
-112.095
11
21.0167
21
-112
0
LINE
8
BLACK
6
CONTINUOUS
10
21.0167
20
-112
11
20.9214
21
-111.904
0
LINE
8
BLACK
6
CONTINUOUS
10
20.9214
20
-111.904
11
20.8262
21
-111.714
0
LINE
8
BLACK
6
CONTINUOUS
10
20.8262
20
-111.714
11
20.731
21
-111.333
0
LINE
8
BLACK
6
CONTINUOUS
10
20.731
20
-111.333
11
20.731
21
-110.857
0
LINE
8
BLACK
6
CONTINUOUS
10
20.731
20
-110.857
11
20.8262
21
-110.476
0
LINE
8
BLACK
6
CONTINUOUS
10
20.8262
20
-110.476
11
20.9214
21
-110.285
0
LINE
8
BLACK
6
CONTINUOUS
10
20.9214
20
-110.285
11
21.0167
21
-110.19
0
LINE
8
BLACK
6
CONTINUOUS
10
21.0167
20
-110.19
11
21.2071
21
-110.095
0
LINE
8
BLACK
6
CONTINUOUS
10
22.731
20
-111.904
11
22.8262
21
-112
0
LINE
8
BLACK
6
CONTINUOUS
10
22.8262
20
-112
11
22.731
21
-112.095
0
LINE
8
BLACK
6
CONTINUOUS
10
22.731
20
-112.095
11
22.6357
21
-112
0
LINE
8
BLACK
6
CONTINUOUS
10
22.6357
20
-112
11
22.731
21
-111.904
0
LINE
8
BLACK
6
CONTINUOUS
10
22.731
20
-111.904
11
22.731
21
-112.095
0
LINE
8
BLACK
6
CONTINUOUS
10
23.4929
20
-110.095
11
24.8262
21
-110.095
0
LINE
8
BLACK
6
CONTINUOUS
10
24.8262
20
-110.095
11
23.969
21
-112.095
0
LINE
8
BLACK
6
CONTINUOUS
10
26.5405
20
-110.095
11
25.5881
21
-110.095
0
LINE
8
BLACK
6
CONTINUOUS
10
25.5881
20
-110.095
11
25.4929
21
-111.047
0
LINE
8
BLACK
6
CONTINUOUS
10
25.4929
20
-111.047
11
25.5881
21
-110.952
0
LINE
8
BLACK
6
CONTINUOUS
10
25.5881
20
-110.952
11
25.7786
21
-110.857
0
LINE
8
BLACK
6
CONTINUOUS
10
25.7786
20
-110.857
11
26.2548
21
-110.857
0
LINE
8
BLACK
6
CONTINUOUS
10
26.2548
20
-110.857
11
26.4452
21
-110.952
0
LINE
8
BLACK
6
CONTINUOUS
10
26.4452
20
-110.952
11
26.5405
21
-111.047
0
LINE
8
BLACK
6
CONTINUOUS
10
26.5405
20
-111.047
11
26.6357
21
-111.238
0
LINE
8
BLACK
6
CONTINUOUS
10
26.6357
20
-111.238
11
26.6357
21
-111.714
0
LINE
8
BLACK
6
CONTINUOUS
10
26.6357
20
-111.714
11
26.5405
21
-111.904
0
LINE
8
BLACK
6
CONTINUOUS
10
26.5405
20
-111.904
11
26.4452
21
-112
0
LINE
8
BLACK
6
CONTINUOUS
10
26.4452
20
-112
11
26.2548
21
-112.095
0
LINE
8
BLACK
6
CONTINUOUS
10
26.2548
20
-112.095
11
25.7786
21
-112.095
0
LINE
8
BLACK
6
CONTINUOUS
10
25.7786
20
-112.095
11
25.5881
21
-112
0
LINE
8
BLACK
6
CONTINUOUS
10
25.5881
20
-112
11
25.4929
21
-111.904
0
LINE
8
BLACK
6
CONTINUOUS
10
27.5881
20
-112.095
11
27.969
21
-112.095
0
LINE
8
BLACK
6
CONTINUOUS
10
27.969
20
-112.095
11
28.1595
21
-112
0
LINE
8
BLACK
6
CONTINUOUS
10
28.1595
20
-112
11
28.2548
21
-111.904
0
LINE
8
BLACK
6
CONTINUOUS
10
28.2548
20
-111.904
11
28.4452
21
-111.619
0
LINE
8
BLACK
6
CONTINUOUS
10
28.4452
20
-111.619
11
28.5405
21
-111.238
0
LINE
8
BLACK
6
CONTINUOUS
10
28.5405
20
-111.238
11
28.5405
21
-110.476
0
LINE
8
BLACK
6
CONTINUOUS
10
28.5405
20
-110.476
11
28.4452
21
-110.285
0
LINE
8
BLACK
6
CONTINUOUS
10
28.4452
20
-110.285
11
28.35
21
-110.19
0
LINE
8
BLACK
6
CONTINUOUS
10
28.35
20
-110.19
11
28.1595
21
-110.095
0
LINE
8
BLACK
6
CONTINUOUS
10
28.1595
20
-110.095
11
27.7786
21
-110.095
0
LINE
8
BLACK
6
CONTINUOUS
10
27.7786
20
-110.095
11
27.5881
21
-110.19
0
LINE
8
BLACK
6
CONTINUOUS
10
27.5881
20
-110.19
11
27.4929
21
-110.285
0
LINE
8
BLACK
6
CONTINUOUS
10
27.4929
20
-110.285
11
27.3976
21
-110.476
0
LINE
8
BLACK
6
CONTINUOUS
10
27.3976
20
-110.476
11
27.3976
21
-110.952
0
LINE
8
BLACK
6
CONTINUOUS
10
27.3976
20
-110.952
11
27.4929
21
-111.142
0
LINE
8
BLACK
6
CONTINUOUS
10
27.4929
20
-111.142
11
27.5881
21
-111.238
0
LINE
8
BLACK
6
CONTINUOUS
10
27.5881
20
-111.238
11
27.7786
21
-111.333
0
LINE
8
BLACK
6
CONTINUOUS
10
27.7786
20
-111.333
11
28.1595
21
-111.333
0
LINE
8
BLACK
6
CONTINUOUS
10
28.1595
20
-111.333
11
28.35
21
-111.238
0
LINE
8
BLACK
6
CONTINUOUS
10
28.35
20
-111.238
11
28.4452
21
-111.142
0
LINE
8
BLACK
6
CONTINUOUS
10
28.4452
20
-111.142
11
28.5405
21
-110.952
0
LINE
8
BLACK
6
CONTINUOUS
10
29.3976
20
-112.095
11
29.3976
21
-110.761
0
LINE
8
BLACK
6
CONTINUOUS
10
29.3976
20
-110.952
11
29.4929
21
-110.857
0
LINE
8
BLACK
6
CONTINUOUS
10
29.4929
20
-110.857
11
29.6833
21
-110.761
0
LINE
8
BLACK
6
CONTINUOUS
10
29.6833
20
-110.761
11
29.969
21
-110.761
0
LINE
8
BLACK
6
CONTINUOUS
10
29.969
20
-110.761
11
30.1595
21
-110.857
0
LINE
8
BLACK
6
CONTINUOUS
10
30.1595
20
-110.857
11
30.2548
21
-111.047
0
LINE
8
BLACK
6
CONTINUOUS
10
30.2548
20
-111.047
11
30.2548
21
-112.095
0
LINE
8
BLACK
6
CONTINUOUS
10
30.2548
20
-111.047
11
30.35
21
-110.857
0
LINE
8
BLACK
6
CONTINUOUS
10
30.35
20
-110.857
11
30.5405
21
-110.761
0
LINE
8
BLACK
6
CONTINUOUS
10
30.5405
20
-110.761
11
30.8262
21
-110.761
0
LINE
8
BLACK
6
CONTINUOUS
10
30.8262
20
-110.761
11
31.0167
21
-110.857
0
LINE
8
BLACK
6
CONTINUOUS
10
31.0167
20
-110.857
11
31.1119
21
-111.047
0
LINE
8
BLACK
6
CONTINUOUS
10
31.1119
20
-111.047
11
31.1119
21
-112.095
0
LINE
8
BLACK
6
CONTINUOUS
10
32.0643
20
-112.095
11
32.0643
21
-110.761
0
LINE
8
BLACK
6
CONTINUOUS
10
32.0643
20
-110.952
11
32.1595
21
-110.857
0
LINE
8
BLACK
6
CONTINUOUS
10
32.1595
20
-110.857
11
32.35
21
-110.761
0
LINE
8
BLACK
6
CONTINUOUS
10
32.35
20
-110.761
11
32.6357
21
-110.761
0
LINE
8
BLACK
6
CONTINUOUS
10
32.6357
20
-110.761
11
32.8262
21
-110.857
0
LINE
8
BLACK
6
CONTINUOUS
10
32.8262
20
-110.857
11
32.9214
21
-111.047
0
LINE
8
BLACK
6
CONTINUOUS
10
32.9214
20
-111.047
11
32.9214
21
-112.095
0
LINE
8
BLACK
6
CONTINUOUS
10
32.9214
20
-111.047
11
33.0167
21
-110.857
0
LINE
8
BLACK
6
CONTINUOUS
10
33.0167
20
-110.857
11
33.2071
21
-110.761
0
LINE
8
BLACK
6
CONTINUOUS
10
33.2071
20
-110.761
11
33.4929
21
-110.761
0
LINE
8
BLACK
6
CONTINUOUS
10
33.4929
20
-110.761
11
33.6833
21
-110.857
0
LINE
8
BLACK
6
CONTINUOUS
10
33.6833
20
-110.857
11
33.7786
21
-111.047
0
LINE
8
BLACK
6
CONTINUOUS
10
33.7786
20
-111.047
11
33.7786
21
-112.095
0
LINE
8
BLACK
6
CONTINUOUS
10
37.6833
20
-110
11
35.969
21
-112.571
0
LINE
8
BLACK
6
CONTINUOUS
10
40.2548
20
-110.095
11
40.4452
21
-110.095
0
LINE
8
BLACK
6
CONTINUOUS
10
40.4452
20
-110.095
11
40.6357
21
-110.19
0
LINE
8
BLACK
6
CONTINUOUS
10
40.6357
20
-110.19
11
40.731
21
-110.285
0
LINE
8
BLACK
6
CONTINUOUS
10
40.731
20
-110.285
11
40.8262
21
-110.476
0
LINE
8
BLACK
6
CONTINUOUS
10
40.8262
20
-110.476
11
40.9214
21
-110.857
0
LINE
8
BLACK
6
CONTINUOUS
10
40.9214
20
-110.857
11
40.9214
21
-111.333
0
LINE
8
BLACK
6
CONTINUOUS
10
40.9214
20
-111.333
11
40.8262
21
-111.714
0
LINE
8
BLACK
6
CONTINUOUS
10
40.8262
20
-111.714
11
40.731
21
-111.904
0
LINE
8
BLACK
6
CONTINUOUS
10
40.731
20
-111.904
11
40.6357
21
-112
0
LINE
8
BLACK
6
CONTINUOUS
10
40.6357
20
-112
11
40.4452
21
-112.095
0
LINE
8
BLACK
6
CONTINUOUS
10
40.4452
20
-112.095
11
40.2548
21
-112.095
0
LINE
8
BLACK
6
CONTINUOUS
10
40.2548
20
-112.095
11
40.0643
21
-112
0
LINE
8
BLACK
6
CONTINUOUS
10
40.0643
20
-112
11
39.969
21
-111.904
0
LINE
8
BLACK
6
CONTINUOUS
10
39.969
20
-111.904
11
39.8738
21
-111.714
0
LINE
8
BLACK
6
CONTINUOUS
10
39.8738
20
-111.714
11
39.7786
21
-111.333
0
LINE
8
BLACK
6
CONTINUOUS
10
39.7786
20
-111.333
11
39.7786
21
-110.857
0
LINE
8
BLACK
6
CONTINUOUS
10
39.7786
20
-110.857
11
39.8738
21
-110.476
0
LINE
8
BLACK
6
CONTINUOUS
10
39.8738
20
-110.476
11
39.969
21
-110.285
0
LINE
8
BLACK
6
CONTINUOUS
10
39.969
20
-110.285
11
40.0643
21
-110.19
0
LINE
8
BLACK
6
CONTINUOUS
10
40.0643
20
-110.19
11
40.2548
21
-110.095
0
LINE
8
BLACK
6
CONTINUOUS
10
41.7786
20
-111.904
11
41.8738
21
-112
0
LINE
8
BLACK
6
CONTINUOUS
10
41.8738
20
-112
11
41.7786
21
-112.095
0
LINE
8
BLACK
6
CONTINUOUS
10
41.7786
20
-112.095
11
41.6833
21
-112
0
LINE
8
BLACK
6
CONTINUOUS
10
41.6833
20
-112
11
41.7786
21
-111.904
0
LINE
8
BLACK
6
CONTINUOUS
10
41.7786
20
-111.904
11
41.7786
21
-112.095
0
LINE
8
BLACK
6
CONTINUOUS
10
43.1119
20
-110.095
11
43.3024
21
-110.095
0
LINE
8
BLACK
6
CONTINUOUS
10
43.3024
20
-110.095
11
43.4929
21
-110.19
0
LINE
8
BLACK
6
CONTINUOUS
10
43.4929
20
-110.19
11
43.5881
21
-110.285
0
LINE
8
BLACK
6
CONTINUOUS
10
43.5881
20
-110.285
11
43.6833
21
-110.476
0
LINE
8
BLACK
6
CONTINUOUS
10
43.6833
20
-110.476
11
43.7786
21
-110.857
0
LINE
8
BLACK
6
CONTINUOUS
10
43.7786
20
-110.857
11
43.7786
21
-111.333
0
LINE
8
BLACK
6
CONTINUOUS
10
43.7786
20
-111.333
11
43.6833
21
-111.714
0
LINE
8
BLACK
6
CONTINUOUS
10
43.6833
20
-111.714
11
43.5881
21
-111.904
0
LINE
8
BLACK
6
CONTINUOUS
10
43.5881
20
-111.904
11
43.4929
21
-112
0
LINE
8
BLACK
6
CONTINUOUS
10
43.4929
20
-112
11
43.3024
21
-112.095
0
LINE
8
BLACK
6
CONTINUOUS
10
43.3024
20
-112.095
11
43.1119
21
-112.095
0
LINE
8
BLACK
6
CONTINUOUS
10
43.1119
20
-112.095
11
42.9214
21
-112
0
LINE
8
BLACK
6
CONTINUOUS
10
42.9214
20
-112
11
42.8262
21
-111.904
0
LINE
8
BLACK
6
CONTINUOUS
10
42.8262
20
-111.904
11
42.731
21
-111.714
0
LINE
8
BLACK
6
CONTINUOUS
10
42.731
20
-111.714
11
42.6357
21
-111.333
0
LINE
8
BLACK
6
CONTINUOUS
10
42.6357
20
-111.333
11
42.6357
21
-110.857
0
LINE
8
BLACK
6
CONTINUOUS
10
42.6357
20
-110.857
11
42.731
21
-110.476
0
LINE
8
BLACK
6
CONTINUOUS
10
42.731
20
-110.476
11
42.8262
21
-110.285
0
LINE
8
BLACK
6
CONTINUOUS
10
42.8262
20
-110.285
11
42.9214
21
-110.19
0
LINE
8
BLACK
6
CONTINUOUS
10
42.9214
20
-110.19
11
43.1119
21
-110.095
0
LINE
8
BLACK
6
CONTINUOUS
10
44.5405
20
-110.285
11
44.6357
21
-110.19
0
LINE
8
BLACK
6
CONTINUOUS
10
44.6357
20
-110.19
11
44.8262
21
-110.095
0
LINE
8
BLACK
6
CONTINUOUS
10
44.8262
20
-110.095
11
45.3024
21
-110.095
0
LINE
8
BLACK
6
CONTINUOUS
10
45.3024
20
-110.095
11
45.4929
21
-110.19
0
LINE
8
BLACK
6
CONTINUOUS
10
45.4929
20
-110.19
11
45.5881
21
-110.285
0
LINE
8
BLACK
6
CONTINUOUS
10
45.5881
20
-110.285
11
45.6833
21
-110.476
0
LINE
8
BLACK
6
CONTINUOUS
10
45.6833
20
-110.476
11
45.6833
21
-110.666
0
LINE
8
BLACK
6
CONTINUOUS
10
45.6833
20
-110.666
11
45.5881
21
-110.952
0
LINE
8
BLACK
6
CONTINUOUS
10
45.5881
20
-110.952
11
44.4452
21
-112.095
0
LINE
8
BLACK
6
CONTINUOUS
10
44.4452
20
-112.095
11
45.6833
21
-112.095
0
LINE
8
BLACK
6
CONTINUOUS
10
46.6357
20
-112.095
11
47.0167
21
-112.095
0
LINE
8
BLACK
6
CONTINUOUS
10
47.0167
20
-112.095
11
47.2071
21
-112
0
LINE
8
BLACK
6
CONTINUOUS
10
47.2071
20
-112
11
47.3024
21
-111.904
0
LINE
8
BLACK
6
CONTINUOUS
10
47.3024
20
-111.904
11
47.4929
21
-111.619
0
LINE
8
BLACK
6
CONTINUOUS
10
47.4929
20
-111.619
11
47.5881
21
-111.238
0
LINE
8
BLACK
6
CONTINUOUS
10
47.5881
20
-111.238
11
47.5881
21
-110.476
0
LINE
8
BLACK
6
CONTINUOUS
10
47.5881
20
-110.476
11
47.4929
21
-110.285
0
LINE
8
BLACK
6
CONTINUOUS
10
47.4929
20
-110.285
11
47.3976
21
-110.19
0
LINE
8
BLACK
6
CONTINUOUS
10
47.3976
20
-110.19
11
47.2071
21
-110.095
0
LINE
8
BLACK
6
CONTINUOUS
10
47.2071
20
-110.095
11
46.8262
21
-110.095
0
LINE
8
BLACK
6
CONTINUOUS
10
46.8262
20
-110.095
11
46.6357
21
-110.19
0
LINE
8
BLACK
6
CONTINUOUS
10
46.6357
20
-110.19
11
46.5405
21
-110.285
0
LINE
8
BLACK
6
CONTINUOUS
10
46.5405
20
-110.285
11
46.4452
21
-110.476
0
LINE
8
BLACK
6
CONTINUOUS
10
46.4452
20
-110.476
11
46.4452
21
-110.952
0
LINE
8
BLACK
6
CONTINUOUS
10
46.4452
20
-110.952
11
46.5405
21
-111.142
0
LINE
8
BLACK
6
CONTINUOUS
10
46.5405
20
-111.142
11
46.6357
21
-111.238
0
LINE
8
BLACK
6
CONTINUOUS
10
46.6357
20
-111.238
11
46.8262
21
-111.333
0
LINE
8
BLACK
6
CONTINUOUS
10
46.8262
20
-111.333
11
47.2071
21
-111.333
0
LINE
8
BLACK
6
CONTINUOUS
10
47.2071
20
-111.333
11
47.3976
21
-111.238
0
LINE
8
BLACK
6
CONTINUOUS
10
47.3976
20
-111.238
11
47.4929
21
-111.142
0
LINE
8
BLACK
6
CONTINUOUS
10
47.4929
20
-111.142
11
47.5881
21
-110.952
0
LINE
8
BLACK
6
CONTINUOUS
10
48.5405
20
-112.095
11
48.9214
21
-112.095
0
LINE
8
BLACK
6
CONTINUOUS
10
48.9214
20
-112.095
11
49.1119
21
-112
0
LINE
8
BLACK
6
CONTINUOUS
10
49.1119
20
-112
11
49.2071
21
-111.904
0
LINE
8
BLACK
6
CONTINUOUS
10
49.2071
20
-111.904
11
49.3976
21
-111.619
0
LINE
8
BLACK
6
CONTINUOUS
10
49.3976
20
-111.619
11
49.4929
21
-111.238
0
LINE
8
BLACK
6
CONTINUOUS
10
49.4929
20
-111.238
11
49.4929
21
-110.476
0
LINE
8
BLACK
6
CONTINUOUS
10
49.4929
20
-110.476
11
49.3976
21
-110.285
0
LINE
8
BLACK
6
CONTINUOUS
10
49.3976
20
-110.285
11
49.3024
21
-110.19
0
LINE
8
BLACK
6
CONTINUOUS
10
49.3024
20
-110.19
11
49.1119
21
-110.095
0
LINE
8
BLACK
6
CONTINUOUS
10
49.1119
20
-110.095
11
48.731
21
-110.095
0
LINE
8
BLACK
6
CONTINUOUS
10
48.731
20
-110.095
11
48.5405
21
-110.19
0
LINE
8
BLACK
6
CONTINUOUS
10
48.5405
20
-110.19
11
48.4452
21
-110.285
0
LINE
8
BLACK
6
CONTINUOUS
10
48.4452
20
-110.285
11
48.35
21
-110.476
0
LINE
8
BLACK
6
CONTINUOUS
10
48.35
20
-110.476
11
48.35
21
-110.952
0
LINE
8
BLACK
6
CONTINUOUS
10
48.35
20
-110.952
11
48.4452
21
-111.142
0
LINE
8
BLACK
6
CONTINUOUS
10
48.4452
20
-111.142
11
48.5405
21
-111.238
0
LINE
8
BLACK
6
CONTINUOUS
10
48.5405
20
-111.238
11
48.731
21
-111.333
0
LINE
8
BLACK
6
CONTINUOUS
10
48.731
20
-111.333
11
49.1119
21
-111.333
0
LINE
8
BLACK
6
CONTINUOUS
10
49.1119
20
-111.333
11
49.3024
21
-111.238
0
LINE
8
BLACK
6
CONTINUOUS
10
49.3024
20
-111.238
11
49.3976
21
-111.142
0
LINE
8
BLACK
6
CONTINUOUS
10
49.3976
20
-111.142
11
49.4929
21
-110.952
0
LINE
8
BLACK
6
CONTINUOUS
10
50.2548
20
-110.095
11
50.2548
21
-110.476
0
LINE
8
BLACK
6
CONTINUOUS
10
51.0167
20
-110.095
11
51.0167
21
-110.476
0
LINE
8
BLACK
6
CONTINUOUS
10
53.969
20
-112.857
11
53.8738
21
-112.761
0
LINE
8
BLACK
6
CONTINUOUS
10
53.8738
20
-112.761
11
53.6833
21
-112.476
0
LINE
8
BLACK
6
CONTINUOUS
10
53.6833
20
-112.476
11
53.5881
21
-112.285
0
LINE
8
BLACK
6
CONTINUOUS
10
53.5881
20
-112.285
11
53.4929
21
-112
0
LINE
8
BLACK
6
CONTINUOUS
10
53.4929
20
-112
11
53.3976
21
-111.523
0
LINE
8
BLACK
6
CONTINUOUS
10
53.3976
20
-111.523
11
53.3976
21
-111.142
0
LINE
8
BLACK
6
CONTINUOUS
10
53.3976
20
-111.142
11
53.4929
21
-110.666
0
LINE
8
BLACK
6
CONTINUOUS
10
53.4929
20
-110.666
11
53.5881
21
-110.38
0
LINE
8
BLACK
6
CONTINUOUS
10
53.5881
20
-110.38
11
53.6833
21
-110.19
0
LINE
8
BLACK
6
CONTINUOUS
10
53.6833
20
-110.19
11
53.8738
21
-109.904
0
LINE
8
BLACK
6
CONTINUOUS
10
53.8738
20
-109.904
11
53.969
21
-109.809
0
LINE
8
BLACK
6
CONTINUOUS
10
55.7786
20
-112.095
11
54.6357
21
-112.095
0
LINE
8
BLACK
6
CONTINUOUS
10
55.2071
20
-112.095
11
55.2071
21
-110.095
0
LINE
8
BLACK
6
CONTINUOUS
10
55.2071
20
-110.095
11
55.0167
21
-110.38
0
LINE
8
BLACK
6
CONTINUOUS
10
55.0167
20
-110.38
11
54.8262
21
-110.571
0
LINE
8
BLACK
6
CONTINUOUS
10
54.8262
20
-110.571
11
54.6357
21
-110.666
0
LINE
8
BLACK
6
CONTINUOUS
10
57.4929
20
-110.095
11
57.1119
21
-110.095
0
LINE
8
BLACK
6
CONTINUOUS
10
57.1119
20
-110.095
11
56.9214
21
-110.19
0
LINE
8
BLACK
6
CONTINUOUS
10
56.9214
20
-110.19
11
56.8262
21
-110.285
0
LINE
8
BLACK
6
CONTINUOUS
10
56.8262
20
-110.285
11
56.6357
21
-110.571
0
LINE
8
BLACK
6
CONTINUOUS
10
56.6357
20
-110.571
11
56.5405
21
-110.952
0
LINE
8
BLACK
6
CONTINUOUS
10
56.5405
20
-110.952
11
56.5405
21
-111.714
0
LINE
8
BLACK
6
CONTINUOUS
10
56.5405
20
-111.714
11
56.6357
21
-111.904
0
LINE
8
BLACK
6
CONTINUOUS
10
56.6357
20
-111.904
11
56.731
21
-112
0
LINE
8
BLACK
6
CONTINUOUS
10
56.731
20
-112
11
56.9214
21
-112.095
0
LINE
8
BLACK
6
CONTINUOUS
10
56.9214
20
-112.095
11
57.3024
21
-112.095
0
LINE
8
BLACK
6
CONTINUOUS
10
57.3024
20
-112.095
11
57.4929
21
-112
0
LINE
8
BLACK
6
CONTINUOUS
10
57.4929
20
-112
11
57.5881
21
-111.904
0
LINE
8
BLACK
6
CONTINUOUS
10
57.5881
20
-111.904
11
57.6833
21
-111.714
0
LINE
8
BLACK
6
CONTINUOUS
10
57.6833
20
-111.714
11
57.6833
21
-111.238
0
LINE
8
BLACK
6
CONTINUOUS
10
57.6833
20
-111.238
11
57.5881
21
-111.047
0
LINE
8
BLACK
6
CONTINUOUS
10
57.5881
20
-111.047
11
57.4929
21
-110.952
0
LINE
8
BLACK
6
CONTINUOUS
10
57.4929
20
-110.952
11
57.3024
21
-110.857
0
LINE
8
BLACK
6
CONTINUOUS
10
57.3024
20
-110.857
11
56.9214
21
-110.857
0
LINE
8
BLACK
6
CONTINUOUS
10
56.9214
20
-110.857
11
56.731
21
-110.952
0
LINE
8
BLACK
6
CONTINUOUS
10
56.731
20
-110.952
11
56.6357
21
-111.047
0
LINE
8
BLACK
6
CONTINUOUS
10
56.6357
20
-111.047
11
56.5405
21
-111.238
0
LINE
8
BLACK
6
CONTINUOUS
10
60.0643
20
-112.095
11
60.0643
21
-110.095
0
LINE
8
BLACK
6
CONTINUOUS
10
60.9214
20
-112.095
11
60.9214
21
-111.047
0
LINE
8
BLACK
6
CONTINUOUS
10
60.9214
20
-111.047
11
60.8262
21
-110.857
0
LINE
8
BLACK
6
CONTINUOUS
10
60.8262
20
-110.857
11
60.6357
21
-110.761
0
LINE
8
BLACK
6
CONTINUOUS
10
60.6357
20
-110.761
11
60.35
21
-110.761
0
LINE
8
BLACK
6
CONTINUOUS
10
60.35
20
-110.761
11
60.1595
21
-110.857
0
LINE
8
BLACK
6
CONTINUOUS
10
60.1595
20
-110.857
11
60.0643
21
-110.952
0
LINE
8
BLACK
6
CONTINUOUS
10
62.1595
20
-112.095
11
61.969
21
-112
0
LINE
8
BLACK
6
CONTINUOUS
10
61.969
20
-112
11
61.8738
21
-111.904
0
LINE
8
BLACK
6
CONTINUOUS
10
61.8738
20
-111.904
11
61.7786
21
-111.714
0
LINE
8
BLACK
6
CONTINUOUS
10
61.7786
20
-111.714
11
61.7786
21
-111.142
0
LINE
8
BLACK
6
CONTINUOUS
10
61.7786
20
-111.142
11
61.8738
21
-110.952
0
LINE
8
BLACK
6
CONTINUOUS
10
61.8738
20
-110.952
11
61.969
21
-110.857
0
LINE
8
BLACK
6
CONTINUOUS
10
61.969
20
-110.857
11
62.1595
21
-110.761
0
LINE
8
BLACK
6
CONTINUOUS
10
62.1595
20
-110.761
11
62.4452
21
-110.761
0
LINE
8
BLACK
6
CONTINUOUS
10
62.4452
20
-110.761
11
62.6357
21
-110.857
0
LINE
8
BLACK
6
CONTINUOUS
10
62.6357
20
-110.857
11
62.731
21
-110.952
0
LINE
8
BLACK
6
CONTINUOUS
10
62.731
20
-110.952
11
62.8262
21
-111.142
0
LINE
8
BLACK
6
CONTINUOUS
10
62.8262
20
-111.142
11
62.8262
21
-111.714
0
LINE
8
BLACK
6
CONTINUOUS
10
62.8262
20
-111.714
11
62.731
21
-111.904
0
LINE
8
BLACK
6
CONTINUOUS
10
62.731
20
-111.904
11
62.6357
21
-112
0
LINE
8
BLACK
6
CONTINUOUS
10
62.6357
20
-112
11
62.4452
21
-112.095
0
LINE
8
BLACK
6
CONTINUOUS
10
62.4452
20
-112.095
11
62.1595
21
-112.095
0
LINE
8
BLACK
6
CONTINUOUS
10
63.969
20
-112.095
11
63.7786
21
-112
0
LINE
8
BLACK
6
CONTINUOUS
10
63.7786
20
-112
11
63.6833
21
-111.809
0
LINE
8
BLACK
6
CONTINUOUS
10
63.6833
20
-111.809
11
63.6833
21
-110.095
0
LINE
8
BLACK
6
CONTINUOUS
10
65.4929
20
-112
11
65.3024
21
-112.095
0
LINE
8
BLACK
6
CONTINUOUS
10
65.3024
20
-112.095
11
64.9214
21
-112.095
0
LINE
8
BLACK
6
CONTINUOUS
10
64.9214
20
-112.095
11
64.731
21
-112
0
LINE
8
BLACK
6
CONTINUOUS
10
64.731
20
-112
11
64.6357
21
-111.809
0
LINE
8
BLACK
6
CONTINUOUS
10
64.6357
20
-111.809
11
64.6357
21
-111.047
0
LINE
8
BLACK
6
CONTINUOUS
10
64.6357
20
-111.047
11
64.731
21
-110.857
0
LINE
8
BLACK
6
CONTINUOUS
10
64.731
20
-110.857
11
64.9214
21
-110.761
0
LINE
8
BLACK
6
CONTINUOUS
10
64.9214
20
-110.761
11
65.3024
21
-110.761
0
LINE
8
BLACK
6
CONTINUOUS
10
65.3024
20
-110.761
11
65.4929
21
-110.857
0
LINE
8
BLACK
6
CONTINUOUS
10
65.4929
20
-110.857
11
65.5881
21
-111.047
0
LINE
8
BLACK
6
CONTINUOUS
10
65.5881
20
-111.047
11
65.5881
21
-111.238
0
LINE
8
BLACK
6
CONTINUOUS
10
65.5881
20
-111.238
11
64.6357
21
-111.428
0
LINE
8
BLACK
6
CONTINUOUS
10
66.35
20
-112
11
66.5405
21
-112.095
0
LINE
8
BLACK
6
CONTINUOUS
10
66.5405
20
-112.095
11
66.9214
21
-112.095
0
LINE
8
BLACK
6
CONTINUOUS
10
66.9214
20
-112.095
11
67.1119
21
-112
0
LINE
8
BLACK
6
CONTINUOUS
10
67.1119
20
-112
11
67.2071
21
-111.809
0
LINE
8
BLACK
6
CONTINUOUS
10
67.2071
20
-111.809
11
67.2071
21
-111.714
0
LINE
8
BLACK
6
CONTINUOUS
10
67.2071
20
-111.714
11
67.1119
21
-111.523
0
LINE
8
BLACK
6
CONTINUOUS
10
67.1119
20
-111.523
11
66.9214
21
-111.428
0
LINE
8
BLACK
6
CONTINUOUS
10
66.9214
20
-111.428
11
66.6357
21
-111.428
0
LINE
8
BLACK
6
CONTINUOUS
10
66.6357
20
-111.428
11
66.4452
21
-111.333
0
LINE
8
BLACK
6
CONTINUOUS
10
66.4452
20
-111.333
11
66.35
21
-111.142
0
LINE
8
BLACK
6
CONTINUOUS
10
66.35
20
-111.142
11
66.35
21
-111.047
0
LINE
8
BLACK
6
CONTINUOUS
10
66.35
20
-111.047
11
66.4452
21
-110.857
0
LINE
8
BLACK
6
CONTINUOUS
10
66.4452
20
-110.857
11
66.6357
21
-110.761
0
LINE
8
BLACK
6
CONTINUOUS
10
66.6357
20
-110.761
11
66.9214
21
-110.761
0
LINE
8
BLACK
6
CONTINUOUS
10
66.9214
20
-110.761
11
67.1119
21
-110.857
0
LINE
8
BLACK
6
CONTINUOUS
10
67.8738
20
-112.857
11
67.969
21
-112.761
0
LINE
8
BLACK
6
CONTINUOUS
10
67.969
20
-112.761
11
68.1595
21
-112.476
0
LINE
8
BLACK
6
CONTINUOUS
10
68.1595
20
-112.476
11
68.2548
21
-112.285
0
LINE
8
BLACK
6
CONTINUOUS
10
68.2548
20
-112.285
11
68.35
21
-112
0
LINE
8
BLACK
6
CONTINUOUS
10
68.35
20
-112
11
68.4452
21
-111.523
0
LINE
8
BLACK
6
CONTINUOUS
10
68.4452
20
-111.523
11
68.4452
21
-111.142
0
LINE
8
BLACK
6
CONTINUOUS
10
68.4452
20
-111.142
11
68.35
21
-110.666
0
LINE
8
BLACK
6
CONTINUOUS
10
68.35
20
-110.666
11
68.2548
21
-110.38
0
LINE
8
BLACK
6
CONTINUOUS
10
68.2548
20
-110.38
11
68.1595
21
-110.19
0
LINE
8
BLACK
6
CONTINUOUS
10
68.1595
20
-110.19
11
67.969
21
-109.904
0
LINE
8
BLACK
6
CONTINUOUS
10
67.969
20
-109.904
11
67.8738
21
-109.809
0
LINE
8
BLACK
6
CONTINUOUS
10
17.75
20
-113.33
11
17.75
21
-114.33
0
LINE
8
BLACK
6
CONTINUOUS
10
17.25
20
-113.83
11
18.25
21
-113.83
0
LINE
8
BLACK
6
CONTINUOUS
10
21.8738
20
-114.735
11
20.731
21
-114.735
0
LINE
8
BLACK
6
CONTINUOUS
10
21.3024
20
-114.735
11
21.3024
21
-112.735
0
LINE
8
BLACK
6
CONTINUOUS
10
21.3024
20
-112.735
11
21.1119
21
-113.02
0
LINE
8
BLACK
6
CONTINUOUS
10
21.1119
20
-113.02
11
20.9214
21
-113.211
0
LINE
8
BLACK
6
CONTINUOUS
10
20.9214
20
-113.211
11
20.731
21
-113.306
0
LINE
8
BLACK
6
CONTINUOUS
10
22.731
20
-114.544
11
22.8262
21
-114.64
0
LINE
8
BLACK
6
CONTINUOUS
10
22.8262
20
-114.64
11
22.731
21
-114.735
0
LINE
8
BLACK
6
CONTINUOUS
10
22.731
20
-114.735
11
22.6357
21
-114.64
0
LINE
8
BLACK
6
CONTINUOUS
10
22.6357
20
-114.64
11
22.731
21
-114.544
0
LINE
8
BLACK
6
CONTINUOUS
10
22.731
20
-114.544
11
22.731
21
-114.735
0
LINE
8
BLACK
6
CONTINUOUS
10
24.0643
20
-112.735
11
24.2548
21
-112.735
0
LINE
8
BLACK
6
CONTINUOUS
10
24.2548
20
-112.735
11
24.4452
21
-112.83
0
LINE
8
BLACK
6
CONTINUOUS
10
24.4452
20
-112.83
11
24.5405
21
-112.925
0
LINE
8
BLACK
6
CONTINUOUS
10
24.5405
20
-112.925
11
24.6357
21
-113.116
0
LINE
8
BLACK
6
CONTINUOUS
10
24.6357
20
-113.116
11
24.731
21
-113.497
0
LINE
8
BLACK
6
CONTINUOUS
10
24.731
20
-113.497
11
24.731
21
-113.973
0
LINE
8
BLACK
6
CONTINUOUS
10
24.731
20
-113.973
11
24.6357
21
-114.354
0
LINE
8
BLACK
6
CONTINUOUS
10
24.6357
20
-114.354
11
24.5405
21
-114.544
0
LINE
8
BLACK
6
CONTINUOUS
10
24.5405
20
-114.544
11
24.4452
21
-114.64
0
LINE
8
BLACK
6
CONTINUOUS
10
24.4452
20
-114.64
11
24.2548
21
-114.735
0
LINE
8
BLACK
6
CONTINUOUS
10
24.2548
20
-114.735
11
24.0643
21
-114.735
0
LINE
8
BLACK
6
CONTINUOUS
10
24.0643
20
-114.735
11
23.8738
21
-114.64
0
LINE
8
BLACK
6
CONTINUOUS
10
23.8738
20
-114.64
11
23.7786
21
-114.544
0
LINE
8
BLACK
6
CONTINUOUS
10
23.7786
20
-114.544
11
23.6833
21
-114.354
0
LINE
8
BLACK
6
CONTINUOUS
10
23.6833
20
-114.354
11
23.5881
21
-113.973
0
LINE
8
BLACK
6
CONTINUOUS
10
23.5881
20
-113.973
11
23.5881
21
-113.497
0
LINE
8
BLACK
6
CONTINUOUS
10
23.5881
20
-113.497
11
23.6833
21
-113.116
0
LINE
8
BLACK
6
CONTINUOUS
10
23.6833
20
-113.116
11
23.7786
21
-112.925
0
LINE
8
BLACK
6
CONTINUOUS
10
23.7786
20
-112.925
11
23.8738
21
-112.83
0
LINE
8
BLACK
6
CONTINUOUS
10
23.8738
20
-112.83
11
24.0643
21
-112.735
0
LINE
8
BLACK
6
CONTINUOUS
10
25.969
20
-112.735
11
26.1595
21
-112.735
0
LINE
8
BLACK
6
CONTINUOUS
10
26.1595
20
-112.735
11
26.35
21
-112.83
0
LINE
8
BLACK
6
CONTINUOUS
10
26.35
20
-112.83
11
26.4452
21
-112.925
0
LINE
8
BLACK
6
CONTINUOUS
10
26.4452
20
-112.925
11
26.5405
21
-113.116
0
LINE
8
BLACK
6
CONTINUOUS
10
26.5405
20
-113.116
11
26.6357
21
-113.497
0
LINE
8
BLACK
6
CONTINUOUS
10
26.6357
20
-113.497
11
26.6357
21
-113.973
0
LINE
8
BLACK
6
CONTINUOUS
10
26.6357
20
-113.973
11
26.5405
21
-114.354
0
LINE
8
BLACK
6
CONTINUOUS
10
26.5405
20
-114.354
11
26.4452
21
-114.544
0
LINE
8
BLACK
6
CONTINUOUS
10
26.4452
20
-114.544
11
26.35
21
-114.64
0
LINE
8
BLACK
6
CONTINUOUS
10
26.35
20
-114.64
11
26.1595
21
-114.735
0
LINE
8
BLACK
6
CONTINUOUS
10
26.1595
20
-114.735
11
25.969
21
-114.735
0
LINE
8
BLACK
6
CONTINUOUS
10
25.969
20
-114.735
11
25.7786
21
-114.64
0
LINE
8
BLACK
6
CONTINUOUS
10
25.7786
20
-114.64
11
25.6833
21
-114.544
0
LINE
8
BLACK
6
CONTINUOUS
10
25.6833
20
-114.544
11
25.5881
21
-114.354
0
LINE
8
BLACK
6
CONTINUOUS
10
25.5881
20
-114.354
11
25.4929
21
-113.973
0
LINE
8
BLACK
6
CONTINUOUS
10
25.4929
20
-113.973
11
25.4929
21
-113.497
0
LINE
8
BLACK
6
CONTINUOUS
10
25.4929
20
-113.497
11
25.5881
21
-113.116
0
LINE
8
BLACK
6
CONTINUOUS
10
25.5881
20
-113.116
11
25.6833
21
-112.925
0
LINE
8
BLACK
6
CONTINUOUS
10
25.6833
20
-112.925
11
25.7786
21
-112.83
0
LINE
8
BLACK
6
CONTINUOUS
10
25.7786
20
-112.83
11
25.969
21
-112.735
0
LINE
8
BLACK
6
CONTINUOUS
10
27.8738
20
-112.735
11
28.0643
21
-112.735
0
LINE
8
BLACK
6
CONTINUOUS
10
28.0643
20
-112.735
11
28.2548
21
-112.83
0
LINE
8
BLACK
6
CONTINUOUS
10
28.2548
20
-112.83
11
28.35
21
-112.925
0
LINE
8
BLACK
6
CONTINUOUS
10
28.35
20
-112.925
11
28.4452
21
-113.116
0
LINE
8
BLACK
6
CONTINUOUS
10
28.4452
20
-113.116
11
28.5405
21
-113.497
0
LINE
8
BLACK
6
CONTINUOUS
10
28.5405
20
-113.497
11
28.5405
21
-113.973
0
LINE
8
BLACK
6
CONTINUOUS
10
28.5405
20
-113.973
11
28.4452
21
-114.354
0
LINE
8
BLACK
6
CONTINUOUS
10
28.4452
20
-114.354
11
28.35
21
-114.544
0
LINE
8
BLACK
6
CONTINUOUS
10
28.35
20
-114.544
11
28.2548
21
-114.64
0
LINE
8
BLACK
6
CONTINUOUS
10
28.2548
20
-114.64
11
28.0643
21
-114.735
0
LINE
8
BLACK
6
CONTINUOUS
10
28.0643
20
-114.735
11
27.8738
21
-114.735
0
LINE
8
BLACK
6
CONTINUOUS
10
27.8738
20
-114.735
11
27.6833
21
-114.64
0
LINE
8
BLACK
6
CONTINUOUS
10
27.6833
20
-114.64
11
27.5881
21
-114.544
0
LINE
8
BLACK
6
CONTINUOUS
10
27.5881
20
-114.544
11
27.4929
21
-114.354
0
LINE
8
BLACK
6
CONTINUOUS
10
27.4929
20
-114.354
11
27.3976
21
-113.973
0
LINE
8
BLACK
6
CONTINUOUS
10
27.3976
20
-113.973
11
27.3976
21
-113.497
0
LINE
8
BLACK
6
CONTINUOUS
10
27.3976
20
-113.497
11
27.4929
21
-113.116
0
LINE
8
BLACK
6
CONTINUOUS
10
27.4929
20
-113.116
11
27.5881
21
-112.925
0
LINE
8
BLACK
6
CONTINUOUS
10
27.5881
20
-112.925
11
27.6833
21
-112.83
0
LINE
8
BLACK
6
CONTINUOUS
10
27.6833
20
-112.83
11
27.8738
21
-112.735
0
LINE
8
BLACK
6
CONTINUOUS
10
29.3976
20
-114.735
11
29.3976
21
-113.401
0
LINE
8
BLACK
6
CONTINUOUS
10
29.3976
20
-113.592
11
29.4929
21
-113.497
0
LINE
8
BLACK
6
CONTINUOUS
10
29.4929
20
-113.497
11
29.6833
21
-113.401
0
LINE
8
BLACK
6
CONTINUOUS
10
29.6833
20
-113.401
11
29.969
21
-113.401
0
LINE
8
BLACK
6
CONTINUOUS
10
29.969
20
-113.401
11
30.1595
21
-113.497
0
LINE
8
BLACK
6
CONTINUOUS
10
30.1595
20
-113.497
11
30.2548
21
-113.687
0
LINE
8
BLACK
6
CONTINUOUS
10
30.2548
20
-113.687
11
30.2548
21
-114.735
0
LINE
8
BLACK
6
CONTINUOUS
10
30.2548
20
-113.687
11
30.35
21
-113.497
0
LINE
8
BLACK
6
CONTINUOUS
10
30.35
20
-113.497
11
30.5405
21
-113.401
0
LINE
8
BLACK
6
CONTINUOUS
10
30.5405
20
-113.401
11
30.8262
21
-113.401
0
LINE
8
BLACK
6
CONTINUOUS
10
30.8262
20
-113.401
11
31.0167
21
-113.497
0
LINE
8
BLACK
6
CONTINUOUS
10
31.0167
20
-113.497
11
31.1119
21
-113.687
0
LINE
8
BLACK
6
CONTINUOUS
10
31.1119
20
-113.687
11
31.1119
21
-114.735
0
LINE
8
BLACK
6
CONTINUOUS
10
32.0643
20
-114.735
11
32.0643
21
-113.401
0
LINE
8
BLACK
6
CONTINUOUS
10
32.0643
20
-113.592
11
32.1595
21
-113.497
0
LINE
8
BLACK
6
CONTINUOUS
10
32.1595
20
-113.497
11
32.35
21
-113.401
0
LINE
8
BLACK
6
CONTINUOUS
10
32.35
20
-113.401
11
32.6357
21
-113.401
0
LINE
8
BLACK
6
CONTINUOUS
10
32.6357
20
-113.401
11
32.8262
21
-113.497
0
LINE
8
BLACK
6
CONTINUOUS
10
32.8262
20
-113.497
11
32.9214
21
-113.687
0
LINE
8
BLACK
6
CONTINUOUS
10
32.9214
20
-113.687
11
32.9214
21
-114.735
0
LINE
8
BLACK
6
CONTINUOUS
10
32.9214
20
-113.687
11
33.0167
21
-113.497
0
LINE
8
BLACK
6
CONTINUOUS
10
33.0167
20
-113.497
11
33.2071
21
-113.401
0
LINE
8
BLACK
6
CONTINUOUS
10
33.2071
20
-113.401
11
33.4929
21
-113.401
0
LINE
8
BLACK
6
CONTINUOUS
10
33.4929
20
-113.401
11
33.6833
21
-113.497
0
LINE
8
BLACK
6
CONTINUOUS
10
33.6833
20
-113.497
11
33.7786
21
-113.687
0
LINE
8
BLACK
6
CONTINUOUS
10
33.7786
20
-113.687
11
33.7786
21
-114.735
0
LINE
8
BLACK
6
CONTINUOUS
10
37.6833
20
-112.64
11
35.969
21
-115.211
0
LINE
8
BLACK
6
CONTINUOUS
10
40.2548
20
-112.735
11
40.4452
21
-112.735
0
LINE
8
BLACK
6
CONTINUOUS
10
40.4452
20
-112.735
11
40.6357
21
-112.83
0
LINE
8
BLACK
6
CONTINUOUS
10
40.6357
20
-112.83
11
40.731
21
-112.925
0
LINE
8
BLACK
6
CONTINUOUS
10
40.731
20
-112.925
11
40.8262
21
-113.116
0
LINE
8
BLACK
6
CONTINUOUS
10
40.8262
20
-113.116
11
40.9214
21
-113.497
0
LINE
8
BLACK
6
CONTINUOUS
10
40.9214
20
-113.497
11
40.9214
21
-113.973
0
LINE
8
BLACK
6
CONTINUOUS
10
40.9214
20
-113.973
11
40.8262
21
-114.354
0
LINE
8
BLACK
6
CONTINUOUS
10
40.8262
20
-114.354
11
40.731
21
-114.544
0
LINE
8
BLACK
6
CONTINUOUS
10
40.731
20
-114.544
11
40.6357
21
-114.64
0
LINE
8
BLACK
6
CONTINUOUS
10
40.6357
20
-114.64
11
40.4452
21
-114.735
0
LINE
8
BLACK
6
CONTINUOUS
10
40.4452
20
-114.735
11
40.2548
21
-114.735
0
LINE
8
BLACK
6
CONTINUOUS
10
40.2548
20
-114.735
11
40.0643
21
-114.64
0
LINE
8
BLACK
6
CONTINUOUS
10
40.0643
20
-114.64
11
39.969
21
-114.544
0
LINE
8
BLACK
6
CONTINUOUS
10
39.969
20
-114.544
11
39.8738
21
-114.354
0
LINE
8
BLACK
6
CONTINUOUS
10
39.8738
20
-114.354
11
39.7786
21
-113.973
0
LINE
8
BLACK
6
CONTINUOUS
10
39.7786
20
-113.973
11
39.7786
21
-113.497
0
LINE
8
BLACK
6
CONTINUOUS
10
39.7786
20
-113.497
11
39.8738
21
-113.116
0
LINE
8
BLACK
6
CONTINUOUS
10
39.8738
20
-113.116
11
39.969
21
-112.925
0
LINE
8
BLACK
6
CONTINUOUS
10
39.969
20
-112.925
11
40.0643
21
-112.83
0
LINE
8
BLACK
6
CONTINUOUS
10
40.0643
20
-112.83
11
40.2548
21
-112.735
0
LINE
8
BLACK
6
CONTINUOUS
10
41.7786
20
-114.544
11
41.8738
21
-114.64
0
LINE
8
BLACK
6
CONTINUOUS
10
41.8738
20
-114.64
11
41.7786
21
-114.735
0
LINE
8
BLACK
6
CONTINUOUS
10
41.7786
20
-114.735
11
41.6833
21
-114.64
0
LINE
8
BLACK
6
CONTINUOUS
10
41.6833
20
-114.64
11
41.7786
21
-114.544
0
LINE
8
BLACK
6
CONTINUOUS
10
41.7786
20
-114.544
11
41.7786
21
-114.735
0
LINE
8
BLACK
6
CONTINUOUS
10
43.1119
20
-112.735
11
43.3024
21
-112.735
0
LINE
8
BLACK
6
CONTINUOUS
10
43.3024
20
-112.735
11
43.4929
21
-112.83
0
LINE
8
BLACK
6
CONTINUOUS
10
43.4929
20
-112.83
11
43.5881
21
-112.925
0
LINE
8
BLACK
6
CONTINUOUS
10
43.5881
20
-112.925
11
43.6833
21
-113.116
0
LINE
8
BLACK
6
CONTINUOUS
10
43.6833
20
-113.116
11
43.7786
21
-113.497
0
LINE
8
BLACK
6
CONTINUOUS
10
43.7786
20
-113.497
11
43.7786
21
-113.973
0
LINE
8
BLACK
6
CONTINUOUS
10
43.7786
20
-113.973
11
43.6833
21
-114.354
0
LINE
8
BLACK
6
CONTINUOUS
10
43.6833
20
-114.354
11
43.5881
21
-114.544
0
LINE
8
BLACK
6
CONTINUOUS
10
43.5881
20
-114.544
11
43.4929
21
-114.64
0
LINE
8
BLACK
6
CONTINUOUS
10
43.4929
20
-114.64
11
43.3024
21
-114.735
0
LINE
8
BLACK
6
CONTINUOUS
10
43.3024
20
-114.735
11
43.1119
21
-114.735
0
LINE
8
BLACK
6
CONTINUOUS
10
43.1119
20
-114.735
11
42.9214
21
-114.64
0
LINE
8
BLACK
6
CONTINUOUS
10
42.9214
20
-114.64
11
42.8262
21
-114.544
0
LINE
8
BLACK
6
CONTINUOUS
10
42.8262
20
-114.544
11
42.731
21
-114.354
0
LINE
8
BLACK
6
CONTINUOUS
10
42.731
20
-114.354
11
42.6357
21
-113.973
0
LINE
8
BLACK
6
CONTINUOUS
10
42.6357
20
-113.973
11
42.6357
21
-113.497
0
LINE
8
BLACK
6
CONTINUOUS
10
42.6357
20
-113.497
11
42.731
21
-113.116
0
LINE
8
BLACK
6
CONTINUOUS
10
42.731
20
-113.116
11
42.8262
21
-112.925
0
LINE
8
BLACK
6
CONTINUOUS
10
42.8262
20
-112.925
11
42.9214
21
-112.83
0
LINE
8
BLACK
6
CONTINUOUS
10
42.9214
20
-112.83
11
43.1119
21
-112.735
0
LINE
8
BLACK
6
CONTINUOUS
10
44.4452
20
-112.735
11
45.6833
21
-112.735
0
LINE
8
BLACK
6
CONTINUOUS
10
45.6833
20
-112.735
11
45.0167
21
-113.497
0
LINE
8
BLACK
6
CONTINUOUS
10
45.0167
20
-113.497
11
45.3024
21
-113.497
0
LINE
8
BLACK
6
CONTINUOUS
10
45.3024
20
-113.497
11
45.4929
21
-113.592
0
LINE
8
BLACK
6
CONTINUOUS
10
45.4929
20
-113.592
11
45.5881
21
-113.687
0
LINE
8
BLACK
6
CONTINUOUS
10
45.5881
20
-113.687
11
45.6833
21
-113.878
0
LINE
8
BLACK
6
CONTINUOUS
10
45.6833
20
-113.878
11
45.6833
21
-114.354
0
LINE
8
BLACK
6
CONTINUOUS
10
45.6833
20
-114.354
11
45.5881
21
-114.544
0
LINE
8
BLACK
6
CONTINUOUS
10
45.5881
20
-114.544
11
45.4929
21
-114.64
0
LINE
8
BLACK
6
CONTINUOUS
10
45.4929
20
-114.64
11
45.3024
21
-114.735
0
LINE
8
BLACK
6
CONTINUOUS
10
45.3024
20
-114.735
11
44.731
21
-114.735
0
LINE
8
BLACK
6
CONTINUOUS
10
44.731
20
-114.735
11
44.5405
21
-114.64
0
LINE
8
BLACK
6
CONTINUOUS
10
44.5405
20
-114.64
11
44.4452
21
-114.544
0
LINE
8
BLACK
6
CONTINUOUS
10
46.6357
20
-114.735
11
47.0167
21
-114.735
0
LINE
8
BLACK
6
CONTINUOUS
10
47.0167
20
-114.735
11
47.2071
21
-114.64
0
LINE
8
BLACK
6
CONTINUOUS
10
47.2071
20
-114.64
11
47.3024
21
-114.544
0
LINE
8
BLACK
6
CONTINUOUS
10
47.3024
20
-114.544
11
47.4929
21
-114.259
0
LINE
8
BLACK
6
CONTINUOUS
10
47.4929
20
-114.259
11
47.5881
21
-113.878
0
LINE
8
BLACK
6
CONTINUOUS
10
47.5881
20
-113.878
11
47.5881
21
-113.116
0
LINE
8
BLACK
6
CONTINUOUS
10
47.5881
20
-113.116
11
47.4929
21
-112.925
0
LINE
8
BLACK
6
CONTINUOUS
10
47.4929
20
-112.925
11
47.3976
21
-112.83
0
LINE
8
BLACK
6
CONTINUOUS
10
47.3976
20
-112.83
11
47.2071
21
-112.735
0
LINE
8
BLACK
6
CONTINUOUS
10
47.2071
20
-112.735
11
46.8262
21
-112.735
0
LINE
8
BLACK
6
CONTINUOUS
10
46.8262
20
-112.735
11
46.6357
21
-112.83
0
LINE
8
BLACK
6
CONTINUOUS
10
46.6357
20
-112.83
11
46.5405
21
-112.925
0
LINE
8
BLACK
6
CONTINUOUS
10
46.5405
20
-112.925
11
46.4452
21
-113.116
0
LINE
8
BLACK
6
CONTINUOUS
10
46.4452
20
-113.116
11
46.4452
21
-113.592
0
LINE
8
BLACK
6
CONTINUOUS
10
46.4452
20
-113.592
11
46.5405
21
-113.782
0
LINE
8
BLACK
6
CONTINUOUS
10
46.5405
20
-113.782
11
46.6357
21
-113.878
0
LINE
8
BLACK
6
CONTINUOUS
10
46.6357
20
-113.878
11
46.8262
21
-113.973
0
LINE
8
BLACK
6
CONTINUOUS
10
46.8262
20
-113.973
11
47.2071
21
-113.973
0
LINE
8
BLACK
6
CONTINUOUS
10
47.2071
20
-113.973
11
47.3976
21
-113.878
0
LINE
8
BLACK
6
CONTINUOUS
10
47.3976
20
-113.878
11
47.4929
21
-113.782
0
LINE
8
BLACK
6
CONTINUOUS
10
47.4929
20
-113.782
11
47.5881
21
-113.592
0
LINE
8
BLACK
6
CONTINUOUS
10
49.3024
20
-113.401
11
49.3024
21
-114.735
0
LINE
8
BLACK
6
CONTINUOUS
10
48.8262
20
-112.64
11
48.35
21
-114.068
0
LINE
8
BLACK
6
CONTINUOUS
10
48.35
20
-114.068
11
49.5881
21
-114.068
0
LINE
8
BLACK
6
CONTINUOUS
10
50.2548
20
-112.735
11
50.2548
21
-113.116
0
LINE
8
BLACK
6
CONTINUOUS
10
51.0167
20
-112.735
11
51.0167
21
-113.116
0
LINE
8
BLACK
6
CONTINUOUS
10
53.969
20
-115.497
11
53.8738
21
-115.401
0
LINE
8
BLACK
6
CONTINUOUS
10
53.8738
20
-115.401
11
53.6833
21
-115.116
0
LINE
8
BLACK
6
CONTINUOUS
10
53.6833
20
-115.116
11
53.5881
21
-114.925
0
LINE
8
BLACK
6
CONTINUOUS
10
53.5881
20
-114.925
11
53.4929
21
-114.64
0
LINE
8
BLACK
6
CONTINUOUS
10
53.4929
20
-114.64
11
53.3976
21
-114.163
0
LINE
8
BLACK
6
CONTINUOUS
10
53.3976
20
-114.163
11
53.3976
21
-113.782
0
LINE
8
BLACK
6
CONTINUOUS
10
53.3976
20
-113.782
11
53.4929
21
-113.306
0
LINE
8
BLACK
6
CONTINUOUS
10
53.4929
20
-113.306
11
53.5881
21
-113.02
0
LINE
8
BLACK
6
CONTINUOUS
10
53.5881
20
-113.02
11
53.6833
21
-112.83
0
LINE
8
BLACK
6
CONTINUOUS
10
53.6833
20
-112.83
11
53.8738
21
-112.544
0
LINE
8
BLACK
6
CONTINUOUS
10
53.8738
20
-112.544
11
53.969
21
-112.449
0
LINE
8
BLACK
6
CONTINUOUS
10
55.6833
20
-112.735
11
54.731
21
-112.735
0
LINE
8
BLACK
6
CONTINUOUS
10
54.731
20
-112.735
11
54.6357
21
-113.687
0
LINE
8
BLACK
6
CONTINUOUS
10
54.6357
20
-113.687
11
54.731
21
-113.592
0
LINE
8
BLACK
6
CONTINUOUS
10
54.731
20
-113.592
11
54.9214
21
-113.497
0
LINE
8
BLACK
6
CONTINUOUS
10
54.9214
20
-113.497
11
55.3976
21
-113.497
0
LINE
8
BLACK
6
CONTINUOUS
10
55.3976
20
-113.497
11
55.5881
21
-113.592
0
LINE
8
BLACK
6
CONTINUOUS
10
55.5881
20
-113.592
11
55.6833
21
-113.687
0
LINE
8
BLACK
6
CONTINUOUS
10
55.6833
20
-113.687
11
55.7786
21
-113.878
0
LINE
8
BLACK
6
CONTINUOUS
10
55.7786
20
-113.878
11
55.7786
21
-114.354
0
LINE
8
BLACK
6
CONTINUOUS
10
55.7786
20
-114.354
11
55.6833
21
-114.544
0
LINE
8
BLACK
6
CONTINUOUS
10
55.6833
20
-114.544
11
55.5881
21
-114.64
0
LINE
8
BLACK
6
CONTINUOUS
10
55.5881
20
-114.64
11
55.3976
21
-114.735
0
LINE
8
BLACK
6
CONTINUOUS
10
55.3976
20
-114.735
11
54.9214
21
-114.735
0
LINE
8
BLACK
6
CONTINUOUS
10
54.9214
20
-114.735
11
54.731
21
-114.64
0
LINE
8
BLACK
6
CONTINUOUS
10
54.731
20
-114.64
11
54.6357
21
-114.544
0
LINE
8
BLACK
6
CONTINUOUS
10
57.4929
20
-113.401
11
57.4929
21
-114.735
0
LINE
8
BLACK
6
CONTINUOUS
10
57.0167
20
-112.64
11
56.5405
21
-114.068
0
LINE
8
BLACK
6
CONTINUOUS
10
56.5405
20
-114.068
11
57.7786
21
-114.068
0
LINE
8
BLACK
6
CONTINUOUS
10
60.0643
20
-114.735
11
60.0643
21
-112.735
0
LINE
8
BLACK
6
CONTINUOUS
10
60.9214
20
-114.735
11
60.9214
21
-113.687
0
LINE
8
BLACK
6
CONTINUOUS
10
60.9214
20
-113.687
11
60.8262
21
-113.497
0
LINE
8
BLACK
6
CONTINUOUS
10
60.8262
20
-113.497
11
60.6357
21
-113.401
0
LINE
8
BLACK
6
CONTINUOUS
10
60.6357
20
-113.401
11
60.35
21
-113.401
0
LINE
8
BLACK
6
CONTINUOUS
10
60.35
20
-113.401
11
60.1595
21
-113.497
0
LINE
8
BLACK
6
CONTINUOUS
10
60.1595
20
-113.497
11
60.0643
21
-113.592
0
LINE
8
BLACK
6
CONTINUOUS
10
62.1595
20
-114.735
11
61.969
21
-114.64
0
LINE
8
BLACK
6
CONTINUOUS
10
61.969
20
-114.64
11
61.8738
21
-114.544
0
LINE
8
BLACK
6
CONTINUOUS
10
61.8738
20
-114.544
11
61.7786
21
-114.354
0
LINE
8
BLACK
6
CONTINUOUS
10
61.7786
20
-114.354
11
61.7786
21
-113.782
0
LINE
8
BLACK
6
CONTINUOUS
10
61.7786
20
-113.782
11
61.8738
21
-113.592
0
LINE
8
BLACK
6
CONTINUOUS
10
61.8738
20
-113.592
11
61.969
21
-113.497
0
LINE
8
BLACK
6
CONTINUOUS
10
61.969
20
-113.497
11
62.1595
21
-113.401
0
LINE
8
BLACK
6
CONTINUOUS
10
62.1595
20
-113.401
11
62.4452
21
-113.401
0
LINE
8
BLACK
6
CONTINUOUS
10
62.4452
20
-113.401
11
62.6357
21
-113.497
0
LINE
8
BLACK
6
CONTINUOUS
10
62.6357
20
-113.497
11
62.731
21
-113.592
0
LINE
8
BLACK
6
CONTINUOUS
10
62.731
20
-113.592
11
62.8262
21
-113.782
0
LINE
8
BLACK
6
CONTINUOUS
10
62.8262
20
-113.782
11
62.8262
21
-114.354
0
LINE
8
BLACK
6
CONTINUOUS
10
62.8262
20
-114.354
11
62.731
21
-114.544
0
LINE
8
BLACK
6
CONTINUOUS
10
62.731
20
-114.544
11
62.6357
21
-114.64
0
LINE
8
BLACK
6
CONTINUOUS
10
62.6357
20
-114.64
11
62.4452
21
-114.735
0
LINE
8
BLACK
6
CONTINUOUS
10
62.4452
20
-114.735
11
62.1595
21
-114.735
0
LINE
8
BLACK
6
CONTINUOUS
10
63.969
20
-114.735
11
63.7786
21
-114.64
0
LINE
8
BLACK
6
CONTINUOUS
10
63.7786
20
-114.64
11
63.6833
21
-114.449
0
LINE
8
BLACK
6
CONTINUOUS
10
63.6833
20
-114.449
11
63.6833
21
-112.735
0
LINE
8
BLACK
6
CONTINUOUS
10
65.4929
20
-114.64
11
65.3024
21
-114.735
0
LINE
8
BLACK
6
CONTINUOUS
10
65.3024
20
-114.735
11
64.9214
21
-114.735
0
LINE
8
BLACK
6
CONTINUOUS
10
64.9214
20
-114.735
11
64.731
21
-114.64
0
LINE
8
BLACK
6
CONTINUOUS
10
64.731
20
-114.64
11
64.6357
21
-114.449
0
LINE
8
BLACK
6
CONTINUOUS
10
64.6357
20
-114.449
11
64.6357
21
-113.687
0
LINE
8
BLACK
6
CONTINUOUS
10
64.6357
20
-113.687
11
64.731
21
-113.497
0
LINE
8
BLACK
6
CONTINUOUS
10
64.731
20
-113.497
11
64.9214
21
-113.401
0
LINE
8
BLACK
6
CONTINUOUS
10
64.9214
20
-113.401
11
65.3024
21
-113.401
0
LINE
8
BLACK
6
CONTINUOUS
10
65.3024
20
-113.401
11
65.4929
21
-113.497
0
LINE
8
BLACK
6
CONTINUOUS
10
65.4929
20
-113.497
11
65.5881
21
-113.687
0
LINE
8
BLACK
6
CONTINUOUS
10
65.5881
20
-113.687
11
65.5881
21
-113.878
0
LINE
8
BLACK
6
CONTINUOUS
10
65.5881
20
-113.878
11
64.6357
21
-114.068
0
LINE
8
BLACK
6
CONTINUOUS
10
66.35
20
-114.64
11
66.5405
21
-114.735
0
LINE
8
BLACK
6
CONTINUOUS
10
66.5405
20
-114.735
11
66.9214
21
-114.735
0
LINE
8
BLACK
6
CONTINUOUS
10
66.9214
20
-114.735
11
67.1119
21
-114.64
0
LINE
8
BLACK
6
CONTINUOUS
10
67.1119
20
-114.64
11
67.2071
21
-114.449
0
LINE
8
BLACK
6
CONTINUOUS
10
67.2071
20
-114.449
11
67.2071
21
-114.354
0
LINE
8
BLACK
6
CONTINUOUS
10
67.2071
20
-114.354
11
67.1119
21
-114.163
0
LINE
8
BLACK
6
CONTINUOUS
10
67.1119
20
-114.163
11
66.9214
21
-114.068
0
LINE
8
BLACK
6
CONTINUOUS
10
66.9214
20
-114.068
11
66.6357
21
-114.068
0
LINE
8
BLACK
6
CONTINUOUS
10
66.6357
20
-114.068
11
66.4452
21
-113.973
0
LINE
8
BLACK
6
CONTINUOUS
10
66.4452
20
-113.973
11
66.35
21
-113.782
0
LINE
8
BLACK
6
CONTINUOUS
10
66.35
20
-113.782
11
66.35
21
-113.687
0
LINE
8
BLACK
6
CONTINUOUS
10
66.35
20
-113.687
11
66.4452
21
-113.497
0
LINE
8
BLACK
6
CONTINUOUS
10
66.4452
20
-113.497
11
66.6357
21
-113.401
0
LINE
8
BLACK
6
CONTINUOUS
10
66.6357
20
-113.401
11
66.9214
21
-113.401
0
LINE
8
BLACK
6
CONTINUOUS
10
66.9214
20
-113.401
11
67.1119
21
-113.497
0
LINE
8
BLACK
6
CONTINUOUS
10
67.8738
20
-115.497
11
67.969
21
-115.401
0
LINE
8
BLACK
6
CONTINUOUS
10
67.969
20
-115.401
11
68.1595
21
-115.116
0
LINE
8
BLACK
6
CONTINUOUS
10
68.1595
20
-115.116
11
68.2548
21
-114.925
0
LINE
8
BLACK
6
CONTINUOUS
10
68.2548
20
-114.925
11
68.35
21
-114.64
0
LINE
8
BLACK
6
CONTINUOUS
10
68.35
20
-114.64
11
68.4452
21
-114.163
0
LINE
8
BLACK
6
CONTINUOUS
10
68.4452
20
-114.163
11
68.4452
21
-113.782
0
LINE
8
BLACK
6
CONTINUOUS
10
68.4452
20
-113.782
11
68.35
21
-113.306
0
LINE
8
BLACK
6
CONTINUOUS
10
68.35
20
-113.306
11
68.2548
21
-113.02
0
LINE
8
BLACK
6
CONTINUOUS
10
68.2548
20
-113.02
11
68.1595
21
-112.83
0
LINE
8
BLACK
6
CONTINUOUS
10
68.1595
20
-112.83
11
67.969
21
-112.544
0
LINE
8
BLACK
6
CONTINUOUS
10
67.969
20
-112.544
11
67.8738
21
-112.449
0
LINE
8
BLACK
6
CONTINUOUS
10
18.1006
20
-116.831
11
18.1006
21
-116.109
0
LINE
8
BLACK
6
CONTINUOUS
10
18.1006
20
-116.109
11
17.3794
21
-116.109
0
LINE
8
BLACK
6
CONTINUOUS
10
17.3794
20
-116.109
11
17.3794
21
-116.831
0
LINE
8
BLACK
6
CONTINUOUS
10
17.3794
20
-116.831
11
18.1006
21
-116.831
0
LINE
8
BLACK
6
CONTINUOUS
10
21.8738
20
-117.375
11
20.731
21
-117.375
0
LINE
8
BLACK
6
CONTINUOUS
10
21.3024
20
-117.375
11
21.3024
21
-115.375
0
LINE
8
BLACK
6
CONTINUOUS
10
21.3024
20
-115.375
11
21.1119
21
-115.66
0
LINE
8
BLACK
6
CONTINUOUS
10
21.1119
20
-115.66
11
20.9214
21
-115.851
0
LINE
8
BLACK
6
CONTINUOUS
10
20.9214
20
-115.851
11
20.731
21
-115.946
0
LINE
8
BLACK
6
CONTINUOUS
10
22.731
20
-117.184
11
22.8262
21
-117.28
0
LINE
8
BLACK
6
CONTINUOUS
10
22.8262
20
-117.28
11
22.731
21
-117.375
0
LINE
8
BLACK
6
CONTINUOUS
10
22.731
20
-117.375
11
22.6357
21
-117.28
0
LINE
8
BLACK
6
CONTINUOUS
10
22.6357
20
-117.28
11
22.731
21
-117.184
0
LINE
8
BLACK
6
CONTINUOUS
10
22.731
20
-117.184
11
22.731
21
-117.375
0
LINE
8
BLACK
6
CONTINUOUS
10
24.0643
20
-115.375
11
24.2548
21
-115.375
0
LINE
8
BLACK
6
CONTINUOUS
10
24.2548
20
-115.375
11
24.4452
21
-115.47
0
LINE
8
BLACK
6
CONTINUOUS
10
24.4452
20
-115.47
11
24.5405
21
-115.565
0
LINE
8
BLACK
6
CONTINUOUS
10
24.5405
20
-115.565
11
24.6357
21
-115.756
0
LINE
8
BLACK
6
CONTINUOUS
10
24.6357
20
-115.756
11
24.731
21
-116.137
0
LINE
8
BLACK
6
CONTINUOUS
10
24.731
20
-116.137
11
24.731
21
-116.613
0
LINE
8
BLACK
6
CONTINUOUS
10
24.731
20
-116.613
11
24.6357
21
-116.994
0
LINE
8
BLACK
6
CONTINUOUS
10
24.6357
20
-116.994
11
24.5405
21
-117.184
0
LINE
8
BLACK
6
CONTINUOUS
10
24.5405
20
-117.184
11
24.4452
21
-117.28
0
LINE
8
BLACK
6
CONTINUOUS
10
24.4452
20
-117.28
11
24.2548
21
-117.375
0
LINE
8
BLACK
6
CONTINUOUS
10
24.2548
20
-117.375
11
24.0643
21
-117.375
0
LINE
8
BLACK
6
CONTINUOUS
10
24.0643
20
-117.375
11
23.8738
21
-117.28
0
LINE
8
BLACK
6
CONTINUOUS
10
23.8738
20
-117.28
11
23.7786
21
-117.184
0
LINE
8
BLACK
6
CONTINUOUS
10
23.7786
20
-117.184
11
23.6833
21
-116.994
0
LINE
8
BLACK
6
CONTINUOUS
10
23.6833
20
-116.994
11
23.5881
21
-116.613
0
LINE
8
BLACK
6
CONTINUOUS
10
23.5881
20
-116.613
11
23.5881
21
-116.137
0
LINE
8
BLACK
6
CONTINUOUS
10
23.5881
20
-116.137
11
23.6833
21
-115.756
0
LINE
8
BLACK
6
CONTINUOUS
10
23.6833
20
-115.756
11
23.7786
21
-115.565
0
LINE
8
BLACK
6
CONTINUOUS
10
23.7786
20
-115.565
11
23.8738
21
-115.47
0
LINE
8
BLACK
6
CONTINUOUS
10
23.8738
20
-115.47
11
24.0643
21
-115.375
0
LINE
8
BLACK
6
CONTINUOUS
10
25.4929
20
-115.565
11
25.5881
21
-115.47
0
LINE
8
BLACK
6
CONTINUOUS
10
25.5881
20
-115.47
11
25.7786
21
-115.375
0
LINE
8
BLACK
6
CONTINUOUS
10
25.7786
20
-115.375
11
26.2548
21
-115.375
0
LINE
8
BLACK
6
CONTINUOUS
10
26.2548
20
-115.375
11
26.4452
21
-115.47
0
LINE
8
BLACK
6
CONTINUOUS
10
26.4452
20
-115.47
11
26.5405
21
-115.565
0
LINE
8
BLACK
6
CONTINUOUS
10
26.5405
20
-115.565
11
26.6357
21
-115.756
0
LINE
8
BLACK
6
CONTINUOUS
10
26.6357
20
-115.756
11
26.6357
21
-115.946
0
LINE
8
BLACK
6
CONTINUOUS
10
26.6357
20
-115.946
11
26.5405
21
-116.232
0
LINE
8
BLACK
6
CONTINUOUS
10
26.5405
20
-116.232
11
25.3976
21
-117.375
0
LINE
8
BLACK
6
CONTINUOUS
10
25.3976
20
-117.375
11
26.6357
21
-117.375
0
LINE
8
BLACK
6
CONTINUOUS
10
27.8738
20
-115.375
11
28.0643
21
-115.375
0
LINE
8
BLACK
6
CONTINUOUS
10
28.0643
20
-115.375
11
28.2548
21
-115.47
0
LINE
8
BLACK
6
CONTINUOUS
10
28.2548
20
-115.47
11
28.35
21
-115.565
0
LINE
8
BLACK
6
CONTINUOUS
10
28.35
20
-115.565
11
28.4452
21
-115.756
0
LINE
8
BLACK
6
CONTINUOUS
10
28.4452
20
-115.756
11
28.5405
21
-116.137
0
LINE
8
BLACK
6
CONTINUOUS
10
28.5405
20
-116.137
11
28.5405
21
-116.613
0
LINE
8
BLACK
6
CONTINUOUS
10
28.5405
20
-116.613
11
28.4452
21
-116.994
0
LINE
8
BLACK
6
CONTINUOUS
10
28.4452
20
-116.994
11
28.35
21
-117.184
0
LINE
8
BLACK
6
CONTINUOUS
10
28.35
20
-117.184
11
28.2548
21
-117.28
0
LINE
8
BLACK
6
CONTINUOUS
10
28.2548
20
-117.28
11
28.0643
21
-117.375
0
LINE
8
BLACK
6
CONTINUOUS
10
28.0643
20
-117.375
11
27.8738
21
-117.375
0
LINE
8
BLACK
6
CONTINUOUS
10
27.8738
20
-117.375
11
27.6833
21
-117.28
0
LINE
8
BLACK
6
CONTINUOUS
10
27.6833
20
-117.28
11
27.5881
21
-117.184
0
LINE
8
BLACK
6
CONTINUOUS
10
27.5881
20
-117.184
11
27.4929
21
-116.994
0
LINE
8
BLACK
6
CONTINUOUS
10
27.4929
20
-116.994
11
27.3976
21
-116.613
0
LINE
8
BLACK
6
CONTINUOUS
10
27.3976
20
-116.613
11
27.3976
21
-116.137
0
LINE
8
BLACK
6
CONTINUOUS
10
27.3976
20
-116.137
11
27.4929
21
-115.756
0
LINE
8
BLACK
6
CONTINUOUS
10
27.4929
20
-115.756
11
27.5881
21
-115.565
0
LINE
8
BLACK
6
CONTINUOUS
10
27.5881
20
-115.565
11
27.6833
21
-115.47
0
LINE
8
BLACK
6
CONTINUOUS
10
27.6833
20
-115.47
11
27.8738
21
-115.375
0
LINE
8
BLACK
6
CONTINUOUS
10
29.3976
20
-117.375
11
29.3976
21
-116.041
0
LINE
8
BLACK
6
CONTINUOUS
10
29.3976
20
-116.232
11
29.4929
21
-116.137
0
LINE
8
BLACK
6
CONTINUOUS
10
29.4929
20
-116.137
11
29.6833
21
-116.041
0
LINE
8
BLACK
6
CONTINUOUS
10
29.6833
20
-116.041
11
29.969
21
-116.041
0
LINE
8
BLACK
6
CONTINUOUS
10
29.969
20
-116.041
11
30.1595
21
-116.137
0
LINE
8
BLACK
6
CONTINUOUS
10
30.1595
20
-116.137
11
30.2548
21
-116.327
0
LINE
8
BLACK
6
CONTINUOUS
10
30.2548
20
-116.327
11
30.2548
21
-117.375
0
LINE
8
BLACK
6
CONTINUOUS
10
30.2548
20
-116.327
11
30.35
21
-116.137
0
LINE
8
BLACK
6
CONTINUOUS
10
30.35
20
-116.137
11
30.5405
21
-116.041
0
LINE
8
BLACK
6
CONTINUOUS
10
30.5405
20
-116.041
11
30.8262
21
-116.041
0
LINE
8
BLACK
6
CONTINUOUS
10
30.8262
20
-116.041
11
31.0167
21
-116.137
0
LINE
8
BLACK
6
CONTINUOUS
10
31.0167
20
-116.137
11
31.1119
21
-116.327
0
LINE
8
BLACK
6
CONTINUOUS
10
31.1119
20
-116.327
11
31.1119
21
-117.375
0
LINE
8
BLACK
6
CONTINUOUS
10
32.0643
20
-117.375
11
32.0643
21
-116.041
0
LINE
8
BLACK
6
CONTINUOUS
10
32.0643
20
-116.232
11
32.1595
21
-116.137
0
LINE
8
BLACK
6
CONTINUOUS
10
32.1595
20
-116.137
11
32.35
21
-116.041
0
LINE
8
BLACK
6
CONTINUOUS
10
32.35
20
-116.041
11
32.6357
21
-116.041
0
LINE
8
BLACK
6
CONTINUOUS
10
32.6357
20
-116.041
11
32.8262
21
-116.137
0
LINE
8
BLACK
6
CONTINUOUS
10
32.8262
20
-116.137
11
32.9214
21
-116.327
0
LINE
8
BLACK
6
CONTINUOUS
10
32.9214
20
-116.327
11
32.9214
21
-117.375
0
LINE
8
BLACK
6
CONTINUOUS
10
32.9214
20
-116.327
11
33.0167
21
-116.137
0
LINE
8
BLACK
6
CONTINUOUS
10
33.0167
20
-116.137
11
33.2071
21
-116.041
0
LINE
8
BLACK
6
CONTINUOUS
10
33.2071
20
-116.041
11
33.4929
21
-116.041
0
LINE
8
BLACK
6
CONTINUOUS
10
33.4929
20
-116.041
11
33.6833
21
-116.137
0
LINE
8
BLACK
6
CONTINUOUS
10
33.6833
20
-116.137
11
33.7786
21
-116.327
0
LINE
8
BLACK
6
CONTINUOUS
10
33.7786
20
-116.327
11
33.7786
21
-117.375
0
LINE
8
BLACK
6
CONTINUOUS
10
37.6833
20
-115.28
11
35.969
21
-117.851
0
LINE
8
BLACK
6
CONTINUOUS
10
40.2548
20
-115.375
11
40.4452
21
-115.375
0
LINE
8
BLACK
6
CONTINUOUS
10
40.4452
20
-115.375
11
40.6357
21
-115.47
0
LINE
8
BLACK
6
CONTINUOUS
10
40.6357
20
-115.47
11
40.731
21
-115.565
0
LINE
8
BLACK
6
CONTINUOUS
10
40.731
20
-115.565
11
40.8262
21
-115.756
0
LINE
8
BLACK
6
CONTINUOUS
10
40.8262
20
-115.756
11
40.9214
21
-116.137
0
LINE
8
BLACK
6
CONTINUOUS
10
40.9214
20
-116.137
11
40.9214
21
-116.613
0
LINE
8
BLACK
6
CONTINUOUS
10
40.9214
20
-116.613
11
40.8262
21
-116.994
0
LINE
8
BLACK
6
CONTINUOUS
10
40.8262
20
-116.994
11
40.731
21
-117.184
0
LINE
8
BLACK
6
CONTINUOUS
10
40.731
20
-117.184
11
40.6357
21
-117.28
0
LINE
8
BLACK
6
CONTINUOUS
10
40.6357
20
-117.28
11
40.4452
21
-117.375
0
LINE
8
BLACK
6
CONTINUOUS
10
40.4452
20
-117.375
11
40.2548
21
-117.375
0
LINE
8
BLACK
6
CONTINUOUS
10
40.2548
20
-117.375
11
40.0643
21
-117.28
0
LINE
8
BLACK
6
CONTINUOUS
10
40.0643
20
-117.28
11
39.969
21
-117.184
0
LINE
8
BLACK
6
CONTINUOUS
10
39.969
20
-117.184
11
39.8738
21
-116.994
0
LINE
8
BLACK
6
CONTINUOUS
10
39.8738
20
-116.994
11
39.7786
21
-116.613
0
LINE
8
BLACK
6
CONTINUOUS
10
39.7786
20
-116.613
11
39.7786
21
-116.137
0
LINE
8
BLACK
6
CONTINUOUS
10
39.7786
20
-116.137
11
39.8738
21
-115.756
0
LINE
8
BLACK
6
CONTINUOUS
10
39.8738
20
-115.756
11
39.969
21
-115.565
0
LINE
8
BLACK
6
CONTINUOUS
10
39.969
20
-115.565
11
40.0643
21
-115.47
0
LINE
8
BLACK
6
CONTINUOUS
10
40.0643
20
-115.47
11
40.2548
21
-115.375
0
LINE
8
BLACK
6
CONTINUOUS
10
41.7786
20
-117.184
11
41.8738
21
-117.28
0
LINE
8
BLACK
6
CONTINUOUS
10
41.8738
20
-117.28
11
41.7786
21
-117.375
0
LINE
8
BLACK
6
CONTINUOUS
10
41.7786
20
-117.375
11
41.6833
21
-117.28
0
LINE
8
BLACK
6
CONTINUOUS
10
41.6833
20
-117.28
11
41.7786
21
-117.184
0
LINE
8
BLACK
6
CONTINUOUS
10
41.7786
20
-117.184
11
41.7786
21
-117.375
0
LINE
8
BLACK
6
CONTINUOUS
10
43.1119
20
-115.375
11
43.3024
21
-115.375
0
LINE
8
BLACK
6
CONTINUOUS
10
43.3024
20
-115.375
11
43.4929
21
-115.47
0
LINE
8
BLACK
6
CONTINUOUS
10
43.4929
20
-115.47
11
43.5881
21
-115.565
0
LINE
8
BLACK
6
CONTINUOUS
10
43.5881
20
-115.565
11
43.6833
21
-115.756
0
LINE
8
BLACK
6
CONTINUOUS
10
43.6833
20
-115.756
11
43.7786
21
-116.137
0
LINE
8
BLACK
6
CONTINUOUS
10
43.7786
20
-116.137
11
43.7786
21
-116.613
0
LINE
8
BLACK
6
CONTINUOUS
10
43.7786
20
-116.613
11
43.6833
21
-116.994
0
LINE
8
BLACK
6
CONTINUOUS
10
43.6833
20
-116.994
11
43.5881
21
-117.184
0
LINE
8
BLACK
6
CONTINUOUS
10
43.5881
20
-117.184
11
43.4929
21
-117.28
0
LINE
8
BLACK
6
CONTINUOUS
10
43.4929
20
-117.28
11
43.3024
21
-117.375
0
LINE
8
BLACK
6
CONTINUOUS
10
43.3024
20
-117.375
11
43.1119
21
-117.375
0
LINE
8
BLACK
6
CONTINUOUS
10
43.1119
20
-117.375
11
42.9214
21
-117.28
0
LINE
8
BLACK
6
CONTINUOUS
10
42.9214
20
-117.28
11
42.8262
21
-117.184
0
LINE
8
BLACK
6
CONTINUOUS
10
42.8262
20
-117.184
11
42.731
21
-116.994
0
LINE
8
BLACK
6
CONTINUOUS
10
42.731
20
-116.994
11
42.6357
21
-116.613
0
LINE
8
BLACK
6
CONTINUOUS
10
42.6357
20
-116.613
11
42.6357
21
-116.137
0
LINE
8
BLACK
6
CONTINUOUS
10
42.6357
20
-116.137
11
42.731
21
-115.756
0
LINE
8
BLACK
6
CONTINUOUS
10
42.731
20
-115.756
11
42.8262
21
-115.565
0
LINE
8
BLACK
6
CONTINUOUS
10
42.8262
20
-115.565
11
42.9214
21
-115.47
0
LINE
8
BLACK
6
CONTINUOUS
10
42.9214
20
-115.47
11
43.1119
21
-115.375
0
LINE
8
BLACK
6
CONTINUOUS
10
45.4929
20
-116.041
11
45.4929
21
-117.375
0
LINE
8
BLACK
6
CONTINUOUS
10
45.0167
20
-115.28
11
44.5405
21
-116.708
0
LINE
8
BLACK
6
CONTINUOUS
10
44.5405
20
-116.708
11
45.7786
21
-116.708
0
LINE
8
BLACK
6
CONTINUOUS
10
46.9214
20
-115.375
11
47.1119
21
-115.375
0
LINE
8
BLACK
6
CONTINUOUS
10
47.1119
20
-115.375
11
47.3024
21
-115.47
0
LINE
8
BLACK
6
CONTINUOUS
10
47.3024
20
-115.47
11
47.3976
21
-115.565
0
LINE
8
BLACK
6
CONTINUOUS
10
47.3976
20
-115.565
11
47.4929
21
-115.756
0
LINE
8
BLACK
6
CONTINUOUS
10
47.4929
20
-115.756
11
47.5881
21
-116.137
0
LINE
8
BLACK
6
CONTINUOUS
10
47.5881
20
-116.137
11
47.5881
21
-116.613
0
LINE
8
BLACK
6
CONTINUOUS
10
47.5881
20
-116.613
11
47.4929
21
-116.994
0
LINE
8
BLACK
6
CONTINUOUS
10
47.4929
20
-116.994
11
47.3976
21
-117.184
0
LINE
8
BLACK
6
CONTINUOUS
10
47.3976
20
-117.184
11
47.3024
21
-117.28
0
LINE
8
BLACK
6
CONTINUOUS
10
47.3024
20
-117.28
11
47.1119
21
-117.375
0
LINE
8
BLACK
6
CONTINUOUS
10
47.1119
20
-117.375
11
46.9214
21
-117.375
0
LINE
8
BLACK
6
CONTINUOUS
10
46.9214
20
-117.375
11
46.731
21
-117.28
0
LINE
8
BLACK
6
CONTINUOUS
10
46.731
20
-117.28
11
46.6357
21
-117.184
0
LINE
8
BLACK
6
CONTINUOUS
10
46.6357
20
-117.184
11
46.5405
21
-116.994
0
LINE
8
BLACK
6
CONTINUOUS
10
46.5405
20
-116.994
11
46.4452
21
-116.613
0
LINE
8
BLACK
6
CONTINUOUS
10
46.4452
20
-116.613
11
46.4452
21
-116.137
0
LINE
8
BLACK
6
CONTINUOUS
10
46.4452
20
-116.137
11
46.5405
21
-115.756
0
LINE
8
BLACK
6
CONTINUOUS
10
46.5405
20
-115.756
11
46.6357
21
-115.565
0
LINE
8
BLACK
6
CONTINUOUS
10
46.6357
20
-115.565
11
46.731
21
-115.47
0
LINE
8
BLACK
6
CONTINUOUS
10
46.731
20
-115.47
11
46.9214
21
-115.375
0
LINE
8
BLACK
6
CONTINUOUS
10
48.35
20
-115.565
11
48.4452
21
-115.47
0
LINE
8
BLACK
6
CONTINUOUS
10
48.4452
20
-115.47
11
48.6357
21
-115.375
0
LINE
8
BLACK
6
CONTINUOUS
10
48.6357
20
-115.375
11
49.1119
21
-115.375
0
LINE
8
BLACK
6
CONTINUOUS
10
49.1119
20
-115.375
11
49.3024
21
-115.47
0
LINE
8
BLACK
6
CONTINUOUS
10
49.3024
20
-115.47
11
49.3976
21
-115.565
0
LINE
8
BLACK
6
CONTINUOUS
10
49.3976
20
-115.565
11
49.4929
21
-115.756
0
LINE
8
BLACK
6
CONTINUOUS
10
49.4929
20
-115.756
11
49.4929
21
-115.946
0
LINE
8
BLACK
6
CONTINUOUS
10
49.4929
20
-115.946
11
49.3976
21
-116.232
0
LINE
8
BLACK
6
CONTINUOUS
10
49.3976
20
-116.232
11
48.2548
21
-117.375
0
LINE
8
BLACK
6
CONTINUOUS
10
48.2548
20
-117.375
11
49.4929
21
-117.375
0
LINE
8
BLACK
6
CONTINUOUS
10
50.2548
20
-115.375
11
50.2548
21
-115.756
0
LINE
8
BLACK
6
CONTINUOUS
10
51.0167
20
-115.375
11
51.0167
21
-115.756
0
LINE
8
BLACK
6
CONTINUOUS
10
53.969
20
-118.137
11
53.8738
21
-118.041
0
LINE
8
BLACK
6
CONTINUOUS
10
53.8738
20
-118.041
11
53.6833
21
-117.756
0
LINE
8
BLACK
6
CONTINUOUS
10
53.6833
20
-117.756
11
53.5881
21
-117.565
0
LINE
8
BLACK
6
CONTINUOUS
10
53.5881
20
-117.565
11
53.4929
21
-117.28
0
LINE
8
BLACK
6
CONTINUOUS
10
53.4929
20
-117.28
11
53.3976
21
-116.803
0
LINE
8
BLACK
6
CONTINUOUS
10
53.3976
20
-116.803
11
53.3976
21
-116.422
0
LINE
8
BLACK
6
CONTINUOUS
10
53.3976
20
-116.422
11
53.4929
21
-115.946
0
LINE
8
BLACK
6
CONTINUOUS
10
53.4929
20
-115.946
11
53.5881
21
-115.66
0
LINE
8
BLACK
6
CONTINUOUS
10
53.5881
20
-115.66
11
53.6833
21
-115.47
0
LINE
8
BLACK
6
CONTINUOUS
10
53.6833
20
-115.47
11
53.8738
21
-115.184
0
LINE
8
BLACK
6
CONTINUOUS
10
53.8738
20
-115.184
11
53.969
21
-115.089
0
LINE
8
BLACK
6
CONTINUOUS
10
55.7786
20
-117.375
11
54.6357
21
-117.375
0
LINE
8
BLACK
6
CONTINUOUS
10
55.2071
20
-117.375
11
55.2071
21
-115.375
0
LINE
8
BLACK
6
CONTINUOUS
10
55.2071
20
-115.375
11
55.0167
21
-115.66
0
LINE
8
BLACK
6
CONTINUOUS
10
55.0167
20
-115.66
11
54.8262
21
-115.851
0
LINE
8
BLACK
6
CONTINUOUS
10
54.8262
20
-115.851
11
54.6357
21
-115.946
0
LINE
8
BLACK
6
CONTINUOUS
10
57.4929
20
-115.375
11
57.1119
21
-115.375
0
LINE
8
BLACK
6
CONTINUOUS
10
57.1119
20
-115.375
11
56.9214
21
-115.47
0
LINE
8
BLACK
6
CONTINUOUS
10
56.9214
20
-115.47
11
56.8262
21
-115.565
0
LINE
8
BLACK
6
CONTINUOUS
10
56.8262
20
-115.565
11
56.6357
21
-115.851
0
LINE
8
BLACK
6
CONTINUOUS
10
56.6357
20
-115.851
11
56.5405
21
-116.232
0
LINE
8
BLACK
6
CONTINUOUS
10
56.5405
20
-116.232
11
56.5405
21
-116.994
0
LINE
8
BLACK
6
CONTINUOUS
10
56.5405
20
-116.994
11
56.6357
21
-117.184
0
LINE
8
BLACK
6
CONTINUOUS
10
56.6357
20
-117.184
11
56.731
21
-117.28
0
LINE
8
BLACK
6
CONTINUOUS
10
56.731
20
-117.28
11
56.9214
21
-117.375
0
LINE
8
BLACK
6
CONTINUOUS
10
56.9214
20
-117.375
11
57.3024
21
-117.375
0
LINE
8
BLACK
6
CONTINUOUS
10
57.3024
20
-117.375
11
57.4929
21
-117.28
0
LINE
8
BLACK
6
CONTINUOUS
10
57.4929
20
-117.28
11
57.5881
21
-117.184
0
LINE
8
BLACK
6
CONTINUOUS
10
57.5881
20
-117.184
11
57.6833
21
-116.994
0
LINE
8
BLACK
6
CONTINUOUS
10
57.6833
20
-116.994
11
57.6833
21
-116.518
0
LINE
8
BLACK
6
CONTINUOUS
10
57.6833
20
-116.518
11
57.5881
21
-116.327
0
LINE
8
BLACK
6
CONTINUOUS
10
57.5881
20
-116.327
11
57.4929
21
-116.232
0
LINE
8
BLACK
6
CONTINUOUS
10
57.4929
20
-116.232
11
57.3024
21
-116.137
0
LINE
8
BLACK
6
CONTINUOUS
10
57.3024
20
-116.137
11
56.9214
21
-116.137
0
LINE
8
BLACK
6
CONTINUOUS
10
56.9214
20
-116.137
11
56.731
21
-116.232
0
LINE
8
BLACK
6
CONTINUOUS
10
56.731
20
-116.232
11
56.6357
21
-116.327
0
LINE
8
BLACK
6
CONTINUOUS
10
56.6357
20
-116.327
11
56.5405
21
-116.518
0
LINE
8
BLACK
6
CONTINUOUS
10
60.0643
20
-117.375
11
60.0643
21
-115.375
0
LINE
8
BLACK
6
CONTINUOUS
10
60.9214
20
-117.375
11
60.9214
21
-116.327
0
LINE
8
BLACK
6
CONTINUOUS
10
60.9214
20
-116.327
11
60.8262
21
-116.137
0
LINE
8
BLACK
6
CONTINUOUS
10
60.8262
20
-116.137
11
60.6357
21
-116.041
0
LINE
8
BLACK
6
CONTINUOUS
10
60.6357
20
-116.041
11
60.35
21
-116.041
0
LINE
8
BLACK
6
CONTINUOUS
10
60.35
20
-116.041
11
60.1595
21
-116.137
0
LINE
8
BLACK
6
CONTINUOUS
10
60.1595
20
-116.137
11
60.0643
21
-116.232
0
LINE
8
BLACK
6
CONTINUOUS
10
62.1595
20
-117.375
11
61.969
21
-117.28
0
LINE
8
BLACK
6
CONTINUOUS
10
61.969
20
-117.28
11
61.8738
21
-117.184
0
LINE
8
BLACK
6
CONTINUOUS
10
61.8738
20
-117.184
11
61.7786
21
-116.994
0
LINE
8
BLACK
6
CONTINUOUS
10
61.7786
20
-116.994
11
61.7786
21
-116.422
0
LINE
8
BLACK
6
CONTINUOUS
10
61.7786
20
-116.422
11
61.8738
21
-116.232
0
LINE
8
BLACK
6
CONTINUOUS
10
61.8738
20
-116.232
11
61.969
21
-116.137
0
LINE
8
BLACK
6
CONTINUOUS
10
61.969
20
-116.137
11
62.1595
21
-116.041
0
LINE
8
BLACK
6
CONTINUOUS
10
62.1595
20
-116.041
11
62.4452
21
-116.041
0
LINE
8
BLACK
6
CONTINUOUS
10
62.4452
20
-116.041
11
62.6357
21
-116.137
0
LINE
8
BLACK
6
CONTINUOUS
10
62.6357
20
-116.137
11
62.731
21
-116.232
0
LINE
8
BLACK
6
CONTINUOUS
10
62.731
20
-116.232
11
62.8262
21
-116.422
0
LINE
8
BLACK
6
CONTINUOUS
10
62.8262
20
-116.422
11
62.8262
21
-116.994
0
LINE
8
BLACK
6
CONTINUOUS
10
62.8262
20
-116.994
11
62.731
21
-117.184
0
LINE
8
BLACK
6
CONTINUOUS
10
62.731
20
-117.184
11
62.6357
21
-117.28
0
LINE
8
BLACK
6
CONTINUOUS
10
62.6357
20
-117.28
11
62.4452
21
-117.375
0
LINE
8
BLACK
6
CONTINUOUS
10
62.4452
20
-117.375
11
62.1595
21
-117.375
0
LINE
8
BLACK
6
CONTINUOUS
10
63.969
20
-117.375
11
63.7786
21
-117.28
0
LINE
8
BLACK
6
CONTINUOUS
10
63.7786
20
-117.28
11
63.6833
21
-117.089
0
LINE
8
BLACK
6
CONTINUOUS
10
63.6833
20
-117.089
11
63.6833
21
-115.375
0
LINE
8
BLACK
6
CONTINUOUS
10
65.4929
20
-117.28
11
65.3024
21
-117.375
0
LINE
8
BLACK
6
CONTINUOUS
10
65.3024
20
-117.375
11
64.9214
21
-117.375
0
LINE
8
BLACK
6
CONTINUOUS
10
64.9214
20
-117.375
11
64.731
21
-117.28
0
LINE
8
BLACK
6
CONTINUOUS
10
64.731
20
-117.28
11
64.6357
21
-117.089
0
LINE
8
BLACK
6
CONTINUOUS
10
64.6357
20
-117.089
11
64.6357
21
-116.327
0
LINE
8
BLACK
6
CONTINUOUS
10
64.6357
20
-116.327
11
64.731
21
-116.137
0
LINE
8
BLACK
6
CONTINUOUS
10
64.731
20
-116.137
11
64.9214
21
-116.041
0
LINE
8
BLACK
6
CONTINUOUS
10
64.9214
20
-116.041
11
65.3024
21
-116.041
0
LINE
8
BLACK
6
CONTINUOUS
10
65.3024
20
-116.041
11
65.4929
21
-116.137
0
LINE
8
BLACK
6
CONTINUOUS
10
65.4929
20
-116.137
11
65.5881
21
-116.327
0
LINE
8
BLACK
6
CONTINUOUS
10
65.5881
20
-116.327
11
65.5881
21
-116.518
0
LINE
8
BLACK
6
CONTINUOUS
10
65.5881
20
-116.518
11
64.6357
21
-116.708
0
LINE
8
BLACK
6
CONTINUOUS
10
66.35
20
-117.28
11
66.5405
21
-117.375
0
LINE
8
BLACK
6
CONTINUOUS
10
66.5405
20
-117.375
11
66.9214
21
-117.375
0
LINE
8
BLACK
6
CONTINUOUS
10
66.9214
20
-117.375
11
67.1119
21
-117.28
0
LINE
8
BLACK
6
CONTINUOUS
10
67.1119
20
-117.28
11
67.2071
21
-117.089
0
LINE
8
BLACK
6
CONTINUOUS
10
67.2071
20
-117.089
11
67.2071
21
-116.994
0
LINE
8
BLACK
6
CONTINUOUS
10
67.2071
20
-116.994
11
67.1119
21
-116.803
0
LINE
8
BLACK
6
CONTINUOUS
10
67.1119
20
-116.803
11
66.9214
21
-116.708
0
LINE
8
BLACK
6
CONTINUOUS
10
66.9214
20
-116.708
11
66.6357
21
-116.708
0
LINE
8
BLACK
6
CONTINUOUS
10
66.6357
20
-116.708
11
66.4452
21
-116.613
0
LINE
8
BLACK
6
CONTINUOUS
10
66.4452
20
-116.613
11
66.35
21
-116.422
0
LINE
8
BLACK
6
CONTINUOUS
10
66.35
20
-116.422
11
66.35
21
-116.327
0
LINE
8
BLACK
6
CONTINUOUS
10
66.35
20
-116.327
11
66.4452
21
-116.137
0
LINE
8
BLACK
6
CONTINUOUS
10
66.4452
20
-116.137
11
66.6357
21
-116.041
0
LINE
8
BLACK
6
CONTINUOUS
10
66.6357
20
-116.041
11
66.9214
21
-116.041
0
LINE
8
BLACK
6
CONTINUOUS
10
66.9214
20
-116.041
11
67.1119
21
-116.137
0
LINE
8
BLACK
6
CONTINUOUS
10
67.8738
20
-118.137
11
67.969
21
-118.041
0
LINE
8
BLACK
6
CONTINUOUS
10
67.969
20
-118.041
11
68.1595
21
-117.756
0
LINE
8
BLACK
6
CONTINUOUS
10
68.1595
20
-117.756
11
68.2548
21
-117.565
0
LINE
8
BLACK
6
CONTINUOUS
10
68.2548
20
-117.565
11
68.35
21
-117.28
0
LINE
8
BLACK
6
CONTINUOUS
10
68.35
20
-117.28
11
68.4452
21
-116.803
0
LINE
8
BLACK
6
CONTINUOUS
10
68.4452
20
-116.803
11
68.4452
21
-116.422
0
LINE
8
BLACK
6
CONTINUOUS
10
68.4452
20
-116.422
11
68.35
21
-115.946
0
LINE
8
BLACK
6
CONTINUOUS
10
68.35
20
-115.946
11
68.2548
21
-115.66
0
LINE
8
BLACK
6
CONTINUOUS
10
68.2548
20
-115.66
11
68.1595
21
-115.47
0
LINE
8
BLACK
6
CONTINUOUS
10
68.1595
20
-115.47
11
67.969
21
-115.184
0
LINE
8
BLACK
6
CONTINUOUS
10
67.969
20
-115.184
11
67.8738
21
-115.089
0
LINE
8
BLACK
6
CONTINUOUS
10
17.25
20
-120.11
11
18.25
21
-119.11
0
LINE
8
BLACK
6
CONTINUOUS
10
18.25
20
-119.11
11
17.25
21
-118.11
0
LINE
8
BLACK
6
CONTINUOUS
10
17.25
20
-118.11
11
16.25
21
-119.11
0
LINE
8
BLACK
6
CONTINUOUS
10
16.25
20
-119.11
11
17.25
21
-120.11
0
LINE
8
BLACK
6
CONTINUOUS
10
20.731
20
-118.205
11
20.8262
21
-118.11
0
LINE
8
BLACK
6
CONTINUOUS
10
20.8262
20
-118.11
11
21.0167
21
-118.015
0
LINE
8
BLACK
6
CONTINUOUS
10
21.0167
20
-118.015
11
21.4929
21
-118.015
0
LINE
8
BLACK
6
CONTINUOUS
10
21.4929
20
-118.015
11
21.6833
21
-118.11
0
LINE
8
BLACK
6
CONTINUOUS
10
21.6833
20
-118.11
11
21.7786
21
-118.205
0
LINE
8
BLACK
6
CONTINUOUS
10
21.7786
20
-118.205
11
21.8738
21
-118.396
0
LINE
8
BLACK
6
CONTINUOUS
10
21.8738
20
-118.396
11
21.8738
21
-118.586
0
LINE
8
BLACK
6
CONTINUOUS
10
21.8738
20
-118.586
11
21.7786
21
-118.872
0
LINE
8
BLACK
6
CONTINUOUS
10
21.7786
20
-118.872
11
20.6357
21
-120.015
0
LINE
8
BLACK
6
CONTINUOUS
10
20.6357
20
-120.015
11
21.8738
21
-120.015
0
LINE
8
BLACK
6
CONTINUOUS
10
22.731
20
-119.824
11
22.8262
21
-119.92
0
LINE
8
BLACK
6
CONTINUOUS
10
22.8262
20
-119.92
11
22.731
21
-120.015
0
LINE
8
BLACK
6
CONTINUOUS
10
22.731
20
-120.015
11
22.6357
21
-119.92
0
LINE
8
BLACK
6
CONTINUOUS
10
22.6357
20
-119.92
11
22.731
21
-119.824
0
LINE
8
BLACK
6
CONTINUOUS
10
22.731
20
-119.824
11
22.731
21
-120.015
0
LINE
8
BLACK
6
CONTINUOUS
10
24.5405
20
-118.681
11
24.5405
21
-120.015
0
LINE
8
BLACK
6
CONTINUOUS
10
24.0643
20
-117.92
11
23.5881
21
-119.348
0
LINE
8
BLACK
6
CONTINUOUS
10
23.5881
20
-119.348
11
24.8262
21
-119.348
0
LINE
8
BLACK
6
CONTINUOUS
10
26.6357
20
-120.015
11
25.4929
21
-120.015
0
LINE
8
BLACK
6
CONTINUOUS
10
26.0643
20
-120.015
11
26.0643
21
-118.015
0
LINE
8
BLACK
6
CONTINUOUS
10
26.0643
20
-118.015
11
25.8738
21
-118.3
0
LINE
8
BLACK
6
CONTINUOUS
10
25.8738
20
-118.3
11
25.6833
21
-118.491
0
LINE
8
BLACK
6
CONTINUOUS
10
25.6833
20
-118.491
11
25.4929
21
-118.586
0
LINE
8
BLACK
6
CONTINUOUS
10
27.8738
20
-118.015
11
28.0643
21
-118.015
0
LINE
8
BLACK
6
CONTINUOUS
10
28.0643
20
-118.015
11
28.2548
21
-118.11
0
LINE
8
BLACK
6
CONTINUOUS
10
28.2548
20
-118.11
11
28.35
21
-118.205
0
LINE
8
BLACK
6
CONTINUOUS
10
28.35
20
-118.205
11
28.4452
21
-118.396
0
LINE
8
BLACK
6
CONTINUOUS
10
28.4452
20
-118.396
11
28.5405
21
-118.777
0
LINE
8
BLACK
6
CONTINUOUS
10
28.5405
20
-118.777
11
28.5405
21
-119.253
0
LINE
8
BLACK
6
CONTINUOUS
10
28.5405
20
-119.253
11
28.4452
21
-119.634
0
LINE
8
BLACK
6
CONTINUOUS
10
28.4452
20
-119.634
11
28.35
21
-119.824
0
LINE
8
BLACK
6
CONTINUOUS
10
28.35
20
-119.824
11
28.2548
21
-119.92
0
LINE
8
BLACK
6
CONTINUOUS
10
28.2548
20
-119.92
11
28.0643
21
-120.015
0
LINE
8
BLACK
6
CONTINUOUS
10
28.0643
20
-120.015
11
27.8738
21
-120.015
0
LINE
8
BLACK
6
CONTINUOUS
10
27.8738
20
-120.015
11
27.6833
21
-119.92
0
LINE
8
BLACK
6
CONTINUOUS
10
27.6833
20
-119.92
11
27.5881
21
-119.824
0
LINE
8
BLACK
6
CONTINUOUS
10
27.5881
20
-119.824
11
27.4929
21
-119.634
0
LINE
8
BLACK
6
CONTINUOUS
10
27.4929
20
-119.634
11
27.3976
21
-119.253
0
LINE
8
BLACK
6
CONTINUOUS
10
27.3976
20
-119.253
11
27.3976
21
-118.777
0
LINE
8
BLACK
6
CONTINUOUS
10
27.3976
20
-118.777
11
27.4929
21
-118.396
0
LINE
8
BLACK
6
CONTINUOUS
10
27.4929
20
-118.396
11
27.5881
21
-118.205
0
LINE
8
BLACK
6
CONTINUOUS
10
27.5881
20
-118.205
11
27.6833
21
-118.11
0
LINE
8
BLACK
6
CONTINUOUS
10
27.6833
20
-118.11
11
27.8738
21
-118.015
0
LINE
8
BLACK
6
CONTINUOUS
10
29.3976
20
-120.015
11
29.3976
21
-118.681
0
LINE
8
BLACK
6
CONTINUOUS
10
29.3976
20
-118.872
11
29.4929
21
-118.777
0
LINE
8
BLACK
6
CONTINUOUS
10
29.4929
20
-118.777
11
29.6833
21
-118.681
0
LINE
8
BLACK
6
CONTINUOUS
10
29.6833
20
-118.681
11
29.969
21
-118.681
0
LINE
8
BLACK
6
CONTINUOUS
10
29.969
20
-118.681
11
30.1595
21
-118.777
0
LINE
8
BLACK
6
CONTINUOUS
10
30.1595
20
-118.777
11
30.2548
21
-118.967
0
LINE
8
BLACK
6
CONTINUOUS
10
30.2548
20
-118.967
11
30.2548
21
-120.015
0
LINE
8
BLACK
6
CONTINUOUS
10
30.2548
20
-118.967
11
30.35
21
-118.777
0
LINE
8
BLACK
6
CONTINUOUS
10
30.35
20
-118.777
11
30.5405
21
-118.681
0
LINE
8
BLACK
6
CONTINUOUS
10
30.5405
20
-118.681
11
30.8262
21
-118.681
0
LINE
8
BLACK
6
CONTINUOUS
10
30.8262
20
-118.681
11
31.0167
21
-118.777
0
LINE
8
BLACK
6
CONTINUOUS
10
31.0167
20
-118.777
11
31.1119
21
-118.967
0
LINE
8
BLACK
6
CONTINUOUS
10
31.1119
20
-118.967
11
31.1119
21
-120.015
0
LINE
8
BLACK
6
CONTINUOUS
10
32.0643
20
-120.015
11
32.0643
21
-118.681
0
LINE
8
BLACK
6
CONTINUOUS
10
32.0643
20
-118.872
11
32.1595
21
-118.777
0
LINE
8
BLACK
6
CONTINUOUS
10
32.1595
20
-118.777
11
32.35
21
-118.681
0
LINE
8
BLACK
6
CONTINUOUS
10
32.35
20
-118.681
11
32.6357
21
-118.681
0
LINE
8
BLACK
6
CONTINUOUS
10
32.6357
20
-118.681
11
32.8262
21
-118.777
0
LINE
8
BLACK
6
CONTINUOUS
10
32.8262
20
-118.777
11
32.9214
21
-118.967
0
LINE
8
BLACK
6
CONTINUOUS
10
32.9214
20
-118.967
11
32.9214
21
-120.015
0
LINE
8
BLACK
6
CONTINUOUS
10
32.9214
20
-118.967
11
33.0167
21
-118.777
0
LINE
8
BLACK
6
CONTINUOUS
10
33.0167
20
-118.777
11
33.2071
21
-118.681
0
LINE
8
BLACK
6
CONTINUOUS
10
33.2071
20
-118.681
11
33.4929
21
-118.681
0
LINE
8
BLACK
6
CONTINUOUS
10
33.4929
20
-118.681
11
33.6833
21
-118.777
0
LINE
8
BLACK
6
CONTINUOUS
10
33.6833
20
-118.777
11
33.7786
21
-118.967
0
LINE
8
BLACK
6
CONTINUOUS
10
33.7786
20
-118.967
11
33.7786
21
-120.015
0
LINE
8
BLACK
6
CONTINUOUS
10
37.6833
20
-117.92
11
35.969
21
-120.491
0
LINE
8
BLACK
6
CONTINUOUS
10
40.2548
20
-118.015
11
40.4452
21
-118.015
0
LINE
8
BLACK
6
CONTINUOUS
10
40.4452
20
-118.015
11
40.6357
21
-118.11
0
LINE
8
BLACK
6
CONTINUOUS
10
40.6357
20
-118.11
11
40.731
21
-118.205
0
LINE
8
BLACK
6
CONTINUOUS
10
40.731
20
-118.205
11
40.8262
21
-118.396
0
LINE
8
BLACK
6
CONTINUOUS
10
40.8262
20
-118.396
11
40.9214
21
-118.777
0
LINE
8
BLACK
6
CONTINUOUS
10
40.9214
20
-118.777
11
40.9214
21
-119.253
0
LINE
8
BLACK
6
CONTINUOUS
10
40.9214
20
-119.253
11
40.8262
21
-119.634
0
LINE
8
BLACK
6
CONTINUOUS
10
40.8262
20
-119.634
11
40.731
21
-119.824
0
LINE
8
BLACK
6
CONTINUOUS
10
40.731
20
-119.824
11
40.6357
21
-119.92
0
LINE
8
BLACK
6
CONTINUOUS
10
40.6357
20
-119.92
11
40.4452
21
-120.015
0
LINE
8
BLACK
6
CONTINUOUS
10
40.4452
20
-120.015
11
40.2548
21
-120.015
0
LINE
8
BLACK
6
CONTINUOUS
10
40.2548
20
-120.015
11
40.0643
21
-119.92
0
LINE
8
BLACK
6
CONTINUOUS
10
40.0643
20
-119.92
11
39.969
21
-119.824
0
LINE
8
BLACK
6
CONTINUOUS
10
39.969
20
-119.824
11
39.8738
21
-119.634
0
LINE
8
BLACK
6
CONTINUOUS
10
39.8738
20
-119.634
11
39.7786
21
-119.253
0
LINE
8
BLACK
6
CONTINUOUS
10
39.7786
20
-119.253
11
39.7786
21
-118.777
0
LINE
8
BLACK
6
CONTINUOUS
10
39.7786
20
-118.777
11
39.8738
21
-118.396
0
LINE
8
BLACK
6
CONTINUOUS
10
39.8738
20
-118.396
11
39.969
21
-118.205
0
LINE
8
BLACK
6
CONTINUOUS
10
39.969
20
-118.205
11
40.0643
21
-118.11
0
LINE
8
BLACK
6
CONTINUOUS
10
40.0643
20
-118.11
11
40.2548
21
-118.015
0
LINE
8
BLACK
6
CONTINUOUS
10
41.7786
20
-119.824
11
41.8738
21
-119.92
0
LINE
8
BLACK
6
CONTINUOUS
10
41.8738
20
-119.92
11
41.7786
21
-120.015
0
LINE
8
BLACK
6
CONTINUOUS
10
41.7786
20
-120.015
11
41.6833
21
-119.92
0
LINE
8
BLACK
6
CONTINUOUS
10
41.6833
20
-119.92
11
41.7786
21
-119.824
0
LINE
8
BLACK
6
CONTINUOUS
10
41.7786
20
-119.824
11
41.7786
21
-120.015
0
LINE
8
BLACK
6
CONTINUOUS
10
43.1119
20
-118.015
11
43.3024
21
-118.015
0
LINE
8
BLACK
6
CONTINUOUS
10
43.3024
20
-118.015
11
43.4929
21
-118.11
0
LINE
8
BLACK
6
CONTINUOUS
10
43.4929
20
-118.11
11
43.5881
21
-118.205
0
LINE
8
BLACK
6
CONTINUOUS
10
43.5881
20
-118.205
11
43.6833
21
-118.396
0
LINE
8
BLACK
6
CONTINUOUS
10
43.6833
20
-118.396
11
43.7786
21
-118.777
0
LINE
8
BLACK
6
CONTINUOUS
10
43.7786
20
-118.777
11
43.7786
21
-119.253
0
LINE
8
BLACK
6
CONTINUOUS
10
43.7786
20
-119.253
11
43.6833
21
-119.634
0
LINE
8
BLACK
6
CONTINUOUS
10
43.6833
20
-119.634
11
43.5881
21
-119.824
0
LINE
8
BLACK
6
CONTINUOUS
10
43.5881
20
-119.824
11
43.4929
21
-119.92
0
LINE
8
BLACK
6
CONTINUOUS
10
43.4929
20
-119.92
11
43.3024
21
-120.015
0
LINE
8
BLACK
6
CONTINUOUS
10
43.3024
20
-120.015
11
43.1119
21
-120.015
0
LINE
8
BLACK
6
CONTINUOUS
10
43.1119
20
-120.015
11
42.9214
21
-119.92
0
LINE
8
BLACK
6
CONTINUOUS
10
42.9214
20
-119.92
11
42.8262
21
-119.824
0
LINE
8
BLACK
6
CONTINUOUS
10
42.8262
20
-119.824
11
42.731
21
-119.634
0
LINE
8
BLACK
6
CONTINUOUS
10
42.731
20
-119.634
11
42.6357
21
-119.253
0
LINE
8
BLACK
6
CONTINUOUS
10
42.6357
20
-119.253
11
42.6357
21
-118.777
0
LINE
8
BLACK
6
CONTINUOUS
10
42.6357
20
-118.777
11
42.731
21
-118.396
0
LINE
8
BLACK
6
CONTINUOUS
10
42.731
20
-118.396
11
42.8262
21
-118.205
0
LINE
8
BLACK
6
CONTINUOUS
10
42.8262
20
-118.205
11
42.9214
21
-118.11
0
LINE
8
BLACK
6
CONTINUOUS
10
42.9214
20
-118.11
11
43.1119
21
-118.015
0
LINE
8
BLACK
6
CONTINUOUS
10
44.731
20
-120.015
11
45.1119
21
-120.015
0
LINE
8
BLACK
6
CONTINUOUS
10
45.1119
20
-120.015
11
45.3024
21
-119.92
0
LINE
8
BLACK
6
CONTINUOUS
10
45.3024
20
-119.92
11
45.3976
21
-119.824
0
LINE
8
BLACK
6
CONTINUOUS
10
45.3976
20
-119.824
11
45.5881
21
-119.539
0
LINE
8
BLACK
6
CONTINUOUS
10
45.5881
20
-119.539
11
45.6833
21
-119.158
0
LINE
8
BLACK
6
CONTINUOUS
10
45.6833
20
-119.158
11
45.6833
21
-118.396
0
LINE
8
BLACK
6
CONTINUOUS
10
45.6833
20
-118.396
11
45.5881
21
-118.205
0
LINE
8
BLACK
6
CONTINUOUS
10
45.5881
20
-118.205
11
45.4929
21
-118.11
0
LINE
8
BLACK
6
CONTINUOUS
10
45.4929
20
-118.11
11
45.3024
21
-118.015
0
LINE
8
BLACK
6
CONTINUOUS
10
45.3024
20
-118.015
11
44.9214
21
-118.015
0
LINE
8
BLACK
6
CONTINUOUS
10
44.9214
20
-118.015
11
44.731
21
-118.11
0
LINE
8
BLACK
6
CONTINUOUS
10
44.731
20
-118.11
11
44.6357
21
-118.205
0
LINE
8
BLACK
6
CONTINUOUS
10
44.6357
20
-118.205
11
44.5405
21
-118.396
0
LINE
8
BLACK
6
CONTINUOUS
10
44.5405
20
-118.396
11
44.5405
21
-118.872
0
LINE
8
BLACK
6
CONTINUOUS
10
44.5405
20
-118.872
11
44.6357
21
-119.062
0
LINE
8
BLACK
6
CONTINUOUS
10
44.6357
20
-119.062
11
44.731
21
-119.158
0
LINE
8
BLACK
6
CONTINUOUS
10
44.731
20
-119.158
11
44.9214
21
-119.253
0
LINE
8
BLACK
6
CONTINUOUS
10
44.9214
20
-119.253
11
45.3024
21
-119.253
0
LINE
8
BLACK
6
CONTINUOUS
10
45.3024
20
-119.253
11
45.4929
21
-119.158
0
LINE
8
BLACK
6
CONTINUOUS
10
45.4929
20
-119.158
11
45.5881
21
-119.062
0
LINE
8
BLACK
6
CONTINUOUS
10
45.5881
20
-119.062
11
45.6833
21
-118.872
0
LINE
8
BLACK
6
CONTINUOUS
10
47.3976
20
-118.681
11
47.3976
21
-120.015
0
LINE
8
BLACK
6
CONTINUOUS
10
46.9214
20
-117.92
11
46.4452
21
-119.348
0
LINE
8
BLACK
6
CONTINUOUS
10
46.4452
20
-119.348
11
47.6833
21
-119.348
0
LINE
8
BLACK
6
CONTINUOUS
10
48.5405
20
-120.015
11
48.9214
21
-120.015
0
LINE
8
BLACK
6
CONTINUOUS
10
48.9214
20
-120.015
11
49.1119
21
-119.92
0
LINE
8
BLACK
6
CONTINUOUS
10
49.1119
20
-119.92
11
49.2071
21
-119.824
0
LINE
8
BLACK
6
CONTINUOUS
10
49.2071
20
-119.824
11
49.3976
21
-119.539
0
LINE
8
BLACK
6
CONTINUOUS
10
49.3976
20
-119.539
11
49.4929
21
-119.158
0
LINE
8
BLACK
6
CONTINUOUS
10
49.4929
20
-119.158
11
49.4929
21
-118.396
0
LINE
8
BLACK
6
CONTINUOUS
10
49.4929
20
-118.396
11
49.3976
21
-118.205
0
LINE
8
BLACK
6
CONTINUOUS
10
49.3976
20
-118.205
11
49.3024
21
-118.11
0
LINE
8
BLACK
6
CONTINUOUS
10
49.3024
20
-118.11
11
49.1119
21
-118.015
0
LINE
8
BLACK
6
CONTINUOUS
10
49.1119
20
-118.015
11
48.731
21
-118.015
0
LINE
8
BLACK
6
CONTINUOUS
10
48.731
20
-118.015
11
48.5405
21
-118.11
0
LINE
8
BLACK
6
CONTINUOUS
10
48.5405
20
-118.11
11
48.4452
21
-118.205
0
LINE
8
BLACK
6
CONTINUOUS
10
48.4452
20
-118.205
11
48.35
21
-118.396
0
LINE
8
BLACK
6
CONTINUOUS
10
48.35
20
-118.396
11
48.35
21
-118.872
0
LINE
8
BLACK
6
CONTINUOUS
10
48.35
20
-118.872
11
48.4452
21
-119.062
0
LINE
8
BLACK
6
CONTINUOUS
10
48.4452
20
-119.062
11
48.5405
21
-119.158
0
LINE
8
BLACK
6
CONTINUOUS
10
48.5405
20
-119.158
11
48.731
21
-119.253
0
LINE
8
BLACK
6
CONTINUOUS
10
48.731
20
-119.253
11
49.1119
21
-119.253
0
LINE
8
BLACK
6
CONTINUOUS
10
49.1119
20
-119.253
11
49.3024
21
-119.158
0
LINE
8
BLACK
6
CONTINUOUS
10
49.3024
20
-119.158
11
49.3976
21
-119.062
0
LINE
8
BLACK
6
CONTINUOUS
10
49.3976
20
-119.062
11
49.4929
21
-118.872
0
LINE
8
BLACK
6
CONTINUOUS
10
50.2548
20
-118.015
11
50.2548
21
-118.396
0
LINE
8
BLACK
6
CONTINUOUS
10
51.0167
20
-118.015
11
51.0167
21
-118.396
0
LINE
8
BLACK
6
CONTINUOUS
10
53.969
20
-120.777
11
53.8738
21
-120.681
0
LINE
8
BLACK
6
CONTINUOUS
10
53.8738
20
-120.681
11
53.6833
21
-120.396
0
LINE
8
BLACK
6
CONTINUOUS
10
53.6833
20
-120.396
11
53.5881
21
-120.205
0
LINE
8
BLACK
6
CONTINUOUS
10
53.5881
20
-120.205
11
53.4929
21
-119.92
0
LINE
8
BLACK
6
CONTINUOUS
10
53.4929
20
-119.92
11
53.3976
21
-119.443
0
LINE
8
BLACK
6
CONTINUOUS
10
53.3976
20
-119.443
11
53.3976
21
-119.062
0
LINE
8
BLACK
6
CONTINUOUS
10
53.3976
20
-119.062
11
53.4929
21
-118.586
0
LINE
8
BLACK
6
CONTINUOUS
10
53.4929
20
-118.586
11
53.5881
21
-118.3
0
LINE
8
BLACK
6
CONTINUOUS
10
53.5881
20
-118.3
11
53.6833
21
-118.11
0
LINE
8
BLACK
6
CONTINUOUS
10
53.6833
20
-118.11
11
53.8738
21
-117.824
0
LINE
8
BLACK
6
CONTINUOUS
10
53.8738
20
-117.824
11
53.969
21
-117.729
0
LINE
8
BLACK
6
CONTINUOUS
10
54.6357
20
-118.205
11
54.731
21
-118.11
0
LINE
8
BLACK
6
CONTINUOUS
10
54.731
20
-118.11
11
54.9214
21
-118.015
0
LINE
8
BLACK
6
CONTINUOUS
10
54.9214
20
-118.015
11
55.3976
21
-118.015
0
LINE
8
BLACK
6
CONTINUOUS
10
55.3976
20
-118.015
11
55.5881
21
-118.11
0
LINE
8
BLACK
6
CONTINUOUS
10
55.5881
20
-118.11
11
55.6833
21
-118.205
0
LINE
8
BLACK
6
CONTINUOUS
10
55.6833
20
-118.205
11
55.7786
21
-118.396
0
LINE
8
BLACK
6
CONTINUOUS
10
55.7786
20
-118.396
11
55.7786
21
-118.586
0
LINE
8
BLACK
6
CONTINUOUS
10
55.7786
20
-118.586
11
55.6833
21
-118.872
0
LINE
8
BLACK
6
CONTINUOUS
10
55.6833
20
-118.872
11
54.5405
21
-120.015
0
LINE
8
BLACK
6
CONTINUOUS
10
54.5405
20
-120.015
11
55.7786
21
-120.015
0
LINE
8
BLACK
6
CONTINUOUS
10
58.1595
20
-120.015
11
58.1595
21
-118.015
0
LINE
8
BLACK
6
CONTINUOUS
10
59.0167
20
-120.015
11
59.0167
21
-118.967
0
LINE
8
BLACK
6
CONTINUOUS
10
59.0167
20
-118.967
11
58.9214
21
-118.777
0
LINE
8
BLACK
6
CONTINUOUS
10
58.9214
20
-118.777
11
58.731
21
-118.681
0
LINE
8
BLACK
6
CONTINUOUS
10
58.731
20
-118.681
11
58.4452
21
-118.681
0
LINE
8
BLACK
6
CONTINUOUS
10
58.4452
20
-118.681
11
58.2548
21
-118.777
0
LINE
8
BLACK
6
CONTINUOUS
10
58.2548
20
-118.777
11
58.1595
21
-118.872
0
LINE
8
BLACK
6
CONTINUOUS
10
60.2548
20
-120.015
11
60.0643
21
-119.92
0
LINE
8
BLACK
6
CONTINUOUS
10
60.0643
20
-119.92
11
59.969
21
-119.824
0
LINE
8
BLACK
6
CONTINUOUS
10
59.969
20
-119.824
11
59.8738
21
-119.634
0
LINE
8
BLACK
6
CONTINUOUS
10
59.8738
20
-119.634
11
59.8738
21
-119.062
0
LINE
8
BLACK
6
CONTINUOUS
10
59.8738
20
-119.062
11
59.969
21
-118.872
0
LINE
8
BLACK
6
CONTINUOUS
10
59.969
20
-118.872
11
60.0643
21
-118.777
0
LINE
8
BLACK
6
CONTINUOUS
10
60.0643
20
-118.777
11
60.2548
21
-118.681
0
LINE
8
BLACK
6
CONTINUOUS
10
60.2548
20
-118.681
11
60.5405
21
-118.681
0
LINE
8
BLACK
6
CONTINUOUS
10
60.5405
20
-118.681
11
60.731
21
-118.777
0
LINE
8
BLACK
6
CONTINUOUS
10
60.731
20
-118.777
11
60.8262
21
-118.872
0
LINE
8
BLACK
6
CONTINUOUS
10
60.8262
20
-118.872
11
60.9214
21
-119.062
0
LINE
8
BLACK
6
CONTINUOUS
10
60.9214
20
-119.062
11
60.9214
21
-119.634
0
LINE
8
BLACK
6
CONTINUOUS
10
60.9214
20
-119.634
11
60.8262
21
-119.824
0
LINE
8
BLACK
6
CONTINUOUS
10
60.8262
20
-119.824
11
60.731
21
-119.92
0
LINE
8
BLACK
6
CONTINUOUS
10
60.731
20
-119.92
11
60.5405
21
-120.015
0
LINE
8
BLACK
6
CONTINUOUS
10
60.5405
20
-120.015
11
60.2548
21
-120.015
0
LINE
8
BLACK
6
CONTINUOUS
10
62.0643
20
-120.015
11
61.8738
21
-119.92
0
LINE
8
BLACK
6
CONTINUOUS
10
61.8738
20
-119.92
11
61.7786
21
-119.729
0
LINE
8
BLACK
6
CONTINUOUS
10
61.7786
20
-119.729
11
61.7786
21
-118.015
0
LINE
8
BLACK
6
CONTINUOUS
10
63.5881
20
-119.92
11
63.3976
21
-120.015
0
LINE
8
BLACK
6
CONTINUOUS
10
63.3976
20
-120.015
11
63.0167
21
-120.015
0
LINE
8
BLACK
6
CONTINUOUS
10
63.0167
20
-120.015
11
62.8262
21
-119.92
0
LINE
8
BLACK
6
CONTINUOUS
10
62.8262
20
-119.92
11
62.731
21
-119.729
0
LINE
8
BLACK
6
CONTINUOUS
10
62.731
20
-119.729
11
62.731
21
-118.967
0
LINE
8
BLACK
6
CONTINUOUS
10
62.731
20
-118.967
11
62.8262
21
-118.777
0
LINE
8
BLACK
6
CONTINUOUS
10
62.8262
20
-118.777
11
63.0167
21
-118.681
0
LINE
8
BLACK
6
CONTINUOUS
10
63.0167
20
-118.681
11
63.3976
21
-118.681
0
LINE
8
BLACK
6
CONTINUOUS
10
63.3976
20
-118.681
11
63.5881
21
-118.777
0
LINE
8
BLACK
6
CONTINUOUS
10
63.5881
20
-118.777
11
63.6833
21
-118.967
0
LINE
8
BLACK
6
CONTINUOUS
10
63.6833
20
-118.967
11
63.6833
21
-119.158
0
LINE
8
BLACK
6
CONTINUOUS
10
63.6833
20
-119.158
11
62.731
21
-119.348
0
LINE
8
BLACK
6
CONTINUOUS
10
64.4452
20
-119.92
11
64.6357
21
-120.015
0
LINE
8
BLACK
6
CONTINUOUS
10
64.6357
20
-120.015
11
65.0167
21
-120.015
0
LINE
8
BLACK
6
CONTINUOUS
10
65.0167
20
-120.015
11
65.2071
21
-119.92
0
LINE
8
BLACK
6
CONTINUOUS
10
65.2071
20
-119.92
11
65.3024
21
-119.729
0
LINE
8
BLACK
6
CONTINUOUS
10
65.3024
20
-119.729
11
65.3024
21
-119.634
0
LINE
8
BLACK
6
CONTINUOUS
10
65.3024
20
-119.634
11
65.2071
21
-119.443
0
LINE
8
BLACK
6
CONTINUOUS
10
65.2071
20
-119.443
11
65.0167
21
-119.348
0
LINE
8
BLACK
6
CONTINUOUS
10
65.0167
20
-119.348
11
64.731
21
-119.348
0
LINE
8
BLACK
6
CONTINUOUS
10
64.731
20
-119.348
11
64.5405
21
-119.253
0
LINE
8
BLACK
6
CONTINUOUS
10
64.5405
20
-119.253
11
64.4452
21
-119.062
0
LINE
8
BLACK
6
CONTINUOUS
10
64.4452
20
-119.062
11
64.4452
21
-118.967
0
LINE
8
BLACK
6
CONTINUOUS
10
64.4452
20
-118.967
11
64.5405
21
-118.777
0
LINE
8
BLACK
6
CONTINUOUS
10
64.5405
20
-118.777
11
64.731
21
-118.681
0
LINE
8
BLACK
6
CONTINUOUS
10
64.731
20
-118.681
11
65.0167
21
-118.681
0
LINE
8
BLACK
6
CONTINUOUS
10
65.0167
20
-118.681
11
65.2071
21
-118.777
0
LINE
8
BLACK
6
CONTINUOUS
10
65.969
20
-120.777
11
66.0643
21
-120.681
0
LINE
8
BLACK
6
CONTINUOUS
10
66.0643
20
-120.681
11
66.2548
21
-120.396
0
LINE
8
BLACK
6
CONTINUOUS
10
66.2548
20
-120.396
11
66.35
21
-120.205
0
LINE
8
BLACK
6
CONTINUOUS
10
66.35
20
-120.205
11
66.4452
21
-119.92
0
LINE
8
BLACK
6
CONTINUOUS
10
66.4452
20
-119.92
11
66.5405
21
-119.443
0
LINE
8
BLACK
6
CONTINUOUS
10
66.5405
20
-119.443
11
66.5405
21
-119.062
0
LINE
8
BLACK
6
CONTINUOUS
10
66.5405
20
-119.062
11
66.4452
21
-118.586
0
LINE
8
BLACK
6
CONTINUOUS
10
66.4452
20
-118.586
11
66.35
21
-118.3
0
LINE
8
BLACK
6
CONTINUOUS
10
66.35
20
-118.3
11
66.2548
21
-118.11
0
LINE
8
BLACK
6
CONTINUOUS
10
66.2548
20
-118.11
11
66.0643
21
-117.824
0
LINE
8
BLACK
6
CONTINUOUS
10
66.0643
20
-117.824
11
65.969
21
-117.729
  0
ENDSEC
  0
EOF
