%TF.GenerationSoftware,KiCad,Pcbnew,(6.0.7)*%
%TF.CreationDate,2023-09-07T13:28:03+01:00*%
%TF.ProjectId,CCC_rig_NTC_in,4343435f-7269-4675-9f4e-54435f696e2e,rev?*%
%TF.SameCoordinates,Original*%
%TF.FileFunction,Legend,Top*%
%TF.FilePolarity,Positive*%
%FSLAX46Y46*%
G04 Gerber Fmt 4.6, Leading zero omitted, Abs format (unit mm)*
G04 Created by KiCad (PCBNEW (6.0.7)) date 2023-09-07 13:28:03*
%MOMM*%
%LPD*%
G01*
G04 APERTURE LIST*
%ADD10C,0.200000*%
%ADD11C,0.100427*%
%ADD12C,0.150000*%
%ADD13C,0.300000*%
%ADD14C,0.254000*%
%ADD15C,0.120000*%
%ADD16C,0.100000*%
%ADD17C,0.127000*%
G04 APERTURE END LIST*
D10*
G36*
X21069073Y-64956029D02*
G01*
X21069072Y-64956031D01*
X21069072Y-64956027D01*
X21069073Y-64956029D01*
G37*
X21069073Y-64956029D02*
X21069072Y-64956031D01*
X21069072Y-64956027D01*
X21069073Y-64956029D01*
G36*
X25221385Y-55292044D02*
G01*
X25440697Y-55307238D01*
X25550343Y-55318336D01*
X25659854Y-55331843D01*
X25769137Y-55347817D01*
X25878096Y-55366312D01*
X25986636Y-55387387D01*
X26094663Y-55411097D01*
X26202081Y-55437499D01*
X26308796Y-55466650D01*
X26414712Y-55498606D01*
X26519735Y-55533424D01*
X26623770Y-55571160D01*
X26726722Y-55611870D01*
X26828495Y-55655612D01*
X26928996Y-55702441D01*
X27031488Y-55752583D01*
X27135553Y-55806608D01*
X27241023Y-55864753D01*
X27347729Y-55927255D01*
X27455503Y-55994351D01*
X27564177Y-56066280D01*
X27673584Y-56143277D01*
X27783553Y-56225581D01*
X27893918Y-56313429D01*
X28004509Y-56407057D01*
X28115160Y-56506704D01*
X28225700Y-56612606D01*
X28335963Y-56725001D01*
X28445780Y-56844126D01*
X28554982Y-56970218D01*
X28663402Y-57103514D01*
X27929255Y-57864695D01*
X27837737Y-57757267D01*
X27743684Y-57653978D01*
X27647505Y-57554916D01*
X27549603Y-57460166D01*
X27450386Y-57369816D01*
X27350260Y-57283954D01*
X27249631Y-57202664D01*
X27148904Y-57126035D01*
X27048486Y-57054153D01*
X26948783Y-56987104D01*
X26850201Y-56924976D01*
X26753145Y-56867856D01*
X26658023Y-56815830D01*
X26565240Y-56768984D01*
X26475203Y-56727407D01*
X26388316Y-56691184D01*
X26323344Y-56660796D01*
X26257004Y-56632687D01*
X26189389Y-56606770D01*
X26120595Y-56582958D01*
X26050717Y-56561164D01*
X25979849Y-56541302D01*
X25908087Y-56523286D01*
X25835525Y-56507028D01*
X25762258Y-56492442D01*
X25688381Y-56479441D01*
X25539176Y-56457849D01*
X25388670Y-56441559D01*
X25237620Y-56429877D01*
X25140202Y-56426499D01*
X25044075Y-56428658D01*
X24949370Y-56436086D01*
X24856215Y-56448515D01*
X24764740Y-56465678D01*
X24675075Y-56487308D01*
X24587348Y-56513137D01*
X24501689Y-56542897D01*
X24418227Y-56576322D01*
X24337092Y-56613143D01*
X24258413Y-56653093D01*
X24182319Y-56695905D01*
X24108940Y-56741312D01*
X24038404Y-56789045D01*
X23970842Y-56838837D01*
X23906383Y-56890422D01*
X23846561Y-56943557D01*
X23790621Y-56998181D01*
X23738561Y-57054299D01*
X23690376Y-57111914D01*
X23646064Y-57171029D01*
X23605622Y-57231649D01*
X23569046Y-57293778D01*
X23536334Y-57357419D01*
X23507482Y-57422575D01*
X23482487Y-57489252D01*
X23461346Y-57557452D01*
X23444056Y-57627179D01*
X23430613Y-57698438D01*
X23421015Y-57771232D01*
X23415259Y-57845564D01*
X23413341Y-57921439D01*
X23414030Y-57967918D01*
X23416098Y-58014216D01*
X23419544Y-58060331D01*
X23424370Y-58106265D01*
X23430574Y-58152016D01*
X23438156Y-58197586D01*
X23447118Y-58242974D01*
X23457458Y-58288180D01*
X23469176Y-58333204D01*
X23482273Y-58378046D01*
X23496749Y-58422706D01*
X23512604Y-58467184D01*
X23529837Y-58511481D01*
X23548449Y-58555595D01*
X23568439Y-58599528D01*
X23589808Y-58643279D01*
X23613004Y-58687181D01*
X23638475Y-58731568D01*
X23666221Y-58776440D01*
X23696241Y-58821797D01*
X23728536Y-58867640D01*
X23763106Y-58913967D01*
X23799951Y-58960780D01*
X23839070Y-59008078D01*
X23880464Y-59055861D01*
X23924133Y-59104130D01*
X23970077Y-59152883D01*
X24018295Y-59202121D01*
X24068787Y-59251845D01*
X24121554Y-59302053D01*
X24176596Y-59352747D01*
X24233912Y-59403926D01*
X24316083Y-59469294D01*
X24434648Y-59556735D01*
X24589609Y-59666248D01*
X24780967Y-59797834D01*
X25008721Y-59951492D01*
X25272871Y-60127223D01*
X25573419Y-60325026D01*
X25910365Y-60544902D01*
X26315141Y-60814742D01*
X26686827Y-61077063D01*
X27025425Y-61331866D01*
X27330935Y-61579149D01*
X27471283Y-61699971D01*
X27603358Y-61818913D01*
X27727161Y-61935976D01*
X27842693Y-62051158D01*
X27949953Y-62164461D01*
X28048941Y-62275884D01*
X28139657Y-62385427D01*
X28222102Y-62493090D01*
X28297961Y-62599844D01*
X28368926Y-62706658D01*
X28434997Y-62813533D01*
X28496174Y-62920469D01*
X28552456Y-63027466D01*
X28603845Y-63134523D01*
X28650339Y-63241640D01*
X28691939Y-63348819D01*
X28728645Y-63456058D01*
X28760457Y-63563358D01*
X28787375Y-63670718D01*
X28809399Y-63778139D01*
X28826528Y-63885621D01*
X28838763Y-63993163D01*
X28846105Y-64100766D01*
X28848552Y-64208430D01*
X28844347Y-64362391D01*
X28831732Y-64513806D01*
X28810708Y-64662673D01*
X28781275Y-64808994D01*
X28743431Y-64952768D01*
X28697178Y-65093995D01*
X28642515Y-65232675D01*
X28579442Y-65368808D01*
X28507959Y-65502394D01*
X28428067Y-65633434D01*
X28339765Y-65761927D01*
X28243053Y-65887873D01*
X28137931Y-66011273D01*
X28024399Y-66132125D01*
X27902457Y-66250431D01*
X27772105Y-66366191D01*
X27628172Y-66467489D01*
X27483941Y-66563662D01*
X27338940Y-66654549D01*
X27192697Y-66739989D01*
X27044740Y-66819823D01*
X26894599Y-66893889D01*
X26741800Y-66962027D01*
X26585872Y-67024078D01*
X26426343Y-67079880D01*
X26262742Y-67129274D01*
X26094598Y-67172098D01*
X25921437Y-67208193D01*
X25742788Y-67237398D01*
X25558181Y-67259552D01*
X25367142Y-67274496D01*
X25169200Y-67282069D01*
X25015583Y-67282851D01*
X24864796Y-67279320D01*
X24716737Y-67271512D01*
X24571307Y-67259463D01*
X24428405Y-67243207D01*
X24287931Y-67222780D01*
X24149786Y-67198217D01*
X24013867Y-67169554D01*
X23880076Y-67136826D01*
X23748313Y-67100068D01*
X23618476Y-67059316D01*
X23490465Y-67014605D01*
X23364181Y-66965970D01*
X23239524Y-66913447D01*
X23116392Y-66857071D01*
X22994685Y-66796878D01*
X22873345Y-66724358D01*
X22750058Y-66646468D01*
X22625267Y-66563142D01*
X22499421Y-66474317D01*
X22372963Y-66379928D01*
X22246341Y-66279911D01*
X22119998Y-66174202D01*
X21994382Y-66062735D01*
X21869937Y-65945447D01*
X21747110Y-65822273D01*
X21626346Y-65693149D01*
X21508091Y-65558011D01*
X21392790Y-65416794D01*
X21280890Y-65269434D01*
X21172835Y-65115866D01*
X21069073Y-64956029D01*
X21795497Y-64205058D01*
X21879106Y-64337497D01*
X21965124Y-64464864D01*
X22053426Y-64587210D01*
X22143886Y-64704583D01*
X22236381Y-64817033D01*
X22330783Y-64924608D01*
X22426970Y-65027359D01*
X22524816Y-65125334D01*
X22624195Y-65218583D01*
X22724982Y-65307155D01*
X22930284Y-65470464D01*
X23139720Y-65615656D01*
X23352290Y-65743125D01*
X23566995Y-65853265D01*
X23782834Y-65946470D01*
X23998807Y-66023135D01*
X24213914Y-66083653D01*
X24427155Y-66128419D01*
X24637530Y-66157827D01*
X24844038Y-66172271D01*
X25045680Y-66172145D01*
X25207611Y-66163449D01*
X25367092Y-66148932D01*
X25445911Y-66139316D01*
X25524116Y-66128035D01*
X25601704Y-66115019D01*
X25678676Y-66100197D01*
X25755029Y-66083501D01*
X25830763Y-66064860D01*
X25905878Y-66044204D01*
X25980372Y-66021462D01*
X26054244Y-65996566D01*
X26127493Y-65969445D01*
X26200119Y-65940029D01*
X26272120Y-65908248D01*
X26342743Y-65873593D01*
X26411229Y-65837543D01*
X26477578Y-65800099D01*
X26541789Y-65761260D01*
X26603864Y-65721027D01*
X26663801Y-65679399D01*
X26721601Y-65636376D01*
X26777265Y-65591958D01*
X26830791Y-65546146D01*
X26882180Y-65498939D01*
X26931432Y-65450337D01*
X26978548Y-65400341D01*
X27023526Y-65348950D01*
X27066368Y-65296164D01*
X27107072Y-65241983D01*
X27145640Y-65186408D01*
X27181968Y-65129923D01*
X27215952Y-65073013D01*
X27247593Y-65015680D01*
X27276890Y-64957921D01*
X27303843Y-64899739D01*
X27328452Y-64841132D01*
X27350718Y-64782100D01*
X27370641Y-64722644D01*
X27388219Y-64662764D01*
X27403454Y-64602459D01*
X27416345Y-64541729D01*
X27426892Y-64480575D01*
X27435096Y-64418997D01*
X27440956Y-64356994D01*
X27444471Y-64294567D01*
X27445643Y-64231715D01*
X27443920Y-64160010D01*
X27438750Y-64088487D01*
X27430133Y-64017146D01*
X27418069Y-63945987D01*
X27402559Y-63875009D01*
X27383601Y-63804214D01*
X27361198Y-63733601D01*
X27335347Y-63663169D01*
X27306050Y-63592919D01*
X27273306Y-63522852D01*
X27237116Y-63452966D01*
X27197479Y-63383262D01*
X27154396Y-63313740D01*
X27107866Y-63244400D01*
X27057889Y-63175241D01*
X27004466Y-63106265D01*
X26924436Y-63009972D01*
X26836548Y-62911253D01*
X26740800Y-62810108D01*
X26637194Y-62706538D01*
X26525730Y-62600543D01*
X26406407Y-62492121D01*
X26279225Y-62381275D01*
X26144185Y-62268002D01*
X26001287Y-62152304D01*
X25850530Y-62034180D01*
X25691915Y-61913631D01*
X25525442Y-61790656D01*
X25351111Y-61665256D01*
X25168922Y-61537430D01*
X24978875Y-61407178D01*
X24780971Y-61274501D01*
X24394258Y-61014119D01*
X24045871Y-60772414D01*
X23735811Y-60549386D01*
X23464078Y-60345034D01*
X23230672Y-60159360D01*
X23035593Y-59992362D01*
X22878841Y-59844041D01*
X22814838Y-59776884D01*
X22760417Y-59714396D01*
X22677077Y-59612978D01*
X22599115Y-59510529D01*
X22526529Y-59407050D01*
X22459320Y-59302539D01*
X22397488Y-59196998D01*
X22341032Y-59090425D01*
X22289954Y-58982822D01*
X22244252Y-58874189D01*
X22203927Y-58764524D01*
X22168979Y-58653828D01*
X22139407Y-58542102D01*
X22115213Y-58429345D01*
X22096394Y-58315557D01*
X22082953Y-58200738D01*
X22074888Y-58084889D01*
X22072200Y-57968009D01*
X22073785Y-57875384D01*
X22078541Y-57783789D01*
X22086468Y-57693226D01*
X22097566Y-57603693D01*
X22111834Y-57515191D01*
X22129274Y-57427721D01*
X22149884Y-57341281D01*
X22173665Y-57255871D01*
X22200617Y-57171493D01*
X22230740Y-57088146D01*
X22264034Y-57005829D01*
X22300499Y-56924544D01*
X22340135Y-56844289D01*
X22382941Y-56765065D01*
X22428919Y-56686872D01*
X22478068Y-56609709D01*
X22530078Y-56534093D01*
X22584639Y-56460538D01*
X22641749Y-56389045D01*
X22701411Y-56319614D01*
X22763623Y-56252244D01*
X22828385Y-56186937D01*
X22895698Y-56123691D01*
X22965562Y-56062506D01*
X23037976Y-56003384D01*
X23112940Y-55946323D01*
X23190455Y-55891324D01*
X23270519Y-55838387D01*
X23353135Y-55787511D01*
X23438300Y-55738697D01*
X23526016Y-55691944D01*
X23616282Y-55647254D01*
X23709407Y-55603732D01*
X23803490Y-55562504D01*
X23898532Y-55523689D01*
X23994532Y-55487403D01*
X24091491Y-55453764D01*
X24189409Y-55422889D01*
X24288287Y-55394897D01*
X24388123Y-55369904D01*
X24488920Y-55348028D01*
X24590677Y-55329386D01*
X24693393Y-55314097D01*
X24797070Y-55302277D01*
X24901708Y-55294044D01*
X25007306Y-55289516D01*
X25113865Y-55288811D01*
X25221385Y-55292044D01*
G37*
X25221385Y-55292044D02*
X25440697Y-55307238D01*
X25550343Y-55318336D01*
X25659854Y-55331843D01*
X25769137Y-55347817D01*
X25878096Y-55366312D01*
X25986636Y-55387387D01*
X26094663Y-55411097D01*
X26202081Y-55437499D01*
X26308796Y-55466650D01*
X26414712Y-55498606D01*
X26519735Y-55533424D01*
X26623770Y-55571160D01*
X26726722Y-55611870D01*
X26828495Y-55655612D01*
X26928996Y-55702441D01*
X27031488Y-55752583D01*
X27135553Y-55806608D01*
X27241023Y-55864753D01*
X27347729Y-55927255D01*
X27455503Y-55994351D01*
X27564177Y-56066280D01*
X27673584Y-56143277D01*
X27783553Y-56225581D01*
X27893918Y-56313429D01*
X28004509Y-56407057D01*
X28115160Y-56506704D01*
X28225700Y-56612606D01*
X28335963Y-56725001D01*
X28445780Y-56844126D01*
X28554982Y-56970218D01*
X28663402Y-57103514D01*
X27929255Y-57864695D01*
X27837737Y-57757267D01*
X27743684Y-57653978D01*
X27647505Y-57554916D01*
X27549603Y-57460166D01*
X27450386Y-57369816D01*
X27350260Y-57283954D01*
X27249631Y-57202664D01*
X27148904Y-57126035D01*
X27048486Y-57054153D01*
X26948783Y-56987104D01*
X26850201Y-56924976D01*
X26753145Y-56867856D01*
X26658023Y-56815830D01*
X26565240Y-56768984D01*
X26475203Y-56727407D01*
X26388316Y-56691184D01*
X26323344Y-56660796D01*
X26257004Y-56632687D01*
X26189389Y-56606770D01*
X26120595Y-56582958D01*
X26050717Y-56561164D01*
X25979849Y-56541302D01*
X25908087Y-56523286D01*
X25835525Y-56507028D01*
X25762258Y-56492442D01*
X25688381Y-56479441D01*
X25539176Y-56457849D01*
X25388670Y-56441559D01*
X25237620Y-56429877D01*
X25140202Y-56426499D01*
X25044075Y-56428658D01*
X24949370Y-56436086D01*
X24856215Y-56448515D01*
X24764740Y-56465678D01*
X24675075Y-56487308D01*
X24587348Y-56513137D01*
X24501689Y-56542897D01*
X24418227Y-56576322D01*
X24337092Y-56613143D01*
X24258413Y-56653093D01*
X24182319Y-56695905D01*
X24108940Y-56741312D01*
X24038404Y-56789045D01*
X23970842Y-56838837D01*
X23906383Y-56890422D01*
X23846561Y-56943557D01*
X23790621Y-56998181D01*
X23738561Y-57054299D01*
X23690376Y-57111914D01*
X23646064Y-57171029D01*
X23605622Y-57231649D01*
X23569046Y-57293778D01*
X23536334Y-57357419D01*
X23507482Y-57422575D01*
X23482487Y-57489252D01*
X23461346Y-57557452D01*
X23444056Y-57627179D01*
X23430613Y-57698438D01*
X23421015Y-57771232D01*
X23415259Y-57845564D01*
X23413341Y-57921439D01*
X23414030Y-57967918D01*
X23416098Y-58014216D01*
X23419544Y-58060331D01*
X23424370Y-58106265D01*
X23430574Y-58152016D01*
X23438156Y-58197586D01*
X23447118Y-58242974D01*
X23457458Y-58288180D01*
X23469176Y-58333204D01*
X23482273Y-58378046D01*
X23496749Y-58422706D01*
X23512604Y-58467184D01*
X23529837Y-58511481D01*
X23548449Y-58555595D01*
X23568439Y-58599528D01*
X23589808Y-58643279D01*
X23613004Y-58687181D01*
X23638475Y-58731568D01*
X23666221Y-58776440D01*
X23696241Y-58821797D01*
X23728536Y-58867640D01*
X23763106Y-58913967D01*
X23799951Y-58960780D01*
X23839070Y-59008078D01*
X23880464Y-59055861D01*
X23924133Y-59104130D01*
X23970077Y-59152883D01*
X24018295Y-59202121D01*
X24068787Y-59251845D01*
X24121554Y-59302053D01*
X24176596Y-59352747D01*
X24233912Y-59403926D01*
X24316083Y-59469294D01*
X24434648Y-59556735D01*
X24589609Y-59666248D01*
X24780967Y-59797834D01*
X25008721Y-59951492D01*
X25272871Y-60127223D01*
X25573419Y-60325026D01*
X25910365Y-60544902D01*
X26315141Y-60814742D01*
X26686827Y-61077063D01*
X27025425Y-61331866D01*
X27330935Y-61579149D01*
X27471283Y-61699971D01*
X27603358Y-61818913D01*
X27727161Y-61935976D01*
X27842693Y-62051158D01*
X27949953Y-62164461D01*
X28048941Y-62275884D01*
X28139657Y-62385427D01*
X28222102Y-62493090D01*
X28297961Y-62599844D01*
X28368926Y-62706658D01*
X28434997Y-62813533D01*
X28496174Y-62920469D01*
X28552456Y-63027466D01*
X28603845Y-63134523D01*
X28650339Y-63241640D01*
X28691939Y-63348819D01*
X28728645Y-63456058D01*
X28760457Y-63563358D01*
X28787375Y-63670718D01*
X28809399Y-63778139D01*
X28826528Y-63885621D01*
X28838763Y-63993163D01*
X28846105Y-64100766D01*
X28848552Y-64208430D01*
X28844347Y-64362391D01*
X28831732Y-64513806D01*
X28810708Y-64662673D01*
X28781275Y-64808994D01*
X28743431Y-64952768D01*
X28697178Y-65093995D01*
X28642515Y-65232675D01*
X28579442Y-65368808D01*
X28507959Y-65502394D01*
X28428067Y-65633434D01*
X28339765Y-65761927D01*
X28243053Y-65887873D01*
X28137931Y-66011273D01*
X28024399Y-66132125D01*
X27902457Y-66250431D01*
X27772105Y-66366191D01*
X27628172Y-66467489D01*
X27483941Y-66563662D01*
X27338940Y-66654549D01*
X27192697Y-66739989D01*
X27044740Y-66819823D01*
X26894599Y-66893889D01*
X26741800Y-66962027D01*
X26585872Y-67024078D01*
X26426343Y-67079880D01*
X26262742Y-67129274D01*
X26094598Y-67172098D01*
X25921437Y-67208193D01*
X25742788Y-67237398D01*
X25558181Y-67259552D01*
X25367142Y-67274496D01*
X25169200Y-67282069D01*
X25015583Y-67282851D01*
X24864796Y-67279320D01*
X24716737Y-67271512D01*
X24571307Y-67259463D01*
X24428405Y-67243207D01*
X24287931Y-67222780D01*
X24149786Y-67198217D01*
X24013867Y-67169554D01*
X23880076Y-67136826D01*
X23748313Y-67100068D01*
X23618476Y-67059316D01*
X23490465Y-67014605D01*
X23364181Y-66965970D01*
X23239524Y-66913447D01*
X23116392Y-66857071D01*
X22994685Y-66796878D01*
X22873345Y-66724358D01*
X22750058Y-66646468D01*
X22625267Y-66563142D01*
X22499421Y-66474317D01*
X22372963Y-66379928D01*
X22246341Y-66279911D01*
X22119998Y-66174202D01*
X21994382Y-66062735D01*
X21869937Y-65945447D01*
X21747110Y-65822273D01*
X21626346Y-65693149D01*
X21508091Y-65558011D01*
X21392790Y-65416794D01*
X21280890Y-65269434D01*
X21172835Y-65115866D01*
X21069073Y-64956029D01*
X21795497Y-64205058D01*
X21879106Y-64337497D01*
X21965124Y-64464864D01*
X22053426Y-64587210D01*
X22143886Y-64704583D01*
X22236381Y-64817033D01*
X22330783Y-64924608D01*
X22426970Y-65027359D01*
X22524816Y-65125334D01*
X22624195Y-65218583D01*
X22724982Y-65307155D01*
X22930284Y-65470464D01*
X23139720Y-65615656D01*
X23352290Y-65743125D01*
X23566995Y-65853265D01*
X23782834Y-65946470D01*
X23998807Y-66023135D01*
X24213914Y-66083653D01*
X24427155Y-66128419D01*
X24637530Y-66157827D01*
X24844038Y-66172271D01*
X25045680Y-66172145D01*
X25207611Y-66163449D01*
X25367092Y-66148932D01*
X25445911Y-66139316D01*
X25524116Y-66128035D01*
X25601704Y-66115019D01*
X25678676Y-66100197D01*
X25755029Y-66083501D01*
X25830763Y-66064860D01*
X25905878Y-66044204D01*
X25980372Y-66021462D01*
X26054244Y-65996566D01*
X26127493Y-65969445D01*
X26200119Y-65940029D01*
X26272120Y-65908248D01*
X26342743Y-65873593D01*
X26411229Y-65837543D01*
X26477578Y-65800099D01*
X26541789Y-65761260D01*
X26603864Y-65721027D01*
X26663801Y-65679399D01*
X26721601Y-65636376D01*
X26777265Y-65591958D01*
X26830791Y-65546146D01*
X26882180Y-65498939D01*
X26931432Y-65450337D01*
X26978548Y-65400341D01*
X27023526Y-65348950D01*
X27066368Y-65296164D01*
X27107072Y-65241983D01*
X27145640Y-65186408D01*
X27181968Y-65129923D01*
X27215952Y-65073013D01*
X27247593Y-65015680D01*
X27276890Y-64957921D01*
X27303843Y-64899739D01*
X27328452Y-64841132D01*
X27350718Y-64782100D01*
X27370641Y-64722644D01*
X27388219Y-64662764D01*
X27403454Y-64602459D01*
X27416345Y-64541729D01*
X27426892Y-64480575D01*
X27435096Y-64418997D01*
X27440956Y-64356994D01*
X27444471Y-64294567D01*
X27445643Y-64231715D01*
X27443920Y-64160010D01*
X27438750Y-64088487D01*
X27430133Y-64017146D01*
X27418069Y-63945987D01*
X27402559Y-63875009D01*
X27383601Y-63804214D01*
X27361198Y-63733601D01*
X27335347Y-63663169D01*
X27306050Y-63592919D01*
X27273306Y-63522852D01*
X27237116Y-63452966D01*
X27197479Y-63383262D01*
X27154396Y-63313740D01*
X27107866Y-63244400D01*
X27057889Y-63175241D01*
X27004466Y-63106265D01*
X26924436Y-63009972D01*
X26836548Y-62911253D01*
X26740800Y-62810108D01*
X26637194Y-62706538D01*
X26525730Y-62600543D01*
X26406407Y-62492121D01*
X26279225Y-62381275D01*
X26144185Y-62268002D01*
X26001287Y-62152304D01*
X25850530Y-62034180D01*
X25691915Y-61913631D01*
X25525442Y-61790656D01*
X25351111Y-61665256D01*
X25168922Y-61537430D01*
X24978875Y-61407178D01*
X24780971Y-61274501D01*
X24394258Y-61014119D01*
X24045871Y-60772414D01*
X23735811Y-60549386D01*
X23464078Y-60345034D01*
X23230672Y-60159360D01*
X23035593Y-59992362D01*
X22878841Y-59844041D01*
X22814838Y-59776884D01*
X22760417Y-59714396D01*
X22677077Y-59612978D01*
X22599115Y-59510529D01*
X22526529Y-59407050D01*
X22459320Y-59302539D01*
X22397488Y-59196998D01*
X22341032Y-59090425D01*
X22289954Y-58982822D01*
X22244252Y-58874189D01*
X22203927Y-58764524D01*
X22168979Y-58653828D01*
X22139407Y-58542102D01*
X22115213Y-58429345D01*
X22096394Y-58315557D01*
X22082953Y-58200738D01*
X22074888Y-58084889D01*
X22072200Y-57968009D01*
X22073785Y-57875384D01*
X22078541Y-57783789D01*
X22086468Y-57693226D01*
X22097566Y-57603693D01*
X22111834Y-57515191D01*
X22129274Y-57427721D01*
X22149884Y-57341281D01*
X22173665Y-57255871D01*
X22200617Y-57171493D01*
X22230740Y-57088146D01*
X22264034Y-57005829D01*
X22300499Y-56924544D01*
X22340135Y-56844289D01*
X22382941Y-56765065D01*
X22428919Y-56686872D01*
X22478068Y-56609709D01*
X22530078Y-56534093D01*
X22584639Y-56460538D01*
X22641749Y-56389045D01*
X22701411Y-56319614D01*
X22763623Y-56252244D01*
X22828385Y-56186937D01*
X22895698Y-56123691D01*
X22965562Y-56062506D01*
X23037976Y-56003384D01*
X23112940Y-55946323D01*
X23190455Y-55891324D01*
X23270519Y-55838387D01*
X23353135Y-55787511D01*
X23438300Y-55738697D01*
X23526016Y-55691944D01*
X23616282Y-55647254D01*
X23709407Y-55603732D01*
X23803490Y-55562504D01*
X23898532Y-55523689D01*
X23994532Y-55487403D01*
X24091491Y-55453764D01*
X24189409Y-55422889D01*
X24288287Y-55394897D01*
X24388123Y-55369904D01*
X24488920Y-55348028D01*
X24590677Y-55329386D01*
X24693393Y-55314097D01*
X24797070Y-55302277D01*
X24901708Y-55294044D01*
X25007306Y-55289516D01*
X25113865Y-55288811D01*
X25221385Y-55292044D01*
D11*
X24988780Y-55287573D02*
X24988780Y-55287573D01*
X24988780Y-55287573D02*
X24988780Y-55287573D01*
X24823323Y-55290698D02*
X24988780Y-55287573D01*
X24659328Y-55300071D02*
X24823323Y-55290698D01*
X24496794Y-55315692D02*
X24659328Y-55300071D01*
X24335723Y-55337562D02*
X24496794Y-55315692D01*
X24176114Y-55365680D02*
X24335723Y-55337562D01*
X24017967Y-55400047D02*
X24176114Y-55365680D01*
X23861282Y-55440663D02*
X24017967Y-55400047D01*
X23706059Y-55487527D02*
X23861282Y-55440663D01*
X23552299Y-55540639D02*
X23706059Y-55487527D01*
X23400000Y-55600000D02*
X23552299Y-55540639D01*
X23249164Y-55665609D02*
X23400000Y-55600000D01*
X23099790Y-55737467D02*
X23249164Y-55665609D01*
X22951879Y-55815573D02*
X23099790Y-55737467D01*
X22805429Y-55899928D02*
X22951879Y-55815573D01*
X22660442Y-55990531D02*
X22805429Y-55899928D01*
X22516917Y-56087382D02*
X22660442Y-55990531D01*
X22516917Y-56087382D02*
X22516917Y-56087382D01*
X22375989Y-56188784D02*
X22516917Y-56087382D01*
X22238792Y-56294978D02*
X22375989Y-56188784D01*
X22105326Y-56405965D02*
X22238792Y-56294978D01*
X21975592Y-56521745D02*
X22105326Y-56405965D01*
X21849588Y-56642317D02*
X21975592Y-56521745D01*
X21727316Y-56767681D02*
X21849588Y-56642317D01*
X21608774Y-56897838D02*
X21727316Y-56767681D01*
X21493964Y-57032788D02*
X21608774Y-56897838D01*
X21382885Y-57172530D02*
X21493964Y-57032788D01*
X21275537Y-57317065D02*
X21382885Y-57172530D01*
X21171920Y-57466392D02*
X21275537Y-57317065D01*
X21072035Y-57620512D02*
X21171920Y-57466392D01*
X20975880Y-57779425D02*
X21072035Y-57620512D01*
X20883457Y-57943130D02*
X20975880Y-57779425D01*
X20794765Y-58111628D02*
X20883457Y-57943130D01*
X20709804Y-58284918D02*
X20794765Y-58111628D01*
X20709804Y-58284918D02*
X20709804Y-58284918D01*
X20630089Y-58461545D02*
X20709804Y-58284918D01*
X20555517Y-58640052D02*
X20630089Y-58461545D01*
X20486088Y-58820439D02*
X20555517Y-58640052D01*
X20421802Y-59002708D02*
X20486088Y-58820439D01*
X20362658Y-59186857D02*
X20421802Y-59002708D01*
X20308657Y-59372886D02*
X20362658Y-59186857D01*
X20259800Y-59560796D02*
X20308657Y-59372886D01*
X20216084Y-59750587D02*
X20259800Y-59560796D01*
X20177512Y-59942258D02*
X20216084Y-59750587D01*
X20144083Y-60135810D02*
X20177512Y-59942258D01*
X20115796Y-60331242D02*
X20144083Y-60135810D01*
X20092653Y-60528556D02*
X20115796Y-60331242D01*
X20074652Y-60727750D02*
X20092653Y-60528556D01*
X20061795Y-60928824D02*
X20074652Y-60727750D01*
X20054080Y-61131779D02*
X20061795Y-60928824D01*
X20051509Y-61336615D02*
X20054080Y-61131779D01*
X20051509Y-61336615D02*
X20051509Y-61336615D01*
X20057181Y-61642429D02*
X20051509Y-61336615D01*
X20074199Y-61942540D02*
X20057181Y-61642429D01*
X20102561Y-62236949D02*
X20074199Y-61942540D01*
X20142269Y-62525654D02*
X20102561Y-62236949D01*
X20193321Y-62808658D02*
X20142269Y-62525654D01*
X20255718Y-63085958D02*
X20193321Y-62808658D01*
X20329460Y-63357556D02*
X20255718Y-63085958D01*
X20414546Y-63623452D02*
X20329460Y-63357556D01*
X20510977Y-63883645D02*
X20414546Y-63623452D01*
X20618753Y-64138135D02*
X20510977Y-63883645D01*
X20737873Y-64386923D02*
X20618753Y-64138135D01*
X20868338Y-64630008D02*
X20737873Y-64386923D01*
X21010147Y-64867391D02*
X20868338Y-64630008D01*
X21163301Y-65099072D02*
X21010147Y-64867391D01*
X21327799Y-65325050D02*
X21163301Y-65099072D01*
X21503642Y-65545325D02*
X21327799Y-65325050D01*
X21503642Y-65545325D02*
X21503642Y-65545325D01*
X21687728Y-65755955D02*
X21503642Y-65545325D01*
X21876958Y-65952995D02*
X21687728Y-65755955D01*
X22071331Y-66136447D02*
X21876958Y-65952995D01*
X22270848Y-66306309D02*
X22071331Y-66136447D01*
X22475508Y-66462583D02*
X22270848Y-66306309D01*
X22685311Y-66605267D02*
X22475508Y-66462583D01*
X22900257Y-66734363D02*
X22685311Y-66605267D01*
X23120347Y-66849869D02*
X22900257Y-66734363D01*
X23345580Y-66951786D02*
X23120347Y-66849869D01*
X23575956Y-67040115D02*
X23345580Y-66951786D01*
X23811475Y-67114854D02*
X23575956Y-67040115D01*
X24052138Y-67176005D02*
X23811475Y-67114854D01*
X24297943Y-67223566D02*
X24052138Y-67176005D01*
X24548892Y-67257538D02*
X24297943Y-67223566D01*
X24804984Y-67277922D02*
X24548892Y-67257538D01*
X25066218Y-67284716D02*
X24804984Y-67277922D01*
X25066218Y-67284716D02*
X25066218Y-67284716D01*
X25324301Y-67277891D02*
X25066218Y-67284716D01*
X25577392Y-67257417D02*
X25324301Y-67277891D01*
X25825491Y-67223293D02*
X25577392Y-67257417D01*
X26068598Y-67175519D02*
X25825491Y-67223293D01*
X26306713Y-67114095D02*
X26068598Y-67175519D01*
X26539836Y-67039022D02*
X26306713Y-67114095D01*
X26767968Y-66950299D02*
X26539836Y-67039022D01*
X26991107Y-66847927D02*
X26767968Y-66950299D01*
X27209255Y-66731905D02*
X26991107Y-66847927D01*
X27422411Y-66602233D02*
X27209255Y-66731905D01*
X27630575Y-66458911D02*
X27422411Y-66602233D01*
X27833747Y-66301940D02*
X27630575Y-66458911D01*
X28031928Y-66131319D02*
X27833747Y-66301940D01*
X28225118Y-65947048D02*
X28031928Y-66131319D01*
X28413316Y-65749128D02*
X28225118Y-65947048D01*
X28596522Y-65537558D02*
X28413316Y-65749128D01*
X28596522Y-65537558D02*
X28596522Y-65537558D01*
X28772367Y-65316192D02*
X28596522Y-65537558D01*
X28936867Y-65088880D02*
X28772367Y-65316192D01*
X29090023Y-64855623D02*
X28936867Y-65088880D01*
X29231833Y-64616420D02*
X29090023Y-64855623D01*
X29362298Y-64371273D02*
X29231833Y-64616420D01*
X29481418Y-64120180D02*
X29362298Y-64371273D01*
X29589194Y-63863142D02*
X29481418Y-64120180D01*
X29685624Y-63600159D02*
X29589194Y-63863142D01*
X29770710Y-63331230D02*
X29685624Y-63600159D01*
X29844451Y-63056357D02*
X29770710Y-63331230D01*
X29906847Y-62775538D02*
X29844451Y-63056357D01*
X29957898Y-62488773D02*
X29906847Y-62775538D01*
X29997604Y-62196064D02*
X29957898Y-62488773D01*
X30025966Y-61897409D02*
X29997604Y-62196064D01*
X30042983Y-61592809D02*
X30025966Y-61897409D01*
X30048655Y-61282263D02*
X30042983Y-61592809D01*
X30048655Y-61282263D02*
X30048655Y-61282263D01*
X30042983Y-60968958D02*
X30048655Y-61282263D01*
X30025966Y-60661902D02*
X30042983Y-60968958D01*
X29997604Y-60361094D02*
X30025966Y-60661902D01*
X29957898Y-60066534D02*
X29997604Y-60361094D01*
X29906847Y-59778223D02*
X29957898Y-60066534D01*
X29844451Y-59496160D02*
X29906847Y-59778223D01*
X29770710Y-59220346D02*
X29844451Y-59496160D01*
X29685624Y-58950780D02*
X29770710Y-59220346D01*
X29589194Y-58687463D02*
X29685624Y-58950780D01*
X29481418Y-58430394D02*
X29589194Y-58687463D01*
X29362298Y-58179574D02*
X29481418Y-58430394D01*
X29231833Y-57935002D02*
X29362298Y-58179574D01*
X29090023Y-57696679D02*
X29231833Y-57935002D01*
X28936867Y-57464605D02*
X29090023Y-57696679D01*
X28772367Y-57238779D02*
X28936867Y-57464605D01*
X28596522Y-57019202D02*
X28772367Y-57238779D01*
X28596522Y-57019202D02*
X28596522Y-57019202D01*
X28412257Y-56809513D02*
X28596522Y-57019202D01*
X28222496Y-56613352D02*
X28412257Y-56809513D01*
X28027239Y-56430719D02*
X28222496Y-56613352D01*
X27826486Y-56261614D02*
X28027239Y-56430719D01*
X27620238Y-56106038D02*
X27826486Y-56261614D01*
X27408494Y-55963991D02*
X27620238Y-56106038D01*
X27191254Y-55835472D02*
X27408494Y-55963991D01*
X26968518Y-55720481D02*
X27191254Y-55835472D01*
X26740287Y-55619018D02*
X26968518Y-55720481D01*
X26506559Y-55531084D02*
X26740287Y-55619018D01*
X26267336Y-55456678D02*
X26506559Y-55531084D01*
X26022617Y-55395800D02*
X26267336Y-55456678D01*
X25772401Y-55348451D02*
X26022617Y-55395800D01*
X25516690Y-55314630D02*
X25772401Y-55348451D01*
X25255483Y-55294338D02*
X25516690Y-55314630D01*
X24988780Y-55287573D02*
X25255483Y-55294338D01*
X25034007Y-56405749D02*
X25034007Y-56405753D01*
X25034007Y-56405749D02*
X25034007Y-56405749D01*
X25167472Y-56408327D02*
X25034007Y-56405749D01*
X25300029Y-56416062D02*
X25167472Y-56408327D01*
X25431679Y-56428953D02*
X25300029Y-56416062D01*
X25562421Y-56447001D02*
X25431679Y-56428953D01*
X25692256Y-56470205D02*
X25562421Y-56447001D01*
X25821183Y-56498566D02*
X25692256Y-56470205D01*
X25949202Y-56532083D02*
X25821183Y-56498566D01*
X26076314Y-56570757D02*
X25949202Y-56532083D01*
X26202518Y-56614587D02*
X26076314Y-56570757D01*
X26327815Y-56663574D02*
X26202518Y-56614587D01*
X26452205Y-56717717D02*
X26327815Y-56663574D01*
X26575687Y-56777017D02*
X26452205Y-56717717D01*
X26698262Y-56841474D02*
X26575687Y-56777017D01*
X26819929Y-56911087D02*
X26698262Y-56841474D01*
X26940689Y-56985857D02*
X26819929Y-56911087D01*
X27060542Y-57065783D02*
X26940689Y-56985857D01*
X27060542Y-57065783D02*
X27060542Y-57065783D01*
X27178252Y-57150017D02*
X27060542Y-57065783D01*
X27292583Y-57237708D02*
X27178252Y-57150017D01*
X27403536Y-57328858D02*
X27292583Y-57237708D01*
X27511111Y-57423465D02*
X27403536Y-57328858D01*
X27615307Y-57521531D02*
X27511111Y-57423465D01*
X27716124Y-57623054D02*
X27615307Y-57521531D01*
X27813563Y-57728035D02*
X27716124Y-57623054D01*
X27907624Y-57836475D02*
X27813563Y-57728035D01*
X27998307Y-57948372D02*
X27907624Y-57836475D01*
X28085611Y-58063727D02*
X27998307Y-57948372D01*
X28169537Y-58182540D02*
X28085611Y-58063727D01*
X28250085Y-58304811D02*
X28169537Y-58182540D01*
X28327254Y-58430540D02*
X28250085Y-58304811D01*
X28401045Y-58559727D02*
X28327254Y-58430540D01*
X28471458Y-58692372D02*
X28401045Y-58559727D01*
X28538493Y-58828475D02*
X28471458Y-58692372D01*
X28538493Y-58828475D02*
X28538493Y-58828475D01*
X28602581Y-58966366D02*
X28538493Y-58828475D01*
X28662534Y-59106320D02*
X28602581Y-58966366D01*
X28718353Y-59248337D02*
X28662534Y-59106320D01*
X28770036Y-59392416D02*
X28718353Y-59248337D01*
X28817585Y-59538559D02*
X28770036Y-59392416D01*
X28860998Y-59686764D02*
X28817585Y-59538559D01*
X28900278Y-59837032D02*
X28860998Y-59686764D01*
X28935422Y-59989362D02*
X28900278Y-59837032D01*
X28966432Y-60143755D02*
X28935422Y-59989362D01*
X28993307Y-60300211D02*
X28966432Y-60143755D01*
X29016047Y-60458729D02*
X28993307Y-60300211D01*
X29034652Y-60619310D02*
X29016047Y-60458729D01*
X29049123Y-60781954D02*
X29034652Y-60619310D01*
X29059460Y-60946660D02*
X29049123Y-60781954D01*
X29065662Y-61113428D02*
X29059460Y-60946660D01*
X29067729Y-61282260D02*
X29065662Y-61113428D01*
X29067729Y-61282260D02*
X29067729Y-61282260D01*
X29065662Y-61452122D02*
X29067729Y-61282260D01*
X29059460Y-61620043D02*
X29065662Y-61452122D01*
X29049123Y-61786023D02*
X29059460Y-61620043D01*
X29034652Y-61950062D02*
X29049123Y-61786023D01*
X29016047Y-62112159D02*
X29034652Y-61950062D01*
X28993307Y-62272315D02*
X29016047Y-62112159D01*
X28966432Y-62430530D02*
X28993307Y-62272315D01*
X28935422Y-62586803D02*
X28966432Y-62430530D01*
X28900278Y-62741135D02*
X28935422Y-62586803D01*
X28860998Y-62893526D02*
X28900278Y-62741135D01*
X28817585Y-63043976D02*
X28860998Y-62893526D01*
X28770036Y-63192484D02*
X28817585Y-63043976D01*
X28718353Y-63339051D02*
X28770036Y-63192484D01*
X28662534Y-63483676D02*
X28718353Y-63339051D01*
X28602581Y-63626361D02*
X28662534Y-63483676D01*
X28538493Y-63767104D02*
X28602581Y-63626361D01*
X28538493Y-63767104D02*
X28538493Y-63767104D01*
X28471509Y-63905026D02*
X28538493Y-63767104D01*
X28401246Y-64039248D02*
X28471509Y-63905026D01*
X28327707Y-64169769D02*
X28401246Y-64039248D01*
X28250889Y-64296589D02*
X28327707Y-64169769D01*
X28170794Y-64419709D02*
X28250889Y-64296589D01*
X28087422Y-64539128D02*
X28170794Y-64419709D01*
X28000773Y-64654847D02*
X28087422Y-64539128D01*
X27910846Y-64766865D02*
X28000773Y-64654847D01*
X27817641Y-64875183D02*
X27910846Y-64766865D01*
X27721160Y-64979800D02*
X27817641Y-64875183D01*
X27621401Y-65080717D02*
X27721160Y-64979800D01*
X27518365Y-65177933D02*
X27621401Y-65080717D01*
X27412052Y-65271448D02*
X27518365Y-65177933D01*
X27302462Y-65361263D02*
X27412052Y-65271448D01*
X27189595Y-65447378D02*
X27302462Y-65361263D01*
X27073451Y-65529792D02*
X27189595Y-65447378D01*
X27073451Y-65529792D02*
X27073451Y-65529792D01*
X26955817Y-65607838D02*
X27073451Y-65529792D01*
X26836872Y-65680849D02*
X26955817Y-65607838D01*
X26716617Y-65748825D02*
X26836872Y-65680849D01*
X26595051Y-65811766D02*
X26716617Y-65748825D01*
X26472173Y-65869671D02*
X26595051Y-65811766D01*
X26347986Y-65922540D02*
X26472173Y-65869671D01*
X26222487Y-65970375D02*
X26347986Y-65922540D01*
X26095677Y-66013174D02*
X26222487Y-65970375D01*
X25967557Y-66050938D02*
X26095677Y-66013174D01*
X25838126Y-66083667D02*
X25967557Y-66050938D01*
X25707383Y-66111360D02*
X25838126Y-66083667D01*
X25575330Y-66134019D02*
X25707383Y-66111360D01*
X25441966Y-66151642D02*
X25575330Y-66134019D01*
X25307291Y-66164230D02*
X25441966Y-66151642D01*
X25171304Y-66171782D02*
X25307291Y-66164230D01*
X25034007Y-66174300D02*
X25171304Y-66171782D01*
X25034007Y-66174300D02*
X25034007Y-66174300D01*
X24829347Y-66168840D02*
X25034007Y-66174300D01*
X24628418Y-66152460D02*
X24829347Y-66168840D01*
X24431220Y-66125161D02*
X24628418Y-66152460D01*
X24237753Y-66086942D02*
X24431220Y-66125161D01*
X24048017Y-66037803D02*
X24237753Y-66086942D01*
X23862013Y-65977745D02*
X24048017Y-66037803D01*
X23679739Y-65906767D02*
X23862013Y-65977745D01*
X23501197Y-65824869D02*
X23679739Y-65906767D01*
X23326386Y-65732051D02*
X23501197Y-65824869D01*
X23155306Y-65628314D02*
X23326386Y-65732051D01*
X22987957Y-65513657D02*
X23155306Y-65628314D01*
X22824339Y-65388080D02*
X22987957Y-65513657D01*
X22664452Y-65251584D02*
X22824339Y-65388080D01*
X22508297Y-65104167D02*
X22664452Y-65251584D01*
X22355872Y-64945831D02*
X22508297Y-65104167D01*
X22207179Y-64776576D02*
X22355872Y-64945831D01*
X22207179Y-64776576D02*
X22207179Y-64776576D01*
X22065721Y-64598432D02*
X22207179Y-64776576D01*
X21933391Y-64415374D02*
X22065721Y-64598432D01*
X21810186Y-64227403D02*
X21933391Y-64415374D01*
X21696108Y-64034518D02*
X21810186Y-64227403D01*
X21591157Y-63836719D02*
X21696108Y-64034518D01*
X21495332Y-63634006D02*
X21591157Y-63836719D01*
X21408634Y-63426379D02*
X21495332Y-63634006D01*
X21331061Y-63213839D02*
X21408634Y-63426379D01*
X21262615Y-62996384D02*
X21331061Y-63213839D01*
X21203296Y-62774016D02*
X21262615Y-62996384D01*
X21153102Y-62546734D02*
X21203296Y-62774016D01*
X21112035Y-62314538D02*
X21153102Y-62546734D01*
X21080094Y-62077428D02*
X21112035Y-62314538D01*
X21057279Y-61835404D02*
X21080094Y-62077428D01*
X21043590Y-61588467D02*
X21057279Y-61835404D01*
X21039027Y-61336615D02*
X21043590Y-61588467D01*
X21039027Y-61336615D02*
X21039027Y-61336615D01*
X21041094Y-61165813D02*
X21039027Y-61336615D01*
X21047296Y-60997012D02*
X21041094Y-61165813D01*
X21057632Y-60830213D02*
X21047296Y-60997012D01*
X21072103Y-60665416D02*
X21057632Y-60830213D01*
X21090708Y-60502621D02*
X21072103Y-60665416D01*
X21113448Y-60341829D02*
X21090708Y-60502621D01*
X21140322Y-60183038D02*
X21113448Y-60341829D01*
X21171330Y-60026249D02*
X21140322Y-60183038D01*
X21206473Y-59871462D02*
X21171330Y-60026249D01*
X21245750Y-59718676D02*
X21206473Y-59871462D01*
X21289162Y-59567893D02*
X21245750Y-59718676D01*
X21336707Y-59419112D02*
X21289162Y-59567893D01*
X21388387Y-59272332D02*
X21336707Y-59419112D01*
X21444201Y-59127554D02*
X21388387Y-59272332D01*
X21504150Y-58984778D02*
X21444201Y-59127554D01*
X21568233Y-58844004D02*
X21504150Y-58984778D01*
X21568233Y-58844004D02*
X21568233Y-58844004D01*
X21636001Y-58706022D02*
X21568233Y-58844004D01*
X21706997Y-58571618D02*
X21636001Y-58706022D01*
X21781220Y-58440794D02*
X21706997Y-58571618D01*
X21858669Y-58313548D02*
X21781220Y-58440794D01*
X21939345Y-58189883D02*
X21858669Y-58313548D01*
X22023248Y-58069796D02*
X21939345Y-58189883D01*
X22110378Y-57953289D02*
X22023248Y-58069796D01*
X22200734Y-57840360D02*
X22110378Y-57953289D01*
X22294317Y-57731011D02*
X22200734Y-57840360D01*
X22391127Y-57625242D02*
X22294317Y-57731011D01*
X22491163Y-57523051D02*
X22391127Y-57625242D01*
X22594426Y-57424440D02*
X22491163Y-57523051D01*
X22700916Y-57329408D02*
X22594426Y-57424440D01*
X22810632Y-57237955D02*
X22700916Y-57329408D01*
X22923575Y-57150081D02*
X22810632Y-57237955D01*
X23039744Y-57065787D02*
X22923575Y-57150081D01*
X23039744Y-57065787D02*
X23039744Y-57065787D01*
X23157956Y-56985861D02*
X23039744Y-57065787D01*
X23277025Y-56911092D02*
X23157956Y-56985861D01*
X23396951Y-56841479D02*
X23277025Y-56911092D01*
X23517735Y-56777023D02*
X23396951Y-56841479D01*
X23639376Y-56717723D02*
X23517735Y-56777023D01*
X23761875Y-56663579D02*
X23639376Y-56717723D01*
X23885231Y-56614592D02*
X23761875Y-56663579D01*
X24009444Y-56570762D02*
X23885231Y-56614592D01*
X24134515Y-56532088D02*
X24009444Y-56570762D01*
X24260442Y-56498570D02*
X24134515Y-56532088D01*
X24387227Y-56470210D02*
X24260442Y-56498570D01*
X24514869Y-56447005D02*
X24387227Y-56470210D01*
X24643368Y-56428957D02*
X24514869Y-56447005D01*
X24772724Y-56416066D02*
X24643368Y-56428957D01*
X24902937Y-56408331D02*
X24772724Y-56416066D01*
X25034007Y-56405753D02*
X24902937Y-56408331D01*
D12*
X46766666Y-52780952D02*
X46671428Y-52733333D01*
X46623809Y-52685714D01*
X46576190Y-52590476D01*
X46576190Y-52542857D01*
X46623809Y-52447619D01*
X46671428Y-52400000D01*
X46766666Y-52352380D01*
X46957142Y-52352380D01*
X47052380Y-52400000D01*
X47100000Y-52447619D01*
X47147619Y-52542857D01*
X47147619Y-52590476D01*
X47100000Y-52685714D01*
X47052380Y-52733333D01*
X46957142Y-52780952D01*
X46766666Y-52780952D01*
X46671428Y-52828571D01*
X46623809Y-52876190D01*
X46576190Y-52971428D01*
X46576190Y-53161904D01*
X46623809Y-53257142D01*
X46671428Y-53304761D01*
X46766666Y-53352380D01*
X46957142Y-53352380D01*
X47052380Y-53304761D01*
X47100000Y-53257142D01*
X47147619Y-53161904D01*
X47147619Y-52971428D01*
X47100000Y-52876190D01*
X47052380Y-52828571D01*
X46957142Y-52780952D01*
X49147619Y-53352380D02*
X49338095Y-53352380D01*
X49433333Y-53304761D01*
X49480952Y-53257142D01*
X49576190Y-53114285D01*
X49623809Y-52923809D01*
X49623809Y-52542857D01*
X49576190Y-52447619D01*
X49528571Y-52400000D01*
X49433333Y-52352380D01*
X49242857Y-52352380D01*
X49147619Y-52400000D01*
X49100000Y-52447619D01*
X49052380Y-52542857D01*
X49052380Y-52780952D01*
X49100000Y-52876190D01*
X49147619Y-52923809D01*
X49242857Y-52971428D01*
X49433333Y-52971428D01*
X49528571Y-52923809D01*
X49576190Y-52876190D01*
X49623809Y-52780952D01*
X51338095Y-53352380D02*
X50766666Y-53352380D01*
X51052380Y-53352380D02*
X51052380Y-52352380D01*
X50957142Y-52495238D01*
X50861904Y-52590476D01*
X50766666Y-52638095D01*
X51957142Y-52352380D02*
X52052380Y-52352380D01*
X52147619Y-52400000D01*
X52195238Y-52447619D01*
X52242857Y-52542857D01*
X52290476Y-52733333D01*
X52290476Y-52971428D01*
X52242857Y-53161904D01*
X52195238Y-53257142D01*
X52147619Y-53304761D01*
X52052380Y-53352380D01*
X51957142Y-53352380D01*
X51861904Y-53304761D01*
X51814285Y-53257142D01*
X51766666Y-53161904D01*
X51719047Y-52971428D01*
X51719047Y-52733333D01*
X51766666Y-52542857D01*
X51814285Y-52447619D01*
X51861904Y-52400000D01*
X51957142Y-52352380D01*
X54004761Y-53352380D02*
X53433333Y-53352380D01*
X53719047Y-53352380D02*
X53719047Y-52352380D01*
X53623809Y-52495238D01*
X53528571Y-52590476D01*
X53433333Y-52638095D01*
X54957142Y-53352380D02*
X54385714Y-53352380D01*
X54671428Y-53352380D02*
X54671428Y-52352380D01*
X54576190Y-52495238D01*
X54480952Y-52590476D01*
X54385714Y-52638095D01*
X56671428Y-53352380D02*
X56100000Y-53352380D01*
X56385714Y-53352380D02*
X56385714Y-52352380D01*
X56290476Y-52495238D01*
X56195238Y-52590476D01*
X56100000Y-52638095D01*
X57052380Y-52447619D02*
X57100000Y-52400000D01*
X57195238Y-52352380D01*
X57433333Y-52352380D01*
X57528571Y-52400000D01*
X57576190Y-52447619D01*
X57623809Y-52542857D01*
X57623809Y-52638095D01*
X57576190Y-52780952D01*
X57004761Y-53352380D01*
X57623809Y-53352380D01*
X59338095Y-53352380D02*
X58766666Y-53352380D01*
X59052380Y-53352380D02*
X59052380Y-52352380D01*
X58957142Y-52495238D01*
X58861904Y-52590476D01*
X58766666Y-52638095D01*
X59671428Y-52352380D02*
X60290476Y-52352380D01*
X59957142Y-52733333D01*
X60099999Y-52733333D01*
X60195238Y-52780952D01*
X60242857Y-52828571D01*
X60290476Y-52923809D01*
X60290476Y-53161904D01*
X60242857Y-53257142D01*
X60195238Y-53304761D01*
X60099999Y-53352380D01*
X59814285Y-53352380D01*
X59719047Y-53304761D01*
X59671428Y-53257142D01*
X62004761Y-53352380D02*
X61433333Y-53352380D01*
X61719047Y-53352380D02*
X61719047Y-52352380D01*
X61623809Y-52495238D01*
X61528571Y-52590476D01*
X61433333Y-52638095D01*
X62861904Y-52685714D02*
X62861904Y-53352380D01*
X62623809Y-52304761D02*
X62385714Y-53019047D01*
X63004761Y-53019047D01*
X64671428Y-53352380D02*
X64099999Y-53352380D01*
X64385714Y-53352380D02*
X64385714Y-52352380D01*
X64290476Y-52495238D01*
X64195238Y-52590476D01*
X64099999Y-52638095D01*
X65576190Y-52352380D02*
X65099999Y-52352380D01*
X65052380Y-52828571D01*
X65099999Y-52780952D01*
X65195238Y-52733333D01*
X65433333Y-52733333D01*
X65528571Y-52780952D01*
X65576190Y-52828571D01*
X65623809Y-52923809D01*
X65623809Y-53161904D01*
X65576190Y-53257142D01*
X65528571Y-53304761D01*
X65433333Y-53352380D01*
X65195238Y-53352380D01*
X65099999Y-53304761D01*
X65052380Y-53257142D01*
X21605714Y-52352380D02*
X21700952Y-52352380D01*
X21796190Y-52400000D01*
X21843809Y-52447619D01*
X21891428Y-52542857D01*
X21939047Y-52733333D01*
X21939047Y-52971428D01*
X21891428Y-53161904D01*
X21843809Y-53257142D01*
X21796190Y-53304761D01*
X21700952Y-53352380D01*
X21605714Y-53352380D01*
X21510476Y-53304761D01*
X21462857Y-53257142D01*
X21415238Y-53161904D01*
X21367619Y-52971428D01*
X21367619Y-52733333D01*
X21415238Y-52542857D01*
X21462857Y-52447619D01*
X21510476Y-52400000D01*
X21605714Y-52352380D01*
X24415238Y-53352380D02*
X23843809Y-53352380D01*
X24129523Y-53352380D02*
X24129523Y-52352380D01*
X24034285Y-52495238D01*
X23939047Y-52590476D01*
X23843809Y-52638095D01*
X26319999Y-52447619D02*
X26367619Y-52400000D01*
X26462857Y-52352380D01*
X26700952Y-52352380D01*
X26796190Y-52400000D01*
X26843809Y-52447619D01*
X26891428Y-52542857D01*
X26891428Y-52638095D01*
X26843809Y-52780952D01*
X26272380Y-53352380D01*
X26891428Y-53352380D01*
X28748571Y-52352380D02*
X29367619Y-52352380D01*
X29034285Y-52733333D01*
X29177142Y-52733333D01*
X29272380Y-52780952D01*
X29320000Y-52828571D01*
X29367619Y-52923809D01*
X29367619Y-53161904D01*
X29320000Y-53257142D01*
X29272380Y-53304761D01*
X29177142Y-53352380D01*
X28891428Y-53352380D01*
X28796190Y-53304761D01*
X28748571Y-53257142D01*
X31748571Y-52685714D02*
X31748571Y-53352380D01*
X31510476Y-52304761D02*
X31272380Y-53019047D01*
X31891428Y-53019047D01*
X34272380Y-52352380D02*
X33796190Y-52352380D01*
X33748571Y-52828571D01*
X33796190Y-52780952D01*
X33891428Y-52733333D01*
X34129523Y-52733333D01*
X34224761Y-52780952D01*
X34272380Y-52828571D01*
X34319999Y-52923809D01*
X34319999Y-53161904D01*
X34272380Y-53257142D01*
X34224761Y-53304761D01*
X34129523Y-53352380D01*
X33891428Y-53352380D01*
X33796190Y-53304761D01*
X33748571Y-53257142D01*
X36700952Y-52352380D02*
X36510476Y-52352380D01*
X36415238Y-52400000D01*
X36367619Y-52447619D01*
X36272380Y-52590476D01*
X36224761Y-52780952D01*
X36224761Y-53161904D01*
X36272380Y-53257142D01*
X36319999Y-53304761D01*
X36415238Y-53352380D01*
X36605714Y-53352380D01*
X36700952Y-53304761D01*
X36748571Y-53257142D01*
X36796190Y-53161904D01*
X36796190Y-52923809D01*
X36748571Y-52828571D01*
X36700952Y-52780952D01*
X36605714Y-52733333D01*
X36415238Y-52733333D01*
X36319999Y-52780952D01*
X36272380Y-52828571D01*
X36224761Y-52923809D01*
X38653333Y-52352380D02*
X39319999Y-52352380D01*
X38891428Y-53352380D01*
D13*
X62463571Y-81385714D02*
X60963571Y-81385714D01*
X60963571Y-81028571D01*
X61035000Y-80814285D01*
X61177857Y-80671428D01*
X61320714Y-80600000D01*
X61606428Y-80528571D01*
X61820714Y-80528571D01*
X62106428Y-80600000D01*
X62249285Y-80671428D01*
X62392142Y-80814285D01*
X62463571Y-81028571D01*
X62463571Y-81385714D01*
X62392142Y-79314285D02*
X62463571Y-79457142D01*
X62463571Y-79742857D01*
X62392142Y-79885714D01*
X62249285Y-79957142D01*
X61677857Y-79957142D01*
X61535000Y-79885714D01*
X61463571Y-79742857D01*
X61463571Y-79457142D01*
X61535000Y-79314285D01*
X61677857Y-79242857D01*
X61820714Y-79242857D01*
X61963571Y-79957142D01*
X62392142Y-78671428D02*
X62463571Y-78528571D01*
X62463571Y-78242857D01*
X62392142Y-78100000D01*
X62249285Y-78028571D01*
X62177857Y-78028571D01*
X62035000Y-78100000D01*
X61963571Y-78242857D01*
X61963571Y-78457142D01*
X61892142Y-78600000D01*
X61749285Y-78671428D01*
X61677857Y-78671428D01*
X61535000Y-78600000D01*
X61463571Y-78457142D01*
X61463571Y-78242857D01*
X61535000Y-78100000D01*
X62463571Y-77385714D02*
X61463571Y-77385714D01*
X60963571Y-77385714D02*
X61035000Y-77457142D01*
X61106428Y-77385714D01*
X61035000Y-77314285D01*
X60963571Y-77385714D01*
X61106428Y-77385714D01*
X61463571Y-76028571D02*
X62677857Y-76028571D01*
X62820714Y-76100000D01*
X62892142Y-76171428D01*
X62963571Y-76314285D01*
X62963571Y-76528571D01*
X62892142Y-76671428D01*
X62392142Y-76028571D02*
X62463571Y-76171428D01*
X62463571Y-76457142D01*
X62392142Y-76600000D01*
X62320714Y-76671428D01*
X62177857Y-76742857D01*
X61749285Y-76742857D01*
X61606428Y-76671428D01*
X61535000Y-76600000D01*
X61463571Y-76457142D01*
X61463571Y-76171428D01*
X61535000Y-76028571D01*
X61463571Y-75314285D02*
X62463571Y-75314285D01*
X61606428Y-75314285D02*
X61535000Y-75242857D01*
X61463571Y-75100000D01*
X61463571Y-74885714D01*
X61535000Y-74742857D01*
X61677857Y-74671428D01*
X62463571Y-74671428D01*
X62392142Y-73385714D02*
X62463571Y-73528571D01*
X62463571Y-73814285D01*
X62392142Y-73957142D01*
X62249285Y-74028571D01*
X61677857Y-74028571D01*
X61535000Y-73957142D01*
X61463571Y-73814285D01*
X61463571Y-73528571D01*
X61535000Y-73385714D01*
X61677857Y-73314285D01*
X61820714Y-73314285D01*
X61963571Y-74028571D01*
X62463571Y-72028571D02*
X60963571Y-72028571D01*
X62392142Y-72028571D02*
X62463571Y-72171428D01*
X62463571Y-72457142D01*
X62392142Y-72600000D01*
X62320714Y-72671428D01*
X62177857Y-72742857D01*
X61749285Y-72742857D01*
X61606428Y-72671428D01*
X61535000Y-72600000D01*
X61463571Y-72457142D01*
X61463571Y-72171428D01*
X61535000Y-72028571D01*
X62463571Y-70171428D02*
X60963571Y-70171428D01*
X61535000Y-70171428D02*
X61463571Y-70028571D01*
X61463571Y-69742857D01*
X61535000Y-69600000D01*
X61606428Y-69528571D01*
X61749285Y-69457142D01*
X62177857Y-69457142D01*
X62320714Y-69528571D01*
X62392142Y-69600000D01*
X62463571Y-69742857D01*
X62463571Y-70028571D01*
X62392142Y-70171428D01*
X61463571Y-68957142D02*
X62463571Y-68600000D01*
X61463571Y-68242857D02*
X62463571Y-68600000D01*
X62820714Y-68742857D01*
X62892142Y-68814285D01*
X62963571Y-68957142D01*
X60963571Y-66242857D02*
X60963571Y-65957142D01*
X61035000Y-65814285D01*
X61177857Y-65671428D01*
X61463571Y-65600000D01*
X61963571Y-65600000D01*
X62249285Y-65671428D01*
X62392142Y-65814285D01*
X62463571Y-65957142D01*
X62463571Y-66242857D01*
X62392142Y-66385714D01*
X62249285Y-66528571D01*
X61963571Y-66600000D01*
X61463571Y-66600000D01*
X61177857Y-66528571D01*
X61035000Y-66385714D01*
X60963571Y-66242857D01*
X62463571Y-64957142D02*
X61463571Y-64957142D01*
X60963571Y-64957142D02*
X61035000Y-65028571D01*
X61106428Y-64957142D01*
X61035000Y-64885714D01*
X60963571Y-64957142D01*
X61106428Y-64957142D01*
X62392142Y-64314285D02*
X62463571Y-64171428D01*
X62463571Y-63885714D01*
X62392142Y-63742857D01*
X62249285Y-63671428D01*
X62177857Y-63671428D01*
X62035000Y-63742857D01*
X61963571Y-63885714D01*
X61963571Y-64100000D01*
X61892142Y-64242857D01*
X61749285Y-64314285D01*
X61677857Y-64314285D01*
X61535000Y-64242857D01*
X61463571Y-64100000D01*
X61463571Y-63885714D01*
X61535000Y-63742857D01*
X62463571Y-63028571D02*
X61463571Y-63028571D01*
X60963571Y-63028571D02*
X61035000Y-63100000D01*
X61106428Y-63028571D01*
X61035000Y-62957142D01*
X60963571Y-63028571D01*
X61106428Y-63028571D01*
X61463571Y-62314285D02*
X62463571Y-62314285D01*
X61606428Y-62314285D02*
X61535000Y-62242857D01*
X61463571Y-62100000D01*
X61463571Y-61885714D01*
X61535000Y-61742857D01*
X61677857Y-61671428D01*
X62463571Y-61671428D01*
X62392142Y-59885714D02*
X62463571Y-59671428D01*
X62463571Y-59314285D01*
X62392142Y-59171428D01*
X62320714Y-59100000D01*
X62177857Y-59028571D01*
X62035000Y-59028571D01*
X61892142Y-59100000D01*
X61820714Y-59171428D01*
X61749285Y-59314285D01*
X61677857Y-59600000D01*
X61606428Y-59742857D01*
X61535000Y-59814285D01*
X61392142Y-59885714D01*
X61249285Y-59885714D01*
X61106428Y-59814285D01*
X61035000Y-59742857D01*
X60963571Y-59600000D01*
X60963571Y-59242857D01*
X61035000Y-59028571D01*
X62463571Y-58385714D02*
X60963571Y-58385714D01*
X62463571Y-57742857D02*
X61677857Y-57742857D01*
X61535000Y-57814285D01*
X61463571Y-57957142D01*
X61463571Y-58171428D01*
X61535000Y-58314285D01*
X61606428Y-58385714D01*
X62463571Y-56385714D02*
X61677857Y-56385714D01*
X61535000Y-56457142D01*
X61463571Y-56600000D01*
X61463571Y-56885714D01*
X61535000Y-57028571D01*
X62392142Y-56385714D02*
X62463571Y-56528571D01*
X62463571Y-56885714D01*
X62392142Y-57028571D01*
X62249285Y-57100000D01*
X62106428Y-57100000D01*
X61963571Y-57028571D01*
X61892142Y-56885714D01*
X61892142Y-56528571D01*
X61820714Y-56385714D01*
X61463571Y-55814285D02*
X62463571Y-55528571D01*
X61749285Y-55242857D01*
X62463571Y-54957142D01*
X61463571Y-54671428D01*
X64092857Y-77707142D02*
X64092857Y-78207142D01*
X64878571Y-78207142D02*
X63378571Y-78207142D01*
X63378571Y-77492857D01*
X64878571Y-76707142D02*
X64807142Y-76850000D01*
X64735714Y-76921428D01*
X64592857Y-76992857D01*
X64164285Y-76992857D01*
X64021428Y-76921428D01*
X63950000Y-76850000D01*
X63878571Y-76707142D01*
X63878571Y-76492857D01*
X63950000Y-76350000D01*
X64021428Y-76278571D01*
X64164285Y-76207142D01*
X64592857Y-76207142D01*
X64735714Y-76278571D01*
X64807142Y-76350000D01*
X64878571Y-76492857D01*
X64878571Y-76707142D01*
X64878571Y-75564285D02*
X63878571Y-75564285D01*
X64164285Y-75564285D02*
X64021428Y-75492857D01*
X63950000Y-75421428D01*
X63878571Y-75278571D01*
X63878571Y-75135714D01*
X64092857Y-73492857D02*
X64092857Y-72992857D01*
X64878571Y-72778571D02*
X64878571Y-73492857D01*
X63378571Y-73492857D01*
X63378571Y-72778571D01*
X64807142Y-72207142D02*
X64878571Y-71992857D01*
X64878571Y-71635714D01*
X64807142Y-71492857D01*
X64735714Y-71421428D01*
X64592857Y-71350000D01*
X64450000Y-71350000D01*
X64307142Y-71421428D01*
X64235714Y-71492857D01*
X64164285Y-71635714D01*
X64092857Y-71921428D01*
X64021428Y-72064285D01*
X63950000Y-72135714D01*
X63807142Y-72207142D01*
X63664285Y-72207142D01*
X63521428Y-72135714D01*
X63450000Y-72064285D01*
X63378571Y-71921428D01*
X63378571Y-71564285D01*
X63450000Y-71350000D01*
X64092857Y-70707142D02*
X64092857Y-70207142D01*
X64878571Y-69992857D02*
X64878571Y-70707142D01*
X63378571Y-70707142D01*
X63378571Y-69992857D01*
X63878571Y-67564285D02*
X65092857Y-67564285D01*
X65235714Y-67635714D01*
X65307142Y-67707142D01*
X65378571Y-67850000D01*
X65378571Y-68064285D01*
X65307142Y-68207142D01*
X64807142Y-67564285D02*
X64878571Y-67707142D01*
X64878571Y-67992857D01*
X64807142Y-68135714D01*
X64735714Y-68207142D01*
X64592857Y-68278571D01*
X64164285Y-68278571D01*
X64021428Y-68207142D01*
X63950000Y-68135714D01*
X63878571Y-67992857D01*
X63878571Y-67707142D01*
X63950000Y-67564285D01*
X64878571Y-66850000D02*
X63878571Y-66850000D01*
X64164285Y-66850000D02*
X64021428Y-66778571D01*
X63950000Y-66707142D01*
X63878571Y-66564285D01*
X63878571Y-66421428D01*
X64878571Y-65707142D02*
X64807142Y-65850000D01*
X64735714Y-65921428D01*
X64592857Y-65992857D01*
X64164285Y-65992857D01*
X64021428Y-65921428D01*
X63950000Y-65850000D01*
X63878571Y-65707142D01*
X63878571Y-65492857D01*
X63950000Y-65350000D01*
X64021428Y-65278571D01*
X64164285Y-65207142D01*
X64592857Y-65207142D01*
X64735714Y-65278571D01*
X64807142Y-65350000D01*
X64878571Y-65492857D01*
X64878571Y-65707142D01*
X63878571Y-63921428D02*
X64878571Y-63921428D01*
X63878571Y-64564285D02*
X64664285Y-64564285D01*
X64807142Y-64492857D01*
X64878571Y-64350000D01*
X64878571Y-64135714D01*
X64807142Y-63992857D01*
X64735714Y-63921428D01*
X63878571Y-63207142D02*
X65378571Y-63207142D01*
X63950000Y-63207142D02*
X63878571Y-63064285D01*
X63878571Y-62778571D01*
X63950000Y-62635714D01*
X64021428Y-62564285D01*
X64164285Y-62492857D01*
X64592857Y-62492857D01*
X64735714Y-62564285D01*
X64807142Y-62635714D01*
X64878571Y-62778571D01*
X64878571Y-63064285D01*
X64807142Y-63207142D01*
X64878571Y-60707142D02*
X63378571Y-60707142D01*
X64735714Y-59135714D02*
X64807142Y-59207142D01*
X64878571Y-59421428D01*
X64878571Y-59564285D01*
X64807142Y-59778571D01*
X64664285Y-59921428D01*
X64521428Y-59992857D01*
X64235714Y-60064285D01*
X64021428Y-60064285D01*
X63735714Y-59992857D01*
X63592857Y-59921428D01*
X63450000Y-59778571D01*
X63378571Y-59564285D01*
X63378571Y-59421428D01*
X63450000Y-59207142D01*
X63521428Y-59135714D01*
X64878571Y-57778571D02*
X64878571Y-58492857D01*
X63378571Y-58492857D01*
X66865000Y-73242857D02*
X66865000Y-72528571D01*
X67293571Y-73385714D02*
X65793571Y-72885714D01*
X67293571Y-72385714D01*
X66293571Y-71242857D02*
X67293571Y-71242857D01*
X66293571Y-71885714D02*
X67079285Y-71885714D01*
X67222142Y-71814285D01*
X67293571Y-71671428D01*
X67293571Y-71457142D01*
X67222142Y-71314285D01*
X67150714Y-71242857D01*
X66293571Y-69885714D02*
X67507857Y-69885714D01*
X67650714Y-69957142D01*
X67722142Y-70028571D01*
X67793571Y-70171428D01*
X67793571Y-70385714D01*
X67722142Y-70528571D01*
X67222142Y-69885714D02*
X67293571Y-70028571D01*
X67293571Y-70314285D01*
X67222142Y-70457142D01*
X67150714Y-70528571D01*
X67007857Y-70600000D01*
X66579285Y-70600000D01*
X66436428Y-70528571D01*
X66365000Y-70457142D01*
X66293571Y-70314285D01*
X66293571Y-70028571D01*
X66365000Y-69885714D01*
X65936428Y-68100000D02*
X65865000Y-68028571D01*
X65793571Y-67885714D01*
X65793571Y-67528571D01*
X65865000Y-67385714D01*
X65936428Y-67314285D01*
X66079285Y-67242857D01*
X66222142Y-67242857D01*
X66436428Y-67314285D01*
X67293571Y-68171428D01*
X67293571Y-67242857D01*
X65793571Y-66314285D02*
X65793571Y-66171428D01*
X65865000Y-66028571D01*
X65936428Y-65957142D01*
X66079285Y-65885714D01*
X66365000Y-65814285D01*
X66722142Y-65814285D01*
X67007857Y-65885714D01*
X67150714Y-65957142D01*
X67222142Y-66028571D01*
X67293571Y-66171428D01*
X67293571Y-66314285D01*
X67222142Y-66457142D01*
X67150714Y-66528571D01*
X67007857Y-66600000D01*
X66722142Y-66671428D01*
X66365000Y-66671428D01*
X66079285Y-66600000D01*
X65936428Y-66528571D01*
X65865000Y-66457142D01*
X65793571Y-66314285D01*
X65936428Y-65242857D02*
X65865000Y-65171428D01*
X65793571Y-65028571D01*
X65793571Y-64671428D01*
X65865000Y-64528571D01*
X65936428Y-64457142D01*
X66079285Y-64385714D01*
X66222142Y-64385714D01*
X66436428Y-64457142D01*
X67293571Y-65314285D01*
X67293571Y-64385714D01*
X65793571Y-63885714D02*
X65793571Y-62957142D01*
X66365000Y-63457142D01*
X66365000Y-63242857D01*
X66436428Y-63100000D01*
X66507857Y-63028571D01*
X66650714Y-62957142D01*
X67007857Y-62957142D01*
X67150714Y-63028571D01*
X67222142Y-63100000D01*
X67293571Y-63242857D01*
X67293571Y-63671428D01*
X67222142Y-63814285D01*
X67150714Y-63885714D01*
D12*
X36641071Y-56185714D02*
X36641071Y-56900000D01*
X37355357Y-56971428D01*
X37283928Y-56900000D01*
X37212500Y-56757142D01*
X37212500Y-56400000D01*
X37283928Y-56257142D01*
X37355357Y-56185714D01*
X37498214Y-56114285D01*
X37855357Y-56114285D01*
X37998214Y-56185714D01*
X38069642Y-56257142D01*
X38141071Y-56400000D01*
X38141071Y-56757142D01*
X38069642Y-56900000D01*
X37998214Y-56971428D01*
X36641071Y-55685714D02*
X38141071Y-55185714D01*
X36641071Y-54685714D01*
X39056071Y-57757142D02*
X39056071Y-56828571D01*
X39627500Y-57328571D01*
X39627500Y-57114285D01*
X39698928Y-56971428D01*
X39770357Y-56900000D01*
X39913214Y-56828571D01*
X40270357Y-56828571D01*
X40413214Y-56900000D01*
X40484642Y-56971428D01*
X40556071Y-57114285D01*
X40556071Y-57542857D01*
X40484642Y-57685714D01*
X40413214Y-57757142D01*
X39056071Y-56400000D02*
X40556071Y-55900000D01*
X39056071Y-55400000D01*
X39056071Y-55042857D02*
X39056071Y-54114285D01*
X39627500Y-54614285D01*
X39627500Y-54400000D01*
X39698928Y-54257142D01*
X39770357Y-54185714D01*
X39913214Y-54114285D01*
X40270357Y-54114285D01*
X40413214Y-54185714D01*
X40484642Y-54257142D01*
X40556071Y-54400000D01*
X40556071Y-54828571D01*
X40484642Y-54971428D01*
X40413214Y-55042857D01*
X41542500Y-57042857D02*
X41471071Y-57185714D01*
X41471071Y-57400000D01*
X41542500Y-57614285D01*
X41685357Y-57757142D01*
X41828214Y-57828571D01*
X42113928Y-57900000D01*
X42328214Y-57900000D01*
X42613928Y-57828571D01*
X42756785Y-57757142D01*
X42899642Y-57614285D01*
X42971071Y-57400000D01*
X42971071Y-57257142D01*
X42899642Y-57042857D01*
X42828214Y-56971428D01*
X42328214Y-56971428D01*
X42328214Y-57257142D01*
X42971071Y-56328571D02*
X41471071Y-56328571D01*
X42971071Y-55471428D01*
X41471071Y-55471428D01*
X42971071Y-54757142D02*
X41471071Y-54757142D01*
X41471071Y-54400000D01*
X41542500Y-54185714D01*
X41685357Y-54042857D01*
X41828214Y-53971428D01*
X42113928Y-53900000D01*
X42328214Y-53900000D01*
X42613928Y-53971428D01*
X42756785Y-54042857D01*
X42899642Y-54185714D01*
X42971071Y-54400000D01*
X42971071Y-54757142D01*
X45243214Y-56792857D02*
X45314642Y-56864285D01*
X45386071Y-57078571D01*
X45386071Y-57221428D01*
X45314642Y-57435714D01*
X45171785Y-57578571D01*
X45028928Y-57650000D01*
X44743214Y-57721428D01*
X44528928Y-57721428D01*
X44243214Y-57650000D01*
X44100357Y-57578571D01*
X43957500Y-57435714D01*
X43886071Y-57221428D01*
X43886071Y-57078571D01*
X43957500Y-56864285D01*
X44028928Y-56792857D01*
X45386071Y-55435714D02*
X45386071Y-56150000D01*
X43886071Y-56150000D01*
X45386071Y-54935714D02*
X43886071Y-54935714D01*
X45386071Y-54078571D02*
X44528928Y-54721428D01*
X43886071Y-54078571D02*
X44743214Y-54935714D01*
X47658214Y-57328571D02*
X47729642Y-57400000D01*
X47801071Y-57614285D01*
X47801071Y-57757142D01*
X47729642Y-57971428D01*
X47586785Y-58114285D01*
X47443928Y-58185714D01*
X47158214Y-58257142D01*
X46943928Y-58257142D01*
X46658214Y-58185714D01*
X46515357Y-58114285D01*
X46372500Y-57971428D01*
X46301071Y-57757142D01*
X46301071Y-57614285D01*
X46372500Y-57400000D01*
X46443928Y-57328571D01*
X47801071Y-56685714D02*
X46301071Y-56685714D01*
X47801071Y-55971428D02*
X46301071Y-55971428D01*
X46301071Y-55400000D01*
X46372500Y-55257142D01*
X46443928Y-55185714D01*
X46586785Y-55114285D01*
X46801071Y-55114285D01*
X46943928Y-55185714D01*
X47015357Y-55257142D01*
X47086785Y-55400000D01*
X47086785Y-55971428D01*
X46301071Y-54185714D02*
X46301071Y-53900000D01*
X46372500Y-53757142D01*
X46515357Y-53614285D01*
X46801071Y-53542857D01*
X47301071Y-53542857D01*
X47586785Y-53614285D01*
X47729642Y-53757142D01*
X47801071Y-53900000D01*
X47801071Y-54185714D01*
X47729642Y-54328571D01*
X47586785Y-54471428D01*
X47301071Y-54542857D01*
X46801071Y-54542857D01*
X46515357Y-54471428D01*
X46372500Y-54328571D01*
X46301071Y-54185714D01*
X50073214Y-57328571D02*
X50144642Y-57400000D01*
X50216071Y-57614285D01*
X50216071Y-57757142D01*
X50144642Y-57971428D01*
X50001785Y-58114285D01*
X49858928Y-58185714D01*
X49573214Y-58257142D01*
X49358928Y-58257142D01*
X49073214Y-58185714D01*
X48930357Y-58114285D01*
X48787500Y-57971428D01*
X48716071Y-57757142D01*
X48716071Y-57614285D01*
X48787500Y-57400000D01*
X48858928Y-57328571D01*
X48716071Y-56400000D02*
X48716071Y-56114285D01*
X48787500Y-55971428D01*
X48930357Y-55828571D01*
X49216071Y-55757142D01*
X49716071Y-55757142D01*
X50001785Y-55828571D01*
X50144642Y-55971428D01*
X50216071Y-56114285D01*
X50216071Y-56400000D01*
X50144642Y-56542857D01*
X50001785Y-56685714D01*
X49716071Y-56757142D01*
X49216071Y-56757142D01*
X48930357Y-56685714D01*
X48787500Y-56542857D01*
X48716071Y-56400000D01*
X50216071Y-55114285D02*
X48716071Y-55114285D01*
X48716071Y-54542857D01*
X48787500Y-54400000D01*
X48858928Y-54328571D01*
X49001785Y-54257142D01*
X49216071Y-54257142D01*
X49358928Y-54328571D01*
X49430357Y-54400000D01*
X49501785Y-54542857D01*
X49501785Y-55114285D01*
X50216071Y-53614285D02*
X48716071Y-53614285D01*
D14*
%TO.C,IC2*%
X32874523Y-75839761D02*
X31604523Y-75839761D01*
X32753571Y-74509285D02*
X32814047Y-74569761D01*
X32874523Y-74751190D01*
X32874523Y-74872142D01*
X32814047Y-75053571D01*
X32693095Y-75174523D01*
X32572142Y-75235000D01*
X32330238Y-75295476D01*
X32148809Y-75295476D01*
X31906904Y-75235000D01*
X31785952Y-75174523D01*
X31665000Y-75053571D01*
X31604523Y-74872142D01*
X31604523Y-74751190D01*
X31665000Y-74569761D01*
X31725476Y-74509285D01*
X31725476Y-74025476D02*
X31665000Y-73965000D01*
X31604523Y-73844047D01*
X31604523Y-73541666D01*
X31665000Y-73420714D01*
X31725476Y-73360238D01*
X31846428Y-73299761D01*
X31967380Y-73299761D01*
X32148809Y-73360238D01*
X32874523Y-74085952D01*
X32874523Y-73299761D01*
D12*
%TO.C,J11*%
X31007480Y-34225923D02*
X31721766Y-34225923D01*
X31864623Y-34273542D01*
X31959861Y-34368780D01*
X32007480Y-34511638D01*
X32007480Y-34606876D01*
X32007480Y-33225923D02*
X32007480Y-33797352D01*
X32007480Y-33511638D02*
X31007480Y-33511638D01*
X31150338Y-33606876D01*
X31245576Y-33702114D01*
X31293195Y-33797352D01*
X32007480Y-32273542D02*
X32007480Y-32844971D01*
X32007480Y-32559257D02*
X31007480Y-32559257D01*
X31150338Y-32654495D01*
X31245576Y-32749733D01*
X31293195Y-32844971D01*
%TO.C,C15*%
X46257142Y-89843142D02*
X46209523Y-89890761D01*
X46066666Y-89938380D01*
X45971428Y-89938380D01*
X45828571Y-89890761D01*
X45733333Y-89795523D01*
X45685714Y-89700285D01*
X45638095Y-89509809D01*
X45638095Y-89366952D01*
X45685714Y-89176476D01*
X45733333Y-89081238D01*
X45828571Y-88986000D01*
X45971428Y-88938380D01*
X46066666Y-88938380D01*
X46209523Y-88986000D01*
X46257142Y-89033619D01*
X47209523Y-89938380D02*
X46638095Y-89938380D01*
X46923809Y-89938380D02*
X46923809Y-88938380D01*
X46828571Y-89081238D01*
X46733333Y-89176476D01*
X46638095Y-89224095D01*
X48114285Y-88938380D02*
X47638095Y-88938380D01*
X47590476Y-89414571D01*
X47638095Y-89366952D01*
X47733333Y-89319333D01*
X47971428Y-89319333D01*
X48066666Y-89366952D01*
X48114285Y-89414571D01*
X48161904Y-89509809D01*
X48161904Y-89747904D01*
X48114285Y-89843142D01*
X48066666Y-89890761D01*
X47971428Y-89938380D01*
X47733333Y-89938380D01*
X47638095Y-89890761D01*
X47590476Y-89843142D01*
%TO.C,NPTH_3*%
X62452380Y-95502380D02*
X62452380Y-94502380D01*
X63023809Y-95502380D01*
X63023809Y-94502380D01*
X63500000Y-95502380D02*
X63500000Y-94502380D01*
X63880952Y-94502380D01*
X63976190Y-94550000D01*
X64023809Y-94597619D01*
X64071428Y-94692857D01*
X64071428Y-94835714D01*
X64023809Y-94930952D01*
X63976190Y-94978571D01*
X63880952Y-95026190D01*
X63500000Y-95026190D01*
X64357142Y-94502380D02*
X64928571Y-94502380D01*
X64642857Y-95502380D02*
X64642857Y-94502380D01*
X65261904Y-95502380D02*
X65261904Y-94502380D01*
X65261904Y-94978571D02*
X65833333Y-94978571D01*
X65833333Y-95502380D02*
X65833333Y-94502380D01*
X66071428Y-95597619D02*
X66833333Y-95597619D01*
X66976190Y-94502380D02*
X67595238Y-94502380D01*
X67261904Y-94883333D01*
X67404761Y-94883333D01*
X67500000Y-94930952D01*
X67547619Y-94978571D01*
X67595238Y-95073809D01*
X67595238Y-95311904D01*
X67547619Y-95407142D01*
X67500000Y-95454761D01*
X67404761Y-95502380D01*
X67119047Y-95502380D01*
X67023809Y-95454761D01*
X66976190Y-95407142D01*
%TO.C,C20*%
X26655142Y-74734857D02*
X26702761Y-74782476D01*
X26750380Y-74925333D01*
X26750380Y-75020571D01*
X26702761Y-75163428D01*
X26607523Y-75258666D01*
X26512285Y-75306285D01*
X26321809Y-75353904D01*
X26178952Y-75353904D01*
X25988476Y-75306285D01*
X25893238Y-75258666D01*
X25798000Y-75163428D01*
X25750380Y-75020571D01*
X25750380Y-74925333D01*
X25798000Y-74782476D01*
X25845619Y-74734857D01*
X25845619Y-74353904D02*
X25798000Y-74306285D01*
X25750380Y-74211047D01*
X25750380Y-73972952D01*
X25798000Y-73877714D01*
X25845619Y-73830095D01*
X25940857Y-73782476D01*
X26036095Y-73782476D01*
X26178952Y-73830095D01*
X26750380Y-74401523D01*
X26750380Y-73782476D01*
X25750380Y-73163428D02*
X25750380Y-73068190D01*
X25798000Y-72972952D01*
X25845619Y-72925333D01*
X25940857Y-72877714D01*
X26131333Y-72830095D01*
X26369428Y-72830095D01*
X26559904Y-72877714D01*
X26655142Y-72925333D01*
X26702761Y-72972952D01*
X26750380Y-73068190D01*
X26750380Y-73163428D01*
X26702761Y-73258666D01*
X26655142Y-73306285D01*
X26559904Y-73353904D01*
X26369428Y-73401523D01*
X26131333Y-73401523D01*
X25940857Y-73353904D01*
X25845619Y-73306285D01*
X25798000Y-73258666D01*
X25750380Y-73163428D01*
%TO.C,R13*%
X31257142Y-86382380D02*
X30923809Y-85906190D01*
X30685714Y-86382380D02*
X30685714Y-85382380D01*
X31066666Y-85382380D01*
X31161904Y-85430000D01*
X31209523Y-85477619D01*
X31257142Y-85572857D01*
X31257142Y-85715714D01*
X31209523Y-85810952D01*
X31161904Y-85858571D01*
X31066666Y-85906190D01*
X30685714Y-85906190D01*
X32209523Y-86382380D02*
X31638095Y-86382380D01*
X31923809Y-86382380D02*
X31923809Y-85382380D01*
X31828571Y-85525238D01*
X31733333Y-85620476D01*
X31638095Y-85668095D01*
X32542857Y-85382380D02*
X33161904Y-85382380D01*
X32828571Y-85763333D01*
X32971428Y-85763333D01*
X33066666Y-85810952D01*
X33114285Y-85858571D01*
X33161904Y-85953809D01*
X33161904Y-86191904D01*
X33114285Y-86287142D01*
X33066666Y-86334761D01*
X32971428Y-86382380D01*
X32685714Y-86382380D01*
X32590476Y-86334761D01*
X32542857Y-86287142D01*
%TO.C,R14*%
X36257142Y-86382380D02*
X35923809Y-85906190D01*
X35685714Y-86382380D02*
X35685714Y-85382380D01*
X36066666Y-85382380D01*
X36161904Y-85430000D01*
X36209523Y-85477619D01*
X36257142Y-85572857D01*
X36257142Y-85715714D01*
X36209523Y-85810952D01*
X36161904Y-85858571D01*
X36066666Y-85906190D01*
X35685714Y-85906190D01*
X37209523Y-86382380D02*
X36638095Y-86382380D01*
X36923809Y-86382380D02*
X36923809Y-85382380D01*
X36828571Y-85525238D01*
X36733333Y-85620476D01*
X36638095Y-85668095D01*
X38066666Y-85715714D02*
X38066666Y-86382380D01*
X37828571Y-85334761D02*
X37590476Y-86049047D01*
X38209523Y-86049047D01*
%TO.C,C13*%
X36257142Y-89843142D02*
X36209523Y-89890761D01*
X36066666Y-89938380D01*
X35971428Y-89938380D01*
X35828571Y-89890761D01*
X35733333Y-89795523D01*
X35685714Y-89700285D01*
X35638095Y-89509809D01*
X35638095Y-89366952D01*
X35685714Y-89176476D01*
X35733333Y-89081238D01*
X35828571Y-88986000D01*
X35971428Y-88938380D01*
X36066666Y-88938380D01*
X36209523Y-88986000D01*
X36257142Y-89033619D01*
X37209523Y-89938380D02*
X36638095Y-89938380D01*
X36923809Y-89938380D02*
X36923809Y-88938380D01*
X36828571Y-89081238D01*
X36733333Y-89176476D01*
X36638095Y-89224095D01*
X37542857Y-88938380D02*
X38161904Y-88938380D01*
X37828571Y-89319333D01*
X37971428Y-89319333D01*
X38066666Y-89366952D01*
X38114285Y-89414571D01*
X38161904Y-89509809D01*
X38161904Y-89747904D01*
X38114285Y-89843142D01*
X38066666Y-89890761D01*
X37971428Y-89938380D01*
X37685714Y-89938380D01*
X37590476Y-89890761D01*
X37542857Y-89843142D01*
D14*
%TO.C,S2*%
X55122480Y-46625447D02*
X55303909Y-46685923D01*
X55606290Y-46685923D01*
X55727242Y-46625447D01*
X55787719Y-46564971D01*
X55848195Y-46444019D01*
X55848195Y-46323066D01*
X55787719Y-46202114D01*
X55727242Y-46141638D01*
X55606290Y-46081161D01*
X55364385Y-46020685D01*
X55243433Y-45960209D01*
X55182957Y-45899733D01*
X55122480Y-45778780D01*
X55122480Y-45657828D01*
X55182957Y-45536876D01*
X55243433Y-45476400D01*
X55364385Y-45415923D01*
X55666766Y-45415923D01*
X55848195Y-45476400D01*
X56332004Y-45536876D02*
X56392480Y-45476400D01*
X56513433Y-45415923D01*
X56815814Y-45415923D01*
X56936766Y-45476400D01*
X56997242Y-45536876D01*
X57057719Y-45657828D01*
X57057719Y-45778780D01*
X56997242Y-45960209D01*
X56271528Y-46685923D01*
X57057719Y-46685923D01*
D12*
%TO.C,NPTH_0*%
X18952380Y-26902380D02*
X18952380Y-25902380D01*
X19523809Y-26902380D01*
X19523809Y-25902380D01*
X20000000Y-26902380D02*
X20000000Y-25902380D01*
X20380952Y-25902380D01*
X20476190Y-25950000D01*
X20523809Y-25997619D01*
X20571428Y-26092857D01*
X20571428Y-26235714D01*
X20523809Y-26330952D01*
X20476190Y-26378571D01*
X20380952Y-26426190D01*
X20000000Y-26426190D01*
X20857142Y-25902380D02*
X21428571Y-25902380D01*
X21142857Y-26902380D02*
X21142857Y-25902380D01*
X21761904Y-26902380D02*
X21761904Y-25902380D01*
X21761904Y-26378571D02*
X22333333Y-26378571D01*
X22333333Y-26902380D02*
X22333333Y-25902380D01*
X22571428Y-26997619D02*
X23333333Y-26997619D01*
X23761904Y-25902380D02*
X23857142Y-25902380D01*
X23952380Y-25950000D01*
X24000000Y-25997619D01*
X24047619Y-26092857D01*
X24095238Y-26283333D01*
X24095238Y-26521428D01*
X24047619Y-26711904D01*
X24000000Y-26807142D01*
X23952380Y-26854761D01*
X23857142Y-26902380D01*
X23761904Y-26902380D01*
X23666666Y-26854761D01*
X23619047Y-26807142D01*
X23571428Y-26711904D01*
X23523809Y-26521428D01*
X23523809Y-26283333D01*
X23571428Y-26092857D01*
X23619047Y-25997619D01*
X23666666Y-25950000D01*
X23761904Y-25902380D01*
%TO.C,C21*%
X31657142Y-68447142D02*
X31609523Y-68494761D01*
X31466666Y-68542380D01*
X31371428Y-68542380D01*
X31228571Y-68494761D01*
X31133333Y-68399523D01*
X31085714Y-68304285D01*
X31038095Y-68113809D01*
X31038095Y-67970952D01*
X31085714Y-67780476D01*
X31133333Y-67685238D01*
X31228571Y-67590000D01*
X31371428Y-67542380D01*
X31466666Y-67542380D01*
X31609523Y-67590000D01*
X31657142Y-67637619D01*
X32038095Y-67637619D02*
X32085714Y-67590000D01*
X32180952Y-67542380D01*
X32419047Y-67542380D01*
X32514285Y-67590000D01*
X32561904Y-67637619D01*
X32609523Y-67732857D01*
X32609523Y-67828095D01*
X32561904Y-67970952D01*
X31990476Y-68542380D01*
X32609523Y-68542380D01*
X33561904Y-68542380D02*
X32990476Y-68542380D01*
X33276190Y-68542380D02*
X33276190Y-67542380D01*
X33180952Y-67685238D01*
X33085714Y-67780476D01*
X32990476Y-67828095D01*
%TO.C,C12*%
X31257142Y-89843142D02*
X31209523Y-89890761D01*
X31066666Y-89938380D01*
X30971428Y-89938380D01*
X30828571Y-89890761D01*
X30733333Y-89795523D01*
X30685714Y-89700285D01*
X30638095Y-89509809D01*
X30638095Y-89366952D01*
X30685714Y-89176476D01*
X30733333Y-89081238D01*
X30828571Y-88986000D01*
X30971428Y-88938380D01*
X31066666Y-88938380D01*
X31209523Y-88986000D01*
X31257142Y-89033619D01*
X32209523Y-89938380D02*
X31638095Y-89938380D01*
X31923809Y-89938380D02*
X31923809Y-88938380D01*
X31828571Y-89081238D01*
X31733333Y-89176476D01*
X31638095Y-89224095D01*
X32590476Y-89033619D02*
X32638095Y-88986000D01*
X32733333Y-88938380D01*
X32971428Y-88938380D01*
X33066666Y-88986000D01*
X33114285Y-89033619D01*
X33161904Y-89128857D01*
X33161904Y-89224095D01*
X33114285Y-89366952D01*
X32542857Y-89938380D01*
X33161904Y-89938380D01*
%TO.C,R12*%
X26257142Y-86382380D02*
X25923809Y-85906190D01*
X25685714Y-86382380D02*
X25685714Y-85382380D01*
X26066666Y-85382380D01*
X26161904Y-85430000D01*
X26209523Y-85477619D01*
X26257142Y-85572857D01*
X26257142Y-85715714D01*
X26209523Y-85810952D01*
X26161904Y-85858571D01*
X26066666Y-85906190D01*
X25685714Y-85906190D01*
X27209523Y-86382380D02*
X26638095Y-86382380D01*
X26923809Y-86382380D02*
X26923809Y-85382380D01*
X26828571Y-85525238D01*
X26733333Y-85620476D01*
X26638095Y-85668095D01*
X27590476Y-85477619D02*
X27638095Y-85430000D01*
X27733333Y-85382380D01*
X27971428Y-85382380D01*
X28066666Y-85430000D01*
X28114285Y-85477619D01*
X28161904Y-85572857D01*
X28161904Y-85668095D01*
X28114285Y-85810952D01*
X27542857Y-86382380D01*
X28161904Y-86382380D01*
D14*
%TO.C,S1*%
X29342480Y-46625447D02*
X29523909Y-46685923D01*
X29826290Y-46685923D01*
X29947242Y-46625447D01*
X30007719Y-46564971D01*
X30068195Y-46444019D01*
X30068195Y-46323066D01*
X30007719Y-46202114D01*
X29947242Y-46141638D01*
X29826290Y-46081161D01*
X29584385Y-46020685D01*
X29463433Y-45960209D01*
X29402957Y-45899733D01*
X29342480Y-45778780D01*
X29342480Y-45657828D01*
X29402957Y-45536876D01*
X29463433Y-45476400D01*
X29584385Y-45415923D01*
X29886766Y-45415923D01*
X30068195Y-45476400D01*
X31277719Y-46685923D02*
X30552004Y-46685923D01*
X30914861Y-46685923D02*
X30914861Y-45415923D01*
X30793909Y-45597352D01*
X30672957Y-45718304D01*
X30552004Y-45778780D01*
D12*
%TO.C,J10*%
X51747480Y-61144923D02*
X52461766Y-61144923D01*
X52604623Y-61192542D01*
X52699861Y-61287780D01*
X52747480Y-61430638D01*
X52747480Y-61525876D01*
X52747480Y-60144923D02*
X52747480Y-60716352D01*
X52747480Y-60430638D02*
X51747480Y-60430638D01*
X51890338Y-60525876D01*
X51985576Y-60621114D01*
X52033195Y-60716352D01*
X51747480Y-59525876D02*
X51747480Y-59430638D01*
X51795100Y-59335400D01*
X51842719Y-59287780D01*
X51937957Y-59240161D01*
X52128433Y-59192542D01*
X52366528Y-59192542D01*
X52557004Y-59240161D01*
X52652242Y-59287780D01*
X52699861Y-59335400D01*
X52747480Y-59430638D01*
X52747480Y-59525876D01*
X52699861Y-59621114D01*
X52652242Y-59668733D01*
X52557004Y-59716352D01*
X52366528Y-59763971D01*
X52128433Y-59763971D01*
X51937957Y-59716352D01*
X51842719Y-59668733D01*
X51795100Y-59621114D01*
X51747480Y-59525876D01*
%TO.C,C19*%
X35291142Y-74734857D02*
X35338761Y-74782476D01*
X35386380Y-74925333D01*
X35386380Y-75020571D01*
X35338761Y-75163428D01*
X35243523Y-75258666D01*
X35148285Y-75306285D01*
X34957809Y-75353904D01*
X34814952Y-75353904D01*
X34624476Y-75306285D01*
X34529238Y-75258666D01*
X34434000Y-75163428D01*
X34386380Y-75020571D01*
X34386380Y-74925333D01*
X34434000Y-74782476D01*
X34481619Y-74734857D01*
X35386380Y-73782476D02*
X35386380Y-74353904D01*
X35386380Y-74068190D02*
X34386380Y-74068190D01*
X34529238Y-74163428D01*
X34624476Y-74258666D01*
X34672095Y-74353904D01*
X35386380Y-73306285D02*
X35386380Y-73115809D01*
X35338761Y-73020571D01*
X35291142Y-72972952D01*
X35148285Y-72877714D01*
X34957809Y-72830095D01*
X34576857Y-72830095D01*
X34481619Y-72877714D01*
X34434000Y-72925333D01*
X34386380Y-73020571D01*
X34386380Y-73211047D01*
X34434000Y-73306285D01*
X34481619Y-73353904D01*
X34576857Y-73401523D01*
X34814952Y-73401523D01*
X34910190Y-73353904D01*
X34957809Y-73306285D01*
X35005428Y-73211047D01*
X35005428Y-73020571D01*
X34957809Y-72925333D01*
X34910190Y-72877714D01*
X34814952Y-72830095D01*
%TO.C,R18*%
X56257142Y-86382380D02*
X55923809Y-85906190D01*
X55685714Y-86382380D02*
X55685714Y-85382380D01*
X56066666Y-85382380D01*
X56161904Y-85430000D01*
X56209523Y-85477619D01*
X56257142Y-85572857D01*
X56257142Y-85715714D01*
X56209523Y-85810952D01*
X56161904Y-85858571D01*
X56066666Y-85906190D01*
X55685714Y-85906190D01*
X57209523Y-86382380D02*
X56638095Y-86382380D01*
X56923809Y-86382380D02*
X56923809Y-85382380D01*
X56828571Y-85525238D01*
X56733333Y-85620476D01*
X56638095Y-85668095D01*
X57780952Y-85810952D02*
X57685714Y-85763333D01*
X57638095Y-85715714D01*
X57590476Y-85620476D01*
X57590476Y-85572857D01*
X57638095Y-85477619D01*
X57685714Y-85430000D01*
X57780952Y-85382380D01*
X57971428Y-85382380D01*
X58066666Y-85430000D01*
X58114285Y-85477619D01*
X58161904Y-85572857D01*
X58161904Y-85620476D01*
X58114285Y-85715714D01*
X58066666Y-85763333D01*
X57971428Y-85810952D01*
X57780952Y-85810952D01*
X57685714Y-85858571D01*
X57638095Y-85906190D01*
X57590476Y-86001428D01*
X57590476Y-86191904D01*
X57638095Y-86287142D01*
X57685714Y-86334761D01*
X57780952Y-86382380D01*
X57971428Y-86382380D01*
X58066666Y-86334761D01*
X58114285Y-86287142D01*
X58161904Y-86191904D01*
X58161904Y-86001428D01*
X58114285Y-85906190D01*
X58066666Y-85858571D01*
X57971428Y-85810952D01*
%TO.C,R15*%
X41257142Y-86382380D02*
X40923809Y-85906190D01*
X40685714Y-86382380D02*
X40685714Y-85382380D01*
X41066666Y-85382380D01*
X41161904Y-85430000D01*
X41209523Y-85477619D01*
X41257142Y-85572857D01*
X41257142Y-85715714D01*
X41209523Y-85810952D01*
X41161904Y-85858571D01*
X41066666Y-85906190D01*
X40685714Y-85906190D01*
X42209523Y-86382380D02*
X41638095Y-86382380D01*
X41923809Y-86382380D02*
X41923809Y-85382380D01*
X41828571Y-85525238D01*
X41733333Y-85620476D01*
X41638095Y-85668095D01*
X43114285Y-85382380D02*
X42638095Y-85382380D01*
X42590476Y-85858571D01*
X42638095Y-85810952D01*
X42733333Y-85763333D01*
X42971428Y-85763333D01*
X43066666Y-85810952D01*
X43114285Y-85858571D01*
X43161904Y-85953809D01*
X43161904Y-86191904D01*
X43114285Y-86287142D01*
X43066666Y-86334761D01*
X42971428Y-86382380D01*
X42733333Y-86382380D01*
X42638095Y-86334761D01*
X42590476Y-86287142D01*
%TO.C,C17*%
X56257142Y-89843142D02*
X56209523Y-89890761D01*
X56066666Y-89938380D01*
X55971428Y-89938380D01*
X55828571Y-89890761D01*
X55733333Y-89795523D01*
X55685714Y-89700285D01*
X55638095Y-89509809D01*
X55638095Y-89366952D01*
X55685714Y-89176476D01*
X55733333Y-89081238D01*
X55828571Y-88986000D01*
X55971428Y-88938380D01*
X56066666Y-88938380D01*
X56209523Y-88986000D01*
X56257142Y-89033619D01*
X57209523Y-89938380D02*
X56638095Y-89938380D01*
X56923809Y-89938380D02*
X56923809Y-88938380D01*
X56828571Y-89081238D01*
X56733333Y-89176476D01*
X56638095Y-89224095D01*
X57542857Y-88938380D02*
X58209523Y-88938380D01*
X57780952Y-89938380D01*
D14*
%TO.C,IC3*%
X50378523Y-74783161D02*
X49108523Y-74783161D01*
X50257571Y-73452685D02*
X50318047Y-73513161D01*
X50378523Y-73694590D01*
X50378523Y-73815542D01*
X50318047Y-73996971D01*
X50197095Y-74117923D01*
X50076142Y-74178400D01*
X49834238Y-74238876D01*
X49652809Y-74238876D01*
X49410904Y-74178400D01*
X49289952Y-74117923D01*
X49169000Y-73996971D01*
X49108523Y-73815542D01*
X49108523Y-73694590D01*
X49169000Y-73513161D01*
X49229476Y-73452685D01*
X49108523Y-73029352D02*
X49108523Y-72243161D01*
X49592333Y-72666495D01*
X49592333Y-72485066D01*
X49652809Y-72364114D01*
X49713285Y-72303638D01*
X49834238Y-72243161D01*
X50136619Y-72243161D01*
X50257571Y-72303638D01*
X50318047Y-72364114D01*
X50378523Y-72485066D01*
X50378523Y-72847923D01*
X50318047Y-72968876D01*
X50257571Y-73029352D01*
D12*
%TO.C,C18*%
X61257142Y-89843142D02*
X61209523Y-89890761D01*
X61066666Y-89938380D01*
X60971428Y-89938380D01*
X60828571Y-89890761D01*
X60733333Y-89795523D01*
X60685714Y-89700285D01*
X60638095Y-89509809D01*
X60638095Y-89366952D01*
X60685714Y-89176476D01*
X60733333Y-89081238D01*
X60828571Y-88986000D01*
X60971428Y-88938380D01*
X61066666Y-88938380D01*
X61209523Y-88986000D01*
X61257142Y-89033619D01*
X62209523Y-89938380D02*
X61638095Y-89938380D01*
X61923809Y-89938380D02*
X61923809Y-88938380D01*
X61828571Y-89081238D01*
X61733333Y-89176476D01*
X61638095Y-89224095D01*
X62780952Y-89366952D02*
X62685714Y-89319333D01*
X62638095Y-89271714D01*
X62590476Y-89176476D01*
X62590476Y-89128857D01*
X62638095Y-89033619D01*
X62685714Y-88986000D01*
X62780952Y-88938380D01*
X62971428Y-88938380D01*
X63066666Y-88986000D01*
X63114285Y-89033619D01*
X63161904Y-89128857D01*
X63161904Y-89176476D01*
X63114285Y-89271714D01*
X63066666Y-89319333D01*
X62971428Y-89366952D01*
X62780952Y-89366952D01*
X62685714Y-89414571D01*
X62638095Y-89462190D01*
X62590476Y-89557428D01*
X62590476Y-89747904D01*
X62638095Y-89843142D01*
X62685714Y-89890761D01*
X62780952Y-89938380D01*
X62971428Y-89938380D01*
X63066666Y-89890761D01*
X63114285Y-89843142D01*
X63161904Y-89747904D01*
X63161904Y-89557428D01*
X63114285Y-89462190D01*
X63066666Y-89414571D01*
X62971428Y-89366952D01*
%TO.C,C14*%
X41257142Y-89843142D02*
X41209523Y-89890761D01*
X41066666Y-89938380D01*
X40971428Y-89938380D01*
X40828571Y-89890761D01*
X40733333Y-89795523D01*
X40685714Y-89700285D01*
X40638095Y-89509809D01*
X40638095Y-89366952D01*
X40685714Y-89176476D01*
X40733333Y-89081238D01*
X40828571Y-88986000D01*
X40971428Y-88938380D01*
X41066666Y-88938380D01*
X41209523Y-88986000D01*
X41257142Y-89033619D01*
X42209523Y-89938380D02*
X41638095Y-89938380D01*
X41923809Y-89938380D02*
X41923809Y-88938380D01*
X41828571Y-89081238D01*
X41733333Y-89176476D01*
X41638095Y-89224095D01*
X43066666Y-89271714D02*
X43066666Y-89938380D01*
X42828571Y-88890761D02*
X42590476Y-89605047D01*
X43209523Y-89605047D01*
%TO.C,C16*%
X51257142Y-89843142D02*
X51209523Y-89890761D01*
X51066666Y-89938380D01*
X50971428Y-89938380D01*
X50828571Y-89890761D01*
X50733333Y-89795523D01*
X50685714Y-89700285D01*
X50638095Y-89509809D01*
X50638095Y-89366952D01*
X50685714Y-89176476D01*
X50733333Y-89081238D01*
X50828571Y-88986000D01*
X50971428Y-88938380D01*
X51066666Y-88938380D01*
X51209523Y-88986000D01*
X51257142Y-89033619D01*
X52209523Y-89938380D02*
X51638095Y-89938380D01*
X51923809Y-89938380D02*
X51923809Y-88938380D01*
X51828571Y-89081238D01*
X51733333Y-89176476D01*
X51638095Y-89224095D01*
X53066666Y-88938380D02*
X52876190Y-88938380D01*
X52780952Y-88986000D01*
X52733333Y-89033619D01*
X52638095Y-89176476D01*
X52590476Y-89366952D01*
X52590476Y-89747904D01*
X52638095Y-89843142D01*
X52685714Y-89890761D01*
X52780952Y-89938380D01*
X52971428Y-89938380D01*
X53066666Y-89890761D01*
X53114285Y-89843142D01*
X53161904Y-89747904D01*
X53161904Y-89509809D01*
X53114285Y-89414571D01*
X53066666Y-89366952D01*
X52971428Y-89319333D01*
X52780952Y-89319333D01*
X52685714Y-89366952D01*
X52638095Y-89414571D01*
X52590476Y-89509809D01*
%TO.C,R16*%
X46257142Y-86382380D02*
X45923809Y-85906190D01*
X45685714Y-86382380D02*
X45685714Y-85382380D01*
X46066666Y-85382380D01*
X46161904Y-85430000D01*
X46209523Y-85477619D01*
X46257142Y-85572857D01*
X46257142Y-85715714D01*
X46209523Y-85810952D01*
X46161904Y-85858571D01*
X46066666Y-85906190D01*
X45685714Y-85906190D01*
X47209523Y-86382380D02*
X46638095Y-86382380D01*
X46923809Y-86382380D02*
X46923809Y-85382380D01*
X46828571Y-85525238D01*
X46733333Y-85620476D01*
X46638095Y-85668095D01*
X48066666Y-85382380D02*
X47876190Y-85382380D01*
X47780952Y-85430000D01*
X47733333Y-85477619D01*
X47638095Y-85620476D01*
X47590476Y-85810952D01*
X47590476Y-86191904D01*
X47638095Y-86287142D01*
X47685714Y-86334761D01*
X47780952Y-86382380D01*
X47971428Y-86382380D01*
X48066666Y-86334761D01*
X48114285Y-86287142D01*
X48161904Y-86191904D01*
X48161904Y-85953809D01*
X48114285Y-85858571D01*
X48066666Y-85810952D01*
X47971428Y-85763333D01*
X47780952Y-85763333D01*
X47685714Y-85810952D01*
X47638095Y-85858571D01*
X47590476Y-85953809D01*
%TO.C,R19*%
X61257142Y-86382380D02*
X60923809Y-85906190D01*
X60685714Y-86382380D02*
X60685714Y-85382380D01*
X61066666Y-85382380D01*
X61161904Y-85430000D01*
X61209523Y-85477619D01*
X61257142Y-85572857D01*
X61257142Y-85715714D01*
X61209523Y-85810952D01*
X61161904Y-85858571D01*
X61066666Y-85906190D01*
X60685714Y-85906190D01*
X62209523Y-86382380D02*
X61638095Y-86382380D01*
X61923809Y-86382380D02*
X61923809Y-85382380D01*
X61828571Y-85525238D01*
X61733333Y-85620476D01*
X61638095Y-85668095D01*
X62685714Y-86382380D02*
X62876190Y-86382380D01*
X62971428Y-86334761D01*
X63019047Y-86287142D01*
X63114285Y-86144285D01*
X63161904Y-85953809D01*
X63161904Y-85572857D01*
X63114285Y-85477619D01*
X63066666Y-85430000D01*
X62971428Y-85382380D01*
X62780952Y-85382380D01*
X62685714Y-85430000D01*
X62638095Y-85477619D01*
X62590476Y-85572857D01*
X62590476Y-85810952D01*
X62638095Y-85906190D01*
X62685714Y-85953809D01*
X62780952Y-86001428D01*
X62971428Y-86001428D01*
X63066666Y-85953809D01*
X63114285Y-85906190D01*
X63161904Y-85810952D01*
%TO.C,R17*%
X51257142Y-86382380D02*
X50923809Y-85906190D01*
X50685714Y-86382380D02*
X50685714Y-85382380D01*
X51066666Y-85382380D01*
X51161904Y-85430000D01*
X51209523Y-85477619D01*
X51257142Y-85572857D01*
X51257142Y-85715714D01*
X51209523Y-85810952D01*
X51161904Y-85858571D01*
X51066666Y-85906190D01*
X50685714Y-85906190D01*
X52209523Y-86382380D02*
X51638095Y-86382380D01*
X51923809Y-86382380D02*
X51923809Y-85382380D01*
X51828571Y-85525238D01*
X51733333Y-85620476D01*
X51638095Y-85668095D01*
X52542857Y-85382380D02*
X53209523Y-85382380D01*
X52780952Y-86382380D01*
%TO.C,C11*%
X26257142Y-89843142D02*
X26209523Y-89890761D01*
X26066666Y-89938380D01*
X25971428Y-89938380D01*
X25828571Y-89890761D01*
X25733333Y-89795523D01*
X25685714Y-89700285D01*
X25638095Y-89509809D01*
X25638095Y-89366952D01*
X25685714Y-89176476D01*
X25733333Y-89081238D01*
X25828571Y-88986000D01*
X25971428Y-88938380D01*
X26066666Y-88938380D01*
X26209523Y-88986000D01*
X26257142Y-89033619D01*
X27209523Y-89938380D02*
X26638095Y-89938380D01*
X26923809Y-89938380D02*
X26923809Y-88938380D01*
X26828571Y-89081238D01*
X26733333Y-89176476D01*
X26638095Y-89224095D01*
X28161904Y-89938380D02*
X27590476Y-89938380D01*
X27876190Y-89938380D02*
X27876190Y-88938380D01*
X27780952Y-89081238D01*
X27685714Y-89176476D01*
X27590476Y-89224095D01*
%TO.C,NPTH_2*%
X18952380Y-95502380D02*
X18952380Y-94502380D01*
X19523809Y-95502380D01*
X19523809Y-94502380D01*
X20000000Y-95502380D02*
X20000000Y-94502380D01*
X20380952Y-94502380D01*
X20476190Y-94550000D01*
X20523809Y-94597619D01*
X20571428Y-94692857D01*
X20571428Y-94835714D01*
X20523809Y-94930952D01*
X20476190Y-94978571D01*
X20380952Y-95026190D01*
X20000000Y-95026190D01*
X20857142Y-94502380D02*
X21428571Y-94502380D01*
X21142857Y-95502380D02*
X21142857Y-94502380D01*
X21761904Y-95502380D02*
X21761904Y-94502380D01*
X21761904Y-94978571D02*
X22333333Y-94978571D01*
X22333333Y-95502380D02*
X22333333Y-94502380D01*
X22571428Y-95597619D02*
X23333333Y-95597619D01*
X23523809Y-94597619D02*
X23571428Y-94550000D01*
X23666666Y-94502380D01*
X23904761Y-94502380D01*
X24000000Y-94550000D01*
X24047619Y-94597619D01*
X24095238Y-94692857D01*
X24095238Y-94788095D01*
X24047619Y-94930952D01*
X23476190Y-95502380D01*
X24095238Y-95502380D01*
%TO.C,NPTH_1*%
X62452380Y-26902380D02*
X62452380Y-25902380D01*
X63023809Y-26902380D01*
X63023809Y-25902380D01*
X63500000Y-26902380D02*
X63500000Y-25902380D01*
X63880952Y-25902380D01*
X63976190Y-25950000D01*
X64023809Y-25997619D01*
X64071428Y-26092857D01*
X64071428Y-26235714D01*
X64023809Y-26330952D01*
X63976190Y-26378571D01*
X63880952Y-26426190D01*
X63500000Y-26426190D01*
X64357142Y-25902380D02*
X64928571Y-25902380D01*
X64642857Y-26902380D02*
X64642857Y-25902380D01*
X65261904Y-26902380D02*
X65261904Y-25902380D01*
X65261904Y-26378571D02*
X65833333Y-26378571D01*
X65833333Y-26902380D02*
X65833333Y-25902380D01*
X66071428Y-26997619D02*
X66833333Y-26997619D01*
X67595238Y-26902380D02*
X67023809Y-26902380D01*
X67309523Y-26902380D02*
X67309523Y-25902380D01*
X67214285Y-26045238D01*
X67119047Y-26140476D01*
X67023809Y-26188095D01*
D14*
%TO.C,J9*%
X53179966Y-94576523D02*
X53179966Y-95483666D01*
X53119490Y-95665095D01*
X52998538Y-95786047D01*
X52817109Y-95846523D01*
X52696157Y-95846523D01*
X53845204Y-95846523D02*
X54087109Y-95846523D01*
X54208061Y-95786047D01*
X54268538Y-95725571D01*
X54389490Y-95544142D01*
X54449966Y-95302238D01*
X54449966Y-94818428D01*
X54389490Y-94697476D01*
X54329014Y-94637000D01*
X54208061Y-94576523D01*
X53966157Y-94576523D01*
X53845204Y-94637000D01*
X53784728Y-94697476D01*
X53724252Y-94818428D01*
X53724252Y-95120809D01*
X53784728Y-95241761D01*
X53845204Y-95302238D01*
X53966157Y-95362714D01*
X54208061Y-95362714D01*
X54329014Y-95302238D01*
X54389490Y-95241761D01*
X54449966Y-95120809D01*
D10*
%TO.C,IC2*%
X30850000Y-74900000D02*
X30850000Y-74300000D01*
X30850000Y-74300000D02*
X33750000Y-74300000D01*
X33750000Y-74300000D02*
X33750000Y-74900000D01*
X33750000Y-74900000D02*
X30850000Y-74900000D01*
X30700000Y-76450000D02*
X30700000Y-75250000D01*
D15*
%TO.C,J11*%
X53435100Y-36016400D02*
X53435100Y-30816400D01*
X35595100Y-30816400D02*
X53435100Y-30816400D01*
X32995100Y-33416400D02*
X35595100Y-33416400D01*
X32995100Y-36016400D02*
X32995100Y-33416400D01*
X32995100Y-30816400D02*
X34325100Y-30816400D01*
X35595100Y-33416400D02*
X35595100Y-30816400D01*
X32995100Y-36016400D02*
X53435100Y-36016400D01*
X32995100Y-32146400D02*
X32995100Y-30816400D01*
%TO.C,C15*%
X47046267Y-88566000D02*
X46753733Y-88566000D01*
X47046267Y-87546000D02*
X46753733Y-87546000D01*
%TO.C,C20*%
X28238000Y-74238267D02*
X28238000Y-73945733D01*
X27218000Y-74238267D02*
X27218000Y-73945733D01*
%TO.C,R13*%
X32154724Y-83977500D02*
X31645276Y-83977500D01*
X32154724Y-85022500D02*
X31645276Y-85022500D01*
%TO.C,R14*%
X37154724Y-83977500D02*
X36645276Y-83977500D01*
X37154724Y-85022500D02*
X36645276Y-85022500D01*
%TO.C,C13*%
X37046267Y-87546000D02*
X36753733Y-87546000D01*
X37046267Y-88566000D02*
X36753733Y-88566000D01*
D16*
%TO.C,S2*%
X47200100Y-51621400D02*
X47200100Y-51621400D01*
D10*
X45220100Y-51061400D02*
X45220100Y-41161400D01*
X66960100Y-41161400D02*
X66960100Y-51061400D01*
X66960100Y-51061400D02*
X45220100Y-51061400D01*
X45220100Y-41161400D02*
X66960100Y-41161400D01*
D16*
X47200100Y-51521400D02*
X47200100Y-51521400D01*
X47200100Y-51621400D02*
G75*
G03*
X47200100Y-51521400I0J50000D01*
G01*
X47200100Y-51521400D02*
G75*
G03*
X47200100Y-51621400I0J-50000D01*
G01*
D15*
%TO.C,C21*%
X32153733Y-70030000D02*
X32446267Y-70030000D01*
X32153733Y-69010000D02*
X32446267Y-69010000D01*
%TO.C,C12*%
X32046267Y-88566000D02*
X31753733Y-88566000D01*
X32046267Y-87546000D02*
X31753733Y-87546000D01*
%TO.C,R12*%
X27154724Y-83977500D02*
X26645276Y-83977500D01*
X27154724Y-85022500D02*
X26645276Y-85022500D01*
D10*
%TO.C,S1*%
X19440100Y-41161400D02*
X41180100Y-41161400D01*
X41180100Y-41161400D02*
X41180100Y-51061400D01*
X19440100Y-51061400D02*
X19440100Y-41161400D01*
D16*
X21420100Y-51621400D02*
X21420100Y-51621400D01*
D10*
X41180100Y-51061400D02*
X19440100Y-51061400D01*
D16*
X21420100Y-51521400D02*
X21420100Y-51521400D01*
X21420100Y-51621400D02*
G75*
G03*
X21420100Y-51521400I0J50000D01*
G01*
X21420100Y-51521400D02*
G75*
G03*
X21420100Y-51621400I0J-50000D01*
G01*
D15*
%TO.C,J10*%
X48255100Y-59005400D02*
X35495100Y-59005400D01*
X48255100Y-61665400D02*
X35495100Y-61665400D01*
X48255100Y-59005400D02*
X48255100Y-61665400D01*
X35495100Y-59005400D02*
X35495100Y-61665400D01*
X50855100Y-61665400D02*
X49525100Y-61665400D01*
X50855100Y-60335400D02*
X50855100Y-61665400D01*
%TO.C,C19*%
X36874000Y-74238267D02*
X36874000Y-73945733D01*
X35854000Y-74238267D02*
X35854000Y-73945733D01*
%TO.C,R18*%
X57154724Y-83977500D02*
X56645276Y-83977500D01*
X57154724Y-85022500D02*
X56645276Y-85022500D01*
%TO.C,R15*%
X42154724Y-85022500D02*
X41645276Y-85022500D01*
X42154724Y-83977500D02*
X41645276Y-83977500D01*
%TO.C,C17*%
X57046267Y-87546000D02*
X56753733Y-87546000D01*
X57046267Y-88566000D02*
X56753733Y-88566000D01*
D10*
%TO.C,IC3*%
X39962000Y-78028400D02*
X39962000Y-69987400D01*
X59646000Y-77099400D02*
X59646000Y-69987400D01*
D15*
%TO.C,C18*%
X62046267Y-87546000D02*
X61753733Y-87546000D01*
X62046267Y-88566000D02*
X61753733Y-88566000D01*
%TO.C,C14*%
X42046267Y-87546000D02*
X41753733Y-87546000D01*
X42046267Y-88566000D02*
X41753733Y-88566000D01*
%TO.C,C16*%
X52046267Y-87546000D02*
X51753733Y-87546000D01*
X52046267Y-88566000D02*
X51753733Y-88566000D01*
%TO.C,R16*%
X47154724Y-83977500D02*
X46645276Y-83977500D01*
X47154724Y-85022500D02*
X46645276Y-85022500D01*
%TO.C,R19*%
X62154724Y-83977500D02*
X61645276Y-83977500D01*
X62154724Y-85022500D02*
X61645276Y-85022500D01*
%TO.C,R17*%
X52154724Y-85022500D02*
X51645276Y-85022500D01*
X52154724Y-83977500D02*
X51645276Y-83977500D01*
%TO.C,C11*%
X27046267Y-88566000D02*
X26753733Y-88566000D01*
X27046267Y-87546000D02*
X26753733Y-87546000D01*
D17*
%TO.C,J9*%
X57603300Y-95272000D02*
X58603300Y-94772000D01*
X57178300Y-104292000D02*
X29028300Y-104292000D01*
X58603300Y-94772000D02*
X58603300Y-95772000D01*
X58603300Y-95772000D02*
X57603300Y-95272000D01*
%TD*%
M02*
