%TF.GenerationSoftware,KiCad,Pcbnew,(6.0.7)*%
%TF.CreationDate,2023-09-07T13:48:48+01:00*%
%TF.ProjectId,CCC_rig_controller,4343435f-7269-4675-9f63-6f6e74726f6c,rev?*%
%TF.SameCoordinates,Original*%
%TF.FileFunction,Soldermask,Bot*%
%TF.FilePolarity,Negative*%
%FSLAX46Y46*%
G04 Gerber Fmt 4.6, Leading zero omitted, Abs format (unit mm)*
G04 Created by KiCad (PCBNEW (6.0.7)) date 2023-09-07 13:48:48*
%MOMM*%
%LPD*%
G01*
G04 APERTURE LIST*
%ADD10C,3.200000*%
%ADD11C,1.500000*%
%ADD12R,1.159000X1.159000*%
%ADD13C,1.159000*%
%ADD14R,1.520000X1.520000*%
%ADD15C,1.520000*%
%ADD16C,2.910000*%
%ADD17R,1.700000X1.700000*%
%ADD18O,1.700000X1.700000*%
%ADD19R,1.651000X5.080000*%
%ADD20C,1.303000*%
%ADD21R,2.100000X2.100000*%
%ADD22C,2.100000*%
%ADD23R,1.600000X1.600000*%
%ADD24C,1.600000*%
%ADD25O,1.800000X1.800000*%
%ADD26O,1.500000X1.500000*%
G04 APERTURE END LIST*
D10*
%TO.C,NPTH_0*%
X45285800Y-122185800D03*
%TD*%
D11*
%TO.C,S1*%
X45205900Y-141807200D03*
X45205900Y-134187200D03*
X47745900Y-141807200D03*
X47745900Y-134187200D03*
X50285900Y-141807200D03*
X50285900Y-134187200D03*
X52825900Y-141807200D03*
X52825900Y-134187200D03*
X55365900Y-141807200D03*
X55365900Y-134187200D03*
X57905900Y-141807200D03*
X57905900Y-134187200D03*
X60445900Y-141807200D03*
X60445900Y-134187200D03*
X62985900Y-141807200D03*
X62985900Y-134187200D03*
%TD*%
%TO.C,S2*%
X70985900Y-141807200D03*
X70985900Y-134187200D03*
X73525900Y-141807200D03*
X73525900Y-134187200D03*
X76065900Y-141807200D03*
X76065900Y-134187200D03*
X78605900Y-141807200D03*
X78605900Y-134187200D03*
X81145900Y-141807200D03*
X81145900Y-134187200D03*
X83685900Y-141807200D03*
X83685900Y-134187200D03*
X86225900Y-141807200D03*
X86225900Y-134187200D03*
X88765900Y-141807200D03*
X88765900Y-134187200D03*
%TD*%
D12*
%TO.C,IC3*%
X64699800Y-169334200D03*
D13*
X67239800Y-169334200D03*
X69779800Y-169334200D03*
X72319800Y-169334200D03*
X74859800Y-169334200D03*
X77399800Y-169334200D03*
X79939800Y-169334200D03*
X82479800Y-169334200D03*
X82479800Y-161524200D03*
X79939800Y-161524200D03*
X77399800Y-161524200D03*
X74859800Y-161524200D03*
X72319800Y-161524200D03*
X69779800Y-161524200D03*
X67239800Y-161524200D03*
X64699800Y-161524200D03*
%TD*%
D14*
%TO.C,J9*%
X77389100Y-187157800D03*
D15*
X74389100Y-187157800D03*
X71389100Y-187157800D03*
X68389100Y-187157800D03*
X65389100Y-187157800D03*
X62389100Y-187157800D03*
X59389100Y-187157800D03*
X56389100Y-187157800D03*
X77389100Y-184157800D03*
X74389100Y-184157800D03*
X71389100Y-184157800D03*
X68389100Y-184157800D03*
X65389100Y-184157800D03*
X62389100Y-184157800D03*
X59389100Y-184157800D03*
X56389100Y-184157800D03*
D16*
X79539100Y-191477800D03*
X54239100Y-191477800D03*
%TD*%
D10*
%TO.C,NPTH_2*%
X45285800Y-190785800D03*
%TD*%
%TO.C,NPTH_1*%
X88785800Y-122185800D03*
%TD*%
D17*
%TO.C,J10*%
X73310900Y-152221200D03*
D18*
X70770900Y-152221200D03*
X68230900Y-152221200D03*
X65690900Y-152221200D03*
X63150900Y-152221200D03*
X60610900Y-152221200D03*
%TD*%
D10*
%TO.C,NPTH_3*%
X88785800Y-190785800D03*
%TD*%
D17*
%TO.C,J11*%
X58110900Y-124032200D03*
D18*
X58110900Y-126572200D03*
X60650900Y-124032200D03*
X60650900Y-126572200D03*
X63190900Y-124032200D03*
X63190900Y-126572200D03*
X65730900Y-124032200D03*
X65730900Y-126572200D03*
X68270900Y-124032200D03*
X68270900Y-126572200D03*
X70810900Y-124032200D03*
X70810900Y-126572200D03*
X73350900Y-124032200D03*
X73350900Y-126572200D03*
X75890900Y-124032200D03*
X75890900Y-126572200D03*
%TD*%
D19*
%TO.C,J5*%
X43350000Y-16160000D03*
X40810000Y-16160000D03*
X38270000Y-16160000D03*
X35730000Y-16160000D03*
X33190000Y-16160000D03*
X30650000Y-16160000D03*
%TD*%
D20*
%TO.C,PS1*%
X88242000Y-52669800D03*
X88242000Y-50129800D03*
X88242000Y-47589800D03*
X88242000Y-45049800D03*
%TD*%
D17*
%TO.C,U2*%
X16500000Y-32794400D03*
D18*
X19040000Y-32794400D03*
X21580000Y-32794400D03*
%TD*%
D17*
%TO.C,U4*%
X16500000Y-24494400D03*
D18*
X19040000Y-24494400D03*
X21580000Y-24494400D03*
%TD*%
D21*
%TO.C,J8*%
X85500000Y-104288800D03*
D22*
X85500000Y-106788800D03*
X85500000Y-109288800D03*
X85500000Y-111788800D03*
%TD*%
D17*
%TO.C,U3*%
X16500000Y-41094400D03*
D18*
X19040000Y-41094400D03*
X21580000Y-41094400D03*
%TD*%
D23*
%TO.C,A1*%
X19360000Y-79520000D03*
D24*
X21900000Y-79520000D03*
X24440000Y-79520000D03*
X26980000Y-79520000D03*
X29520000Y-79520000D03*
X32060000Y-79520000D03*
X34600000Y-79520000D03*
X37140000Y-79520000D03*
X39680000Y-79520000D03*
X42220000Y-79520000D03*
X44760000Y-79520000D03*
X47300000Y-79520000D03*
X49840000Y-79520000D03*
X52380000Y-79520000D03*
X54920000Y-79520000D03*
X57460000Y-79520000D03*
X57460000Y-59200000D03*
X54920000Y-59200000D03*
X52380000Y-59200000D03*
X49840000Y-59200000D03*
X47300000Y-59200000D03*
X44760000Y-59200000D03*
X42220000Y-59200000D03*
X39680000Y-59200000D03*
X37140000Y-59200000D03*
X34600000Y-59200000D03*
X32060000Y-59200000D03*
X29520000Y-59200000D03*
%TD*%
D18*
%TO.C,U1*%
X73600000Y-98654400D03*
D17*
X73600000Y-101194400D03*
D18*
X73600000Y-103734400D03*
X25570000Y-92304400D03*
X28110000Y-92304400D03*
D17*
X30650000Y-92304400D03*
D18*
X33190000Y-92304400D03*
X35730000Y-92304400D03*
X38270000Y-92304400D03*
X40810000Y-92304400D03*
D17*
X43350000Y-92304400D03*
D18*
X45890000Y-92304400D03*
X48430000Y-92304400D03*
X50970000Y-92304400D03*
X53510000Y-92304400D03*
D17*
X56050000Y-92304400D03*
D18*
X58590000Y-92304400D03*
X61130000Y-92304400D03*
X63670000Y-92304400D03*
X66210000Y-92304400D03*
D17*
X68750000Y-92304400D03*
D18*
X71290000Y-92304400D03*
X73830000Y-92304400D03*
X73830000Y-110084400D03*
X71290000Y-110084400D03*
D17*
X68750000Y-110084400D03*
D18*
X66210000Y-110084400D03*
X63670000Y-110084400D03*
X61130000Y-110084400D03*
X58590000Y-110084400D03*
D17*
X56050000Y-110084400D03*
D18*
X53510000Y-110084400D03*
X50970000Y-110084400D03*
X48430000Y-110084400D03*
X45890000Y-110084400D03*
D17*
X43350000Y-110084400D03*
D18*
X40810000Y-110084400D03*
X38270000Y-110084400D03*
X35730000Y-110084400D03*
X33190000Y-110084400D03*
D17*
X30650000Y-110084400D03*
D18*
X28110000Y-110084400D03*
X25570000Y-110084400D03*
D25*
X25700000Y-103919400D03*
D26*
X28730000Y-98769400D03*
X28730000Y-103619400D03*
D25*
X25700000Y-98469400D03*
%TD*%
D21*
%TO.C,J4*%
X85725000Y-68463800D03*
D22*
X85725000Y-70963800D03*
%TD*%
%TO.C,J1*%
X84052000Y-26538800D03*
D21*
X86552000Y-26538800D03*
%TD*%
%TO.C,J3*%
X57403000Y-26438800D03*
D22*
X59903000Y-26438800D03*
X62403000Y-26438800D03*
%TD*%
%TO.C,J2*%
X75884000Y-26688800D03*
X73384000Y-26688800D03*
D21*
X70884000Y-26688800D03*
%TD*%
M02*
