%TF.GenerationSoftware,KiCad,Pcbnew,(6.0.7)*%
%TF.CreationDate,2023-09-07T13:48:48+01:00*%
%TF.ProjectId,CCC_rig_controller,4343435f-7269-4675-9f63-6f6e74726f6c,rev?*%
%TF.SameCoordinates,Original*%
%TF.FileFunction,Paste,Top*%
%TF.FilePolarity,Positive*%
%FSLAX46Y46*%
G04 Gerber Fmt 4.6, Leading zero omitted, Abs format (unit mm)*
G04 Created by KiCad (PCBNEW (6.0.7)) date 2023-09-07 13:48:48*
%MOMM*%
%LPD*%
G01*
G04 APERTURE LIST*
G04 Aperture macros list*
%AMRoundRect*
0 Rectangle with rounded corners*
0 $1 Rounding radius*
0 $2 $3 $4 $5 $6 $7 $8 $9 X,Y pos of 4 corners*
0 Add a 4 corners polygon primitive as box body*
4,1,4,$2,$3,$4,$5,$6,$7,$8,$9,$2,$3,0*
0 Add four circle primitives for the rounded corners*
1,1,$1+$1,$2,$3*
1,1,$1+$1,$4,$5*
1,1,$1+$1,$6,$7*
1,1,$1+$1,$8,$9*
0 Add four rect primitives between the rounded corners*
20,1,$1+$1,$2,$3,$4,$5,0*
20,1,$1+$1,$4,$5,$6,$7,0*
20,1,$1+$1,$6,$7,$8,$9,0*
20,1,$1+$1,$8,$9,$2,$3,0*%
G04 Aperture macros list end*
%ADD10R,0.600000X1.200000*%
%ADD11RoundRect,0.237500X0.300000X0.237500X-0.300000X0.237500X-0.300000X-0.237500X0.300000X-0.237500X0*%
%ADD12RoundRect,0.237500X0.250000X0.237500X-0.250000X0.237500X-0.250000X-0.237500X0.250000X-0.237500X0*%
%ADD13RoundRect,0.237500X0.237500X-0.300000X0.237500X0.300000X-0.237500X0.300000X-0.237500X-0.300000X0*%
%ADD14RoundRect,0.237500X-0.300000X-0.237500X0.300000X-0.237500X0.300000X0.237500X-0.300000X0.237500X0*%
%ADD15RoundRect,0.237500X-0.237500X0.300000X-0.237500X-0.300000X0.237500X-0.300000X0.237500X0.300000X0*%
%ADD16RoundRect,0.150000X0.587500X0.150000X-0.587500X0.150000X-0.587500X-0.150000X0.587500X-0.150000X0*%
%ADD17RoundRect,0.237500X0.237500X-0.250000X0.237500X0.250000X-0.237500X0.250000X-0.237500X-0.250000X0*%
%ADD18RoundRect,0.237500X-0.237500X0.250000X-0.237500X-0.250000X0.237500X-0.250000X0.237500X0.250000X0*%
%ADD19R,0.450000X1.705000*%
G04 APERTURE END LIST*
D10*
%TO.C,IC2*%
X55135800Y-167735800D03*
X56085800Y-167735800D03*
X57035800Y-167735800D03*
X57035800Y-165235800D03*
X56085800Y-165235800D03*
X55135800Y-165235800D03*
%TD*%
D11*
%TO.C,C13*%
X61548300Y-179941800D03*
X59823300Y-179941800D03*
%TD*%
D12*
%TO.C,R14*%
X61598300Y-176385800D03*
X59773300Y-176385800D03*
%TD*%
D11*
%TO.C,C14*%
X66548300Y-179941800D03*
X64823300Y-179941800D03*
%TD*%
%TO.C,C18*%
X86548300Y-179941800D03*
X84823300Y-179941800D03*
%TD*%
%TO.C,C17*%
X81548300Y-179941800D03*
X79823300Y-179941800D03*
%TD*%
D12*
%TO.C,R15*%
X66598300Y-176385800D03*
X64773300Y-176385800D03*
%TD*%
%TO.C,R18*%
X81598300Y-176385800D03*
X79773300Y-176385800D03*
%TD*%
D11*
%TO.C,C11*%
X51548300Y-179941800D03*
X49823300Y-179941800D03*
%TD*%
D12*
%TO.C,R19*%
X86598300Y-176385800D03*
X84773300Y-176385800D03*
%TD*%
%TO.C,R17*%
X76598300Y-176385800D03*
X74773300Y-176385800D03*
%TD*%
%TO.C,R16*%
X71598300Y-176385800D03*
X69773300Y-176385800D03*
%TD*%
D11*
%TO.C,C16*%
X76548300Y-179941800D03*
X74823300Y-179941800D03*
%TD*%
D13*
%TO.C,C19*%
X60149800Y-166840300D03*
X60149800Y-165115300D03*
%TD*%
D12*
%TO.C,R12*%
X51598300Y-176385800D03*
X49773300Y-176385800D03*
%TD*%
D11*
%TO.C,C12*%
X56548300Y-179941800D03*
X54823300Y-179941800D03*
%TD*%
D14*
%TO.C,C21*%
X55223300Y-161405800D03*
X56948300Y-161405800D03*
%TD*%
D12*
%TO.C,R13*%
X56598300Y-176385800D03*
X54773300Y-176385800D03*
%TD*%
D13*
%TO.C,C20*%
X51513800Y-166840300D03*
X51513800Y-165115300D03*
%TD*%
D11*
%TO.C,C15*%
X71548300Y-179941800D03*
X69823300Y-179941800D03*
%TD*%
D13*
%TO.C,C10*%
X66080000Y-53476300D03*
X66080000Y-51751300D03*
%TD*%
D15*
%TO.C,C7*%
X82488000Y-39100800D03*
X82488000Y-40825800D03*
%TD*%
D13*
%TO.C,C6*%
X64200000Y-40672300D03*
X64200000Y-38947300D03*
%TD*%
%TO.C,C3*%
X70296000Y-40672300D03*
X70296000Y-38947300D03*
%TD*%
%TO.C,C2*%
X73344000Y-40672300D03*
X73344000Y-38947300D03*
%TD*%
%TO.C,C1*%
X76392000Y-40825800D03*
X76392000Y-39100800D03*
%TD*%
D16*
%TO.C,Q1*%
X84961500Y-82730800D03*
X84961500Y-80830800D03*
X83086500Y-81780800D03*
%TD*%
D17*
%TO.C,R7*%
X67248000Y-35642300D03*
X67248000Y-33817300D03*
%TD*%
D13*
%TO.C,C4*%
X67248000Y-40672300D03*
X67248000Y-38947300D03*
%TD*%
D18*
%TO.C,R9*%
X82500000Y-76296300D03*
X82500000Y-78121300D03*
%TD*%
%TO.C,R4*%
X64200000Y-33817300D03*
X64200000Y-35642300D03*
%TD*%
%TO.C,R3*%
X70296000Y-33817300D03*
X70296000Y-35642300D03*
%TD*%
D17*
%TO.C,R5*%
X79440000Y-35642300D03*
X79440000Y-33817300D03*
%TD*%
%TO.C,R6*%
X73344000Y-35642300D03*
X73344000Y-33817300D03*
%TD*%
D18*
%TO.C,R11*%
X82500000Y-86796300D03*
X82500000Y-88621300D03*
%TD*%
%TO.C,R1*%
X78500000Y-68713800D03*
X78500000Y-70538800D03*
%TD*%
%TO.C,R2*%
X76392000Y-33817300D03*
X76392000Y-35642300D03*
%TD*%
D17*
%TO.C,R8*%
X88596000Y-82693300D03*
X88596000Y-80868300D03*
%TD*%
D11*
%TO.C,C9*%
X79990500Y-55613800D03*
X78265500Y-55613800D03*
%TD*%
D16*
%TO.C,Q2*%
X84937500Y-93158800D03*
X84937500Y-91258800D03*
X83062500Y-92208800D03*
%TD*%
D19*
%TO.C,IC1*%
X78053000Y-45115800D03*
X77403000Y-45115800D03*
X76753000Y-45115800D03*
X76103000Y-45115800D03*
X75453000Y-45115800D03*
X74803000Y-45115800D03*
X74153000Y-45115800D03*
X73503000Y-45115800D03*
X72853000Y-45115800D03*
X72203000Y-45115800D03*
X72203000Y-52111800D03*
X72853000Y-52111800D03*
X73503000Y-52111800D03*
X74153000Y-52111800D03*
X74803000Y-52111800D03*
X75453000Y-52111800D03*
X76103000Y-52111800D03*
X76753000Y-52111800D03*
X77403000Y-52111800D03*
X78053000Y-52111800D03*
%TD*%
D13*
%TO.C,C8*%
X69128000Y-53476300D03*
X69128000Y-51751300D03*
%TD*%
D17*
%TO.C,R10*%
X88500000Y-93701300D03*
X88500000Y-91876300D03*
%TD*%
D15*
%TO.C,C5*%
X79440000Y-39100800D03*
X79440000Y-40825800D03*
%TD*%
M02*
