%TF.GenerationSoftware,KiCad,Pcbnew,(6.0.7)*%
%TF.CreationDate,2023-09-07T13:48:51+01:00*%
%TF.ProjectId,CCC_rig_controller,4343435f-7269-4675-9f63-6f6e74726f6c,rev?*%
%TF.SameCoordinates,Original*%
%TF.FileFunction,Drillmap*%
%TF.FilePolarity,Positive*%
%FSLAX45Y45*%
G04 Gerber Fmt 4.5, Leading zero omitted, Abs format (unit mm)*
G04 Created by KiCad (PCBNEW (6.0.7)) date 2023-09-07 13:48:51*
%MOMM*%
%LPD*%
G01*
G04 APERTURE LIST*
%ADD10C,0.100000*%
%ADD11C,0.200000*%
%ADD12C,0.040000*%
%ADD13C,0.075900*%
%ADD14C,0.076000*%
%ADD15C,0.080000*%
%ADD16C,0.102000*%
%ADD17C,0.140000*%
%ADD18C,0.241000*%
G04 APERTURE END LIST*
D10*
X1200000Y-9619440D02*
X1200000Y-1999440D01*
X4571220Y-1999440D02*
X9200000Y-2003880D01*
X9200000Y-2003880D02*
X9200000Y-19399440D01*
X1200000Y-10619440D02*
X1200000Y-19399440D01*
X2828780Y-1999440D02*
X1200000Y-1999440D01*
X2000000Y-9619440D02*
X1200000Y-9619440D01*
X9200000Y-19399440D02*
X1200000Y-19399440D01*
X2000000Y-10619440D02*
G75*
G03*
X2000000Y-9619440I0J500000D01*
G01*
X2000000Y-10619440D02*
X1200000Y-10619440D01*
D11*
D12*
X4315000Y-3845690D02*
X4355000Y-3885690D01*
X4355000Y-3845690D02*
X4315000Y-3885690D01*
X6003710Y-14296680D02*
X6043710Y-14336680D01*
X6043710Y-14296680D02*
X6003710Y-14336680D01*
X6192550Y-10180000D02*
X6232550Y-10220000D01*
X6232550Y-10180000D02*
X6192550Y-10220000D01*
X6558420Y-10433900D02*
X6598420Y-10473900D01*
X6598420Y-10433900D02*
X6558420Y-10473900D01*
X6612600Y-10279680D02*
X6652600Y-10319680D01*
X6652600Y-10279680D02*
X6612600Y-10319680D01*
X7060000Y-5160000D02*
X7100000Y-5200000D01*
X7100000Y-5160000D02*
X7060000Y-5200000D01*
X7081270Y-10096370D02*
X7121270Y-10136370D01*
X7121270Y-10096370D02*
X7081270Y-10136370D01*
X7810000Y-17730000D02*
X7850000Y-17770000D01*
X7850000Y-17730000D02*
X7810000Y-17770000D01*
X7910000Y-5870000D02*
X7950000Y-5910000D01*
X7950000Y-5870000D02*
X7910000Y-5910000D01*
X7942090Y-6830890D02*
X7982090Y-6870890D01*
X7982090Y-6830890D02*
X7942090Y-6870890D01*
X8098850Y-7610640D02*
X8138850Y-7650640D01*
X8138850Y-7610640D02*
X8098850Y-7650640D01*
X8338890Y-8058410D02*
X8378890Y-8098410D01*
X8378890Y-8058410D02*
X8338890Y-8098410D01*
X8387070Y-9015100D02*
X8427070Y-9055100D01*
X8427070Y-9015100D02*
X8387070Y-9055100D01*
X8457470Y-8158080D02*
X8497470Y-8198080D01*
X8497470Y-8158080D02*
X8457470Y-8198080D01*
X8669220Y-8954160D02*
X8709220Y-8994160D01*
X8709220Y-8954160D02*
X8669220Y-8994160D01*
D13*
X6507930Y-16152420D02*
G75*
G03*
X6507930Y-16152420I-37950J0D01*
G01*
X6507930Y-16933420D02*
G75*
G03*
X6507930Y-16933420I-37950J0D01*
G01*
X6761930Y-16152420D02*
G75*
G03*
X6761930Y-16152420I-37950J0D01*
G01*
X6761930Y-16933420D02*
G75*
G03*
X6761930Y-16933420I-37950J0D01*
G01*
X7015930Y-16152420D02*
G75*
G03*
X7015930Y-16152420I-37950J0D01*
G01*
X7015930Y-16933420D02*
G75*
G03*
X7015930Y-16933420I-37950J0D01*
G01*
X7269930Y-16152420D02*
G75*
G03*
X7269930Y-16152420I-37950J0D01*
G01*
X7269930Y-16933420D02*
G75*
G03*
X7269930Y-16933420I-37950J0D01*
G01*
X7523930Y-16152420D02*
G75*
G03*
X7523930Y-16152420I-37950J0D01*
G01*
X7523930Y-16933420D02*
G75*
G03*
X7523930Y-16933420I-37950J0D01*
G01*
X7777930Y-16152420D02*
G75*
G03*
X7777930Y-16152420I-37950J0D01*
G01*
X7777930Y-16933420D02*
G75*
G03*
X7777930Y-16933420I-37950J0D01*
G01*
X8031930Y-16152420D02*
G75*
G03*
X8031930Y-16152420I-37950J0D01*
G01*
X8031930Y-16933420D02*
G75*
G03*
X8031930Y-16933420I-37950J0D01*
G01*
X8285930Y-16152420D02*
G75*
G03*
X8285930Y-16152420I-37950J0D01*
G01*
X8285930Y-16933420D02*
G75*
G03*
X8285930Y-16933420I-37950J0D01*
G01*
D14*
X8824200Y-4466980D02*
X8824200Y-4542980D01*
X8786200Y-4504980D02*
X8862200Y-4504980D01*
X8824200Y-4720980D02*
X8824200Y-4796980D01*
X8786200Y-4758980D02*
X8862200Y-4758980D01*
X8824200Y-4974980D02*
X8824200Y-5050980D01*
X8786200Y-5012980D02*
X8862200Y-5012980D01*
X8824200Y-5228980D02*
X8824200Y-5304980D01*
X8786200Y-5266980D02*
X8862200Y-5266980D01*
D15*
X1964284Y-7980284D02*
X1964284Y-7923715D01*
X1907715Y-7923715D01*
X1907715Y-7980284D01*
X1964284Y-7980284D01*
X2218285Y-7980284D02*
X2218285Y-7923715D01*
X2161716Y-7923715D01*
X2161716Y-7980284D01*
X2218285Y-7980284D01*
X2472285Y-7980284D02*
X2472285Y-7923715D01*
X2415716Y-7923715D01*
X2415716Y-7980284D01*
X2472285Y-7980284D01*
X2726285Y-7980284D02*
X2726285Y-7923715D01*
X2669716Y-7923715D01*
X2669716Y-7980284D01*
X2726285Y-7980284D01*
X2980284Y-5948284D02*
X2980284Y-5891715D01*
X2923715Y-5891715D01*
X2923715Y-5948284D01*
X2980284Y-5948284D01*
X2980284Y-7980284D02*
X2980284Y-7923715D01*
X2923715Y-7923715D01*
X2923715Y-7980284D01*
X2980284Y-7980284D01*
X3234284Y-5948284D02*
X3234284Y-5891715D01*
X3177715Y-5891715D01*
X3177715Y-5948284D01*
X3234284Y-5948284D01*
X3234284Y-7980284D02*
X3234284Y-7923715D01*
X3177715Y-7923715D01*
X3177715Y-7980284D01*
X3234284Y-7980284D01*
X3488284Y-5948284D02*
X3488284Y-5891715D01*
X3431715Y-5891715D01*
X3431715Y-5948284D01*
X3488284Y-5948284D01*
X3488284Y-7980284D02*
X3488284Y-7923715D01*
X3431715Y-7923715D01*
X3431715Y-7980284D01*
X3488284Y-7980284D01*
X3742284Y-5948284D02*
X3742284Y-5891715D01*
X3685715Y-5891715D01*
X3685715Y-5948284D01*
X3742284Y-5948284D01*
X3742284Y-7980284D02*
X3742284Y-7923715D01*
X3685715Y-7923715D01*
X3685715Y-7980284D01*
X3742284Y-7980284D01*
X3996284Y-5948284D02*
X3996284Y-5891715D01*
X3939715Y-5891715D01*
X3939715Y-5948284D01*
X3996284Y-5948284D01*
X3996284Y-7980284D02*
X3996284Y-7923715D01*
X3939715Y-7923715D01*
X3939715Y-7980284D01*
X3996284Y-7980284D01*
X4250285Y-5948284D02*
X4250285Y-5891715D01*
X4193715Y-5891715D01*
X4193715Y-5948284D01*
X4250285Y-5948284D01*
X4250285Y-7980284D02*
X4250285Y-7923715D01*
X4193715Y-7923715D01*
X4193715Y-7980284D01*
X4250285Y-7980284D01*
X4504285Y-5948284D02*
X4504285Y-5891715D01*
X4447716Y-5891715D01*
X4447716Y-5948284D01*
X4504285Y-5948284D01*
X4504285Y-7980284D02*
X4504285Y-7923715D01*
X4447716Y-7923715D01*
X4447716Y-7980284D01*
X4504285Y-7980284D01*
X4758285Y-5948284D02*
X4758285Y-5891715D01*
X4701716Y-5891715D01*
X4701716Y-5948284D01*
X4758285Y-5948284D01*
X4758285Y-7980284D02*
X4758285Y-7923715D01*
X4701716Y-7923715D01*
X4701716Y-7980284D01*
X4758285Y-7980284D01*
X5012285Y-5948284D02*
X5012285Y-5891715D01*
X4955716Y-5891715D01*
X4955716Y-5948284D01*
X5012285Y-5948284D01*
X5012285Y-7980284D02*
X5012285Y-7923715D01*
X4955716Y-7923715D01*
X4955716Y-7980284D01*
X5012285Y-7980284D01*
X5266285Y-5948284D02*
X5266285Y-5891715D01*
X5209716Y-5891715D01*
X5209716Y-5948284D01*
X5266285Y-5948284D01*
X5266285Y-7980284D02*
X5266285Y-7923715D01*
X5209716Y-7923715D01*
X5209716Y-7980284D01*
X5266285Y-7980284D01*
X5520285Y-5948284D02*
X5520285Y-5891715D01*
X5463716Y-5891715D01*
X5463716Y-5948284D01*
X5520285Y-5948284D01*
X5520285Y-7980284D02*
X5520285Y-7923715D01*
X5463716Y-7923715D01*
X5463716Y-7980284D01*
X5520285Y-7980284D01*
X5774284Y-5948284D02*
X5774284Y-5891715D01*
X5717715Y-5891715D01*
X5717715Y-5948284D01*
X5774284Y-5948284D01*
X5774284Y-7980284D02*
X5774284Y-7923715D01*
X5717715Y-7923715D01*
X5717715Y-7980284D01*
X5774284Y-7980284D01*
D10*
X1650000Y-2499440D02*
X1700000Y-2449440D01*
X1650000Y-2399440D01*
X1600000Y-2449440D01*
X1650000Y-2499440D01*
X1650000Y-3329440D02*
X1700000Y-3279440D01*
X1650000Y-3229440D01*
X1600000Y-3279440D01*
X1650000Y-3329440D01*
X1650000Y-4159440D02*
X1700000Y-4109440D01*
X1650000Y-4059440D01*
X1600000Y-4109440D01*
X1650000Y-4159440D01*
X1904000Y-2499440D02*
X1954000Y-2449440D01*
X1904000Y-2399440D01*
X1854000Y-2449440D01*
X1904000Y-2499440D01*
X1904000Y-3329440D02*
X1954000Y-3279440D01*
X1904000Y-3229440D01*
X1854000Y-3279440D01*
X1904000Y-3329440D01*
X1904000Y-4159440D02*
X1954000Y-4109440D01*
X1904000Y-4059440D01*
X1854000Y-4109440D01*
X1904000Y-4159440D01*
X2158000Y-2499440D02*
X2208000Y-2449440D01*
X2158000Y-2399440D01*
X2108000Y-2449440D01*
X2158000Y-2499440D01*
X2158000Y-3329440D02*
X2208000Y-3279440D01*
X2158000Y-3229440D01*
X2108000Y-3279440D01*
X2158000Y-3329440D01*
X2158000Y-4159440D02*
X2208000Y-4109440D01*
X2158000Y-4059440D01*
X2108000Y-4109440D01*
X2158000Y-4159440D01*
X4520590Y-13468720D02*
X4570590Y-13418720D01*
X4520590Y-13368720D01*
X4470590Y-13418720D01*
X4520590Y-13468720D01*
X4520590Y-14230720D02*
X4570590Y-14180720D01*
X4520590Y-14130720D01*
X4470590Y-14180720D01*
X4520590Y-14230720D01*
X4774590Y-13468720D02*
X4824590Y-13418720D01*
X4774590Y-13368720D01*
X4724590Y-13418720D01*
X4774590Y-13468720D01*
X4774590Y-14230720D02*
X4824590Y-14180720D01*
X4774590Y-14130720D01*
X4724590Y-14180720D01*
X4774590Y-14230720D01*
X5028590Y-13468720D02*
X5078590Y-13418720D01*
X5028590Y-13368720D01*
X4978590Y-13418720D01*
X5028590Y-13468720D01*
X5028590Y-14230720D02*
X5078590Y-14180720D01*
X5028590Y-14130720D01*
X4978590Y-14180720D01*
X5028590Y-14230720D01*
X5282590Y-13468720D02*
X5332590Y-13418720D01*
X5282590Y-13368720D01*
X5232590Y-13418720D01*
X5282590Y-13468720D01*
X5282590Y-14230720D02*
X5332590Y-14180720D01*
X5282590Y-14130720D01*
X5232590Y-14180720D01*
X5282590Y-14230720D01*
X5536590Y-13468720D02*
X5586590Y-13418720D01*
X5536590Y-13368720D01*
X5486590Y-13418720D01*
X5536590Y-13468720D01*
X5536590Y-14230720D02*
X5586590Y-14180720D01*
X5536590Y-14130720D01*
X5486590Y-14180720D01*
X5536590Y-14230720D01*
X5790590Y-13468720D02*
X5840590Y-13418720D01*
X5790590Y-13368720D01*
X5740590Y-13418720D01*
X5790590Y-13468720D01*
X5790590Y-14230720D02*
X5840590Y-14180720D01*
X5790590Y-14130720D01*
X5740590Y-14180720D01*
X5790590Y-14230720D01*
X5811090Y-12453220D02*
X5861090Y-12403220D01*
X5811090Y-12353220D01*
X5761090Y-12403220D01*
X5811090Y-12453220D01*
X5811090Y-12707220D02*
X5861090Y-12657220D01*
X5811090Y-12607220D01*
X5761090Y-12657220D01*
X5811090Y-12707220D01*
X6044590Y-13468720D02*
X6094590Y-13418720D01*
X6044590Y-13368720D01*
X5994590Y-13418720D01*
X6044590Y-13468720D01*
X6044590Y-14230720D02*
X6094590Y-14180720D01*
X6044590Y-14130720D01*
X5994590Y-14180720D01*
X6044590Y-14230720D01*
X6061090Y-15272120D02*
X6111090Y-15222120D01*
X6061090Y-15172120D01*
X6011090Y-15222120D01*
X6061090Y-15272120D01*
X6065090Y-12453220D02*
X6115090Y-12403220D01*
X6065090Y-12353220D01*
X6015090Y-12403220D01*
X6065090Y-12453220D01*
X6065090Y-12707220D02*
X6115090Y-12657220D01*
X6065090Y-12607220D01*
X6015090Y-12657220D01*
X6065090Y-12707220D01*
X6298590Y-13468720D02*
X6348590Y-13418720D01*
X6298590Y-13368720D01*
X6248590Y-13418720D01*
X6298590Y-13468720D01*
X6298590Y-14230720D02*
X6348590Y-14180720D01*
X6298590Y-14130720D01*
X6248590Y-14180720D01*
X6298590Y-14230720D01*
X6315090Y-15272120D02*
X6365090Y-15222120D01*
X6315090Y-15172120D01*
X6265090Y-15222120D01*
X6315090Y-15272120D01*
X6319090Y-12453220D02*
X6369090Y-12403220D01*
X6319090Y-12353220D01*
X6269090Y-12403220D01*
X6319090Y-12453220D01*
X6319090Y-12707220D02*
X6369090Y-12657220D01*
X6319090Y-12607220D01*
X6269090Y-12657220D01*
X6319090Y-12707220D01*
X6569090Y-15272120D02*
X6619090Y-15222120D01*
X6569090Y-15172120D01*
X6519090Y-15222120D01*
X6569090Y-15272120D01*
X6573090Y-12453220D02*
X6623090Y-12403220D01*
X6573090Y-12353220D01*
X6523090Y-12403220D01*
X6573090Y-12453220D01*
X6573090Y-12707220D02*
X6623090Y-12657220D01*
X6573090Y-12607220D01*
X6523090Y-12657220D01*
X6573090Y-12707220D01*
X6823090Y-15272120D02*
X6873090Y-15222120D01*
X6823090Y-15172120D01*
X6773090Y-15222120D01*
X6823090Y-15272120D01*
X6827090Y-12453220D02*
X6877090Y-12403220D01*
X6827090Y-12353220D01*
X6777090Y-12403220D01*
X6827090Y-12453220D01*
X6827090Y-12707220D02*
X6877090Y-12657220D01*
X6827090Y-12607220D01*
X6777090Y-12657220D01*
X6827090Y-12707220D01*
X7077090Y-15272120D02*
X7127090Y-15222120D01*
X7077090Y-15172120D01*
X7027090Y-15222120D01*
X7077090Y-15272120D01*
X7081090Y-12453220D02*
X7131090Y-12403220D01*
X7081090Y-12353220D01*
X7031090Y-12403220D01*
X7081090Y-12453220D01*
X7081090Y-12707220D02*
X7131090Y-12657220D01*
X7081090Y-12607220D01*
X7031090Y-12657220D01*
X7081090Y-12707220D01*
X7098590Y-13468720D02*
X7148590Y-13418720D01*
X7098590Y-13368720D01*
X7048590Y-13418720D01*
X7098590Y-13468720D01*
X7098590Y-14230720D02*
X7148590Y-14180720D01*
X7098590Y-14130720D01*
X7048590Y-14180720D01*
X7098590Y-14230720D01*
X7331090Y-15272120D02*
X7381090Y-15222120D01*
X7331090Y-15172120D01*
X7281090Y-15222120D01*
X7331090Y-15272120D01*
X7335090Y-12453220D02*
X7385090Y-12403220D01*
X7335090Y-12353220D01*
X7285090Y-12403220D01*
X7335090Y-12453220D01*
X7335090Y-12707220D02*
X7385090Y-12657220D01*
X7335090Y-12607220D01*
X7285090Y-12657220D01*
X7335090Y-12707220D01*
X7352590Y-13468720D02*
X7402590Y-13418720D01*
X7352590Y-13368720D01*
X7302590Y-13418720D01*
X7352590Y-13468720D01*
X7352590Y-14230720D02*
X7402590Y-14180720D01*
X7352590Y-14130720D01*
X7302590Y-14180720D01*
X7352590Y-14230720D01*
X7589090Y-12453220D02*
X7639090Y-12403220D01*
X7589090Y-12353220D01*
X7539090Y-12403220D01*
X7589090Y-12453220D01*
X7589090Y-12707220D02*
X7639090Y-12657220D01*
X7589090Y-12607220D01*
X7539090Y-12657220D01*
X7589090Y-12707220D01*
X7606590Y-13468720D02*
X7656590Y-13418720D01*
X7606590Y-13368720D01*
X7556590Y-13418720D01*
X7606590Y-13468720D01*
X7606590Y-14230720D02*
X7656590Y-14180720D01*
X7606590Y-14130720D01*
X7556590Y-14180720D01*
X7606590Y-14230720D01*
X7860590Y-13468720D02*
X7910590Y-13418720D01*
X7860590Y-13368720D01*
X7810590Y-13418720D01*
X7860590Y-13468720D01*
X7860590Y-14230720D02*
X7910590Y-14180720D01*
X7860590Y-14130720D01*
X7810590Y-14180720D01*
X7860590Y-14230720D01*
X8114590Y-13468720D02*
X8164590Y-13418720D01*
X8114590Y-13368720D01*
X8064590Y-13418720D01*
X8114590Y-13468720D01*
X8114590Y-14230720D02*
X8164590Y-14180720D01*
X8114590Y-14130720D01*
X8064590Y-14180720D01*
X8114590Y-14230720D01*
X8368590Y-13468720D02*
X8418590Y-13418720D01*
X8368590Y-13368720D01*
X8318590Y-13418720D01*
X8368590Y-13468720D01*
X8368590Y-14230720D02*
X8418590Y-14180720D01*
X8368590Y-14130720D01*
X8318590Y-14180720D01*
X8368590Y-14230720D01*
X8622590Y-13468720D02*
X8672590Y-13418720D01*
X8622590Y-13368720D01*
X8572590Y-13418720D01*
X8622590Y-13468720D01*
X8622590Y-14230720D02*
X8672590Y-14180720D01*
X8622590Y-14130720D01*
X8572590Y-14180720D01*
X8622590Y-14230720D01*
X8876590Y-13468720D02*
X8926590Y-13418720D01*
X8876590Y-13368720D01*
X8826590Y-13418720D01*
X8876590Y-13468720D01*
X8876590Y-14230720D02*
X8926590Y-14180720D01*
X8876590Y-14130720D01*
X8826590Y-14180720D01*
X8876590Y-14230720D01*
D16*
X2506000Y-9179440D02*
X2608000Y-9281440D01*
X2608000Y-9179440D02*
X2506000Y-9281440D01*
X2608000Y-9230440D02*
G75*
G03*
X2608000Y-9230440I-51000J0D01*
G01*
X2506000Y-10957440D02*
X2608000Y-11059440D01*
X2608000Y-10957440D02*
X2506000Y-11059440D01*
X2608000Y-11008440D02*
G75*
G03*
X2608000Y-11008440I-51000J0D01*
G01*
X2760000Y-9179440D02*
X2862000Y-9281440D01*
X2862000Y-9179440D02*
X2760000Y-9281440D01*
X2862000Y-9230440D02*
G75*
G03*
X2862000Y-9230440I-51000J0D01*
G01*
X2760000Y-10957440D02*
X2862000Y-11059440D01*
X2862000Y-10957440D02*
X2760000Y-11059440D01*
X2862000Y-11008440D02*
G75*
G03*
X2862000Y-11008440I-51000J0D01*
G01*
X3014000Y-9179440D02*
X3116000Y-9281440D01*
X3116000Y-9179440D02*
X3014000Y-9281440D01*
X3116000Y-9230440D02*
G75*
G03*
X3116000Y-9230440I-51000J0D01*
G01*
X3014000Y-10957440D02*
X3116000Y-11059440D01*
X3116000Y-10957440D02*
X3014000Y-11059440D01*
X3116000Y-11008440D02*
G75*
G03*
X3116000Y-11008440I-51000J0D01*
G01*
X3268000Y-9179440D02*
X3370000Y-9281440D01*
X3370000Y-9179440D02*
X3268000Y-9281440D01*
X3370000Y-9230440D02*
G75*
G03*
X3370000Y-9230440I-51000J0D01*
G01*
X3268000Y-10957440D02*
X3370000Y-11059440D01*
X3370000Y-10957440D02*
X3268000Y-11059440D01*
X3370000Y-11008440D02*
G75*
G03*
X3370000Y-11008440I-51000J0D01*
G01*
X3522000Y-9179440D02*
X3624000Y-9281440D01*
X3624000Y-9179440D02*
X3522000Y-9281440D01*
X3624000Y-9230440D02*
G75*
G03*
X3624000Y-9230440I-51000J0D01*
G01*
X3522000Y-10957440D02*
X3624000Y-11059440D01*
X3624000Y-10957440D02*
X3522000Y-11059440D01*
X3624000Y-11008440D02*
G75*
G03*
X3624000Y-11008440I-51000J0D01*
G01*
X3776000Y-9179440D02*
X3878000Y-9281440D01*
X3878000Y-9179440D02*
X3776000Y-9281440D01*
X3878000Y-9230440D02*
G75*
G03*
X3878000Y-9230440I-51000J0D01*
G01*
X3776000Y-10957440D02*
X3878000Y-11059440D01*
X3878000Y-10957440D02*
X3776000Y-11059440D01*
X3878000Y-11008440D02*
G75*
G03*
X3878000Y-11008440I-51000J0D01*
G01*
X4030000Y-9179440D02*
X4132000Y-9281440D01*
X4132000Y-9179440D02*
X4030000Y-9281440D01*
X4132000Y-9230440D02*
G75*
G03*
X4132000Y-9230440I-51000J0D01*
G01*
X4030000Y-10957440D02*
X4132000Y-11059440D01*
X4132000Y-10957440D02*
X4030000Y-11059440D01*
X4132000Y-11008440D02*
G75*
G03*
X4132000Y-11008440I-51000J0D01*
G01*
X4284000Y-9179440D02*
X4386000Y-9281440D01*
X4386000Y-9179440D02*
X4284000Y-9281440D01*
X4386000Y-9230440D02*
G75*
G03*
X4386000Y-9230440I-51000J0D01*
G01*
X4284000Y-10957440D02*
X4386000Y-11059440D01*
X4386000Y-10957440D02*
X4284000Y-11059440D01*
X4386000Y-11008440D02*
G75*
G03*
X4386000Y-11008440I-51000J0D01*
G01*
X4538000Y-9179440D02*
X4640000Y-9281440D01*
X4640000Y-9179440D02*
X4538000Y-9281440D01*
X4640000Y-9230440D02*
G75*
G03*
X4640000Y-9230440I-51000J0D01*
G01*
X4538000Y-10957440D02*
X4640000Y-11059440D01*
X4640000Y-10957440D02*
X4538000Y-11059440D01*
X4640000Y-11008440D02*
G75*
G03*
X4640000Y-11008440I-51000J0D01*
G01*
X4792000Y-9179440D02*
X4894000Y-9281440D01*
X4894000Y-9179440D02*
X4792000Y-9281440D01*
X4894000Y-9230440D02*
G75*
G03*
X4894000Y-9230440I-51000J0D01*
G01*
X4792000Y-10957440D02*
X4894000Y-11059440D01*
X4894000Y-10957440D02*
X4792000Y-11059440D01*
X4894000Y-11008440D02*
G75*
G03*
X4894000Y-11008440I-51000J0D01*
G01*
X5046000Y-9179440D02*
X5148000Y-9281440D01*
X5148000Y-9179440D02*
X5046000Y-9281440D01*
X5148000Y-9230440D02*
G75*
G03*
X5148000Y-9230440I-51000J0D01*
G01*
X5046000Y-10957440D02*
X5148000Y-11059440D01*
X5148000Y-10957440D02*
X5046000Y-11059440D01*
X5148000Y-11008440D02*
G75*
G03*
X5148000Y-11008440I-51000J0D01*
G01*
X5300000Y-9179440D02*
X5402000Y-9281440D01*
X5402000Y-9179440D02*
X5300000Y-9281440D01*
X5402000Y-9230440D02*
G75*
G03*
X5402000Y-9230440I-51000J0D01*
G01*
X5300000Y-10957440D02*
X5402000Y-11059440D01*
X5402000Y-10957440D02*
X5300000Y-11059440D01*
X5402000Y-11008440D02*
G75*
G03*
X5402000Y-11008440I-51000J0D01*
G01*
X5554000Y-9179440D02*
X5656000Y-9281440D01*
X5656000Y-9179440D02*
X5554000Y-9281440D01*
X5656000Y-9230440D02*
G75*
G03*
X5656000Y-9230440I-51000J0D01*
G01*
X5554000Y-10957440D02*
X5656000Y-11059440D01*
X5656000Y-10957440D02*
X5554000Y-11059440D01*
X5656000Y-11008440D02*
G75*
G03*
X5656000Y-11008440I-51000J0D01*
G01*
X5587910Y-18364780D02*
X5689910Y-18466780D01*
X5689910Y-18364780D02*
X5587910Y-18466780D01*
X5689910Y-18415780D02*
G75*
G03*
X5689910Y-18415780I-51000J0D01*
G01*
X5587910Y-18664780D02*
X5689910Y-18766780D01*
X5689910Y-18664780D02*
X5587910Y-18766780D01*
X5689910Y-18715780D02*
G75*
G03*
X5689910Y-18715780I-51000J0D01*
G01*
X5808000Y-9179440D02*
X5910000Y-9281440D01*
X5910000Y-9179440D02*
X5808000Y-9281440D01*
X5910000Y-9230440D02*
G75*
G03*
X5910000Y-9230440I-51000J0D01*
G01*
X5808000Y-10957440D02*
X5910000Y-11059440D01*
X5910000Y-10957440D02*
X5808000Y-11059440D01*
X5910000Y-11008440D02*
G75*
G03*
X5910000Y-11008440I-51000J0D01*
G01*
X5887910Y-18364780D02*
X5989910Y-18466780D01*
X5989910Y-18364780D02*
X5887910Y-18466780D01*
X5989910Y-18415780D02*
G75*
G03*
X5989910Y-18415780I-51000J0D01*
G01*
X5887910Y-18664780D02*
X5989910Y-18766780D01*
X5989910Y-18664780D02*
X5887910Y-18766780D01*
X5989910Y-18715780D02*
G75*
G03*
X5989910Y-18715780I-51000J0D01*
G01*
X6062000Y-9179440D02*
X6164000Y-9281440D01*
X6164000Y-9179440D02*
X6062000Y-9281440D01*
X6164000Y-9230440D02*
G75*
G03*
X6164000Y-9230440I-51000J0D01*
G01*
X6062000Y-10957440D02*
X6164000Y-11059440D01*
X6164000Y-10957440D02*
X6062000Y-11059440D01*
X6164000Y-11008440D02*
G75*
G03*
X6164000Y-11008440I-51000J0D01*
G01*
X6187910Y-18364780D02*
X6289910Y-18466780D01*
X6289910Y-18364780D02*
X6187910Y-18466780D01*
X6289910Y-18415780D02*
G75*
G03*
X6289910Y-18415780I-51000J0D01*
G01*
X6187910Y-18664780D02*
X6289910Y-18766780D01*
X6289910Y-18664780D02*
X6187910Y-18766780D01*
X6289910Y-18715780D02*
G75*
G03*
X6289910Y-18715780I-51000J0D01*
G01*
X6316000Y-9179440D02*
X6418000Y-9281440D01*
X6418000Y-9179440D02*
X6316000Y-9281440D01*
X6418000Y-9230440D02*
G75*
G03*
X6418000Y-9230440I-51000J0D01*
G01*
X6316000Y-10957440D02*
X6418000Y-11059440D01*
X6418000Y-10957440D02*
X6316000Y-11059440D01*
X6418000Y-11008440D02*
G75*
G03*
X6418000Y-11008440I-51000J0D01*
G01*
X6487910Y-18364780D02*
X6589910Y-18466780D01*
X6589910Y-18364780D02*
X6487910Y-18466780D01*
X6589910Y-18415780D02*
G75*
G03*
X6589910Y-18415780I-51000J0D01*
G01*
X6487910Y-18664780D02*
X6589910Y-18766780D01*
X6589910Y-18664780D02*
X6487910Y-18766780D01*
X6589910Y-18715780D02*
G75*
G03*
X6589910Y-18715780I-51000J0D01*
G01*
X6570000Y-9179440D02*
X6672000Y-9281440D01*
X6672000Y-9179440D02*
X6570000Y-9281440D01*
X6672000Y-9230440D02*
G75*
G03*
X6672000Y-9230440I-51000J0D01*
G01*
X6570000Y-10957440D02*
X6672000Y-11059440D01*
X6672000Y-10957440D02*
X6570000Y-11059440D01*
X6672000Y-11008440D02*
G75*
G03*
X6672000Y-11008440I-51000J0D01*
G01*
X6787910Y-18364780D02*
X6889910Y-18466780D01*
X6889910Y-18364780D02*
X6787910Y-18466780D01*
X6889910Y-18415780D02*
G75*
G03*
X6889910Y-18415780I-51000J0D01*
G01*
X6787910Y-18664780D02*
X6889910Y-18766780D01*
X6889910Y-18664780D02*
X6787910Y-18766780D01*
X6889910Y-18715780D02*
G75*
G03*
X6889910Y-18715780I-51000J0D01*
G01*
X6824000Y-9179440D02*
X6926000Y-9281440D01*
X6926000Y-9179440D02*
X6824000Y-9281440D01*
X6926000Y-9230440D02*
G75*
G03*
X6926000Y-9230440I-51000J0D01*
G01*
X6824000Y-10957440D02*
X6926000Y-11059440D01*
X6926000Y-10957440D02*
X6824000Y-11059440D01*
X6926000Y-11008440D02*
G75*
G03*
X6926000Y-11008440I-51000J0D01*
G01*
X7078000Y-9179440D02*
X7180000Y-9281440D01*
X7180000Y-9179440D02*
X7078000Y-9281440D01*
X7180000Y-9230440D02*
G75*
G03*
X7180000Y-9230440I-51000J0D01*
G01*
X7078000Y-10957440D02*
X7180000Y-11059440D01*
X7180000Y-10957440D02*
X7078000Y-11059440D01*
X7180000Y-11008440D02*
G75*
G03*
X7180000Y-11008440I-51000J0D01*
G01*
X7087910Y-18364780D02*
X7189910Y-18466780D01*
X7189910Y-18364780D02*
X7087910Y-18466780D01*
X7189910Y-18415780D02*
G75*
G03*
X7189910Y-18415780I-51000J0D01*
G01*
X7087910Y-18664780D02*
X7189910Y-18766780D01*
X7189910Y-18664780D02*
X7087910Y-18766780D01*
X7189910Y-18715780D02*
G75*
G03*
X7189910Y-18715780I-51000J0D01*
G01*
X7309000Y-9814440D02*
X7411000Y-9916440D01*
X7411000Y-9814440D02*
X7309000Y-9916440D01*
X7411000Y-9865440D02*
G75*
G03*
X7411000Y-9865440I-51000J0D01*
G01*
X7309000Y-10068440D02*
X7411000Y-10170440D01*
X7411000Y-10068440D02*
X7309000Y-10170440D01*
X7411000Y-10119440D02*
G75*
G03*
X7411000Y-10119440I-51000J0D01*
G01*
X7309000Y-10322440D02*
X7411000Y-10424440D01*
X7411000Y-10322440D02*
X7309000Y-10424440D01*
X7411000Y-10373440D02*
G75*
G03*
X7411000Y-10373440I-51000J0D01*
G01*
X7332000Y-9179440D02*
X7434000Y-9281440D01*
X7434000Y-9179440D02*
X7332000Y-9281440D01*
X7434000Y-9230440D02*
G75*
G03*
X7434000Y-9230440I-51000J0D01*
G01*
X7332000Y-10957440D02*
X7434000Y-11059440D01*
X7434000Y-10957440D02*
X7332000Y-11059440D01*
X7434000Y-11008440D02*
G75*
G03*
X7434000Y-11008440I-51000J0D01*
G01*
X7387910Y-18364780D02*
X7489910Y-18466780D01*
X7489910Y-18364780D02*
X7387910Y-18466780D01*
X7489910Y-18415780D02*
G75*
G03*
X7489910Y-18415780I-51000J0D01*
G01*
X7387910Y-18664780D02*
X7489910Y-18766780D01*
X7489910Y-18664780D02*
X7387910Y-18766780D01*
X7489910Y-18715780D02*
G75*
G03*
X7489910Y-18715780I-51000J0D01*
G01*
X7687910Y-18364780D02*
X7789910Y-18466780D01*
X7789910Y-18364780D02*
X7687910Y-18466780D01*
X7789910Y-18415780D02*
G75*
G03*
X7789910Y-18415780I-51000J0D01*
G01*
X7687910Y-18664780D02*
X7789910Y-18766780D01*
X7789910Y-18664780D02*
X7687910Y-18766780D01*
X7789910Y-18715780D02*
G75*
G03*
X7789910Y-18715780I-51000J0D01*
G01*
D17*
X5670300Y-2573880D02*
X5810300Y-2713880D01*
X5810300Y-2573880D02*
X5670300Y-2713880D01*
X5740300Y-2573880D02*
X5740300Y-2713880D01*
X5670300Y-2643880D02*
X5810300Y-2643880D01*
X5920300Y-2573880D02*
X6060300Y-2713880D01*
X6060300Y-2573880D02*
X5920300Y-2713880D01*
X5990300Y-2573880D02*
X5990300Y-2713880D01*
X5920300Y-2643880D02*
X6060300Y-2643880D01*
X6170300Y-2573880D02*
X6310300Y-2713880D01*
X6310300Y-2573880D02*
X6170300Y-2713880D01*
X6240300Y-2573880D02*
X6240300Y-2713880D01*
X6170300Y-2643880D02*
X6310300Y-2643880D01*
X7018400Y-2598880D02*
X7158400Y-2738880D01*
X7158400Y-2598880D02*
X7018400Y-2738880D01*
X7088400Y-2598880D02*
X7088400Y-2738880D01*
X7018400Y-2668880D02*
X7158400Y-2668880D01*
X7268400Y-2598880D02*
X7408400Y-2738880D01*
X7408400Y-2598880D02*
X7268400Y-2738880D01*
X7338400Y-2598880D02*
X7338400Y-2738880D01*
X7268400Y-2668880D02*
X7408400Y-2668880D01*
X7518400Y-2598880D02*
X7658400Y-2738880D01*
X7658400Y-2598880D02*
X7518400Y-2738880D01*
X7588400Y-2598880D02*
X7588400Y-2738880D01*
X7518400Y-2668880D02*
X7658400Y-2668880D01*
X8335200Y-2583880D02*
X8475200Y-2723880D01*
X8475200Y-2583880D02*
X8335200Y-2723880D01*
X8405200Y-2583880D02*
X8405200Y-2723880D01*
X8335200Y-2653880D02*
X8475200Y-2653880D01*
X8480000Y-10358880D02*
X8620000Y-10498880D01*
X8620000Y-10358880D02*
X8480000Y-10498880D01*
X8550000Y-10358880D02*
X8550000Y-10498880D01*
X8480000Y-10428880D02*
X8620000Y-10428880D01*
X8480000Y-10608880D02*
X8620000Y-10748880D01*
X8620000Y-10608880D02*
X8480000Y-10748880D01*
X8550000Y-10608880D02*
X8550000Y-10748880D01*
X8480000Y-10678880D02*
X8620000Y-10678880D01*
X8480000Y-10858880D02*
X8620000Y-10998880D01*
X8620000Y-10858880D02*
X8480000Y-10998880D01*
X8550000Y-10858880D02*
X8550000Y-10998880D01*
X8480000Y-10928880D02*
X8620000Y-10928880D01*
X8480000Y-11108880D02*
X8620000Y-11248880D01*
X8620000Y-11108880D02*
X8480000Y-11248880D01*
X8550000Y-11108880D02*
X8550000Y-11248880D01*
X8480000Y-11178880D02*
X8620000Y-11178880D01*
X8502500Y-6776380D02*
X8642500Y-6916380D01*
X8642500Y-6776380D02*
X8502500Y-6916380D01*
X8572500Y-6776380D02*
X8572500Y-6916380D01*
X8502500Y-6846380D02*
X8642500Y-6846380D01*
X8502500Y-7026380D02*
X8642500Y-7166380D01*
X8642500Y-7026380D02*
X8502500Y-7166380D01*
X8572500Y-7026380D02*
X8572500Y-7166380D01*
X8502500Y-7096380D02*
X8642500Y-7096380D01*
X8585200Y-2583880D02*
X8725200Y-2723880D01*
X8725200Y-2583880D02*
X8585200Y-2723880D01*
X8655200Y-2583880D02*
X8655200Y-2723880D01*
X8585200Y-2653880D02*
X8725200Y-2653880D01*
D18*
X5303410Y-19027280D02*
X5544410Y-19268280D01*
X5544410Y-19027280D02*
X5303410Y-19268280D01*
X5509117Y-19232987D02*
X5509117Y-19062573D01*
X5338703Y-19062573D01*
X5338703Y-19232987D01*
X5509117Y-19232987D01*
X7833410Y-19027280D02*
X8074410Y-19268280D01*
X8074410Y-19027280D02*
X7833410Y-19268280D01*
X8039117Y-19232987D02*
X8039117Y-19062573D01*
X7868703Y-19062573D01*
X7868703Y-19232987D01*
X8039117Y-19232987D01*
D11*
X1452619Y-19714916D02*
X1452619Y-19514916D01*
X1500238Y-19514916D01*
X1528809Y-19524440D01*
X1547857Y-19543488D01*
X1557381Y-19562535D01*
X1566905Y-19600630D01*
X1566905Y-19629202D01*
X1557381Y-19667297D01*
X1547857Y-19686345D01*
X1528809Y-19705392D01*
X1500238Y-19714916D01*
X1452619Y-19714916D01*
X1652619Y-19714916D02*
X1652619Y-19581583D01*
X1652619Y-19619678D02*
X1662143Y-19600630D01*
X1671667Y-19591107D01*
X1690714Y-19581583D01*
X1709762Y-19581583D01*
X1776428Y-19714916D02*
X1776428Y-19581583D01*
X1776428Y-19514916D02*
X1766905Y-19524440D01*
X1776428Y-19533964D01*
X1785952Y-19524440D01*
X1776428Y-19514916D01*
X1776428Y-19533964D01*
X1900238Y-19714916D02*
X1881190Y-19705392D01*
X1871667Y-19686345D01*
X1871667Y-19514916D01*
X2005000Y-19714916D02*
X1985952Y-19705392D01*
X1976428Y-19686345D01*
X1976428Y-19514916D01*
X2233571Y-19714916D02*
X2233571Y-19514916D01*
X2300238Y-19657773D01*
X2366905Y-19514916D01*
X2366905Y-19714916D01*
X2547857Y-19714916D02*
X2547857Y-19610154D01*
X2538333Y-19591107D01*
X2519286Y-19581583D01*
X2481190Y-19581583D01*
X2462143Y-19591107D01*
X2547857Y-19705392D02*
X2528810Y-19714916D01*
X2481190Y-19714916D01*
X2462143Y-19705392D01*
X2452619Y-19686345D01*
X2452619Y-19667297D01*
X2462143Y-19648250D01*
X2481190Y-19638726D01*
X2528810Y-19638726D01*
X2547857Y-19629202D01*
X2643095Y-19581583D02*
X2643095Y-19781583D01*
X2643095Y-19591107D02*
X2662143Y-19581583D01*
X2700238Y-19581583D01*
X2719286Y-19591107D01*
X2728810Y-19600630D01*
X2738333Y-19619678D01*
X2738333Y-19676821D01*
X2728810Y-19695869D01*
X2719286Y-19705392D01*
X2700238Y-19714916D01*
X2662143Y-19714916D01*
X2643095Y-19705392D01*
X2824048Y-19695869D02*
X2833571Y-19705392D01*
X2824048Y-19714916D01*
X2814524Y-19705392D01*
X2824048Y-19695869D01*
X2824048Y-19714916D01*
X2824048Y-19591107D02*
X2833571Y-19600630D01*
X2824048Y-19610154D01*
X2814524Y-19600630D01*
X2824048Y-19591107D01*
X2824048Y-19610154D01*
D12*
X1155000Y-20024440D02*
X1195000Y-20064440D01*
X1195000Y-20024440D02*
X1155000Y-20064440D01*
D11*
X1490714Y-19934916D02*
X1509762Y-19934916D01*
X1528809Y-19944440D01*
X1538333Y-19953964D01*
X1547857Y-19973011D01*
X1557381Y-20011107D01*
X1557381Y-20058726D01*
X1547857Y-20096821D01*
X1538333Y-20115869D01*
X1528809Y-20125392D01*
X1509762Y-20134916D01*
X1490714Y-20134916D01*
X1471667Y-20125392D01*
X1462143Y-20115869D01*
X1452619Y-20096821D01*
X1443095Y-20058726D01*
X1443095Y-20011107D01*
X1452619Y-19973011D01*
X1462143Y-19953964D01*
X1471667Y-19944440D01*
X1490714Y-19934916D01*
X1643095Y-20115869D02*
X1652619Y-20125392D01*
X1643095Y-20134916D01*
X1633571Y-20125392D01*
X1643095Y-20115869D01*
X1643095Y-20134916D01*
X1824048Y-20001583D02*
X1824048Y-20134916D01*
X1776428Y-19925392D02*
X1728809Y-20068250D01*
X1852619Y-20068250D01*
X1966905Y-19934916D02*
X1985952Y-19934916D01*
X2005000Y-19944440D01*
X2014524Y-19953964D01*
X2024048Y-19973011D01*
X2033571Y-20011107D01*
X2033571Y-20058726D01*
X2024048Y-20096821D01*
X2014524Y-20115869D01*
X2005000Y-20125392D01*
X1985952Y-20134916D01*
X1966905Y-20134916D01*
X1947857Y-20125392D01*
X1938333Y-20115869D01*
X1928809Y-20096821D01*
X1919286Y-20058726D01*
X1919286Y-20011107D01*
X1928809Y-19973011D01*
X1938333Y-19953964D01*
X1947857Y-19944440D01*
X1966905Y-19934916D01*
X2157381Y-19934916D02*
X2176429Y-19934916D01*
X2195476Y-19944440D01*
X2205000Y-19953964D01*
X2214524Y-19973011D01*
X2224048Y-20011107D01*
X2224048Y-20058726D01*
X2214524Y-20096821D01*
X2205000Y-20115869D01*
X2195476Y-20125392D01*
X2176429Y-20134916D01*
X2157381Y-20134916D01*
X2138333Y-20125392D01*
X2128810Y-20115869D01*
X2119286Y-20096821D01*
X2109762Y-20058726D01*
X2109762Y-20011107D01*
X2119286Y-19973011D01*
X2128810Y-19953964D01*
X2138333Y-19944440D01*
X2157381Y-19934916D01*
X2309762Y-20134916D02*
X2309762Y-20001583D01*
X2309762Y-20020630D02*
X2319286Y-20011107D01*
X2338333Y-20001583D01*
X2366905Y-20001583D01*
X2385952Y-20011107D01*
X2395476Y-20030154D01*
X2395476Y-20134916D01*
X2395476Y-20030154D02*
X2405000Y-20011107D01*
X2424048Y-20001583D01*
X2452619Y-20001583D01*
X2471667Y-20011107D01*
X2481190Y-20030154D01*
X2481190Y-20134916D01*
X2576429Y-20134916D02*
X2576429Y-20001583D01*
X2576429Y-20020630D02*
X2585952Y-20011107D01*
X2605000Y-20001583D01*
X2633571Y-20001583D01*
X2652619Y-20011107D01*
X2662143Y-20030154D01*
X2662143Y-20134916D01*
X2662143Y-20030154D02*
X2671667Y-20011107D01*
X2690714Y-20001583D01*
X2719286Y-20001583D01*
X2738333Y-20011107D01*
X2747857Y-20030154D01*
X2747857Y-20134916D01*
X3138333Y-19925392D02*
X2966905Y-20182535D01*
X3395476Y-19934916D02*
X3414524Y-19934916D01*
X3433571Y-19944440D01*
X3443095Y-19953964D01*
X3452619Y-19973011D01*
X3462143Y-20011107D01*
X3462143Y-20058726D01*
X3452619Y-20096821D01*
X3443095Y-20115869D01*
X3433571Y-20125392D01*
X3414524Y-20134916D01*
X3395476Y-20134916D01*
X3376428Y-20125392D01*
X3366905Y-20115869D01*
X3357381Y-20096821D01*
X3347857Y-20058726D01*
X3347857Y-20011107D01*
X3357381Y-19973011D01*
X3366905Y-19953964D01*
X3376428Y-19944440D01*
X3395476Y-19934916D01*
X3547857Y-20115869D02*
X3557381Y-20125392D01*
X3547857Y-20134916D01*
X3538333Y-20125392D01*
X3547857Y-20115869D01*
X3547857Y-20134916D01*
X3681190Y-19934916D02*
X3700238Y-19934916D01*
X3719286Y-19944440D01*
X3728809Y-19953964D01*
X3738333Y-19973011D01*
X3747857Y-20011107D01*
X3747857Y-20058726D01*
X3738333Y-20096821D01*
X3728809Y-20115869D01*
X3719286Y-20125392D01*
X3700238Y-20134916D01*
X3681190Y-20134916D01*
X3662143Y-20125392D01*
X3652619Y-20115869D01*
X3643095Y-20096821D01*
X3633571Y-20058726D01*
X3633571Y-20011107D01*
X3643095Y-19973011D01*
X3652619Y-19953964D01*
X3662143Y-19944440D01*
X3681190Y-19934916D01*
X3938333Y-20134916D02*
X3824048Y-20134916D01*
X3881190Y-20134916D02*
X3881190Y-19934916D01*
X3862143Y-19963488D01*
X3843095Y-19982535D01*
X3824048Y-19992059D01*
X4119286Y-19934916D02*
X4024048Y-19934916D01*
X4014524Y-20030154D01*
X4024048Y-20020630D01*
X4043095Y-20011107D01*
X4090714Y-20011107D01*
X4109762Y-20020630D01*
X4119286Y-20030154D01*
X4128809Y-20049202D01*
X4128809Y-20096821D01*
X4119286Y-20115869D01*
X4109762Y-20125392D01*
X4090714Y-20134916D01*
X4043095Y-20134916D01*
X4024048Y-20125392D01*
X4014524Y-20115869D01*
X4195476Y-19934916D02*
X4328810Y-19934916D01*
X4243095Y-20134916D01*
X4395476Y-19934916D02*
X4395476Y-19973011D01*
X4471667Y-19934916D02*
X4471667Y-19973011D01*
X4766905Y-20211107D02*
X4757381Y-20201583D01*
X4738333Y-20173011D01*
X4728810Y-20153964D01*
X4719286Y-20125392D01*
X4709762Y-20077773D01*
X4709762Y-20039678D01*
X4719286Y-19992059D01*
X4728810Y-19963488D01*
X4738333Y-19944440D01*
X4757381Y-19915869D01*
X4766905Y-19906345D01*
X4947857Y-20134916D02*
X4833571Y-20134916D01*
X4890714Y-20134916D02*
X4890714Y-19934916D01*
X4871667Y-19963488D01*
X4852619Y-19982535D01*
X4833571Y-19992059D01*
X5128810Y-19934916D02*
X5033571Y-19934916D01*
X5024048Y-20030154D01*
X5033571Y-20020630D01*
X5052619Y-20011107D01*
X5100238Y-20011107D01*
X5119286Y-20020630D01*
X5128810Y-20030154D01*
X5138333Y-20049202D01*
X5138333Y-20096821D01*
X5128810Y-20115869D01*
X5119286Y-20125392D01*
X5100238Y-20134916D01*
X5052619Y-20134916D01*
X5033571Y-20125392D01*
X5024048Y-20115869D01*
X5376429Y-20134916D02*
X5376429Y-19934916D01*
X5462143Y-20134916D02*
X5462143Y-20030154D01*
X5452619Y-20011107D01*
X5433571Y-20001583D01*
X5405000Y-20001583D01*
X5385952Y-20011107D01*
X5376429Y-20020630D01*
X5585952Y-20134916D02*
X5566905Y-20125392D01*
X5557381Y-20115869D01*
X5547857Y-20096821D01*
X5547857Y-20039678D01*
X5557381Y-20020630D01*
X5566905Y-20011107D01*
X5585952Y-20001583D01*
X5614524Y-20001583D01*
X5633571Y-20011107D01*
X5643095Y-20020630D01*
X5652619Y-20039678D01*
X5652619Y-20096821D01*
X5643095Y-20115869D01*
X5633571Y-20125392D01*
X5614524Y-20134916D01*
X5585952Y-20134916D01*
X5766905Y-20134916D02*
X5747857Y-20125392D01*
X5738333Y-20106345D01*
X5738333Y-19934916D01*
X5919286Y-20125392D02*
X5900238Y-20134916D01*
X5862143Y-20134916D01*
X5843095Y-20125392D01*
X5833571Y-20106345D01*
X5833571Y-20030154D01*
X5843095Y-20011107D01*
X5862143Y-20001583D01*
X5900238Y-20001583D01*
X5919286Y-20011107D01*
X5928809Y-20030154D01*
X5928809Y-20049202D01*
X5833571Y-20068250D01*
X6005000Y-20125392D02*
X6024048Y-20134916D01*
X6062143Y-20134916D01*
X6081190Y-20125392D01*
X6090714Y-20106345D01*
X6090714Y-20096821D01*
X6081190Y-20077773D01*
X6062143Y-20068250D01*
X6033571Y-20068250D01*
X6014524Y-20058726D01*
X6005000Y-20039678D01*
X6005000Y-20030154D01*
X6014524Y-20011107D01*
X6033571Y-20001583D01*
X6062143Y-20001583D01*
X6081190Y-20011107D01*
X6157381Y-20211107D02*
X6166905Y-20201583D01*
X6185952Y-20173011D01*
X6195476Y-20153964D01*
X6205000Y-20125392D01*
X6214524Y-20077773D01*
X6214524Y-20039678D01*
X6205000Y-19992059D01*
X6195476Y-19963488D01*
X6185952Y-19944440D01*
X6166905Y-19915869D01*
X6157381Y-19906345D01*
D13*
X1195000Y-20308440D02*
G75*
G03*
X1195000Y-20308440I-37950J0D01*
G01*
D11*
X1490714Y-20198916D02*
X1509762Y-20198916D01*
X1528809Y-20208440D01*
X1538333Y-20217964D01*
X1547857Y-20237011D01*
X1557381Y-20275107D01*
X1557381Y-20322726D01*
X1547857Y-20360821D01*
X1538333Y-20379869D01*
X1528809Y-20389392D01*
X1509762Y-20398916D01*
X1490714Y-20398916D01*
X1471667Y-20389392D01*
X1462143Y-20379869D01*
X1452619Y-20360821D01*
X1443095Y-20322726D01*
X1443095Y-20275107D01*
X1452619Y-20237011D01*
X1462143Y-20217964D01*
X1471667Y-20208440D01*
X1490714Y-20198916D01*
X1643095Y-20379869D02*
X1652619Y-20389392D01*
X1643095Y-20398916D01*
X1633571Y-20389392D01*
X1643095Y-20379869D01*
X1643095Y-20398916D01*
X1719286Y-20198916D02*
X1852619Y-20198916D01*
X1766905Y-20398916D01*
X2024048Y-20198916D02*
X1928809Y-20198916D01*
X1919286Y-20294154D01*
X1928809Y-20284630D01*
X1947857Y-20275107D01*
X1995476Y-20275107D01*
X2014524Y-20284630D01*
X2024048Y-20294154D01*
X2033571Y-20313202D01*
X2033571Y-20360821D01*
X2024048Y-20379869D01*
X2014524Y-20389392D01*
X1995476Y-20398916D01*
X1947857Y-20398916D01*
X1928809Y-20389392D01*
X1919286Y-20379869D01*
X2128810Y-20398916D02*
X2166905Y-20398916D01*
X2185952Y-20389392D01*
X2195476Y-20379869D01*
X2214524Y-20351297D01*
X2224048Y-20313202D01*
X2224048Y-20237011D01*
X2214524Y-20217964D01*
X2205000Y-20208440D01*
X2185952Y-20198916D01*
X2147857Y-20198916D01*
X2128810Y-20208440D01*
X2119286Y-20217964D01*
X2109762Y-20237011D01*
X2109762Y-20284630D01*
X2119286Y-20303678D01*
X2128810Y-20313202D01*
X2147857Y-20322726D01*
X2185952Y-20322726D01*
X2205000Y-20313202D01*
X2214524Y-20303678D01*
X2224048Y-20284630D01*
X2309762Y-20398916D02*
X2309762Y-20265583D01*
X2309762Y-20284630D02*
X2319286Y-20275107D01*
X2338333Y-20265583D01*
X2366905Y-20265583D01*
X2385952Y-20275107D01*
X2395476Y-20294154D01*
X2395476Y-20398916D01*
X2395476Y-20294154D02*
X2405000Y-20275107D01*
X2424048Y-20265583D01*
X2452619Y-20265583D01*
X2471667Y-20275107D01*
X2481190Y-20294154D01*
X2481190Y-20398916D01*
X2576429Y-20398916D02*
X2576429Y-20265583D01*
X2576429Y-20284630D02*
X2585952Y-20275107D01*
X2605000Y-20265583D01*
X2633571Y-20265583D01*
X2652619Y-20275107D01*
X2662143Y-20294154D01*
X2662143Y-20398916D01*
X2662143Y-20294154D02*
X2671667Y-20275107D01*
X2690714Y-20265583D01*
X2719286Y-20265583D01*
X2738333Y-20275107D01*
X2747857Y-20294154D01*
X2747857Y-20398916D01*
X3138333Y-20189392D02*
X2966905Y-20446535D01*
X3395476Y-20198916D02*
X3414524Y-20198916D01*
X3433571Y-20208440D01*
X3443095Y-20217964D01*
X3452619Y-20237011D01*
X3462143Y-20275107D01*
X3462143Y-20322726D01*
X3452619Y-20360821D01*
X3443095Y-20379869D01*
X3433571Y-20389392D01*
X3414524Y-20398916D01*
X3395476Y-20398916D01*
X3376428Y-20389392D01*
X3366905Y-20379869D01*
X3357381Y-20360821D01*
X3347857Y-20322726D01*
X3347857Y-20275107D01*
X3357381Y-20237011D01*
X3366905Y-20217964D01*
X3376428Y-20208440D01*
X3395476Y-20198916D01*
X3547857Y-20379869D02*
X3557381Y-20389392D01*
X3547857Y-20398916D01*
X3538333Y-20389392D01*
X3547857Y-20379869D01*
X3547857Y-20398916D01*
X3681190Y-20198916D02*
X3700238Y-20198916D01*
X3719286Y-20208440D01*
X3728809Y-20217964D01*
X3738333Y-20237011D01*
X3747857Y-20275107D01*
X3747857Y-20322726D01*
X3738333Y-20360821D01*
X3728809Y-20379869D01*
X3719286Y-20389392D01*
X3700238Y-20398916D01*
X3681190Y-20398916D01*
X3662143Y-20389392D01*
X3652619Y-20379869D01*
X3643095Y-20360821D01*
X3633571Y-20322726D01*
X3633571Y-20275107D01*
X3643095Y-20237011D01*
X3652619Y-20217964D01*
X3662143Y-20208440D01*
X3681190Y-20198916D01*
X3824048Y-20217964D02*
X3833571Y-20208440D01*
X3852619Y-20198916D01*
X3900238Y-20198916D01*
X3919286Y-20208440D01*
X3928809Y-20217964D01*
X3938333Y-20237011D01*
X3938333Y-20256059D01*
X3928809Y-20284630D01*
X3814524Y-20398916D01*
X3938333Y-20398916D01*
X4033571Y-20398916D02*
X4071667Y-20398916D01*
X4090714Y-20389392D01*
X4100238Y-20379869D01*
X4119286Y-20351297D01*
X4128809Y-20313202D01*
X4128809Y-20237011D01*
X4119286Y-20217964D01*
X4109762Y-20208440D01*
X4090714Y-20198916D01*
X4052619Y-20198916D01*
X4033571Y-20208440D01*
X4024048Y-20217964D01*
X4014524Y-20237011D01*
X4014524Y-20284630D01*
X4024048Y-20303678D01*
X4033571Y-20313202D01*
X4052619Y-20322726D01*
X4090714Y-20322726D01*
X4109762Y-20313202D01*
X4119286Y-20303678D01*
X4128809Y-20284630D01*
X4224048Y-20398916D02*
X4262143Y-20398916D01*
X4281190Y-20389392D01*
X4290714Y-20379869D01*
X4309762Y-20351297D01*
X4319286Y-20313202D01*
X4319286Y-20237011D01*
X4309762Y-20217964D01*
X4300238Y-20208440D01*
X4281190Y-20198916D01*
X4243095Y-20198916D01*
X4224048Y-20208440D01*
X4214524Y-20217964D01*
X4205000Y-20237011D01*
X4205000Y-20284630D01*
X4214524Y-20303678D01*
X4224048Y-20313202D01*
X4243095Y-20322726D01*
X4281190Y-20322726D01*
X4300238Y-20313202D01*
X4309762Y-20303678D01*
X4319286Y-20284630D01*
X4395476Y-20198916D02*
X4395476Y-20237011D01*
X4471667Y-20198916D02*
X4471667Y-20237011D01*
X4766905Y-20475107D02*
X4757381Y-20465583D01*
X4738333Y-20437011D01*
X4728810Y-20417964D01*
X4719286Y-20389392D01*
X4709762Y-20341773D01*
X4709762Y-20303678D01*
X4719286Y-20256059D01*
X4728810Y-20227488D01*
X4738333Y-20208440D01*
X4757381Y-20179869D01*
X4766905Y-20170345D01*
X4947857Y-20398916D02*
X4833571Y-20398916D01*
X4890714Y-20398916D02*
X4890714Y-20198916D01*
X4871667Y-20227488D01*
X4852619Y-20246535D01*
X4833571Y-20256059D01*
X5119286Y-20198916D02*
X5081190Y-20198916D01*
X5062143Y-20208440D01*
X5052619Y-20217964D01*
X5033571Y-20246535D01*
X5024048Y-20284630D01*
X5024048Y-20360821D01*
X5033571Y-20379869D01*
X5043095Y-20389392D01*
X5062143Y-20398916D01*
X5100238Y-20398916D01*
X5119286Y-20389392D01*
X5128810Y-20379869D01*
X5138333Y-20360821D01*
X5138333Y-20313202D01*
X5128810Y-20294154D01*
X5119286Y-20284630D01*
X5100238Y-20275107D01*
X5062143Y-20275107D01*
X5043095Y-20284630D01*
X5033571Y-20294154D01*
X5024048Y-20313202D01*
X5376429Y-20398916D02*
X5376429Y-20198916D01*
X5462143Y-20398916D02*
X5462143Y-20294154D01*
X5452619Y-20275107D01*
X5433571Y-20265583D01*
X5405000Y-20265583D01*
X5385952Y-20275107D01*
X5376429Y-20284630D01*
X5585952Y-20398916D02*
X5566905Y-20389392D01*
X5557381Y-20379869D01*
X5547857Y-20360821D01*
X5547857Y-20303678D01*
X5557381Y-20284630D01*
X5566905Y-20275107D01*
X5585952Y-20265583D01*
X5614524Y-20265583D01*
X5633571Y-20275107D01*
X5643095Y-20284630D01*
X5652619Y-20303678D01*
X5652619Y-20360821D01*
X5643095Y-20379869D01*
X5633571Y-20389392D01*
X5614524Y-20398916D01*
X5585952Y-20398916D01*
X5766905Y-20398916D02*
X5747857Y-20389392D01*
X5738333Y-20370345D01*
X5738333Y-20198916D01*
X5919286Y-20389392D02*
X5900238Y-20398916D01*
X5862143Y-20398916D01*
X5843095Y-20389392D01*
X5833571Y-20370345D01*
X5833571Y-20294154D01*
X5843095Y-20275107D01*
X5862143Y-20265583D01*
X5900238Y-20265583D01*
X5919286Y-20275107D01*
X5928809Y-20294154D01*
X5928809Y-20313202D01*
X5833571Y-20332250D01*
X6005000Y-20389392D02*
X6024048Y-20398916D01*
X6062143Y-20398916D01*
X6081190Y-20389392D01*
X6090714Y-20370345D01*
X6090714Y-20360821D01*
X6081190Y-20341773D01*
X6062143Y-20332250D01*
X6033571Y-20332250D01*
X6014524Y-20322726D01*
X6005000Y-20303678D01*
X6005000Y-20294154D01*
X6014524Y-20275107D01*
X6033571Y-20265583D01*
X6062143Y-20265583D01*
X6081190Y-20275107D01*
X6157381Y-20475107D02*
X6166905Y-20465583D01*
X6185952Y-20437011D01*
X6195476Y-20417964D01*
X6205000Y-20389392D01*
X6214524Y-20341773D01*
X6214524Y-20303678D01*
X6205000Y-20256059D01*
X6195476Y-20227488D01*
X6185952Y-20208440D01*
X6166905Y-20179869D01*
X6157381Y-20170345D01*
D14*
X1157000Y-20534440D02*
X1157000Y-20610440D01*
X1119000Y-20572440D02*
X1195000Y-20572440D01*
D11*
X1490714Y-20462916D02*
X1509762Y-20462916D01*
X1528809Y-20472440D01*
X1538333Y-20481964D01*
X1547857Y-20501011D01*
X1557381Y-20539107D01*
X1557381Y-20586726D01*
X1547857Y-20624821D01*
X1538333Y-20643869D01*
X1528809Y-20653392D01*
X1509762Y-20662916D01*
X1490714Y-20662916D01*
X1471667Y-20653392D01*
X1462143Y-20643869D01*
X1452619Y-20624821D01*
X1443095Y-20586726D01*
X1443095Y-20539107D01*
X1452619Y-20501011D01*
X1462143Y-20481964D01*
X1471667Y-20472440D01*
X1490714Y-20462916D01*
X1643095Y-20643869D02*
X1652619Y-20653392D01*
X1643095Y-20662916D01*
X1633571Y-20653392D01*
X1643095Y-20643869D01*
X1643095Y-20662916D01*
X1719286Y-20462916D02*
X1852619Y-20462916D01*
X1766905Y-20662916D01*
X2014524Y-20462916D02*
X1976428Y-20462916D01*
X1957381Y-20472440D01*
X1947857Y-20481964D01*
X1928809Y-20510535D01*
X1919286Y-20548630D01*
X1919286Y-20624821D01*
X1928809Y-20643869D01*
X1938333Y-20653392D01*
X1957381Y-20662916D01*
X1995476Y-20662916D01*
X2014524Y-20653392D01*
X2024048Y-20643869D01*
X2033571Y-20624821D01*
X2033571Y-20577202D01*
X2024048Y-20558154D01*
X2014524Y-20548630D01*
X1995476Y-20539107D01*
X1957381Y-20539107D01*
X1938333Y-20548630D01*
X1928809Y-20558154D01*
X1919286Y-20577202D01*
X2157381Y-20462916D02*
X2176429Y-20462916D01*
X2195476Y-20472440D01*
X2205000Y-20481964D01*
X2214524Y-20501011D01*
X2224048Y-20539107D01*
X2224048Y-20586726D01*
X2214524Y-20624821D01*
X2205000Y-20643869D01*
X2195476Y-20653392D01*
X2176429Y-20662916D01*
X2157381Y-20662916D01*
X2138333Y-20653392D01*
X2128810Y-20643869D01*
X2119286Y-20624821D01*
X2109762Y-20586726D01*
X2109762Y-20539107D01*
X2119286Y-20501011D01*
X2128810Y-20481964D01*
X2138333Y-20472440D01*
X2157381Y-20462916D01*
X2309762Y-20662916D02*
X2309762Y-20529583D01*
X2309762Y-20548630D02*
X2319286Y-20539107D01*
X2338333Y-20529583D01*
X2366905Y-20529583D01*
X2385952Y-20539107D01*
X2395476Y-20558154D01*
X2395476Y-20662916D01*
X2395476Y-20558154D02*
X2405000Y-20539107D01*
X2424048Y-20529583D01*
X2452619Y-20529583D01*
X2471667Y-20539107D01*
X2481190Y-20558154D01*
X2481190Y-20662916D01*
X2576429Y-20662916D02*
X2576429Y-20529583D01*
X2576429Y-20548630D02*
X2585952Y-20539107D01*
X2605000Y-20529583D01*
X2633571Y-20529583D01*
X2652619Y-20539107D01*
X2662143Y-20558154D01*
X2662143Y-20662916D01*
X2662143Y-20558154D02*
X2671667Y-20539107D01*
X2690714Y-20529583D01*
X2719286Y-20529583D01*
X2738333Y-20539107D01*
X2747857Y-20558154D01*
X2747857Y-20662916D01*
X3138333Y-20453392D02*
X2966905Y-20710535D01*
X3395476Y-20462916D02*
X3414524Y-20462916D01*
X3433571Y-20472440D01*
X3443095Y-20481964D01*
X3452619Y-20501011D01*
X3462143Y-20539107D01*
X3462143Y-20586726D01*
X3452619Y-20624821D01*
X3443095Y-20643869D01*
X3433571Y-20653392D01*
X3414524Y-20662916D01*
X3395476Y-20662916D01*
X3376428Y-20653392D01*
X3366905Y-20643869D01*
X3357381Y-20624821D01*
X3347857Y-20586726D01*
X3347857Y-20539107D01*
X3357381Y-20501011D01*
X3366905Y-20481964D01*
X3376428Y-20472440D01*
X3395476Y-20462916D01*
X3547857Y-20643869D02*
X3557381Y-20653392D01*
X3547857Y-20662916D01*
X3538333Y-20653392D01*
X3547857Y-20643869D01*
X3547857Y-20662916D01*
X3681190Y-20462916D02*
X3700238Y-20462916D01*
X3719286Y-20472440D01*
X3728809Y-20481964D01*
X3738333Y-20501011D01*
X3747857Y-20539107D01*
X3747857Y-20586726D01*
X3738333Y-20624821D01*
X3728809Y-20643869D01*
X3719286Y-20653392D01*
X3700238Y-20662916D01*
X3681190Y-20662916D01*
X3662143Y-20653392D01*
X3652619Y-20643869D01*
X3643095Y-20624821D01*
X3633571Y-20586726D01*
X3633571Y-20539107D01*
X3643095Y-20501011D01*
X3652619Y-20481964D01*
X3662143Y-20472440D01*
X3681190Y-20462916D01*
X3824048Y-20481964D02*
X3833571Y-20472440D01*
X3852619Y-20462916D01*
X3900238Y-20462916D01*
X3919286Y-20472440D01*
X3928809Y-20481964D01*
X3938333Y-20501011D01*
X3938333Y-20520059D01*
X3928809Y-20548630D01*
X3814524Y-20662916D01*
X3938333Y-20662916D01*
X4033571Y-20662916D02*
X4071667Y-20662916D01*
X4090714Y-20653392D01*
X4100238Y-20643869D01*
X4119286Y-20615297D01*
X4128809Y-20577202D01*
X4128809Y-20501011D01*
X4119286Y-20481964D01*
X4109762Y-20472440D01*
X4090714Y-20462916D01*
X4052619Y-20462916D01*
X4033571Y-20472440D01*
X4024048Y-20481964D01*
X4014524Y-20501011D01*
X4014524Y-20548630D01*
X4024048Y-20567678D01*
X4033571Y-20577202D01*
X4052619Y-20586726D01*
X4090714Y-20586726D01*
X4109762Y-20577202D01*
X4119286Y-20567678D01*
X4128809Y-20548630D01*
X4224048Y-20662916D02*
X4262143Y-20662916D01*
X4281190Y-20653392D01*
X4290714Y-20643869D01*
X4309762Y-20615297D01*
X4319286Y-20577202D01*
X4319286Y-20501011D01*
X4309762Y-20481964D01*
X4300238Y-20472440D01*
X4281190Y-20462916D01*
X4243095Y-20462916D01*
X4224048Y-20472440D01*
X4214524Y-20481964D01*
X4205000Y-20501011D01*
X4205000Y-20548630D01*
X4214524Y-20567678D01*
X4224048Y-20577202D01*
X4243095Y-20586726D01*
X4281190Y-20586726D01*
X4300238Y-20577202D01*
X4309762Y-20567678D01*
X4319286Y-20548630D01*
X4395476Y-20462916D02*
X4395476Y-20501011D01*
X4471667Y-20462916D02*
X4471667Y-20501011D01*
X4766905Y-20739107D02*
X4757381Y-20729583D01*
X4738333Y-20701011D01*
X4728810Y-20681964D01*
X4719286Y-20653392D01*
X4709762Y-20605773D01*
X4709762Y-20567678D01*
X4719286Y-20520059D01*
X4728810Y-20491488D01*
X4738333Y-20472440D01*
X4757381Y-20443869D01*
X4766905Y-20434345D01*
X4928810Y-20529583D02*
X4928810Y-20662916D01*
X4881190Y-20453392D02*
X4833571Y-20596250D01*
X4957381Y-20596250D01*
X5185952Y-20662916D02*
X5185952Y-20462916D01*
X5271667Y-20662916D02*
X5271667Y-20558154D01*
X5262143Y-20539107D01*
X5243095Y-20529583D01*
X5214524Y-20529583D01*
X5195476Y-20539107D01*
X5185952Y-20548630D01*
X5395476Y-20662916D02*
X5376429Y-20653392D01*
X5366905Y-20643869D01*
X5357381Y-20624821D01*
X5357381Y-20567678D01*
X5366905Y-20548630D01*
X5376429Y-20539107D01*
X5395476Y-20529583D01*
X5424048Y-20529583D01*
X5443095Y-20539107D01*
X5452619Y-20548630D01*
X5462143Y-20567678D01*
X5462143Y-20624821D01*
X5452619Y-20643869D01*
X5443095Y-20653392D01*
X5424048Y-20662916D01*
X5395476Y-20662916D01*
X5576429Y-20662916D02*
X5557381Y-20653392D01*
X5547857Y-20634345D01*
X5547857Y-20462916D01*
X5728809Y-20653392D02*
X5709762Y-20662916D01*
X5671667Y-20662916D01*
X5652619Y-20653392D01*
X5643095Y-20634345D01*
X5643095Y-20558154D01*
X5652619Y-20539107D01*
X5671667Y-20529583D01*
X5709762Y-20529583D01*
X5728809Y-20539107D01*
X5738333Y-20558154D01*
X5738333Y-20577202D01*
X5643095Y-20596250D01*
X5814524Y-20653392D02*
X5833571Y-20662916D01*
X5871667Y-20662916D01*
X5890714Y-20653392D01*
X5900238Y-20634345D01*
X5900238Y-20624821D01*
X5890714Y-20605773D01*
X5871667Y-20596250D01*
X5843095Y-20596250D01*
X5824048Y-20586726D01*
X5814524Y-20567678D01*
X5814524Y-20558154D01*
X5824048Y-20539107D01*
X5843095Y-20529583D01*
X5871667Y-20529583D01*
X5890714Y-20539107D01*
X5966905Y-20739107D02*
X5976428Y-20729583D01*
X5995476Y-20701011D01*
X6005000Y-20681964D01*
X6014524Y-20653392D01*
X6024048Y-20605773D01*
X6024048Y-20567678D01*
X6014524Y-20520059D01*
X6005000Y-20491488D01*
X5995476Y-20472440D01*
X5976428Y-20443869D01*
X5966905Y-20434345D01*
D15*
X1183285Y-20864725D02*
X1183285Y-20808156D01*
X1126716Y-20808156D01*
X1126716Y-20864725D01*
X1183285Y-20864725D01*
D11*
X1490714Y-20726916D02*
X1509762Y-20726916D01*
X1528809Y-20736440D01*
X1538333Y-20745964D01*
X1547857Y-20765011D01*
X1557381Y-20803107D01*
X1557381Y-20850726D01*
X1547857Y-20888821D01*
X1538333Y-20907869D01*
X1528809Y-20917392D01*
X1509762Y-20926916D01*
X1490714Y-20926916D01*
X1471667Y-20917392D01*
X1462143Y-20907869D01*
X1452619Y-20888821D01*
X1443095Y-20850726D01*
X1443095Y-20803107D01*
X1452619Y-20765011D01*
X1462143Y-20745964D01*
X1471667Y-20736440D01*
X1490714Y-20726916D01*
X1643095Y-20907869D02*
X1652619Y-20917392D01*
X1643095Y-20926916D01*
X1633571Y-20917392D01*
X1643095Y-20907869D01*
X1643095Y-20926916D01*
X1766905Y-20812630D02*
X1747857Y-20803107D01*
X1738333Y-20793583D01*
X1728809Y-20774535D01*
X1728809Y-20765011D01*
X1738333Y-20745964D01*
X1747857Y-20736440D01*
X1766905Y-20726916D01*
X1805000Y-20726916D01*
X1824048Y-20736440D01*
X1833571Y-20745964D01*
X1843095Y-20765011D01*
X1843095Y-20774535D01*
X1833571Y-20793583D01*
X1824048Y-20803107D01*
X1805000Y-20812630D01*
X1766905Y-20812630D01*
X1747857Y-20822154D01*
X1738333Y-20831678D01*
X1728809Y-20850726D01*
X1728809Y-20888821D01*
X1738333Y-20907869D01*
X1747857Y-20917392D01*
X1766905Y-20926916D01*
X1805000Y-20926916D01*
X1824048Y-20917392D01*
X1833571Y-20907869D01*
X1843095Y-20888821D01*
X1843095Y-20850726D01*
X1833571Y-20831678D01*
X1824048Y-20822154D01*
X1805000Y-20812630D01*
X1966905Y-20726916D02*
X1985952Y-20726916D01*
X2005000Y-20736440D01*
X2014524Y-20745964D01*
X2024048Y-20765011D01*
X2033571Y-20803107D01*
X2033571Y-20850726D01*
X2024048Y-20888821D01*
X2014524Y-20907869D01*
X2005000Y-20917392D01*
X1985952Y-20926916D01*
X1966905Y-20926916D01*
X1947857Y-20917392D01*
X1938333Y-20907869D01*
X1928809Y-20888821D01*
X1919286Y-20850726D01*
X1919286Y-20803107D01*
X1928809Y-20765011D01*
X1938333Y-20745964D01*
X1947857Y-20736440D01*
X1966905Y-20726916D01*
X2157381Y-20726916D02*
X2176429Y-20726916D01*
X2195476Y-20736440D01*
X2205000Y-20745964D01*
X2214524Y-20765011D01*
X2224048Y-20803107D01*
X2224048Y-20850726D01*
X2214524Y-20888821D01*
X2205000Y-20907869D01*
X2195476Y-20917392D01*
X2176429Y-20926916D01*
X2157381Y-20926916D01*
X2138333Y-20917392D01*
X2128810Y-20907869D01*
X2119286Y-20888821D01*
X2109762Y-20850726D01*
X2109762Y-20803107D01*
X2119286Y-20765011D01*
X2128810Y-20745964D01*
X2138333Y-20736440D01*
X2157381Y-20726916D01*
X2309762Y-20926916D02*
X2309762Y-20793583D01*
X2309762Y-20812630D02*
X2319286Y-20803107D01*
X2338333Y-20793583D01*
X2366905Y-20793583D01*
X2385952Y-20803107D01*
X2395476Y-20822154D01*
X2395476Y-20926916D01*
X2395476Y-20822154D02*
X2405000Y-20803107D01*
X2424048Y-20793583D01*
X2452619Y-20793583D01*
X2471667Y-20803107D01*
X2481190Y-20822154D01*
X2481190Y-20926916D01*
X2576429Y-20926916D02*
X2576429Y-20793583D01*
X2576429Y-20812630D02*
X2585952Y-20803107D01*
X2605000Y-20793583D01*
X2633571Y-20793583D01*
X2652619Y-20803107D01*
X2662143Y-20822154D01*
X2662143Y-20926916D01*
X2662143Y-20822154D02*
X2671667Y-20803107D01*
X2690714Y-20793583D01*
X2719286Y-20793583D01*
X2738333Y-20803107D01*
X2747857Y-20822154D01*
X2747857Y-20926916D01*
X3138333Y-20717392D02*
X2966905Y-20974535D01*
X3395476Y-20726916D02*
X3414524Y-20726916D01*
X3433571Y-20736440D01*
X3443095Y-20745964D01*
X3452619Y-20765011D01*
X3462143Y-20803107D01*
X3462143Y-20850726D01*
X3452619Y-20888821D01*
X3443095Y-20907869D01*
X3433571Y-20917392D01*
X3414524Y-20926916D01*
X3395476Y-20926916D01*
X3376428Y-20917392D01*
X3366905Y-20907869D01*
X3357381Y-20888821D01*
X3347857Y-20850726D01*
X3347857Y-20803107D01*
X3357381Y-20765011D01*
X3366905Y-20745964D01*
X3376428Y-20736440D01*
X3395476Y-20726916D01*
X3547857Y-20907869D02*
X3557381Y-20917392D01*
X3547857Y-20926916D01*
X3538333Y-20917392D01*
X3547857Y-20907869D01*
X3547857Y-20926916D01*
X3681190Y-20726916D02*
X3700238Y-20726916D01*
X3719286Y-20736440D01*
X3728809Y-20745964D01*
X3738333Y-20765011D01*
X3747857Y-20803107D01*
X3747857Y-20850726D01*
X3738333Y-20888821D01*
X3728809Y-20907869D01*
X3719286Y-20917392D01*
X3700238Y-20926916D01*
X3681190Y-20926916D01*
X3662143Y-20917392D01*
X3652619Y-20907869D01*
X3643095Y-20888821D01*
X3633571Y-20850726D01*
X3633571Y-20803107D01*
X3643095Y-20765011D01*
X3652619Y-20745964D01*
X3662143Y-20736440D01*
X3681190Y-20726916D01*
X3814524Y-20726916D02*
X3938333Y-20726916D01*
X3871667Y-20803107D01*
X3900238Y-20803107D01*
X3919286Y-20812630D01*
X3928809Y-20822154D01*
X3938333Y-20841202D01*
X3938333Y-20888821D01*
X3928809Y-20907869D01*
X3919286Y-20917392D01*
X3900238Y-20926916D01*
X3843095Y-20926916D01*
X3824048Y-20917392D01*
X3814524Y-20907869D01*
X4128809Y-20926916D02*
X4014524Y-20926916D01*
X4071667Y-20926916D02*
X4071667Y-20726916D01*
X4052619Y-20755488D01*
X4033571Y-20774535D01*
X4014524Y-20784059D01*
X4309762Y-20726916D02*
X4214524Y-20726916D01*
X4205000Y-20822154D01*
X4214524Y-20812630D01*
X4233571Y-20803107D01*
X4281190Y-20803107D01*
X4300238Y-20812630D01*
X4309762Y-20822154D01*
X4319286Y-20841202D01*
X4319286Y-20888821D01*
X4309762Y-20907869D01*
X4300238Y-20917392D01*
X4281190Y-20926916D01*
X4233571Y-20926916D01*
X4214524Y-20917392D01*
X4205000Y-20907869D01*
X4395476Y-20726916D02*
X4395476Y-20765011D01*
X4471667Y-20726916D02*
X4471667Y-20765011D01*
X4766905Y-21003107D02*
X4757381Y-20993583D01*
X4738333Y-20965011D01*
X4728810Y-20945964D01*
X4719286Y-20917392D01*
X4709762Y-20869773D01*
X4709762Y-20831678D01*
X4719286Y-20784059D01*
X4728810Y-20755488D01*
X4738333Y-20736440D01*
X4757381Y-20707869D01*
X4766905Y-20698345D01*
X4833571Y-20745964D02*
X4843095Y-20736440D01*
X4862143Y-20726916D01*
X4909762Y-20726916D01*
X4928810Y-20736440D01*
X4938333Y-20745964D01*
X4947857Y-20765011D01*
X4947857Y-20784059D01*
X4938333Y-20812630D01*
X4824048Y-20926916D01*
X4947857Y-20926916D01*
X5062143Y-20812630D02*
X5043095Y-20803107D01*
X5033571Y-20793583D01*
X5024048Y-20774535D01*
X5024048Y-20765011D01*
X5033571Y-20745964D01*
X5043095Y-20736440D01*
X5062143Y-20726916D01*
X5100238Y-20726916D01*
X5119286Y-20736440D01*
X5128810Y-20745964D01*
X5138333Y-20765011D01*
X5138333Y-20774535D01*
X5128810Y-20793583D01*
X5119286Y-20803107D01*
X5100238Y-20812630D01*
X5062143Y-20812630D01*
X5043095Y-20822154D01*
X5033571Y-20831678D01*
X5024048Y-20850726D01*
X5024048Y-20888821D01*
X5033571Y-20907869D01*
X5043095Y-20917392D01*
X5062143Y-20926916D01*
X5100238Y-20926916D01*
X5119286Y-20917392D01*
X5128810Y-20907869D01*
X5138333Y-20888821D01*
X5138333Y-20850726D01*
X5128810Y-20831678D01*
X5119286Y-20822154D01*
X5100238Y-20812630D01*
X5376429Y-20926916D02*
X5376429Y-20726916D01*
X5462143Y-20926916D02*
X5462143Y-20822154D01*
X5452619Y-20803107D01*
X5433571Y-20793583D01*
X5405000Y-20793583D01*
X5385952Y-20803107D01*
X5376429Y-20812630D01*
X5585952Y-20926916D02*
X5566905Y-20917392D01*
X5557381Y-20907869D01*
X5547857Y-20888821D01*
X5547857Y-20831678D01*
X5557381Y-20812630D01*
X5566905Y-20803107D01*
X5585952Y-20793583D01*
X5614524Y-20793583D01*
X5633571Y-20803107D01*
X5643095Y-20812630D01*
X5652619Y-20831678D01*
X5652619Y-20888821D01*
X5643095Y-20907869D01*
X5633571Y-20917392D01*
X5614524Y-20926916D01*
X5585952Y-20926916D01*
X5766905Y-20926916D02*
X5747857Y-20917392D01*
X5738333Y-20898345D01*
X5738333Y-20726916D01*
X5919286Y-20917392D02*
X5900238Y-20926916D01*
X5862143Y-20926916D01*
X5843095Y-20917392D01*
X5833571Y-20898345D01*
X5833571Y-20822154D01*
X5843095Y-20803107D01*
X5862143Y-20793583D01*
X5900238Y-20793583D01*
X5919286Y-20803107D01*
X5928809Y-20822154D01*
X5928809Y-20841202D01*
X5833571Y-20860250D01*
X6005000Y-20917392D02*
X6024048Y-20926916D01*
X6062143Y-20926916D01*
X6081190Y-20917392D01*
X6090714Y-20898345D01*
X6090714Y-20888821D01*
X6081190Y-20869773D01*
X6062143Y-20860250D01*
X6033571Y-20860250D01*
X6014524Y-20850726D01*
X6005000Y-20831678D01*
X6005000Y-20822154D01*
X6014524Y-20803107D01*
X6033571Y-20793583D01*
X6062143Y-20793583D01*
X6081190Y-20803107D01*
X6157381Y-21003107D02*
X6166905Y-20993583D01*
X6185952Y-20965011D01*
X6195476Y-20945964D01*
X6205000Y-20917392D01*
X6214524Y-20869773D01*
X6214524Y-20831678D01*
X6205000Y-20784059D01*
X6195476Y-20755488D01*
X6185952Y-20736440D01*
X6166905Y-20707869D01*
X6157381Y-20698345D01*
D10*
X1145000Y-21150440D02*
X1195000Y-21100440D01*
X1145000Y-21050440D01*
X1095000Y-21100440D01*
X1145000Y-21150440D01*
D11*
X1557381Y-21190916D02*
X1443095Y-21190916D01*
X1500238Y-21190916D02*
X1500238Y-20990916D01*
X1481190Y-21019488D01*
X1462143Y-21038535D01*
X1443095Y-21048059D01*
X1643095Y-21171869D02*
X1652619Y-21181392D01*
X1643095Y-21190916D01*
X1633571Y-21181392D01*
X1643095Y-21171869D01*
X1643095Y-21190916D01*
X1776428Y-20990916D02*
X1795476Y-20990916D01*
X1814524Y-21000440D01*
X1824048Y-21009964D01*
X1833571Y-21029011D01*
X1843095Y-21067107D01*
X1843095Y-21114726D01*
X1833571Y-21152821D01*
X1824048Y-21171869D01*
X1814524Y-21181392D01*
X1795476Y-21190916D01*
X1776428Y-21190916D01*
X1757381Y-21181392D01*
X1747857Y-21171869D01*
X1738333Y-21152821D01*
X1728809Y-21114726D01*
X1728809Y-21067107D01*
X1738333Y-21029011D01*
X1747857Y-21009964D01*
X1757381Y-21000440D01*
X1776428Y-20990916D01*
X1966905Y-20990916D02*
X1985952Y-20990916D01*
X2005000Y-21000440D01*
X2014524Y-21009964D01*
X2024048Y-21029011D01*
X2033571Y-21067107D01*
X2033571Y-21114726D01*
X2024048Y-21152821D01*
X2014524Y-21171869D01*
X2005000Y-21181392D01*
X1985952Y-21190916D01*
X1966905Y-21190916D01*
X1947857Y-21181392D01*
X1938333Y-21171869D01*
X1928809Y-21152821D01*
X1919286Y-21114726D01*
X1919286Y-21067107D01*
X1928809Y-21029011D01*
X1938333Y-21009964D01*
X1947857Y-21000440D01*
X1966905Y-20990916D01*
X2157381Y-20990916D02*
X2176429Y-20990916D01*
X2195476Y-21000440D01*
X2205000Y-21009964D01*
X2214524Y-21029011D01*
X2224048Y-21067107D01*
X2224048Y-21114726D01*
X2214524Y-21152821D01*
X2205000Y-21171869D01*
X2195476Y-21181392D01*
X2176429Y-21190916D01*
X2157381Y-21190916D01*
X2138333Y-21181392D01*
X2128810Y-21171869D01*
X2119286Y-21152821D01*
X2109762Y-21114726D01*
X2109762Y-21067107D01*
X2119286Y-21029011D01*
X2128810Y-21009964D01*
X2138333Y-21000440D01*
X2157381Y-20990916D01*
X2309762Y-21190916D02*
X2309762Y-21057583D01*
X2309762Y-21076630D02*
X2319286Y-21067107D01*
X2338333Y-21057583D01*
X2366905Y-21057583D01*
X2385952Y-21067107D01*
X2395476Y-21086154D01*
X2395476Y-21190916D01*
X2395476Y-21086154D02*
X2405000Y-21067107D01*
X2424048Y-21057583D01*
X2452619Y-21057583D01*
X2471667Y-21067107D01*
X2481190Y-21086154D01*
X2481190Y-21190916D01*
X2576429Y-21190916D02*
X2576429Y-21057583D01*
X2576429Y-21076630D02*
X2585952Y-21067107D01*
X2605000Y-21057583D01*
X2633571Y-21057583D01*
X2652619Y-21067107D01*
X2662143Y-21086154D01*
X2662143Y-21190916D01*
X2662143Y-21086154D02*
X2671667Y-21067107D01*
X2690714Y-21057583D01*
X2719286Y-21057583D01*
X2738333Y-21067107D01*
X2747857Y-21086154D01*
X2747857Y-21190916D01*
X3138333Y-20981392D02*
X2966905Y-21238535D01*
X3395476Y-20990916D02*
X3414524Y-20990916D01*
X3433571Y-21000440D01*
X3443095Y-21009964D01*
X3452619Y-21029011D01*
X3462143Y-21067107D01*
X3462143Y-21114726D01*
X3452619Y-21152821D01*
X3443095Y-21171869D01*
X3433571Y-21181392D01*
X3414524Y-21190916D01*
X3395476Y-21190916D01*
X3376428Y-21181392D01*
X3366905Y-21171869D01*
X3357381Y-21152821D01*
X3347857Y-21114726D01*
X3347857Y-21067107D01*
X3357381Y-21029011D01*
X3366905Y-21009964D01*
X3376428Y-21000440D01*
X3395476Y-20990916D01*
X3547857Y-21171869D02*
X3557381Y-21181392D01*
X3547857Y-21190916D01*
X3538333Y-21181392D01*
X3547857Y-21171869D01*
X3547857Y-21190916D01*
X3681190Y-20990916D02*
X3700238Y-20990916D01*
X3719286Y-21000440D01*
X3728809Y-21009964D01*
X3738333Y-21029011D01*
X3747857Y-21067107D01*
X3747857Y-21114726D01*
X3738333Y-21152821D01*
X3728809Y-21171869D01*
X3719286Y-21181392D01*
X3700238Y-21190916D01*
X3681190Y-21190916D01*
X3662143Y-21181392D01*
X3652619Y-21171869D01*
X3643095Y-21152821D01*
X3633571Y-21114726D01*
X3633571Y-21067107D01*
X3643095Y-21029011D01*
X3652619Y-21009964D01*
X3662143Y-21000440D01*
X3681190Y-20990916D01*
X3814524Y-20990916D02*
X3938333Y-20990916D01*
X3871667Y-21067107D01*
X3900238Y-21067107D01*
X3919286Y-21076630D01*
X3928809Y-21086154D01*
X3938333Y-21105202D01*
X3938333Y-21152821D01*
X3928809Y-21171869D01*
X3919286Y-21181392D01*
X3900238Y-21190916D01*
X3843095Y-21190916D01*
X3824048Y-21181392D01*
X3814524Y-21171869D01*
X4033571Y-21190916D02*
X4071667Y-21190916D01*
X4090714Y-21181392D01*
X4100238Y-21171869D01*
X4119286Y-21143297D01*
X4128809Y-21105202D01*
X4128809Y-21029011D01*
X4119286Y-21009964D01*
X4109762Y-21000440D01*
X4090714Y-20990916D01*
X4052619Y-20990916D01*
X4033571Y-21000440D01*
X4024048Y-21009964D01*
X4014524Y-21029011D01*
X4014524Y-21076630D01*
X4024048Y-21095678D01*
X4033571Y-21105202D01*
X4052619Y-21114726D01*
X4090714Y-21114726D01*
X4109762Y-21105202D01*
X4119286Y-21095678D01*
X4128809Y-21076630D01*
X4300238Y-21057583D02*
X4300238Y-21190916D01*
X4252619Y-20981392D02*
X4205000Y-21124250D01*
X4328810Y-21124250D01*
X4395476Y-20990916D02*
X4395476Y-21029011D01*
X4471667Y-20990916D02*
X4471667Y-21029011D01*
X4766905Y-21267107D02*
X4757381Y-21257583D01*
X4738333Y-21229011D01*
X4728810Y-21209964D01*
X4719286Y-21181392D01*
X4709762Y-21133773D01*
X4709762Y-21095678D01*
X4719286Y-21048059D01*
X4728810Y-21019488D01*
X4738333Y-21000440D01*
X4757381Y-20971869D01*
X4766905Y-20962345D01*
X4928810Y-20990916D02*
X4890714Y-20990916D01*
X4871667Y-21000440D01*
X4862143Y-21009964D01*
X4843095Y-21038535D01*
X4833571Y-21076630D01*
X4833571Y-21152821D01*
X4843095Y-21171869D01*
X4852619Y-21181392D01*
X4871667Y-21190916D01*
X4909762Y-21190916D01*
X4928810Y-21181392D01*
X4938333Y-21171869D01*
X4947857Y-21152821D01*
X4947857Y-21105202D01*
X4938333Y-21086154D01*
X4928810Y-21076630D01*
X4909762Y-21067107D01*
X4871667Y-21067107D01*
X4852619Y-21076630D01*
X4843095Y-21086154D01*
X4833571Y-21105202D01*
X5014524Y-20990916D02*
X5138333Y-20990916D01*
X5071667Y-21067107D01*
X5100238Y-21067107D01*
X5119286Y-21076630D01*
X5128810Y-21086154D01*
X5138333Y-21105202D01*
X5138333Y-21152821D01*
X5128810Y-21171869D01*
X5119286Y-21181392D01*
X5100238Y-21190916D01*
X5043095Y-21190916D01*
X5024048Y-21181392D01*
X5014524Y-21171869D01*
X5376429Y-21190916D02*
X5376429Y-20990916D01*
X5462143Y-21190916D02*
X5462143Y-21086154D01*
X5452619Y-21067107D01*
X5433571Y-21057583D01*
X5405000Y-21057583D01*
X5385952Y-21067107D01*
X5376429Y-21076630D01*
X5585952Y-21190916D02*
X5566905Y-21181392D01*
X5557381Y-21171869D01*
X5547857Y-21152821D01*
X5547857Y-21095678D01*
X5557381Y-21076630D01*
X5566905Y-21067107D01*
X5585952Y-21057583D01*
X5614524Y-21057583D01*
X5633571Y-21067107D01*
X5643095Y-21076630D01*
X5652619Y-21095678D01*
X5652619Y-21152821D01*
X5643095Y-21171869D01*
X5633571Y-21181392D01*
X5614524Y-21190916D01*
X5585952Y-21190916D01*
X5766905Y-21190916D02*
X5747857Y-21181392D01*
X5738333Y-21162345D01*
X5738333Y-20990916D01*
X5919286Y-21181392D02*
X5900238Y-21190916D01*
X5862143Y-21190916D01*
X5843095Y-21181392D01*
X5833571Y-21162345D01*
X5833571Y-21086154D01*
X5843095Y-21067107D01*
X5862143Y-21057583D01*
X5900238Y-21057583D01*
X5919286Y-21067107D01*
X5928809Y-21086154D01*
X5928809Y-21105202D01*
X5833571Y-21124250D01*
X6005000Y-21181392D02*
X6024048Y-21190916D01*
X6062143Y-21190916D01*
X6081190Y-21181392D01*
X6090714Y-21162345D01*
X6090714Y-21152821D01*
X6081190Y-21133773D01*
X6062143Y-21124250D01*
X6033571Y-21124250D01*
X6014524Y-21114726D01*
X6005000Y-21095678D01*
X6005000Y-21086154D01*
X6014524Y-21067107D01*
X6033571Y-21057583D01*
X6062143Y-21057583D01*
X6081190Y-21067107D01*
X6157381Y-21267107D02*
X6166905Y-21257583D01*
X6185952Y-21229011D01*
X6195476Y-21209964D01*
X6205000Y-21181392D01*
X6214524Y-21133773D01*
X6214524Y-21095678D01*
X6205000Y-21048059D01*
X6195476Y-21019488D01*
X6185952Y-21000440D01*
X6166905Y-20971869D01*
X6157381Y-20962345D01*
D16*
X1093000Y-21313440D02*
X1195000Y-21415440D01*
X1195000Y-21313440D02*
X1093000Y-21415440D01*
X1195000Y-21364440D02*
G75*
G03*
X1195000Y-21364440I-51000J0D01*
G01*
D11*
X1557381Y-21454916D02*
X1443095Y-21454916D01*
X1500238Y-21454916D02*
X1500238Y-21254916D01*
X1481190Y-21283488D01*
X1462143Y-21302535D01*
X1443095Y-21312059D01*
X1643095Y-21435869D02*
X1652619Y-21445392D01*
X1643095Y-21454916D01*
X1633571Y-21445392D01*
X1643095Y-21435869D01*
X1643095Y-21454916D01*
X1776428Y-21254916D02*
X1795476Y-21254916D01*
X1814524Y-21264440D01*
X1824048Y-21273964D01*
X1833571Y-21293011D01*
X1843095Y-21331107D01*
X1843095Y-21378726D01*
X1833571Y-21416821D01*
X1824048Y-21435869D01*
X1814524Y-21445392D01*
X1795476Y-21454916D01*
X1776428Y-21454916D01*
X1757381Y-21445392D01*
X1747857Y-21435869D01*
X1738333Y-21416821D01*
X1728809Y-21378726D01*
X1728809Y-21331107D01*
X1738333Y-21293011D01*
X1747857Y-21273964D01*
X1757381Y-21264440D01*
X1776428Y-21254916D01*
X1919286Y-21273964D02*
X1928809Y-21264440D01*
X1947857Y-21254916D01*
X1995476Y-21254916D01*
X2014524Y-21264440D01*
X2024048Y-21273964D01*
X2033571Y-21293011D01*
X2033571Y-21312059D01*
X2024048Y-21340630D01*
X1909762Y-21454916D01*
X2033571Y-21454916D01*
X2157381Y-21254916D02*
X2176429Y-21254916D01*
X2195476Y-21264440D01*
X2205000Y-21273964D01*
X2214524Y-21293011D01*
X2224048Y-21331107D01*
X2224048Y-21378726D01*
X2214524Y-21416821D01*
X2205000Y-21435869D01*
X2195476Y-21445392D01*
X2176429Y-21454916D01*
X2157381Y-21454916D01*
X2138333Y-21445392D01*
X2128810Y-21435869D01*
X2119286Y-21416821D01*
X2109762Y-21378726D01*
X2109762Y-21331107D01*
X2119286Y-21293011D01*
X2128810Y-21273964D01*
X2138333Y-21264440D01*
X2157381Y-21254916D01*
X2309762Y-21454916D02*
X2309762Y-21321583D01*
X2309762Y-21340630D02*
X2319286Y-21331107D01*
X2338333Y-21321583D01*
X2366905Y-21321583D01*
X2385952Y-21331107D01*
X2395476Y-21350154D01*
X2395476Y-21454916D01*
X2395476Y-21350154D02*
X2405000Y-21331107D01*
X2424048Y-21321583D01*
X2452619Y-21321583D01*
X2471667Y-21331107D01*
X2481190Y-21350154D01*
X2481190Y-21454916D01*
X2576429Y-21454916D02*
X2576429Y-21321583D01*
X2576429Y-21340630D02*
X2585952Y-21331107D01*
X2605000Y-21321583D01*
X2633571Y-21321583D01*
X2652619Y-21331107D01*
X2662143Y-21350154D01*
X2662143Y-21454916D01*
X2662143Y-21350154D02*
X2671667Y-21331107D01*
X2690714Y-21321583D01*
X2719286Y-21321583D01*
X2738333Y-21331107D01*
X2747857Y-21350154D01*
X2747857Y-21454916D01*
X3138333Y-21245392D02*
X2966905Y-21502535D01*
X3395476Y-21254916D02*
X3414524Y-21254916D01*
X3433571Y-21264440D01*
X3443095Y-21273964D01*
X3452619Y-21293011D01*
X3462143Y-21331107D01*
X3462143Y-21378726D01*
X3452619Y-21416821D01*
X3443095Y-21435869D01*
X3433571Y-21445392D01*
X3414524Y-21454916D01*
X3395476Y-21454916D01*
X3376428Y-21445392D01*
X3366905Y-21435869D01*
X3357381Y-21416821D01*
X3347857Y-21378726D01*
X3347857Y-21331107D01*
X3357381Y-21293011D01*
X3366905Y-21273964D01*
X3376428Y-21264440D01*
X3395476Y-21254916D01*
X3547857Y-21435869D02*
X3557381Y-21445392D01*
X3547857Y-21454916D01*
X3538333Y-21445392D01*
X3547857Y-21435869D01*
X3547857Y-21454916D01*
X3681190Y-21254916D02*
X3700238Y-21254916D01*
X3719286Y-21264440D01*
X3728809Y-21273964D01*
X3738333Y-21293011D01*
X3747857Y-21331107D01*
X3747857Y-21378726D01*
X3738333Y-21416821D01*
X3728809Y-21435869D01*
X3719286Y-21445392D01*
X3700238Y-21454916D01*
X3681190Y-21454916D01*
X3662143Y-21445392D01*
X3652619Y-21435869D01*
X3643095Y-21416821D01*
X3633571Y-21378726D01*
X3633571Y-21331107D01*
X3643095Y-21293011D01*
X3652619Y-21273964D01*
X3662143Y-21264440D01*
X3681190Y-21254916D01*
X3919286Y-21321583D02*
X3919286Y-21454916D01*
X3871667Y-21245392D02*
X3824048Y-21388250D01*
X3947857Y-21388250D01*
X4062143Y-21254916D02*
X4081190Y-21254916D01*
X4100238Y-21264440D01*
X4109762Y-21273964D01*
X4119286Y-21293011D01*
X4128809Y-21331107D01*
X4128809Y-21378726D01*
X4119286Y-21416821D01*
X4109762Y-21435869D01*
X4100238Y-21445392D01*
X4081190Y-21454916D01*
X4062143Y-21454916D01*
X4043095Y-21445392D01*
X4033571Y-21435869D01*
X4024048Y-21416821D01*
X4014524Y-21378726D01*
X4014524Y-21331107D01*
X4024048Y-21293011D01*
X4033571Y-21273964D01*
X4043095Y-21264440D01*
X4062143Y-21254916D01*
X4205000Y-21273964D02*
X4214524Y-21264440D01*
X4233571Y-21254916D01*
X4281190Y-21254916D01*
X4300238Y-21264440D01*
X4309762Y-21273964D01*
X4319286Y-21293011D01*
X4319286Y-21312059D01*
X4309762Y-21340630D01*
X4195476Y-21454916D01*
X4319286Y-21454916D01*
X4395476Y-21254916D02*
X4395476Y-21293011D01*
X4471667Y-21254916D02*
X4471667Y-21293011D01*
X4766905Y-21531107D02*
X4757381Y-21521583D01*
X4738333Y-21493011D01*
X4728810Y-21473964D01*
X4719286Y-21445392D01*
X4709762Y-21397773D01*
X4709762Y-21359678D01*
X4719286Y-21312059D01*
X4728810Y-21283488D01*
X4738333Y-21264440D01*
X4757381Y-21235869D01*
X4766905Y-21226345D01*
X4938333Y-21254916D02*
X4843095Y-21254916D01*
X4833571Y-21350154D01*
X4843095Y-21340630D01*
X4862143Y-21331107D01*
X4909762Y-21331107D01*
X4928810Y-21340630D01*
X4938333Y-21350154D01*
X4947857Y-21369202D01*
X4947857Y-21416821D01*
X4938333Y-21435869D01*
X4928810Y-21445392D01*
X4909762Y-21454916D01*
X4862143Y-21454916D01*
X4843095Y-21445392D01*
X4833571Y-21435869D01*
X5043095Y-21454916D02*
X5081190Y-21454916D01*
X5100238Y-21445392D01*
X5109762Y-21435869D01*
X5128810Y-21407297D01*
X5138333Y-21369202D01*
X5138333Y-21293011D01*
X5128810Y-21273964D01*
X5119286Y-21264440D01*
X5100238Y-21254916D01*
X5062143Y-21254916D01*
X5043095Y-21264440D01*
X5033571Y-21273964D01*
X5024048Y-21293011D01*
X5024048Y-21340630D01*
X5033571Y-21359678D01*
X5043095Y-21369202D01*
X5062143Y-21378726D01*
X5100238Y-21378726D01*
X5119286Y-21369202D01*
X5128810Y-21359678D01*
X5138333Y-21340630D01*
X5376429Y-21454916D02*
X5376429Y-21254916D01*
X5462143Y-21454916D02*
X5462143Y-21350154D01*
X5452619Y-21331107D01*
X5433571Y-21321583D01*
X5405000Y-21321583D01*
X5385952Y-21331107D01*
X5376429Y-21340630D01*
X5585952Y-21454916D02*
X5566905Y-21445392D01*
X5557381Y-21435869D01*
X5547857Y-21416821D01*
X5547857Y-21359678D01*
X5557381Y-21340630D01*
X5566905Y-21331107D01*
X5585952Y-21321583D01*
X5614524Y-21321583D01*
X5633571Y-21331107D01*
X5643095Y-21340630D01*
X5652619Y-21359678D01*
X5652619Y-21416821D01*
X5643095Y-21435869D01*
X5633571Y-21445392D01*
X5614524Y-21454916D01*
X5585952Y-21454916D01*
X5766905Y-21454916D02*
X5747857Y-21445392D01*
X5738333Y-21426345D01*
X5738333Y-21254916D01*
X5919286Y-21445392D02*
X5900238Y-21454916D01*
X5862143Y-21454916D01*
X5843095Y-21445392D01*
X5833571Y-21426345D01*
X5833571Y-21350154D01*
X5843095Y-21331107D01*
X5862143Y-21321583D01*
X5900238Y-21321583D01*
X5919286Y-21331107D01*
X5928809Y-21350154D01*
X5928809Y-21369202D01*
X5833571Y-21388250D01*
X6005000Y-21445392D02*
X6024048Y-21454916D01*
X6062143Y-21454916D01*
X6081190Y-21445392D01*
X6090714Y-21426345D01*
X6090714Y-21416821D01*
X6081190Y-21397773D01*
X6062143Y-21388250D01*
X6033571Y-21388250D01*
X6014524Y-21378726D01*
X6005000Y-21359678D01*
X6005000Y-21350154D01*
X6014524Y-21331107D01*
X6033571Y-21321583D01*
X6062143Y-21321583D01*
X6081190Y-21331107D01*
X6157381Y-21531107D02*
X6166905Y-21521583D01*
X6185952Y-21493011D01*
X6195476Y-21473964D01*
X6205000Y-21445392D01*
X6214524Y-21397773D01*
X6214524Y-21359678D01*
X6205000Y-21312059D01*
X6195476Y-21283488D01*
X6185952Y-21264440D01*
X6166905Y-21235869D01*
X6157381Y-21226345D01*
D17*
X1055000Y-21558440D02*
X1195000Y-21698440D01*
X1195000Y-21558440D02*
X1055000Y-21698440D01*
X1125000Y-21558440D02*
X1125000Y-21698440D01*
X1055000Y-21628440D02*
X1195000Y-21628440D01*
D11*
X1557381Y-21718916D02*
X1443095Y-21718916D01*
X1500238Y-21718916D02*
X1500238Y-21518916D01*
X1481190Y-21547488D01*
X1462143Y-21566535D01*
X1443095Y-21576059D01*
X1643095Y-21699869D02*
X1652619Y-21709392D01*
X1643095Y-21718916D01*
X1633571Y-21709392D01*
X1643095Y-21699869D01*
X1643095Y-21718916D01*
X1824048Y-21585583D02*
X1824048Y-21718916D01*
X1776428Y-21509392D02*
X1728809Y-21652250D01*
X1852619Y-21652250D01*
X1966905Y-21518916D02*
X1985952Y-21518916D01*
X2005000Y-21528440D01*
X2014524Y-21537964D01*
X2024048Y-21557011D01*
X2033571Y-21595107D01*
X2033571Y-21642726D01*
X2024048Y-21680821D01*
X2014524Y-21699869D01*
X2005000Y-21709392D01*
X1985952Y-21718916D01*
X1966905Y-21718916D01*
X1947857Y-21709392D01*
X1938333Y-21699869D01*
X1928809Y-21680821D01*
X1919286Y-21642726D01*
X1919286Y-21595107D01*
X1928809Y-21557011D01*
X1938333Y-21537964D01*
X1947857Y-21528440D01*
X1966905Y-21518916D01*
X2157381Y-21518916D02*
X2176429Y-21518916D01*
X2195476Y-21528440D01*
X2205000Y-21537964D01*
X2214524Y-21557011D01*
X2224048Y-21595107D01*
X2224048Y-21642726D01*
X2214524Y-21680821D01*
X2205000Y-21699869D01*
X2195476Y-21709392D01*
X2176429Y-21718916D01*
X2157381Y-21718916D01*
X2138333Y-21709392D01*
X2128810Y-21699869D01*
X2119286Y-21680821D01*
X2109762Y-21642726D01*
X2109762Y-21595107D01*
X2119286Y-21557011D01*
X2128810Y-21537964D01*
X2138333Y-21528440D01*
X2157381Y-21518916D01*
X2309762Y-21718916D02*
X2309762Y-21585583D01*
X2309762Y-21604630D02*
X2319286Y-21595107D01*
X2338333Y-21585583D01*
X2366905Y-21585583D01*
X2385952Y-21595107D01*
X2395476Y-21614154D01*
X2395476Y-21718916D01*
X2395476Y-21614154D02*
X2405000Y-21595107D01*
X2424048Y-21585583D01*
X2452619Y-21585583D01*
X2471667Y-21595107D01*
X2481190Y-21614154D01*
X2481190Y-21718916D01*
X2576429Y-21718916D02*
X2576429Y-21585583D01*
X2576429Y-21604630D02*
X2585952Y-21595107D01*
X2605000Y-21585583D01*
X2633571Y-21585583D01*
X2652619Y-21595107D01*
X2662143Y-21614154D01*
X2662143Y-21718916D01*
X2662143Y-21614154D02*
X2671667Y-21595107D01*
X2690714Y-21585583D01*
X2719286Y-21585583D01*
X2738333Y-21595107D01*
X2747857Y-21614154D01*
X2747857Y-21718916D01*
X3138333Y-21509392D02*
X2966905Y-21766535D01*
X3395476Y-21518916D02*
X3414524Y-21518916D01*
X3433571Y-21528440D01*
X3443095Y-21537964D01*
X3452619Y-21557011D01*
X3462143Y-21595107D01*
X3462143Y-21642726D01*
X3452619Y-21680821D01*
X3443095Y-21699869D01*
X3433571Y-21709392D01*
X3414524Y-21718916D01*
X3395476Y-21718916D01*
X3376428Y-21709392D01*
X3366905Y-21699869D01*
X3357381Y-21680821D01*
X3347857Y-21642726D01*
X3347857Y-21595107D01*
X3357381Y-21557011D01*
X3366905Y-21537964D01*
X3376428Y-21528440D01*
X3395476Y-21518916D01*
X3547857Y-21699869D02*
X3557381Y-21709392D01*
X3547857Y-21718916D01*
X3538333Y-21709392D01*
X3547857Y-21699869D01*
X3547857Y-21718916D01*
X3681190Y-21518916D02*
X3700238Y-21518916D01*
X3719286Y-21528440D01*
X3728809Y-21537964D01*
X3738333Y-21557011D01*
X3747857Y-21595107D01*
X3747857Y-21642726D01*
X3738333Y-21680821D01*
X3728809Y-21699869D01*
X3719286Y-21709392D01*
X3700238Y-21718916D01*
X3681190Y-21718916D01*
X3662143Y-21709392D01*
X3652619Y-21699869D01*
X3643095Y-21680821D01*
X3633571Y-21642726D01*
X3633571Y-21595107D01*
X3643095Y-21557011D01*
X3652619Y-21537964D01*
X3662143Y-21528440D01*
X3681190Y-21518916D01*
X3928809Y-21518916D02*
X3833571Y-21518916D01*
X3824048Y-21614154D01*
X3833571Y-21604630D01*
X3852619Y-21595107D01*
X3900238Y-21595107D01*
X3919286Y-21604630D01*
X3928809Y-21614154D01*
X3938333Y-21633202D01*
X3938333Y-21680821D01*
X3928809Y-21699869D01*
X3919286Y-21709392D01*
X3900238Y-21718916D01*
X3852619Y-21718916D01*
X3833571Y-21709392D01*
X3824048Y-21699869D01*
X4119286Y-21518916D02*
X4024048Y-21518916D01*
X4014524Y-21614154D01*
X4024048Y-21604630D01*
X4043095Y-21595107D01*
X4090714Y-21595107D01*
X4109762Y-21604630D01*
X4119286Y-21614154D01*
X4128809Y-21633202D01*
X4128809Y-21680821D01*
X4119286Y-21699869D01*
X4109762Y-21709392D01*
X4090714Y-21718916D01*
X4043095Y-21718916D01*
X4024048Y-21709392D01*
X4014524Y-21699869D01*
X4319286Y-21718916D02*
X4205000Y-21718916D01*
X4262143Y-21718916D02*
X4262143Y-21518916D01*
X4243095Y-21547488D01*
X4224048Y-21566535D01*
X4205000Y-21576059D01*
X4395476Y-21518916D02*
X4395476Y-21557011D01*
X4471667Y-21518916D02*
X4471667Y-21557011D01*
X4766905Y-21795107D02*
X4757381Y-21785583D01*
X4738333Y-21757011D01*
X4728810Y-21737964D01*
X4719286Y-21709392D01*
X4709762Y-21661773D01*
X4709762Y-21623678D01*
X4719286Y-21576059D01*
X4728810Y-21547488D01*
X4738333Y-21528440D01*
X4757381Y-21499869D01*
X4766905Y-21490345D01*
X4947857Y-21718916D02*
X4833571Y-21718916D01*
X4890714Y-21718916D02*
X4890714Y-21518916D01*
X4871667Y-21547488D01*
X4852619Y-21566535D01*
X4833571Y-21576059D01*
X5119286Y-21585583D02*
X5119286Y-21718916D01*
X5071667Y-21509392D02*
X5024048Y-21652250D01*
X5147857Y-21652250D01*
X5376429Y-21718916D02*
X5376429Y-21518916D01*
X5462143Y-21718916D02*
X5462143Y-21614154D01*
X5452619Y-21595107D01*
X5433571Y-21585583D01*
X5405000Y-21585583D01*
X5385952Y-21595107D01*
X5376429Y-21604630D01*
X5585952Y-21718916D02*
X5566905Y-21709392D01*
X5557381Y-21699869D01*
X5547857Y-21680821D01*
X5547857Y-21623678D01*
X5557381Y-21604630D01*
X5566905Y-21595107D01*
X5585952Y-21585583D01*
X5614524Y-21585583D01*
X5633571Y-21595107D01*
X5643095Y-21604630D01*
X5652619Y-21623678D01*
X5652619Y-21680821D01*
X5643095Y-21699869D01*
X5633571Y-21709392D01*
X5614524Y-21718916D01*
X5585952Y-21718916D01*
X5766905Y-21718916D02*
X5747857Y-21709392D01*
X5738333Y-21690345D01*
X5738333Y-21518916D01*
X5919286Y-21709392D02*
X5900238Y-21718916D01*
X5862143Y-21718916D01*
X5843095Y-21709392D01*
X5833571Y-21690345D01*
X5833571Y-21614154D01*
X5843095Y-21595107D01*
X5862143Y-21585583D01*
X5900238Y-21585583D01*
X5919286Y-21595107D01*
X5928809Y-21614154D01*
X5928809Y-21633202D01*
X5833571Y-21652250D01*
X6005000Y-21709392D02*
X6024048Y-21718916D01*
X6062143Y-21718916D01*
X6081190Y-21709392D01*
X6090714Y-21690345D01*
X6090714Y-21680821D01*
X6081190Y-21661773D01*
X6062143Y-21652250D01*
X6033571Y-21652250D01*
X6014524Y-21642726D01*
X6005000Y-21623678D01*
X6005000Y-21614154D01*
X6014524Y-21595107D01*
X6033571Y-21585583D01*
X6062143Y-21585583D01*
X6081190Y-21595107D01*
X6157381Y-21795107D02*
X6166905Y-21785583D01*
X6185952Y-21757011D01*
X6195476Y-21737964D01*
X6205000Y-21709392D01*
X6214524Y-21661773D01*
X6214524Y-21623678D01*
X6205000Y-21576059D01*
X6195476Y-21547488D01*
X6185952Y-21528440D01*
X6166905Y-21499869D01*
X6157381Y-21490345D01*
X995000Y-21792440D02*
X1195000Y-21992440D01*
X1195000Y-21792440D02*
X995000Y-21992440D01*
X1165711Y-21963151D02*
X1165711Y-21821729D01*
X1024289Y-21821729D01*
X1024289Y-21963151D01*
X1165711Y-21963151D01*
X1443095Y-21801964D02*
X1452619Y-21792440D01*
X1471667Y-21782916D01*
X1519286Y-21782916D01*
X1538333Y-21792440D01*
X1547857Y-21801964D01*
X1557381Y-21821011D01*
X1557381Y-21840059D01*
X1547857Y-21868630D01*
X1433571Y-21982916D01*
X1557381Y-21982916D01*
X1643095Y-21963869D02*
X1652619Y-21973392D01*
X1643095Y-21982916D01*
X1633571Y-21973392D01*
X1643095Y-21963869D01*
X1643095Y-21982916D01*
X1824048Y-21849583D02*
X1824048Y-21982916D01*
X1776428Y-21773392D02*
X1728809Y-21916250D01*
X1852619Y-21916250D01*
X2033571Y-21982916D02*
X1919286Y-21982916D01*
X1976428Y-21982916D02*
X1976428Y-21782916D01*
X1957381Y-21811488D01*
X1938333Y-21830535D01*
X1919286Y-21840059D01*
X2157381Y-21782916D02*
X2176429Y-21782916D01*
X2195476Y-21792440D01*
X2205000Y-21801964D01*
X2214524Y-21821011D01*
X2224048Y-21859107D01*
X2224048Y-21906726D01*
X2214524Y-21944821D01*
X2205000Y-21963869D01*
X2195476Y-21973392D01*
X2176429Y-21982916D01*
X2157381Y-21982916D01*
X2138333Y-21973392D01*
X2128810Y-21963869D01*
X2119286Y-21944821D01*
X2109762Y-21906726D01*
X2109762Y-21859107D01*
X2119286Y-21821011D01*
X2128810Y-21801964D01*
X2138333Y-21792440D01*
X2157381Y-21782916D01*
X2309762Y-21982916D02*
X2309762Y-21849583D01*
X2309762Y-21868630D02*
X2319286Y-21859107D01*
X2338333Y-21849583D01*
X2366905Y-21849583D01*
X2385952Y-21859107D01*
X2395476Y-21878154D01*
X2395476Y-21982916D01*
X2395476Y-21878154D02*
X2405000Y-21859107D01*
X2424048Y-21849583D01*
X2452619Y-21849583D01*
X2471667Y-21859107D01*
X2481190Y-21878154D01*
X2481190Y-21982916D01*
X2576429Y-21982916D02*
X2576429Y-21849583D01*
X2576429Y-21868630D02*
X2585952Y-21859107D01*
X2605000Y-21849583D01*
X2633571Y-21849583D01*
X2652619Y-21859107D01*
X2662143Y-21878154D01*
X2662143Y-21982916D01*
X2662143Y-21878154D02*
X2671667Y-21859107D01*
X2690714Y-21849583D01*
X2719286Y-21849583D01*
X2738333Y-21859107D01*
X2747857Y-21878154D01*
X2747857Y-21982916D01*
X3138333Y-21773392D02*
X2966905Y-22030535D01*
X3395476Y-21782916D02*
X3414524Y-21782916D01*
X3433571Y-21792440D01*
X3443095Y-21801964D01*
X3452619Y-21821011D01*
X3462143Y-21859107D01*
X3462143Y-21906726D01*
X3452619Y-21944821D01*
X3443095Y-21963869D01*
X3433571Y-21973392D01*
X3414524Y-21982916D01*
X3395476Y-21982916D01*
X3376428Y-21973392D01*
X3366905Y-21963869D01*
X3357381Y-21944821D01*
X3347857Y-21906726D01*
X3347857Y-21859107D01*
X3357381Y-21821011D01*
X3366905Y-21801964D01*
X3376428Y-21792440D01*
X3395476Y-21782916D01*
X3547857Y-21963869D02*
X3557381Y-21973392D01*
X3547857Y-21982916D01*
X3538333Y-21973392D01*
X3547857Y-21963869D01*
X3547857Y-21982916D01*
X3681190Y-21782916D02*
X3700238Y-21782916D01*
X3719286Y-21792440D01*
X3728809Y-21801964D01*
X3738333Y-21821011D01*
X3747857Y-21859107D01*
X3747857Y-21906726D01*
X3738333Y-21944821D01*
X3728809Y-21963869D01*
X3719286Y-21973392D01*
X3700238Y-21982916D01*
X3681190Y-21982916D01*
X3662143Y-21973392D01*
X3652619Y-21963869D01*
X3643095Y-21944821D01*
X3633571Y-21906726D01*
X3633571Y-21859107D01*
X3643095Y-21821011D01*
X3652619Y-21801964D01*
X3662143Y-21792440D01*
X3681190Y-21782916D01*
X3843095Y-21982916D02*
X3881190Y-21982916D01*
X3900238Y-21973392D01*
X3909762Y-21963869D01*
X3928809Y-21935297D01*
X3938333Y-21897202D01*
X3938333Y-21821011D01*
X3928809Y-21801964D01*
X3919286Y-21792440D01*
X3900238Y-21782916D01*
X3862143Y-21782916D01*
X3843095Y-21792440D01*
X3833571Y-21801964D01*
X3824048Y-21821011D01*
X3824048Y-21868630D01*
X3833571Y-21887678D01*
X3843095Y-21897202D01*
X3862143Y-21906726D01*
X3900238Y-21906726D01*
X3919286Y-21897202D01*
X3928809Y-21887678D01*
X3938333Y-21868630D01*
X4109762Y-21849583D02*
X4109762Y-21982916D01*
X4062143Y-21773392D02*
X4014524Y-21916250D01*
X4138333Y-21916250D01*
X4224048Y-21982916D02*
X4262143Y-21982916D01*
X4281190Y-21973392D01*
X4290714Y-21963869D01*
X4309762Y-21935297D01*
X4319286Y-21897202D01*
X4319286Y-21821011D01*
X4309762Y-21801964D01*
X4300238Y-21792440D01*
X4281190Y-21782916D01*
X4243095Y-21782916D01*
X4224048Y-21792440D01*
X4214524Y-21801964D01*
X4205000Y-21821011D01*
X4205000Y-21868630D01*
X4214524Y-21887678D01*
X4224048Y-21897202D01*
X4243095Y-21906726D01*
X4281190Y-21906726D01*
X4300238Y-21897202D01*
X4309762Y-21887678D01*
X4319286Y-21868630D01*
X4395476Y-21782916D02*
X4395476Y-21821011D01*
X4471667Y-21782916D02*
X4471667Y-21821011D01*
X4766905Y-22059107D02*
X4757381Y-22049583D01*
X4738333Y-22021011D01*
X4728810Y-22001964D01*
X4719286Y-21973392D01*
X4709762Y-21925773D01*
X4709762Y-21887678D01*
X4719286Y-21840059D01*
X4728810Y-21811488D01*
X4738333Y-21792440D01*
X4757381Y-21763869D01*
X4766905Y-21754345D01*
X4833571Y-21801964D02*
X4843095Y-21792440D01*
X4862143Y-21782916D01*
X4909762Y-21782916D01*
X4928810Y-21792440D01*
X4938333Y-21801964D01*
X4947857Y-21821011D01*
X4947857Y-21840059D01*
X4938333Y-21868630D01*
X4824048Y-21982916D01*
X4947857Y-21982916D01*
X5185952Y-21982916D02*
X5185952Y-21782916D01*
X5271667Y-21982916D02*
X5271667Y-21878154D01*
X5262143Y-21859107D01*
X5243095Y-21849583D01*
X5214524Y-21849583D01*
X5195476Y-21859107D01*
X5185952Y-21868630D01*
X5395476Y-21982916D02*
X5376429Y-21973392D01*
X5366905Y-21963869D01*
X5357381Y-21944821D01*
X5357381Y-21887678D01*
X5366905Y-21868630D01*
X5376429Y-21859107D01*
X5395476Y-21849583D01*
X5424048Y-21849583D01*
X5443095Y-21859107D01*
X5452619Y-21868630D01*
X5462143Y-21887678D01*
X5462143Y-21944821D01*
X5452619Y-21963869D01*
X5443095Y-21973392D01*
X5424048Y-21982916D01*
X5395476Y-21982916D01*
X5576429Y-21982916D02*
X5557381Y-21973392D01*
X5547857Y-21954345D01*
X5547857Y-21782916D01*
X5728809Y-21973392D02*
X5709762Y-21982916D01*
X5671667Y-21982916D01*
X5652619Y-21973392D01*
X5643095Y-21954345D01*
X5643095Y-21878154D01*
X5652619Y-21859107D01*
X5671667Y-21849583D01*
X5709762Y-21849583D01*
X5728809Y-21859107D01*
X5738333Y-21878154D01*
X5738333Y-21897202D01*
X5643095Y-21916250D01*
X5814524Y-21973392D02*
X5833571Y-21982916D01*
X5871667Y-21982916D01*
X5890714Y-21973392D01*
X5900238Y-21954345D01*
X5900238Y-21944821D01*
X5890714Y-21925773D01*
X5871667Y-21916250D01*
X5843095Y-21916250D01*
X5824048Y-21906726D01*
X5814524Y-21887678D01*
X5814524Y-21878154D01*
X5824048Y-21859107D01*
X5843095Y-21849583D01*
X5871667Y-21849583D01*
X5890714Y-21859107D01*
X5966905Y-22059107D02*
X5976428Y-22049583D01*
X5995476Y-22021011D01*
X6005000Y-22001964D01*
X6014524Y-21973392D01*
X6024048Y-21925773D01*
X6024048Y-21887678D01*
X6014524Y-21840059D01*
X6005000Y-21811488D01*
X5995476Y-21792440D01*
X5976428Y-21763869D01*
X5966905Y-21754345D01*
M02*
